<?xml version="1.0" encoding="UTF-8" standalone="no"?>
<!DOCTYPE svg PUBLIC "-//W3C//DTD SVG 1.1//EN"
 "http://www.w3.org/Graphics/SVG/1.1/DTD/svg11.dtd">
<!-- Generated by graphviz version 2.47.3 (20210619.1520)
 -->
<!-- Title: dependencies Pages: 1 -->
<svg width="995pt" height="174pt"
 viewBox="0.00 0.00 995.00 173.80" xmlns="http://www.w3.org/2000/svg" xmlns:xlink="http://www.w3.org/1999/xlink">
<g id="graph0" class="graph" transform="scale(1 1) rotate(0) translate(4 169.8)">
<title>dependencies</title>
<polygon fill="white" stroke="transparent" points="-4,4 -4,-169.8 991,-169.8 991,4 -4,4"/>
<text text-anchor="middle" x="493.5" y="-8.2" font-family="sans-serif" font-size="14.00">dependencies</text>
<g id="clust1" class="cluster">
<title>cluster_LoginModule</title>
<polygon fill="none" stroke="black" stroke-dasharray="1,5" points="8,-32.8 8,-157.8 979,-157.8 979,-32.8 8,-32.8"/>
</g>
<g id="clust4" class="cluster">
<title>cluster_LoginModule_imports</title>
<polygon fill="none" stroke="black" points="94,-40.8 94,-92.8 971,-92.8 971,-40.8 94,-40.8"/>
</g>
<g id="clust2" class="cluster">
<title>cluster_LoginModule_declarations</title>
<polygon fill="none" stroke="black" points="16,-40.8 16,-92.8 86,-92.8 86,-40.8 16,-40.8"/>
</g>
<!-- Login -->
<g id="node1" class="node">
<title>Login</title>
<polygon fill="#ffffb3" stroke="black" points="78,-84.8 24,-84.8 24,-48.8 78,-48.8 78,-84.8"/>
<text text-anchor="middle" x="51" y="-62.6" font-family="Times,serif" font-size="14.00">Login</text>
</g>
<!-- LoginModule -->
<g id="node2" class="node">
<title>LoginModule</title>
<polygon fill="#8dd3c7" stroke="black" points="565.49,-149.8 562.49,-153.8 541.49,-153.8 538.49,-149.8 472.51,-149.8 472.51,-113.8 565.49,-113.8 565.49,-149.8"/>
<text text-anchor="middle" x="519" y="-127.6" font-family="Times,serif" font-size="14.00">LoginModule</text>
</g>
<!-- Login&#45;&gt;LoginModule -->
<g id="edge1" class="edge">
<title>Login&#45;&gt;LoginModule</title>
<path fill="none" stroke="black" d="M51,-85.09C51,-107.01 51,-140.8 51,-140.8 51,-140.8 462.42,-140.8 462.42,-140.8"/>
<polygon fill="black" stroke="black" points="462.42,-144.3 472.42,-140.8 462.42,-137.3 462.42,-144.3"/>
</g>
<!-- AppUtilsModule -->
<g id="node3" class="node">
<title>AppUtilsModule</title>
<polygon fill="#8dd3c7" stroke="black" points="963.38,-84.8 960.38,-88.8 939.38,-88.8 936.38,-84.8 852.62,-84.8 852.62,-48.8 963.38,-48.8 963.38,-84.8"/>
<text text-anchor="middle" x="908" y="-62.6" font-family="Times,serif" font-size="14.00">AppUtilsModule</text>
</g>
<!-- AppUtilsModule&#45;&gt;LoginModule -->
<g id="edge2" class="edge">
<title>AppUtilsModule&#45;&gt;LoginModule</title>
<path fill="none" stroke="black" d="M908,-85.09C908,-107.01 908,-140.8 908,-140.8 908,-140.8 575.54,-140.8 575.54,-140.8"/>
<polygon fill="black" stroke="black" points="575.54,-137.3 565.54,-140.8 575.54,-144.3 575.54,-137.3"/>
</g>
<!-- BaseModule -->
<g id="node4" class="node">
<title>BaseModule</title>
<polygon fill="#8dd3c7" stroke="black" points="834.26,-84.8 831.26,-88.8 810.26,-88.8 807.26,-84.8 747.74,-84.8 747.74,-48.8 834.26,-48.8 834.26,-84.8"/>
<text text-anchor="middle" x="791" y="-62.6" font-family="Times,serif" font-size="14.00">BaseModule</text>
</g>
<!-- BaseModule&#45;&gt;LoginModule -->
<g id="edge3" class="edge">
<title>BaseModule&#45;&gt;LoginModule</title>
<path fill="none" stroke="black" d="M791,-84.91C791,-104.14 791,-131.8 791,-131.8 791,-131.8 575.76,-131.8 575.76,-131.8"/>
<polygon fill="black" stroke="black" points="575.76,-128.3 565.76,-131.8 575.76,-135.3 575.76,-128.3"/>
</g>
<!-- IntlModule -->
<g id="node5" class="node">
<title>IntlModule</title>
<polygon fill="#8dd3c7" stroke="black" points="729.49,-84.8 726.49,-88.8 705.49,-88.8 702.49,-84.8 650.51,-84.8 650.51,-48.8 729.49,-48.8 729.49,-84.8"/>
<text text-anchor="middle" x="690" y="-62.6" font-family="Times,serif" font-size="14.00">IntlModule</text>
</g>
<!-- IntlModule&#45;&gt;LoginModule -->
<g id="edge4" class="edge">
<title>IntlModule&#45;&gt;LoginModule</title>
<path fill="none" stroke="black" d="M690,-84.83C690,-101.2 690,-122.8 690,-122.8 690,-122.8 575.73,-122.8 575.73,-122.8"/>
<polygon fill="black" stroke="black" points="575.73,-119.3 565.73,-122.8 575.73,-126.3 575.73,-119.3"/>
</g>
<!-- ModalModule -->
<g id="node6" class="node">
<title>ModalModule</title>
<polygon fill="#8dd3c7" stroke="black" points="632.1,-84.8 629.1,-88.8 608.1,-88.8 605.1,-84.8 535.9,-84.8 535.9,-48.8 632.1,-48.8 632.1,-84.8"/>
<text text-anchor="middle" x="584" y="-62.6" font-family="Times,serif" font-size="14.00">ModalModule</text>
</g>
<!-- ModalModule&#45;&gt;LoginModule -->
<g id="edge5" class="edge">
<title>ModalModule&#45;&gt;LoginModule</title>
<path fill="none" stroke="black" d="M550.72,-84.91C550.72,-84.91 550.72,-103.79 550.72,-103.79"/>
<polygon fill="black" stroke="black" points="547.22,-103.79 550.72,-113.79 554.22,-103.79 547.22,-103.79"/>
</g>
<!-- NotificationModule -->
<g id="node7" class="node">
<title>NotificationModule</title>
<polygon fill="#8dd3c7" stroke="black" points="517.7,-84.8 514.7,-88.8 493.7,-88.8 490.7,-84.8 390.3,-84.8 390.3,-48.8 517.7,-48.8 517.7,-84.8"/>
<text text-anchor="middle" x="454" y="-62.6" font-family="Times,serif" font-size="14.00">NotificationModule</text>
</g>
<!-- NotificationModule&#45;&gt;LoginModule -->
<g id="edge6" class="edge">
<title>NotificationModule&#45;&gt;LoginModule</title>
<path fill="none" stroke="black" d="M495.05,-84.91C495.05,-84.91 495.05,-103.79 495.05,-103.79"/>
<polygon fill="black" stroke="black" points="491.55,-103.79 495.05,-113.79 498.55,-103.79 491.55,-103.79"/>
</g>
<!-- ValidationModule -->
<g id="node8" class="node">
<title>ValidationModule</title>
<polygon fill="#8dd3c7" stroke="black" points="372.15,-84.8 369.15,-88.8 348.15,-88.8 345.15,-84.8 253.85,-84.8 253.85,-48.8 372.15,-48.8 372.15,-84.8"/>
<text text-anchor="middle" x="313" y="-62.6" font-family="Times,serif" font-size="14.00">ValidationModule</text>
</g>
<!-- ValidationModule&#45;&gt;LoginModule -->
<g id="edge7" class="edge">
<title>ValidationModule&#45;&gt;LoginModule</title>
<path fill="none" stroke="black" d="M313,-84.83C313,-101.2 313,-122.8 313,-122.8 313,-122.8 462.26,-122.8 462.26,-122.8"/>
<polygon fill="black" stroke="black" points="462.26,-126.3 472.26,-122.8 462.26,-119.3 462.26,-126.3"/>
</g>
<!-- WebServicesModule -->
<g id="node9" class="node">
<title>WebServicesModule</title>
<polygon fill="#8dd3c7" stroke="black" points="235.9,-84.8 232.9,-88.8 211.9,-88.8 208.9,-84.8 102.1,-84.8 102.1,-48.8 235.9,-48.8 235.9,-84.8"/>
<text text-anchor="middle" x="169" y="-62.6" font-family="Times,serif" font-size="14.00">WebServicesModule</text>
</g>
<!-- WebServicesModule&#45;&gt;LoginModule -->
<g id="edge8" class="edge">
<title>WebServicesModule&#45;&gt;LoginModule</title>
<path fill="none" stroke="black" d="M169,-84.91C169,-104.14 169,-131.8 169,-131.8 169,-131.8 462.16,-131.8 462.16,-131.8"/>
<polygon fill="black" stroke="black" points="462.16,-135.3 472.16,-131.8 462.16,-128.3 462.16,-135.3"/>
</g>
</g>
</svg>
