<?xml version="1.0" encoding="UTF-8" standalone="no"?>
<!DOCTYPE svg PUBLIC "-//W3C//DTD SVG 1.1//EN"
 "http://www.w3.org/Graphics/SVG/1.1/DTD/svg11.dtd">
<!-- Generated by graphviz version 2.40.1 (20161225.0304)
 -->
<!-- Title: dependencies Pages: 1 -->
<svg width="2334pt" height="211pt"
 viewBox="0.00 0.00 2334.00 211.00" xmlns="http://www.w3.org/2000/svg" xmlns:xlink="http://www.w3.org/1999/xlink">
<g id="graph0" class="graph" transform="scale(1 1) rotate(0) translate(4 207)">
<title>dependencies</title>
<polygon fill="#ffffff" stroke="transparent" points="-4,4 -4,-207 2330,-207 2330,4 -4,4"/>
<text text-anchor="start" x="1142.0091" y="-42.4" font-family="sans-serif" font-weight="bold" font-size="14.00" fill="#000000">Legend</text>
<polygon fill="#ffffb3" stroke="transparent" points="929,-10 929,-30 949,-30 949,-10 929,-10"/>
<text text-anchor="start" x="952.629" y="-15.4" font-family="sans-serif" font-size="14.00" fill="#000000"> &#160;Declarations</text>
<polygon fill="#8dd3c7" stroke="transparent" points="1042,-10 1042,-30 1062,-30 1062,-10 1042,-10"/>
<text text-anchor="start" x="1065.7251" y="-15.4" font-family="sans-serif" font-size="14.00" fill="#000000"> &#160;Module</text>
<polygon fill="#80b1d3" stroke="transparent" points="1128,-10 1128,-30 1148,-30 1148,-10 1128,-10"/>
<text text-anchor="start" x="1151.7812" y="-15.4" font-family="sans-serif" font-size="14.00" fill="#000000"> &#160;Bootstrap</text>
<polygon fill="#fdb462" stroke="transparent" points="1225,-10 1225,-30 1245,-30 1245,-10 1225,-10"/>
<text text-anchor="start" x="1248.6732" y="-15.4" font-family="sans-serif" font-size="14.00" fill="#000000"> &#160;Providers</text>
<polygon fill="#fb8072" stroke="transparent" points="1321,-10 1321,-30 1341,-30 1341,-10 1321,-10"/>
<text text-anchor="start" x="1344.7258" y="-15.4" font-family="sans-serif" font-size="14.00" fill="#000000"> &#160;Exports</text>
<g id="clust1" class="cluster">
<title>cluster_LoginModule</title>
<polygon fill="none" stroke="#000000" stroke-dasharray="1,5" points="8,-70 8,-195 2318,-195 2318,-70 8,-70"/>
</g>
<g id="clust2" class="cluster">
<title>cluster_LoginModule_declarations</title>
<polygon fill="none" stroke="#000000" points="2240,-78 2240,-130 2310,-130 2310,-78 2240,-78"/>
</g>
<g id="clust4" class="cluster">
<title>cluster_LoginModule_imports</title>
<polygon fill="none" stroke="#000000" points="1355,-78 1355,-130 2232,-130 2232,-78 1355,-78"/>
</g>
<g id="clust7" class="cluster">
<title>cluster_LoginModule_providers</title>
<polygon fill="none" stroke="#000000" points="16,-78 16,-130 1347,-130 1347,-78 16,-78"/>
</g>
<!-- Login -->
<g id="node1" class="node">
<title>Login</title>
<polygon fill="#ffffb3" stroke="#000000" points="2302,-122 2248,-122 2248,-86 2302,-86 2302,-122"/>
<text text-anchor="middle" x="2275" y="-99.8" font-family="Times,serif" font-size="14.00" fill="#000000">Login</text>
</g>
<!-- LoginModule -->
<g id="node2" class="node">
<title>LoginModule</title>
<polygon fill="#8dd3c7" stroke="#000000" points="1476.493,-187 1473.493,-191 1452.493,-191 1449.493,-187 1383.507,-187 1383.507,-151 1476.493,-151 1476.493,-187"/>
<text text-anchor="middle" x="1430" y="-164.8" font-family="Times,serif" font-size="14.00" fill="#000000">LoginModule</text>
</g>
<!-- Login&#45;&gt;LoginModule -->
<g id="edge1" class="edge">
<title>Login&#45;&gt;LoginModule</title>
<path fill="none" stroke="#000000" d="M2275,-122.3228C2275,-145.6602 2275,-183 2275,-183 2275,-183 1486.6345,-183 1486.6345,-183"/>
<polygon fill="#000000" stroke="#000000" points="1486.6345,-179.5001 1476.6345,-183 1486.6345,-186.5001 1486.6345,-179.5001"/>
</g>
<!-- AppUtilsModule -->
<g id="node3" class="node">
<title>AppUtilsModule</title>
<polygon fill="#8dd3c7" stroke="#000000" points="2224.3795,-122 2221.3795,-126 2200.3795,-126 2197.3795,-122 2113.6205,-122 2113.6205,-86 2224.3795,-86 2224.3795,-122"/>
<text text-anchor="middle" x="2169" y="-99.8" font-family="Times,serif" font-size="14.00" fill="#000000">AppUtilsModule</text>
</g>
<!-- AppUtilsModule&#45;&gt;LoginModule -->
<g id="edge2" class="edge">
<title>AppUtilsModule&#45;&gt;LoginModule</title>
<path fill="none" stroke="#000000" d="M2169,-122.2921C2169,-144.2057 2169,-178 2169,-178 2169,-178 1486.5077,-178 1486.5077,-178"/>
<polygon fill="#000000" stroke="#000000" points="1486.5077,-174.5001 1476.5077,-178 1486.5077,-181.5001 1486.5077,-174.5001"/>
</g>
<!-- BaseModule -->
<g id="node4" class="node">
<title>BaseModule</title>
<polygon fill="#8dd3c7" stroke="#000000" points="2095.2605,-122 2092.2605,-126 2071.2605,-126 2068.2605,-122 2008.7395,-122 2008.7395,-86 2095.2605,-86 2095.2605,-122"/>
<text text-anchor="middle" x="2052" y="-99.8" font-family="Times,serif" font-size="14.00" fill="#000000">BaseModule</text>
</g>
<!-- BaseModule&#45;&gt;LoginModule -->
<g id="edge3" class="edge">
<title>BaseModule&#45;&gt;LoginModule</title>
<path fill="none" stroke="#000000" d="M2052,-122.0267C2052,-142.7672 2052,-174 2052,-174 2052,-174 1486.4967,-174 1486.4967,-174"/>
<polygon fill="#000000" stroke="#000000" points="1486.4968,-170.5001 1476.4967,-174 1486.4967,-177.5001 1486.4968,-170.5001"/>
</g>
<!-- IntlModule -->
<g id="node5" class="node">
<title>IntlModule</title>
<polygon fill="#8dd3c7" stroke="#000000" points="1990.4916,-122 1987.4916,-126 1966.4916,-126 1963.4916,-122 1911.5084,-122 1911.5084,-86 1990.4916,-86 1990.4916,-122"/>
<text text-anchor="middle" x="1951" y="-99.8" font-family="Times,serif" font-size="14.00" fill="#000000">IntlModule</text>
</g>
<!-- IntlModule&#45;&gt;LoginModule -->
<g id="edge4" class="edge">
<title>IntlModule&#45;&gt;LoginModule</title>
<path fill="none" stroke="#000000" d="M1951,-122.1061C1951,-141.3391 1951,-169 1951,-169 1951,-169 1486.6938,-169 1486.6938,-169"/>
<polygon fill="#000000" stroke="#000000" points="1486.6938,-165.5001 1476.6938,-169 1486.6937,-172.5001 1486.6938,-165.5001"/>
</g>
<!-- ModalModule -->
<g id="node6" class="node">
<title>ModalModule</title>
<polygon fill="#8dd3c7" stroke="#000000" points="1893.0997,-122 1890.0997,-126 1869.0997,-126 1866.0997,-122 1796.9003,-122 1796.9003,-86 1893.0997,-86 1893.0997,-122"/>
<text text-anchor="middle" x="1845" y="-99.8" font-family="Times,serif" font-size="14.00" fill="#000000">ModalModule</text>
</g>
<!-- ModalModule&#45;&gt;LoginModule -->
<g id="edge5" class="edge">
<title>ModalModule&#45;&gt;LoginModule</title>
<path fill="none" stroke="#000000" d="M1845,-122.302C1845,-140.2699 1845,-165 1845,-165 1845,-165 1486.7991,-165 1486.7991,-165"/>
<polygon fill="#000000" stroke="#000000" points="1486.7991,-161.5001 1476.7991,-165 1486.799,-168.5001 1486.7991,-161.5001"/>
</g>
<!-- NotificationModule -->
<g id="node7" class="node">
<title>NotificationModule</title>
<polygon fill="#8dd3c7" stroke="#000000" points="1778.6994,-122 1775.6994,-126 1754.6994,-126 1751.6994,-122 1651.3006,-122 1651.3006,-86 1778.6994,-86 1778.6994,-122"/>
<text text-anchor="middle" x="1715" y="-99.8" font-family="Times,serif" font-size="14.00" fill="#000000">NotificationModule</text>
</g>
<!-- NotificationModule&#45;&gt;LoginModule -->
<g id="edge6" class="edge">
<title>NotificationModule&#45;&gt;LoginModule</title>
<path fill="none" stroke="#000000" d="M1715,-122.027C1715,-138.3976 1715,-160 1715,-160 1715,-160 1486.7428,-160 1486.7428,-160"/>
<polygon fill="#000000" stroke="#000000" points="1486.7429,-156.5001 1476.7428,-160 1486.7428,-163.5001 1486.7429,-156.5001"/>
</g>
<!-- ValidationModule -->
<g id="node8" class="node">
<title>ValidationModule</title>
<polygon fill="#8dd3c7" stroke="#000000" points="1633.1485,-122 1630.1485,-126 1609.1485,-126 1606.1485,-122 1514.8515,-122 1514.8515,-86 1633.1485,-86 1633.1485,-122"/>
<text text-anchor="middle" x="1574" y="-99.8" font-family="Times,serif" font-size="14.00" fill="#000000">ValidationModule</text>
</g>
<!-- ValidationModule&#45;&gt;LoginModule -->
<g id="edge7" class="edge">
<title>ValidationModule&#45;&gt;LoginModule</title>
<path fill="none" stroke="#000000" d="M1574,-122.1871C1574,-137.1824 1574,-156 1574,-156 1574,-156 1486.7527,-156 1486.7527,-156"/>
<polygon fill="#000000" stroke="#000000" points="1486.7527,-152.5001 1476.7527,-156 1486.7526,-159.5001 1486.7527,-152.5001"/>
</g>
<!-- WebServicesModule -->
<g id="node9" class="node">
<title>WebServicesModule</title>
<polygon fill="#8dd3c7" stroke="#000000" points="1496.9018,-122 1493.9018,-126 1472.9018,-126 1469.9018,-122 1363.0982,-122 1363.0982,-86 1496.9018,-86 1496.9018,-122"/>
<text text-anchor="middle" x="1430" y="-99.8" font-family="Times,serif" font-size="14.00" fill="#000000">WebServicesModule</text>
</g>
<!-- WebServicesModule&#45;&gt;LoginModule -->
<g id="edge8" class="edge">
<title>WebServicesModule&#45;&gt;LoginModule</title>
<path fill="none" stroke="#000000" d="M1430,-122.1061C1430,-122.1061 1430,-140.991 1430,-140.991"/>
<polygon fill="#000000" stroke="#000000" points="1426.5001,-140.9909 1430,-150.991 1433.5001,-140.991 1426.5001,-140.9909"/>
</g>
<!-- AuthenticationOauthService -->
<g id="node10" class="node">
<title>AuthenticationOauthService</title>
<ellipse fill="#fdb462" stroke="#000000" cx="1218" cy="-104" rx="120.9655" ry="18"/>
<text text-anchor="middle" x="1218" y="-99.8" font-family="Times,serif" font-size="14.00" fill="#000000">AuthenticationOauthService</text>
</g>
<!-- AuthenticationOauthService&#45;&gt;LoginModule -->
<g id="edge9" class="edge">
<title>AuthenticationOauthService&#45;&gt;LoginModule</title>
<path fill="none" stroke="#000000" d="M1218,-122.1871C1218,-137.1824 1218,-156 1218,-156 1218,-156 1373.4757,-156 1373.4757,-156"/>
<polygon fill="#000000" stroke="#000000" points="1373.4757,-159.5001 1383.4757,-156 1373.4757,-152.5001 1373.4757,-159.5001"/>
</g>
<!-- AuthenticationPopupService -->
<g id="node11" class="node">
<title>AuthenticationPopupService</title>
<ellipse fill="#fdb462" stroke="#000000" cx="957" cy="-104" rx="122.1326" ry="18"/>
<text text-anchor="middle" x="957" y="-99.8" font-family="Times,serif" font-size="14.00" fill="#000000">AuthenticationPopupService</text>
</g>
<!-- AuthenticationPopupService&#45;&gt;LoginModule -->
<g id="edge10" class="edge">
<title>AuthenticationPopupService&#45;&gt;LoginModule</title>
<path fill="none" stroke="#000000" d="M957,-122.027C957,-138.3976 957,-160 957,-160 957,-160 1373.3525,-160 1373.3525,-160"/>
<polygon fill="#000000" stroke="#000000" points="1373.3525,-163.5001 1383.3525,-160 1373.3524,-156.5001 1373.3525,-163.5001"/>
</g>
<!-- AuthenticationService -->
<g id="node12" class="node">
<title>AuthenticationService</title>
<ellipse fill="#fdb462" stroke="#000000" cx="720" cy="-104" rx="97.2683" ry="18"/>
<text text-anchor="middle" x="720" y="-99.8" font-family="Times,serif" font-size="14.00" fill="#000000">AuthenticationService</text>
</g>
<!-- AuthenticationService&#45;&gt;LoginModule -->
<g id="edge11" class="edge">
<title>AuthenticationService&#45;&gt;LoginModule</title>
<path fill="none" stroke="#000000" d="M720,-122.302C720,-140.2699 720,-165 720,-165 720,-165 1373.4149,-165 1373.4149,-165"/>
<polygon fill="#000000" stroke="#000000" points="1373.415,-168.5001 1383.4149,-165 1373.4149,-161.5001 1373.415,-168.5001"/>
</g>
<!-- JWTService -->
<g id="node13" class="node">
<title>JWTService</title>
<ellipse fill="#fdb462" stroke="#000000" cx="546" cy="-104" rx="58.5251" ry="18"/>
<text text-anchor="middle" x="546" y="-99.8" font-family="Times,serif" font-size="14.00" fill="#000000">JWTService</text>
</g>
<!-- JWTService&#45;&gt;LoginModule -->
<g id="edge12" class="edge">
<title>JWTService&#45;&gt;LoginModule</title>
<path fill="none" stroke="#000000" d="M546,-122.1061C546,-141.3391 546,-169 546,-169 546,-169 1373.4072,-169 1373.4072,-169"/>
<polygon fill="#000000" stroke="#000000" points="1373.4072,-172.5001 1383.4072,-169 1373.4071,-165.5001 1373.4072,-172.5001"/>
</g>
<!-- LoginInterceptor -->
<g id="node14" class="node">
<title>LoginInterceptor</title>
<ellipse fill="#fdb462" stroke="#000000" cx="393" cy="-104" rx="76.4246" ry="18"/>
<text text-anchor="middle" x="393" y="-99.8" font-family="Times,serif" font-size="14.00" fill="#000000">LoginInterceptor</text>
</g>
<!-- LoginInterceptor&#45;&gt;LoginModule -->
<g id="edge13" class="edge">
<title>LoginInterceptor&#45;&gt;LoginModule</title>
<path fill="none" stroke="#000000" d="M393,-122.0267C393,-142.7672 393,-174 393,-174 393,-174 1373.4277,-174 1373.4277,-174"/>
<polygon fill="#000000" stroke="#000000" points="1373.4277,-177.5001 1383.4277,-174 1373.4277,-170.5001 1373.4277,-177.5001"/>
</g>
<!-- LoginService -->
<g id="node15" class="node">
<title>LoginService</title>
<ellipse fill="#fdb462" stroke="#000000" cx="235" cy="-104" rx="63.1209" ry="18"/>
<text text-anchor="middle" x="235" y="-99.8" font-family="Times,serif" font-size="14.00" fill="#000000">LoginService</text>
</g>
<!-- LoginService&#45;&gt;LoginModule -->
<g id="edge14" class="edge">
<title>LoginService&#45;&gt;LoginModule</title>
<path fill="none" stroke="#000000" d="M235,-122.2921C235,-144.2057 235,-178 235,-178 235,-178 1373.1546,-178 1373.1546,-178"/>
<polygon fill="#000000" stroke="#000000" points="1373.1546,-181.5001 1383.1546,-178 1373.1545,-174.5001 1373.1546,-181.5001"/>
</g>
<!-- TokenService -->
<g id="node16" class="node">
<title>TokenService</title>
<ellipse fill="#fdb462" stroke="#000000" cx="89" cy="-104" rx="64.8273" ry="18"/>
<text text-anchor="middle" x="89" y="-99.8" font-family="Times,serif" font-size="14.00" fill="#000000">TokenService</text>
</g>
<!-- TokenService&#45;&gt;LoginModule -->
<g id="edge15" class="edge">
<title>TokenService&#45;&gt;LoginModule</title>
<path fill="none" stroke="#000000" d="M89,-122.3228C89,-145.6602 89,-183 89,-183 89,-183 1373.4503,-183 1373.4503,-183"/>
<polygon fill="#000000" stroke="#000000" points="1373.4504,-186.5001 1383.4503,-183 1373.4503,-179.5001 1373.4504,-186.5001"/>
</g>
</g>
</svg>
