<?xml version="1.0" encoding="UTF-8" standalone="no"?>
<!DOCTYPE svg PUBLIC "-//W3C//DTD SVG 1.1//EN"
 "http://www.w3.org/Graphics/SVG/1.1/DTD/svg11.dtd">
<!-- Generated by graphviz version 2.47.3 (20210619.1520)
 -->
<!-- Title: dependencies Pages: 1 -->
<svg width="2334pt" height="174pt"
 viewBox="0.00 0.00 2334.00 173.80" xmlns="http://www.w3.org/2000/svg" xmlns:xlink="http://www.w3.org/1999/xlink">
<g id="graph0" class="graph" transform="scale(1 1) rotate(0) translate(4 169.8)">
<title>dependencies</title>
<polygon fill="white" stroke="transparent" points="-4,4 -4,-169.8 2330,-169.8 2330,4 -4,4"/>
<text text-anchor="middle" x="1163" y="-8.2" font-family="sans-serif" font-size="14.00">dependencies</text>
<g id="clust1" class="cluster">
<title>cluster_LoginModule</title>
<polygon fill="none" stroke="black" stroke-dasharray="1,5" points="8,-32.8 8,-157.8 2318,-157.8 2318,-32.8 8,-32.8"/>
</g>
<g id="clust4" class="cluster">
<title>cluster_LoginModule_imports</title>
<polygon fill="none" stroke="black" points="1433,-40.8 1433,-92.8 2310,-92.8 2310,-40.8 1433,-40.8"/>
</g>
<g id="clust7" class="cluster">
<title>cluster_LoginModule_providers</title>
<polygon fill="none" stroke="black" points="94,-40.8 94,-92.8 1425,-92.8 1425,-40.8 94,-40.8"/>
</g>
<g id="clust2" class="cluster">
<title>cluster_LoginModule_declarations</title>
<polygon fill="none" stroke="black" points="16,-40.8 16,-92.8 86,-92.8 86,-40.8 16,-40.8"/>
</g>
<!-- Login -->
<g id="node1" class="node">
<title>Login</title>
<polygon fill="#ffffb3" stroke="black" points="78,-84.8 24,-84.8 24,-48.8 78,-48.8 78,-84.8"/>
<text text-anchor="middle" x="51" y="-62.6" font-family="Times,serif" font-size="14.00">Login</text>
</g>
<!-- LoginModule -->
<g id="node2" class="node">
<title>LoginModule</title>
<polygon fill="#8dd3c7" stroke="black" points="1342.49,-149.8 1339.49,-153.8 1318.49,-153.8 1315.49,-149.8 1249.51,-149.8 1249.51,-113.8 1342.49,-113.8 1342.49,-149.8"/>
<text text-anchor="middle" x="1296" y="-127.6" font-family="Times,serif" font-size="14.00">LoginModule</text>
</g>
<!-- Login&#45;&gt;LoginModule -->
<g id="edge1" class="edge">
<title>Login&#45;&gt;LoginModule</title>
<path fill="none" stroke="black" d="M51,-85.12C51,-108.46 51,-145.8 51,-145.8 51,-145.8 1239.47,-145.8 1239.47,-145.8"/>
<polygon fill="black" stroke="black" points="1239.47,-149.3 1249.47,-145.8 1239.47,-142.3 1239.47,-149.3"/>
</g>
<!-- AppUtilsModule -->
<g id="node3" class="node">
<title>AppUtilsModule</title>
<polygon fill="#8dd3c7" stroke="black" points="2302.38,-84.8 2299.38,-88.8 2278.38,-88.8 2275.38,-84.8 2191.62,-84.8 2191.62,-48.8 2302.38,-48.8 2302.38,-84.8"/>
<text text-anchor="middle" x="2247" y="-62.6" font-family="Times,serif" font-size="14.00">AppUtilsModule</text>
</g>
<!-- AppUtilsModule&#45;&gt;LoginModule -->
<g id="edge2" class="edge">
<title>AppUtilsModule&#45;&gt;LoginModule</title>
<path fill="none" stroke="black" d="M2247,-85.12C2247,-108.46 2247,-145.8 2247,-145.8 2247,-145.8 1352.51,-145.8 1352.51,-145.8"/>
<polygon fill="black" stroke="black" points="1352.51,-142.3 1342.51,-145.8 1352.51,-149.3 1352.51,-142.3"/>
</g>
<!-- BaseModule -->
<g id="node4" class="node">
<title>BaseModule</title>
<polygon fill="#8dd3c7" stroke="black" points="2173.26,-84.8 2170.26,-88.8 2149.26,-88.8 2146.26,-84.8 2086.74,-84.8 2086.74,-48.8 2173.26,-48.8 2173.26,-84.8"/>
<text text-anchor="middle" x="2130" y="-62.6" font-family="Times,serif" font-size="14.00">BaseModule</text>
</g>
<!-- BaseModule&#45;&gt;LoginModule -->
<g id="edge3" class="edge">
<title>BaseModule&#45;&gt;LoginModule</title>
<path fill="none" stroke="black" d="M2130,-85.09C2130,-107.01 2130,-140.8 2130,-140.8 2130,-140.8 1352.63,-140.8 1352.63,-140.8"/>
<polygon fill="black" stroke="black" points="1352.63,-137.3 1342.63,-140.8 1352.63,-144.3 1352.63,-137.3"/>
</g>
<!-- IntlModule -->
<g id="node5" class="node">
<title>IntlModule</title>
<polygon fill="#8dd3c7" stroke="black" points="2068.49,-84.8 2065.49,-88.8 2044.49,-88.8 2041.49,-84.8 1989.51,-84.8 1989.51,-48.8 2068.49,-48.8 2068.49,-84.8"/>
<text text-anchor="middle" x="2029" y="-62.6" font-family="Times,serif" font-size="14.00">IntlModule</text>
</g>
<!-- IntlModule&#45;&gt;LoginModule -->
<g id="edge4" class="edge">
<title>IntlModule&#45;&gt;LoginModule</title>
<path fill="none" stroke="black" d="M2029,-84.83C2029,-105.57 2029,-136.8 2029,-136.8 2029,-136.8 1352.69,-136.8 1352.69,-136.8"/>
<polygon fill="black" stroke="black" points="1352.69,-133.3 1342.69,-136.8 1352.69,-140.3 1352.69,-133.3"/>
</g>
<!-- ModalModule -->
<g id="node6" class="node">
<title>ModalModule</title>
<polygon fill="#8dd3c7" stroke="black" points="1971.1,-84.8 1968.1,-88.8 1947.1,-88.8 1944.1,-84.8 1874.9,-84.8 1874.9,-48.8 1971.1,-48.8 1971.1,-84.8"/>
<text text-anchor="middle" x="1923" y="-62.6" font-family="Times,serif" font-size="14.00">ModalModule</text>
</g>
<!-- ModalModule&#45;&gt;LoginModule -->
<g id="edge5" class="edge">
<title>ModalModule&#45;&gt;LoginModule</title>
<path fill="none" stroke="black" d="M1923,-84.91C1923,-104.14 1923,-131.8 1923,-131.8 1923,-131.8 1352.61,-131.8 1352.61,-131.8"/>
<polygon fill="black" stroke="black" points="1352.61,-128.3 1342.61,-131.8 1352.61,-135.3 1352.61,-128.3"/>
</g>
<!-- NotificationModule -->
<g id="node7" class="node">
<title>NotificationModule</title>
<polygon fill="#8dd3c7" stroke="black" points="1856.7,-84.8 1853.7,-88.8 1832.7,-88.8 1829.7,-84.8 1729.3,-84.8 1729.3,-48.8 1856.7,-48.8 1856.7,-84.8"/>
<text text-anchor="middle" x="1793" y="-62.6" font-family="Times,serif" font-size="14.00">NotificationModule</text>
</g>
<!-- NotificationModule&#45;&gt;LoginModule -->
<g id="edge6" class="edge">
<title>NotificationModule&#45;&gt;LoginModule</title>
<path fill="none" stroke="black" d="M1793,-85.1C1793,-103.07 1793,-127.8 1793,-127.8 1793,-127.8 1352.76,-127.8 1352.76,-127.8"/>
<polygon fill="black" stroke="black" points="1352.76,-124.3 1342.76,-127.8 1352.76,-131.3 1352.76,-124.3"/>
</g>
<!-- ValidationModule -->
<g id="node8" class="node">
<title>ValidationModule</title>
<polygon fill="#8dd3c7" stroke="black" points="1711.15,-84.8 1708.15,-88.8 1687.15,-88.8 1684.15,-84.8 1592.85,-84.8 1592.85,-48.8 1711.15,-48.8 1711.15,-84.8"/>
<text text-anchor="middle" x="1652" y="-62.6" font-family="Times,serif" font-size="14.00">ValidationModule</text>
</g>
<!-- ValidationModule&#45;&gt;LoginModule -->
<g id="edge7" class="edge">
<title>ValidationModule&#45;&gt;LoginModule</title>
<path fill="none" stroke="black" d="M1652,-84.83C1652,-101.2 1652,-122.8 1652,-122.8 1652,-122.8 1352.54,-122.8 1352.54,-122.8"/>
<polygon fill="black" stroke="black" points="1352.54,-119.3 1342.54,-122.8 1352.54,-126.3 1352.54,-119.3"/>
</g>
<!-- WebServicesModule -->
<g id="node9" class="node">
<title>WebServicesModule</title>
<polygon fill="#8dd3c7" stroke="black" points="1574.9,-84.8 1571.9,-88.8 1550.9,-88.8 1547.9,-84.8 1441.1,-84.8 1441.1,-48.8 1574.9,-48.8 1574.9,-84.8"/>
<text text-anchor="middle" x="1508" y="-62.6" font-family="Times,serif" font-size="14.00">WebServicesModule</text>
</g>
<!-- WebServicesModule&#45;&gt;LoginModule -->
<g id="edge8" class="edge">
<title>WebServicesModule&#45;&gt;LoginModule</title>
<path fill="none" stroke="black" d="M1508,-84.99C1508,-99.98 1508,-118.8 1508,-118.8 1508,-118.8 1352.52,-118.8 1352.52,-118.8"/>
<polygon fill="black" stroke="black" points="1352.52,-115.3 1342.52,-118.8 1352.52,-122.3 1352.52,-115.3"/>
</g>
<!-- AuthenticationOauthService -->
<g id="node10" class="node">
<title>AuthenticationOauthService</title>
<ellipse fill="#fdb462" stroke="black" cx="1296" cy="-66.8" rx="120.97" ry="18"/>
<text text-anchor="middle" x="1296" y="-62.6" font-family="Times,serif" font-size="14.00">AuthenticationOauthService</text>
</g>
<!-- AuthenticationOauthService&#45;&gt;LoginModule -->
<g id="edge9" class="edge">
<title>AuthenticationOauthService&#45;&gt;LoginModule</title>
<path fill="none" stroke="black" d="M1296,-84.91C1296,-84.91 1296,-103.79 1296,-103.79"/>
<polygon fill="black" stroke="black" points="1292.5,-103.79 1296,-113.79 1299.5,-103.79 1292.5,-103.79"/>
</g>
<!-- AuthenticationPopupService -->
<g id="node11" class="node">
<title>AuthenticationPopupService</title>
<ellipse fill="#fdb462" stroke="black" cx="1035" cy="-66.8" rx="122.13" ry="18"/>
<text text-anchor="middle" x="1035" y="-62.6" font-family="Times,serif" font-size="14.00">AuthenticationPopupService</text>
</g>
<!-- AuthenticationPopupService&#45;&gt;LoginModule -->
<g id="edge10" class="edge">
<title>AuthenticationPopupService&#45;&gt;LoginModule</title>
<path fill="none" stroke="black" d="M1035,-84.99C1035,-99.98 1035,-118.8 1035,-118.8 1035,-118.8 1239.34,-118.8 1239.34,-118.8"/>
<polygon fill="black" stroke="black" points="1239.34,-122.3 1249.34,-118.8 1239.34,-115.3 1239.34,-122.3"/>
</g>
<!-- AuthenticationService -->
<g id="node12" class="node">
<title>AuthenticationService</title>
<ellipse fill="#fdb462" stroke="black" cx="798" cy="-66.8" rx="97.27" ry="18"/>
<text text-anchor="middle" x="798" y="-62.6" font-family="Times,serif" font-size="14.00">AuthenticationService</text>
</g>
<!-- AuthenticationService&#45;&gt;LoginModule -->
<g id="edge11" class="edge">
<title>AuthenticationService&#45;&gt;LoginModule</title>
<path fill="none" stroke="black" d="M798,-84.83C798,-101.2 798,-122.8 798,-122.8 798,-122.8 1239.15,-122.8 1239.15,-122.8"/>
<polygon fill="black" stroke="black" points="1239.15,-126.3 1249.15,-122.8 1239.15,-119.3 1239.15,-126.3"/>
</g>
<!-- JWTService -->
<g id="node13" class="node">
<title>JWTService</title>
<ellipse fill="#fdb462" stroke="black" cx="624" cy="-66.8" rx="58.53" ry="18"/>
<text text-anchor="middle" x="624" y="-62.6" font-family="Times,serif" font-size="14.00">JWTService</text>
</g>
<!-- JWTService&#45;&gt;LoginModule -->
<g id="edge12" class="edge">
<title>JWTService&#45;&gt;LoginModule</title>
<path fill="none" stroke="black" d="M624,-85.1C624,-103.07 624,-127.8 624,-127.8 624,-127.8 1239.28,-127.8 1239.28,-127.8"/>
<polygon fill="black" stroke="black" points="1239.28,-131.3 1249.28,-127.8 1239.28,-124.3 1239.28,-131.3"/>
</g>
<!-- LoginInterceptor -->
<g id="node14" class="node">
<title>LoginInterceptor</title>
<ellipse fill="#fdb462" stroke="black" cx="471" cy="-66.8" rx="76.42" ry="18"/>
<text text-anchor="middle" x="471" y="-62.6" font-family="Times,serif" font-size="14.00">LoginInterceptor</text>
</g>
<!-- LoginInterceptor&#45;&gt;LoginModule -->
<g id="edge13" class="edge">
<title>LoginInterceptor&#45;&gt;LoginModule</title>
<path fill="none" stroke="black" d="M471,-84.91C471,-104.14 471,-131.8 471,-131.8 471,-131.8 1239.28,-131.8 1239.28,-131.8"/>
<polygon fill="black" stroke="black" points="1239.28,-135.3 1249.28,-131.8 1239.28,-128.3 1239.28,-135.3"/>
</g>
<!-- LoginService -->
<g id="node15" class="node">
<title>LoginService</title>
<ellipse fill="#fdb462" stroke="black" cx="313" cy="-66.8" rx="63.12" ry="18"/>
<text text-anchor="middle" x="313" y="-62.6" font-family="Times,serif" font-size="14.00">LoginService</text>
</g>
<!-- LoginService&#45;&gt;LoginModule -->
<g id="edge14" class="edge">
<title>LoginService&#45;&gt;LoginModule</title>
<path fill="none" stroke="black" d="M313,-84.83C313,-105.57 313,-136.8 313,-136.8 313,-136.8 1239.25,-136.8 1239.25,-136.8"/>
<polygon fill="black" stroke="black" points="1239.25,-140.3 1249.25,-136.8 1239.25,-133.3 1239.25,-140.3"/>
</g>
<!-- TokenService -->
<g id="node16" class="node">
<title>TokenService</title>
<ellipse fill="#fdb462" stroke="black" cx="167" cy="-66.8" rx="64.83" ry="18"/>
<text text-anchor="middle" x="167" y="-62.6" font-family="Times,serif" font-size="14.00">TokenService</text>
</g>
<!-- TokenService&#45;&gt;LoginModule -->
<g id="edge15" class="edge">
<title>TokenService&#45;&gt;LoginModule</title>
<path fill="none" stroke="black" d="M167,-85.09C167,-107.01 167,-140.8 167,-140.8 167,-140.8 1239.28,-140.8 1239.28,-140.8"/>
<polygon fill="black" stroke="black" points="1239.28,-144.3 1249.28,-140.8 1239.28,-137.3 1239.28,-144.3"/>
</g>
</g>
</svg>
