<?xml version="1.0" encoding="UTF-8" standalone="no"?>
<!DOCTYPE svg PUBLIC "-//W3C//DTD SVG 1.1//EN"
 "http://www.w3.org/Graphics/SVG/1.1/DTD/svg11.dtd">
<!-- Generated by graphviz version 2.47.3 (20210619.1520)
 -->
<!-- Title: dependencies Pages: 1 -->
<svg width="2334pt" height="174pt"
 viewBox="0.00 0.00 2334.00 173.80" xmlns="http://www.w3.org/2000/svg" xmlns:xlink="http://www.w3.org/1999/xlink">
<g id="graph0" class="graph" transform="scale(1 1) rotate(0) translate(4 169.8)">
<title>dependencies</title>
<polygon fill="white" stroke="transparent" points="-4,4 -4,-169.8 2330,-169.8 2330,4 -4,4"/>
<text text-anchor="middle" x="1163" y="-8.2" font-family="sans-serif" font-size="14.00">dependencies</text>
<g id="clust1" class="cluster">
<title>cluster_LoginModule</title>
<polygon fill="none" stroke="black" stroke-dasharray="1,5" points="8,-32.8 8,-157.8 2318,-157.8 2318,-32.8 8,-32.8"/>
</g>
<g id="clust2" class="cluster">
<title>cluster_LoginModule_declarations</title>
<polygon fill="none" stroke="black" points="2240,-40.8 2240,-92.8 2310,-92.8 2310,-40.8 2240,-40.8"/>
</g>
<g id="clust4" class="cluster">
<title>cluster_LoginModule_imports</title>
<polygon fill="none" stroke="black" points="1355,-40.8 1355,-92.8 2232,-92.8 2232,-40.8 1355,-40.8"/>
</g>
<g id="clust7" class="cluster">
<title>cluster_LoginModule_providers</title>
<polygon fill="none" stroke="black" points="16,-40.8 16,-92.8 1347,-92.8 1347,-40.8 16,-40.8"/>
</g>
<!-- Login -->
<g id="node1" class="node">
<title>Login</title>
<polygon fill="#ffffb3" stroke="black" points="2302,-84.8 2248,-84.8 2248,-48.8 2302,-48.8 2302,-84.8"/>
<text text-anchor="middle" x="2275" y="-62.6" font-family="Times,serif" font-size="14.00">Login</text>
</g>
<!-- LoginModule -->
<g id="node2" class="node">
<title>LoginModule</title>
<polygon fill="#8dd3c7" stroke="black" points="1476.49,-149.8 1473.49,-153.8 1452.49,-153.8 1449.49,-149.8 1383.51,-149.8 1383.51,-113.8 1476.49,-113.8 1476.49,-149.8"/>
<text text-anchor="middle" x="1430" y="-127.6" font-family="Times,serif" font-size="14.00">LoginModule</text>
</g>
<!-- Login&#45;&gt;LoginModule -->
<g id="edge1" class="edge">
<title>Login&#45;&gt;LoginModule</title>
<path fill="none" stroke="black" d="M2275,-85.12C2275,-108.46 2275,-145.8 2275,-145.8 2275,-145.8 1486.63,-145.8 1486.63,-145.8"/>
<polygon fill="black" stroke="black" points="1486.63,-142.3 1476.63,-145.8 1486.63,-149.3 1486.63,-142.3"/>
</g>
<!-- AppUtilsModule -->
<g id="node3" class="node">
<title>AppUtilsModule</title>
<polygon fill="#8dd3c7" stroke="black" points="2224.38,-84.8 2221.38,-88.8 2200.38,-88.8 2197.38,-84.8 2113.62,-84.8 2113.62,-48.8 2224.38,-48.8 2224.38,-84.8"/>
<text text-anchor="middle" x="2169" y="-62.6" font-family="Times,serif" font-size="14.00">AppUtilsModule</text>
</g>
<!-- AppUtilsModule&#45;&gt;LoginModule -->
<g id="edge2" class="edge">
<title>AppUtilsModule&#45;&gt;LoginModule</title>
<path fill="none" stroke="black" d="M2169,-85.09C2169,-107.01 2169,-140.8 2169,-140.8 2169,-140.8 1486.51,-140.8 1486.51,-140.8"/>
<polygon fill="black" stroke="black" points="1486.51,-137.3 1476.51,-140.8 1486.51,-144.3 1486.51,-137.3"/>
</g>
<!-- BaseModule -->
<g id="node4" class="node">
<title>BaseModule</title>
<polygon fill="#8dd3c7" stroke="black" points="2095.26,-84.8 2092.26,-88.8 2071.26,-88.8 2068.26,-84.8 2008.74,-84.8 2008.74,-48.8 2095.26,-48.8 2095.26,-84.8"/>
<text text-anchor="middle" x="2052" y="-62.6" font-family="Times,serif" font-size="14.00">BaseModule</text>
</g>
<!-- BaseModule&#45;&gt;LoginModule -->
<g id="edge3" class="edge">
<title>BaseModule&#45;&gt;LoginModule</title>
<path fill="none" stroke="black" d="M2052,-84.83C2052,-105.57 2052,-136.8 2052,-136.8 2052,-136.8 1486.5,-136.8 1486.5,-136.8"/>
<polygon fill="black" stroke="black" points="1486.5,-133.3 1476.5,-136.8 1486.5,-140.3 1486.5,-133.3"/>
</g>
<!-- IntlModule -->
<g id="node5" class="node">
<title>IntlModule</title>
<polygon fill="#8dd3c7" stroke="black" points="1990.49,-84.8 1987.49,-88.8 1966.49,-88.8 1963.49,-84.8 1911.51,-84.8 1911.51,-48.8 1990.49,-48.8 1990.49,-84.8"/>
<text text-anchor="middle" x="1951" y="-62.6" font-family="Times,serif" font-size="14.00">IntlModule</text>
</g>
<!-- IntlModule&#45;&gt;LoginModule -->
<g id="edge4" class="edge">
<title>IntlModule&#45;&gt;LoginModule</title>
<path fill="none" stroke="black" d="M1951,-84.91C1951,-104.14 1951,-131.8 1951,-131.8 1951,-131.8 1486.69,-131.8 1486.69,-131.8"/>
<polygon fill="black" stroke="black" points="1486.69,-128.3 1476.69,-131.8 1486.69,-135.3 1486.69,-128.3"/>
</g>
<!-- ModalModule -->
<g id="node6" class="node">
<title>ModalModule</title>
<polygon fill="#8dd3c7" stroke="black" points="1893.1,-84.8 1890.1,-88.8 1869.1,-88.8 1866.1,-84.8 1796.9,-84.8 1796.9,-48.8 1893.1,-48.8 1893.1,-84.8"/>
<text text-anchor="middle" x="1845" y="-62.6" font-family="Times,serif" font-size="14.00">ModalModule</text>
</g>
<!-- ModalModule&#45;&gt;LoginModule -->
<g id="edge5" class="edge">
<title>ModalModule&#45;&gt;LoginModule</title>
<path fill="none" stroke="black" d="M1845,-85.1C1845,-103.07 1845,-127.8 1845,-127.8 1845,-127.8 1486.8,-127.8 1486.8,-127.8"/>
<polygon fill="black" stroke="black" points="1486.8,-124.3 1476.8,-127.8 1486.8,-131.3 1486.8,-124.3"/>
</g>
<!-- NotificationModule -->
<g id="node7" class="node">
<title>NotificationModule</title>
<polygon fill="#8dd3c7" stroke="black" points="1778.7,-84.8 1775.7,-88.8 1754.7,-88.8 1751.7,-84.8 1651.3,-84.8 1651.3,-48.8 1778.7,-48.8 1778.7,-84.8"/>
<text text-anchor="middle" x="1715" y="-62.6" font-family="Times,serif" font-size="14.00">NotificationModule</text>
</g>
<!-- NotificationModule&#45;&gt;LoginModule -->
<g id="edge6" class="edge">
<title>NotificationModule&#45;&gt;LoginModule</title>
<path fill="none" stroke="black" d="M1715,-84.83C1715,-101.2 1715,-122.8 1715,-122.8 1715,-122.8 1486.74,-122.8 1486.74,-122.8"/>
<polygon fill="black" stroke="black" points="1486.74,-119.3 1476.74,-122.8 1486.74,-126.3 1486.74,-119.3"/>
</g>
<!-- ValidationModule -->
<g id="node8" class="node">
<title>ValidationModule</title>
<polygon fill="#8dd3c7" stroke="black" points="1633.15,-84.8 1630.15,-88.8 1609.15,-88.8 1606.15,-84.8 1514.85,-84.8 1514.85,-48.8 1633.15,-48.8 1633.15,-84.8"/>
<text text-anchor="middle" x="1574" y="-62.6" font-family="Times,serif" font-size="14.00">ValidationModule</text>
</g>
<!-- ValidationModule&#45;&gt;LoginModule -->
<g id="edge7" class="edge">
<title>ValidationModule&#45;&gt;LoginModule</title>
<path fill="none" stroke="black" d="M1574,-84.99C1574,-99.98 1574,-118.8 1574,-118.8 1574,-118.8 1486.75,-118.8 1486.75,-118.8"/>
<polygon fill="black" stroke="black" points="1486.75,-115.3 1476.75,-118.8 1486.75,-122.3 1486.75,-115.3"/>
</g>
<!-- WebServicesModule -->
<g id="node9" class="node">
<title>WebServicesModule</title>
<polygon fill="#8dd3c7" stroke="black" points="1496.9,-84.8 1493.9,-88.8 1472.9,-88.8 1469.9,-84.8 1363.1,-84.8 1363.1,-48.8 1496.9,-48.8 1496.9,-84.8"/>
<text text-anchor="middle" x="1430" y="-62.6" font-family="Times,serif" font-size="14.00">WebServicesModule</text>
</g>
<!-- WebServicesModule&#45;&gt;LoginModule -->
<g id="edge8" class="edge">
<title>WebServicesModule&#45;&gt;LoginModule</title>
<path fill="none" stroke="black" d="M1430,-84.91C1430,-84.91 1430,-103.79 1430,-103.79"/>
<polygon fill="black" stroke="black" points="1426.5,-103.79 1430,-113.79 1433.5,-103.79 1426.5,-103.79"/>
</g>
<!-- AuthenticationOauthService -->
<g id="node10" class="node">
<title>AuthenticationOauthService</title>
<ellipse fill="#fdb462" stroke="black" cx="1218" cy="-66.8" rx="120.97" ry="18"/>
<text text-anchor="middle" x="1218" y="-62.6" font-family="Times,serif" font-size="14.00">AuthenticationOauthService</text>
</g>
<!-- AuthenticationOauthService&#45;&gt;LoginModule -->
<g id="edge9" class="edge">
<title>AuthenticationOauthService&#45;&gt;LoginModule</title>
<path fill="none" stroke="black" d="M1218,-84.99C1218,-99.98 1218,-118.8 1218,-118.8 1218,-118.8 1373.48,-118.8 1373.48,-118.8"/>
<polygon fill="black" stroke="black" points="1373.48,-122.3 1383.48,-118.8 1373.48,-115.3 1373.48,-122.3"/>
</g>
<!-- AuthenticationPopupService -->
<g id="node11" class="node">
<title>AuthenticationPopupService</title>
<ellipse fill="#fdb462" stroke="black" cx="957" cy="-66.8" rx="122.13" ry="18"/>
<text text-anchor="middle" x="957" y="-62.6" font-family="Times,serif" font-size="14.00">AuthenticationPopupService</text>
</g>
<!-- AuthenticationPopupService&#45;&gt;LoginModule -->
<g id="edge10" class="edge">
<title>AuthenticationPopupService&#45;&gt;LoginModule</title>
<path fill="none" stroke="black" d="M957,-84.83C957,-101.2 957,-122.8 957,-122.8 957,-122.8 1373.35,-122.8 1373.35,-122.8"/>
<polygon fill="black" stroke="black" points="1373.35,-126.3 1383.35,-122.8 1373.35,-119.3 1373.35,-126.3"/>
</g>
<!-- AuthenticationService -->
<g id="node12" class="node">
<title>AuthenticationService</title>
<ellipse fill="#fdb462" stroke="black" cx="720" cy="-66.8" rx="97.27" ry="18"/>
<text text-anchor="middle" x="720" y="-62.6" font-family="Times,serif" font-size="14.00">AuthenticationService</text>
</g>
<!-- AuthenticationService&#45;&gt;LoginModule -->
<g id="edge11" class="edge">
<title>AuthenticationService&#45;&gt;LoginModule</title>
<path fill="none" stroke="black" d="M720,-85.1C720,-103.07 720,-127.8 720,-127.8 720,-127.8 1373.41,-127.8 1373.41,-127.8"/>
<polygon fill="black" stroke="black" points="1373.41,-131.3 1383.41,-127.8 1373.41,-124.3 1373.41,-131.3"/>
</g>
<!-- JWTService -->
<g id="node13" class="node">
<title>JWTService</title>
<ellipse fill="#fdb462" stroke="black" cx="546" cy="-66.8" rx="58.53" ry="18"/>
<text text-anchor="middle" x="546" y="-62.6" font-family="Times,serif" font-size="14.00">JWTService</text>
</g>
<!-- JWTService&#45;&gt;LoginModule -->
<g id="edge12" class="edge">
<title>JWTService&#45;&gt;LoginModule</title>
<path fill="none" stroke="black" d="M546,-84.91C546,-104.14 546,-131.8 546,-131.8 546,-131.8 1373.41,-131.8 1373.41,-131.8"/>
<polygon fill="black" stroke="black" points="1373.41,-135.3 1383.41,-131.8 1373.41,-128.3 1373.41,-135.3"/>
</g>
<!-- LoginInterceptor -->
<g id="node14" class="node">
<title>LoginInterceptor</title>
<ellipse fill="#fdb462" stroke="black" cx="393" cy="-66.8" rx="76.42" ry="18"/>
<text text-anchor="middle" x="393" y="-62.6" font-family="Times,serif" font-size="14.00">LoginInterceptor</text>
</g>
<!-- LoginInterceptor&#45;&gt;LoginModule -->
<g id="edge13" class="edge">
<title>LoginInterceptor&#45;&gt;LoginModule</title>
<path fill="none" stroke="black" d="M393,-84.83C393,-105.57 393,-136.8 393,-136.8 393,-136.8 1373.43,-136.8 1373.43,-136.8"/>
<polygon fill="black" stroke="black" points="1373.43,-140.3 1383.43,-136.8 1373.43,-133.3 1373.43,-140.3"/>
</g>
<!-- LoginService -->
<g id="node15" class="node">
<title>LoginService</title>
<ellipse fill="#fdb462" stroke="black" cx="235" cy="-66.8" rx="63.12" ry="18"/>
<text text-anchor="middle" x="235" y="-62.6" font-family="Times,serif" font-size="14.00">LoginService</text>
</g>
<!-- LoginService&#45;&gt;LoginModule -->
<g id="edge14" class="edge">
<title>LoginService&#45;&gt;LoginModule</title>
<path fill="none" stroke="black" d="M235,-85.09C235,-107.01 235,-140.8 235,-140.8 235,-140.8 1373.15,-140.8 1373.15,-140.8"/>
<polygon fill="black" stroke="black" points="1373.15,-144.3 1383.15,-140.8 1373.15,-137.3 1373.15,-144.3"/>
</g>
<!-- TokenService -->
<g id="node16" class="node">
<title>TokenService</title>
<ellipse fill="#fdb462" stroke="black" cx="89" cy="-66.8" rx="64.83" ry="18"/>
<text text-anchor="middle" x="89" y="-62.6" font-family="Times,serif" font-size="14.00">TokenService</text>
</g>
<!-- TokenService&#45;&gt;LoginModule -->
<g id="edge15" class="edge">
<title>TokenService&#45;&gt;LoginModule</title>
<path fill="none" stroke="black" d="M89,-85.12C89,-108.46 89,-145.8 89,-145.8 89,-145.8 1373.45,-145.8 1373.45,-145.8"/>
<polygon fill="black" stroke="black" points="1373.45,-149.3 1383.45,-145.8 1373.45,-142.3 1373.45,-149.3"/>
</g>
</g>
</svg>
