<?xml version="1.0" encoding="UTF-8" standalone="no"?>
<!DOCTYPE svg PUBLIC "-//W3C//DTD SVG 1.1//EN"
 "http://www.w3.org/Graphics/SVG/1.1/DTD/svg11.dtd">
<!-- Generated by graphviz version 2.47.3 (20210619.1520)
 -->
<!-- Title: dependencies Pages: 1 -->
<svg width="2334pt" height="174pt"
 viewBox="0.00 0.00 2334.00 173.80" xmlns="http://www.w3.org/2000/svg" xmlns:xlink="http://www.w3.org/1999/xlink">
<g id="graph0" class="graph" transform="scale(1 1) rotate(0) translate(4 169.8)">
<title>dependencies</title>
<polygon fill="white" stroke="transparent" points="-4,4 -4,-169.8 2330,-169.8 2330,4 -4,4"/>
<text text-anchor="middle" x="1163" y="-8.2" font-family="sans-serif" font-size="14.00">dependencies</text>
<g id="clust1" class="cluster">
<title>cluster_LoginModule</title>
<polygon fill="none" stroke="black" stroke-dasharray="1,5" points="8,-32.8 8,-157.8 2318,-157.8 2318,-32.8 8,-32.8"/>
</g>
<g id="clust7" class="cluster">
<title>cluster_LoginModule_providers</title>
<polygon fill="none" stroke="black" points="979,-40.8 979,-92.8 2310,-92.8 2310,-40.8 979,-40.8"/>
</g>
<g id="clust2" class="cluster">
<title>cluster_LoginModule_declarations</title>
<polygon fill="none" stroke="black" points="901,-40.8 901,-92.8 971,-92.8 971,-40.8 901,-40.8"/>
</g>
<g id="clust4" class="cluster">
<title>cluster_LoginModule_imports</title>
<polygon fill="none" stroke="black" points="16,-40.8 16,-92.8 893,-92.8 893,-40.8 16,-40.8"/>
</g>
<!-- Login -->
<g id="node1" class="node">
<title>Login</title>
<polygon fill="#ffffb3" stroke="black" points="963,-84.8 909,-84.8 909,-48.8 963,-48.8 963,-84.8"/>
<text text-anchor="middle" x="936" y="-62.6" font-family="Times,serif" font-size="14.00">Login</text>
</g>
<!-- LoginModule -->
<g id="node2" class="node">
<title>LoginModule</title>
<polygon fill="#8dd3c7" stroke="black" points="982.49,-149.8 979.49,-153.8 958.49,-153.8 955.49,-149.8 889.51,-149.8 889.51,-113.8 982.49,-113.8 982.49,-149.8"/>
<text text-anchor="middle" x="936" y="-127.6" font-family="Times,serif" font-size="14.00">LoginModule</text>
</g>
<!-- Login&#45;&gt;LoginModule -->
<g id="edge1" class="edge">
<title>Login&#45;&gt;LoginModule</title>
<path fill="none" stroke="black" d="M936,-84.91C936,-84.91 936,-103.79 936,-103.79"/>
<polygon fill="black" stroke="black" points="932.5,-103.79 936,-113.79 939.5,-103.79 932.5,-103.79"/>
</g>
<!-- AppUtilsModule -->
<g id="node3" class="node">
<title>AppUtilsModule</title>
<polygon fill="#8dd3c7" stroke="black" points="885.38,-84.8 882.38,-88.8 861.38,-88.8 858.38,-84.8 774.62,-84.8 774.62,-48.8 885.38,-48.8 885.38,-84.8"/>
<text text-anchor="middle" x="830" y="-62.6" font-family="Times,serif" font-size="14.00">AppUtilsModule</text>
</g>
<!-- AppUtilsModule&#45;&gt;LoginModule -->
<g id="edge2" class="edge">
<title>AppUtilsModule&#45;&gt;LoginModule</title>
<path fill="none" stroke="black" d="M885.57,-66.8C893.62,-66.8 899.25,-66.8 899.25,-66.8 899.25,-66.8 899.25,-103.69 899.25,-103.69"/>
<polygon fill="black" stroke="black" points="895.75,-103.69 899.25,-113.69 902.75,-103.69 895.75,-103.69"/>
</g>
<!-- BaseModule -->
<g id="node4" class="node">
<title>BaseModule</title>
<polygon fill="#8dd3c7" stroke="black" points="756.26,-84.8 753.26,-88.8 732.26,-88.8 729.26,-84.8 669.74,-84.8 669.74,-48.8 756.26,-48.8 756.26,-84.8"/>
<text text-anchor="middle" x="713" y="-62.6" font-family="Times,serif" font-size="14.00">BaseModule</text>
</g>
<!-- BaseModule&#45;&gt;LoginModule -->
<g id="edge3" class="edge">
<title>BaseModule&#45;&gt;LoginModule</title>
<path fill="none" stroke="black" d="M713,-85.04C713,-100.37 713,-119.8 713,-119.8 713,-119.8 879.25,-119.8 879.25,-119.8"/>
<polygon fill="black" stroke="black" points="879.25,-123.3 889.25,-119.8 879.25,-116.3 879.25,-123.3"/>
</g>
<!-- IntlModule -->
<g id="node5" class="node">
<title>IntlModule</title>
<polygon fill="#8dd3c7" stroke="black" points="651.49,-84.8 648.49,-88.8 627.49,-88.8 624.49,-84.8 572.51,-84.8 572.51,-48.8 651.49,-48.8 651.49,-84.8"/>
<text text-anchor="middle" x="612" y="-62.6" font-family="Times,serif" font-size="14.00">IntlModule</text>
</g>
<!-- IntlModule&#45;&gt;LoginModule -->
<g id="edge4" class="edge">
<title>IntlModule&#45;&gt;LoginModule</title>
<path fill="none" stroke="black" d="M612,-84.83C612,-101.86 612,-124.8 612,-124.8 612,-124.8 879.23,-124.8 879.23,-124.8"/>
<polygon fill="black" stroke="black" points="879.23,-128.3 889.23,-124.8 879.23,-121.3 879.23,-128.3"/>
</g>
<!-- ModalModule -->
<g id="node6" class="node">
<title>ModalModule</title>
<polygon fill="#8dd3c7" stroke="black" points="554.1,-84.8 551.1,-88.8 530.1,-88.8 527.1,-84.8 457.9,-84.8 457.9,-48.8 554.1,-48.8 554.1,-84.8"/>
<text text-anchor="middle" x="506" y="-62.6" font-family="Times,serif" font-size="14.00">ModalModule</text>
</g>
<!-- ModalModule&#45;&gt;LoginModule -->
<g id="edge5" class="edge">
<title>ModalModule&#45;&gt;LoginModule</title>
<path fill="none" stroke="black" d="M506,-85.02C506,-103.63 506,-129.8 506,-129.8 506,-129.8 879.16,-129.8 879.16,-129.8"/>
<polygon fill="black" stroke="black" points="879.16,-133.3 889.16,-129.8 879.16,-126.3 879.16,-133.3"/>
</g>
<!-- NotificationModule -->
<g id="node7" class="node">
<title>NotificationModule</title>
<polygon fill="#8dd3c7" stroke="black" points="439.7,-84.8 436.7,-88.8 415.7,-88.8 412.7,-84.8 312.3,-84.8 312.3,-48.8 439.7,-48.8 439.7,-84.8"/>
<text text-anchor="middle" x="376" y="-62.6" font-family="Times,serif" font-size="14.00">NotificationModule</text>
</g>
<!-- NotificationModule&#45;&gt;LoginModule -->
<g id="edge6" class="edge">
<title>NotificationModule&#45;&gt;LoginModule</title>
<path fill="none" stroke="black" d="M376,-85.02C376,-105.17 376,-134.8 376,-134.8 376,-134.8 879.22,-134.8 879.22,-134.8"/>
<polygon fill="black" stroke="black" points="879.22,-138.3 889.22,-134.8 879.22,-131.3 879.22,-138.3"/>
</g>
<!-- ValidationModule -->
<g id="node8" class="node">
<title>ValidationModule</title>
<polygon fill="#8dd3c7" stroke="black" points="294.15,-84.8 291.15,-88.8 270.15,-88.8 267.15,-84.8 175.85,-84.8 175.85,-48.8 294.15,-48.8 294.15,-84.8"/>
<text text-anchor="middle" x="235" y="-62.6" font-family="Times,serif" font-size="14.00">ValidationModule</text>
</g>
<!-- ValidationModule&#45;&gt;LoginModule -->
<g id="edge7" class="edge">
<title>ValidationModule&#45;&gt;LoginModule</title>
<path fill="none" stroke="black" d="M235,-84.84C235,-106.46 235,-139.8 235,-139.8 235,-139.8 879.46,-139.8 879.46,-139.8"/>
<polygon fill="black" stroke="black" points="879.46,-143.3 889.46,-139.8 879.46,-136.3 879.46,-143.3"/>
</g>
<!-- WebServicesModule -->
<g id="node9" class="node">
<title>WebServicesModule</title>
<polygon fill="#8dd3c7" stroke="black" points="157.9,-84.8 154.9,-88.8 133.9,-88.8 130.9,-84.8 24.1,-84.8 24.1,-48.8 157.9,-48.8 157.9,-84.8"/>
<text text-anchor="middle" x="91" y="-62.6" font-family="Times,serif" font-size="14.00">WebServicesModule</text>
</g>
<!-- WebServicesModule&#45;&gt;LoginModule -->
<g id="edge8" class="edge">
<title>WebServicesModule&#45;&gt;LoginModule</title>
<path fill="none" stroke="black" d="M91,-84.89C91,-107.93 91,-144.8 91,-144.8 91,-144.8 879.37,-144.8 879.37,-144.8"/>
<polygon fill="black" stroke="black" points="879.37,-148.3 889.37,-144.8 879.37,-141.3 879.37,-148.3"/>
</g>
<!-- AuthenticationOauthService -->
<g id="node10" class="node">
<title>AuthenticationOauthService</title>
<ellipse fill="#fdb462" stroke="black" cx="2181" cy="-66.8" rx="120.97" ry="18"/>
<text text-anchor="middle" x="2181" y="-62.6" font-family="Times,serif" font-size="14.00">AuthenticationOauthService</text>
</g>
<!-- AuthenticationOauthService&#45;&gt;LoginModule -->
<g id="edge9" class="edge">
<title>AuthenticationOauthService&#45;&gt;LoginModule</title>
<path fill="none" stroke="black" d="M2181,-84.89C2181,-107.93 2181,-144.8 2181,-144.8 2181,-144.8 992.53,-144.8 992.53,-144.8"/>
<polygon fill="black" stroke="black" points="992.53,-141.3 982.53,-144.8 992.53,-148.3 992.53,-141.3"/>
</g>
<!-- AuthenticationPopupService -->
<g id="node11" class="node">
<title>AuthenticationPopupService</title>
<ellipse fill="#fdb462" stroke="black" cx="1920" cy="-66.8" rx="122.13" ry="18"/>
<text text-anchor="middle" x="1920" y="-62.6" font-family="Times,serif" font-size="14.00">AuthenticationPopupService</text>
</g>
<!-- AuthenticationPopupService&#45;&gt;LoginModule -->
<g id="edge10" class="edge">
<title>AuthenticationPopupService&#45;&gt;LoginModule</title>
<path fill="none" stroke="black" d="M1920,-84.84C1920,-106.46 1920,-139.8 1920,-139.8 1920,-139.8 992.8,-139.8 992.8,-139.8"/>
<polygon fill="black" stroke="black" points="992.8,-136.3 982.8,-139.8 992.8,-143.3 992.8,-136.3"/>
</g>
<!-- AuthenticationService -->
<g id="node12" class="node">
<title>AuthenticationService</title>
<ellipse fill="#fdb462" stroke="black" cx="1683" cy="-66.8" rx="97.27" ry="18"/>
<text text-anchor="middle" x="1683" y="-62.6" font-family="Times,serif" font-size="14.00">AuthenticationService</text>
</g>
<!-- AuthenticationService&#45;&gt;LoginModule -->
<g id="edge11" class="edge">
<title>AuthenticationService&#45;&gt;LoginModule</title>
<path fill="none" stroke="black" d="M1683,-85.02C1683,-105.17 1683,-134.8 1683,-134.8 1683,-134.8 992.73,-134.8 992.73,-134.8"/>
<polygon fill="black" stroke="black" points="992.73,-131.3 982.73,-134.8 992.73,-138.3 992.73,-131.3"/>
</g>
<!-- JWTService -->
<g id="node13" class="node">
<title>JWTService</title>
<ellipse fill="#fdb462" stroke="black" cx="1509" cy="-66.8" rx="58.53" ry="18"/>
<text text-anchor="middle" x="1509" y="-62.6" font-family="Times,serif" font-size="14.00">JWTService</text>
</g>
<!-- JWTService&#45;&gt;LoginModule -->
<g id="edge12" class="edge">
<title>JWTService&#45;&gt;LoginModule</title>
<path fill="none" stroke="black" d="M1509,-85.02C1509,-103.63 1509,-129.8 1509,-129.8 1509,-129.8 992.89,-129.8 992.89,-129.8"/>
<polygon fill="black" stroke="black" points="992.89,-126.3 982.89,-129.8 992.89,-133.3 992.89,-126.3"/>
</g>
<!-- LoginInterceptor -->
<g id="node14" class="node">
<title>LoginInterceptor</title>
<ellipse fill="#fdb462" stroke="black" cx="1356" cy="-66.8" rx="76.42" ry="18"/>
<text text-anchor="middle" x="1356" y="-62.6" font-family="Times,serif" font-size="14.00">LoginInterceptor</text>
</g>
<!-- LoginInterceptor&#45;&gt;LoginModule -->
<g id="edge13" class="edge">
<title>LoginInterceptor&#45;&gt;LoginModule</title>
<path fill="none" stroke="black" d="M1356,-84.83C1356,-101.86 1356,-124.8 1356,-124.8 1356,-124.8 992.55,-124.8 992.55,-124.8"/>
<polygon fill="black" stroke="black" points="992.55,-121.3 982.55,-124.8 992.55,-128.3 992.55,-121.3"/>
</g>
<!-- LoginService -->
<g id="node15" class="node">
<title>LoginService</title>
<ellipse fill="#fdb462" stroke="black" cx="1198" cy="-66.8" rx="63.12" ry="18"/>
<text text-anchor="middle" x="1198" y="-62.6" font-family="Times,serif" font-size="14.00">LoginService</text>
</g>
<!-- LoginService&#45;&gt;LoginModule -->
<g id="edge14" class="edge">
<title>LoginService&#45;&gt;LoginModule</title>
<path fill="none" stroke="black" d="M1198,-85.04C1198,-100.37 1198,-119.8 1198,-119.8 1198,-119.8 992.54,-119.8 992.54,-119.8"/>
<polygon fill="black" stroke="black" points="992.54,-116.3 982.54,-119.8 992.54,-123.3 992.54,-116.3"/>
</g>
<!-- TokenService -->
<g id="node16" class="node">
<title>TokenService</title>
<ellipse fill="#fdb462" stroke="black" cx="1052" cy="-66.8" rx="64.83" ry="18"/>
<text text-anchor="middle" x="1052" y="-62.6" font-family="Times,serif" font-size="14.00">TokenService</text>
</g>
<!-- TokenService&#45;&gt;LoginModule -->
<g id="edge15" class="edge">
<title>TokenService&#45;&gt;LoginModule</title>
<path fill="none" stroke="black" d="M987.28,-66.8C978.67,-66.8 972.75,-66.8 972.75,-66.8 972.75,-66.8 972.75,-103.69 972.75,-103.69"/>
<polygon fill="black" stroke="black" points="969.25,-103.69 972.75,-113.69 976.25,-103.69 969.25,-103.69"/>
</g>
</g>
</svg>
