<?xml version="1.0" encoding="UTF-8" standalone="no"?>
<!DOCTYPE svg PUBLIC "-//W3C//DTD SVG 1.1//EN"
 "http://www.w3.org/Graphics/SVG/1.1/DTD/svg11.dtd">
<!-- Generated by graphviz version 2.40.1 (20161225.0304)
 -->
<!-- Title: dependencies Pages: 1 -->
<svg width="2322pt" height="211pt"
 viewBox="0.00 0.00 2322.00 211.00" xmlns="http://www.w3.org/2000/svg" xmlns:xlink="http://www.w3.org/1999/xlink">
<g id="graph0" class="graph" transform="scale(1 1) rotate(0) translate(4 207)">
<title>dependencies</title>
<polygon fill="#ffffff" stroke="transparent" points="-4,4 -4,-207 2318,-207 2318,4 -4,4"/>
<text text-anchor="start" x="1136.0091" y="-42.4" font-family="sans-serif" font-weight="bold" font-size="14.00" fill="#000000">Legend</text>
<polygon fill="#ffffb3" stroke="transparent" points="923,-10 923,-30 943,-30 943,-10 923,-10"/>
<text text-anchor="start" x="946.629" y="-15.4" font-family="sans-serif" font-size="14.00" fill="#000000"> &#160;Declarations</text>
<polygon fill="#8dd3c7" stroke="transparent" points="1036,-10 1036,-30 1056,-30 1056,-10 1036,-10"/>
<text text-anchor="start" x="1059.7251" y="-15.4" font-family="sans-serif" font-size="14.00" fill="#000000"> &#160;Module</text>
<polygon fill="#80b1d3" stroke="transparent" points="1122,-10 1122,-30 1142,-30 1142,-10 1122,-10"/>
<text text-anchor="start" x="1145.7812" y="-15.4" font-family="sans-serif" font-size="14.00" fill="#000000"> &#160;Bootstrap</text>
<polygon fill="#fdb462" stroke="transparent" points="1219,-10 1219,-30 1239,-30 1239,-10 1219,-10"/>
<text text-anchor="start" x="1242.6732" y="-15.4" font-family="sans-serif" font-size="14.00" fill="#000000"> &#160;Providers</text>
<polygon fill="#fb8072" stroke="transparent" points="1315,-10 1315,-30 1335,-30 1335,-10 1315,-10"/>
<text text-anchor="start" x="1338.7258" y="-15.4" font-family="sans-serif" font-size="14.00" fill="#000000"> &#160;Exports</text>
<g id="clust1" class="cluster">
<title>cluster_LoginModule</title>
<polygon fill="none" stroke="#000000" stroke-dasharray="1,5" points="8,-70 8,-195 2306,-195 2306,-70 8,-70"/>
</g>
<g id="clust2" class="cluster">
<title>cluster_LoginModule_declarations</title>
<polygon fill="none" stroke="#000000" points="2228,-78 2228,-130 2298,-130 2298,-78 2228,-78"/>
</g>
<g id="clust4" class="cluster">
<title>cluster_LoginModule_imports</title>
<polygon fill="none" stroke="#000000" points="1343,-78 1343,-130 2220,-130 2220,-78 1343,-78"/>
</g>
<g id="clust7" class="cluster">
<title>cluster_LoginModule_providers</title>
<polygon fill="none" stroke="#000000" points="16,-78 16,-130 1335,-130 1335,-78 16,-78"/>
</g>
<!-- Login -->
<g id="node1" class="node">
<title>Login</title>
<polygon fill="#ffffb3" stroke="#000000" points="2290,-122 2236,-122 2236,-86 2290,-86 2290,-122"/>
<text text-anchor="middle" x="2263" y="-99.8" font-family="Times,serif" font-size="14.00" fill="#000000">Login</text>
</g>
<!-- LoginModule -->
<g id="node2" class="node">
<title>LoginModule</title>
<polygon fill="#8dd3c7" stroke="#000000" points="1464.493,-187 1461.493,-191 1440.493,-191 1437.493,-187 1371.507,-187 1371.507,-151 1464.493,-151 1464.493,-187"/>
<text text-anchor="middle" x="1418" y="-164.8" font-family="Times,serif" font-size="14.00" fill="#000000">LoginModule</text>
</g>
<!-- Login&#45;&gt;LoginModule -->
<g id="edge1" class="edge">
<title>Login&#45;&gt;LoginModule</title>
<path fill="none" stroke="#000000" d="M2263,-122.3228C2263,-145.6602 2263,-183 2263,-183 2263,-183 1474.6345,-183 1474.6345,-183"/>
<polygon fill="#000000" stroke="#000000" points="1474.6345,-179.5001 1464.6345,-183 1474.6345,-186.5001 1474.6345,-179.5001"/>
</g>
<!-- AppUtilsModule -->
<g id="node3" class="node">
<title>AppUtilsModule</title>
<polygon fill="#8dd3c7" stroke="#000000" points="2212.3795,-122 2209.3795,-126 2188.3795,-126 2185.3795,-122 2101.6205,-122 2101.6205,-86 2212.3795,-86 2212.3795,-122"/>
<text text-anchor="middle" x="2157" y="-99.8" font-family="Times,serif" font-size="14.00" fill="#000000">AppUtilsModule</text>
</g>
<!-- AppUtilsModule&#45;&gt;LoginModule -->
<g id="edge2" class="edge">
<title>AppUtilsModule&#45;&gt;LoginModule</title>
<path fill="none" stroke="#000000" d="M2157,-122.2921C2157,-144.2057 2157,-178 2157,-178 2157,-178 1474.5077,-178 1474.5077,-178"/>
<polygon fill="#000000" stroke="#000000" points="1474.5077,-174.5001 1464.5077,-178 1474.5077,-181.5001 1474.5077,-174.5001"/>
</g>
<!-- BaseModule -->
<g id="node4" class="node">
<title>BaseModule</title>
<polygon fill="#8dd3c7" stroke="#000000" points="2083.2605,-122 2080.2605,-126 2059.2605,-126 2056.2605,-122 1996.7395,-122 1996.7395,-86 2083.2605,-86 2083.2605,-122"/>
<text text-anchor="middle" x="2040" y="-99.8" font-family="Times,serif" font-size="14.00" fill="#000000">BaseModule</text>
</g>
<!-- BaseModule&#45;&gt;LoginModule -->
<g id="edge3" class="edge">
<title>BaseModule&#45;&gt;LoginModule</title>
<path fill="none" stroke="#000000" d="M2040,-122.0267C2040,-142.7672 2040,-174 2040,-174 2040,-174 1474.4967,-174 1474.4967,-174"/>
<polygon fill="#000000" stroke="#000000" points="1474.4968,-170.5001 1464.4967,-174 1474.4967,-177.5001 1474.4968,-170.5001"/>
</g>
<!-- IntlModule -->
<g id="node5" class="node">
<title>IntlModule</title>
<polygon fill="#8dd3c7" stroke="#000000" points="1978.4916,-122 1975.4916,-126 1954.4916,-126 1951.4916,-122 1899.5084,-122 1899.5084,-86 1978.4916,-86 1978.4916,-122"/>
<text text-anchor="middle" x="1939" y="-99.8" font-family="Times,serif" font-size="14.00" fill="#000000">IntlModule</text>
</g>
<!-- IntlModule&#45;&gt;LoginModule -->
<g id="edge4" class="edge">
<title>IntlModule&#45;&gt;LoginModule</title>
<path fill="none" stroke="#000000" d="M1939,-122.1061C1939,-141.3391 1939,-169 1939,-169 1939,-169 1474.6938,-169 1474.6938,-169"/>
<polygon fill="#000000" stroke="#000000" points="1474.6938,-165.5001 1464.6938,-169 1474.6937,-172.5001 1474.6938,-165.5001"/>
</g>
<!-- ModalModule -->
<g id="node6" class="node">
<title>ModalModule</title>
<polygon fill="#8dd3c7" stroke="#000000" points="1881.0997,-122 1878.0997,-126 1857.0997,-126 1854.0997,-122 1784.9003,-122 1784.9003,-86 1881.0997,-86 1881.0997,-122"/>
<text text-anchor="middle" x="1833" y="-99.8" font-family="Times,serif" font-size="14.00" fill="#000000">ModalModule</text>
</g>
<!-- ModalModule&#45;&gt;LoginModule -->
<g id="edge5" class="edge">
<title>ModalModule&#45;&gt;LoginModule</title>
<path fill="none" stroke="#000000" d="M1833,-122.302C1833,-140.2699 1833,-165 1833,-165 1833,-165 1474.7991,-165 1474.7991,-165"/>
<polygon fill="#000000" stroke="#000000" points="1474.7991,-161.5001 1464.7991,-165 1474.799,-168.5001 1474.7991,-161.5001"/>
</g>
<!-- NotificationModule -->
<g id="node7" class="node">
<title>NotificationModule</title>
<polygon fill="#8dd3c7" stroke="#000000" points="1766.6994,-122 1763.6994,-126 1742.6994,-126 1739.6994,-122 1639.3006,-122 1639.3006,-86 1766.6994,-86 1766.6994,-122"/>
<text text-anchor="middle" x="1703" y="-99.8" font-family="Times,serif" font-size="14.00" fill="#000000">NotificationModule</text>
</g>
<!-- NotificationModule&#45;&gt;LoginModule -->
<g id="edge6" class="edge">
<title>NotificationModule&#45;&gt;LoginModule</title>
<path fill="none" stroke="#000000" d="M1703,-122.027C1703,-138.3976 1703,-160 1703,-160 1703,-160 1474.7428,-160 1474.7428,-160"/>
<polygon fill="#000000" stroke="#000000" points="1474.7429,-156.5001 1464.7428,-160 1474.7428,-163.5001 1474.7429,-156.5001"/>
</g>
<!-- ValidationModule -->
<g id="node8" class="node">
<title>ValidationModule</title>
<polygon fill="#8dd3c7" stroke="#000000" points="1621.1485,-122 1618.1485,-126 1597.1485,-126 1594.1485,-122 1502.8515,-122 1502.8515,-86 1621.1485,-86 1621.1485,-122"/>
<text text-anchor="middle" x="1562" y="-99.8" font-family="Times,serif" font-size="14.00" fill="#000000">ValidationModule</text>
</g>
<!-- ValidationModule&#45;&gt;LoginModule -->
<g id="edge7" class="edge">
<title>ValidationModule&#45;&gt;LoginModule</title>
<path fill="none" stroke="#000000" d="M1562,-122.1871C1562,-137.1824 1562,-156 1562,-156 1562,-156 1474.7527,-156 1474.7527,-156"/>
<polygon fill="#000000" stroke="#000000" points="1474.7527,-152.5001 1464.7527,-156 1474.7526,-159.5001 1474.7527,-152.5001"/>
</g>
<!-- WebServicesModule -->
<g id="node9" class="node">
<title>WebServicesModule</title>
<polygon fill="#8dd3c7" stroke="#000000" points="1484.9018,-122 1481.9018,-126 1460.9018,-126 1457.9018,-122 1351.0982,-122 1351.0982,-86 1484.9018,-86 1484.9018,-122"/>
<text text-anchor="middle" x="1418" y="-99.8" font-family="Times,serif" font-size="14.00" fill="#000000">WebServicesModule</text>
</g>
<!-- WebServicesModule&#45;&gt;LoginModule -->
<g id="edge8" class="edge">
<title>WebServicesModule&#45;&gt;LoginModule</title>
<path fill="none" stroke="#000000" d="M1418,-122.1061C1418,-122.1061 1418,-140.991 1418,-140.991"/>
<polygon fill="#000000" stroke="#000000" points="1414.5001,-140.9909 1418,-150.991 1421.5001,-140.991 1414.5001,-140.9909"/>
</g>
<!-- AuthenticationOauthService -->
<g id="node10" class="node">
<title>AuthenticationOauthService</title>
<ellipse fill="#fdb462" stroke="#000000" cx="1206" cy="-104" rx="120.9655" ry="18"/>
<text text-anchor="middle" x="1206" y="-99.8" font-family="Times,serif" font-size="14.00" fill="#000000">AuthenticationOauthService</text>
</g>
<!-- AuthenticationOauthService&#45;&gt;LoginModule -->
<g id="edge9" class="edge">
<title>AuthenticationOauthService&#45;&gt;LoginModule</title>
<path fill="none" stroke="#000000" d="M1206,-122.1871C1206,-137.1824 1206,-156 1206,-156 1206,-156 1361.4757,-156 1361.4757,-156"/>
<polygon fill="#000000" stroke="#000000" points="1361.4757,-159.5001 1371.4757,-156 1361.4757,-152.5001 1361.4757,-159.5001"/>
</g>
<!-- AuthenticationPopupService -->
<g id="node11" class="node">
<title>AuthenticationPopupService</title>
<ellipse fill="#fdb462" stroke="#000000" cx="945" cy="-104" rx="122.1326" ry="18"/>
<text text-anchor="middle" x="945" y="-99.8" font-family="Times,serif" font-size="14.00" fill="#000000">AuthenticationPopupService</text>
</g>
<!-- AuthenticationPopupService&#45;&gt;LoginModule -->
<g id="edge10" class="edge">
<title>AuthenticationPopupService&#45;&gt;LoginModule</title>
<path fill="none" stroke="#000000" d="M945,-122.027C945,-138.3976 945,-160 945,-160 945,-160 1361.3525,-160 1361.3525,-160"/>
<polygon fill="#000000" stroke="#000000" points="1361.3525,-163.5001 1371.3525,-160 1361.3524,-156.5001 1361.3525,-163.5001"/>
</g>
<!-- AuthenticationService -->
<g id="node12" class="node">
<title>AuthenticationService</title>
<ellipse fill="#fdb462" stroke="#000000" cx="708" cy="-104" rx="97.2683" ry="18"/>
<text text-anchor="middle" x="708" y="-99.8" font-family="Times,serif" font-size="14.00" fill="#000000">AuthenticationService</text>
</g>
<!-- AuthenticationService&#45;&gt;LoginModule -->
<g id="edge11" class="edge">
<title>AuthenticationService&#45;&gt;LoginModule</title>
<path fill="none" stroke="#000000" d="M708,-122.302C708,-140.2699 708,-165 708,-165 708,-165 1361.4149,-165 1361.4149,-165"/>
<polygon fill="#000000" stroke="#000000" points="1361.415,-168.5001 1371.4149,-165 1361.4149,-161.5001 1361.415,-168.5001"/>
</g>
<!-- HttpInterceptor -->
<g id="node13" class="node">
<title>HttpInterceptor</title>
<ellipse fill="#fdb462" stroke="#000000" cx="522" cy="-104" rx="70.622" ry="18"/>
<text text-anchor="middle" x="522" y="-99.8" font-family="Times,serif" font-size="14.00" fill="#000000">HttpInterceptor</text>
</g>
<!-- HttpInterceptor&#45;&gt;LoginModule -->
<g id="edge12" class="edge">
<title>HttpInterceptor&#45;&gt;LoginModule</title>
<path fill="none" stroke="#000000" d="M522,-122.1061C522,-141.3391 522,-169 522,-169 522,-169 1361.4018,-169 1361.4018,-169"/>
<polygon fill="#000000" stroke="#000000" points="1361.4018,-172.5001 1371.4018,-169 1361.4017,-165.5001 1361.4018,-172.5001"/>
</g>
<!-- JWTService -->
<g id="node14" class="node">
<title>JWTService</title>
<ellipse fill="#fdb462" stroke="#000000" cx="375" cy="-104" rx="58.5251" ry="18"/>
<text text-anchor="middle" x="375" y="-99.8" font-family="Times,serif" font-size="14.00" fill="#000000">JWTService</text>
</g>
<!-- JWTService&#45;&gt;LoginModule -->
<g id="edge13" class="edge">
<title>JWTService&#45;&gt;LoginModule</title>
<path fill="none" stroke="#000000" d="M375,-122.0267C375,-142.7672 375,-174 375,-174 375,-174 1361.4986,-174 1361.4986,-174"/>
<polygon fill="#000000" stroke="#000000" points="1361.4986,-177.5001 1371.4986,-174 1361.4985,-170.5001 1361.4986,-177.5001"/>
</g>
<!-- LoginService -->
<g id="node15" class="node">
<title>LoginService</title>
<ellipse fill="#fdb462" stroke="#000000" cx="235" cy="-104" rx="63.1209" ry="18"/>
<text text-anchor="middle" x="235" y="-99.8" font-family="Times,serif" font-size="14.00" fill="#000000">LoginService</text>
</g>
<!-- LoginService&#45;&gt;LoginModule -->
<g id="edge14" class="edge">
<title>LoginService&#45;&gt;LoginModule</title>
<path fill="none" stroke="#000000" d="M235,-122.2921C235,-144.2057 235,-178 235,-178 235,-178 1361.2606,-178 1361.2606,-178"/>
<polygon fill="#000000" stroke="#000000" points="1361.2607,-181.5001 1371.2606,-178 1361.2606,-174.5001 1361.2607,-181.5001"/>
</g>
<!-- TokenService -->
<g id="node16" class="node">
<title>TokenService</title>
<ellipse fill="#fdb462" stroke="#000000" cx="89" cy="-104" rx="64.8273" ry="18"/>
<text text-anchor="middle" x="89" y="-99.8" font-family="Times,serif" font-size="14.00" fill="#000000">TokenService</text>
</g>
<!-- TokenService&#45;&gt;LoginModule -->
<g id="edge15" class="edge">
<title>TokenService&#45;&gt;LoginModule</title>
<path fill="none" stroke="#000000" d="M89,-122.3228C89,-145.6602 89,-183 89,-183 89,-183 1361.4794,-183 1361.4794,-183"/>
<polygon fill="#000000" stroke="#000000" points="1361.4795,-186.5001 1371.4794,-183 1361.4794,-179.5001 1361.4795,-186.5001"/>
</g>
</g>
</svg>
