<?xml version="1.0" encoding="UTF-8" standalone="no"?>
<!DOCTYPE svg PUBLIC "-//W3C//DTD SVG 1.1//EN"
 "http://www.w3.org/Graphics/SVG/1.1/DTD/svg11.dtd">
<!-- Generated by graphviz version 2.40.1 (20161225.0304)
 -->
<!-- Title: dependencies Pages: 1 -->
<svg width="504pt" height="211pt"
 viewBox="0.00 0.00 504.00 211.00" xmlns="http://www.w3.org/2000/svg" xmlns:xlink="http://www.w3.org/1999/xlink">
<g id="graph0" class="graph" transform="scale(1 1) rotate(0) translate(4 207)">
<title>dependencies</title>
<polygon fill="#ffffff" stroke="transparent" points="-4,4 -4,-207 500,-207 500,4 -4,4"/>
<text text-anchor="start" x="227.0091" y="-42.4" font-family="sans-serif" font-weight="bold" font-size="14.00" fill="#000000">Legend</text>
<polygon fill="#ffffb3" stroke="transparent" points="14,-10 14,-30 34,-30 34,-10 14,-10"/>
<text text-anchor="start" x="37.629" y="-15.4" font-family="sans-serif" font-size="14.00" fill="#000000"> &#160;Declarations</text>
<polygon fill="#8dd3c7" stroke="transparent" points="127,-10 127,-30 147,-30 147,-10 127,-10"/>
<text text-anchor="start" x="150.7251" y="-15.4" font-family="sans-serif" font-size="14.00" fill="#000000"> &#160;Module</text>
<polygon fill="#80b1d3" stroke="transparent" points="213,-10 213,-30 233,-30 233,-10 213,-10"/>
<text text-anchor="start" x="236.7812" y="-15.4" font-family="sans-serif" font-size="14.00" fill="#000000"> &#160;Bootstrap</text>
<polygon fill="#fdb462" stroke="transparent" points="310,-10 310,-30 330,-30 330,-10 310,-10"/>
<text text-anchor="start" x="333.6732" y="-15.4" font-family="sans-serif" font-size="14.00" fill="#000000"> &#160;Providers</text>
<polygon fill="#fb8072" stroke="transparent" points="406,-10 406,-30 426,-30 426,-10 406,-10"/>
<text text-anchor="start" x="429.7258" y="-15.4" font-family="sans-serif" font-size="14.00" fill="#000000"> &#160;Exports</text>
<g id="clust1" class="cluster">
<title>cluster_ModalModule</title>
<polygon fill="none" stroke="#000000" stroke-dasharray="1,5" points="19.5,-70 19.5,-195 476.5,-195 476.5,-70 19.5,-70"/>
</g>
<g id="clust2" class="cluster">
<title>cluster_ModalModule_declarations</title>
<polygon fill="none" stroke="#000000" points="388.5,-78 388.5,-130 468.5,-130 468.5,-78 388.5,-78"/>
</g>
<g id="clust4" class="cluster">
<title>cluster_ModalModule_imports</title>
<polygon fill="none" stroke="#000000" points="181.5,-78 181.5,-130 380.5,-130 380.5,-78 181.5,-78"/>
</g>
<g id="clust7" class="cluster">
<title>cluster_ModalModule_providers</title>
<polygon fill="none" stroke="#000000" points="27.5,-78 27.5,-130 173.5,-130 173.5,-78 27.5,-78"/>
</g>
<!-- Confirm -->
<g id="node1" class="node">
<title>Confirm</title>
<polygon fill="#ffffb3" stroke="#000000" points="460.4405,-122 396.5595,-122 396.5595,-86 460.4405,-86 460.4405,-122"/>
<text text-anchor="middle" x="428.5" y="-99.8" font-family="Times,serif" font-size="14.00" fill="#000000">Confirm</text>
</g>
<!-- ModalModule -->
<g id="node2" class="node">
<title>ModalModule</title>
<polygon fill="#8dd3c7" stroke="#000000" points="326.5997,-187 323.5997,-191 302.5997,-191 299.5997,-187 230.4003,-187 230.4003,-151 326.5997,-151 326.5997,-187"/>
<text text-anchor="middle" x="278.5" y="-164.8" font-family="Times,serif" font-size="14.00" fill="#000000">ModalModule</text>
</g>
<!-- Confirm&#45;&gt;ModalModule -->
<g id="edge1" class="edge">
<title>Confirm&#45;&gt;ModalModule</title>
<path fill="none" stroke="#000000" d="M428.5,-122.1061C428.5,-141.3391 428.5,-169 428.5,-169 428.5,-169 336.7866,-169 336.7866,-169"/>
<polygon fill="#000000" stroke="#000000" points="336.7866,-165.5001 326.7866,-169 336.7866,-172.5001 336.7866,-165.5001"/>
</g>
<!-- BaseModule -->
<g id="node3" class="node">
<title>BaseModule</title>
<polygon fill="#8dd3c7" stroke="#000000" points="372.7605,-122 369.7605,-126 348.7605,-126 345.7605,-122 286.2395,-122 286.2395,-86 372.7605,-86 372.7605,-122"/>
<text text-anchor="middle" x="329.5" y="-99.8" font-family="Times,serif" font-size="14.00" fill="#000000">BaseModule</text>
</g>
<!-- BaseModule&#45;&gt;ModalModule -->
<g id="edge2" class="edge">
<title>BaseModule&#45;&gt;ModalModule</title>
<path fill="none" stroke="#000000" d="M306.3349,-122.1061C306.3349,-122.1061 306.3349,-140.991 306.3349,-140.991"/>
<polygon fill="#000000" stroke="#000000" points="302.8349,-140.9909 306.3349,-150.991 309.8349,-140.991 302.8349,-140.9909"/>
</g>
<!-- IntlModule -->
<g id="node4" class="node">
<title>IntlModule</title>
<polygon fill="#8dd3c7" stroke="#000000" points="267.9916,-122 264.9916,-126 243.9916,-126 240.9916,-122 189.0084,-122 189.0084,-86 267.9916,-86 267.9916,-122"/>
<text text-anchor="middle" x="228.5" y="-99.8" font-family="Times,serif" font-size="14.00" fill="#000000">IntlModule</text>
</g>
<!-- IntlModule&#45;&gt;ModalModule -->
<g id="edge3" class="edge">
<title>IntlModule&#45;&gt;ModalModule</title>
<path fill="none" stroke="#000000" d="M249.223,-122.1061C249.223,-122.1061 249.223,-140.991 249.223,-140.991"/>
<polygon fill="#000000" stroke="#000000" points="245.7231,-140.9909 249.223,-150.991 252.7231,-140.991 245.7231,-140.9909"/>
</g>
<!-- ModalService -->
<g id="node5" class="node">
<title>ModalService</title>
<ellipse fill="#fdb462" stroke="#000000" cx="100.5" cy="-104" rx="65.4072" ry="18"/>
<text text-anchor="middle" x="100.5" y="-99.8" font-family="Times,serif" font-size="14.00" fill="#000000">ModalService</text>
</g>
<!-- ModalService&#45;&gt;ModalModule -->
<g id="edge4" class="edge">
<title>ModalService&#45;&gt;ModalModule</title>
<path fill="none" stroke="#000000" d="M100.5,-122.1061C100.5,-141.3391 100.5,-169 100.5,-169 100.5,-169 220.3306,-169 220.3306,-169"/>
<polygon fill="#000000" stroke="#000000" points="220.3307,-172.5001 230.3306,-169 220.3306,-165.5001 220.3307,-172.5001"/>
</g>
</g>
</svg>
