<?xml version="1.0" encoding="UTF-8" standalone="no"?>
<!DOCTYPE svg PUBLIC "-//W3C//DTD SVG 1.1//EN"
 "http://www.w3.org/Graphics/SVG/1.1/DTD/svg11.dtd">
<!-- Generated by graphviz version 2.47.3 (20210619.1520)
 -->
<!-- Title: dependencies Pages: 1 -->
<svg width="693pt" height="174pt"
 viewBox="0.00 0.00 693.00 173.80" xmlns="http://www.w3.org/2000/svg" xmlns:xlink="http://www.w3.org/1999/xlink">
<g id="graph0" class="graph" transform="scale(1 1) rotate(0) translate(4 169.8)">
<title>dependencies</title>
<polygon fill="white" stroke="transparent" points="-4,4 -4,-169.8 689,-169.8 689,4 -4,4"/>
<text text-anchor="middle" x="342.5" y="-8.2" font-family="sans-serif" font-size="14.00">dependencies</text>
<g id="clust1" class="cluster">
<title>cluster_ModalModule</title>
<polygon fill="none" stroke="black" stroke-dasharray="1,5" points="8,-32.8 8,-157.8 677,-157.8 677,-32.8 8,-32.8"/>
</g>
<g id="clust8" class="cluster">
<title>cluster_ModalModule_providers</title>
<polygon fill="none" stroke="black" points="523,-40.8 523,-92.8 669,-92.8 669,-40.8 523,-40.8"/>
</g>
<g id="clust5" class="cluster">
<title>cluster_ModalModule_imports</title>
<polygon fill="none" stroke="black" points="179,-40.8 179,-92.8 515,-92.8 515,-40.8 179,-40.8"/>
</g>
<g id="clust2" class="cluster">
<title>cluster_ModalModule_declarations</title>
<polygon fill="none" stroke="black" points="16,-40.8 16,-92.8 171,-92.8 171,-40.8 16,-40.8"/>
</g>
<!-- Confirm -->
<g id="node1" class="node">
<title>Confirm</title>
<polygon fill="#ffffb3" stroke="black" points="162.94,-84.8 99.06,-84.8 99.06,-48.8 162.94,-48.8 162.94,-84.8"/>
<text text-anchor="middle" x="131" y="-62.6" font-family="Times,serif" font-size="14.00">Confirm</text>
</g>
<!-- ModalModule -->
<g id="node3" class="node">
<title>ModalModule</title>
<polygon fill="#8dd3c7" stroke="black" points="352.1,-149.8 349.1,-153.8 328.1,-153.8 325.1,-149.8 255.9,-149.8 255.9,-113.8 352.1,-113.8 352.1,-149.8"/>
<text text-anchor="middle" x="304" y="-127.6" font-family="Times,serif" font-size="14.00">ModalModule</text>
</g>
<!-- Confirm&#45;&gt;ModalModule -->
<g id="edge1" class="edge">
<title>Confirm&#45;&gt;ModalModule</title>
<path fill="none" stroke="black" d="M131,-84.82C131,-102.17 131,-125.8 131,-125.8 131,-125.8 245.81,-125.8 245.81,-125.8"/>
<polygon fill="black" stroke="black" points="245.81,-129.3 255.81,-125.8 245.81,-122.3 245.81,-129.3"/>
</g>
<!-- Prompt -->
<g id="node2" class="node">
<title>Prompt</title>
<polygon fill="#ffffb3" stroke="black" points="81.72,-84.8 24.28,-84.8 24.28,-48.8 81.72,-48.8 81.72,-84.8"/>
<text text-anchor="middle" x="53" y="-62.6" font-family="Times,serif" font-size="14.00">Prompt</text>
</g>
<!-- Prompt&#45;&gt;ModalModule -->
<g id="edge2" class="edge">
<title>Prompt&#45;&gt;ModalModule</title>
<path fill="none" stroke="black" d="M53,-85.08C53,-106.12 53,-137.8 53,-137.8 53,-137.8 245.9,-137.8 245.9,-137.8"/>
<polygon fill="black" stroke="black" points="245.9,-141.3 255.9,-137.8 245.9,-134.3 245.9,-141.3"/>
</g>
<!-- BaseModule -->
<g id="node4" class="node">
<title>BaseModule</title>
<polygon fill="#8dd3c7" stroke="black" points="507.26,-84.8 504.26,-88.8 483.26,-88.8 480.26,-84.8 420.74,-84.8 420.74,-48.8 507.26,-48.8 507.26,-84.8"/>
<text text-anchor="middle" x="464" y="-62.6" font-family="Times,serif" font-size="14.00">BaseModule</text>
</g>
<!-- BaseModule&#45;&gt;ModalModule -->
<g id="edge3" class="edge">
<title>BaseModule&#45;&gt;ModalModule</title>
<path fill="none" stroke="black" d="M464,-84.82C464,-102.17 464,-125.8 464,-125.8 464,-125.8 362.44,-125.8 362.44,-125.8"/>
<polygon fill="black" stroke="black" points="362.44,-122.3 352.44,-125.8 362.44,-129.3 362.44,-122.3"/>
</g>
<!-- IntlModule -->
<g id="node5" class="node">
<title>IntlModule</title>
<polygon fill="#8dd3c7" stroke="black" points="402.49,-84.8 399.49,-88.8 378.49,-88.8 375.49,-84.8 323.51,-84.8 323.51,-48.8 402.49,-48.8 402.49,-84.8"/>
<text text-anchor="middle" x="363" y="-62.6" font-family="Times,serif" font-size="14.00">IntlModule</text>
</g>
<!-- IntlModule&#45;&gt;ModalModule -->
<g id="edge4" class="edge">
<title>IntlModule&#45;&gt;ModalModule</title>
<path fill="none" stroke="black" d="M337.78,-84.91C337.78,-84.91 337.78,-103.79 337.78,-103.79"/>
<polygon fill="black" stroke="black" points="334.28,-103.79 337.78,-113.79 341.28,-103.79 334.28,-103.79"/>
</g>
<!-- ValidationModule -->
<g id="node6" class="node">
<title>ValidationModule</title>
<polygon fill="#8dd3c7" stroke="black" points="305.15,-84.8 302.15,-88.8 281.15,-88.8 278.15,-84.8 186.85,-84.8 186.85,-48.8 305.15,-48.8 305.15,-84.8"/>
<text text-anchor="middle" x="246" y="-62.6" font-family="Times,serif" font-size="14.00">ValidationModule</text>
</g>
<!-- ValidationModule&#45;&gt;ModalModule -->
<g id="edge5" class="edge">
<title>ValidationModule&#45;&gt;ModalModule</title>
<path fill="none" stroke="black" d="M280.64,-84.91C280.64,-84.91 280.64,-103.79 280.64,-103.79"/>
<polygon fill="black" stroke="black" points="277.14,-103.79 280.64,-113.79 284.14,-103.79 277.14,-103.79"/>
</g>
<!-- ModalService -->
<g id="node7" class="node">
<title>ModalService</title>
<ellipse fill="#fdb462" stroke="black" cx="596" cy="-66.8" rx="65.41" ry="18"/>
<text text-anchor="middle" x="596" y="-62.6" font-family="Times,serif" font-size="14.00">ModalService</text>
</g>
<!-- ModalService&#45;&gt;ModalModule -->
<g id="edge6" class="edge">
<title>ModalService&#45;&gt;ModalModule</title>
<path fill="none" stroke="black" d="M596,-85.08C596,-106.12 596,-137.8 596,-137.8 596,-137.8 362.22,-137.8 362.22,-137.8"/>
<polygon fill="black" stroke="black" points="362.22,-134.3 352.22,-137.8 362.22,-141.3 362.22,-134.3"/>
</g>
</g>
</svg>
