<?xml version="1.0" encoding="UTF-8" standalone="no"?>
<!DOCTYPE svg PUBLIC "-//W3C//DTD SVG 1.1//EN"
 "http://www.w3.org/Graphics/SVG/1.1/DTD/svg11.dtd">
<!-- Generated by graphviz version 2.47.3 (20210619.1520)
 -->
<!-- Title: dependencies Pages: 1 -->
<svg width="693pt" height="174pt"
 viewBox="0.00 0.00 693.00 173.80" xmlns="http://www.w3.org/2000/svg" xmlns:xlink="http://www.w3.org/1999/xlink">
<g id="graph0" class="graph" transform="scale(1 1) rotate(0) translate(4 169.8)">
<title>dependencies</title>
<polygon fill="white" stroke="transparent" points="-4,4 -4,-169.8 689,-169.8 689,4 -4,4"/>
<text text-anchor="middle" x="342.5" y="-8.2" font-family="sans-serif" font-size="14.00">dependencies</text>
<g id="clust1" class="cluster">
<title>cluster_ModalModule</title>
<polygon fill="none" stroke="black" stroke-dasharray="1,5" points="8,-32.8 8,-157.8 677,-157.8 677,-32.8 8,-32.8"/>
</g>
<g id="clust2" class="cluster">
<title>cluster_ModalModule_declarations</title>
<polygon fill="none" stroke="black" points="514,-40.8 514,-92.8 669,-92.8 669,-40.8 514,-40.8"/>
</g>
<g id="clust5" class="cluster">
<title>cluster_ModalModule_imports</title>
<polygon fill="none" stroke="black" points="170,-40.8 170,-92.8 506,-92.8 506,-40.8 170,-40.8"/>
</g>
<g id="clust8" class="cluster">
<title>cluster_ModalModule_providers</title>
<polygon fill="none" stroke="black" points="16,-40.8 16,-92.8 162,-92.8 162,-40.8 16,-40.8"/>
</g>
<!-- Confirm -->
<g id="node1" class="node">
<title>Confirm</title>
<polygon fill="#ffffb3" stroke="black" points="660.94,-84.8 597.06,-84.8 597.06,-48.8 660.94,-48.8 660.94,-84.8"/>
<text text-anchor="middle" x="629" y="-62.6" font-family="Times,serif" font-size="14.00">Confirm</text>
</g>
<!-- ModalModule -->
<g id="node3" class="node">
<title>ModalModule</title>
<polygon fill="#8dd3c7" stroke="black" points="452.1,-149.8 449.1,-153.8 428.1,-153.8 425.1,-149.8 355.9,-149.8 355.9,-113.8 452.1,-113.8 452.1,-149.8"/>
<text text-anchor="middle" x="404" y="-127.6" font-family="Times,serif" font-size="14.00">ModalModule</text>
</g>
<!-- Confirm&#45;&gt;ModalModule -->
<g id="edge1" class="edge">
<title>Confirm&#45;&gt;ModalModule</title>
<path fill="none" stroke="black" d="M629,-85.08C629,-106.12 629,-137.8 629,-137.8 629,-137.8 462.27,-137.8 462.27,-137.8"/>
<polygon fill="black" stroke="black" points="462.27,-134.3 452.27,-137.8 462.27,-141.3 462.27,-134.3"/>
</g>
<!-- Prompt -->
<g id="node2" class="node">
<title>Prompt</title>
<polygon fill="#ffffb3" stroke="black" points="579.72,-84.8 522.28,-84.8 522.28,-48.8 579.72,-48.8 579.72,-84.8"/>
<text text-anchor="middle" x="551" y="-62.6" font-family="Times,serif" font-size="14.00">Prompt</text>
</g>
<!-- Prompt&#45;&gt;ModalModule -->
<g id="edge2" class="edge">
<title>Prompt&#45;&gt;ModalModule</title>
<path fill="none" stroke="black" d="M551,-84.82C551,-102.17 551,-125.8 551,-125.8 551,-125.8 462.13,-125.8 462.13,-125.8"/>
<polygon fill="black" stroke="black" points="462.13,-122.3 452.13,-125.8 462.13,-129.3 462.13,-122.3"/>
</g>
<!-- BaseModule -->
<g id="node4" class="node">
<title>BaseModule</title>
<polygon fill="#8dd3c7" stroke="black" points="498.26,-84.8 495.26,-88.8 474.26,-88.8 471.26,-84.8 411.74,-84.8 411.74,-48.8 498.26,-48.8 498.26,-84.8"/>
<text text-anchor="middle" x="455" y="-62.6" font-family="Times,serif" font-size="14.00">BaseModule</text>
</g>
<!-- BaseModule&#45;&gt;ModalModule -->
<g id="edge3" class="edge">
<title>BaseModule&#45;&gt;ModalModule</title>
<path fill="none" stroke="black" d="M431.83,-84.91C431.83,-84.91 431.83,-103.79 431.83,-103.79"/>
<polygon fill="black" stroke="black" points="428.33,-103.79 431.83,-113.79 435.33,-103.79 428.33,-103.79"/>
</g>
<!-- IntlModule -->
<g id="node5" class="node">
<title>IntlModule</title>
<polygon fill="#8dd3c7" stroke="black" points="393.49,-84.8 390.49,-88.8 369.49,-88.8 366.49,-84.8 314.51,-84.8 314.51,-48.8 393.49,-48.8 393.49,-84.8"/>
<text text-anchor="middle" x="354" y="-62.6" font-family="Times,serif" font-size="14.00">IntlModule</text>
</g>
<!-- IntlModule&#45;&gt;ModalModule -->
<g id="edge4" class="edge">
<title>IntlModule&#45;&gt;ModalModule</title>
<path fill="none" stroke="black" d="M374.72,-84.91C374.72,-84.91 374.72,-103.79 374.72,-103.79"/>
<polygon fill="black" stroke="black" points="371.22,-103.79 374.72,-113.79 378.22,-103.79 371.22,-103.79"/>
</g>
<!-- ValidationModule -->
<g id="node6" class="node">
<title>ValidationModule</title>
<polygon fill="#8dd3c7" stroke="black" points="296.15,-84.8 293.15,-88.8 272.15,-88.8 269.15,-84.8 177.85,-84.8 177.85,-48.8 296.15,-48.8 296.15,-84.8"/>
<text text-anchor="middle" x="237" y="-62.6" font-family="Times,serif" font-size="14.00">ValidationModule</text>
</g>
<!-- ValidationModule&#45;&gt;ModalModule -->
<g id="edge5" class="edge">
<title>ValidationModule&#45;&gt;ModalModule</title>
<path fill="none" stroke="black" d="M237,-84.82C237,-102.17 237,-125.8 237,-125.8 237,-125.8 345.7,-125.8 345.7,-125.8"/>
<polygon fill="black" stroke="black" points="345.7,-129.3 355.7,-125.8 345.7,-122.3 345.7,-129.3"/>
</g>
<!-- ModalService -->
<g id="node7" class="node">
<title>ModalService</title>
<ellipse fill="#fdb462" stroke="black" cx="89" cy="-66.8" rx="65.41" ry="18"/>
<text text-anchor="middle" x="89" y="-62.6" font-family="Times,serif" font-size="14.00">ModalService</text>
</g>
<!-- ModalService&#45;&gt;ModalModule -->
<g id="edge6" class="edge">
<title>ModalService&#45;&gt;ModalModule</title>
<path fill="none" stroke="black" d="M89,-85.08C89,-106.12 89,-137.8 89,-137.8 89,-137.8 345.82,-137.8 345.82,-137.8"/>
<polygon fill="black" stroke="black" points="345.82,-141.3 355.82,-137.8 345.82,-134.3 345.82,-141.3"/>
</g>
</g>
</svg>
