<?xml version="1.0" encoding="UTF-8" standalone="no"?>
<!DOCTYPE svg PUBLIC "-//W3C//DTD SVG 1.1//EN"
 "http://www.w3.org/Graphics/SVG/1.1/DTD/svg11.dtd">
<!-- Generated by graphviz version 2.40.1 (20161225.0304)
 -->
<!-- Title: dependencies Pages: 1 -->
<svg width="693pt" height="211pt"
 viewBox="0.00 0.00 693.00 211.00" xmlns="http://www.w3.org/2000/svg" xmlns:xlink="http://www.w3.org/1999/xlink">
<g id="graph0" class="graph" transform="scale(1 1) rotate(0) translate(4 207)">
<title>dependencies</title>
<polygon fill="#ffffff" stroke="transparent" points="-4,4 -4,-207 689,-207 689,4 -4,4"/>
<text text-anchor="start" x="321.5091" y="-42.4" font-family="sans-serif" font-weight="bold" font-size="14.00" fill="#000000">Legend</text>
<polygon fill="#ffffb3" stroke="transparent" points="108.5,-10 108.5,-30 128.5,-30 128.5,-10 108.5,-10"/>
<text text-anchor="start" x="132.129" y="-15.4" font-family="sans-serif" font-size="14.00" fill="#000000"> &#160;Declarations</text>
<polygon fill="#8dd3c7" stroke="transparent" points="221.5,-10 221.5,-30 241.5,-30 241.5,-10 221.5,-10"/>
<text text-anchor="start" x="245.2251" y="-15.4" font-family="sans-serif" font-size="14.00" fill="#000000"> &#160;Module</text>
<polygon fill="#80b1d3" stroke="transparent" points="307.5,-10 307.5,-30 327.5,-30 327.5,-10 307.5,-10"/>
<text text-anchor="start" x="331.2812" y="-15.4" font-family="sans-serif" font-size="14.00" fill="#000000"> &#160;Bootstrap</text>
<polygon fill="#fdb462" stroke="transparent" points="404.5,-10 404.5,-30 424.5,-30 424.5,-10 404.5,-10"/>
<text text-anchor="start" x="428.1732" y="-15.4" font-family="sans-serif" font-size="14.00" fill="#000000"> &#160;Providers</text>
<polygon fill="#fb8072" stroke="transparent" points="500.5,-10 500.5,-30 520.5,-30 520.5,-10 500.5,-10"/>
<text text-anchor="start" x="524.2258" y="-15.4" font-family="sans-serif" font-size="14.00" fill="#000000"> &#160;Exports</text>
<g id="clust1" class="cluster">
<title>cluster_ModalModule</title>
<polygon fill="none" stroke="#000000" stroke-dasharray="1,5" points="8,-70 8,-195 677,-195 677,-70 8,-70"/>
</g>
<g id="clust2" class="cluster">
<title>cluster_ModalModule_declarations</title>
<polygon fill="none" stroke="#000000" points="514,-78 514,-130 669,-130 669,-78 514,-78"/>
</g>
<g id="clust5" class="cluster">
<title>cluster_ModalModule_imports</title>
<polygon fill="none" stroke="#000000" points="170,-78 170,-130 506,-130 506,-78 170,-78"/>
</g>
<g id="clust8" class="cluster">
<title>cluster_ModalModule_providers</title>
<polygon fill="none" stroke="#000000" points="16,-78 16,-130 162,-130 162,-78 16,-78"/>
</g>
<!-- Confirm -->
<g id="node1" class="node">
<title>Confirm</title>
<polygon fill="#ffffb3" stroke="#000000" points="660.9405,-122 597.0595,-122 597.0595,-86 660.9405,-86 660.9405,-122"/>
<text text-anchor="middle" x="629" y="-99.8" font-family="Times,serif" font-size="14.00" fill="#000000">Confirm</text>
</g>
<!-- ModalModule -->
<g id="node3" class="node">
<title>ModalModule</title>
<polygon fill="#8dd3c7" stroke="#000000" points="452.0997,-187 449.0997,-191 428.0997,-191 425.0997,-187 355.9003,-187 355.9003,-151 452.0997,-151 452.0997,-187"/>
<text text-anchor="middle" x="404" y="-164.8" font-family="Times,serif" font-size="14.00" fill="#000000">ModalModule</text>
</g>
<!-- Confirm&#45;&gt;ModalModule -->
<g id="edge1" class="edge">
<title>Confirm&#45;&gt;ModalModule</title>
<path fill="none" stroke="#000000" d="M629,-122.2843C629,-143.3211 629,-175 629,-175 629,-175 462.2681,-175 462.2681,-175"/>
<polygon fill="#000000" stroke="#000000" points="462.2682,-171.5001 452.2681,-175 462.2681,-178.5001 462.2682,-171.5001"/>
</g>
<!-- Prompt -->
<g id="node2" class="node">
<title>Prompt</title>
<polygon fill="#ffffb3" stroke="#000000" points="579.7248,-122 522.2752,-122 522.2752,-86 579.7248,-86 579.7248,-122"/>
<text text-anchor="middle" x="551" y="-99.8" font-family="Times,serif" font-size="14.00" fill="#000000">Prompt</text>
</g>
<!-- Prompt&#45;&gt;ModalModule -->
<g id="edge2" class="edge">
<title>Prompt&#45;&gt;ModalModule</title>
<path fill="none" stroke="#000000" d="M551,-122.0225C551,-139.3734 551,-163 551,-163 551,-163 462.1333,-163 462.1333,-163"/>
<polygon fill="#000000" stroke="#000000" points="462.1333,-159.5001 452.1333,-163 462.1333,-166.5001 462.1333,-159.5001"/>
</g>
<!-- BaseModule -->
<g id="node4" class="node">
<title>BaseModule</title>
<polygon fill="#8dd3c7" stroke="#000000" points="498.2605,-122 495.2605,-126 474.2605,-126 471.2605,-122 411.7395,-122 411.7395,-86 498.2605,-86 498.2605,-122"/>
<text text-anchor="middle" x="455" y="-99.8" font-family="Times,serif" font-size="14.00" fill="#000000">BaseModule</text>
</g>
<!-- BaseModule&#45;&gt;ModalModule -->
<g id="edge3" class="edge">
<title>BaseModule&#45;&gt;ModalModule</title>
<path fill="none" stroke="#000000" d="M431.8349,-122.1061C431.8349,-122.1061 431.8349,-140.991 431.8349,-140.991"/>
<polygon fill="#000000" stroke="#000000" points="428.3349,-140.9909 431.8349,-150.991 435.3349,-140.991 428.3349,-140.9909"/>
</g>
<!-- IntlModule -->
<g id="node5" class="node">
<title>IntlModule</title>
<polygon fill="#8dd3c7" stroke="#000000" points="393.4916,-122 390.4916,-126 369.4916,-126 366.4916,-122 314.5084,-122 314.5084,-86 393.4916,-86 393.4916,-122"/>
<text text-anchor="middle" x="354" y="-99.8" font-family="Times,serif" font-size="14.00" fill="#000000">IntlModule</text>
</g>
<!-- IntlModule&#45;&gt;ModalModule -->
<g id="edge4" class="edge">
<title>IntlModule&#45;&gt;ModalModule</title>
<path fill="none" stroke="#000000" d="M374.723,-122.1061C374.723,-122.1061 374.723,-140.991 374.723,-140.991"/>
<polygon fill="#000000" stroke="#000000" points="371.2231,-140.9909 374.723,-150.991 378.2231,-140.991 371.2231,-140.9909"/>
</g>
<!-- ValidationModule -->
<g id="node6" class="node">
<title>ValidationModule</title>
<polygon fill="#8dd3c7" stroke="#000000" points="296.1485,-122 293.1485,-126 272.1485,-126 269.1485,-122 177.8515,-122 177.8515,-86 296.1485,-86 296.1485,-122"/>
<text text-anchor="middle" x="237" y="-99.8" font-family="Times,serif" font-size="14.00" fill="#000000">ValidationModule</text>
</g>
<!-- ValidationModule&#45;&gt;ModalModule -->
<g id="edge5" class="edge">
<title>ValidationModule&#45;&gt;ModalModule</title>
<path fill="none" stroke="#000000" d="M237,-122.0225C237,-139.3734 237,-163 237,-163 237,-163 345.6967,-163 345.6967,-163"/>
<polygon fill="#000000" stroke="#000000" points="345.6967,-166.5001 355.6967,-163 345.6966,-159.5001 345.6967,-166.5001"/>
</g>
<!-- ModalService -->
<g id="node7" class="node">
<title>ModalService</title>
<ellipse fill="#fdb462" stroke="#000000" cx="89" cy="-104" rx="65.4072" ry="18"/>
<text text-anchor="middle" x="89" y="-99.8" font-family="Times,serif" font-size="14.00" fill="#000000">ModalService</text>
</g>
<!-- ModalService&#45;&gt;ModalModule -->
<g id="edge6" class="edge">
<title>ModalService&#45;&gt;ModalModule</title>
<path fill="none" stroke="#000000" d="M89,-122.2843C89,-143.3211 89,-175 89,-175 89,-175 345.8154,-175 345.8154,-175"/>
<polygon fill="#000000" stroke="#000000" points="345.8154,-178.5001 355.8154,-175 345.8154,-171.5001 345.8154,-178.5001"/>
</g>
</g>
</svg>
