<?xml version="1.0" encoding="UTF-8" standalone="no"?>
<!DOCTYPE svg PUBLIC "-//W3C//DTD SVG 1.1//EN"
 "http://www.w3.org/Graphics/SVG/1.1/DTD/svg11.dtd">
<!-- Generated by graphviz version 2.40.1 (20161225.0304)
 -->
<!-- Title: dependencies Pages: 1 -->
<svg width="1004pt" height="284pt"
 viewBox="0.00 0.00 1004.00 284.00" xmlns="http://www.w3.org/2000/svg" xmlns:xlink="http://www.w3.org/1999/xlink">
<g id="graph0" class="graph" transform="scale(1 1) rotate(0) translate(4 280)">
<title>dependencies</title>
<polygon fill="#ffffff" stroke="transparent" points="-4,4 -4,-280 1000,-280 1000,4 -4,4"/>
<text text-anchor="start" x="477.0091" y="-42.4" font-family="sans-serif" font-weight="bold" font-size="14.00" fill="#000000">Legend</text>
<polygon fill="#ffffb3" stroke="transparent" points="264,-10 264,-30 284,-30 284,-10 264,-10"/>
<text text-anchor="start" x="287.629" y="-15.4" font-family="sans-serif" font-size="14.00" fill="#000000"> &#160;Declarations</text>
<polygon fill="#8dd3c7" stroke="transparent" points="377,-10 377,-30 397,-30 397,-10 377,-10"/>
<text text-anchor="start" x="400.7251" y="-15.4" font-family="sans-serif" font-size="14.00" fill="#000000"> &#160;Module</text>
<polygon fill="#80b1d3" stroke="transparent" points="463,-10 463,-30 483,-30 483,-10 463,-10"/>
<text text-anchor="start" x="486.7812" y="-15.4" font-family="sans-serif" font-size="14.00" fill="#000000"> &#160;Bootstrap</text>
<polygon fill="#fdb462" stroke="transparent" points="560,-10 560,-30 580,-30 580,-10 560,-10"/>
<text text-anchor="start" x="583.6732" y="-15.4" font-family="sans-serif" font-size="14.00" fill="#000000"> &#160;Providers</text>
<polygon fill="#fb8072" stroke="transparent" points="656,-10 656,-30 676,-30 676,-10 656,-10"/>
<text text-anchor="start" x="679.7258" y="-15.4" font-family="sans-serif" font-size="14.00" fill="#000000"> &#160;Exports</text>
<g id="clust1" class="cluster">
<title>cluster_BsHeatmapModule</title>
<polygon fill="none" stroke="#000000" stroke-dasharray="1,5" points="8,-70 8,-268 988,-268 988,-70 8,-70"/>
</g>
<g id="clust2" class="cluster">
<title>cluster_BsHeatmapModule_declarations</title>
<polygon fill="none" stroke="#000000" points="296,-78 296,-130 980,-130 980,-78 296,-78"/>
</g>
<g id="clust7" class="cluster">
<title>cluster_BsHeatmapModule_imports</title>
<polygon fill="none" stroke="#000000" points="16,-78 16,-130 288,-130 288,-78 16,-78"/>
</g>
<g id="clust8" class="cluster">
<title>cluster_BsHeatmapModule_exports</title>
<polygon fill="none" stroke="#000000" points="120,-208 120,-260 817,-260 817,-208 120,-208"/>
</g>
<!-- BsFacetHeatmapComponent -->
<g id="node1" class="node">
<title>BsFacetHeatmapComponent</title>
<polygon fill="#ffffb3" stroke="#000000" points="972.4622,-122 795.5378,-122 795.5378,-86 972.4622,-86 972.4622,-122"/>
<text text-anchor="middle" x="884" y="-99.8" font-family="Times,serif" font-size="14.00" fill="#000000">BsFacetHeatmapComponent</text>
</g>
<!-- BsHeatmapModule -->
<g id="node5" class="node">
<title>BsHeatmapModule</title>
<polygon fill="#8dd3c7" stroke="#000000" points="512.3627,-187 509.3627,-191 488.3627,-191 485.3627,-187 387.6373,-187 387.6373,-151 512.3627,-151 512.3627,-187"/>
<text text-anchor="middle" x="450" y="-164.8" font-family="Times,serif" font-size="14.00" fill="#000000">BsHeatmapModule</text>
</g>
<!-- BsFacetHeatmapComponent&#45;&gt;BsHeatmapModule -->
<g id="edge1" class="edge">
<title>BsFacetHeatmapComponent&#45;&gt;BsHeatmapModule</title>
<path fill="none" stroke="#000000" d="M802.375,-122.1061C802.375,-141.3391 802.375,-169 802.375,-169 802.375,-169 522.5915,-169 522.5915,-169"/>
<polygon fill="#000000" stroke="#000000" points="522.5916,-165.5001 512.5915,-169 522.5915,-172.5001 522.5916,-165.5001"/>
</g>
<!-- BsHeatmapComponent -->
<g id="node2" class="node">
<title>BsHeatmapComponent</title>
<polygon fill="#ffffb3" stroke="#000000" points="777.1456,-122 630.8544,-122 630.8544,-86 777.1456,-86 777.1456,-122"/>
<text text-anchor="middle" x="704" y="-99.8" font-family="Times,serif" font-size="14.00" fill="#000000">BsHeatmapComponent</text>
</g>
<!-- BsHeatmapComponent&#45;&gt;BsHeatmapModule -->
<g id="edge2" class="edge">
<title>BsHeatmapComponent&#45;&gt;BsHeatmapModule</title>
<path fill="none" stroke="#000000" d="M728.4409,-122.027C728.4409,-138.3976 728.4409,-160 728.4409,-160 728.4409,-160 522.4876,-160 522.4876,-160"/>
<polygon fill="#000000" stroke="#000000" points="522.4876,-156.5001 512.4876,-160 522.4875,-163.5001 522.4876,-156.5001"/>
</g>
<!-- BsResultsHeatmapView -->
<g id="node3" class="node">
<title>BsResultsHeatmapView</title>
<polygon fill="#ffffb3" stroke="#000000" points="612.3529,-122 459.6471,-122 459.6471,-86 612.3529,-86 612.3529,-122"/>
<text text-anchor="middle" x="536" y="-99.8" font-family="Times,serif" font-size="14.00" fill="#000000">BsResultsHeatmapView</text>
</g>
<!-- BsResultsHeatmapView&#45;&gt;BsHeatmapModule -->
<g id="edge3" class="edge">
<title>BsResultsHeatmapView&#45;&gt;BsHeatmapModule</title>
<path fill="none" stroke="#000000" d="M486.0025,-122.1061C486.0025,-122.1061 486.0025,-140.991 486.0025,-140.991"/>
<polygon fill="#000000" stroke="#000000" points="482.5025,-140.9909 486.0025,-150.991 489.5025,-140.991 482.5025,-140.9909"/>
</g>
<!-- BsTooltipComponent -->
<g id="node4" class="node">
<title>BsTooltipComponent</title>
<polygon fill="#ffffb3" stroke="#000000" points="441.8384,-122 304.1616,-122 304.1616,-86 441.8384,-86 441.8384,-122"/>
<text text-anchor="middle" x="373" y="-99.8" font-family="Times,serif" font-size="14.00" fill="#000000">BsTooltipComponent</text>
</g>
<!-- BsTooltipComponent&#45;&gt;BsHeatmapModule -->
<g id="edge4" class="edge">
<title>BsTooltipComponent&#45;&gt;BsHeatmapModule</title>
<path fill="none" stroke="#000000" d="M414.6188,-122.1061C414.6188,-122.1061 414.6188,-140.991 414.6188,-140.991"/>
<polygon fill="#000000" stroke="#000000" points="411.1189,-140.9909 414.6188,-150.991 418.1189,-140.991 411.1189,-140.9909"/>
</g>
<!-- BsFacetHeatmapComponent  -->
<g id="node8" class="node">
<title>BsFacetHeatmapComponent </title>
<polygon fill="#fb8072" stroke="#000000" points="809.4628,-252 628.5372,-252 628.5372,-216 809.4628,-216 809.4628,-252"/>
<text text-anchor="middle" x="719" y="-229.8" font-family="Times,serif" font-size="14.00" fill="#000000">BsFacetHeatmapComponent </text>
</g>
<!-- BsHeatmapModule&#45;&gt;BsFacetHeatmapComponent  -->
<g id="edge7" class="edge">
<title>BsHeatmapModule&#45;&gt;BsFacetHeatmapComponent </title>
<path fill="none" stroke="#000000" stroke-dasharray="5,2" d="M512.4248,-178C580.4018,-178 679.5591,-178 679.5591,-178 679.5591,-178 679.5591,-205.973 679.5591,-205.973"/>
<polygon fill="#000000" stroke="#000000" points="676.0592,-205.973 679.5591,-215.973 683.0592,-205.973 676.0592,-205.973"/>
</g>
<!-- BsHeatmapComponent  -->
<g id="node9" class="node">
<title>BsHeatmapComponent </title>
<polygon fill="#fb8072" stroke="#000000" points="611.1453,-252 460.8547,-252 460.8547,-216 611.1453,-216 611.1453,-252"/>
<text text-anchor="middle" x="536" y="-229.8" font-family="Times,serif" font-size="14.00" fill="#000000">BsHeatmapComponent </text>
</g>
<!-- BsHeatmapModule&#45;&gt;BsHeatmapComponent  -->
<g id="edge8" class="edge">
<title>BsHeatmapModule&#45;&gt;BsHeatmapComponent </title>
<path fill="none" stroke="#000000" stroke-dasharray="5,2" d="M486.6794,-187.1061C486.6794,-187.1061 486.6794,-205.991 486.6794,-205.991"/>
<polygon fill="#000000" stroke="#000000" points="483.1794,-205.9909 486.6794,-215.991 490.1794,-205.991 483.1794,-205.9909"/>
</g>
<!-- BsResultsHeatmapView  -->
<g id="node10" class="node">
<title>BsResultsHeatmapView </title>
<polygon fill="#fb8072" stroke="#000000" points="443.3532,-252 286.6468,-252 286.6468,-216 443.3532,-216 443.3532,-252"/>
<text text-anchor="middle" x="365" y="-229.8" font-family="Times,serif" font-size="14.00" fill="#000000">BsResultsHeatmapView </text>
</g>
<!-- BsHeatmapModule&#45;&gt;BsResultsHeatmapView  -->
<g id="edge9" class="edge">
<title>BsHeatmapModule&#45;&gt;BsResultsHeatmapView </title>
<path fill="none" stroke="#000000" stroke-dasharray="5,2" d="M415.3726,-187.1061C415.3726,-187.1061 415.3726,-205.991 415.3726,-205.991"/>
<polygon fill="#000000" stroke="#000000" points="411.8726,-205.9909 415.3726,-215.991 418.8726,-205.991 411.8726,-205.9909"/>
</g>
<!-- BsTooltipComponent  -->
<g id="node11" class="node">
<title>BsTooltipComponent </title>
<polygon fill="#fb8072" stroke="#000000" points="268.3381,-252 127.6619,-252 127.6619,-216 268.3381,-216 268.3381,-252"/>
<text text-anchor="middle" x="198" y="-229.8" font-family="Times,serif" font-size="14.00" fill="#000000">BsTooltipComponent </text>
</g>
<!-- BsHeatmapModule&#45;&gt;BsTooltipComponent  -->
<g id="edge10" class="edge">
<title>BsHeatmapModule&#45;&gt;BsTooltipComponent </title>
<path fill="none" stroke="#000000" stroke-dasharray="5,2" d="M387.5503,-178C318.8653,-178 218.1012,-178 218.1012,-178 218.1012,-178 218.1012,-205.973 218.1012,-205.973"/>
<polygon fill="#000000" stroke="#000000" points="214.6012,-205.973 218.1012,-215.973 221.6012,-205.973 214.6012,-205.973"/>
</g>
<!-- BsActionModule -->
<g id="node6" class="node">
<title>BsActionModule</title>
<polygon fill="#8dd3c7" stroke="#000000" points="280.4342,-122 277.4342,-126 256.4342,-126 253.4342,-122 167.5658,-122 167.5658,-86 280.4342,-86 280.4342,-122"/>
<text text-anchor="middle" x="224" y="-99.8" font-family="Times,serif" font-size="14.00" fill="#000000">BsActionModule</text>
</g>
<!-- BsActionModule&#45;&gt;BsHeatmapModule -->
<g id="edge5" class="edge">
<title>BsActionModule&#45;&gt;BsHeatmapModule</title>
<path fill="none" stroke="#000000" d="M274.3179,-122.027C274.3179,-138.3976 274.3179,-160 274.3179,-160 274.3179,-160 377.5664,-160 377.5664,-160"/>
<polygon fill="#000000" stroke="#000000" points="377.5664,-163.5001 387.5664,-160 377.5663,-156.5001 377.5664,-163.5001"/>
</g>
<!-- BsSelectionModule -->
<g id="node7" class="node">
<title>BsSelectionModule</title>
<polygon fill="#8dd3c7" stroke="#000000" points="150.4299,-122 147.4299,-126 126.4299,-126 123.4299,-122 23.5701,-122 23.5701,-86 150.4299,-86 150.4299,-122"/>
<text text-anchor="middle" x="87" y="-99.8" font-family="Times,serif" font-size="14.00" fill="#000000">BsSelectionModule</text>
</g>
<!-- BsSelectionModule&#45;&gt;BsHeatmapModule -->
<g id="edge6" class="edge">
<title>BsSelectionModule&#45;&gt;BsHeatmapModule</title>
<path fill="none" stroke="#000000" d="M138.8978,-122.1061C138.8978,-141.3391 138.8978,-169 138.8978,-169 138.8978,-169 377.4181,-169 377.4181,-169"/>
<polygon fill="#000000" stroke="#000000" points="377.4181,-172.5001 387.4181,-169 377.418,-165.5001 377.4181,-172.5001"/>
</g>
</g>
</svg>
