<?xml version="1.0" encoding="UTF-8" standalone="no"?>
<!DOCTYPE svg PUBLIC "-//W3C//DTD SVG 1.1//EN"
 "http://www.w3.org/Graphics/SVG/1.1/DTD/svg11.dtd">
<!-- Generated by graphviz version 2.40.1 (20161225.0304)
 -->
<!-- Title: dependencies Pages: 1 -->
<svg width="860pt" height="284pt"
 viewBox="0.00 0.00 860.00 284.00" xmlns="http://www.w3.org/2000/svg" xmlns:xlink="http://www.w3.org/1999/xlink">
<g id="graph0" class="graph" transform="scale(1 1) rotate(0) translate(4 280)">
<title>dependencies</title>
<polygon fill="#ffffff" stroke="transparent" points="-4,4 -4,-280 856,-280 856,4 -4,4"/>
<text text-anchor="start" x="405.0091" y="-42.4" font-family="sans-serif" font-weight="bold" font-size="14.00" fill="#000000">Legend</text>
<polygon fill="#ffffb3" stroke="transparent" points="192,-10 192,-30 212,-30 212,-10 192,-10"/>
<text text-anchor="start" x="215.629" y="-15.4" font-family="sans-serif" font-size="14.00" fill="#000000"> &#160;Declarations</text>
<polygon fill="#8dd3c7" stroke="transparent" points="305,-10 305,-30 325,-30 325,-10 305,-10"/>
<text text-anchor="start" x="328.7251" y="-15.4" font-family="sans-serif" font-size="14.00" fill="#000000"> &#160;Module</text>
<polygon fill="#80b1d3" stroke="transparent" points="391,-10 391,-30 411,-30 411,-10 391,-10"/>
<text text-anchor="start" x="414.7812" y="-15.4" font-family="sans-serif" font-size="14.00" fill="#000000"> &#160;Bootstrap</text>
<polygon fill="#fdb462" stroke="transparent" points="488,-10 488,-30 508,-30 508,-10 488,-10"/>
<text text-anchor="start" x="511.6732" y="-15.4" font-family="sans-serif" font-size="14.00" fill="#000000"> &#160;Providers</text>
<polygon fill="#fb8072" stroke="transparent" points="584,-10 584,-30 604,-30 604,-10 584,-10"/>
<text text-anchor="start" x="607.7258" y="-15.4" font-family="sans-serif" font-size="14.00" fill="#000000"> &#160;Exports</text>
<g id="clust1" class="cluster">
<title>cluster_BsHeatmapModule</title>
<polygon fill="none" stroke="#000000" stroke-dasharray="1,5" points="8,-70 8,-268 844,-268 844,-70 8,-70"/>
</g>
<g id="clust2" class="cluster">
<title>cluster_BsHeatmapModule_declarations</title>
<polygon fill="none" stroke="#000000" points="152,-78 152,-130 836,-130 836,-78 152,-78"/>
</g>
<g id="clust7" class="cluster">
<title>cluster_BsHeatmapModule_imports</title>
<polygon fill="none" stroke="#000000" points="16,-78 16,-130 144,-130 144,-78 16,-78"/>
</g>
<g id="clust8" class="cluster">
<title>cluster_BsHeatmapModule_exports</title>
<polygon fill="none" stroke="#000000" points="78,-208 78,-260 775,-260 775,-208 78,-208"/>
</g>
<!-- BsFacetHeatmapComponent -->
<g id="node1" class="node">
<title>BsFacetHeatmapComponent</title>
<polygon fill="#ffffb3" stroke="#000000" points="828.4622,-122 651.5378,-122 651.5378,-86 828.4622,-86 828.4622,-122"/>
<text text-anchor="middle" x="740" y="-99.8" font-family="Times,serif" font-size="14.00" fill="#000000">BsFacetHeatmapComponent</text>
</g>
<!-- BsHeatmapModule -->
<g id="node5" class="node">
<title>BsHeatmapModule</title>
<polygon fill="#8dd3c7" stroke="#000000" points="454.3627,-187 451.3627,-191 430.3627,-191 427.3627,-187 329.6373,-187 329.6373,-151 454.3627,-151 454.3627,-187"/>
<text text-anchor="middle" x="392" y="-164.8" font-family="Times,serif" font-size="14.00" fill="#000000">BsHeatmapModule</text>
</g>
<!-- BsFacetHeatmapComponent&#45;&gt;BsHeatmapModule -->
<g id="edge1" class="edge">
<title>BsFacetHeatmapComponent&#45;&gt;BsHeatmapModule</title>
<path fill="none" stroke="#000000" d="M709.375,-122.1061C709.375,-141.3391 709.375,-169 709.375,-169 709.375,-169 464.7031,-169 464.7031,-169"/>
<polygon fill="#000000" stroke="#000000" points="464.7031,-165.5001 454.7031,-169 464.7031,-172.5001 464.7031,-165.5001"/>
</g>
<!-- BsHeatmapComponent -->
<g id="node2" class="node">
<title>BsHeatmapComponent</title>
<polygon fill="#ffffb3" stroke="#000000" points="633.1456,-122 486.8544,-122 486.8544,-86 633.1456,-86 633.1456,-122"/>
<text text-anchor="middle" x="560" y="-99.8" font-family="Times,serif" font-size="14.00" fill="#000000">BsHeatmapComponent</text>
</g>
<!-- BsHeatmapComponent&#45;&gt;BsHeatmapModule -->
<g id="edge2" class="edge">
<title>BsHeatmapComponent&#45;&gt;BsHeatmapModule</title>
<path fill="none" stroke="#000000" d="M527.875,-122.027C527.875,-138.3976 527.875,-160 527.875,-160 527.875,-160 464.3701,-160 464.3701,-160"/>
<polygon fill="#000000" stroke="#000000" points="464.3701,-156.5001 454.3701,-160 464.37,-163.5001 464.3701,-156.5001"/>
</g>
<!-- BsResultsHeatmapView -->
<g id="node3" class="node">
<title>BsResultsHeatmapView</title>
<polygon fill="#ffffb3" stroke="#000000" points="468.3529,-122 315.6471,-122 315.6471,-86 468.3529,-86 468.3529,-122"/>
<text text-anchor="middle" x="392" y="-99.8" font-family="Times,serif" font-size="14.00" fill="#000000">BsResultsHeatmapView</text>
</g>
<!-- BsResultsHeatmapView&#45;&gt;BsHeatmapModule -->
<g id="edge3" class="edge">
<title>BsResultsHeatmapView&#45;&gt;BsHeatmapModule</title>
<path fill="none" stroke="#000000" d="M392,-122.1061C392,-122.1061 392,-140.991 392,-140.991"/>
<polygon fill="#000000" stroke="#000000" points="388.5001,-140.9909 392,-150.991 395.5001,-140.991 388.5001,-140.9909"/>
</g>
<!-- BsTooltipComponent -->
<g id="node4" class="node">
<title>BsTooltipComponent</title>
<polygon fill="#ffffb3" stroke="#000000" points="297.8384,-122 160.1616,-122 160.1616,-86 297.8384,-86 297.8384,-122"/>
<text text-anchor="middle" x="229" y="-99.8" font-family="Times,serif" font-size="14.00" fill="#000000">BsTooltipComponent</text>
</g>
<!-- BsTooltipComponent&#45;&gt;BsHeatmapModule -->
<g id="edge4" class="edge">
<title>BsTooltipComponent&#45;&gt;BsHeatmapModule</title>
<path fill="none" stroke="#000000" d="M271.2463,-122.027C271.2463,-138.3976 271.2463,-160 271.2463,-160 271.2463,-160 319.5009,-160 319.5009,-160"/>
<polygon fill="#000000" stroke="#000000" points="319.501,-163.5001 329.5009,-160 319.5009,-156.5001 319.501,-163.5001"/>
</g>
<!-- BsFacetHeatmapComponent  -->
<g id="node7" class="node">
<title>BsFacetHeatmapComponent </title>
<polygon fill="#fb8072" stroke="#000000" points="767.4628,-252 586.5372,-252 586.5372,-216 767.4628,-216 767.4628,-252"/>
<text text-anchor="middle" x="677" y="-229.8" font-family="Times,serif" font-size="14.00" fill="#000000">BsFacetHeatmapComponent </text>
</g>
<!-- BsHeatmapModule&#45;&gt;BsFacetHeatmapComponent  -->
<g id="edge6" class="edge">
<title>BsHeatmapModule&#45;&gt;BsFacetHeatmapComponent </title>
<path fill="none" stroke="#000000" stroke-dasharray="5,2" d="M454.4832,-178C518.9153,-178 610.0458,-178 610.0458,-178 610.0458,-178 610.0458,-205.973 610.0458,-205.973"/>
<polygon fill="#000000" stroke="#000000" points="606.5458,-205.973 610.0458,-215.973 613.5458,-205.973 606.5458,-205.973"/>
</g>
<!-- BsHeatmapComponent  -->
<g id="node8" class="node">
<title>BsHeatmapComponent </title>
<polygon fill="#fb8072" stroke="#000000" points="569.1453,-252 418.8547,-252 418.8547,-216 569.1453,-216 569.1453,-252"/>
<text text-anchor="middle" x="494" y="-229.8" font-family="Times,serif" font-size="14.00" fill="#000000">BsHeatmapComponent </text>
</g>
<!-- BsHeatmapModule&#45;&gt;BsHeatmapComponent  -->
<g id="edge7" class="edge">
<title>BsHeatmapModule&#45;&gt;BsHeatmapComponent </title>
<path fill="none" stroke="#000000" stroke-dasharray="5,2" d="M436.6794,-187.1061C436.6794,-187.1061 436.6794,-205.991 436.6794,-205.991"/>
<polygon fill="#000000" stroke="#000000" points="433.1794,-205.9909 436.6794,-215.991 440.1794,-205.991 433.1794,-205.9909"/>
</g>
<!-- BsResultsHeatmapView  -->
<g id="node9" class="node">
<title>BsResultsHeatmapView </title>
<polygon fill="#fb8072" stroke="#000000" points="401.3532,-252 244.6468,-252 244.6468,-216 401.3532,-216 401.3532,-252"/>
<text text-anchor="middle" x="323" y="-229.8" font-family="Times,serif" font-size="14.00" fill="#000000">BsResultsHeatmapView </text>
</g>
<!-- BsHeatmapModule&#45;&gt;BsResultsHeatmapView  -->
<g id="edge8" class="edge">
<title>BsHeatmapModule&#45;&gt;BsResultsHeatmapView </title>
<path fill="none" stroke="#000000" stroke-dasharray="5,2" d="M365.3726,-187.1061C365.3726,-187.1061 365.3726,-205.991 365.3726,-205.991"/>
<polygon fill="#000000" stroke="#000000" points="361.8726,-205.9909 365.3726,-215.991 368.8726,-205.991 361.8726,-205.9909"/>
</g>
<!-- BsTooltipComponent  -->
<g id="node10" class="node">
<title>BsTooltipComponent </title>
<polygon fill="#fb8072" stroke="#000000" points="226.3381,-252 85.6619,-252 85.6619,-216 226.3381,-216 226.3381,-252"/>
<text text-anchor="middle" x="156" y="-229.8" font-family="Times,serif" font-size="14.00" fill="#000000">BsTooltipComponent </text>
</g>
<!-- BsHeatmapModule&#45;&gt;BsTooltipComponent  -->
<g id="edge9" class="edge">
<title>BsHeatmapModule&#45;&gt;BsTooltipComponent </title>
<path fill="none" stroke="#000000" stroke-dasharray="5,2" d="M329.4264,-178C271.2055,-178 193.375,-178 193.375,-178 193.375,-178 193.375,-205.973 193.375,-205.973"/>
<polygon fill="#000000" stroke="#000000" points="189.8751,-205.973 193.375,-215.973 196.8751,-205.973 189.8751,-205.973"/>
</g>
<!-- BsActionModule -->
<g id="node6" class="node">
<title>BsActionModule</title>
<polygon fill="#8dd3c7" stroke="#000000" points="136.4342,-122 133.4342,-126 112.4342,-126 109.4342,-122 23.5658,-122 23.5658,-86 136.4342,-86 136.4342,-122"/>
<text text-anchor="middle" x="80" y="-99.8" font-family="Times,serif" font-size="14.00" fill="#000000">BsActionModule</text>
</g>
<!-- BsActionModule&#45;&gt;BsHeatmapModule -->
<g id="edge5" class="edge">
<title>BsActionModule&#45;&gt;BsHeatmapModule</title>
<path fill="none" stroke="#000000" d="M110.8989,-122.1061C110.8989,-141.3391 110.8989,-169 110.8988,-169 110.8988,-169 319.6145,-169 319.6145,-169"/>
<polygon fill="#000000" stroke="#000000" points="319.6146,-172.5001 329.6145,-169 319.6145,-165.5001 319.6146,-172.5001"/>
</g>
</g>
</svg>
