<?xml version="1.0" encoding="UTF-8" standalone="no"?>
<!DOCTYPE svg PUBLIC "-//W3C//DTD SVG 1.1//EN"
 "http://www.w3.org/Graphics/SVG/1.1/DTD/svg11.dtd">
<!-- Generated by graphviz version 2.40.1 (20161225.0304)
 -->
<!-- Title: dependencies Pages: 1 -->
<svg width="504pt" height="284pt"
 viewBox="0.00 0.00 504.00 284.00" xmlns="http://www.w3.org/2000/svg" xmlns:xlink="http://www.w3.org/1999/xlink">
<g id="graph0" class="graph" transform="scale(1 1) rotate(0) translate(4 280)">
<title>dependencies</title>
<polygon fill="#ffffff" stroke="transparent" points="-4,4 -4,-280 500,-280 500,4 -4,4"/>
<text text-anchor="start" x="227.0091" y="-42.4" font-family="sans-serif" font-weight="bold" font-size="14.00" fill="#000000">Legend</text>
<polygon fill="#ffffb3" stroke="transparent" points="14,-10 14,-30 34,-30 34,-10 14,-10"/>
<text text-anchor="start" x="37.629" y="-15.4" font-family="sans-serif" font-size="14.00" fill="#000000"> &#160;Declarations</text>
<polygon fill="#8dd3c7" stroke="transparent" points="127,-10 127,-30 147,-30 147,-10 127,-10"/>
<text text-anchor="start" x="150.7251" y="-15.4" font-family="sans-serif" font-size="14.00" fill="#000000"> &#160;Module</text>
<polygon fill="#80b1d3" stroke="transparent" points="213,-10 213,-30 233,-30 233,-10 213,-10"/>
<text text-anchor="start" x="236.7812" y="-15.4" font-family="sans-serif" font-size="14.00" fill="#000000"> &#160;Bootstrap</text>
<polygon fill="#fdb462" stroke="transparent" points="310,-10 310,-30 330,-30 330,-10 310,-10"/>
<text text-anchor="start" x="333.6732" y="-15.4" font-family="sans-serif" font-size="14.00" fill="#000000"> &#160;Providers</text>
<polygon fill="#fb8072" stroke="transparent" points="406,-10 406,-30 426,-30 426,-10 406,-10"/>
<text text-anchor="start" x="429.7258" y="-15.4" font-family="sans-serif" font-size="14.00" fill="#000000"> &#160;Exports</text>
<g id="clust1" class="cluster">
<title>cluster_BsHeatmapModule</title>
<polygon fill="none" stroke="#000000" stroke-dasharray="1,5" points="24,-70 24,-268 472,-268 472,-70 24,-70"/>
</g>
<g id="clust2" class="cluster">
<title>cluster_BsHeatmapModule_declarations</title>
<polygon fill="none" stroke="#000000" points="296,-78 296,-130 464,-130 464,-78 296,-78"/>
</g>
<g id="clust4" class="cluster">
<title>cluster_BsHeatmapModule_imports</title>
<polygon fill="none" stroke="#000000" points="32,-78 32,-130 288,-130 288,-78 32,-78"/>
</g>
<g id="clust5" class="cluster">
<title>cluster_BsHeatmapModule_exports</title>
<polygon fill="none" stroke="#000000" points="96,-208 96,-260 400,-260 400,-208 96,-208"/>
</g>
<!-- BsResultsHeatmapView -->
<g id="node1" class="node">
<title>BsResultsHeatmapView</title>
<polygon fill="#ffffb3" stroke="#000000" points="456.3529,-122 303.6471,-122 303.6471,-86 456.3529,-86 456.3529,-122"/>
<text text-anchor="middle" x="380" y="-99.8" font-family="Times,serif" font-size="14.00" fill="#000000">BsResultsHeatmapView</text>
</g>
<!-- BsHeatmapModule -->
<g id="node2" class="node">
<title>BsHeatmapModule</title>
<polygon fill="#8dd3c7" stroke="#000000" points="286.3627,-187 283.3627,-191 262.3627,-191 259.3627,-187 161.6373,-187 161.6373,-151 286.3627,-151 286.3627,-187"/>
<text text-anchor="middle" x="224" y="-164.8" font-family="Times,serif" font-size="14.00" fill="#000000">BsHeatmapModule</text>
</g>
<!-- BsResultsHeatmapView&#45;&gt;BsHeatmapModule -->
<g id="edge1" class="edge">
<title>BsResultsHeatmapView&#45;&gt;BsHeatmapModule</title>
<path fill="none" stroke="#000000" d="M347.875,-122.1061C347.875,-141.3391 347.875,-169 347.875,-169 347.875,-169 296.6633,-169 296.6633,-169"/>
<polygon fill="#000000" stroke="#000000" points="296.6634,-165.5001 286.6633,-169 296.6633,-172.5001 296.6634,-165.5001"/>
</g>
<!-- BsResultsHeatmapView  -->
<g id="node5" class="node">
<title>BsResultsHeatmapView </title>
<polygon fill="#fb8072" stroke="#000000" points="392.3532,-252 235.6468,-252 235.6468,-216 392.3532,-216 392.3532,-252"/>
<text text-anchor="middle" x="314" y="-229.8" font-family="Times,serif" font-size="14.00" fill="#000000">BsResultsHeatmapView </text>
</g>
<!-- BsHeatmapModule&#45;&gt;BsResultsHeatmapView  -->
<g id="edge4" class="edge">
<title>BsHeatmapModule&#45;&gt;BsResultsHeatmapView </title>
<path fill="none" stroke="#000000" stroke-dasharray="5,2" d="M261.1275,-187.1061C261.1275,-187.1061 261.1275,-205.991 261.1275,-205.991"/>
<polygon fill="#000000" stroke="#000000" points="257.6275,-205.9909 261.1275,-215.991 264.6275,-205.991 257.6275,-205.9909"/>
</g>
<!-- HeatmapModule  -->
<g id="node6" class="node">
<title>HeatmapModule </title>
<polygon fill="#fb8072" stroke="#000000" points="217.5822,-252 104.4178,-252 104.4178,-216 217.5822,-216 217.5822,-252"/>
<text text-anchor="middle" x="161" y="-229.8" font-family="Times,serif" font-size="14.00" fill="#000000">HeatmapModule </text>
</g>
<!-- BsHeatmapModule&#45;&gt;HeatmapModule  -->
<g id="edge5" class="edge">
<title>BsHeatmapModule&#45;&gt;HeatmapModule </title>
<path fill="none" stroke="#000000" stroke-dasharray="5,2" d="M189.6797,-187.1061C189.6797,-187.1061 189.6797,-205.991 189.6797,-205.991"/>
<polygon fill="#000000" stroke="#000000" points="186.1798,-205.9909 189.6797,-215.991 193.1798,-205.991 186.1798,-205.9909"/>
</g>
<!-- BsActionModule -->
<g id="node3" class="node">
<title>BsActionModule</title>
<polygon fill="#8dd3c7" stroke="#000000" points="280.4342,-122 277.4342,-126 256.4342,-126 253.4342,-122 167.5658,-122 167.5658,-86 280.4342,-86 280.4342,-122"/>
<text text-anchor="middle" x="224" y="-99.8" font-family="Times,serif" font-size="14.00" fill="#000000">BsActionModule</text>
</g>
<!-- BsActionModule&#45;&gt;BsHeatmapModule -->
<g id="edge2" class="edge">
<title>BsActionModule&#45;&gt;BsHeatmapModule</title>
<path fill="none" stroke="#000000" d="M224,-122.1061C224,-122.1061 224,-140.991 224,-140.991"/>
<polygon fill="#000000" stroke="#000000" points="220.5001,-140.9909 224,-150.991 227.5001,-140.991 220.5001,-140.9909"/>
</g>
<!-- HeatmapModule -->
<g id="node4" class="node">
<title>HeatmapModule</title>
<polygon fill="#8dd3c7" stroke="#000000" points="150.0814,-122 147.0814,-126 126.0814,-126 123.0814,-122 39.9186,-122 39.9186,-86 150.0814,-86 150.0814,-122"/>
<text text-anchor="middle" x="95" y="-99.8" font-family="Times,serif" font-size="14.00" fill="#000000">HeatmapModule</text>
</g>
<!-- HeatmapModule&#45;&gt;BsHeatmapModule -->
<g id="edge3" class="edge">
<title>HeatmapModule&#45;&gt;BsHeatmapModule</title>
<path fill="none" stroke="#000000" d="M127.125,-122.1061C127.125,-141.3391 127.125,-169 127.125,-169 127.125,-169 151.5523,-169 151.5523,-169"/>
<polygon fill="#000000" stroke="#000000" points="151.5523,-172.5001 161.5523,-169 151.5522,-165.5001 151.5523,-172.5001"/>
</g>
</g>
</svg>
