<?xml version="1.0" encoding="UTF-8" standalone="no"?>
<!DOCTYPE svg PUBLIC "-//W3C//DTD SVG 1.1//EN"
 "http://www.w3.org/Graphics/SVG/1.1/DTD/svg11.dtd">
<!-- Generated by graphviz version 2.40.1 (20161225.0304)
 -->
<!-- Title: dependencies Pages: 1 -->
<svg width="737pt" height="284pt"
 viewBox="0.00 0.00 737.00 284.00" xmlns="http://www.w3.org/2000/svg" xmlns:xlink="http://www.w3.org/1999/xlink">
<g id="graph0" class="graph" transform="scale(1 1) rotate(0) translate(4 280)">
<title>dependencies</title>
<polygon fill="#ffffff" stroke="transparent" points="-4,4 -4,-280 733,-280 733,4 -4,4"/>
<text text-anchor="start" x="343.5091" y="-42.4" font-family="sans-serif" font-weight="bold" font-size="14.00" fill="#000000">Legend</text>
<polygon fill="#ffffb3" stroke="transparent" points="130.5,-10 130.5,-30 150.5,-30 150.5,-10 130.5,-10"/>
<text text-anchor="start" x="154.129" y="-15.4" font-family="sans-serif" font-size="14.00" fill="#000000"> &#160;Declarations</text>
<polygon fill="#8dd3c7" stroke="transparent" points="243.5,-10 243.5,-30 263.5,-30 263.5,-10 243.5,-10"/>
<text text-anchor="start" x="267.2251" y="-15.4" font-family="sans-serif" font-size="14.00" fill="#000000"> &#160;Module</text>
<polygon fill="#80b1d3" stroke="transparent" points="329.5,-10 329.5,-30 349.5,-30 349.5,-10 329.5,-10"/>
<text text-anchor="start" x="353.2812" y="-15.4" font-family="sans-serif" font-size="14.00" fill="#000000"> &#160;Bootstrap</text>
<polygon fill="#fdb462" stroke="transparent" points="426.5,-10 426.5,-30 446.5,-30 446.5,-10 426.5,-10"/>
<text text-anchor="start" x="450.1732" y="-15.4" font-family="sans-serif" font-size="14.00" fill="#000000"> &#160;Providers</text>
<polygon fill="#fb8072" stroke="transparent" points="522.5,-10 522.5,-30 542.5,-30 542.5,-10 522.5,-10"/>
<text text-anchor="start" x="546.2258" y="-15.4" font-family="sans-serif" font-size="14.00" fill="#000000"> &#160;Exports</text>
<g id="clust1" class="cluster">
<title>cluster_BsTimelineModule</title>
<polygon fill="none" stroke="#000000" stroke-dasharray="1,5" points="8,-70 8,-268 721,-268 721,-70 8,-70"/>
</g>
<g id="clust2" class="cluster">
<title>cluster_BsTimelineModule_declarations</title>
<polygon fill="none" stroke="#000000" points="164,-78 164,-130 713,-130 713,-78 164,-78"/>
</g>
<g id="clust6" class="cluster">
<title>cluster_BsTimelineModule_imports</title>
<polygon fill="none" stroke="#000000" points="16,-78 16,-130 156,-130 156,-78 16,-78"/>
</g>
<g id="clust7" class="cluster">
<title>cluster_BsTimelineModule_exports</title>
<polygon fill="none" stroke="#000000" points="84,-208 84,-260 644,-260 644,-208 84,-208"/>
</g>
<!-- BsFacetTimelineComponent -->
<g id="node1" class="node">
<title>BsFacetTimelineComponent</title>
<polygon fill="#ffffb3" stroke="#000000" points="705.4748,-122 528.5252,-122 528.5252,-86 705.4748,-86 705.4748,-122"/>
<text text-anchor="middle" x="617" y="-99.8" font-family="Times,serif" font-size="14.00" fill="#000000">BsFacetTimelineComponent</text>
</g>
<!-- BsTimelineModule -->
<g id="node4" class="node">
<title>BsTimelineModule</title>
<polygon fill="#8dd3c7" stroke="#000000" points="425.3753,-187 422.3753,-191 401.3753,-191 398.3753,-187 300.6247,-187 300.6247,-151 425.3753,-151 425.3753,-187"/>
<text text-anchor="middle" x="363" y="-164.8" font-family="Times,serif" font-size="14.00" fill="#000000">BsTimelineModule</text>
</g>
<!-- BsFacetTimelineComponent&#45;&gt;BsTimelineModule -->
<g id="edge1" class="edge">
<title>BsFacetTimelineComponent&#45;&gt;BsTimelineModule</title>
<path fill="none" stroke="#000000" d="M582.375,-122.0225C582.375,-139.3734 582.375,-163 582.375,-163 582.375,-163 435.5705,-163 435.5705,-163"/>
<polygon fill="#000000" stroke="#000000" points="435.5705,-159.5001 425.5705,-163 435.5705,-166.5001 435.5705,-159.5001"/>
</g>
<!-- BsTimelineComponent -->
<g id="node2" class="node">
<title>BsTimelineComponent</title>
<polygon fill="#ffffb3" stroke="#000000" points="510.1582,-122 363.8418,-122 363.8418,-86 510.1582,-86 510.1582,-122"/>
<text text-anchor="middle" x="437" y="-99.8" font-family="Times,serif" font-size="14.00" fill="#000000">BsTimelineComponent</text>
</g>
<!-- BsTimelineComponent&#45;&gt;BsTimelineModule -->
<g id="edge2" class="edge">
<title>BsTimelineComponent&#45;&gt;BsTimelineModule</title>
<path fill="none" stroke="#000000" d="M394.5544,-122.1061C394.5544,-122.1061 394.5544,-140.991 394.5544,-140.991"/>
<polygon fill="#000000" stroke="#000000" points="391.0544,-140.9909 394.5544,-150.991 398.0544,-140.991 391.0544,-140.9909"/>
</g>
<!-- TimelineLegendComponent -->
<g id="node3" class="node">
<title>TimelineLegendComponent</title>
<polygon fill="#ffffb3" stroke="#000000" points="345.8585,-122 172.1415,-122 172.1415,-86 345.8585,-86 345.8585,-122"/>
<text text-anchor="middle" x="259" y="-99.8" font-family="Times,serif" font-size="14.00" fill="#000000">TimelineLegendComponent</text>
</g>
<!-- TimelineLegendComponent&#45;&gt;BsTimelineModule -->
<g id="edge3" class="edge">
<title>TimelineLegendComponent&#45;&gt;BsTimelineModule</title>
<path fill="none" stroke="#000000" d="M323.2458,-122.1061C323.2458,-122.1061 323.2458,-140.991 323.2458,-140.991"/>
<polygon fill="#000000" stroke="#000000" points="319.7459,-140.9909 323.2458,-150.991 326.7459,-140.991 319.7459,-140.9909"/>
</g>
<!-- BsFacetTimelineComponent  -->
<g id="node6" class="node">
<title>BsFacetTimelineComponent </title>
<polygon fill="#fb8072" stroke="#000000" points="636.4754,-252 455.5246,-252 455.5246,-216 636.4754,-216 636.4754,-252"/>
<text text-anchor="middle" x="546" y="-229.8" font-family="Times,serif" font-size="14.00" fill="#000000">BsFacetTimelineComponent </text>
</g>
<!-- BsTimelineModule&#45;&gt;BsFacetTimelineComponent  -->
<g id="edge5" class="edge">
<title>BsTimelineModule&#45;&gt;BsFacetTimelineComponent </title>
<path fill="none" stroke="#000000" stroke-dasharray="5,2" d="M425.4841,-175C454.6531,-175 483.0458,-175 483.0458,-175 483.0458,-175 483.0458,-205.9775 483.0458,-205.9775"/>
<polygon fill="#000000" stroke="#000000" points="479.5458,-205.9774 483.0458,-215.9775 486.5458,-205.9775 479.5458,-205.9774"/>
</g>
<!-- BsTimelineComponent  -->
<g id="node7" class="node">
<title>BsTimelineComponent </title>
<polygon fill="#fb8072" stroke="#000000" points="438.1579,-252 287.8421,-252 287.8421,-216 438.1579,-216 438.1579,-252"/>
<text text-anchor="middle" x="363" y="-229.8" font-family="Times,serif" font-size="14.00" fill="#000000">BsTimelineComponent </text>
</g>
<!-- BsTimelineModule&#45;&gt;BsTimelineComponent  -->
<g id="edge6" class="edge">
<title>BsTimelineModule&#45;&gt;BsTimelineComponent </title>
<path fill="none" stroke="#000000" stroke-dasharray="5,2" d="M363,-187.1061C363,-187.1061 363,-205.991 363,-205.991"/>
<polygon fill="#000000" stroke="#000000" points="359.5001,-205.9909 363,-215.991 366.5001,-205.991 359.5001,-205.9909"/>
</g>
<!-- TimelineLegendComponent  -->
<g id="node8" class="node">
<title>TimelineLegendComponent </title>
<polygon fill="#fb8072" stroke="#000000" points="269.8588,-252 92.1412,-252 92.1412,-216 269.8588,-216 269.8588,-252"/>
<text text-anchor="middle" x="181" y="-229.8" font-family="Times,serif" font-size="14.00" fill="#000000">TimelineLegendComponent </text>
</g>
<!-- BsTimelineModule&#45;&gt;TimelineLegendComponent  -->
<g id="edge7" class="edge">
<title>BsTimelineModule&#45;&gt;TimelineLegendComponent </title>
<path fill="none" stroke="#000000" stroke-dasharray="5,2" d="M300.2482,-175C262.1749,-175 220.875,-175 220.875,-175 220.875,-175 220.875,-205.9775 220.875,-205.9775"/>
<polygon fill="#000000" stroke="#000000" points="217.3751,-205.9774 220.875,-215.9775 224.3751,-205.9775 217.3751,-205.9774"/>
</g>
<!-- BsHeatmapModule -->
<g id="node5" class="node">
<title>BsHeatmapModule</title>
<polygon fill="#8dd3c7" stroke="#000000" points="148.3627,-122 145.3627,-126 124.3627,-126 121.3627,-122 23.6373,-122 23.6373,-86 148.3627,-86 148.3627,-122"/>
<text text-anchor="middle" x="86" y="-99.8" font-family="Times,serif" font-size="14.00" fill="#000000">BsHeatmapModule</text>
</g>
<!-- BsHeatmapModule&#45;&gt;BsTimelineModule -->
<g id="edge4" class="edge">
<title>BsHeatmapModule&#45;&gt;BsTimelineModule</title>
<path fill="none" stroke="#000000" d="M120.3761,-122.0225C120.3761,-139.3734 120.3761,-163 120.3761,-163 120.3761,-163 290.5183,-163 290.5183,-163"/>
<polygon fill="#000000" stroke="#000000" points="290.5183,-166.5001 300.5183,-163 290.5183,-159.5001 290.5183,-166.5001"/>
</g>
</g>
</svg>
