<?xml version="1.0" encoding="UTF-8" standalone="no"?>
<!DOCTYPE svg PUBLIC "-//W3C//DTD SVG 1.1//EN"
 "http://www.w3.org/Graphics/SVG/1.1/DTD/svg11.dtd">
<!-- Generated by graphviz version 2.47.3 (20210619.1520)
 -->
<!-- Title: dependencies Pages: 1 -->
<svg width="843pt" height="247pt"
 viewBox="0.00 0.00 843.00 246.80" xmlns="http://www.w3.org/2000/svg" xmlns:xlink="http://www.w3.org/1999/xlink">
<g id="graph0" class="graph" transform="scale(1 1) rotate(0) translate(4 242.8)">
<title>dependencies</title>
<polygon fill="white" stroke="transparent" points="-4,4 -4,-242.8 839,-242.8 839,4 -4,4"/>
<text text-anchor="middle" x="417.5" y="-8.2" font-family="sans-serif" font-size="14.00">dependencies</text>
<g id="clust1" class="cluster">
<title>cluster_BsTimelineModule</title>
<polygon fill="none" stroke="black" stroke-dasharray="1,5" points="8,-32.8 8,-230.8 827,-230.8 827,-32.8 8,-32.8"/>
</g>
<g id="clust8" class="cluster">
<title>cluster_BsTimelineModule_exports</title>
<polygon fill="none" stroke="black" points="83,-170.8 83,-222.8 753,-222.8 753,-170.8 83,-170.8"/>
</g>
<g id="clust7" class="cluster">
<title>cluster_BsTimelineModule_imports</title>
<polygon fill="none" stroke="black" points="679,-40.8 679,-92.8 819,-92.8 819,-40.8 679,-40.8"/>
</g>
<g id="clust2" class="cluster">
<title>cluster_BsTimelineModule_declarations</title>
<polygon fill="none" stroke="black" points="16,-40.8 16,-92.8 671,-92.8 671,-40.8 16,-40.8"/>
</g>
<!-- BsFacetDate -->
<g id="node1" class="node">
<title>BsFacetDate</title>
<polygon fill="#ffffb3" stroke="black" points="662.53,-84.8 575.47,-84.8 575.47,-48.8 662.53,-48.8 662.53,-84.8"/>
<text text-anchor="middle" x="619" y="-62.6" font-family="Times,serif" font-size="14.00">BsFacetDate</text>
</g>
<!-- BsTimelineModule -->
<g id="node5" class="node">
<title>BsTimelineModule</title>
<polygon fill="#8dd3c7" stroke="black" points="531.38,-149.8 528.38,-153.8 507.38,-153.8 504.38,-149.8 406.62,-149.8 406.62,-113.8 531.38,-113.8 531.38,-149.8"/>
<text text-anchor="middle" x="469" y="-127.6" font-family="Times,serif" font-size="14.00">BsTimelineModule</text>
</g>
<!-- BsFacetDate&#45;&gt;BsTimelineModule -->
<g id="edge1" class="edge">
<title>BsFacetDate&#45;&gt;BsTimelineModule</title>
<path fill="none" stroke="black" d="M605.24,-84.83C605.24,-101.2 605.24,-122.8 605.24,-122.8 605.24,-122.8 541.54,-122.8 541.54,-122.8"/>
<polygon fill="black" stroke="black" points="541.54,-119.3 531.54,-122.8 541.54,-126.3 541.54,-119.3"/>
</g>
<!-- BsFacetTimelineComponent -->
<g id="node2" class="node">
<title>BsFacetTimelineComponent</title>
<polygon fill="#ffffb3" stroke="black" points="557.47,-84.8 380.53,-84.8 380.53,-48.8 557.47,-48.8 557.47,-84.8"/>
<text text-anchor="middle" x="469" y="-62.6" font-family="Times,serif" font-size="14.00">BsFacetTimelineComponent</text>
</g>
<!-- BsFacetTimelineComponent&#45;&gt;BsTimelineModule -->
<g id="edge2" class="edge">
<title>BsFacetTimelineComponent&#45;&gt;BsTimelineModule</title>
<path fill="none" stroke="black" d="M469,-84.91C469,-84.91 469,-103.79 469,-103.79"/>
<polygon fill="black" stroke="black" points="465.5,-103.79 469,-113.79 472.5,-103.79 465.5,-103.79"/>
</g>
<!-- BsTimelineComponent -->
<g id="node3" class="node">
<title>BsTimelineComponent</title>
<polygon fill="#ffffb3" stroke="black" points="362.16,-84.8 215.84,-84.8 215.84,-48.8 362.16,-48.8 362.16,-84.8"/>
<text text-anchor="middle" x="289" y="-62.6" font-family="Times,serif" font-size="14.00">BsTimelineComponent</text>
</g>
<!-- BsTimelineComponent&#45;&gt;BsTimelineModule -->
<g id="edge3" class="edge">
<title>BsTimelineComponent&#45;&gt;BsTimelineModule</title>
<path fill="none" stroke="black" d="M324.62,-84.83C324.62,-101.2 324.62,-122.8 324.62,-122.8 324.62,-122.8 396.51,-122.8 396.51,-122.8"/>
<polygon fill="black" stroke="black" points="396.51,-126.3 406.51,-122.8 396.51,-119.3 396.51,-126.3"/>
</g>
<!-- TimelineLegendComponent -->
<g id="node4" class="node">
<title>TimelineLegendComponent</title>
<polygon fill="#ffffb3" stroke="black" points="197.86,-84.8 24.14,-84.8 24.14,-48.8 197.86,-48.8 197.86,-84.8"/>
<text text-anchor="middle" x="111" y="-62.6" font-family="Times,serif" font-size="14.00">TimelineLegendComponent</text>
</g>
<!-- TimelineLegendComponent&#45;&gt;BsTimelineModule -->
<g id="edge4" class="edge">
<title>TimelineLegendComponent&#45;&gt;BsTimelineModule</title>
<path fill="none" stroke="black" d="M144.62,-84.91C144.62,-104.14 144.62,-131.8 144.62,-131.8 144.62,-131.8 396.46,-131.8 396.46,-131.8"/>
<polygon fill="black" stroke="black" points="396.46,-135.3 406.46,-131.8 396.46,-128.3 396.46,-135.3"/>
</g>
<!-- BsFacetDate  -->
<g id="node7" class="node">
<title>BsFacetDate </title>
<polygon fill="#fb8072" stroke="black" points="744.52,-214.8 653.48,-214.8 653.48,-178.8 744.52,-178.8 744.52,-214.8"/>
<text text-anchor="middle" x="699" y="-192.6" font-family="Times,serif" font-size="14.00">BsFacetDate </text>
</g>
<!-- BsTimelineModule&#45;&gt;BsFacetDate  -->
<g id="edge6" class="edge">
<title>BsTimelineModule&#45;&gt;BsFacetDate </title>
<path fill="none" stroke="black" stroke-dasharray="5,2" d="M531.45,-140.8C586.54,-140.8 658.12,-140.8 658.12,-140.8 658.12,-140.8 658.12,-168.77 658.12,-168.77"/>
<polygon fill="black" stroke="black" points="654.63,-168.77 658.12,-178.77 661.63,-168.77 654.63,-168.77"/>
</g>
<!-- BsFacetTimelineComponent  -->
<g id="node8" class="node">
<title>BsFacetTimelineComponent </title>
<polygon fill="#fb8072" stroke="black" points="635.48,-214.8 454.52,-214.8 454.52,-178.8 635.48,-178.8 635.48,-214.8"/>
<text text-anchor="middle" x="545" y="-192.6" font-family="Times,serif" font-size="14.00">BsFacetTimelineComponent </text>
</g>
<!-- BsTimelineModule&#45;&gt;BsFacetTimelineComponent  -->
<g id="edge7" class="edge">
<title>BsTimelineModule&#45;&gt;BsFacetTimelineComponent </title>
<path fill="none" stroke="black" stroke-dasharray="5,2" d="M493.1,-149.91C493.1,-149.91 493.1,-168.79 493.1,-168.79"/>
<polygon fill="black" stroke="black" points="489.6,-168.79 493.1,-178.79 496.6,-168.79 489.6,-168.79"/>
</g>
<!-- BsTimelineComponent  -->
<g id="node9" class="node">
<title>BsTimelineComponent </title>
<polygon fill="#fb8072" stroke="black" points="437.16,-214.8 286.84,-214.8 286.84,-178.8 437.16,-178.8 437.16,-214.8"/>
<text text-anchor="middle" x="362" y="-192.6" font-family="Times,serif" font-size="14.00">BsTimelineComponent </text>
</g>
<!-- BsTimelineModule&#45;&gt;BsTimelineComponent  -->
<g id="edge8" class="edge">
<title>BsTimelineModule&#45;&gt;BsTimelineComponent </title>
<path fill="none" stroke="black" stroke-dasharray="5,2" d="M421.82,-149.91C421.82,-149.91 421.82,-168.79 421.82,-168.79"/>
<polygon fill="black" stroke="black" points="418.32,-168.79 421.82,-178.79 425.32,-168.79 418.32,-168.79"/>
</g>
<!-- TimelineLegendComponent  -->
<g id="node10" class="node">
<title>TimelineLegendComponent </title>
<polygon fill="#fb8072" stroke="black" points="268.86,-214.8 91.14,-214.8 91.14,-178.8 268.86,-178.8 268.86,-214.8"/>
<text text-anchor="middle" x="180" y="-192.6" font-family="Times,serif" font-size="14.00">TimelineLegendComponent </text>
</g>
<!-- BsTimelineModule&#45;&gt;TimelineLegendComponent  -->
<g id="edge9" class="edge">
<title>BsTimelineModule&#45;&gt;TimelineLegendComponent </title>
<path fill="none" stroke="black" stroke-dasharray="5,2" d="M406.42,-140.8C339.28,-140.8 242.18,-140.8 242.18,-140.8 242.18,-140.8 242.18,-168.77 242.18,-168.77"/>
<polygon fill="black" stroke="black" points="238.68,-168.77 242.18,-178.77 245.68,-168.77 238.68,-168.77"/>
</g>
<!-- BsHeatmapModule -->
<g id="node6" class="node">
<title>BsHeatmapModule</title>
<polygon fill="#8dd3c7" stroke="black" points="811.36,-84.8 808.36,-88.8 787.36,-88.8 784.36,-84.8 686.64,-84.8 686.64,-48.8 811.36,-48.8 811.36,-84.8"/>
<text text-anchor="middle" x="749" y="-62.6" font-family="Times,serif" font-size="14.00">BsHeatmapModule</text>
</g>
<!-- BsHeatmapModule&#45;&gt;BsTimelineModule -->
<g id="edge5" class="edge">
<title>BsHeatmapModule&#45;&gt;BsTimelineModule</title>
<path fill="none" stroke="black" d="M715.54,-84.91C715.54,-104.14 715.54,-131.8 715.54,-131.8 715.54,-131.8 541.53,-131.8 541.53,-131.8"/>
<polygon fill="black" stroke="black" points="541.53,-128.3 531.53,-131.8 541.53,-135.3 541.53,-128.3"/>
</g>
</g>
</svg>
