<?xml version="1.0" encoding="UTF-8" standalone="no"?>
<!DOCTYPE svg PUBLIC "-//W3C//DTD SVG 1.1//EN"
 "http://www.w3.org/Graphics/SVG/1.1/DTD/svg11.dtd">
<!-- Generated by graphviz version 2.47.3 (20210619.1520)
 -->
<!-- Title: dependencies Pages: 1 -->
<svg width="737pt" height="247pt"
 viewBox="0.00 0.00 737.00 246.80" xmlns="http://www.w3.org/2000/svg" xmlns:xlink="http://www.w3.org/1999/xlink">
<g id="graph0" class="graph" transform="scale(1 1) rotate(0) translate(4 242.8)">
<title>dependencies</title>
<polygon fill="white" stroke="transparent" points="-4,4 -4,-242.8 733,-242.8 733,4 -4,4"/>
<text text-anchor="middle" x="364.5" y="-8.2" font-family="sans-serif" font-size="14.00">dependencies</text>
<g id="clust1" class="cluster">
<title>cluster_BsTimelineModule</title>
<polygon fill="none" stroke="black" stroke-dasharray="1,5" points="8,-32.8 8,-230.8 721,-230.8 721,-32.8 8,-32.8"/>
</g>
<g id="clust7" class="cluster">
<title>cluster_BsTimelineModule_exports</title>
<polygon fill="none" stroke="black" points="84,-170.8 84,-222.8 644,-222.8 644,-170.8 84,-170.8"/>
</g>
<g id="clust6" class="cluster">
<title>cluster_BsTimelineModule_imports</title>
<polygon fill="none" stroke="black" points="573,-40.8 573,-92.8 713,-92.8 713,-40.8 573,-40.8"/>
</g>
<g id="clust2" class="cluster">
<title>cluster_BsTimelineModule_declarations</title>
<polygon fill="none" stroke="black" points="16,-40.8 16,-92.8 565,-92.8 565,-40.8 16,-40.8"/>
</g>
<!-- BsFacetTimelineComponent -->
<g id="node1" class="node">
<title>BsFacetTimelineComponent</title>
<polygon fill="#ffffb3" stroke="black" points="557.47,-84.8 380.53,-84.8 380.53,-48.8 557.47,-48.8 557.47,-84.8"/>
<text text-anchor="middle" x="469" y="-62.6" font-family="Times,serif" font-size="14.00">BsFacetTimelineComponent</text>
</g>
<!-- BsTimelineModule -->
<g id="node4" class="node">
<title>BsTimelineModule</title>
<polygon fill="#8dd3c7" stroke="black" points="425.38,-149.8 422.38,-153.8 401.38,-153.8 398.38,-149.8 300.62,-149.8 300.62,-113.8 425.38,-113.8 425.38,-149.8"/>
<text text-anchor="middle" x="363" y="-127.6" font-family="Times,serif" font-size="14.00">BsTimelineModule</text>
</g>
<!-- BsFacetTimelineComponent&#45;&gt;BsTimelineModule -->
<g id="edge1" class="edge">
<title>BsFacetTimelineComponent&#45;&gt;BsTimelineModule</title>
<path fill="none" stroke="black" d="M402.98,-84.91C402.98,-84.91 402.98,-103.79 402.98,-103.79"/>
<polygon fill="black" stroke="black" points="399.48,-103.79 402.98,-113.79 406.48,-103.79 399.48,-103.79"/>
</g>
<!-- BsTimelineComponent -->
<g id="node2" class="node">
<title>BsTimelineComponent</title>
<polygon fill="#ffffb3" stroke="black" points="362.16,-84.8 215.84,-84.8 215.84,-48.8 362.16,-48.8 362.16,-84.8"/>
<text text-anchor="middle" x="289" y="-62.6" font-family="Times,serif" font-size="14.00">BsTimelineComponent</text>
</g>
<!-- BsTimelineComponent&#45;&gt;BsTimelineModule -->
<g id="edge2" class="edge">
<title>BsTimelineComponent&#45;&gt;BsTimelineModule</title>
<path fill="none" stroke="black" d="M331.45,-84.91C331.45,-84.91 331.45,-103.79 331.45,-103.79"/>
<polygon fill="black" stroke="black" points="327.95,-103.79 331.45,-113.79 334.95,-103.79 327.95,-103.79"/>
</g>
<!-- TimelineLegendComponent -->
<g id="node3" class="node">
<title>TimelineLegendComponent</title>
<polygon fill="#ffffb3" stroke="black" points="197.86,-84.8 24.14,-84.8 24.14,-48.8 197.86,-48.8 197.86,-84.8"/>
<text text-anchor="middle" x="111" y="-62.6" font-family="Times,serif" font-size="14.00">TimelineLegendComponent</text>
</g>
<!-- TimelineLegendComponent&#45;&gt;BsTimelineModule -->
<g id="edge3" class="edge">
<title>TimelineLegendComponent&#45;&gt;BsTimelineModule</title>
<path fill="none" stroke="black" d="M145.12,-84.82C145.12,-102.17 145.12,-125.8 145.12,-125.8 145.12,-125.8 290.57,-125.8 290.57,-125.8"/>
<polygon fill="black" stroke="black" points="290.57,-129.3 300.57,-125.8 290.57,-122.3 290.57,-129.3"/>
</g>
<!-- BsFacetTimelineComponent  -->
<g id="node6" class="node">
<title>BsFacetTimelineComponent </title>
<polygon fill="#fb8072" stroke="black" points="636.48,-214.8 455.52,-214.8 455.52,-178.8 636.48,-178.8 636.48,-214.8"/>
<text text-anchor="middle" x="546" y="-192.6" font-family="Times,serif" font-size="14.00">BsFacetTimelineComponent </text>
</g>
<!-- BsTimelineModule&#45;&gt;BsFacetTimelineComponent  -->
<g id="edge5" class="edge">
<title>BsTimelineModule&#45;&gt;BsFacetTimelineComponent </title>
<path fill="none" stroke="black" stroke-dasharray="5,2" d="M425.58,-137.8C464.28,-137.8 506.62,-137.8 506.62,-137.8 506.62,-137.8 506.62,-168.78 506.62,-168.78"/>
<polygon fill="black" stroke="black" points="503.13,-168.78 506.62,-178.78 510.13,-168.78 503.13,-168.78"/>
</g>
<!-- BsTimelineComponent  -->
<g id="node7" class="node">
<title>BsTimelineComponent </title>
<polygon fill="#fb8072" stroke="black" points="438.16,-214.8 287.84,-214.8 287.84,-178.8 438.16,-178.8 438.16,-214.8"/>
<text text-anchor="middle" x="363" y="-192.6" font-family="Times,serif" font-size="14.00">BsTimelineComponent </text>
</g>
<!-- BsTimelineModule&#45;&gt;BsTimelineComponent  -->
<g id="edge6" class="edge">
<title>BsTimelineModule&#45;&gt;BsTimelineComponent </title>
<path fill="none" stroke="black" stroke-dasharray="5,2" d="M363,-149.91C363,-149.91 363,-168.79 363,-168.79"/>
<polygon fill="black" stroke="black" points="359.5,-168.79 363,-178.79 366.5,-168.79 359.5,-168.79"/>
</g>
<!-- TimelineLegendComponent  -->
<g id="node8" class="node">
<title>TimelineLegendComponent </title>
<polygon fill="#fb8072" stroke="black" points="269.86,-214.8 92.14,-214.8 92.14,-178.8 269.86,-178.8 269.86,-214.8"/>
<text text-anchor="middle" x="181" y="-192.6" font-family="Times,serif" font-size="14.00">TimelineLegendComponent </text>
</g>
<!-- BsTimelineModule&#45;&gt;TimelineLegendComponent  -->
<g id="edge7" class="edge">
<title>BsTimelineModule&#45;&gt;TimelineLegendComponent </title>
<path fill="none" stroke="black" stroke-dasharray="5,2" d="M300.37,-137.8C271.13,-137.8 242.68,-137.8 242.68,-137.8 242.68,-137.8 242.68,-168.78 242.68,-168.78"/>
<polygon fill="black" stroke="black" points="239.18,-168.78 242.68,-178.78 246.18,-168.78 239.18,-168.78"/>
</g>
<!-- BsHeatmapModule -->
<g id="node5" class="node">
<title>BsHeatmapModule</title>
<polygon fill="#8dd3c7" stroke="black" points="705.36,-84.8 702.36,-88.8 681.36,-88.8 678.36,-84.8 580.64,-84.8 580.64,-48.8 705.36,-48.8 705.36,-84.8"/>
<text text-anchor="middle" x="643" y="-62.6" font-family="Times,serif" font-size="14.00">BsHeatmapModule</text>
</g>
<!-- BsHeatmapModule&#45;&gt;BsTimelineModule -->
<g id="edge4" class="edge">
<title>BsHeatmapModule&#45;&gt;BsTimelineModule</title>
<path fill="none" stroke="black" d="M608.4,-84.82C608.4,-102.17 608.4,-125.8 608.4,-125.8 608.4,-125.8 435.56,-125.8 435.56,-125.8"/>
<polygon fill="black" stroke="black" points="435.56,-122.3 425.56,-125.8 435.56,-129.3 435.56,-122.3"/>
</g>
</g>
</svg>
