<?xml version="1.0" encoding="UTF-8" standalone="no"?>
<!DOCTYPE svg PUBLIC "-//W3C//DTD SVG 1.1//EN"
 "http://www.w3.org/Graphics/SVG/1.1/DTD/svg11.dtd">
<!-- Generated by graphviz version 2.47.3 (20210619.1520)
 -->
<!-- Title: dependencies Pages: 1 -->
<svg width="857pt" height="247pt"
 viewBox="0.00 0.00 857.00 246.80" xmlns="http://www.w3.org/2000/svg" xmlns:xlink="http://www.w3.org/1999/xlink">
<g id="graph0" class="graph" transform="scale(1 1) rotate(0) translate(4 242.8)">
<title>dependencies</title>
<polygon fill="white" stroke="transparent" points="-4,4 -4,-242.8 853,-242.8 853,4 -4,4"/>
<text text-anchor="middle" x="424.5" y="-8.2" font-family="sans-serif" font-size="14.00">dependencies</text>
<g id="clust1" class="cluster">
<title>cluster_BsTimelineModule</title>
<polygon fill="none" stroke="black" stroke-dasharray="1,5" points="8,-32.8 8,-230.8 841,-230.8 841,-32.8 8,-32.8"/>
</g>
<g id="clust2" class="cluster">
<title>cluster_BsTimelineModule_declarations</title>
<polygon fill="none" stroke="black" points="178,-40.8 178,-92.8 833,-92.8 833,-40.8 178,-40.8"/>
</g>
<g id="clust8" class="cluster">
<title>cluster_BsTimelineModule_exports</title>
<polygon fill="none" stroke="black" points="90,-170.8 90,-222.8 760,-222.8 760,-170.8 90,-170.8"/>
</g>
<g id="clust7" class="cluster">
<title>cluster_BsTimelineModule_imports</title>
<polygon fill="none" stroke="black" points="16,-40.8 16,-92.8 170,-92.8 170,-40.8 16,-40.8"/>
</g>
<!-- BsFacetDate -->
<g id="node1" class="node">
<title>BsFacetDate</title>
<polygon fill="#ffffb3" stroke="black" points="824.53,-84.8 737.47,-84.8 737.47,-48.8 824.53,-48.8 824.53,-84.8"/>
<text text-anchor="middle" x="781" y="-62.6" font-family="Times,serif" font-size="14.00">BsFacetDate</text>
</g>
<!-- BsTimelineModule -->
<g id="node5" class="node">
<title>BsTimelineModule</title>
<polygon fill="#8dd3c7" stroke="black" points="513.38,-149.8 510.38,-153.8 489.38,-153.8 486.38,-149.8 388.62,-149.8 388.62,-113.8 513.38,-113.8 513.38,-149.8"/>
<text text-anchor="middle" x="451" y="-127.6" font-family="Times,serif" font-size="14.00">BsTimelineModule</text>
</g>
<!-- BsFacetDate&#45;&gt;BsTimelineModule -->
<g id="edge1" class="edge">
<title>BsFacetDate&#45;&gt;BsTimelineModule</title>
<path fill="none" stroke="black" d="M744.38,-84.91C744.38,-104.14 744.38,-131.8 744.38,-131.8 744.38,-131.8 523.58,-131.8 523.58,-131.8"/>
<polygon fill="black" stroke="black" points="523.58,-128.3 513.58,-131.8 523.58,-135.3 523.58,-128.3"/>
</g>
<!-- BsFacetTimelineComponent -->
<g id="node2" class="node">
<title>BsFacetTimelineComponent</title>
<polygon fill="#ffffb3" stroke="black" points="719.47,-84.8 542.53,-84.8 542.53,-48.8 719.47,-48.8 719.47,-84.8"/>
<text text-anchor="middle" x="631" y="-62.6" font-family="Times,serif" font-size="14.00">BsFacetTimelineComponent</text>
</g>
<!-- BsFacetTimelineComponent&#45;&gt;BsTimelineModule -->
<g id="edge2" class="edge">
<title>BsFacetTimelineComponent&#45;&gt;BsTimelineModule</title>
<path fill="none" stroke="black" d="M592.38,-84.83C592.38,-101.2 592.38,-122.8 592.38,-122.8 592.38,-122.8 523.42,-122.8 523.42,-122.8"/>
<polygon fill="black" stroke="black" points="523.42,-119.3 513.42,-122.8 523.42,-126.3 523.42,-119.3"/>
</g>
<!-- BsTimelineComponent -->
<g id="node3" class="node">
<title>BsTimelineComponent</title>
<polygon fill="#ffffb3" stroke="black" points="524.16,-84.8 377.84,-84.8 377.84,-48.8 524.16,-48.8 524.16,-84.8"/>
<text text-anchor="middle" x="451" y="-62.6" font-family="Times,serif" font-size="14.00">BsTimelineComponent</text>
</g>
<!-- BsTimelineComponent&#45;&gt;BsTimelineModule -->
<g id="edge3" class="edge">
<title>BsTimelineComponent&#45;&gt;BsTimelineModule</title>
<path fill="none" stroke="black" d="M451,-84.91C451,-84.91 451,-103.79 451,-103.79"/>
<polygon fill="black" stroke="black" points="447.5,-103.79 451,-113.79 454.5,-103.79 447.5,-103.79"/>
</g>
<!-- TimelineLegendComponent -->
<g id="node4" class="node">
<title>TimelineLegendComponent</title>
<polygon fill="#ffffb3" stroke="black" points="359.86,-84.8 186.14,-84.8 186.14,-48.8 359.86,-48.8 359.86,-84.8"/>
<text text-anchor="middle" x="273" y="-62.6" font-family="Times,serif" font-size="14.00">TimelineLegendComponent</text>
</g>
<!-- TimelineLegendComponent&#45;&gt;BsTimelineModule -->
<g id="edge4" class="edge">
<title>TimelineLegendComponent&#45;&gt;BsTimelineModule</title>
<path fill="none" stroke="black" d="M326.93,-84.83C326.93,-101.2 326.93,-122.8 326.93,-122.8 326.93,-122.8 378.6,-122.8 378.6,-122.8"/>
<polygon fill="black" stroke="black" points="378.6,-126.3 388.6,-122.8 378.6,-119.3 378.6,-126.3"/>
</g>
<!-- BsFacetDate  -->
<g id="node7" class="node">
<title>BsFacetDate </title>
<polygon fill="#fb8072" stroke="black" points="751.52,-214.8 660.48,-214.8 660.48,-178.8 751.52,-178.8 751.52,-214.8"/>
<text text-anchor="middle" x="706" y="-192.6" font-family="Times,serif" font-size="14.00">BsFacetDate </text>
</g>
<!-- BsTimelineModule&#45;&gt;BsFacetDate  -->
<g id="edge6" class="edge">
<title>BsTimelineModule&#45;&gt;BsFacetDate </title>
<path fill="none" stroke="black" stroke-dasharray="5,2" d="M513.48,-140.8C584.29,-140.8 689.99,-140.8 689.99,-140.8 689.99,-140.8 689.99,-168.77 689.99,-168.77"/>
<polygon fill="black" stroke="black" points="686.49,-168.77 689.99,-178.77 693.49,-168.77 686.49,-168.77"/>
</g>
<!-- BsFacetTimelineComponent  -->
<g id="node8" class="node">
<title>BsFacetTimelineComponent </title>
<polygon fill="#fb8072" stroke="black" points="642.48,-214.8 461.52,-214.8 461.52,-178.8 642.48,-178.8 642.48,-214.8"/>
<text text-anchor="middle" x="552" y="-192.6" font-family="Times,serif" font-size="14.00">BsFacetTimelineComponent </text>
</g>
<!-- BsTimelineModule&#45;&gt;BsFacetTimelineComponent  -->
<g id="edge7" class="edge">
<title>BsTimelineModule&#45;&gt;BsFacetTimelineComponent </title>
<path fill="none" stroke="black" stroke-dasharray="5,2" d="M487.6,-149.91C487.6,-149.91 487.6,-168.79 487.6,-168.79"/>
<polygon fill="black" stroke="black" points="484.1,-168.79 487.6,-178.79 491.1,-168.79 484.1,-168.79"/>
</g>
<!-- BsTimelineComponent  -->
<g id="node9" class="node">
<title>BsTimelineComponent </title>
<polygon fill="#fb8072" stroke="black" points="444.16,-214.8 293.84,-214.8 293.84,-178.8 444.16,-178.8 444.16,-214.8"/>
<text text-anchor="middle" x="369" y="-192.6" font-family="Times,serif" font-size="14.00">BsTimelineComponent </text>
</g>
<!-- BsTimelineModule&#45;&gt;BsTimelineComponent  -->
<g id="edge8" class="edge">
<title>BsTimelineModule&#45;&gt;BsTimelineComponent </title>
<path fill="none" stroke="black" stroke-dasharray="5,2" d="M416.32,-149.91C416.32,-149.91 416.32,-168.79 416.32,-168.79"/>
<polygon fill="black" stroke="black" points="412.82,-168.79 416.32,-178.79 419.82,-168.79 412.82,-168.79"/>
</g>
<!-- TimelineLegendComponent  -->
<g id="node10" class="node">
<title>TimelineLegendComponent </title>
<polygon fill="#fb8072" stroke="black" points="275.86,-214.8 98.14,-214.8 98.14,-178.8 275.86,-178.8 275.86,-214.8"/>
<text text-anchor="middle" x="187" y="-192.6" font-family="Times,serif" font-size="14.00">TimelineLegendComponent </text>
</g>
<!-- BsTimelineModule&#45;&gt;TimelineLegendComponent  -->
<g id="edge9" class="edge">
<title>BsTimelineModule&#45;&gt;TimelineLegendComponent </title>
<path fill="none" stroke="black" stroke-dasharray="5,2" d="M388.51,-140.8C323.43,-140.8 230.88,-140.8 230.88,-140.8 230.88,-140.8 230.88,-168.77 230.88,-168.77"/>
<polygon fill="black" stroke="black" points="227.38,-168.77 230.88,-178.77 234.38,-168.77 227.38,-168.77"/>
</g>
<!-- BsTooltipComponent -->
<g id="node6" class="node">
<title>BsTooltipComponent</title>
<polygon fill="#8dd3c7" stroke="black" points="161.84,-84.8 158.84,-88.8 137.84,-88.8 134.84,-84.8 24.16,-84.8 24.16,-48.8 161.84,-48.8 161.84,-84.8"/>
<text text-anchor="middle" x="93" y="-62.6" font-family="Times,serif" font-size="14.00">BsTooltipComponent</text>
</g>
<!-- BsTooltipComponent&#45;&gt;BsTimelineModule -->
<g id="edge5" class="edge">
<title>BsTooltipComponent&#45;&gt;BsTimelineModule</title>
<path fill="none" stroke="black" d="M129.99,-84.91C129.99,-104.14 129.99,-131.8 129.99,-131.8 129.99,-131.8 378.34,-131.8 378.34,-131.8"/>
<polygon fill="black" stroke="black" points="378.34,-135.3 388.34,-131.8 378.34,-128.3 378.34,-135.3"/>
</g>
</g>
</svg>
