<?xml version="1.0" encoding="UTF-8" standalone="no"?>
<!DOCTYPE svg PUBLIC "-//W3C//DTD SVG 1.1//EN"
 "http://www.w3.org/Graphics/SVG/1.1/DTD/svg11.dtd">
<!-- Generated by graphviz version 2.40.1 (20161225.0304)
 -->
<!-- Title: dependencies Pages: 1 -->
<svg width="545pt" height="284pt"
 viewBox="0.00 0.00 545.00 284.00" xmlns="http://www.w3.org/2000/svg" xmlns:xlink="http://www.w3.org/1999/xlink">
<g id="graph0" class="graph" transform="scale(1 1) rotate(0) translate(4 280)">
<title>dependencies</title>
<polygon fill="#ffffff" stroke="transparent" points="-4,4 -4,-280 541,-280 541,4 -4,4"/>
<text text-anchor="start" x="247.5091" y="-42.4" font-family="sans-serif" font-weight="bold" font-size="14.00" fill="#000000">Legend</text>
<polygon fill="#ffffb3" stroke="transparent" points="34.5,-10 34.5,-30 54.5,-30 54.5,-10 34.5,-10"/>
<text text-anchor="start" x="58.129" y="-15.4" font-family="sans-serif" font-size="14.00" fill="#000000"> &#160;Declarations</text>
<polygon fill="#8dd3c7" stroke="transparent" points="147.5,-10 147.5,-30 167.5,-30 167.5,-10 147.5,-10"/>
<text text-anchor="start" x="171.2251" y="-15.4" font-family="sans-serif" font-size="14.00" fill="#000000"> &#160;Module</text>
<polygon fill="#80b1d3" stroke="transparent" points="233.5,-10 233.5,-30 253.5,-30 253.5,-10 233.5,-10"/>
<text text-anchor="start" x="257.2812" y="-15.4" font-family="sans-serif" font-size="14.00" fill="#000000"> &#160;Bootstrap</text>
<polygon fill="#fdb462" stroke="transparent" points="330.5,-10 330.5,-30 350.5,-30 350.5,-10 330.5,-10"/>
<text text-anchor="start" x="354.1732" y="-15.4" font-family="sans-serif" font-size="14.00" fill="#000000"> &#160;Providers</text>
<polygon fill="#fb8072" stroke="transparent" points="426.5,-10 426.5,-30 446.5,-30 446.5,-10 426.5,-10"/>
<text text-anchor="start" x="450.2258" y="-15.4" font-family="sans-serif" font-size="14.00" fill="#000000"> &#160;Exports</text>
<g id="clust1" class="cluster">
<title>cluster_BsTimelineModule</title>
<polygon fill="none" stroke="#000000" stroke-dasharray="1,5" points="8,-70 8,-268 529,-268 529,-70 8,-70"/>
</g>
<g id="clust2" class="cluster">
<title>cluster_BsTimelineModule_declarations</title>
<polygon fill="none" stroke="#000000" points="164,-78 164,-130 521,-130 521,-78 164,-78"/>
</g>
<g id="clust5" class="cluster">
<title>cluster_BsTimelineModule_imports</title>
<polygon fill="none" stroke="#000000" points="16,-78 16,-130 156,-130 156,-78 16,-78"/>
</g>
<g id="clust6" class="cluster">
<title>cluster_BsTimelineModule_exports</title>
<polygon fill="none" stroke="#000000" points="87,-208 87,-260 451,-260 451,-208 87,-208"/>
</g>
<!-- BsFacetTimelineComponent -->
<g id="node1" class="node">
<title>BsFacetTimelineComponent</title>
<polygon fill="#ffffb3" stroke="#000000" points="513.4748,-122 336.5252,-122 336.5252,-86 513.4748,-86 513.4748,-122"/>
<text text-anchor="middle" x="425" y="-99.8" font-family="Times,serif" font-size="14.00" fill="#000000">BsFacetTimelineComponent</text>
</g>
<!-- BsTimelineModule -->
<g id="node3" class="node">
<title>BsTimelineModule</title>
<polygon fill="#8dd3c7" stroke="#000000" points="307.3753,-187 304.3753,-191 283.3753,-191 280.3753,-187 182.6247,-187 182.6247,-151 307.3753,-151 307.3753,-187"/>
<text text-anchor="middle" x="245" y="-164.8" font-family="Times,serif" font-size="14.00" fill="#000000">BsTimelineModule</text>
</g>
<!-- BsFacetTimelineComponent&#45;&gt;BsTimelineModule -->
<g id="edge1" class="edge">
<title>BsFacetTimelineComponent&#45;&gt;BsTimelineModule</title>
<path fill="none" stroke="#000000" d="M389.875,-122.1061C389.875,-141.3391 389.875,-169 389.875,-169 389.875,-169 317.7017,-169 317.7017,-169"/>
<polygon fill="#000000" stroke="#000000" points="317.7017,-165.5001 307.7017,-169 317.7016,-172.5001 317.7017,-165.5001"/>
</g>
<!-- BsTimelineComponent -->
<g id="node2" class="node">
<title>BsTimelineComponent</title>
<polygon fill="#ffffb3" stroke="#000000" points="318.1582,-122 171.8418,-122 171.8418,-86 318.1582,-86 318.1582,-122"/>
<text text-anchor="middle" x="245" y="-99.8" font-family="Times,serif" font-size="14.00" fill="#000000">BsTimelineComponent</text>
</g>
<!-- BsTimelineComponent&#45;&gt;BsTimelineModule -->
<g id="edge2" class="edge">
<title>BsTimelineComponent&#45;&gt;BsTimelineModule</title>
<path fill="none" stroke="#000000" d="M245,-122.1061C245,-122.1061 245,-140.991 245,-140.991"/>
<polygon fill="#000000" stroke="#000000" points="241.5001,-140.9909 245,-150.991 248.5001,-140.991 241.5001,-140.9909"/>
</g>
<!-- BsFacetTimelineComponent  -->
<g id="node5" class="node">
<title>BsFacetTimelineComponent </title>
<polygon fill="#fb8072" stroke="#000000" points="443.4754,-252 262.5246,-252 262.5246,-216 443.4754,-216 443.4754,-252"/>
<text text-anchor="middle" x="353" y="-229.8" font-family="Times,serif" font-size="14.00" fill="#000000">BsFacetTimelineComponent </text>
</g>
<!-- BsTimelineModule&#45;&gt;BsFacetTimelineComponent  -->
<g id="edge4" class="edge">
<title>BsTimelineModule&#45;&gt;BsFacetTimelineComponent </title>
<path fill="none" stroke="#000000" stroke-dasharray="5,2" d="M285.1001,-187.1061C285.1001,-187.1061 285.1001,-205.991 285.1001,-205.991"/>
<polygon fill="#000000" stroke="#000000" points="281.6002,-205.9909 285.1001,-215.991 288.6002,-205.991 281.6002,-205.9909"/>
</g>
<!-- BsTimelineComponent  -->
<g id="node6" class="node">
<title>BsTimelineComponent </title>
<polygon fill="#fb8072" stroke="#000000" points="245.1579,-252 94.8421,-252 94.8421,-216 245.1579,-216 245.1579,-252"/>
<text text-anchor="middle" x="170" y="-229.8" font-family="Times,serif" font-size="14.00" fill="#000000">BsTimelineComponent </text>
</g>
<!-- BsTimelineModule&#45;&gt;BsTimelineComponent  -->
<g id="edge5" class="edge">
<title>BsTimelineModule&#45;&gt;BsTimelineComponent </title>
<path fill="none" stroke="#000000" stroke-dasharray="5,2" d="M213.8207,-187.1061C213.8207,-187.1061 213.8207,-205.991 213.8207,-205.991"/>
<polygon fill="#000000" stroke="#000000" points="210.3207,-205.9909 213.8207,-215.991 217.3207,-205.991 210.3207,-205.9909"/>
</g>
<!-- BsHeatmapModule -->
<g id="node4" class="node">
<title>BsHeatmapModule</title>
<polygon fill="#8dd3c7" stroke="#000000" points="148.3627,-122 145.3627,-126 124.3627,-126 121.3627,-122 23.6373,-122 23.6373,-86 148.3627,-86 148.3627,-122"/>
<text text-anchor="middle" x="86" y="-99.8" font-family="Times,serif" font-size="14.00" fill="#000000">BsHeatmapModule</text>
</g>
<!-- BsHeatmapModule&#45;&gt;BsTimelineModule -->
<g id="edge3" class="edge">
<title>BsHeatmapModule&#45;&gt;BsTimelineModule</title>
<path fill="none" stroke="#000000" d="M121.6762,-122.1061C121.6762,-141.3391 121.6762,-169 121.6762,-169 121.6762,-169 172.6155,-169 172.6155,-169"/>
<polygon fill="#000000" stroke="#000000" points="172.6155,-172.5001 182.6155,-169 172.6155,-165.5001 172.6155,-172.5001"/>
</g>
</g>
</svg>
