<?xml version="1.0" encoding="UTF-8" standalone="no"?>
<!DOCTYPE svg PUBLIC "-//W3C//DTD SVG 1.1//EN"
 "http://www.w3.org/Graphics/SVG/1.1/DTD/svg11.dtd">
<!-- Generated by graphviz version 2.47.3 (20210619.1520)
 -->
<!-- Title: dependencies Pages: 1 -->
<svg width="439pt" height="247pt"
 viewBox="0.00 0.00 439.00 246.80" xmlns="http://www.w3.org/2000/svg" xmlns:xlink="http://www.w3.org/1999/xlink">
<g id="graph0" class="graph" transform="scale(1 1) rotate(0) translate(4 242.8)">
<title>dependencies</title>
<polygon fill="white" stroke="transparent" points="-4,4 -4,-242.8 435,-242.8 435,4 -4,4"/>
<text text-anchor="middle" x="215.5" y="-8.2" font-family="sans-serif" font-size="14.00">dependencies</text>
<g id="clust1" class="cluster">
<title>cluster_BsFeedbackModule</title>
<polygon fill="none" stroke="black" stroke-dasharray="1,5" points="8,-32.8 8,-230.8 423,-230.8 423,-32.8 8,-32.8"/>
</g>
<g id="clust5" class="cluster">
<title>cluster_BsFeedbackModule_exports</title>
<polygon fill="none" stroke="black" points="153,-170.8 153,-222.8 289,-222.8 289,-170.8 153,-170.8"/>
</g>
<g id="clust4" class="cluster">
<title>cluster_BsFeedbackModule_imports</title>
<polygon fill="none" stroke="black" points="158,-40.8 158,-92.8 415,-92.8 415,-40.8 158,-40.8"/>
</g>
<g id="clust2" class="cluster">
<title>cluster_BsFeedbackModule_declarations</title>
<polygon fill="none" stroke="black" points="16,-40.8 16,-92.8 150,-92.8 150,-40.8 16,-40.8"/>
</g>
<!-- BsFeedbackMenu -->
<g id="node1" class="node">
<title>BsFeedbackMenu</title>
<polygon fill="#ffffb3" stroke="black" points="141.58,-84.8 24.42,-84.8 24.42,-48.8 141.58,-48.8 141.58,-84.8"/>
<text text-anchor="middle" x="83" y="-62.6" font-family="Times,serif" font-size="14.00">BsFeedbackMenu</text>
</g>
<!-- BsFeedbackModule -->
<g id="node2" class="node">
<title>BsFeedbackModule</title>
<polygon fill="#8dd3c7" stroke="black" points="284.97,-149.8 281.97,-153.8 260.97,-153.8 257.97,-149.8 157.03,-149.8 157.03,-113.8 284.97,-113.8 284.97,-149.8"/>
<text text-anchor="middle" x="221" y="-127.6" font-family="Times,serif" font-size="14.00">BsFeedbackModule</text>
</g>
<!-- BsFeedbackMenu&#45;&gt;BsFeedbackModule -->
<g id="edge1" class="edge">
<title>BsFeedbackMenu&#45;&gt;BsFeedbackModule</title>
<path fill="none" stroke="black" d="M141.94,-66.8C153.06,-66.8 161.29,-66.8 161.29,-66.8 161.29,-66.8 161.29,-103.69 161.29,-103.69"/>
<polygon fill="black" stroke="black" points="157.79,-103.69 161.29,-113.69 164.79,-103.69 157.79,-103.69"/>
</g>
<!-- BsFeedbackMenu  -->
<g id="node5" class="node">
<title>BsFeedbackMenu </title>
<polygon fill="#fb8072" stroke="black" points="281.08,-214.8 160.92,-214.8 160.92,-178.8 281.08,-178.8 281.08,-214.8"/>
<text text-anchor="middle" x="221" y="-192.6" font-family="Times,serif" font-size="14.00">BsFeedbackMenu </text>
</g>
<!-- BsFeedbackModule&#45;&gt;BsFeedbackMenu  -->
<g id="edge4" class="edge">
<title>BsFeedbackModule&#45;&gt;BsFeedbackMenu </title>
<path fill="none" stroke="black" stroke-dasharray="5,2" d="M221,-149.91C221,-149.91 221,-168.79 221,-168.79"/>
<polygon fill="black" stroke="black" points="217.5,-168.79 221,-178.79 224.5,-168.79 217.5,-168.79"/>
</g>
<!-- BsActionModule -->
<g id="node3" class="node">
<title>BsActionModule</title>
<polygon fill="#8dd3c7" stroke="black" points="407.43,-84.8 404.43,-88.8 383.43,-88.8 380.43,-84.8 294.57,-84.8 294.57,-48.8 407.43,-48.8 407.43,-84.8"/>
<text text-anchor="middle" x="351" y="-62.6" font-family="Times,serif" font-size="14.00">BsActionModule</text>
</g>
<!-- BsActionModule&#45;&gt;BsFeedbackModule -->
<g id="edge2" class="edge">
<title>BsActionModule&#45;&gt;BsFeedbackModule</title>
<path fill="none" stroke="black" d="M294.6,-66.8C286.43,-66.8 280.71,-66.8 280.71,-66.8 280.71,-66.8 280.71,-103.69 280.71,-103.69"/>
<polygon fill="black" stroke="black" points="277.21,-103.69 280.71,-113.69 284.21,-103.69 277.21,-103.69"/>
</g>
<!-- BsModalModule -->
<g id="node4" class="node">
<title>BsModalModule</title>
<polygon fill="#8dd3c7" stroke="black" points="276.38,-84.8 273.38,-88.8 252.38,-88.8 249.38,-84.8 165.62,-84.8 165.62,-48.8 276.38,-48.8 276.38,-84.8"/>
<text text-anchor="middle" x="221" y="-62.6" font-family="Times,serif" font-size="14.00">BsModalModule</text>
</g>
<!-- BsModalModule&#45;&gt;BsFeedbackModule -->
<g id="edge3" class="edge">
<title>BsModalModule&#45;&gt;BsFeedbackModule</title>
<path fill="none" stroke="black" d="M221,-84.91C221,-84.91 221,-103.79 221,-103.79"/>
<polygon fill="black" stroke="black" points="217.5,-103.79 221,-113.79 224.5,-103.79 217.5,-103.79"/>
</g>
</g>
</svg>
