<?xml version="1.0" encoding="UTF-8" standalone="no"?>
<!DOCTYPE svg PUBLIC "-//W3C//DTD SVG 1.1//EN"
 "http://www.w3.org/Graphics/SVG/1.1/DTD/svg11.dtd">
<!-- Generated by graphviz version 2.40.1 (20161225.0304)
 -->
<!-- Title: dependencies Pages: 1 -->
<svg width="571pt" height="284pt"
 viewBox="0.00 0.00 571.00 284.00" xmlns="http://www.w3.org/2000/svg" xmlns:xlink="http://www.w3.org/1999/xlink">
<g id="graph0" class="graph" transform="scale(1 1) rotate(0) translate(4 280)">
<title>dependencies</title>
<polygon fill="#ffffff" stroke="transparent" points="-4,4 -4,-280 567,-280 567,4 -4,4"/>
<text text-anchor="start" x="260.5091" y="-42.4" font-family="sans-serif" font-weight="bold" font-size="14.00" fill="#000000">Legend</text>
<polygon fill="#ffffb3" stroke="transparent" points="47.5,-10 47.5,-30 67.5,-30 67.5,-10 47.5,-10"/>
<text text-anchor="start" x="71.129" y="-15.4" font-family="sans-serif" font-size="14.00" fill="#000000"> &#160;Declarations</text>
<polygon fill="#8dd3c7" stroke="transparent" points="160.5,-10 160.5,-30 180.5,-30 180.5,-10 160.5,-10"/>
<text text-anchor="start" x="184.2251" y="-15.4" font-family="sans-serif" font-size="14.00" fill="#000000"> &#160;Module</text>
<polygon fill="#80b1d3" stroke="transparent" points="246.5,-10 246.5,-30 266.5,-30 266.5,-10 246.5,-10"/>
<text text-anchor="start" x="270.2812" y="-15.4" font-family="sans-serif" font-size="14.00" fill="#000000"> &#160;Bootstrap</text>
<polygon fill="#fdb462" stroke="transparent" points="343.5,-10 343.5,-30 363.5,-30 363.5,-10 343.5,-10"/>
<text text-anchor="start" x="367.1732" y="-15.4" font-family="sans-serif" font-size="14.00" fill="#000000"> &#160;Providers</text>
<polygon fill="#fb8072" stroke="transparent" points="439.5,-10 439.5,-30 459.5,-30 459.5,-10 439.5,-10"/>
<text text-anchor="start" x="463.2258" y="-15.4" font-family="sans-serif" font-size="14.00" fill="#000000"> &#160;Exports</text>
<g id="clust1" class="cluster">
<title>cluster_BsFeedbackModule</title>
<polygon fill="none" stroke="#000000" stroke-dasharray="1,5" points="8,-70 8,-268 555,-268 555,-70 8,-70"/>
</g>
<g id="clust2" class="cluster">
<title>cluster_BsFeedbackModule_declarations</title>
<polygon fill="none" stroke="#000000" points="281,-78 281,-130 547,-130 547,-78 281,-78"/>
</g>
<g id="clust5" class="cluster">
<title>cluster_BsFeedbackModule_imports</title>
<polygon fill="none" stroke="#000000" points="16,-78 16,-130 273,-130 273,-78 16,-78"/>
</g>
<g id="clust6" class="cluster">
<title>cluster_BsFeedbackModule_exports</title>
<polygon fill="none" stroke="#000000" points="210,-208 210,-260 346,-260 346,-208 210,-208"/>
</g>
<!-- BsFeedbackForm -->
<g id="node1" class="node">
<title>BsFeedbackForm</title>
<polygon fill="#ffffb3" stroke="#000000" points="539.2563,-122 424.7437,-122 424.7437,-86 539.2563,-86 539.2563,-122"/>
<text text-anchor="middle" x="482" y="-99.8" font-family="Times,serif" font-size="14.00" fill="#000000">BsFeedbackForm</text>
</g>
<!-- BsFeedbackModule -->
<g id="node3" class="node">
<title>BsFeedbackModule</title>
<polygon fill="#8dd3c7" stroke="#000000" points="341.972,-187 338.972,-191 317.972,-191 314.972,-187 214.028,-187 214.028,-151 341.972,-151 341.972,-187"/>
<text text-anchor="middle" x="278" y="-164.8" font-family="Times,serif" font-size="14.00" fill="#000000">BsFeedbackModule</text>
</g>
<!-- BsFeedbackForm&#45;&gt;BsFeedbackModule -->
<g id="edge1" class="edge">
<title>BsFeedbackForm&#45;&gt;BsFeedbackModule</title>
<path fill="none" stroke="#000000" d="M482,-122.1061C482,-141.3391 482,-169 482,-169 482,-169 351.9872,-169 351.9872,-169"/>
<polygon fill="#000000" stroke="#000000" points="351.9872,-165.5001 341.9872,-169 351.9871,-172.5001 351.9872,-165.5001"/>
</g>
<!-- BsFeedbackMenu -->
<g id="node2" class="node">
<title>BsFeedbackMenu</title>
<polygon fill="#ffffb3" stroke="#000000" points="406.5814,-122 289.4186,-122 289.4186,-86 406.5814,-86 406.5814,-122"/>
<text text-anchor="middle" x="348" y="-99.8" font-family="Times,serif" font-size="14.00" fill="#000000">BsFeedbackMenu</text>
</g>
<!-- BsFeedbackMenu&#45;&gt;BsFeedbackModule -->
<g id="edge2" class="edge">
<title>BsFeedbackMenu&#45;&gt;BsFeedbackModule</title>
<path fill="none" stroke="#000000" d="M315.7227,-122.1061C315.7227,-122.1061 315.7227,-140.991 315.7227,-140.991"/>
<polygon fill="#000000" stroke="#000000" points="312.2227,-140.9909 315.7227,-150.991 319.2227,-140.991 312.2227,-140.9909"/>
</g>
<!-- BsFeedbackMenu  -->
<g id="node6" class="node">
<title>BsFeedbackMenu </title>
<polygon fill="#fb8072" stroke="#000000" points="338.0821,-252 217.9179,-252 217.9179,-216 338.0821,-216 338.0821,-252"/>
<text text-anchor="middle" x="278" y="-229.8" font-family="Times,serif" font-size="14.00" fill="#000000">BsFeedbackMenu </text>
</g>
<!-- BsFeedbackModule&#45;&gt;BsFeedbackMenu  -->
<g id="edge5" class="edge">
<title>BsFeedbackModule&#45;&gt;BsFeedbackMenu </title>
<path fill="none" stroke="#000000" stroke-dasharray="5,2" d="M278,-187.1061C278,-187.1061 278,-205.991 278,-205.991"/>
<polygon fill="#000000" stroke="#000000" points="274.5001,-205.9909 278,-215.991 281.5001,-205.991 274.5001,-205.9909"/>
</g>
<!-- BsActionModule -->
<g id="node4" class="node">
<title>BsActionModule</title>
<polygon fill="#8dd3c7" stroke="#000000" points="265.4342,-122 262.4342,-126 241.4342,-126 238.4342,-122 152.5658,-122 152.5658,-86 265.4342,-86 265.4342,-122"/>
<text text-anchor="middle" x="209" y="-99.8" font-family="Times,serif" font-size="14.00" fill="#000000">BsActionModule</text>
</g>
<!-- BsActionModule&#45;&gt;BsFeedbackModule -->
<g id="edge3" class="edge">
<title>BsActionModule&#45;&gt;BsFeedbackModule</title>
<path fill="none" stroke="#000000" d="M239.6154,-122.1061C239.6154,-122.1061 239.6154,-140.991 239.6154,-140.991"/>
<polygon fill="#000000" stroke="#000000" points="236.1154,-140.9909 239.6154,-150.991 243.1154,-140.991 236.1154,-140.9909"/>
</g>
<!-- BsModalModule -->
<g id="node5" class="node">
<title>BsModalModule</title>
<polygon fill="#8dd3c7" stroke="#000000" points="134.3809,-122 131.3809,-126 110.3809,-126 107.3809,-122 23.6191,-122 23.6191,-86 134.3809,-86 134.3809,-122"/>
<text text-anchor="middle" x="79" y="-99.8" font-family="Times,serif" font-size="14.00" fill="#000000">BsModalModule</text>
</g>
<!-- BsModalModule&#45;&gt;BsFeedbackModule -->
<g id="edge4" class="edge">
<title>BsModalModule&#45;&gt;BsFeedbackModule</title>
<path fill="none" stroke="#000000" d="M79,-122.1061C79,-141.3391 79,-169 79,-169 79,-169 203.9398,-169 203.9398,-169"/>
<polygon fill="#000000" stroke="#000000" points="203.9398,-172.5001 213.9398,-169 203.9397,-165.5001 203.9398,-172.5001"/>
</g>
</g>
</svg>
