<?xml version="1.0" encoding="UTF-8" standalone="no"?>
<!DOCTYPE svg PUBLIC "-//W3C//DTD SVG 1.1//EN"
 "http://www.w3.org/Graphics/SVG/1.1/DTD/svg11.dtd">
<!-- Generated by graphviz version 2.40.1 (20161225.0304)
 -->
<!-- Title: dependencies Pages: 1 -->
<svg width="504pt" height="284pt"
 viewBox="0.00 0.00 504.00 284.00" xmlns="http://www.w3.org/2000/svg" xmlns:xlink="http://www.w3.org/1999/xlink">
<g id="graph0" class="graph" transform="scale(1 1) rotate(0) translate(4 280)">
<title>dependencies</title>
<polygon fill="#ffffff" stroke="transparent" points="-4,4 -4,-280 500,-280 500,4 -4,4"/>
<text text-anchor="start" x="227.0091" y="-42.4" font-family="sans-serif" font-weight="bold" font-size="14.00" fill="#000000">Legend</text>
<polygon fill="#ffffb3" stroke="transparent" points="14,-10 14,-30 34,-30 34,-10 14,-10"/>
<text text-anchor="start" x="37.629" y="-15.4" font-family="sans-serif" font-size="14.00" fill="#000000"> &#160;Declarations</text>
<polygon fill="#8dd3c7" stroke="transparent" points="127,-10 127,-30 147,-30 147,-10 127,-10"/>
<text text-anchor="start" x="150.7251" y="-15.4" font-family="sans-serif" font-size="14.00" fill="#000000"> &#160;Module</text>
<polygon fill="#80b1d3" stroke="transparent" points="213,-10 213,-30 233,-30 233,-10 213,-10"/>
<text text-anchor="start" x="236.7812" y="-15.4" font-family="sans-serif" font-size="14.00" fill="#000000"> &#160;Bootstrap</text>
<polygon fill="#fdb462" stroke="transparent" points="310,-10 310,-30 330,-30 330,-10 310,-10"/>
<text text-anchor="start" x="333.6732" y="-15.4" font-family="sans-serif" font-size="14.00" fill="#000000"> &#160;Providers</text>
<polygon fill="#fb8072" stroke="transparent" points="406,-10 406,-30 426,-30 426,-10 406,-10"/>
<text text-anchor="start" x="429.7258" y="-15.4" font-family="sans-serif" font-size="14.00" fill="#000000"> &#160;Exports</text>
<g id="clust1" class="cluster">
<title>cluster_BsFeedbackModule</title>
<polygon fill="none" stroke="#000000" stroke-dasharray="1,5" points="40.5,-70 40.5,-268 455.5,-268 455.5,-70 40.5,-70"/>
</g>
<g id="clust2" class="cluster">
<title>cluster_BsFeedbackModule_declarations</title>
<polygon fill="none" stroke="#000000" points="313.5,-78 313.5,-130 447.5,-130 447.5,-78 313.5,-78"/>
</g>
<g id="clust4" class="cluster">
<title>cluster_BsFeedbackModule_imports</title>
<polygon fill="none" stroke="#000000" points="48.5,-78 48.5,-130 305.5,-130 305.5,-78 48.5,-78"/>
</g>
<g id="clust5" class="cluster">
<title>cluster_BsFeedbackModule_exports</title>
<polygon fill="none" stroke="#000000" points="173.5,-208 173.5,-260 309.5,-260 309.5,-208 173.5,-208"/>
</g>
<!-- BsFeedbackMenu -->
<g id="node1" class="node">
<title>BsFeedbackMenu</title>
<polygon fill="#ffffb3" stroke="#000000" points="439.0814,-122 321.9186,-122 321.9186,-86 439.0814,-86 439.0814,-122"/>
<text text-anchor="middle" x="380.5" y="-99.8" font-family="Times,serif" font-size="14.00" fill="#000000">BsFeedbackMenu</text>
</g>
<!-- BsFeedbackModule -->
<g id="node2" class="node">
<title>BsFeedbackModule</title>
<polygon fill="#8dd3c7" stroke="#000000" points="305.472,-187 302.472,-191 281.472,-191 278.472,-187 177.528,-187 177.528,-151 305.472,-151 305.472,-187"/>
<text text-anchor="middle" x="241.5" y="-164.8" font-family="Times,serif" font-size="14.00" fill="#000000">BsFeedbackModule</text>
</g>
<!-- BsFeedbackMenu&#45;&gt;BsFeedbackModule -->
<g id="edge1" class="edge">
<title>BsFeedbackMenu&#45;&gt;BsFeedbackModule</title>
<path fill="none" stroke="#000000" d="M321.9197,-104C310.2995,-104 301.6014,-104 301.6014,-104 301.6014,-104 301.6014,-140.8939 301.6014,-140.8939"/>
<polygon fill="#000000" stroke="#000000" points="298.1014,-140.8938 301.6014,-150.8939 305.1014,-140.8939 298.1014,-140.8938"/>
</g>
<!-- BsFeedbackMenu  -->
<g id="node5" class="node">
<title>BsFeedbackMenu </title>
<polygon fill="#fb8072" stroke="#000000" points="301.5821,-252 181.4179,-252 181.4179,-216 301.5821,-216 301.5821,-252"/>
<text text-anchor="middle" x="241.5" y="-229.8" font-family="Times,serif" font-size="14.00" fill="#000000">BsFeedbackMenu </text>
</g>
<!-- BsFeedbackModule&#45;&gt;BsFeedbackMenu  -->
<g id="edge4" class="edge">
<title>BsFeedbackModule&#45;&gt;BsFeedbackMenu </title>
<path fill="none" stroke="#000000" stroke-dasharray="5,2" d="M241.5,-187.1061C241.5,-187.1061 241.5,-205.991 241.5,-205.991"/>
<polygon fill="#000000" stroke="#000000" points="238.0001,-205.9909 241.5,-215.991 245.0001,-205.991 238.0001,-205.9909"/>
</g>
<!-- BsActionModule -->
<g id="node3" class="node">
<title>BsActionModule</title>
<polygon fill="#8dd3c7" stroke="#000000" points="297.9342,-122 294.9342,-126 273.9342,-126 270.9342,-122 185.0658,-122 185.0658,-86 297.9342,-86 297.9342,-122"/>
<text text-anchor="middle" x="241.5" y="-99.8" font-family="Times,serif" font-size="14.00" fill="#000000">BsActionModule</text>
</g>
<!-- BsActionModule&#45;&gt;BsFeedbackModule -->
<g id="edge2" class="edge">
<title>BsActionModule&#45;&gt;BsFeedbackModule</title>
<path fill="none" stroke="#000000" d="M241.5,-122.1061C241.5,-122.1061 241.5,-140.991 241.5,-140.991"/>
<polygon fill="#000000" stroke="#000000" points="238.0001,-140.9909 241.5,-150.991 245.0001,-140.991 238.0001,-140.9909"/>
</g>
<!-- BsModalModule -->
<g id="node4" class="node">
<title>BsModalModule</title>
<polygon fill="#8dd3c7" stroke="#000000" points="166.8809,-122 163.8809,-126 142.8809,-126 139.8809,-122 56.1191,-122 56.1191,-86 166.8809,-86 166.8809,-122"/>
<text text-anchor="middle" x="111.5" y="-99.8" font-family="Times,serif" font-size="14.00" fill="#000000">BsModalModule</text>
</g>
<!-- BsModalModule&#45;&gt;BsFeedbackModule -->
<g id="edge3" class="edge">
<title>BsModalModule&#45;&gt;BsFeedbackModule</title>
<path fill="none" stroke="#000000" d="M166.9156,-104C175.3992,-104 181.3987,-104 181.3987,-104 181.3987,-104 181.3987,-140.8939 181.3987,-140.8939"/>
<polygon fill="#000000" stroke="#000000" points="177.8987,-140.8938 181.3987,-150.8939 184.8987,-140.8939 177.8987,-140.8938"/>
</g>
</g>
</svg>
