<?xml version="1.0" encoding="UTF-8" standalone="no"?>
<!DOCTYPE svg PUBLIC "-//W3C//DTD SVG 1.1//EN"
 "http://www.w3.org/Graphics/SVG/1.1/DTD/svg11.dtd">
<!-- Generated by graphviz version 2.47.3 (20210619.1520)
 -->
<!-- Title: dependencies Pages: 1 -->
<svg width="439pt" height="247pt"
 viewBox="0.00 0.00 439.00 246.80" xmlns="http://www.w3.org/2000/svg" xmlns:xlink="http://www.w3.org/1999/xlink">
<g id="graph0" class="graph" transform="scale(1 1) rotate(0) translate(4 242.8)">
<title>dependencies</title>
<polygon fill="white" stroke="transparent" points="-4,4 -4,-242.8 435,-242.8 435,4 -4,4"/>
<text text-anchor="middle" x="215.5" y="-8.2" font-family="sans-serif" font-size="14.00">dependencies</text>
<g id="clust1" class="cluster">
<title>cluster_BsFeedbackModule</title>
<polygon fill="none" stroke="black" stroke-dasharray="1,5" points="8,-32.8 8,-230.8 423,-230.8 423,-32.8 8,-32.8"/>
</g>
<g id="clust2" class="cluster">
<title>cluster_BsFeedbackModule_declarations</title>
<polygon fill="none" stroke="black" points="281,-40.8 281,-92.8 415,-92.8 415,-40.8 281,-40.8"/>
</g>
<g id="clust4" class="cluster">
<title>cluster_BsFeedbackModule_imports</title>
<polygon fill="none" stroke="black" points="16,-40.8 16,-92.8 273,-92.8 273,-40.8 16,-40.8"/>
</g>
<g id="clust5" class="cluster">
<title>cluster_BsFeedbackModule_exports</title>
<polygon fill="none" stroke="black" points="141,-170.8 141,-222.8 277,-222.8 277,-170.8 141,-170.8"/>
</g>
<!-- BsFeedbackMenu -->
<g id="node1" class="node">
<title>BsFeedbackMenu</title>
<polygon fill="#ffffb3" stroke="black" points="406.58,-84.8 289.42,-84.8 289.42,-48.8 406.58,-48.8 406.58,-84.8"/>
<text text-anchor="middle" x="348" y="-62.6" font-family="Times,serif" font-size="14.00">BsFeedbackMenu</text>
</g>
<!-- BsFeedbackModule -->
<g id="node2" class="node">
<title>BsFeedbackModule</title>
<polygon fill="#8dd3c7" stroke="black" points="272.97,-149.8 269.97,-153.8 248.97,-153.8 245.97,-149.8 145.03,-149.8 145.03,-113.8 272.97,-113.8 272.97,-149.8"/>
<text text-anchor="middle" x="209" y="-127.6" font-family="Times,serif" font-size="14.00">BsFeedbackModule</text>
</g>
<!-- BsFeedbackMenu&#45;&gt;BsFeedbackModule -->
<g id="edge1" class="edge">
<title>BsFeedbackMenu&#45;&gt;BsFeedbackModule</title>
<path fill="none" stroke="black" d="M289.42,-66.8C277.8,-66.8 269.1,-66.8 269.1,-66.8 269.1,-66.8 269.1,-103.69 269.1,-103.69"/>
<polygon fill="black" stroke="black" points="265.6,-103.69 269.1,-113.69 272.6,-103.69 265.6,-103.69"/>
</g>
<!-- BsFeedbackMenu  -->
<g id="node5" class="node">
<title>BsFeedbackMenu </title>
<polygon fill="#fb8072" stroke="black" points="269.08,-214.8 148.92,-214.8 148.92,-178.8 269.08,-178.8 269.08,-214.8"/>
<text text-anchor="middle" x="209" y="-192.6" font-family="Times,serif" font-size="14.00">BsFeedbackMenu </text>
</g>
<!-- BsFeedbackModule&#45;&gt;BsFeedbackMenu  -->
<g id="edge4" class="edge">
<title>BsFeedbackModule&#45;&gt;BsFeedbackMenu </title>
<path fill="none" stroke="black" stroke-dasharray="5,2" d="M209,-149.91C209,-149.91 209,-168.79 209,-168.79"/>
<polygon fill="black" stroke="black" points="205.5,-168.79 209,-178.79 212.5,-168.79 205.5,-168.79"/>
</g>
<!-- BsActionModule -->
<g id="node3" class="node">
<title>BsActionModule</title>
<polygon fill="#8dd3c7" stroke="black" points="265.43,-84.8 262.43,-88.8 241.43,-88.8 238.43,-84.8 152.57,-84.8 152.57,-48.8 265.43,-48.8 265.43,-84.8"/>
<text text-anchor="middle" x="209" y="-62.6" font-family="Times,serif" font-size="14.00">BsActionModule</text>
</g>
<!-- BsActionModule&#45;&gt;BsFeedbackModule -->
<g id="edge2" class="edge">
<title>BsActionModule&#45;&gt;BsFeedbackModule</title>
<path fill="none" stroke="black" d="M209,-84.91C209,-84.91 209,-103.79 209,-103.79"/>
<polygon fill="black" stroke="black" points="205.5,-103.79 209,-113.79 212.5,-103.79 205.5,-103.79"/>
</g>
<!-- BsModalModule -->
<g id="node4" class="node">
<title>BsModalModule</title>
<polygon fill="#8dd3c7" stroke="black" points="134.38,-84.8 131.38,-88.8 110.38,-88.8 107.38,-84.8 23.62,-84.8 23.62,-48.8 134.38,-48.8 134.38,-84.8"/>
<text text-anchor="middle" x="79" y="-62.6" font-family="Times,serif" font-size="14.00">BsModalModule</text>
</g>
<!-- BsModalModule&#45;&gt;BsFeedbackModule -->
<g id="edge3" class="edge">
<title>BsModalModule&#45;&gt;BsFeedbackModule</title>
<path fill="none" stroke="black" d="M134.42,-66.8C142.9,-66.8 148.9,-66.8 148.9,-66.8 148.9,-66.8 148.9,-103.69 148.9,-103.69"/>
<polygon fill="black" stroke="black" points="145.4,-103.69 148.9,-113.69 152.4,-103.69 145.4,-103.69"/>
</g>
</g>
</svg>
