<?xml version="1.0" encoding="UTF-8" standalone="no"?>
<!DOCTYPE svg PUBLIC "-//W3C//DTD SVG 1.1//EN"
 "http://www.w3.org/Graphics/SVG/1.1/DTD/svg11.dtd">
<!-- Generated by graphviz version 2.40.1 (20161225.0304)
 -->
<!-- Title: dependencies Pages: 1 -->
<svg width="504pt" height="284pt"
 viewBox="0.00 0.00 504.00 284.00" xmlns="http://www.w3.org/2000/svg" xmlns:xlink="http://www.w3.org/1999/xlink">
<g id="graph0" class="graph" transform="scale(1 1) rotate(0) translate(4 280)">
<title>dependencies</title>
<polygon fill="#ffffff" stroke="transparent" points="-4,4 -4,-280 500,-280 500,4 -4,4"/>
<text text-anchor="start" x="227.0091" y="-42.4" font-family="sans-serif" font-weight="bold" font-size="14.00" fill="#000000">Legend</text>
<polygon fill="#ffffb3" stroke="transparent" points="14,-10 14,-30 34,-30 34,-10 14,-10"/>
<text text-anchor="start" x="37.629" y="-15.4" font-family="sans-serif" font-size="14.00" fill="#000000"> &#160;Declarations</text>
<polygon fill="#8dd3c7" stroke="transparent" points="127,-10 127,-30 147,-30 147,-10 127,-10"/>
<text text-anchor="start" x="150.7251" y="-15.4" font-family="sans-serif" font-size="14.00" fill="#000000"> &#160;Module</text>
<polygon fill="#80b1d3" stroke="transparent" points="213,-10 213,-30 233,-30 233,-10 213,-10"/>
<text text-anchor="start" x="236.7812" y="-15.4" font-family="sans-serif" font-size="14.00" fill="#000000"> &#160;Bootstrap</text>
<polygon fill="#fdb462" stroke="transparent" points="310,-10 310,-30 330,-30 330,-10 310,-10"/>
<text text-anchor="start" x="333.6732" y="-15.4" font-family="sans-serif" font-size="14.00" fill="#000000"> &#160;Providers</text>
<polygon fill="#fb8072" stroke="transparent" points="406,-10 406,-30 426,-30 426,-10 406,-10"/>
<text text-anchor="start" x="429.7258" y="-15.4" font-family="sans-serif" font-size="14.00" fill="#000000"> &#160;Exports</text>
<g id="clust1" class="cluster">
<title>cluster_NetworkModule</title>
<polygon fill="none" stroke="#000000" stroke-dasharray="1,5" points="109,-70 109,-268 387,-268 387,-70 109,-70"/>
</g>
<g id="clust2" class="cluster">
<title>cluster_NetworkModule_declarations</title>
<polygon fill="none" stroke="#000000" points="227,-78 227,-130 379,-130 379,-78 227,-78"/>
</g>
<g id="clust4" class="cluster">
<title>cluster_NetworkModule_imports</title>
<polygon fill="none" stroke="#000000" points="117,-78 117,-130 219,-130 219,-78 117,-78"/>
</g>
<g id="clust5" class="cluster">
<title>cluster_NetworkModule_exports</title>
<polygon fill="none" stroke="#000000" points="170,-208 170,-260 326,-260 326,-208 170,-208"/>
</g>
<!-- ResultsNetworkView -->
<g id="node1" class="node">
<title>ResultsNetworkView</title>
<polygon fill="#ffffb3" stroke="#000000" points="371.0198,-122 234.9802,-122 234.9802,-86 371.0198,-86 371.0198,-122"/>
<text text-anchor="middle" x="303" y="-99.8" font-family="Times,serif" font-size="14.00" fill="#000000">ResultsNetworkView</text>
</g>
<!-- NetworkModule -->
<g id="node2" class="node">
<title>NetworkModule</title>
<polygon fill="#8dd3c7" stroke="#000000" points="302.0298,-187 299.0298,-191 278.0298,-191 275.0298,-187 193.9702,-187 193.9702,-151 302.0298,-151 302.0298,-187"/>
<text text-anchor="middle" x="248" y="-164.8" font-family="Times,serif" font-size="14.00" fill="#000000">NetworkModule</text>
</g>
<!-- ResultsNetworkView&#45;&gt;NetworkModule -->
<g id="edge1" class="edge">
<title>ResultsNetworkView&#45;&gt;NetworkModule</title>
<path fill="none" stroke="#000000" d="M268.5025,-122.1061C268.5025,-122.1061 268.5025,-140.991 268.5025,-140.991"/>
<polygon fill="#000000" stroke="#000000" points="265.0025,-140.9909 268.5025,-150.991 272.0025,-140.991 265.0025,-140.9909"/>
</g>
<!-- ResultsNetworkView  -->
<g id="node4" class="node">
<title>ResultsNetworkView </title>
<polygon fill="#fb8072" stroke="#000000" points="318.019,-252 177.981,-252 177.981,-216 318.019,-216 318.019,-252"/>
<text text-anchor="middle" x="248" y="-229.8" font-family="Times,serif" font-size="14.00" fill="#000000">ResultsNetworkView </text>
</g>
<!-- NetworkModule&#45;&gt;ResultsNetworkView  -->
<g id="edge3" class="edge">
<title>NetworkModule&#45;&gt;ResultsNetworkView </title>
<path fill="none" stroke="#000000" stroke-dasharray="5,2" d="M248,-187.1061C248,-187.1061 248,-205.991 248,-205.991"/>
<polygon fill="#000000" stroke="#000000" points="244.5001,-205.9909 248,-215.991 251.5001,-205.991 244.5001,-205.9909"/>
</g>
<!-- UtilsModule -->
<g id="node3" class="node">
<title>UtilsModule</title>
<polygon fill="#8dd3c7" stroke="#000000" points="211.2731,-122 208.2731,-126 187.2731,-126 184.2731,-122 124.7269,-122 124.7269,-86 211.2731,-86 211.2731,-122"/>
<text text-anchor="middle" x="168" y="-99.8" font-family="Times,serif" font-size="14.00" fill="#000000">UtilsModule</text>
</g>
<!-- UtilsModule&#45;&gt;NetworkModule -->
<g id="edge2" class="edge">
<title>UtilsModule&#45;&gt;NetworkModule</title>
<path fill="none" stroke="#000000" d="M202.561,-122.1061C202.561,-122.1061 202.561,-140.991 202.561,-140.991"/>
<polygon fill="#000000" stroke="#000000" points="199.0611,-140.9909 202.561,-150.991 206.0611,-140.991 199.0611,-140.9909"/>
</g>
</g>
</svg>
