<?xml version="1.0" encoding="UTF-8" standalone="no"?>
<!DOCTYPE svg PUBLIC "-//W3C//DTD SVG 1.1//EN"
 "http://www.w3.org/Graphics/SVG/1.1/DTD/svg11.dtd">
<!-- Generated by graphviz version 2.40.1 (20161225.0304)
 -->
<!-- Title: dependencies Pages: 1 -->
<svg width="935pt" height="284pt"
 viewBox="0.00 0.00 935.00 284.00" xmlns="http://www.w3.org/2000/svg" xmlns:xlink="http://www.w3.org/1999/xlink">
<g id="graph0" class="graph" transform="scale(1 1) rotate(0) translate(4 280)">
<title>dependencies</title>
<polygon fill="#ffffff" stroke="transparent" points="-4,4 -4,-280 931,-280 931,4 -4,4"/>
<text text-anchor="start" x="442.5091" y="-42.4" font-family="sans-serif" font-weight="bold" font-size="14.00" fill="#000000">Legend</text>
<polygon fill="#ffffb3" stroke="transparent" points="229.5,-10 229.5,-30 249.5,-30 249.5,-10 229.5,-10"/>
<text text-anchor="start" x="253.129" y="-15.4" font-family="sans-serif" font-size="14.00" fill="#000000"> &#160;Declarations</text>
<polygon fill="#8dd3c7" stroke="transparent" points="342.5,-10 342.5,-30 362.5,-30 362.5,-10 342.5,-10"/>
<text text-anchor="start" x="366.2251" y="-15.4" font-family="sans-serif" font-size="14.00" fill="#000000"> &#160;Module</text>
<polygon fill="#80b1d3" stroke="transparent" points="428.5,-10 428.5,-30 448.5,-30 448.5,-10 428.5,-10"/>
<text text-anchor="start" x="452.2812" y="-15.4" font-family="sans-serif" font-size="14.00" fill="#000000"> &#160;Bootstrap</text>
<polygon fill="#fdb462" stroke="transparent" points="525.5,-10 525.5,-30 545.5,-30 545.5,-10 525.5,-10"/>
<text text-anchor="start" x="549.1732" y="-15.4" font-family="sans-serif" font-size="14.00" fill="#000000"> &#160;Providers</text>
<polygon fill="#fb8072" stroke="transparent" points="621.5,-10 621.5,-30 641.5,-30 641.5,-10 621.5,-10"/>
<text text-anchor="start" x="645.2258" y="-15.4" font-family="sans-serif" font-size="14.00" fill="#000000"> &#160;Exports</text>
<g id="clust1" class="cluster">
<title>cluster_NetworkModule</title>
<polygon fill="none" stroke="#000000" stroke-dasharray="1,5" points="8,-70 8,-268 919,-268 919,-70 8,-70"/>
</g>
<g id="clust2" class="cluster">
<title>cluster_NetworkModule_declarations</title>
<polygon fill="none" stroke="#000000" points="507,-78 507,-130 911,-130 911,-78 507,-78"/>
</g>
<g id="clust6" class="cluster">
<title>cluster_NetworkModule_imports</title>
<polygon fill="none" stroke="#000000" points="16,-78 16,-130 499,-130 499,-78 16,-78"/>
</g>
<g id="clust7" class="cluster">
<title>cluster_NetworkModule_exports</title>
<polygon fill="none" stroke="#000000" points="218,-208 218,-260 632,-260 632,-208 218,-208"/>
</g>
<!-- BsEdgeInfoCard -->
<g id="node1" class="node">
<title>BsEdgeInfoCard</title>
<polygon fill="#ffffb3" stroke="#000000" points="903.0814,-122 792.9186,-122 792.9186,-86 903.0814,-86 903.0814,-122"/>
<text text-anchor="middle" x="848" y="-99.8" font-family="Times,serif" font-size="14.00" fill="#000000">BsEdgeInfoCard</text>
</g>
<!-- NetworkModule -->
<g id="node4" class="node">
<title>NetworkModule</title>
<polygon fill="#8dd3c7" stroke="#000000" points="489.0298,-187 486.0298,-191 465.0298,-191 462.0298,-187 380.9702,-187 380.9702,-151 489.0298,-151 489.0298,-187"/>
<text text-anchor="middle" x="435" y="-164.8" font-family="Times,serif" font-size="14.00" fill="#000000">NetworkModule</text>
</g>
<!-- BsEdgeInfoCard&#45;&gt;NetworkModule -->
<g id="edge1" class="edge">
<title>BsEdgeInfoCard&#45;&gt;NetworkModule</title>
<path fill="none" stroke="#000000" d="M848,-122.1289C848,-142.5724 848,-173 848,-173 848,-173 499.4172,-173 499.4172,-173"/>
<polygon fill="#000000" stroke="#000000" points="499.4173,-169.5001 489.4172,-173 499.4172,-176.5001 499.4173,-169.5001"/>
</g>
<!-- BsNodeInfoCard -->
<g id="node2" class="node">
<title>BsNodeInfoCard</title>
<polygon fill="#ffffb3" stroke="#000000" points="774.636,-122 663.364,-122 663.364,-86 774.636,-86 774.636,-122"/>
<text text-anchor="middle" x="719" y="-99.8" font-family="Times,serif" font-size="14.00" fill="#000000">BsNodeInfoCard</text>
</g>
<!-- BsNodeInfoCard&#45;&gt;NetworkModule -->
<g id="edge2" class="edge">
<title>BsNodeInfoCard&#45;&gt;NetworkModule</title>
<path fill="none" stroke="#000000" d="M719,-122.2667C719,-140.5552 719,-166 719,-166 719,-166 499.0867,-166 499.0867,-166"/>
<polygon fill="#000000" stroke="#000000" points="499.0867,-162.5001 489.0867,-166 499.0867,-169.5001 499.0867,-162.5001"/>
</g>
<!-- NetworkComponent -->
<g id="node3" class="node">
<title>NetworkComponent</title>
<polygon fill="#ffffb3" stroke="#000000" points="645.3118,-122 514.6882,-122 514.6882,-86 645.3118,-86 645.3118,-122"/>
<text text-anchor="middle" x="580" y="-99.8" font-family="Times,serif" font-size="14.00" fill="#000000">NetworkComponent</text>
</g>
<!-- NetworkComponent&#45;&gt;NetworkModule -->
<g id="edge3" class="edge">
<title>NetworkComponent&#45;&gt;NetworkModule</title>
<path fill="none" stroke="#000000" d="M551.1598,-122.0091C551.1598,-138.0494 551.1598,-159 551.1598,-159 551.1598,-159 499.3388,-159 499.3388,-159"/>
<polygon fill="#000000" stroke="#000000" points="499.3388,-155.5001 489.3388,-159 499.3387,-162.5001 499.3388,-155.5001"/>
</g>
<!-- BsEdgeInfoCard  -->
<g id="node9" class="node">
<title>BsEdgeInfoCard </title>
<polygon fill="#fb8072" stroke="#000000" points="623.5822,-252 510.4178,-252 510.4178,-216 623.5822,-216 623.5822,-252"/>
<text text-anchor="middle" x="567" y="-229.8" font-family="Times,serif" font-size="14.00" fill="#000000">BsEdgeInfoCard </text>
</g>
<!-- NetworkModule&#45;&gt;BsEdgeInfoCard  -->
<g id="edge8" class="edge">
<title>NetworkModule&#45;&gt;BsEdgeInfoCard </title>
<path fill="none" stroke="#000000" stroke-dasharray="5,2" d="M489.1864,-180C533.0121,-180 587.4752,-180 587.4752,-180 587.4752,-180 587.4752,-205.7181 587.4752,-205.7181"/>
<polygon fill="#000000" stroke="#000000" points="583.9753,-205.718 587.4752,-215.7181 590.9753,-205.7181 583.9753,-205.718"/>
</g>
<!-- BsNodeInfoCard  -->
<g id="node10" class="node">
<title>BsNodeInfoCard </title>
<polygon fill="#fb8072" stroke="#000000" points="492.6355,-252 377.3645,-252 377.3645,-216 492.6355,-216 492.6355,-252"/>
<text text-anchor="middle" x="435" y="-229.8" font-family="Times,serif" font-size="14.00" fill="#000000">BsNodeInfoCard </text>
</g>
<!-- NetworkModule&#45;&gt;BsNodeInfoCard  -->
<g id="edge9" class="edge">
<title>NetworkModule&#45;&gt;BsNodeInfoCard </title>
<path fill="none" stroke="#000000" stroke-dasharray="5,2" d="M435,-187.1061C435,-187.1061 435,-205.991 435,-205.991"/>
<polygon fill="#000000" stroke="#000000" points="431.5001,-205.9909 435,-215.991 438.5001,-205.991 431.5001,-205.9909"/>
</g>
<!-- NetworkComponent  -->
<g id="node11" class="node">
<title>NetworkComponent </title>
<polygon fill="#fb8072" stroke="#000000" points="359.8115,-252 226.1885,-252 226.1885,-216 359.8115,-216 359.8115,-252"/>
<text text-anchor="middle" x="293" y="-229.8" font-family="Times,serif" font-size="14.00" fill="#000000">NetworkComponent </text>
</g>
<!-- NetworkModule&#45;&gt;NetworkComponent  -->
<g id="edge10" class="edge">
<title>NetworkModule&#45;&gt;NetworkComponent </title>
<path fill="none" stroke="#000000" stroke-dasharray="5,2" d="M380.7521,-180C339.7267,-180 290.4192,-180 290.4192,-180 290.4192,-180 290.4192,-205.7181 290.4192,-205.7181"/>
<polygon fill="#000000" stroke="#000000" points="286.9193,-205.718 290.4192,-215.7181 293.9193,-205.7181 286.9193,-205.718"/>
</g>
<!-- BsActionModule -->
<g id="node5" class="node">
<title>BsActionModule</title>
<polygon fill="#8dd3c7" stroke="#000000" points="491.4342,-122 488.4342,-126 467.4342,-126 464.4342,-122 378.5658,-122 378.5658,-86 491.4342,-86 491.4342,-122"/>
<text text-anchor="middle" x="435" y="-99.8" font-family="Times,serif" font-size="14.00" fill="#000000">BsActionModule</text>
</g>
<!-- BsActionModule&#45;&gt;NetworkModule -->
<g id="edge4" class="edge">
<title>BsActionModule&#45;&gt;NetworkModule</title>
<path fill="none" stroke="#000000" d="M435,-122.1061C435,-122.1061 435,-140.991 435,-140.991"/>
<polygon fill="#000000" stroke="#000000" points="431.5001,-140.9909 435,-150.991 438.5001,-140.991 431.5001,-140.9909"/>
</g>
<!-- BsFacetModule -->
<g id="node6" class="node">
<title>BsFacetModule</title>
<polygon fill="#8dd3c7" stroke="#000000" points="360.1486,-122 357.1486,-126 336.1486,-126 333.1486,-122 255.8514,-122 255.8514,-86 360.1486,-86 360.1486,-122"/>
<text text-anchor="middle" x="308" y="-99.8" font-family="Times,serif" font-size="14.00" fill="#000000">BsFacetModule</text>
</g>
<!-- BsFacetModule&#45;&gt;NetworkModule -->
<g id="edge5" class="edge">
<title>BsFacetModule&#45;&gt;NetworkModule</title>
<path fill="none" stroke="#000000" d="M325.1625,-122.0091C325.1625,-138.0494 325.1625,-159 325.1625,-159 325.1625,-159 370.7248,-159 370.7248,-159"/>
<polygon fill="#000000" stroke="#000000" points="370.7248,-162.5001 380.7248,-159 370.7248,-155.5001 370.7248,-162.5001"/>
</g>
<!-- CollapseModule -->
<g id="node7" class="node">
<title>CollapseModule</title>
<polygon fill="#8dd3c7" stroke="#000000" points="237.0424,-122 234.0424,-126 213.0424,-126 210.0424,-122 128.9576,-122 128.9576,-86 237.0424,-86 237.0424,-122"/>
<text text-anchor="middle" x="183" y="-99.8" font-family="Times,serif" font-size="14.00" fill="#000000">CollapseModule</text>
</g>
<!-- CollapseModule&#45;&gt;NetworkModule -->
<g id="edge6" class="edge">
<title>CollapseModule&#45;&gt;NetworkModule</title>
<path fill="none" stroke="#000000" d="M231.6825,-122.2667C231.6825,-140.5552 231.6825,-166 231.6825,-166 231.6825,-166 370.7817,-166 370.7817,-166"/>
<polygon fill="#000000" stroke="#000000" points="370.7818,-169.5001 380.7817,-166 370.7817,-162.5001 370.7818,-169.5001"/>
</g>
<!-- UtilsModule -->
<g id="node8" class="node">
<title>UtilsModule</title>
<polygon fill="#8dd3c7" stroke="#000000" points="110.2731,-122 107.2731,-126 86.2731,-126 83.2731,-122 23.7269,-122 23.7269,-86 110.2731,-86 110.2731,-122"/>
<text text-anchor="middle" x="67" y="-99.8" font-family="Times,serif" font-size="14.00" fill="#000000">UtilsModule</text>
</g>
<!-- UtilsModule&#45;&gt;NetworkModule -->
<g id="edge7" class="edge">
<title>UtilsModule&#45;&gt;NetworkModule</title>
<path fill="none" stroke="#000000" d="M67,-122.1289C67,-142.5724 67,-173 67,-173 67,-173 370.7003,-173 370.7003,-173"/>
<polygon fill="#000000" stroke="#000000" points="370.7004,-176.5001 380.7003,-173 370.7003,-169.5001 370.7004,-176.5001"/>
</g>
</g>
</svg>
