<?xml version="1.0" encoding="UTF-8" standalone="no"?>
<!DOCTYPE svg PUBLIC "-//W3C//DTD SVG 1.1//EN"
 "http://www.w3.org/Graphics/SVG/1.1/DTD/svg11.dtd">
<!-- Generated by graphviz version 2.47.3 (20210619.1520)
 -->
<!-- Title: dependencies Pages: 1 -->
<svg width="386pt" height="247pt"
 viewBox="0.00 0.00 386.00 246.80" xmlns="http://www.w3.org/2000/svg" xmlns:xlink="http://www.w3.org/1999/xlink">
<g id="graph0" class="graph" transform="scale(1 1) rotate(0) translate(4 242.8)">
<title>dependencies</title>
<polygon fill="white" stroke="transparent" points="-4,4 -4,-242.8 382,-242.8 382,4 -4,4"/>
<text text-anchor="middle" x="189" y="-8.2" font-family="sans-serif" font-size="14.00">dependencies</text>
<g id="clust1" class="cluster">
<title>cluster_IntlModule</title>
<polygon fill="none" stroke="black" stroke-dasharray="1,5" points="8,-32.8 8,-230.8 370,-230.8 370,-32.8 8,-32.8"/>
</g>
<g id="clust4" class="cluster">
<title>cluster_IntlModule_imports</title>
<polygon fill="none" stroke="black" points="260,-40.8 260,-92.8 362,-92.8 362,-40.8 260,-40.8"/>
</g>
<g id="clust5" class="cluster">
<title>cluster_IntlModule_exports</title>
<polygon fill="none" stroke="black" points="144,-170.8 144,-222.8 254,-222.8 254,-170.8 144,-170.8"/>
</g>
<g id="clust2" class="cluster">
<title>cluster_IntlModule_declarations</title>
<polygon fill="none" stroke="black" points="146,-40.8 146,-92.8 252,-92.8 252,-40.8 146,-40.8"/>
</g>
<g id="clust7" class="cluster">
<title>cluster_IntlModule_providers</title>
<polygon fill="none" stroke="black" points="16,-40.8 16,-92.8 138,-92.8 138,-40.8 16,-40.8"/>
</g>
<!-- MessagePipe -->
<g id="node1" class="node">
<title>MessagePipe</title>
<polygon fill="#ffffb3" stroke="black" points="243.87,-84.8 154.13,-84.8 154.13,-48.8 243.87,-48.8 243.87,-84.8"/>
<text text-anchor="middle" x="199" y="-62.6" font-family="Times,serif" font-size="14.00">MessagePipe</text>
</g>
<!-- IntlModule -->
<g id="node2" class="node">
<title>IntlModule</title>
<polygon fill="#8dd3c7" stroke="black" points="238.49,-149.8 235.49,-153.8 214.49,-153.8 211.49,-149.8 159.51,-149.8 159.51,-113.8 238.49,-113.8 238.49,-149.8"/>
<text text-anchor="middle" x="199" y="-127.6" font-family="Times,serif" font-size="14.00">IntlModule</text>
</g>
<!-- MessagePipe&#45;&gt;IntlModule -->
<g id="edge1" class="edge">
<title>MessagePipe&#45;&gt;IntlModule</title>
<path fill="none" stroke="black" d="M199,-84.91C199,-84.91 199,-103.79 199,-103.79"/>
<polygon fill="black" stroke="black" points="195.5,-103.79 199,-113.79 202.5,-103.79 195.5,-103.79"/>
</g>
<!-- MessagePipe  -->
<g id="node4" class="node">
<title>MessagePipe </title>
<polygon fill="#fb8072" stroke="black" points="245.87,-214.8 152.13,-214.8 152.13,-178.8 245.87,-178.8 245.87,-214.8"/>
<text text-anchor="middle" x="199" y="-192.6" font-family="Times,serif" font-size="14.00">MessagePipe </text>
</g>
<!-- IntlModule&#45;&gt;MessagePipe  -->
<g id="edge3" class="edge">
<title>IntlModule&#45;&gt;MessagePipe </title>
<path fill="none" stroke="black" stroke-dasharray="5,2" d="M199,-149.91C199,-149.91 199,-168.79 199,-168.79"/>
<polygon fill="black" stroke="black" points="195.5,-168.79 199,-178.79 202.5,-168.79 195.5,-168.79"/>
</g>
<!-- BaseModule -->
<g id="node3" class="node">
<title>BaseModule</title>
<polygon fill="#8dd3c7" stroke="black" points="354.26,-84.8 351.26,-88.8 330.26,-88.8 327.26,-84.8 267.74,-84.8 267.74,-48.8 354.26,-48.8 354.26,-84.8"/>
<text text-anchor="middle" x="311" y="-62.6" font-family="Times,serif" font-size="14.00">BaseModule</text>
</g>
<!-- BaseModule&#45;&gt;IntlModule -->
<g id="edge2" class="edge">
<title>BaseModule&#45;&gt;IntlModule</title>
<path fill="none" stroke="black" d="M311,-84.91C311,-104.14 311,-131.8 311,-131.8 311,-131.8 248.8,-131.8 248.8,-131.8"/>
<polygon fill="black" stroke="black" points="248.8,-128.3 238.8,-131.8 248.8,-135.3 248.8,-128.3"/>
</g>
<!-- IntlService -->
<g id="node5" class="node">
<title>IntlService</title>
<ellipse fill="#fdb462" stroke="black" cx="77" cy="-66.8" rx="53.31" ry="18"/>
<text text-anchor="middle" x="77" y="-62.6" font-family="Times,serif" font-size="14.00">IntlService</text>
</g>
<!-- IntlService&#45;&gt;IntlModule -->
<g id="edge4" class="edge">
<title>IntlService&#45;&gt;IntlModule</title>
<path fill="none" stroke="black" d="M77,-84.91C77,-104.14 77,-131.8 77,-131.8 77,-131.8 149.39,-131.8 149.39,-131.8"/>
<polygon fill="black" stroke="black" points="149.39,-135.3 159.39,-131.8 149.39,-128.3 149.39,-135.3"/>
</g>
</g>
</svg>
