<?xml version="1.0" encoding="UTF-8" standalone="no"?>
<!DOCTYPE svg PUBLIC "-//W3C//DTD SVG 1.1//EN"
 "http://www.w3.org/Graphics/SVG/1.1/DTD/svg11.dtd">
<!-- Generated by graphviz version 2.40.1 (20161225.0304)
 -->
<!-- Title: dependencies Pages: 1 -->
<svg width="504pt" height="284pt"
 viewBox="0.00 0.00 504.00 284.00" xmlns="http://www.w3.org/2000/svg" xmlns:xlink="http://www.w3.org/1999/xlink">
<g id="graph0" class="graph" transform="scale(1 1) rotate(0) translate(4 280)">
<title>dependencies</title>
<polygon fill="#ffffff" stroke="transparent" points="-4,4 -4,-280 500,-280 500,4 -4,4"/>
<text text-anchor="start" x="227.0091" y="-42.4" font-family="sans-serif" font-weight="bold" font-size="14.00" fill="#000000">Legend</text>
<polygon fill="#ffffb3" stroke="transparent" points="14,-10 14,-30 34,-30 34,-10 14,-10"/>
<text text-anchor="start" x="37.629" y="-15.4" font-family="sans-serif" font-size="14.00" fill="#000000"> &#160;Declarations</text>
<polygon fill="#8dd3c7" stroke="transparent" points="127,-10 127,-30 147,-30 147,-10 127,-10"/>
<text text-anchor="start" x="150.7251" y="-15.4" font-family="sans-serif" font-size="14.00" fill="#000000"> &#160;Module</text>
<polygon fill="#80b1d3" stroke="transparent" points="213,-10 213,-30 233,-30 233,-10 213,-10"/>
<text text-anchor="start" x="236.7812" y="-15.4" font-family="sans-serif" font-size="14.00" fill="#000000"> &#160;Bootstrap</text>
<polygon fill="#fdb462" stroke="transparent" points="310,-10 310,-30 330,-30 330,-10 310,-10"/>
<text text-anchor="start" x="333.6732" y="-15.4" font-family="sans-serif" font-size="14.00" fill="#000000"> &#160;Providers</text>
<polygon fill="#fb8072" stroke="transparent" points="406,-10 406,-30 426,-30 426,-10 406,-10"/>
<text text-anchor="start" x="429.7258" y="-15.4" font-family="sans-serif" font-size="14.00" fill="#000000"> &#160;Exports</text>
<g id="clust1" class="cluster">
<title>cluster_IntlModule</title>
<polygon fill="none" stroke="#000000" stroke-dasharray="1,5" points="67,-70 67,-268 429,-268 429,-70 67,-70"/>
</g>
<g id="clust2" class="cluster">
<title>cluster_IntlModule_declarations</title>
<polygon fill="none" stroke="#000000" points="315,-78 315,-130 421,-130 421,-78 315,-78"/>
</g>
<g id="clust4" class="cluster">
<title>cluster_IntlModule_imports</title>
<polygon fill="none" stroke="#000000" points="205,-78 205,-130 307,-130 307,-78 205,-78"/>
</g>
<g id="clust5" class="cluster">
<title>cluster_IntlModule_exports</title>
<polygon fill="none" stroke="#000000" points="201,-208 201,-260 311,-260 311,-208 201,-208"/>
</g>
<g id="clust7" class="cluster">
<title>cluster_IntlModule_providers</title>
<polygon fill="none" stroke="#000000" points="75,-78 75,-130 197,-130 197,-78 75,-78"/>
</g>
<!-- MessagePipe -->
<g id="node1" class="node">
<title>MessagePipe</title>
<polygon fill="#ffffb3" stroke="#000000" points="412.8655,-122 323.1345,-122 323.1345,-86 412.8655,-86 412.8655,-122"/>
<text text-anchor="middle" x="368" y="-99.8" font-family="Times,serif" font-size="14.00" fill="#000000">MessagePipe</text>
</g>
<!-- IntlModule -->
<g id="node2" class="node">
<title>IntlModule</title>
<polygon fill="#8dd3c7" stroke="#000000" points="295.4916,-187 292.4916,-191 271.4916,-191 268.4916,-187 216.5084,-187 216.5084,-151 295.4916,-151 295.4916,-187"/>
<text text-anchor="middle" x="256" y="-164.8" font-family="Times,serif" font-size="14.00" fill="#000000">IntlModule</text>
</g>
<!-- MessagePipe&#45;&gt;IntlModule -->
<g id="edge1" class="edge">
<title>MessagePipe&#45;&gt;IntlModule</title>
<path fill="none" stroke="#000000" d="M368,-122.1061C368,-141.3391 368,-169 368,-169 368,-169 305.8024,-169 305.8024,-169"/>
<polygon fill="#000000" stroke="#000000" points="305.8024,-165.5001 295.8024,-169 305.8023,-172.5001 305.8024,-165.5001"/>
</g>
<!-- MessagePipe  -->
<g id="node4" class="node">
<title>MessagePipe </title>
<polygon fill="#fb8072" stroke="#000000" points="302.8661,-252 209.1339,-252 209.1339,-216 302.8661,-216 302.8661,-252"/>
<text text-anchor="middle" x="256" y="-229.8" font-family="Times,serif" font-size="14.00" fill="#000000">MessagePipe </text>
</g>
<!-- IntlModule&#45;&gt;MessagePipe  -->
<g id="edge3" class="edge">
<title>IntlModule&#45;&gt;MessagePipe </title>
<path fill="none" stroke="#000000" stroke-dasharray="5,2" d="M256,-187.1061C256,-187.1061 256,-205.991 256,-205.991"/>
<polygon fill="#000000" stroke="#000000" points="252.5001,-205.9909 256,-215.991 259.5001,-205.991 252.5001,-205.9909"/>
</g>
<!-- BaseModule -->
<g id="node3" class="node">
<title>BaseModule</title>
<polygon fill="#8dd3c7" stroke="#000000" points="299.2605,-122 296.2605,-126 275.2605,-126 272.2605,-122 212.7395,-122 212.7395,-86 299.2605,-86 299.2605,-122"/>
<text text-anchor="middle" x="256" y="-99.8" font-family="Times,serif" font-size="14.00" fill="#000000">BaseModule</text>
</g>
<!-- BaseModule&#45;&gt;IntlModule -->
<g id="edge2" class="edge">
<title>BaseModule&#45;&gt;IntlModule</title>
<path fill="none" stroke="#000000" d="M256,-122.1061C256,-122.1061 256,-140.991 256,-140.991"/>
<polygon fill="#000000" stroke="#000000" points="252.5001,-140.9909 256,-150.991 259.5001,-140.991 252.5001,-140.9909"/>
</g>
<!-- IntlService -->
<g id="node5" class="node">
<title>IntlService</title>
<ellipse fill="#fdb462" stroke="#000000" cx="136" cy="-104" rx="53.3052" ry="18"/>
<text text-anchor="middle" x="136" y="-99.8" font-family="Times,serif" font-size="14.00" fill="#000000">IntlService</text>
</g>
<!-- IntlService&#45;&gt;IntlModule -->
<g id="edge4" class="edge">
<title>IntlService&#45;&gt;IntlModule</title>
<path fill="none" stroke="#000000" d="M136,-122.1061C136,-141.3391 136,-169 136,-169 136,-169 206.3749,-169 206.3749,-169"/>
<polygon fill="#000000" stroke="#000000" points="206.375,-172.5001 216.3749,-169 206.3749,-165.5001 206.375,-172.5001"/>
</g>
</g>
</svg>
