<?xml version="1.0" encoding="UTF-8" standalone="no"?>
<!DOCTYPE svg PUBLIC "-//W3C//DTD SVG 1.1//EN"
 "http://www.w3.org/Graphics/SVG/1.1/DTD/svg11.dtd">
<!-- Generated by graphviz version 2.47.3 (20210619.1520)
 -->
<!-- Title: dependencies Pages: 1 -->
<svg width="256pt" height="247pt"
 viewBox="0.00 0.00 256.00 246.80" xmlns="http://www.w3.org/2000/svg" xmlns:xlink="http://www.w3.org/1999/xlink">
<g id="graph0" class="graph" transform="scale(1 1) rotate(0) translate(4 242.8)">
<title>dependencies</title>
<polygon fill="white" stroke="transparent" points="-4,4 -4,-242.8 252,-242.8 252,4 -4,4"/>
<text text-anchor="middle" x="124" y="-8.2" font-family="sans-serif" font-size="14.00">dependencies</text>
<g id="clust1" class="cluster">
<title>cluster_IntlModule</title>
<polygon fill="none" stroke="black" stroke-dasharray="1,5" points="8,-32.8 8,-230.8 240,-230.8 240,-32.8 8,-32.8"/>
</g>
<g id="clust4" class="cluster">
<title>cluster_IntlModule_imports</title>
<polygon fill="none" stroke="black" points="130,-40.8 130,-92.8 232,-92.8 232,-40.8 130,-40.8"/>
</g>
<g id="clust2" class="cluster">
<title>cluster_IntlModule_declarations</title>
<polygon fill="none" stroke="black" points="16,-40.8 16,-92.8 122,-92.8 122,-40.8 16,-40.8"/>
</g>
<g id="clust5" class="cluster">
<title>cluster_IntlModule_exports</title>
<polygon fill="none" stroke="black" points="69,-170.8 69,-222.8 179,-222.8 179,-170.8 69,-170.8"/>
</g>
<!-- MessagePipe -->
<g id="node1" class="node">
<title>MessagePipe</title>
<polygon fill="#ffffb3" stroke="black" points="113.87,-84.8 24.13,-84.8 24.13,-48.8 113.87,-48.8 113.87,-84.8"/>
<text text-anchor="middle" x="69" y="-62.6" font-family="Times,serif" font-size="14.00">MessagePipe</text>
</g>
<!-- IntlModule -->
<g id="node2" class="node">
<title>IntlModule</title>
<polygon fill="#8dd3c7" stroke="black" points="163.49,-149.8 160.49,-153.8 139.49,-153.8 136.49,-149.8 84.51,-149.8 84.51,-113.8 163.49,-113.8 163.49,-149.8"/>
<text text-anchor="middle" x="124" y="-127.6" font-family="Times,serif" font-size="14.00">IntlModule</text>
</g>
<!-- MessagePipe&#45;&gt;IntlModule -->
<g id="edge1" class="edge">
<title>MessagePipe&#45;&gt;IntlModule</title>
<path fill="none" stroke="black" d="M99.22,-84.91C99.22,-84.91 99.22,-103.79 99.22,-103.79"/>
<polygon fill="black" stroke="black" points="95.72,-103.79 99.22,-113.79 102.72,-103.79 95.72,-103.79"/>
</g>
<!-- MessagePipe  -->
<g id="node4" class="node">
<title>MessagePipe </title>
<polygon fill="#fb8072" stroke="black" points="170.87,-214.8 77.13,-214.8 77.13,-178.8 170.87,-178.8 170.87,-214.8"/>
<text text-anchor="middle" x="124" y="-192.6" font-family="Times,serif" font-size="14.00">MessagePipe </text>
</g>
<!-- IntlModule&#45;&gt;MessagePipe  -->
<g id="edge3" class="edge">
<title>IntlModule&#45;&gt;MessagePipe </title>
<path fill="none" stroke="black" stroke-dasharray="5,2" d="M124,-149.91C124,-149.91 124,-168.79 124,-168.79"/>
<polygon fill="black" stroke="black" points="120.5,-168.79 124,-178.79 127.5,-168.79 120.5,-168.79"/>
</g>
<!-- BaseModule -->
<g id="node3" class="node">
<title>BaseModule</title>
<polygon fill="#8dd3c7" stroke="black" points="224.26,-84.8 221.26,-88.8 200.26,-88.8 197.26,-84.8 137.74,-84.8 137.74,-48.8 224.26,-48.8 224.26,-84.8"/>
<text text-anchor="middle" x="181" y="-62.6" font-family="Times,serif" font-size="14.00">BaseModule</text>
</g>
<!-- BaseModule&#45;&gt;IntlModule -->
<g id="edge2" class="edge">
<title>BaseModule&#45;&gt;IntlModule</title>
<path fill="none" stroke="black" d="M150.56,-84.91C150.56,-84.91 150.56,-103.79 150.56,-103.79"/>
<polygon fill="black" stroke="black" points="147.06,-103.79 150.56,-113.79 154.06,-103.79 147.06,-103.79"/>
</g>
</g>
</svg>
