<?xml version="1.0" encoding="UTF-8" standalone="no"?>
<!DOCTYPE svg PUBLIC "-//W3C//DTD SVG 1.1//EN"
 "http://www.w3.org/Graphics/SVG/1.1/DTD/svg11.dtd">
<!-- Generated by graphviz version 2.47.3 (20210619.1520)
 -->
<!-- Title: dependencies Pages: 1 -->
<svg width="386pt" height="247pt"
 viewBox="0.00 0.00 386.00 246.80" xmlns="http://www.w3.org/2000/svg" xmlns:xlink="http://www.w3.org/1999/xlink">
<g id="graph0" class="graph" transform="scale(1 1) rotate(0) translate(4 242.8)">
<title>dependencies</title>
<polygon fill="white" stroke="transparent" points="-4,4 -4,-242.8 382,-242.8 382,4 -4,4"/>
<text text-anchor="middle" x="189" y="-8.2" font-family="sans-serif" font-size="14.00">dependencies</text>
<g id="clust1" class="cluster">
<title>cluster_IntlModule</title>
<polygon fill="none" stroke="black" stroke-dasharray="1,5" points="8,-32.8 8,-230.8 370,-230.8 370,-32.8 8,-32.8"/>
</g>
<g id="clust2" class="cluster">
<title>cluster_IntlModule_declarations</title>
<polygon fill="none" stroke="black" points="256,-40.8 256,-92.8 362,-92.8 362,-40.8 256,-40.8"/>
</g>
<g id="clust4" class="cluster">
<title>cluster_IntlModule_imports</title>
<polygon fill="none" stroke="black" points="146,-40.8 146,-92.8 248,-92.8 248,-40.8 146,-40.8"/>
</g>
<g id="clust5" class="cluster">
<title>cluster_IntlModule_exports</title>
<polygon fill="none" stroke="black" points="142,-170.8 142,-222.8 252,-222.8 252,-170.8 142,-170.8"/>
</g>
<g id="clust7" class="cluster">
<title>cluster_IntlModule_providers</title>
<polygon fill="none" stroke="black" points="16,-40.8 16,-92.8 138,-92.8 138,-40.8 16,-40.8"/>
</g>
<!-- MessagePipe -->
<g id="node1" class="node">
<title>MessagePipe</title>
<polygon fill="#ffffb3" stroke="black" points="353.87,-84.8 264.13,-84.8 264.13,-48.8 353.87,-48.8 353.87,-84.8"/>
<text text-anchor="middle" x="309" y="-62.6" font-family="Times,serif" font-size="14.00">MessagePipe</text>
</g>
<!-- IntlModule -->
<g id="node2" class="node">
<title>IntlModule</title>
<polygon fill="#8dd3c7" stroke="black" points="236.49,-149.8 233.49,-153.8 212.49,-153.8 209.49,-149.8 157.51,-149.8 157.51,-113.8 236.49,-113.8 236.49,-149.8"/>
<text text-anchor="middle" x="197" y="-127.6" font-family="Times,serif" font-size="14.00">IntlModule</text>
</g>
<!-- MessagePipe&#45;&gt;IntlModule -->
<g id="edge1" class="edge">
<title>MessagePipe&#45;&gt;IntlModule</title>
<path fill="none" stroke="black" d="M309,-84.91C309,-104.14 309,-131.8 309,-131.8 309,-131.8 246.8,-131.8 246.8,-131.8"/>
<polygon fill="black" stroke="black" points="246.8,-128.3 236.8,-131.8 246.8,-135.3 246.8,-128.3"/>
</g>
<!-- MessagePipe  -->
<g id="node4" class="node">
<title>MessagePipe </title>
<polygon fill="#fb8072" stroke="black" points="243.87,-214.8 150.13,-214.8 150.13,-178.8 243.87,-178.8 243.87,-214.8"/>
<text text-anchor="middle" x="197" y="-192.6" font-family="Times,serif" font-size="14.00">MessagePipe </text>
</g>
<!-- IntlModule&#45;&gt;MessagePipe  -->
<g id="edge3" class="edge">
<title>IntlModule&#45;&gt;MessagePipe </title>
<path fill="none" stroke="black" stroke-dasharray="5,2" d="M197,-149.91C197,-149.91 197,-168.79 197,-168.79"/>
<polygon fill="black" stroke="black" points="193.5,-168.79 197,-178.79 200.5,-168.79 193.5,-168.79"/>
</g>
<!-- BaseModule -->
<g id="node3" class="node">
<title>BaseModule</title>
<polygon fill="#8dd3c7" stroke="black" points="240.26,-84.8 237.26,-88.8 216.26,-88.8 213.26,-84.8 153.74,-84.8 153.74,-48.8 240.26,-48.8 240.26,-84.8"/>
<text text-anchor="middle" x="197" y="-62.6" font-family="Times,serif" font-size="14.00">BaseModule</text>
</g>
<!-- BaseModule&#45;&gt;IntlModule -->
<g id="edge2" class="edge">
<title>BaseModule&#45;&gt;IntlModule</title>
<path fill="none" stroke="black" d="M197,-84.91C197,-84.91 197,-103.79 197,-103.79"/>
<polygon fill="black" stroke="black" points="193.5,-103.79 197,-113.79 200.5,-103.79 193.5,-103.79"/>
</g>
<!-- IntlService -->
<g id="node5" class="node">
<title>IntlService</title>
<ellipse fill="#fdb462" stroke="black" cx="77" cy="-66.8" rx="53.31" ry="18"/>
<text text-anchor="middle" x="77" y="-62.6" font-family="Times,serif" font-size="14.00">IntlService</text>
</g>
<!-- IntlService&#45;&gt;IntlModule -->
<g id="edge4" class="edge">
<title>IntlService&#45;&gt;IntlModule</title>
<path fill="none" stroke="black" d="M77,-84.91C77,-104.14 77,-131.8 77,-131.8 77,-131.8 147.37,-131.8 147.37,-131.8"/>
<polygon fill="black" stroke="black" points="147.37,-135.3 157.37,-131.8 147.37,-128.3 147.37,-135.3"/>
</g>
</g>
</svg>
