<?xml version="1.0" encoding="UTF-8" standalone="no"?>
<!DOCTYPE svg PUBLIC "-//W3C//DTD SVG 1.1//EN"
 "http://www.w3.org/Graphics/SVG/1.1/DTD/svg11.dtd">
<!-- Generated by graphviz version 2.40.1 (20161225.0304)
 -->
<!-- Title: dependencies Pages: 1 -->
<svg width="1846pt" height="284pt"
 viewBox="0.00 0.00 1846.00 284.00" xmlns="http://www.w3.org/2000/svg" xmlns:xlink="http://www.w3.org/1999/xlink">
<g id="graph0" class="graph" transform="scale(1 1) rotate(0) translate(4 280)">
<title>dependencies</title>
<polygon fill="#ffffff" stroke="transparent" points="-4,4 -4,-280 1842,-280 1842,4 -4,4"/>
<text text-anchor="start" x="898.0091" y="-42.4" font-family="sans-serif" font-weight="bold" font-size="14.00" fill="#000000">Legend</text>
<polygon fill="#ffffb3" stroke="transparent" points="685,-10 685,-30 705,-30 705,-10 685,-10"/>
<text text-anchor="start" x="708.629" y="-15.4" font-family="sans-serif" font-size="14.00" fill="#000000"> &#160;Declarations</text>
<polygon fill="#8dd3c7" stroke="transparent" points="798,-10 798,-30 818,-30 818,-10 798,-10"/>
<text text-anchor="start" x="821.7251" y="-15.4" font-family="sans-serif" font-size="14.00" fill="#000000"> &#160;Module</text>
<polygon fill="#80b1d3" stroke="transparent" points="884,-10 884,-30 904,-30 904,-10 884,-10"/>
<text text-anchor="start" x="907.7812" y="-15.4" font-family="sans-serif" font-size="14.00" fill="#000000"> &#160;Bootstrap</text>
<polygon fill="#fdb462" stroke="transparent" points="981,-10 981,-30 1001,-30 1001,-10 981,-10"/>
<text text-anchor="start" x="1004.6732" y="-15.4" font-family="sans-serif" font-size="14.00" fill="#000000"> &#160;Providers</text>
<polygon fill="#fb8072" stroke="transparent" points="1077,-10 1077,-30 1097,-30 1097,-10 1077,-10"/>
<text text-anchor="start" x="1100.7258" y="-15.4" font-family="sans-serif" font-size="14.00" fill="#000000"> &#160;Exports</text>
<g id="clust1" class="cluster">
<title>cluster_BsSavedQueriesModule</title>
<polygon fill="none" stroke="#000000" stroke-dasharray="1,5" points="8,-70 8,-268 1830,-268 1830,-70 8,-70"/>
</g>
<g id="clust2" class="cluster">
<title>cluster_BsSavedQueriesModule_declarations</title>
<polygon fill="none" stroke="#000000" points="531,-78 531,-130 1822,-130 1822,-78 531,-78"/>
</g>
<g id="clust11" class="cluster">
<title>cluster_BsSavedQueriesModule_imports</title>
<polygon fill="none" stroke="#000000" points="16,-78 16,-130 523,-130 523,-78 16,-78"/>
</g>
<g id="clust12" class="cluster">
<title>cluster_BsSavedQueriesModule_exports</title>
<polygon fill="none" stroke="#000000" points="121,-208 121,-260 1439,-260 1439,-208 121,-208"/>
</g>
<!-- BsEditSavedQuery -->
<g id="node1" class="node">
<title>BsEditSavedQuery</title>
<polygon fill="#ffffb3" stroke="#000000" points="1813.809,-122 1690.191,-122 1690.191,-86 1813.809,-86 1813.809,-122"/>
<text text-anchor="middle" x="1752" y="-99.8" font-family="Times,serif" font-size="14.00" fill="#000000">BsEditSavedQuery</text>
</g>
<!-- BsSavedQueriesModule -->
<g id="node9" class="node">
<title>BsSavedQueriesModule</title>
<polygon fill="#8dd3c7" stroke="#000000" points="897.0744,-187 894.0744,-191 873.0744,-191 870.0744,-187 744.9256,-187 744.9256,-151 897.0744,-151 897.0744,-187"/>
<text text-anchor="middle" x="821" y="-164.8" font-family="Times,serif" font-size="14.00" fill="#000000">BsSavedQueriesModule</text>
</g>
<!-- BsEditSavedQuery&#45;&gt;BsSavedQueriesModule -->
<g id="edge1" class="edge">
<title>BsEditSavedQuery&#45;&gt;BsSavedQueriesModule</title>
<path fill="none" stroke="#000000" d="M1752,-122.308C1752,-142.1455 1752,-171 1752,-171 1752,-171 907.1876,-171 907.1876,-171"/>
<polygon fill="#000000" stroke="#000000" points="907.1877,-167.5001 897.1876,-171 907.1876,-174.5001 907.1877,-167.5001"/>
</g>
<!-- BsExportQuery -->
<g id="node2" class="node">
<title>BsExportQuery</title>
<polygon fill="#ffffb3" stroke="#000000" points="1671.8669,-122 1568.1331,-122 1568.1331,-86 1671.8669,-86 1671.8669,-122"/>
<text text-anchor="middle" x="1620" y="-99.8" font-family="Times,serif" font-size="14.00" fill="#000000">BsExportQuery</text>
</g>
<!-- BsExportQuery&#45;&gt;BsSavedQueriesModule -->
<g id="edge2" class="edge">
<title>BsExportQuery&#45;&gt;BsSavedQueriesModule</title>
<path fill="none" stroke="#000000" d="M1620,-122.2222C1620,-140.8285 1620,-167 1620,-167 1620,-167 907.2495,-167 907.2495,-167"/>
<polygon fill="#000000" stroke="#000000" points="907.2496,-163.5001 897.2495,-167 907.2495,-170.5001 907.2496,-163.5001"/>
</g>
<!-- BsFacetRecentDocuments -->
<g id="node3" class="node">
<title>BsFacetRecentDocuments</title>
<polygon fill="#ffffb3" stroke="#000000" points="1549.731,-122 1386.269,-122 1386.269,-86 1549.731,-86 1549.731,-122"/>
<text text-anchor="middle" x="1468" y="-99.8" font-family="Times,serif" font-size="14.00" fill="#000000">BsFacetRecentDocuments</text>
</g>
<!-- BsFacetRecentDocuments&#45;&gt;BsSavedQueriesModule -->
<g id="edge3" class="edge">
<title>BsFacetRecentDocuments&#45;&gt;BsSavedQueriesModule</title>
<path fill="none" stroke="#000000" d="M1408.7695,-122.0225C1408.7695,-139.3734 1408.7695,-163 1408.7695,-163 1408.7695,-163 907.238,-163 907.238,-163"/>
<polygon fill="#000000" stroke="#000000" points="907.2381,-159.5001 897.238,-163 907.238,-166.5001 907.2381,-159.5001"/>
</g>
<!-- BsFacetRecentQueries -->
<g id="node4" class="node">
<title>BsFacetRecentQueries</title>
<polygon fill="#ffffb3" stroke="#000000" points="1367.5017,-122 1224.4983,-122 1224.4983,-86 1367.5017,-86 1367.5017,-122"/>
<text text-anchor="middle" x="1296" y="-99.8" font-family="Times,serif" font-size="14.00" fill="#000000">BsFacetRecentQueries</text>
</g>
<!-- BsFacetRecentQueries&#45;&gt;BsSavedQueriesModule -->
<g id="edge4" class="edge">
<title>BsFacetRecentQueries&#45;&gt;BsSavedQueriesModule</title>
<path fill="none" stroke="#000000" d="M1255.4665,-122.0091C1255.4665,-138.0494 1255.4665,-159 1255.4665,-159 1255.4665,-159 907.1755,-159 907.1755,-159"/>
<polygon fill="#000000" stroke="#000000" points="907.1755,-155.5001 897.1755,-159 907.1754,-162.5001 907.1755,-155.5001"/>
</g>
<!-- BsFacetSavedQueries -->
<g id="node5" class="node">
<title>BsFacetSavedQueries</title>
<polygon fill="#ffffb3" stroke="#000000" points="1206.3417,-122 1067.6583,-122 1067.6583,-86 1206.3417,-86 1206.3417,-122"/>
<text text-anchor="middle" x="1137" y="-99.8" font-family="Times,serif" font-size="14.00" fill="#000000">BsFacetSavedQueries</text>
</g>
<!-- BsFacetSavedQueries&#45;&gt;BsSavedQueriesModule -->
<g id="edge5" class="edge">
<title>BsFacetSavedQueries&#45;&gt;BsSavedQueriesModule</title>
<path fill="none" stroke="#000000" d="M1114.5973,-122.1243C1114.5973,-136.7832 1114.5973,-155 1114.5973,-155 1114.5973,-155 907.3728,-155 907.3728,-155"/>
<polygon fill="#000000" stroke="#000000" points="907.3728,-151.5001 897.3728,-155 907.3728,-158.5001 907.3728,-151.5001"/>
</g>
<!-- BsManageSavedQueries -->
<g id="node6" class="node">
<title>BsManageSavedQueries</title>
<polygon fill="#ffffb3" stroke="#000000" points="1049.6135,-122 896.3865,-122 896.3865,-86 1049.6135,-86 1049.6135,-122"/>
<text text-anchor="middle" x="973" y="-99.8" font-family="Times,serif" font-size="14.00" fill="#000000">BsManageSavedQueries</text>
</g>
<!-- BsManageSavedQueries&#45;&gt;BsSavedQueriesModule -->
<g id="edge6" class="edge">
<title>BsManageSavedQueries&#45;&gt;BsSavedQueriesModule</title>
<path fill="none" stroke="#000000" d="M896.1327,-104C890.6842,-104 887.2823,-104 887.2823,-104 887.2823,-104 887.2823,-140.8939 887.2823,-140.8939"/>
<polygon fill="#000000" stroke="#000000" points="883.7823,-140.8938 887.2823,-150.8939 890.7823,-140.8939 883.7823,-140.8938"/>
</g>
<!-- BsQueryExporter -->
<g id="node7" class="node">
<title>BsQueryExporter</title>
<polygon fill="#ffffb3" stroke="#000000" points="878.2423,-122 763.7577,-122 763.7577,-86 878.2423,-86 878.2423,-122"/>
<text text-anchor="middle" x="821" y="-99.8" font-family="Times,serif" font-size="14.00" fill="#000000">BsQueryExporter</text>
</g>
<!-- BsQueryExporter&#45;&gt;BsSavedQueriesModule -->
<g id="edge7" class="edge">
<title>BsQueryExporter&#45;&gt;BsSavedQueriesModule</title>
<path fill="none" stroke="#000000" d="M821,-122.1061C821,-122.1061 821,-140.991 821,-140.991"/>
<polygon fill="#000000" stroke="#000000" points="817.5001,-140.9909 821,-150.991 824.5001,-140.991 817.5001,-140.9909"/>
</g>
<!-- BsSavedQueriesMenuComponent -->
<g id="node8" class="node">
<title>BsSavedQueriesMenuComponent</title>
<polygon fill="#ffffb3" stroke="#000000" points="745.0168,-122 538.9832,-122 538.9832,-86 745.0168,-86 745.0168,-122"/>
<text text-anchor="middle" x="642" y="-99.8" font-family="Times,serif" font-size="14.00" fill="#000000">BsSavedQueriesMenuComponent</text>
</g>
<!-- BsSavedQueriesMenuComponent&#45;&gt;BsSavedQueriesModule -->
<g id="edge8" class="edge">
<title>BsSavedQueriesMenuComponent&#45;&gt;BsSavedQueriesModule</title>
<path fill="none" stroke="#000000" d="M745.2418,-104C750.9692,-104 754.4436,-104 754.4436,-104 754.4436,-104 754.4436,-140.8939 754.4436,-140.8939"/>
<polygon fill="#000000" stroke="#000000" points="750.9436,-140.8938 754.4436,-150.8939 757.9436,-140.8939 750.9436,-140.8938"/>
</g>
<!-- BsEditSavedQuery  -->
<g id="node14" class="node">
<title>BsEditSavedQuery </title>
<polygon fill="#fb8072" stroke="#000000" points="1431.3087,-252 1304.6913,-252 1304.6913,-216 1431.3087,-216 1431.3087,-252"/>
<text text-anchor="middle" x="1368" y="-229.8" font-family="Times,serif" font-size="14.00" fill="#000000">BsEditSavedQuery </text>
</g>
<!-- BsSavedQueriesModule&#45;&gt;BsEditSavedQuery  -->
<g id="edge14" class="edge">
<title>BsSavedQueriesModule&#45;&gt;BsEditSavedQuery </title>
<path fill="none" stroke="#000000" stroke-dasharray="5,2" d="M897.2928,-175C1040.7007,-175 1336.173,-175 1336.173,-175 1336.173,-175 1336.173,-205.9775 1336.173,-205.9775"/>
<polygon fill="#000000" stroke="#000000" points="1332.6731,-205.9774 1336.173,-215.9775 1339.6731,-205.9775 1332.6731,-205.9774"/>
</g>
<!-- BsExportQuery  -->
<g id="node15" class="node">
<title>BsExportQuery </title>
<polygon fill="#fb8072" stroke="#000000" points="1286.8674,-252 1179.1326,-252 1179.1326,-216 1286.8674,-216 1286.8674,-252"/>
<text text-anchor="middle" x="1233" y="-229.8" font-family="Times,serif" font-size="14.00" fill="#000000">BsExportQuery </text>
</g>
<!-- BsSavedQueriesModule&#45;&gt;BsExportQuery  -->
<g id="edge15" class="edge">
<title>BsSavedQueriesModule&#45;&gt;BsExportQuery </title>
<path fill="none" stroke="#000000" stroke-dasharray="5,2" d="M897.1505,-179C1005.9456,-179 1192.8687,-179 1192.8687,-179 1192.8687,-179 1192.8687,-205.9909 1192.8687,-205.9909"/>
<polygon fill="#000000" stroke="#000000" points="1189.3688,-205.9909 1192.8687,-215.9909 1196.3688,-205.991 1189.3688,-205.9909"/>
</g>
<!-- BsFacetRecentDocuments  -->
<g id="node16" class="node">
<title>BsFacetRecentDocuments </title>
<polygon fill="#fb8072" stroke="#000000" points="1161.731,-252 994.269,-252 994.269,-216 1161.731,-216 1161.731,-252"/>
<text text-anchor="middle" x="1078" y="-229.8" font-family="Times,serif" font-size="14.00" fill="#000000">BsFacetRecentDocuments </text>
</g>
<!-- BsSavedQueriesModule&#45;&gt;BsFacetRecentDocuments  -->
<g id="edge16" class="edge">
<title>BsSavedQueriesModule&#45;&gt;BsFacetRecentDocuments </title>
<path fill="none" stroke="#000000" stroke-dasharray="5,2" d="M897.3123,-183C954.2008,-183 1022.0956,-183 1022.0956,-183 1022.0956,-183 1022.0956,-205.8757 1022.0956,-205.8757"/>
<polygon fill="#000000" stroke="#000000" points="1018.5956,-205.8757 1022.0956,-215.8757 1025.5956,-205.8757 1018.5956,-205.8757"/>
</g>
<!-- BsFacetRecentQueries  -->
<g id="node17" class="node">
<title>BsFacetRecentQueries </title>
<polygon fill="#fb8072" stroke="#000000" points="976.5008,-252 829.4992,-252 829.4992,-216 976.5008,-216 976.5008,-252"/>
<text text-anchor="middle" x="903" y="-229.8" font-family="Times,serif" font-size="14.00" fill="#000000">BsFacetRecentQueries </text>
</g>
<!-- BsSavedQueriesModule&#45;&gt;BsFacetRecentQueries  -->
<g id="edge17" class="edge">
<title>BsSavedQueriesModule&#45;&gt;BsFacetRecentQueries </title>
<path fill="none" stroke="#000000" stroke-dasharray="5,2" d="M863.2684,-187.1061C863.2684,-187.1061 863.2684,-205.991 863.2684,-205.991"/>
<polygon fill="#000000" stroke="#000000" points="859.7685,-205.9909 863.2684,-215.991 866.7685,-205.991 859.7685,-205.9909"/>
</g>
<!-- BsFacetSavedQueries  -->
<g id="node18" class="node">
<title>BsFacetSavedQueries </title>
<polygon fill="#fb8072" stroke="#000000" points="811.342,-252 668.658,-252 668.658,-216 811.342,-216 811.342,-252"/>
<text text-anchor="middle" x="740" y="-229.8" font-family="Times,serif" font-size="14.00" fill="#000000">BsFacetSavedQueries </text>
</g>
<!-- BsSavedQueriesModule&#45;&gt;BsFacetSavedQueries  -->
<g id="edge18" class="edge">
<title>BsSavedQueriesModule&#45;&gt;BsFacetSavedQueries </title>
<path fill="none" stroke="#000000" stroke-dasharray="5,2" d="M778.0668,-187.1061C778.0668,-187.1061 778.0668,-205.991 778.0668,-205.991"/>
<polygon fill="#000000" stroke="#000000" points="774.5669,-205.9909 778.0668,-215.991 781.5669,-205.991 774.5669,-205.9909"/>
</g>
<!-- BsManageSavedQueries  -->
<g id="node19" class="node">
<title>BsManageSavedQueries </title>
<polygon fill="#fb8072" stroke="#000000" points="650.613,-252 493.387,-252 493.387,-216 650.613,-216 650.613,-252"/>
<text text-anchor="middle" x="572" y="-229.8" font-family="Times,serif" font-size="14.00" fill="#000000">BsManageSavedQueries </text>
</g>
<!-- BsSavedQueriesModule&#45;&gt;BsManageSavedQueries  -->
<g id="edge19" class="edge">
<title>BsSavedQueriesModule&#45;&gt;BsManageSavedQueries </title>
<path fill="none" stroke="#000000" stroke-dasharray="5,2" d="M744.6835,-183C678.9714,-183 594.6492,-183 594.6492,-183 594.6492,-183 594.6492,-205.8757 594.6492,-205.8757"/>
<polygon fill="#000000" stroke="#000000" points="591.1493,-205.8757 594.6492,-215.8757 598.1493,-205.8757 591.1493,-205.8757"/>
</g>
<!-- BsQueryExporter  -->
<g id="node20" class="node">
<title>BsQueryExporter </title>
<polygon fill="#fb8072" stroke="#000000" points="475.2422,-252 356.7578,-252 356.7578,-216 475.2422,-216 475.2422,-252"/>
<text text-anchor="middle" x="416" y="-229.8" font-family="Times,serif" font-size="14.00" fill="#000000">BsQueryExporter </text>
</g>
<!-- BsSavedQueriesModule&#45;&gt;BsQueryExporter  -->
<g id="edge20" class="edge">
<title>BsSavedQueriesModule&#45;&gt;BsQueryExporter </title>
<path fill="none" stroke="#000000" stroke-dasharray="5,2" d="M744.6051,-179C633.1139,-179 438.9522,-179 438.9522,-179 438.9522,-179 438.9522,-205.9909 438.9522,-205.9909"/>
<polygon fill="#000000" stroke="#000000" points="435.4522,-205.9909 438.9522,-215.9909 442.4522,-205.991 435.4522,-205.9909"/>
</g>
<!-- BsSavedQueriesMenuComponent  -->
<g id="node21" class="node">
<title>BsSavedQueriesMenuComponent </title>
<polygon fill="#fb8072" stroke="#000000" points="339.0162,-252 128.9838,-252 128.9838,-216 339.0162,-216 339.0162,-252"/>
<text text-anchor="middle" x="234" y="-229.8" font-family="Times,serif" font-size="14.00" fill="#000000">BsSavedQueriesMenuComponent </text>
</g>
<!-- BsSavedQueriesModule&#45;&gt;BsSavedQueriesMenuComponent  -->
<g id="edge21" class="edge">
<title>BsSavedQueriesModule&#45;&gt;BsSavedQueriesMenuComponent </title>
<path fill="none" stroke="#000000" stroke-dasharray="5,2" d="M744.7749,-175C601.4941,-175 306.2839,-175 306.2839,-175 306.2839,-175 306.2839,-205.9775 306.2839,-205.9775"/>
<polygon fill="#000000" stroke="#000000" points="302.7839,-205.9774 306.2839,-215.9775 309.7839,-205.9775 302.7839,-205.9774"/>
</g>
<!-- BsActionModule -->
<g id="node10" class="node">
<title>BsActionModule</title>
<polygon fill="#8dd3c7" stroke="#000000" points="515.4342,-122 512.4342,-126 491.4342,-126 488.4342,-122 402.5658,-122 402.5658,-86 515.4342,-86 515.4342,-122"/>
<text text-anchor="middle" x="459" y="-99.8" font-family="Times,serif" font-size="14.00" fill="#000000">BsActionModule</text>
</g>
<!-- BsActionModule&#45;&gt;BsSavedQueriesModule -->
<g id="edge9" class="edge">
<title>BsActionModule&#45;&gt;BsSavedQueriesModule</title>
<path fill="none" stroke="#000000" d="M504.3301,-122.1243C504.3301,-136.7832 504.3301,-155 504.3301,-155 504.3301,-155 734.7467,-155 734.7467,-155"/>
<polygon fill="#000000" stroke="#000000" points="734.7467,-158.5001 744.7467,-155 734.7467,-151.5001 734.7467,-158.5001"/>
</g>
<!-- BsModalModule -->
<g id="node11" class="node">
<title>BsModalModule</title>
<polygon fill="#8dd3c7" stroke="#000000" points="384.3809,-122 381.3809,-126 360.3809,-126 357.3809,-122 273.6191,-122 273.6191,-86 384.3809,-86 384.3809,-122"/>
<text text-anchor="middle" x="329" y="-99.8" font-family="Times,serif" font-size="14.00" fill="#000000">BsModalModule</text>
</g>
<!-- BsModalModule&#45;&gt;BsSavedQueriesModule -->
<g id="edge10" class="edge">
<title>BsModalModule&#45;&gt;BsSavedQueriesModule</title>
<path fill="none" stroke="#000000" d="M366.0661,-122.0225C366.0661,-139.3734 366.0661,-163 366.0661,-163 366.0661,-163 734.8543,-163 734.8543,-163"/>
<polygon fill="#000000" stroke="#000000" points="734.8543,-166.5001 744.8543,-163 734.8543,-159.5001 734.8543,-166.5001"/>
</g>
<!-- BsModalModule&#45;&gt;BsSavedQueriesModule -->
<g id="edge11" class="edge">
<title>BsModalModule&#45;&gt;BsSavedQueriesModule</title>
<path fill="none" stroke="#000000" d="M375.2533,-122.0091C375.2533,-138.0494 375.2533,-159 375.2533,-159 375.2533,-159 734.8799,-159 734.8799,-159"/>
<polygon fill="#000000" stroke="#000000" points="734.8799,-162.5001 744.8799,-159 734.8798,-155.5001 734.8799,-162.5001"/>
</g>
<!-- BsSelectionModule -->
<g id="node12" class="node">
<title>BsSelectionModule</title>
<polygon fill="#8dd3c7" stroke="#000000" points="255.4299,-122 252.4299,-126 231.4299,-126 228.4299,-122 128.5701,-122 128.5701,-86 255.4299,-86 255.4299,-122"/>
<text text-anchor="middle" x="192" y="-99.8" font-family="Times,serif" font-size="14.00" fill="#000000">BsSelectionModule</text>
</g>
<!-- BsSelectionModule&#45;&gt;BsSavedQueriesModule -->
<g id="edge12" class="edge">
<title>BsSelectionModule&#45;&gt;BsSavedQueriesModule</title>
<path fill="none" stroke="#000000" d="M192.1033,-122.2222C192.1033,-140.8285 192.1033,-167 192.1033,-167 192.1033,-167 734.8273,-167 734.8273,-167"/>
<polygon fill="#000000" stroke="#000000" points="734.8273,-170.5001 744.8273,-167 734.8272,-163.5001 734.8273,-170.5001"/>
</g>
<!-- UtilsModule -->
<g id="node13" class="node">
<title>UtilsModule</title>
<polygon fill="#8dd3c7" stroke="#000000" points="110.2731,-122 107.2731,-126 86.2731,-126 83.2731,-122 23.7269,-122 23.7269,-86 110.2731,-86 110.2731,-122"/>
<text text-anchor="middle" x="67" y="-99.8" font-family="Times,serif" font-size="14.00" fill="#000000">UtilsModule</text>
</g>
<!-- UtilsModule&#45;&gt;BsSavedQueriesModule -->
<g id="edge13" class="edge">
<title>UtilsModule&#45;&gt;BsSavedQueriesModule</title>
<path fill="none" stroke="#000000" d="M67,-122.308C67,-142.1455 67,-171 67,-171 67,-171 734.9025,-171 734.9025,-171"/>
<polygon fill="#000000" stroke="#000000" points="734.9026,-174.5001 744.9025,-171 734.9025,-167.5001 734.9026,-174.5001"/>
</g>
</g>
</svg>
