<?xml version="1.0" encoding="UTF-8" standalone="no"?>
<!DOCTYPE svg PUBLIC "-//W3C//DTD SVG 1.1//EN"
 "http://www.w3.org/Graphics/SVG/1.1/DTD/svg11.dtd">
<!-- Generated by graphviz version 2.47.3 (20210619.1520)
 -->
<!-- Title: dependencies Pages: 1 -->
<svg width="1846pt" height="247pt"
 viewBox="0.00 0.00 1846.00 246.80" xmlns="http://www.w3.org/2000/svg" xmlns:xlink="http://www.w3.org/1999/xlink">
<g id="graph0" class="graph" transform="scale(1 1) rotate(0) translate(4 242.8)">
<title>dependencies</title>
<polygon fill="white" stroke="transparent" points="-4,4 -4,-242.8 1842,-242.8 1842,4 -4,4"/>
<text text-anchor="middle" x="919" y="-8.2" font-family="sans-serif" font-size="14.00">dependencies</text>
<g id="clust1" class="cluster">
<title>cluster_BsSavedQueriesModule</title>
<polygon fill="none" stroke="black" stroke-dasharray="1,5" points="8,-32.8 8,-230.8 1830,-230.8 1830,-32.8 8,-32.8"/>
</g>
<g id="clust11" class="cluster">
<title>cluster_BsSavedQueriesModule_imports</title>
<polygon fill="none" stroke="black" points="1315,-40.8 1315,-92.8 1822,-92.8 1822,-40.8 1315,-40.8"/>
</g>
<g id="clust12" class="cluster">
<title>cluster_BsSavedQueriesModule_exports</title>
<polygon fill="none" stroke="black" points="405,-170.8 405,-222.8 1723,-222.8 1723,-170.8 405,-170.8"/>
</g>
<g id="clust2" class="cluster">
<title>cluster_BsSavedQueriesModule_declarations</title>
<polygon fill="none" stroke="black" points="16,-40.8 16,-92.8 1307,-92.8 1307,-40.8 16,-40.8"/>
</g>
<!-- BsEditSavedQuery -->
<g id="node1" class="node">
<title>BsEditSavedQuery</title>
<polygon fill="#ffffb3" stroke="black" points="1298.81,-84.8 1175.19,-84.8 1175.19,-48.8 1298.81,-48.8 1298.81,-84.8"/>
<text text-anchor="middle" x="1237" y="-62.6" font-family="Times,serif" font-size="14.00">BsEditSavedQuery</text>
</g>
<!-- BsSavedQueriesModule -->
<g id="node9" class="node">
<title>BsSavedQueriesModule</title>
<polygon fill="#8dd3c7" stroke="black" points="1181.07,-149.8 1178.07,-153.8 1157.07,-153.8 1154.07,-149.8 1028.93,-149.8 1028.93,-113.8 1181.07,-113.8 1181.07,-149.8"/>
<text text-anchor="middle" x="1105" y="-127.6" font-family="Times,serif" font-size="14.00">BsSavedQueriesModule</text>
</g>
<!-- BsEditSavedQuery&#45;&gt;BsSavedQueriesModule -->
<g id="edge1" class="edge">
<title>BsEditSavedQuery&#45;&gt;BsSavedQueriesModule</title>
<path fill="none" stroke="black" d="M1175.11,-66.8C1169.65,-66.8 1166.14,-66.8 1166.14,-66.8 1166.14,-66.8 1166.14,-103.69 1166.14,-103.69"/>
<polygon fill="black" stroke="black" points="1162.64,-103.69 1166.14,-113.69 1169.64,-103.69 1162.64,-103.69"/>
</g>
<!-- BsExportQuery -->
<g id="node2" class="node">
<title>BsExportQuery</title>
<polygon fill="#ffffb3" stroke="black" points="1156.87,-84.8 1053.13,-84.8 1053.13,-48.8 1156.87,-48.8 1156.87,-84.8"/>
<text text-anchor="middle" x="1105" y="-62.6" font-family="Times,serif" font-size="14.00">BsExportQuery</text>
</g>
<!-- BsExportQuery&#45;&gt;BsSavedQueriesModule -->
<g id="edge2" class="edge">
<title>BsExportQuery&#45;&gt;BsSavedQueriesModule</title>
<path fill="none" stroke="black" d="M1105,-84.91C1105,-84.91 1105,-103.79 1105,-103.79"/>
<polygon fill="black" stroke="black" points="1101.5,-103.79 1105,-113.79 1108.5,-103.79 1101.5,-103.79"/>
</g>
<!-- BsFacetRecentDocuments -->
<g id="node3" class="node">
<title>BsFacetRecentDocuments</title>
<polygon fill="#ffffb3" stroke="black" points="1034.73,-84.8 871.27,-84.8 871.27,-48.8 1034.73,-48.8 1034.73,-84.8"/>
<text text-anchor="middle" x="953" y="-62.6" font-family="Times,serif" font-size="14.00">BsFacetRecentDocuments</text>
</g>
<!-- BsFacetRecentDocuments&#45;&gt;BsSavedQueriesModule -->
<g id="edge3" class="edge">
<title>BsFacetRecentDocuments&#45;&gt;BsSavedQueriesModule</title>
<path fill="none" stroke="black" d="M1034.91,-66.8C1040.5,-66.8 1043.97,-66.8 1043.97,-66.8 1043.97,-66.8 1043.97,-103.69 1043.97,-103.69"/>
<polygon fill="black" stroke="black" points="1040.47,-103.69 1043.97,-113.69 1047.47,-103.69 1040.47,-103.69"/>
</g>
<!-- BsFacetRecentQueries -->
<g id="node4" class="node">
<title>BsFacetRecentQueries</title>
<polygon fill="#ffffb3" stroke="black" points="852.5,-84.8 709.5,-84.8 709.5,-48.8 852.5,-48.8 852.5,-84.8"/>
<text text-anchor="middle" x="781" y="-62.6" font-family="Times,serif" font-size="14.00">BsFacetRecentQueries</text>
</g>
<!-- BsFacetRecentQueries&#45;&gt;BsSavedQueriesModule -->
<g id="edge4" class="edge">
<title>BsFacetRecentQueries&#45;&gt;BsSavedQueriesModule</title>
<path fill="none" stroke="black" d="M815.1,-84.92C815.1,-99.58 815.1,-117.8 815.1,-117.8 815.1,-117.8 1018.83,-117.8 1018.83,-117.8"/>
<polygon fill="black" stroke="black" points="1018.83,-121.3 1028.83,-117.8 1018.83,-114.3 1018.83,-121.3"/>
</g>
<!-- BsFacetSavedQueries -->
<g id="node5" class="node">
<title>BsFacetSavedQueries</title>
<polygon fill="#ffffb3" stroke="black" points="691.34,-84.8 552.66,-84.8 552.66,-48.8 691.34,-48.8 691.34,-84.8"/>
<text text-anchor="middle" x="622" y="-62.6" font-family="Times,serif" font-size="14.00">BsFacetSavedQueries</text>
</g>
<!-- BsFacetSavedQueries&#45;&gt;BsSavedQueriesModule -->
<g id="edge5" class="edge">
<title>BsFacetSavedQueries&#45;&gt;BsSavedQueriesModule</title>
<path fill="none" stroke="black" d="M666.15,-84.81C666.15,-100.85 666.15,-121.8 666.15,-121.8 666.15,-121.8 1018.56,-121.8 1018.56,-121.8"/>
<polygon fill="black" stroke="black" points="1018.56,-125.3 1028.56,-121.8 1018.56,-118.3 1018.56,-125.3"/>
</g>
<!-- BsManageSavedQueries -->
<g id="node6" class="node">
<title>BsManageSavedQueries</title>
<polygon fill="#ffffb3" stroke="black" points="534.61,-84.8 381.39,-84.8 381.39,-48.8 534.61,-48.8 534.61,-84.8"/>
<text text-anchor="middle" x="458" y="-62.6" font-family="Times,serif" font-size="14.00">BsManageSavedQueries</text>
</g>
<!-- BsManageSavedQueries&#45;&gt;BsSavedQueriesModule -->
<g id="edge6" class="edge">
<title>BsManageSavedQueries&#45;&gt;BsSavedQueriesModule</title>
<path fill="none" stroke="black" d="M473.9,-84.82C473.9,-102.17 473.9,-125.8 473.9,-125.8 473.9,-125.8 1018.87,-125.8 1018.87,-125.8"/>
<polygon fill="black" stroke="black" points="1018.87,-129.3 1028.87,-125.8 1018.87,-122.3 1018.87,-129.3"/>
</g>
<!-- BsQueryExporter -->
<g id="node7" class="node">
<title>BsQueryExporter</title>
<polygon fill="#ffffb3" stroke="black" points="363.24,-84.8 248.76,-84.8 248.76,-48.8 363.24,-48.8 363.24,-84.8"/>
<text text-anchor="middle" x="306" y="-62.6" font-family="Times,serif" font-size="14.00">BsQueryExporter</text>
</g>
<!-- BsQueryExporter&#45;&gt;BsSavedQueriesModule -->
<g id="edge7" class="edge">
<title>BsQueryExporter&#45;&gt;BsSavedQueriesModule</title>
<path fill="none" stroke="black" d="M306,-85.02C306,-103.63 306,-129.8 306,-129.8 306,-129.8 1018.75,-129.8 1018.75,-129.8"/>
<polygon fill="black" stroke="black" points="1018.75,-133.3 1028.75,-129.8 1018.75,-126.3 1018.75,-133.3"/>
</g>
<!-- BsSavedQueriesMenuComponent -->
<g id="node8" class="node">
<title>BsSavedQueriesMenuComponent</title>
<polygon fill="#ffffb3" stroke="black" points="230.02,-84.8 23.98,-84.8 23.98,-48.8 230.02,-48.8 230.02,-84.8"/>
<text text-anchor="middle" x="127" y="-62.6" font-family="Times,serif" font-size="14.00">BsSavedQueriesMenuComponent</text>
</g>
<!-- BsSavedQueriesMenuComponent&#45;&gt;BsSavedQueriesModule -->
<g id="edge8" class="edge">
<title>BsSavedQueriesMenuComponent&#45;&gt;BsSavedQueriesModule</title>
<path fill="none" stroke="black" d="M127,-85.11C127,-104.95 127,-133.8 127,-133.8 127,-133.8 1018.67,-133.8 1018.67,-133.8"/>
<polygon fill="black" stroke="black" points="1018.67,-137.3 1028.67,-133.8 1018.67,-130.3 1018.67,-137.3"/>
</g>
<!-- BsEditSavedQuery  -->
<g id="node14" class="node">
<title>BsEditSavedQuery </title>
<polygon fill="#fb8072" stroke="black" points="1715.31,-214.8 1588.69,-214.8 1588.69,-178.8 1715.31,-178.8 1715.31,-214.8"/>
<text text-anchor="middle" x="1652" y="-192.6" font-family="Times,serif" font-size="14.00">BsEditSavedQuery </text>
</g>
<!-- BsSavedQueriesModule&#45;&gt;BsEditSavedQuery  -->
<g id="edge14" class="edge">
<title>BsSavedQueriesModule&#45;&gt;BsEditSavedQuery </title>
<path fill="none" stroke="black" stroke-dasharray="5,2" d="M1181.08,-137.8C1327.91,-137.8 1636.02,-137.8 1636.02,-137.8 1636.02,-137.8 1636.02,-168.78 1636.02,-168.78"/>
<polygon fill="black" stroke="black" points="1632.52,-168.78 1636.02,-178.78 1639.52,-168.78 1632.52,-168.78"/>
</g>
<!-- BsExportQuery  -->
<g id="node15" class="node">
<title>BsExportQuery </title>
<polygon fill="#fb8072" stroke="black" points="1570.87,-214.8 1463.13,-214.8 1463.13,-178.8 1570.87,-178.8 1570.87,-214.8"/>
<text text-anchor="middle" x="1517" y="-192.6" font-family="Times,serif" font-size="14.00">BsExportQuery </text>
</g>
<!-- BsSavedQueriesModule&#45;&gt;BsExportQuery  -->
<g id="edge15" class="edge">
<title>BsSavedQueriesModule&#45;&gt;BsExportQuery </title>
<path fill="none" stroke="black" stroke-dasharray="5,2" d="M1181.42,-141.8C1298.48,-141.8 1508.77,-141.8 1508.77,-141.8 1508.77,-141.8 1508.77,-168.79 1508.77,-168.79"/>
<polygon fill="black" stroke="black" points="1505.27,-168.79 1508.77,-178.79 1512.27,-168.79 1505.27,-168.79"/>
</g>
<!-- BsFacetRecentDocuments  -->
<g id="node16" class="node">
<title>BsFacetRecentDocuments </title>
<polygon fill="#fb8072" stroke="black" points="1445.73,-214.8 1278.27,-214.8 1278.27,-178.8 1445.73,-178.8 1445.73,-214.8"/>
<text text-anchor="middle" x="1362" y="-192.6" font-family="Times,serif" font-size="14.00">BsFacetRecentDocuments </text>
</g>
<!-- BsSavedQueriesModule&#45;&gt;BsFacetRecentDocuments  -->
<g id="edge16" class="edge">
<title>BsSavedQueriesModule&#45;&gt;BsFacetRecentDocuments </title>
<path fill="none" stroke="black" stroke-dasharray="5,2" d="M1181.23,-145.8C1231.66,-145.8 1288.52,-145.8 1288.52,-145.8 1288.52,-145.8 1288.52,-168.68 1288.52,-168.68"/>
<polygon fill="black" stroke="black" points="1285.02,-168.68 1288.52,-178.68 1292.02,-168.68 1285.02,-168.68"/>
</g>
<!-- BsFacetRecentQueries  -->
<g id="node17" class="node">
<title>BsFacetRecentQueries </title>
<polygon fill="#fb8072" stroke="black" points="1260.5,-214.8 1113.5,-214.8 1113.5,-178.8 1260.5,-178.8 1260.5,-214.8"/>
<text text-anchor="middle" x="1187" y="-192.6" font-family="Times,serif" font-size="14.00">BsFacetRecentQueries </text>
</g>
<!-- BsSavedQueriesModule&#45;&gt;BsFacetRecentQueries  -->
<g id="edge17" class="edge">
<title>BsSavedQueriesModule&#45;&gt;BsFacetRecentQueries </title>
<path fill="none" stroke="black" stroke-dasharray="5,2" d="M1147.27,-149.91C1147.27,-149.91 1147.27,-168.79 1147.27,-168.79"/>
<polygon fill="black" stroke="black" points="1143.77,-168.79 1147.27,-178.79 1150.77,-168.79 1143.77,-168.79"/>
</g>
<!-- BsFacetSavedQueries  -->
<g id="node18" class="node">
<title>BsFacetSavedQueries </title>
<polygon fill="#fb8072" stroke="black" points="1095.34,-214.8 952.66,-214.8 952.66,-178.8 1095.34,-178.8 1095.34,-214.8"/>
<text text-anchor="middle" x="1024" y="-192.6" font-family="Times,serif" font-size="14.00">BsFacetSavedQueries </text>
</g>
<!-- BsSavedQueriesModule&#45;&gt;BsFacetSavedQueries  -->
<g id="edge18" class="edge">
<title>BsSavedQueriesModule&#45;&gt;BsFacetSavedQueries </title>
<path fill="none" stroke="black" stroke-dasharray="5,2" d="M1062.07,-149.91C1062.07,-149.91 1062.07,-168.79 1062.07,-168.79"/>
<polygon fill="black" stroke="black" points="1058.57,-168.79 1062.07,-178.79 1065.57,-168.79 1058.57,-168.79"/>
</g>
<!-- BsManageSavedQueries  -->
<g id="node19" class="node">
<title>BsManageSavedQueries </title>
<polygon fill="#fb8072" stroke="black" points="934.61,-214.8 777.39,-214.8 777.39,-178.8 934.61,-178.8 934.61,-214.8"/>
<text text-anchor="middle" x="856" y="-192.6" font-family="Times,serif" font-size="14.00">BsManageSavedQueries </text>
</g>
<!-- BsSavedQueriesModule&#45;&gt;BsManageSavedQueries  -->
<g id="edge19" class="edge">
<title>BsSavedQueriesModule&#45;&gt;BsManageSavedQueries </title>
<path fill="none" stroke="black" stroke-dasharray="5,2" d="M1028.86,-145.8C971.56,-145.8 902.85,-145.8 902.85,-145.8 902.85,-145.8 902.85,-168.68 902.85,-168.68"/>
<polygon fill="black" stroke="black" points="899.35,-168.68 902.85,-178.68 906.35,-168.68 899.35,-168.68"/>
</g>
<!-- BsQueryExporter  -->
<g id="node20" class="node">
<title>BsQueryExporter </title>
<polygon fill="#fb8072" stroke="black" points="759.24,-214.8 640.76,-214.8 640.76,-178.8 759.24,-178.8 759.24,-214.8"/>
<text text-anchor="middle" x="700" y="-192.6" font-family="Times,serif" font-size="14.00">BsQueryExporter </text>
</g>
<!-- BsSavedQueriesModule&#45;&gt;BsQueryExporter  -->
<g id="edge20" class="edge">
<title>BsSavedQueriesModule&#45;&gt;BsQueryExporter </title>
<path fill="none" stroke="black" stroke-dasharray="5,2" d="M1028.62,-141.8C920.07,-141.8 734.19,-141.8 734.19,-141.8 734.19,-141.8 734.19,-168.79 734.19,-168.79"/>
<polygon fill="black" stroke="black" points="730.69,-168.79 734.19,-178.79 737.69,-168.79 730.69,-168.79"/>
</g>
<!-- BsSavedQueriesMenuComponent  -->
<g id="node21" class="node">
<title>BsSavedQueriesMenuComponent </title>
<polygon fill="#fb8072" stroke="black" points="623.02,-214.8 412.98,-214.8 412.98,-178.8 623.02,-178.8 623.02,-214.8"/>
<text text-anchor="middle" x="518" y="-192.6" font-family="Times,serif" font-size="14.00">BsSavedQueriesMenuComponent </text>
</g>
<!-- BsSavedQueriesModule&#45;&gt;BsSavedQueriesMenuComponent  -->
<g id="edge21" class="edge">
<title>BsSavedQueriesModule&#45;&gt;BsSavedQueriesMenuComponent </title>
<path fill="none" stroke="black" stroke-dasharray="5,2" d="M1028.96,-137.8C885.2,-137.8 587.79,-137.8 587.79,-137.8 587.79,-137.8 587.79,-168.78 587.79,-168.78"/>
<polygon fill="black" stroke="black" points="584.29,-168.78 587.79,-178.78 591.29,-168.78 584.29,-168.78"/>
</g>
<!-- BsActionModule -->
<g id="node10" class="node">
<title>BsActionModule</title>
<polygon fill="#8dd3c7" stroke="black" points="1814.43,-84.8 1811.43,-88.8 1790.43,-88.8 1787.43,-84.8 1701.57,-84.8 1701.57,-48.8 1814.43,-48.8 1814.43,-84.8"/>
<text text-anchor="middle" x="1758" y="-62.6" font-family="Times,serif" font-size="14.00">BsActionModule</text>
</g>
<!-- BsActionModule&#45;&gt;BsSavedQueriesModule -->
<g id="edge9" class="edge">
<title>BsActionModule&#45;&gt;BsSavedQueriesModule</title>
<path fill="none" stroke="black" d="M1708.59,-85.11C1708.59,-104.95 1708.59,-133.8 1708.59,-133.8 1708.59,-133.8 1191.14,-133.8 1191.14,-133.8"/>
<polygon fill="black" stroke="black" points="1191.14,-130.3 1181.14,-133.8 1191.14,-137.3 1191.14,-130.3"/>
</g>
<!-- BsModalModule -->
<g id="node11" class="node">
<title>BsModalModule</title>
<polygon fill="#8dd3c7" stroke="black" points="1683.38,-84.8 1680.38,-88.8 1659.38,-88.8 1656.38,-84.8 1572.62,-84.8 1572.62,-48.8 1683.38,-48.8 1683.38,-84.8"/>
<text text-anchor="middle" x="1628" y="-62.6" font-family="Times,serif" font-size="14.00">BsModalModule</text>
</g>
<!-- BsModalModule&#45;&gt;BsSavedQueriesModule -->
<g id="edge10" class="edge">
<title>BsModalModule&#45;&gt;BsSavedQueriesModule</title>
<path fill="none" stroke="black" d="M1583.25,-85.02C1583.25,-103.63 1583.25,-129.8 1583.25,-129.8 1583.25,-129.8 1191.04,-129.8 1191.04,-129.8"/>
<polygon fill="black" stroke="black" points="1191.04,-126.3 1181.04,-129.8 1191.04,-133.3 1191.04,-126.3"/>
</g>
<!-- BsModalModule&#45;&gt;BsSavedQueriesModule -->
<g id="edge11" class="edge">
<title>BsModalModule&#45;&gt;BsSavedQueriesModule</title>
<path fill="none" stroke="black" d="M1577.9,-84.82C1577.9,-102.17 1577.9,-125.8 1577.9,-125.8 1577.9,-125.8 1191.24,-125.8 1191.24,-125.8"/>
<polygon fill="black" stroke="black" points="1191.24,-122.3 1181.24,-125.8 1191.24,-129.3 1191.24,-122.3"/>
</g>
<!-- BsSelectionModule -->
<g id="node12" class="node">
<title>BsSelectionModule</title>
<polygon fill="#8dd3c7" stroke="black" points="1554.43,-84.8 1551.43,-88.8 1530.43,-88.8 1527.43,-84.8 1427.57,-84.8 1427.57,-48.8 1554.43,-48.8 1554.43,-84.8"/>
<text text-anchor="middle" x="1491" y="-62.6" font-family="Times,serif" font-size="14.00">BsSelectionModule</text>
</g>
<!-- BsSelectionModule&#45;&gt;BsSavedQueriesModule -->
<g id="edge12" class="edge">
<title>BsSelectionModule&#45;&gt;BsSavedQueriesModule</title>
<path fill="none" stroke="black" d="M1436.7,-84.81C1436.7,-100.85 1436.7,-121.8 1436.7,-121.8 1436.7,-121.8 1191.1,-121.8 1191.1,-121.8"/>
<polygon fill="black" stroke="black" points="1191.1,-118.3 1181.1,-121.8 1191.1,-125.3 1191.1,-118.3"/>
</g>
<!-- UtilsModule -->
<g id="node13" class="node">
<title>UtilsModule</title>
<polygon fill="#8dd3c7" stroke="black" points="1409.27,-84.8 1406.27,-88.8 1385.27,-88.8 1382.27,-84.8 1322.73,-84.8 1322.73,-48.8 1409.27,-48.8 1409.27,-84.8"/>
<text text-anchor="middle" x="1366" y="-62.6" font-family="Times,serif" font-size="14.00">UtilsModule</text>
</g>
<!-- UtilsModule&#45;&gt;BsSavedQueriesModule -->
<g id="edge13" class="edge">
<title>UtilsModule&#45;&gt;BsSavedQueriesModule</title>
<path fill="none" stroke="black" d="M1366,-84.92C1366,-99.58 1366,-117.8 1366,-117.8 1366,-117.8 1191.19,-117.8 1191.19,-117.8"/>
<polygon fill="black" stroke="black" points="1191.19,-114.3 1181.19,-117.8 1191.19,-121.3 1191.19,-114.3"/>
</g>
</g>
</svg>
