<?xml version="1.0" encoding="UTF-8" standalone="no"?>
<!DOCTYPE svg PUBLIC "-//W3C//DTD SVG 1.1//EN"
 "http://www.w3.org/Graphics/SVG/1.1/DTD/svg11.dtd">
<!-- Generated by graphviz version 2.47.3 (20210619.1520)
 -->
<!-- Title: dependencies Pages: 1 -->
<svg width="1846pt" height="247pt"
 viewBox="0.00 0.00 1846.00 246.80" xmlns="http://www.w3.org/2000/svg" xmlns:xlink="http://www.w3.org/1999/xlink">
<g id="graph0" class="graph" transform="scale(1 1) rotate(0) translate(4 242.8)">
<title>dependencies</title>
<polygon fill="white" stroke="transparent" points="-4,4 -4,-242.8 1842,-242.8 1842,4 -4,4"/>
<text text-anchor="middle" x="919" y="-8.2" font-family="sans-serif" font-size="14.00">dependencies</text>
<g id="clust1" class="cluster">
<title>cluster_BsSavedQueriesModule</title>
<polygon fill="none" stroke="black" stroke-dasharray="1,5" points="8,-32.8 8,-230.8 1830,-230.8 1830,-32.8 8,-32.8"/>
</g>
<g id="clust12" class="cluster">
<title>cluster_BsSavedQueriesModule_exports</title>
<polygon fill="none" stroke="black" points="121,-170.8 121,-222.8 1439,-222.8 1439,-170.8 121,-170.8"/>
</g>
<g id="clust2" class="cluster">
<title>cluster_BsSavedQueriesModule_declarations</title>
<polygon fill="none" stroke="black" points="531,-40.8 531,-92.8 1822,-92.8 1822,-40.8 531,-40.8"/>
</g>
<g id="clust11" class="cluster">
<title>cluster_BsSavedQueriesModule_imports</title>
<polygon fill="none" stroke="black" points="16,-40.8 16,-92.8 523,-92.8 523,-40.8 16,-40.8"/>
</g>
<!-- BsEditSavedQuery -->
<g id="node1" class="node">
<title>BsEditSavedQuery</title>
<polygon fill="#ffffb3" stroke="black" points="1813.81,-84.8 1690.19,-84.8 1690.19,-48.8 1813.81,-48.8 1813.81,-84.8"/>
<text text-anchor="middle" x="1752" y="-62.6" font-family="Times,serif" font-size="14.00">BsEditSavedQuery</text>
</g>
<!-- BsSavedQueriesModule -->
<g id="node9" class="node">
<title>BsSavedQueriesModule</title>
<polygon fill="#8dd3c7" stroke="black" points="897.07,-149.8 894.07,-153.8 873.07,-153.8 870.07,-149.8 744.93,-149.8 744.93,-113.8 897.07,-113.8 897.07,-149.8"/>
<text text-anchor="middle" x="821" y="-127.6" font-family="Times,serif" font-size="14.00">BsSavedQueriesModule</text>
</g>
<!-- BsEditSavedQuery&#45;&gt;BsSavedQueriesModule -->
<g id="edge1" class="edge">
<title>BsEditSavedQuery&#45;&gt;BsSavedQueriesModule</title>
<path fill="none" stroke="black" d="M1752,-85.11C1752,-104.95 1752,-133.8 1752,-133.8 1752,-133.8 907.19,-133.8 907.19,-133.8"/>
<polygon fill="black" stroke="black" points="907.19,-130.3 897.19,-133.8 907.19,-137.3 907.19,-130.3"/>
</g>
<!-- BsExportQuery -->
<g id="node2" class="node">
<title>BsExportQuery</title>
<polygon fill="#ffffb3" stroke="black" points="1671.87,-84.8 1568.13,-84.8 1568.13,-48.8 1671.87,-48.8 1671.87,-84.8"/>
<text text-anchor="middle" x="1620" y="-62.6" font-family="Times,serif" font-size="14.00">BsExportQuery</text>
</g>
<!-- BsExportQuery&#45;&gt;BsSavedQueriesModule -->
<g id="edge2" class="edge">
<title>BsExportQuery&#45;&gt;BsSavedQueriesModule</title>
<path fill="none" stroke="black" d="M1620,-85.02C1620,-103.63 1620,-129.8 1620,-129.8 1620,-129.8 907.25,-129.8 907.25,-129.8"/>
<polygon fill="black" stroke="black" points="907.25,-126.3 897.25,-129.8 907.25,-133.3 907.25,-126.3"/>
</g>
<!-- BsFacetRecentDocuments -->
<g id="node3" class="node">
<title>BsFacetRecentDocuments</title>
<polygon fill="#ffffb3" stroke="black" points="1549.73,-84.8 1386.27,-84.8 1386.27,-48.8 1549.73,-48.8 1549.73,-84.8"/>
<text text-anchor="middle" x="1468" y="-62.6" font-family="Times,serif" font-size="14.00">BsFacetRecentDocuments</text>
</g>
<!-- BsFacetRecentDocuments&#45;&gt;BsSavedQueriesModule -->
<g id="edge3" class="edge">
<title>BsFacetRecentDocuments&#45;&gt;BsSavedQueriesModule</title>
<path fill="none" stroke="black" d="M1408.77,-84.82C1408.77,-102.17 1408.77,-125.8 1408.77,-125.8 1408.77,-125.8 907.24,-125.8 907.24,-125.8"/>
<polygon fill="black" stroke="black" points="907.24,-122.3 897.24,-125.8 907.24,-129.3 907.24,-122.3"/>
</g>
<!-- BsFacetRecentQueries -->
<g id="node4" class="node">
<title>BsFacetRecentQueries</title>
<polygon fill="#ffffb3" stroke="black" points="1367.5,-84.8 1224.5,-84.8 1224.5,-48.8 1367.5,-48.8 1367.5,-84.8"/>
<text text-anchor="middle" x="1296" y="-62.6" font-family="Times,serif" font-size="14.00">BsFacetRecentQueries</text>
</g>
<!-- BsFacetRecentQueries&#45;&gt;BsSavedQueriesModule -->
<g id="edge4" class="edge">
<title>BsFacetRecentQueries&#45;&gt;BsSavedQueriesModule</title>
<path fill="none" stroke="black" d="M1255.47,-84.81C1255.47,-100.85 1255.47,-121.8 1255.47,-121.8 1255.47,-121.8 907.18,-121.8 907.18,-121.8"/>
<polygon fill="black" stroke="black" points="907.18,-118.3 897.18,-121.8 907.18,-125.3 907.18,-118.3"/>
</g>
<!-- BsFacetSavedQueries -->
<g id="node5" class="node">
<title>BsFacetSavedQueries</title>
<polygon fill="#ffffb3" stroke="black" points="1206.34,-84.8 1067.66,-84.8 1067.66,-48.8 1206.34,-48.8 1206.34,-84.8"/>
<text text-anchor="middle" x="1137" y="-62.6" font-family="Times,serif" font-size="14.00">BsFacetSavedQueries</text>
</g>
<!-- BsFacetSavedQueries&#45;&gt;BsSavedQueriesModule -->
<g id="edge5" class="edge">
<title>BsFacetSavedQueries&#45;&gt;BsSavedQueriesModule</title>
<path fill="none" stroke="black" d="M1114.6,-84.92C1114.6,-99.58 1114.6,-117.8 1114.6,-117.8 1114.6,-117.8 907.37,-117.8 907.37,-117.8"/>
<polygon fill="black" stroke="black" points="907.37,-114.3 897.37,-117.8 907.37,-121.3 907.37,-114.3"/>
</g>
<!-- BsManageSavedQueries -->
<g id="node6" class="node">
<title>BsManageSavedQueries</title>
<polygon fill="#ffffb3" stroke="black" points="1049.61,-84.8 896.39,-84.8 896.39,-48.8 1049.61,-48.8 1049.61,-84.8"/>
<text text-anchor="middle" x="973" y="-62.6" font-family="Times,serif" font-size="14.00">BsManageSavedQueries</text>
</g>
<!-- BsManageSavedQueries&#45;&gt;BsSavedQueriesModule -->
<g id="edge6" class="edge">
<title>BsManageSavedQueries&#45;&gt;BsSavedQueriesModule</title>
<path fill="none" stroke="black" d="M896.13,-66.8C890.68,-66.8 887.28,-66.8 887.28,-66.8 887.28,-66.8 887.28,-103.69 887.28,-103.69"/>
<polygon fill="black" stroke="black" points="883.78,-103.69 887.28,-113.69 890.78,-103.69 883.78,-103.69"/>
</g>
<!-- BsQueryExporter -->
<g id="node7" class="node">
<title>BsQueryExporter</title>
<polygon fill="#ffffb3" stroke="black" points="878.24,-84.8 763.76,-84.8 763.76,-48.8 878.24,-48.8 878.24,-84.8"/>
<text text-anchor="middle" x="821" y="-62.6" font-family="Times,serif" font-size="14.00">BsQueryExporter</text>
</g>
<!-- BsQueryExporter&#45;&gt;BsSavedQueriesModule -->
<g id="edge7" class="edge">
<title>BsQueryExporter&#45;&gt;BsSavedQueriesModule</title>
<path fill="none" stroke="black" d="M821,-84.91C821,-84.91 821,-103.79 821,-103.79"/>
<polygon fill="black" stroke="black" points="817.5,-103.79 821,-113.79 824.5,-103.79 817.5,-103.79"/>
</g>
<!-- BsSavedQueriesMenuComponent -->
<g id="node8" class="node">
<title>BsSavedQueriesMenuComponent</title>
<polygon fill="#ffffb3" stroke="black" points="745.02,-84.8 538.98,-84.8 538.98,-48.8 745.02,-48.8 745.02,-84.8"/>
<text text-anchor="middle" x="642" y="-62.6" font-family="Times,serif" font-size="14.00">BsSavedQueriesMenuComponent</text>
</g>
<!-- BsSavedQueriesMenuComponent&#45;&gt;BsSavedQueriesModule -->
<g id="edge8" class="edge">
<title>BsSavedQueriesMenuComponent&#45;&gt;BsSavedQueriesModule</title>
<path fill="none" stroke="black" d="M745.24,-66.8C750.97,-66.8 754.44,-66.8 754.44,-66.8 754.44,-66.8 754.44,-103.69 754.44,-103.69"/>
<polygon fill="black" stroke="black" points="750.94,-103.69 754.44,-113.69 757.94,-103.69 750.94,-103.69"/>
</g>
<!-- BsEditSavedQuery  -->
<g id="node14" class="node">
<title>BsEditSavedQuery </title>
<polygon fill="#fb8072" stroke="black" points="1431.31,-214.8 1304.69,-214.8 1304.69,-178.8 1431.31,-178.8 1431.31,-214.8"/>
<text text-anchor="middle" x="1368" y="-192.6" font-family="Times,serif" font-size="14.00">BsEditSavedQuery </text>
</g>
<!-- BsSavedQueriesModule&#45;&gt;BsEditSavedQuery  -->
<g id="edge14" class="edge">
<title>BsSavedQueriesModule&#45;&gt;BsEditSavedQuery </title>
<path fill="none" stroke="black" stroke-dasharray="5,2" d="M897.29,-137.8C1040.7,-137.8 1336.17,-137.8 1336.17,-137.8 1336.17,-137.8 1336.17,-168.78 1336.17,-168.78"/>
<polygon fill="black" stroke="black" points="1332.67,-168.78 1336.17,-178.78 1339.67,-168.78 1332.67,-168.78"/>
</g>
<!-- BsExportQuery  -->
<g id="node15" class="node">
<title>BsExportQuery </title>
<polygon fill="#fb8072" stroke="black" points="1286.87,-214.8 1179.13,-214.8 1179.13,-178.8 1286.87,-178.8 1286.87,-214.8"/>
<text text-anchor="middle" x="1233" y="-192.6" font-family="Times,serif" font-size="14.00">BsExportQuery </text>
</g>
<!-- BsSavedQueriesModule&#45;&gt;BsExportQuery  -->
<g id="edge15" class="edge">
<title>BsSavedQueriesModule&#45;&gt;BsExportQuery </title>
<path fill="none" stroke="black" stroke-dasharray="5,2" d="M897.15,-141.8C1005.95,-141.8 1192.87,-141.8 1192.87,-141.8 1192.87,-141.8 1192.87,-168.79 1192.87,-168.79"/>
<polygon fill="black" stroke="black" points="1189.37,-168.79 1192.87,-178.79 1196.37,-168.79 1189.37,-168.79"/>
</g>
<!-- BsFacetRecentDocuments  -->
<g id="node16" class="node">
<title>BsFacetRecentDocuments </title>
<polygon fill="#fb8072" stroke="black" points="1161.73,-214.8 994.27,-214.8 994.27,-178.8 1161.73,-178.8 1161.73,-214.8"/>
<text text-anchor="middle" x="1078" y="-192.6" font-family="Times,serif" font-size="14.00">BsFacetRecentDocuments </text>
</g>
<!-- BsSavedQueriesModule&#45;&gt;BsFacetRecentDocuments  -->
<g id="edge16" class="edge">
<title>BsSavedQueriesModule&#45;&gt;BsFacetRecentDocuments </title>
<path fill="none" stroke="black" stroke-dasharray="5,2" d="M897.31,-145.8C954.2,-145.8 1022.1,-145.8 1022.1,-145.8 1022.1,-145.8 1022.1,-168.68 1022.1,-168.68"/>
<polygon fill="black" stroke="black" points="1018.6,-168.68 1022.1,-178.68 1025.6,-168.68 1018.6,-168.68"/>
</g>
<!-- BsFacetRecentQueries  -->
<g id="node17" class="node">
<title>BsFacetRecentQueries </title>
<polygon fill="#fb8072" stroke="black" points="976.5,-214.8 829.5,-214.8 829.5,-178.8 976.5,-178.8 976.5,-214.8"/>
<text text-anchor="middle" x="903" y="-192.6" font-family="Times,serif" font-size="14.00">BsFacetRecentQueries </text>
</g>
<!-- BsSavedQueriesModule&#45;&gt;BsFacetRecentQueries  -->
<g id="edge17" class="edge">
<title>BsSavedQueriesModule&#45;&gt;BsFacetRecentQueries </title>
<path fill="none" stroke="black" stroke-dasharray="5,2" d="M863.27,-149.91C863.27,-149.91 863.27,-168.79 863.27,-168.79"/>
<polygon fill="black" stroke="black" points="859.77,-168.79 863.27,-178.79 866.77,-168.79 859.77,-168.79"/>
</g>
<!-- BsFacetSavedQueries  -->
<g id="node18" class="node">
<title>BsFacetSavedQueries </title>
<polygon fill="#fb8072" stroke="black" points="811.34,-214.8 668.66,-214.8 668.66,-178.8 811.34,-178.8 811.34,-214.8"/>
<text text-anchor="middle" x="740" y="-192.6" font-family="Times,serif" font-size="14.00">BsFacetSavedQueries </text>
</g>
<!-- BsSavedQueriesModule&#45;&gt;BsFacetSavedQueries  -->
<g id="edge18" class="edge">
<title>BsSavedQueriesModule&#45;&gt;BsFacetSavedQueries </title>
<path fill="none" stroke="black" stroke-dasharray="5,2" d="M778.07,-149.91C778.07,-149.91 778.07,-168.79 778.07,-168.79"/>
<polygon fill="black" stroke="black" points="774.57,-168.79 778.07,-178.79 781.57,-168.79 774.57,-168.79"/>
</g>
<!-- BsManageSavedQueries  -->
<g id="node19" class="node">
<title>BsManageSavedQueries </title>
<polygon fill="#fb8072" stroke="black" points="650.61,-214.8 493.39,-214.8 493.39,-178.8 650.61,-178.8 650.61,-214.8"/>
<text text-anchor="middle" x="572" y="-192.6" font-family="Times,serif" font-size="14.00">BsManageSavedQueries </text>
</g>
<!-- BsSavedQueriesModule&#45;&gt;BsManageSavedQueries  -->
<g id="edge19" class="edge">
<title>BsSavedQueriesModule&#45;&gt;BsManageSavedQueries </title>
<path fill="none" stroke="black" stroke-dasharray="5,2" d="M744.68,-145.8C678.97,-145.8 594.65,-145.8 594.65,-145.8 594.65,-145.8 594.65,-168.68 594.65,-168.68"/>
<polygon fill="black" stroke="black" points="591.15,-168.68 594.65,-178.68 598.15,-168.68 591.15,-168.68"/>
</g>
<!-- BsQueryExporter  -->
<g id="node20" class="node">
<title>BsQueryExporter </title>
<polygon fill="#fb8072" stroke="black" points="475.24,-214.8 356.76,-214.8 356.76,-178.8 475.24,-178.8 475.24,-214.8"/>
<text text-anchor="middle" x="416" y="-192.6" font-family="Times,serif" font-size="14.00">BsQueryExporter </text>
</g>
<!-- BsSavedQueriesModule&#45;&gt;BsQueryExporter  -->
<g id="edge20" class="edge">
<title>BsSavedQueriesModule&#45;&gt;BsQueryExporter </title>
<path fill="none" stroke="black" stroke-dasharray="5,2" d="M744.61,-141.8C633.11,-141.8 438.95,-141.8 438.95,-141.8 438.95,-141.8 438.95,-168.79 438.95,-168.79"/>
<polygon fill="black" stroke="black" points="435.45,-168.79 438.95,-178.79 442.45,-168.79 435.45,-168.79"/>
</g>
<!-- BsSavedQueriesMenuComponent  -->
<g id="node21" class="node">
<title>BsSavedQueriesMenuComponent </title>
<polygon fill="#fb8072" stroke="black" points="339.02,-214.8 128.98,-214.8 128.98,-178.8 339.02,-178.8 339.02,-214.8"/>
<text text-anchor="middle" x="234" y="-192.6" font-family="Times,serif" font-size="14.00">BsSavedQueriesMenuComponent </text>
</g>
<!-- BsSavedQueriesModule&#45;&gt;BsSavedQueriesMenuComponent  -->
<g id="edge21" class="edge">
<title>BsSavedQueriesModule&#45;&gt;BsSavedQueriesMenuComponent </title>
<path fill="none" stroke="black" stroke-dasharray="5,2" d="M744.77,-137.8C601.49,-137.8 306.28,-137.8 306.28,-137.8 306.28,-137.8 306.28,-168.78 306.28,-168.78"/>
<polygon fill="black" stroke="black" points="302.78,-168.78 306.28,-178.78 309.78,-168.78 302.78,-168.78"/>
</g>
<!-- BsActionModule -->
<g id="node10" class="node">
<title>BsActionModule</title>
<polygon fill="#8dd3c7" stroke="black" points="515.43,-84.8 512.43,-88.8 491.43,-88.8 488.43,-84.8 402.57,-84.8 402.57,-48.8 515.43,-48.8 515.43,-84.8"/>
<text text-anchor="middle" x="459" y="-62.6" font-family="Times,serif" font-size="14.00">BsActionModule</text>
</g>
<!-- BsActionModule&#45;&gt;BsSavedQueriesModule -->
<g id="edge9" class="edge">
<title>BsActionModule&#45;&gt;BsSavedQueriesModule</title>
<path fill="none" stroke="black" d="M504.33,-84.92C504.33,-99.58 504.33,-117.8 504.33,-117.8 504.33,-117.8 734.75,-117.8 734.75,-117.8"/>
<polygon fill="black" stroke="black" points="734.75,-121.3 744.75,-117.8 734.75,-114.3 734.75,-121.3"/>
</g>
<!-- BsModalModule -->
<g id="node11" class="node">
<title>BsModalModule</title>
<polygon fill="#8dd3c7" stroke="black" points="384.38,-84.8 381.38,-88.8 360.38,-88.8 357.38,-84.8 273.62,-84.8 273.62,-48.8 384.38,-48.8 384.38,-84.8"/>
<text text-anchor="middle" x="329" y="-62.6" font-family="Times,serif" font-size="14.00">BsModalModule</text>
</g>
<!-- BsModalModule&#45;&gt;BsSavedQueriesModule -->
<g id="edge10" class="edge">
<title>BsModalModule&#45;&gt;BsSavedQueriesModule</title>
<path fill="none" stroke="black" d="M366.07,-84.82C366.07,-102.17 366.07,-125.8 366.07,-125.8 366.07,-125.8 734.85,-125.8 734.85,-125.8"/>
<polygon fill="black" stroke="black" points="734.85,-129.3 744.85,-125.8 734.85,-122.3 734.85,-129.3"/>
</g>
<!-- BsModalModule&#45;&gt;BsSavedQueriesModule -->
<g id="edge11" class="edge">
<title>BsModalModule&#45;&gt;BsSavedQueriesModule</title>
<path fill="none" stroke="black" d="M375.25,-84.81C375.25,-100.85 375.25,-121.8 375.25,-121.8 375.25,-121.8 734.88,-121.8 734.88,-121.8"/>
<polygon fill="black" stroke="black" points="734.88,-125.3 744.88,-121.8 734.88,-118.3 734.88,-125.3"/>
</g>
<!-- BsSelectionModule -->
<g id="node12" class="node">
<title>BsSelectionModule</title>
<polygon fill="#8dd3c7" stroke="black" points="255.43,-84.8 252.43,-88.8 231.43,-88.8 228.43,-84.8 128.57,-84.8 128.57,-48.8 255.43,-48.8 255.43,-84.8"/>
<text text-anchor="middle" x="192" y="-62.6" font-family="Times,serif" font-size="14.00">BsSelectionModule</text>
</g>
<!-- BsSelectionModule&#45;&gt;BsSavedQueriesModule -->
<g id="edge12" class="edge">
<title>BsSelectionModule&#45;&gt;BsSavedQueriesModule</title>
<path fill="none" stroke="black" d="M192.1,-85.02C192.1,-103.63 192.1,-129.8 192.1,-129.8 192.1,-129.8 734.83,-129.8 734.83,-129.8"/>
<polygon fill="black" stroke="black" points="734.83,-133.3 744.83,-129.8 734.83,-126.3 734.83,-133.3"/>
</g>
<!-- UtilsModule -->
<g id="node13" class="node">
<title>UtilsModule</title>
<polygon fill="#8dd3c7" stroke="black" points="110.27,-84.8 107.27,-88.8 86.27,-88.8 83.27,-84.8 23.73,-84.8 23.73,-48.8 110.27,-48.8 110.27,-84.8"/>
<text text-anchor="middle" x="67" y="-62.6" font-family="Times,serif" font-size="14.00">UtilsModule</text>
</g>
<!-- UtilsModule&#45;&gt;BsSavedQueriesModule -->
<g id="edge13" class="edge">
<title>UtilsModule&#45;&gt;BsSavedQueriesModule</title>
<path fill="none" stroke="black" d="M67,-85.11C67,-104.95 67,-133.8 67,-133.8 67,-133.8 734.9,-133.8 734.9,-133.8"/>
<polygon fill="black" stroke="black" points="734.9,-137.3 744.9,-133.8 734.9,-130.3 734.9,-137.3"/>
</g>
</g>
</svg>
