<?xml version="1.0" encoding="UTF-8" standalone="no"?>
<!DOCTYPE svg PUBLIC "-//W3C//DTD SVG 1.1//EN"
 "http://www.w3.org/Graphics/SVG/1.1/DTD/svg11.dtd">
<!-- Generated by graphviz version 2.40.1 (20161225.0304)
 -->
<!-- Title: dependencies Pages: 1 -->
<svg width="683pt" height="211pt"
 viewBox="0.00 0.00 683.00 211.00" xmlns="http://www.w3.org/2000/svg" xmlns:xlink="http://www.w3.org/1999/xlink">
<g id="graph0" class="graph" transform="scale(1 1) rotate(0) translate(4 207)">
<title>dependencies</title>
<polygon fill="#ffffff" stroke="transparent" points="-4,4 -4,-207 679,-207 679,4 -4,4"/>
<text text-anchor="start" x="316.5091" y="-42.4" font-family="sans-serif" font-weight="bold" font-size="14.00" fill="#000000">Legend</text>
<polygon fill="#ffffb3" stroke="transparent" points="103.5,-10 103.5,-30 123.5,-30 123.5,-10 103.5,-10"/>
<text text-anchor="start" x="127.129" y="-15.4" font-family="sans-serif" font-size="14.00" fill="#000000"> &#160;Declarations</text>
<polygon fill="#8dd3c7" stroke="transparent" points="216.5,-10 216.5,-30 236.5,-30 236.5,-10 216.5,-10"/>
<text text-anchor="start" x="240.2251" y="-15.4" font-family="sans-serif" font-size="14.00" fill="#000000"> &#160;Module</text>
<polygon fill="#80b1d3" stroke="transparent" points="302.5,-10 302.5,-30 322.5,-30 322.5,-10 302.5,-10"/>
<text text-anchor="start" x="326.2812" y="-15.4" font-family="sans-serif" font-size="14.00" fill="#000000"> &#160;Bootstrap</text>
<polygon fill="#fdb462" stroke="transparent" points="399.5,-10 399.5,-30 419.5,-30 419.5,-10 399.5,-10"/>
<text text-anchor="start" x="423.1732" y="-15.4" font-family="sans-serif" font-size="14.00" fill="#000000"> &#160;Providers</text>
<polygon fill="#fb8072" stroke="transparent" points="495.5,-10 495.5,-30 515.5,-30 515.5,-10 495.5,-10"/>
<text text-anchor="start" x="519.2258" y="-15.4" font-family="sans-serif" font-size="14.00" fill="#000000"> &#160;Exports</text>
<g id="clust1" class="cluster">
<title>cluster_AppUtilsModule</title>
<polygon fill="none" stroke="#000000" stroke-dasharray="1,5" points="8,-70 8,-195 667,-195 667,-70 8,-70"/>
</g>
<g id="clust3" class="cluster">
<title>cluster_AppUtilsModule_imports</title>
<polygon fill="none" stroke="#000000" points="308,-78 308,-130 659,-130 659,-78 308,-78"/>
</g>
<g id="clust6" class="cluster">
<title>cluster_AppUtilsModule_providers</title>
<polygon fill="none" stroke="#000000" points="16,-78 16,-130 300,-130 300,-78 16,-78"/>
</g>
<!-- BaseModule -->
<g id="node1" class="node">
<title>BaseModule</title>
<polygon fill="#8dd3c7" stroke="#000000" points="651.2605,-122 648.2605,-126 627.2605,-126 624.2605,-122 564.7395,-122 564.7395,-86 651.2605,-86 651.2605,-122"/>
<text text-anchor="middle" x="608" y="-99.8" font-family="Times,serif" font-size="14.00" fill="#000000">BaseModule</text>
</g>
<!-- AppUtilsModule -->
<g id="node4" class="node">
<title>AppUtilsModule</title>
<polygon fill="#8dd3c7" stroke="#000000" points="438.3795,-187 435.3795,-191 414.3795,-191 411.3795,-187 327.6205,-187 327.6205,-151 438.3795,-151 438.3795,-187"/>
<text text-anchor="middle" x="383" y="-164.8" font-family="Times,serif" font-size="14.00" fill="#000000">AppUtilsModule</text>
</g>
<!-- BaseModule&#45;&gt;AppUtilsModule -->
<g id="edge1" class="edge">
<title>BaseModule&#45;&gt;AppUtilsModule</title>
<path fill="none" stroke="#000000" d="M608,-122.2843C608,-143.3211 608,-175 608,-175 608,-175 448.618,-175 448.618,-175"/>
<polygon fill="#000000" stroke="#000000" points="448.618,-171.5001 438.618,-175 448.618,-178.5001 448.618,-171.5001"/>
</g>
<!-- IntlModule -->
<g id="node2" class="node">
<title>IntlModule</title>
<polygon fill="#8dd3c7" stroke="#000000" points="546.4916,-122 543.4916,-126 522.4916,-126 519.4916,-122 467.5084,-122 467.5084,-86 546.4916,-86 546.4916,-122"/>
<text text-anchor="middle" x="507" y="-99.8" font-family="Times,serif" font-size="14.00" fill="#000000">IntlModule</text>
</g>
<!-- IntlModule&#45;&gt;AppUtilsModule -->
<g id="edge2" class="edge">
<title>IntlModule&#45;&gt;AppUtilsModule</title>
<path fill="none" stroke="#000000" d="M507,-122.0225C507,-139.3734 507,-163 507,-163 507,-163 448.4717,-163 448.4717,-163"/>
<polygon fill="#000000" stroke="#000000" points="448.4717,-159.5001 438.4717,-163 448.4717,-166.5001 448.4717,-159.5001"/>
</g>
<!-- WebServicesModule -->
<g id="node3" class="node">
<title>WebServicesModule</title>
<polygon fill="#8dd3c7" stroke="#000000" points="449.9018,-122 446.9018,-126 425.9018,-126 422.9018,-122 316.0982,-122 316.0982,-86 449.9018,-86 449.9018,-122"/>
<text text-anchor="middle" x="383" y="-99.8" font-family="Times,serif" font-size="14.00" fill="#000000">WebServicesModule</text>
</g>
<!-- WebServicesModule&#45;&gt;AppUtilsModule -->
<g id="edge3" class="edge">
<title>WebServicesModule&#45;&gt;AppUtilsModule</title>
<path fill="none" stroke="#000000" d="M383,-122.1061C383,-122.1061 383,-140.991 383,-140.991"/>
<polygon fill="#000000" stroke="#000000" points="379.5001,-140.9909 383,-150.991 386.5001,-140.991 379.5001,-140.9909"/>
</g>
<!-- AppService -->
<g id="node5" class="node">
<title>AppService</title>
<ellipse fill="#fdb462" stroke="#000000" cx="235" cy="-104" rx="56.7406" ry="18"/>
<text text-anchor="middle" x="235" y="-99.8" font-family="Times,serif" font-size="14.00" fill="#000000">AppService</text>
</g>
<!-- AppService&#45;&gt;AppUtilsModule -->
<g id="edge4" class="edge">
<title>AppService&#45;&gt;AppUtilsModule</title>
<path fill="none" stroke="#000000" d="M235,-122.0225C235,-139.3734 235,-163 235,-163 235,-163 317.4692,-163 317.4692,-163"/>
<polygon fill="#000000" stroke="#000000" points="317.4692,-166.5001 327.4692,-163 317.4692,-159.5001 317.4692,-166.5001"/>
</g>
<!-- FormatService -->
<g id="node6" class="node">
<title>FormatService</title>
<ellipse fill="#fdb462" stroke="#000000" cx="92" cy="-104" rx="67.7721" ry="18"/>
<text text-anchor="middle" x="92" y="-99.8" font-family="Times,serif" font-size="14.00" fill="#000000">FormatService</text>
</g>
<!-- FormatService&#45;&gt;AppUtilsModule -->
<g id="edge5" class="edge">
<title>FormatService&#45;&gt;AppUtilsModule</title>
<path fill="none" stroke="#000000" d="M92,-122.2843C92,-143.3211 92,-175 92,-175 92,-175 317.5802,-175 317.5802,-175"/>
<polygon fill="#000000" stroke="#000000" points="317.5802,-178.5001 327.5802,-175 317.5801,-171.5001 317.5802,-178.5001"/>
</g>
</g>
</svg>
