<?xml version="1.0" encoding="UTF-8" standalone="no"?>
<!DOCTYPE svg PUBLIC "-//W3C//DTD SVG 1.1//EN"
 "http://www.w3.org/Graphics/SVG/1.1/DTD/svg11.dtd">
<!-- Generated by graphviz version 2.47.3 (20210619.1520)
 -->
<!-- Title: dependencies Pages: 1 -->
<svg width="851pt" height="174pt"
 viewBox="0.00 0.00 851.00 173.80" xmlns="http://www.w3.org/2000/svg" xmlns:xlink="http://www.w3.org/1999/xlink">
<g id="graph0" class="graph" transform="scale(1 1) rotate(0) translate(4 169.8)">
<title>dependencies</title>
<polygon fill="white" stroke="transparent" points="-4,4 -4,-169.8 847,-169.8 847,4 -4,4"/>
<text text-anchor="middle" x="421.5" y="-8.2" font-family="sans-serif" font-size="14.00">dependencies</text>
<g id="clust1" class="cluster">
<title>cluster_AppUtilsModule</title>
<polygon fill="none" stroke="black" stroke-dasharray="1,5" points="8,-32.8 8,-157.8 835,-157.8 835,-32.8 8,-32.8"/>
</g>
<g id="clust3" class="cluster">
<title>cluster_AppUtilsModule_imports</title>
<polygon fill="none" stroke="black" points="476,-40.8 476,-92.8 827,-92.8 827,-40.8 476,-40.8"/>
</g>
<g id="clust6" class="cluster">
<title>cluster_AppUtilsModule_providers</title>
<polygon fill="none" stroke="black" points="16,-40.8 16,-92.8 468,-92.8 468,-40.8 16,-40.8"/>
</g>
<!-- BaseModule -->
<g id="node1" class="node">
<title>BaseModule</title>
<polygon fill="#8dd3c7" stroke="black" points="819.26,-84.8 816.26,-88.8 795.26,-88.8 792.26,-84.8 732.74,-84.8 732.74,-48.8 819.26,-48.8 819.26,-84.8"/>
<text text-anchor="middle" x="776" y="-62.6" font-family="Times,serif" font-size="14.00">BaseModule</text>
</g>
<!-- AppUtilsModule -->
<g id="node4" class="node">
<title>AppUtilsModule</title>
<polygon fill="#8dd3c7" stroke="black" points="532.38,-149.8 529.38,-153.8 508.38,-153.8 505.38,-149.8 421.62,-149.8 421.62,-113.8 532.38,-113.8 532.38,-149.8"/>
<text text-anchor="middle" x="477" y="-127.6" font-family="Times,serif" font-size="14.00">AppUtilsModule</text>
</g>
<!-- BaseModule&#45;&gt;AppUtilsModule -->
<g id="edge1" class="edge">
<title>BaseModule&#45;&gt;AppUtilsModule</title>
<path fill="none" stroke="black" d="M776,-85.08C776,-106.12 776,-137.8 776,-137.8 776,-137.8 542.54,-137.8 542.54,-137.8"/>
<polygon fill="black" stroke="black" points="542.54,-134.3 532.54,-137.8 542.54,-141.3 542.54,-134.3"/>
</g>
<!-- IntlModule -->
<g id="node2" class="node">
<title>IntlModule</title>
<polygon fill="#8dd3c7" stroke="black" points="714.49,-84.8 711.49,-88.8 690.49,-88.8 687.49,-84.8 635.51,-84.8 635.51,-48.8 714.49,-48.8 714.49,-84.8"/>
<text text-anchor="middle" x="675" y="-62.6" font-family="Times,serif" font-size="14.00">IntlModule</text>
</g>
<!-- IntlModule&#45;&gt;AppUtilsModule -->
<g id="edge2" class="edge">
<title>IntlModule&#45;&gt;AppUtilsModule</title>
<path fill="none" stroke="black" d="M675,-84.82C675,-102.17 675,-125.8 675,-125.8 675,-125.8 542.42,-125.8 542.42,-125.8"/>
<polygon fill="black" stroke="black" points="542.42,-122.3 532.42,-125.8 542.42,-129.3 542.42,-122.3"/>
</g>
<!-- WebServicesModule -->
<g id="node3" class="node">
<title>WebServicesModule</title>
<polygon fill="#8dd3c7" stroke="black" points="617.9,-84.8 614.9,-88.8 593.9,-88.8 590.9,-84.8 484.1,-84.8 484.1,-48.8 617.9,-48.8 617.9,-84.8"/>
<text text-anchor="middle" x="551" y="-62.6" font-family="Times,serif" font-size="14.00">WebServicesModule</text>
</g>
<!-- WebServicesModule&#45;&gt;AppUtilsModule -->
<g id="edge3" class="edge">
<title>WebServicesModule&#45;&gt;AppUtilsModule</title>
<path fill="none" stroke="black" d="M508.37,-84.91C508.37,-84.91 508.37,-103.79 508.37,-103.79"/>
<polygon fill="black" stroke="black" points="504.87,-103.79 508.37,-113.79 511.87,-103.79 504.87,-103.79"/>
</g>
<!-- AppService -->
<g id="node5" class="node">
<title>AppService</title>
<ellipse fill="#fdb462" stroke="black" cx="403" cy="-66.8" rx="56.74" ry="18"/>
<text text-anchor="middle" x="403" y="-62.6" font-family="Times,serif" font-size="14.00">AppService</text>
</g>
<!-- AppService&#45;&gt;AppUtilsModule -->
<g id="edge4" class="edge">
<title>AppService&#45;&gt;AppUtilsModule</title>
<path fill="none" stroke="black" d="M440.59,-80.27C440.59,-80.27 440.59,-103.66 440.59,-103.66"/>
<polygon fill="black" stroke="black" points="437.09,-103.66 440.59,-113.66 444.09,-103.66 437.09,-103.66"/>
</g>
<!-- AuditInterceptor -->
<g id="node6" class="node">
<title>AuditInterceptor</title>
<ellipse fill="#fdb462" stroke="black" cx="253" cy="-66.8" rx="75.28" ry="18"/>
<text text-anchor="middle" x="253" y="-62.6" font-family="Times,serif" font-size="14.00">AuditInterceptor</text>
</g>
<!-- AuditInterceptor&#45;&gt;AppUtilsModule -->
<g id="edge5" class="edge">
<title>AuditInterceptor&#45;&gt;AppUtilsModule</title>
<path fill="none" stroke="black" d="M253,-84.82C253,-102.17 253,-125.8 253,-125.8 253,-125.8 411.34,-125.8 411.34,-125.8"/>
<polygon fill="black" stroke="black" points="411.34,-129.3 421.34,-125.8 411.34,-122.3 411.34,-129.3"/>
</g>
<!-- FormatService -->
<g id="node7" class="node">
<title>FormatService</title>
<ellipse fill="#fdb462" stroke="black" cx="92" cy="-66.8" rx="67.77" ry="18"/>
<text text-anchor="middle" x="92" y="-62.6" font-family="Times,serif" font-size="14.00">FormatService</text>
</g>
<!-- FormatService&#45;&gt;AppUtilsModule -->
<g id="edge6" class="edge">
<title>FormatService&#45;&gt;AppUtilsModule</title>
<path fill="none" stroke="black" d="M92,-85.08C92,-106.12 92,-137.8 92,-137.8 92,-137.8 411.43,-137.8 411.43,-137.8"/>
<polygon fill="black" stroke="black" points="411.43,-141.3 421.43,-137.8 411.43,-134.3 411.43,-141.3"/>
</g>
</g>
</svg>
