<?xml version="1.0" encoding="UTF-8" standalone="no"?>
<!DOCTYPE svg PUBLIC "-//W3C//DTD SVG 1.1//EN"
 "http://www.w3.org/Graphics/SVG/1.1/DTD/svg11.dtd">
<!-- Generated by graphviz version 2.40.1 (20161225.0304)
 -->
<!-- Title: dependencies Pages: 1 -->
<svg width="851pt" height="211pt"
 viewBox="0.00 0.00 851.00 211.00" xmlns="http://www.w3.org/2000/svg" xmlns:xlink="http://www.w3.org/1999/xlink">
<g id="graph0" class="graph" transform="scale(1 1) rotate(0) translate(4 207)">
<title>dependencies</title>
<polygon fill="#ffffff" stroke="transparent" points="-4,4 -4,-207 847,-207 847,4 -4,4"/>
<text text-anchor="start" x="400.5091" y="-42.4" font-family="sans-serif" font-weight="bold" font-size="14.00" fill="#000000">Legend</text>
<polygon fill="#ffffb3" stroke="transparent" points="187.5,-10 187.5,-30 207.5,-30 207.5,-10 187.5,-10"/>
<text text-anchor="start" x="211.129" y="-15.4" font-family="sans-serif" font-size="14.00" fill="#000000"> &#160;Declarations</text>
<polygon fill="#8dd3c7" stroke="transparent" points="300.5,-10 300.5,-30 320.5,-30 320.5,-10 300.5,-10"/>
<text text-anchor="start" x="324.2251" y="-15.4" font-family="sans-serif" font-size="14.00" fill="#000000"> &#160;Module</text>
<polygon fill="#80b1d3" stroke="transparent" points="386.5,-10 386.5,-30 406.5,-30 406.5,-10 386.5,-10"/>
<text text-anchor="start" x="410.2812" y="-15.4" font-family="sans-serif" font-size="14.00" fill="#000000"> &#160;Bootstrap</text>
<polygon fill="#fdb462" stroke="transparent" points="483.5,-10 483.5,-30 503.5,-30 503.5,-10 483.5,-10"/>
<text text-anchor="start" x="507.1732" y="-15.4" font-family="sans-serif" font-size="14.00" fill="#000000"> &#160;Providers</text>
<polygon fill="#fb8072" stroke="transparent" points="579.5,-10 579.5,-30 599.5,-30 599.5,-10 579.5,-10"/>
<text text-anchor="start" x="603.2258" y="-15.4" font-family="sans-serif" font-size="14.00" fill="#000000"> &#160;Exports</text>
<g id="clust1" class="cluster">
<title>cluster_AppUtilsModule</title>
<polygon fill="none" stroke="#000000" stroke-dasharray="1,5" points="8,-70 8,-195 835,-195 835,-70 8,-70"/>
</g>
<g id="clust3" class="cluster">
<title>cluster_AppUtilsModule_imports</title>
<polygon fill="none" stroke="#000000" points="476,-78 476,-130 827,-130 827,-78 476,-78"/>
</g>
<g id="clust6" class="cluster">
<title>cluster_AppUtilsModule_providers</title>
<polygon fill="none" stroke="#000000" points="16,-78 16,-130 468,-130 468,-78 16,-78"/>
</g>
<!-- BaseModule -->
<g id="node1" class="node">
<title>BaseModule</title>
<polygon fill="#8dd3c7" stroke="#000000" points="819.2605,-122 816.2605,-126 795.2605,-126 792.2605,-122 732.7395,-122 732.7395,-86 819.2605,-86 819.2605,-122"/>
<text text-anchor="middle" x="776" y="-99.8" font-family="Times,serif" font-size="14.00" fill="#000000">BaseModule</text>
</g>
<!-- AppUtilsModule -->
<g id="node4" class="node">
<title>AppUtilsModule</title>
<polygon fill="#8dd3c7" stroke="#000000" points="532.3795,-187 529.3795,-191 508.3795,-191 505.3795,-187 421.6205,-187 421.6205,-151 532.3795,-151 532.3795,-187"/>
<text text-anchor="middle" x="477" y="-164.8" font-family="Times,serif" font-size="14.00" fill="#000000">AppUtilsModule</text>
</g>
<!-- BaseModule&#45;&gt;AppUtilsModule -->
<g id="edge1" class="edge">
<title>BaseModule&#45;&gt;AppUtilsModule</title>
<path fill="none" stroke="#000000" d="M776,-122.2843C776,-143.3211 776,-175 776,-175 776,-175 542.5389,-175 542.5389,-175"/>
<polygon fill="#000000" stroke="#000000" points="542.5389,-171.5001 532.5389,-175 542.5388,-178.5001 542.5389,-171.5001"/>
</g>
<!-- IntlModule -->
<g id="node2" class="node">
<title>IntlModule</title>
<polygon fill="#8dd3c7" stroke="#000000" points="714.4916,-122 711.4916,-126 690.4916,-126 687.4916,-122 635.5084,-122 635.5084,-86 714.4916,-86 714.4916,-122"/>
<text text-anchor="middle" x="675" y="-99.8" font-family="Times,serif" font-size="14.00" fill="#000000">IntlModule</text>
</g>
<!-- IntlModule&#45;&gt;AppUtilsModule -->
<g id="edge2" class="edge">
<title>IntlModule&#45;&gt;AppUtilsModule</title>
<path fill="none" stroke="#000000" d="M675,-122.0225C675,-139.3734 675,-163 675,-163 675,-163 542.4173,-163 542.4173,-163"/>
<polygon fill="#000000" stroke="#000000" points="542.4174,-159.5001 532.4173,-163 542.4173,-166.5001 542.4174,-159.5001"/>
</g>
<!-- WebServicesModule -->
<g id="node3" class="node">
<title>WebServicesModule</title>
<polygon fill="#8dd3c7" stroke="#000000" points="617.9018,-122 614.9018,-126 593.9018,-126 590.9018,-122 484.0982,-122 484.0982,-86 617.9018,-86 617.9018,-122"/>
<text text-anchor="middle" x="551" y="-99.8" font-family="Times,serif" font-size="14.00" fill="#000000">WebServicesModule</text>
</g>
<!-- WebServicesModule&#45;&gt;AppUtilsModule -->
<g id="edge3" class="edge">
<title>WebServicesModule&#45;&gt;AppUtilsModule</title>
<path fill="none" stroke="#000000" d="M508.3696,-122.1061C508.3696,-122.1061 508.3696,-140.991 508.3696,-140.991"/>
<polygon fill="#000000" stroke="#000000" points="504.8696,-140.9909 508.3696,-150.991 511.8696,-140.991 504.8696,-140.9909"/>
</g>
<!-- AppService -->
<g id="node5" class="node">
<title>AppService</title>
<ellipse fill="#fdb462" stroke="#000000" cx="403" cy="-104" rx="56.7406" ry="18"/>
<text text-anchor="middle" x="403" y="-99.8" font-family="Times,serif" font-size="14.00" fill="#000000">AppService</text>
</g>
<!-- AppService&#45;&gt;AppUtilsModule -->
<g id="edge4" class="edge">
<title>AppService&#45;&gt;AppUtilsModule</title>
<path fill="none" stroke="#000000" d="M440.5902,-117.468C440.5902,-117.468 440.5902,-140.8642 440.5902,-140.8642"/>
<polygon fill="#000000" stroke="#000000" points="437.0903,-140.8641 440.5902,-150.8642 444.0903,-140.8642 437.0903,-140.8641"/>
</g>
<!-- AuditInterceptor -->
<g id="node6" class="node">
<title>AuditInterceptor</title>
<ellipse fill="#fdb462" stroke="#000000" cx="253" cy="-104" rx="75.279" ry="18"/>
<text text-anchor="middle" x="253" y="-99.8" font-family="Times,serif" font-size="14.00" fill="#000000">AuditInterceptor</text>
</g>
<!-- AuditInterceptor&#45;&gt;AppUtilsModule -->
<g id="edge5" class="edge">
<title>AuditInterceptor&#45;&gt;AppUtilsModule</title>
<path fill="none" stroke="#000000" d="M253,-122.0225C253,-139.3734 253,-163 253,-163 253,-163 411.3414,-163 411.3414,-163"/>
<polygon fill="#000000" stroke="#000000" points="411.3414,-166.5001 421.3414,-163 411.3414,-159.5001 411.3414,-166.5001"/>
</g>
<!-- FormatService -->
<g id="node7" class="node">
<title>FormatService</title>
<ellipse fill="#fdb462" stroke="#000000" cx="92" cy="-104" rx="67.7721" ry="18"/>
<text text-anchor="middle" x="92" y="-99.8" font-family="Times,serif" font-size="14.00" fill="#000000">FormatService</text>
</g>
<!-- FormatService&#45;&gt;AppUtilsModule -->
<g id="edge6" class="edge">
<title>FormatService&#45;&gt;AppUtilsModule</title>
<path fill="none" stroke="#000000" d="M92,-122.2843C92,-143.3211 92,-175 92,-175 92,-175 411.4289,-175 411.4289,-175"/>
<polygon fill="#000000" stroke="#000000" points="411.4289,-178.5001 421.4289,-175 411.4288,-171.5001 411.4289,-178.5001"/>
</g>
</g>
</svg>
