<?xml version="1.0" encoding="UTF-8" standalone="no"?>
<!DOCTYPE svg PUBLIC "-//W3C//DTD SVG 1.1//EN"
 "http://www.w3.org/Graphics/SVG/1.1/DTD/svg11.dtd">
<!-- Generated by graphviz version 2.47.3 (20210619.1520)
 -->
<!-- Title: dependencies Pages: 1 -->
<svg width="391pt" height="174pt"
 viewBox="0.00 0.00 391.00 173.80" xmlns="http://www.w3.org/2000/svg" xmlns:xlink="http://www.w3.org/1999/xlink">
<g id="graph0" class="graph" transform="scale(1 1) rotate(0) translate(4 169.8)">
<title>dependencies</title>
<polygon fill="white" stroke="transparent" points="-4,4 -4,-169.8 387,-169.8 387,4 -4,4"/>
<text text-anchor="middle" x="191.5" y="-8.2" font-family="sans-serif" font-size="14.00">dependencies</text>
<g id="clust1" class="cluster">
<title>cluster_AppUtilsModule</title>
<polygon fill="none" stroke="black" stroke-dasharray="1,5" points="8,-32.8 8,-157.8 375,-157.8 375,-32.8 8,-32.8"/>
</g>
<g id="clust3" class="cluster">
<title>cluster_AppUtilsModule_imports</title>
<polygon fill="none" stroke="black" points="16,-40.8 16,-92.8 367,-92.8 367,-40.8 16,-40.8"/>
</g>
<!-- BaseModule -->
<g id="node1" class="node">
<title>BaseModule</title>
<polygon fill="#8dd3c7" stroke="black" points="359.26,-84.8 356.26,-88.8 335.26,-88.8 332.26,-84.8 272.74,-84.8 272.74,-48.8 359.26,-48.8 359.26,-84.8"/>
<text text-anchor="middle" x="316" y="-62.6" font-family="Times,serif" font-size="14.00">BaseModule</text>
</g>
<!-- AppUtilsModule -->
<g id="node4" class="node">
<title>AppUtilsModule</title>
<polygon fill="#8dd3c7" stroke="black" points="270.38,-149.8 267.38,-153.8 246.38,-153.8 243.38,-149.8 159.62,-149.8 159.62,-113.8 270.38,-113.8 270.38,-149.8"/>
<text text-anchor="middle" x="215" y="-127.6" font-family="Times,serif" font-size="14.00">AppUtilsModule</text>
</g>
<!-- BaseModule&#45;&gt;AppUtilsModule -->
<g id="edge1" class="edge">
<title>BaseModule&#45;&gt;AppUtilsModule</title>
<path fill="none" stroke="black" d="M272.29,-66.8C266.47,-66.8 262.47,-66.8 262.47,-66.8 262.47,-66.8 262.47,-103.69 262.47,-103.69"/>
<polygon fill="black" stroke="black" points="258.97,-103.69 262.47,-113.69 265.97,-103.69 258.97,-103.69"/>
</g>
<!-- IntlModule -->
<g id="node2" class="node">
<title>IntlModule</title>
<polygon fill="#8dd3c7" stroke="black" points="254.49,-84.8 251.49,-88.8 230.49,-88.8 227.49,-84.8 175.51,-84.8 175.51,-48.8 254.49,-48.8 254.49,-84.8"/>
<text text-anchor="middle" x="215" y="-62.6" font-family="Times,serif" font-size="14.00">IntlModule</text>
</g>
<!-- IntlModule&#45;&gt;AppUtilsModule -->
<g id="edge2" class="edge">
<title>IntlModule&#45;&gt;AppUtilsModule</title>
<path fill="none" stroke="black" d="M215,-84.91C215,-84.91 215,-103.79 215,-103.79"/>
<polygon fill="black" stroke="black" points="211.5,-103.79 215,-113.79 218.5,-103.79 211.5,-103.79"/>
</g>
<!-- WebServicesModule -->
<g id="node3" class="node">
<title>WebServicesModule</title>
<polygon fill="#8dd3c7" stroke="black" points="157.9,-84.8 154.9,-88.8 133.9,-88.8 130.9,-84.8 24.1,-84.8 24.1,-48.8 157.9,-48.8 157.9,-84.8"/>
<text text-anchor="middle" x="91" y="-62.6" font-family="Times,serif" font-size="14.00">WebServicesModule</text>
</g>
<!-- WebServicesModule&#45;&gt;AppUtilsModule -->
<g id="edge3" class="edge">
<title>WebServicesModule&#45;&gt;AppUtilsModule</title>
<path fill="none" stroke="black" d="M157.84,-66.8C163.74,-66.8 167.53,-66.8 167.53,-66.8 167.53,-66.8 167.53,-103.69 167.53,-103.69"/>
<polygon fill="black" stroke="black" points="164.03,-103.69 167.53,-113.69 171.03,-103.69 164.03,-103.69"/>
</g>
</g>
</svg>
