<?xml version="1.0" encoding="UTF-8" standalone="no"?>
<!DOCTYPE svg PUBLIC "-//W3C//DTD SVG 1.1//EN"
 "http://www.w3.org/Graphics/SVG/1.1/DTD/svg11.dtd">
<!-- Generated by graphviz version 2.40.1 (20161225.0304)
 -->
<!-- Title: dependencies Pages: 1 -->
<svg width="1284pt" height="284pt"
 viewBox="0.00 0.00 1284.00 284.00" xmlns="http://www.w3.org/2000/svg" xmlns:xlink="http://www.w3.org/1999/xlink">
<g id="graph0" class="graph" transform="scale(1 1) rotate(0) translate(4 280)">
<title>dependencies</title>
<polygon fill="#ffffff" stroke="transparent" points="-4,4 -4,-280 1280,-280 1280,4 -4,4"/>
<text text-anchor="start" x="617.0091" y="-42.4" font-family="sans-serif" font-weight="bold" font-size="14.00" fill="#000000">Legend</text>
<polygon fill="#ffffb3" stroke="transparent" points="404,-10 404,-30 424,-30 424,-10 404,-10"/>
<text text-anchor="start" x="427.629" y="-15.4" font-family="sans-serif" font-size="14.00" fill="#000000"> &#160;Declarations</text>
<polygon fill="#8dd3c7" stroke="transparent" points="517,-10 517,-30 537,-30 537,-10 517,-10"/>
<text text-anchor="start" x="540.7251" y="-15.4" font-family="sans-serif" font-size="14.00" fill="#000000"> &#160;Module</text>
<polygon fill="#80b1d3" stroke="transparent" points="603,-10 603,-30 623,-30 623,-10 603,-10"/>
<text text-anchor="start" x="626.7812" y="-15.4" font-family="sans-serif" font-size="14.00" fill="#000000"> &#160;Bootstrap</text>
<polygon fill="#fdb462" stroke="transparent" points="700,-10 700,-30 720,-30 720,-10 700,-10"/>
<text text-anchor="start" x="723.6732" y="-15.4" font-family="sans-serif" font-size="14.00" fill="#000000"> &#160;Providers</text>
<polygon fill="#fb8072" stroke="transparent" points="796,-10 796,-30 816,-30 816,-10 796,-10"/>
<text text-anchor="start" x="819.7258" y="-15.4" font-family="sans-serif" font-size="14.00" fill="#000000"> &#160;Exports</text>
<g id="clust1" class="cluster">
<title>cluster_BsBasketsModule</title>
<polygon fill="none" stroke="#000000" stroke-dasharray="1,5" points="8,-70 8,-268 1268,-268 1268,-70 8,-70"/>
</g>
<g id="clust2" class="cluster">
<title>cluster_BsBasketsModule_declarations</title>
<polygon fill="none" stroke="#000000" points="386,-78 386,-130 1260,-130 1260,-78 386,-78"/>
</g>
<g id="clust9" class="cluster">
<title>cluster_BsBasketsModule_imports</title>
<polygon fill="none" stroke="#000000" points="16,-78 16,-130 378,-130 378,-78 16,-78"/>
</g>
<g id="clust10" class="cluster">
<title>cluster_BsBasketsModule_exports</title>
<polygon fill="none" stroke="#000000" points="163,-208 163,-260 1057,-260 1057,-208 163,-208"/>
</g>
<!-- BsBasketsMenuComponent -->
<g id="node1" class="node">
<title>BsBasketsMenuComponent</title>
<polygon fill="#ffffb3" stroke="#000000" points="1252.3187,-122 1079.6813,-122 1079.6813,-86 1252.3187,-86 1252.3187,-122"/>
<text text-anchor="middle" x="1166" y="-99.8" font-family="Times,serif" font-size="14.00" fill="#000000">BsBasketsMenuComponent</text>
</g>
<!-- BsBasketsModule -->
<g id="node7" class="node">
<title>BsBasketsModule</title>
<polygon fill="#8dd3c7" stroke="#000000" points="629.8767,-187 626.8767,-191 605.8767,-191 602.8767,-187 512.1233,-187 512.1233,-151 629.8767,-151 629.8767,-187"/>
<text text-anchor="middle" x="571" y="-164.8" font-family="Times,serif" font-size="14.00" fill="#000000">BsBasketsModule</text>
</g>
<!-- BsBasketsMenuComponent&#45;&gt;BsBasketsModule -->
<g id="edge1" class="edge">
<title>BsBasketsMenuComponent&#45;&gt;BsBasketsModule</title>
<path fill="none" stroke="#000000" d="M1166,-122.2228C1166,-142.3652 1166,-172 1166,-172 1166,-172 639.9524,-172 639.9524,-172"/>
<polygon fill="#000000" stroke="#000000" points="639.9525,-168.5001 629.9524,-172 639.9524,-175.5001 639.9525,-168.5001"/>
</g>
<!-- BsEditBasket -->
<g id="node2" class="node">
<title>BsEditBasket</title>
<polygon fill="#ffffb3" stroke="#000000" points="1062.2163,-122 969.7837,-122 969.7837,-86 1062.2163,-86 1062.2163,-122"/>
<text text-anchor="middle" x="1016" y="-99.8" font-family="Times,serif" font-size="14.00" fill="#000000">BsEditBasket</text>
</g>
<!-- BsEditBasket&#45;&gt;BsBasketsModule -->
<g id="edge2" class="edge">
<title>BsEditBasket&#45;&gt;BsBasketsModule</title>
<path fill="none" stroke="#000000" d="M1009.4006,-122.2222C1009.4006,-140.8285 1009.4006,-167 1009.4006,-167 1009.4006,-167 640.1247,-167 640.1247,-167"/>
<polygon fill="#000000" stroke="#000000" points="640.1247,-163.5001 630.1247,-167 640.1246,-170.5001 640.1247,-163.5001"/>
</g>
<!-- BsFacetBasketsComponent -->
<g id="node3" class="node">
<title>BsFacetBasketsComponent</title>
<polygon fill="#ffffb3" stroke="#000000" points="951.9762,-122 782.0238,-122 782.0238,-86 951.9762,-86 951.9762,-122"/>
<text text-anchor="middle" x="867" y="-99.8" font-family="Times,serif" font-size="14.00" fill="#000000">BsFacetBasketsComponent</text>
</g>
<!-- BsFacetBasketsComponent&#45;&gt;BsBasketsModule -->
<g id="edge3" class="edge">
<title>BsFacetBasketsComponent&#45;&gt;BsBasketsModule</title>
<path fill="none" stroke="#000000" d="M818.435,-122.0336C818.435,-139.0597 818.435,-162 818.435,-162 818.435,-162 639.9525,-162 639.9525,-162"/>
<polygon fill="#000000" stroke="#000000" points="639.9525,-158.5001 629.9525,-162 639.9524,-165.5001 639.9525,-158.5001"/>
</g>
<!-- BsManageBaskets -->
<g id="node4" class="node">
<title>BsManageBaskets</title>
<polygon fill="#ffffb3" stroke="#000000" points="763.9159,-122 644.0841,-122 644.0841,-86 763.9159,-86 763.9159,-122"/>
<text text-anchor="middle" x="704" y="-99.8" font-family="Times,serif" font-size="14.00" fill="#000000">BsManageBaskets</text>
</g>
<!-- BsManageBaskets&#45;&gt;BsBasketsModule -->
<g id="edge4" class="edge">
<title>BsManageBaskets&#45;&gt;BsBasketsModule</title>
<path fill="none" stroke="#000000" d="M692.5153,-122.2396C692.5153,-137.5706 692.5153,-157 692.5153,-157 692.5153,-157 639.9778,-157 639.9778,-157"/>
<polygon fill="#000000" stroke="#000000" points="639.9779,-153.5001 629.9778,-157 639.9778,-160.5001 639.9779,-153.5001"/>
</g>
<!-- BsResultBaskets -->
<g id="node5" class="node">
<title>BsResultBaskets</title>
<polygon fill="#ffffb3" stroke="#000000" points="626.1038,-122 515.8962,-122 515.8962,-86 626.1038,-86 626.1038,-122"/>
<text text-anchor="middle" x="571" y="-99.8" font-family="Times,serif" font-size="14.00" fill="#000000">BsResultBaskets</text>
</g>
<!-- BsResultBaskets&#45;&gt;BsBasketsModule -->
<g id="edge5" class="edge">
<title>BsResultBaskets&#45;&gt;BsBasketsModule</title>
<path fill="none" stroke="#000000" d="M571,-122.1061C571,-122.1061 571,-140.991 571,-140.991"/>
<polygon fill="#000000" stroke="#000000" points="567.5001,-140.9909 571,-150.991 574.5001,-140.991 567.5001,-140.9909"/>
</g>
<!-- BsSelectBasket -->
<g id="node6" class="node">
<title>BsSelectBasket</title>
<polygon fill="#ffffb3" stroke="#000000" points="497.5898,-122 394.4102,-122 394.4102,-86 497.5898,-86 497.5898,-122"/>
<text text-anchor="middle" x="446" y="-99.8" font-family="Times,serif" font-size="14.00" fill="#000000">BsSelectBasket</text>
</g>
<!-- BsSelectBasket&#45;&gt;BsBasketsModule -->
<g id="edge6" class="edge">
<title>BsSelectBasket&#45;&gt;BsBasketsModule</title>
<path fill="none" stroke="#000000" d="M462.0437,-122.2396C462.0437,-137.5706 462.0437,-157 462.0437,-157 462.0437,-157 502.0574,-157 502.0574,-157"/>
<polygon fill="#000000" stroke="#000000" points="502.0574,-160.5001 512.0574,-157 502.0573,-153.5001 502.0574,-160.5001"/>
</g>
<!-- BsBasketsMenuComponent  -->
<g id="node11" class="node">
<title>BsBasketsMenuComponent </title>
<polygon fill="#fb8072" stroke="#000000" points="1048.8185,-252 873.1815,-252 873.1815,-216 1048.8185,-216 1048.8185,-252"/>
<text text-anchor="middle" x="961" y="-229.8" font-family="Times,serif" font-size="14.00" fill="#000000">BsBasketsMenuComponent </text>
</g>
<!-- BsBasketsModule&#45;&gt;BsBasketsMenuComponent  -->
<g id="edge10" class="edge">
<title>BsBasketsModule&#45;&gt;BsBasketsMenuComponent </title>
<path fill="none" stroke="#000000" stroke-dasharray="5,2" d="M630.1017,-177C727.8548,-177 912.5395,-177 912.5395,-177 912.5395,-177 912.5395,-205.9648 912.5395,-205.9648"/>
<polygon fill="#000000" stroke="#000000" points="909.0395,-205.9648 912.5395,-215.9648 916.0395,-205.9649 909.0395,-205.9648"/>
</g>
<!-- BsEditBasket  -->
<g id="node12" class="node">
<title>BsEditBasket </title>
<polygon fill="#fb8072" stroke="#000000" points="854.7164,-252 759.2836,-252 759.2836,-216 854.7164,-216 854.7164,-252"/>
<text text-anchor="middle" x="807" y="-229.8" font-family="Times,serif" font-size="14.00" fill="#000000">BsEditBasket </text>
</g>
<!-- BsBasketsModule&#45;&gt;BsEditBasket  -->
<g id="edge11" class="edge">
<title>BsBasketsModule&#45;&gt;BsEditBasket </title>
<path fill="none" stroke="#000000" stroke-dasharray="5,2" d="M629.9288,-182C689.5105,-182 772.8598,-182 772.8598,-182 772.8598,-182 772.8598,-205.8129 772.8598,-205.8129"/>
<polygon fill="#000000" stroke="#000000" points="769.3598,-205.8129 772.8598,-215.8129 776.3598,-205.813 769.3598,-205.8129"/>
</g>
<!-- BsFacetBasketsComponent  -->
<g id="node13" class="node">
<title>BsFacetBasketsComponent </title>
<polygon fill="#fb8072" stroke="#000000" points="740.9769,-252 567.0231,-252 567.0231,-216 740.9769,-216 740.9769,-252"/>
<text text-anchor="middle" x="654" y="-229.8" font-family="Times,serif" font-size="14.00" fill="#000000">BsFacetBasketsComponent </text>
</g>
<!-- BsBasketsModule&#45;&gt;BsFacetBasketsComponent  -->
<g id="edge12" class="edge">
<title>BsBasketsModule&#45;&gt;BsFacetBasketsComponent </title>
<path fill="none" stroke="#000000" stroke-dasharray="5,2" d="M598.6001,-187.1061C598.6001,-187.1061 598.6001,-205.991 598.6001,-205.991"/>
<polygon fill="#000000" stroke="#000000" points="595.1002,-205.9909 598.6001,-215.991 602.1002,-205.991 595.1002,-205.9909"/>
</g>
<!-- BsManageBaskets  -->
<g id="node14" class="node">
<title>BsManageBaskets </title>
<polygon fill="#fb8072" stroke="#000000" points="549.4152,-252 426.5848,-252 426.5848,-216 549.4152,-216 549.4152,-252"/>
<text text-anchor="middle" x="488" y="-229.8" font-family="Times,serif" font-size="14.00" fill="#000000">BsManageBaskets </text>
</g>
<!-- BsBasketsModule&#45;&gt;BsManageBaskets  -->
<g id="edge13" class="edge">
<title>BsBasketsModule&#45;&gt;BsManageBaskets </title>
<path fill="none" stroke="#000000" stroke-dasharray="5,2" d="M530.7597,-187.1061C530.7597,-187.1061 530.7597,-205.991 530.7597,-205.991"/>
<polygon fill="#000000" stroke="#000000" points="527.2597,-205.9909 530.7597,-215.991 534.2597,-205.991 527.2597,-205.9909"/>
</g>
<!-- BsResultBaskets  -->
<g id="node15" class="node">
<title>BsResultBaskets </title>
<polygon fill="#fb8072" stroke="#000000" points="408.6045,-252 295.3955,-252 295.3955,-216 408.6045,-216 408.6045,-252"/>
<text text-anchor="middle" x="352" y="-229.8" font-family="Times,serif" font-size="14.00" fill="#000000">BsResultBaskets </text>
</g>
<!-- BsBasketsModule&#45;&gt;BsResultBaskets  -->
<g id="edge14" class="edge">
<title>BsBasketsModule&#45;&gt;BsResultBaskets </title>
<path fill="none" stroke="#000000" stroke-dasharray="5,2" d="M511.7621,-182C462.9202,-182 401.6285,-182 401.6285,-182 401.6285,-182 401.6285,-205.8129 401.6285,-205.8129"/>
<polygon fill="#000000" stroke="#000000" points="398.1286,-205.8129 401.6285,-215.8129 405.1286,-205.813 398.1286,-205.8129"/>
</g>
<!-- BsSelectBasket  -->
<g id="node16" class="node">
<title>BsSelectBasket </title>
<polygon fill="#fb8072" stroke="#000000" points="277.0906,-252 170.9094,-252 170.9094,-216 277.0906,-216 277.0906,-252"/>
<text text-anchor="middle" x="224" y="-229.8" font-family="Times,serif" font-size="14.00" fill="#000000">BsSelectBasket </text>
</g>
<!-- BsBasketsModule&#45;&gt;BsSelectBasket  -->
<g id="edge15" class="edge">
<title>BsBasketsModule&#45;&gt;BsSelectBasket </title>
<path fill="none" stroke="#000000" stroke-dasharray="5,2" d="M511.7693,-177C423.4566,-177 267.5391,-177 267.5391,-177 267.5391,-177 267.5391,-205.9648 267.5391,-205.9648"/>
<polygon fill="#000000" stroke="#000000" points="264.0392,-205.9648 267.5391,-215.9648 271.0392,-205.9649 264.0392,-205.9648"/>
</g>
<!-- BsActionModule -->
<g id="node8" class="node">
<title>BsActionModule</title>
<polygon fill="#8dd3c7" stroke="#000000" points="370.4342,-122 367.4342,-126 346.4342,-126 343.4342,-122 257.5658,-122 257.5658,-86 370.4342,-86 370.4342,-122"/>
<text text-anchor="middle" x="314" y="-99.8" font-family="Times,serif" font-size="14.00" fill="#000000">BsActionModule</text>
</g>
<!-- BsActionModule&#45;&gt;BsBasketsModule -->
<g id="edge7" class="edge">
<title>BsActionModule&#45;&gt;BsBasketsModule</title>
<path fill="none" stroke="#000000" d="M332.7074,-122.0336C332.7074,-139.0597 332.7074,-162 332.7074,-162 332.7074,-162 502.0962,-162 502.0962,-162"/>
<polygon fill="#000000" stroke="#000000" points="502.0962,-165.5001 512.0962,-162 502.0962,-158.5001 502.0962,-165.5001"/>
</g>
<!-- BsModalModule -->
<g id="node9" class="node">
<title>BsModalModule</title>
<polygon fill="#8dd3c7" stroke="#000000" points="239.3809,-122 236.3809,-126 215.3809,-126 212.3809,-122 128.6191,-122 128.6191,-86 239.3809,-86 239.3809,-122"/>
<text text-anchor="middle" x="184" y="-99.8" font-family="Times,serif" font-size="14.00" fill="#000000">BsModalModule</text>
</g>
<!-- BsModalModule&#45;&gt;BsBasketsModule -->
<g id="edge8" class="edge">
<title>BsModalModule&#45;&gt;BsBasketsModule</title>
<path fill="none" stroke="#000000" d="M205.0728,-122.2222C205.0728,-140.8285 205.0728,-167 205.0728,-167 205.0728,-167 501.8008,-167 501.8008,-167"/>
<polygon fill="#000000" stroke="#000000" points="501.8008,-170.5001 511.8008,-167 501.8007,-163.5001 501.8008,-170.5001"/>
</g>
<!-- UtilsModule -->
<g id="node10" class="node">
<title>UtilsModule</title>
<polygon fill="#8dd3c7" stroke="#000000" points="110.2731,-122 107.2731,-126 86.2731,-126 83.2731,-122 23.7269,-122 23.7269,-86 110.2731,-86 110.2731,-122"/>
<text text-anchor="middle" x="67" y="-99.8" font-family="Times,serif" font-size="14.00" fill="#000000">UtilsModule</text>
</g>
<!-- UtilsModule&#45;&gt;BsBasketsModule -->
<g id="edge9" class="edge">
<title>UtilsModule&#45;&gt;BsBasketsModule</title>
<path fill="none" stroke="#000000" d="M67,-122.2228C67,-142.3652 67,-172 67,-172 67,-172 501.7027,-172 501.7027,-172"/>
<polygon fill="#000000" stroke="#000000" points="501.7028,-175.5001 511.7027,-172 501.7027,-168.5001 501.7028,-175.5001"/>
</g>
</g>
</svg>
