<?xml version="1.0" encoding="UTF-8" standalone="no"?>
<!DOCTYPE svg PUBLIC "-//W3C//DTD SVG 1.1//EN"
 "http://www.w3.org/Graphics/SVG/1.1/DTD/svg11.dtd">
<!-- Generated by graphviz version 2.47.3 (20210619.1520)
 -->
<!-- Title: dependencies Pages: 1 -->
<svg width="1046pt" height="247pt"
 viewBox="0.00 0.00 1046.00 246.80" xmlns="http://www.w3.org/2000/svg" xmlns:xlink="http://www.w3.org/1999/xlink">
<g id="graph0" class="graph" transform="scale(1 1) rotate(0) translate(4 242.8)">
<title>dependencies</title>
<polygon fill="white" stroke="transparent" points="-4,4 -4,-242.8 1042,-242.8 1042,4 -4,4"/>
<text text-anchor="middle" x="519" y="-8.2" font-family="sans-serif" font-size="14.00">dependencies</text>
<g id="clust1" class="cluster">
<title>cluster_BsModalModule</title>
<polygon fill="none" stroke="black" stroke-dasharray="1,5" points="8,-32.8 8,-230.8 1030,-230.8 1030,-32.8 8,-32.8"/>
</g>
<g id="clust2" class="cluster">
<title>cluster_BsModalModule_declarations</title>
<polygon fill="none" stroke="black" points="126,-40.8 126,-92.8 1022,-92.8 1022,-40.8 126,-40.8"/>
</g>
<g id="clust12" class="cluster">
<title>cluster_BsModalModule_imports</title>
<polygon fill="none" stroke="black" points="16,-40.8 16,-92.8 118,-92.8 118,-40.8 16,-40.8"/>
</g>
<g id="clust13" class="cluster">
<title>cluster_BsModalModule_exports</title>
<polygon fill="none" stroke="black" points="55,-170.8 55,-222.8 982,-222.8 982,-170.8 55,-170.8"/>
</g>
<!-- BsConfirm -->
<g id="node1" class="node">
<title>BsConfirm</title>
<polygon fill="#ffffb3" stroke="black" points="1014.22,-84.8 935.78,-84.8 935.78,-48.8 1014.22,-48.8 1014.22,-84.8"/>
<text text-anchor="middle" x="975" y="-62.6" font-family="Times,serif" font-size="14.00">BsConfirm</text>
</g>
<!-- BsModalModule -->
<g id="node10" class="node">
<title>BsModalModule</title>
<polygon fill="#8dd3c7" stroke="black" points="630.38,-149.8 627.38,-153.8 606.38,-153.8 603.38,-149.8 519.62,-149.8 519.62,-113.8 630.38,-113.8 630.38,-149.8"/>
<text text-anchor="middle" x="575" y="-127.6" font-family="Times,serif" font-size="14.00">BsModalModule</text>
</g>
<!-- BsConfirm&#45;&gt;BsModalModule -->
<g id="edge1" class="edge">
<title>BsConfirm&#45;&gt;BsModalModule</title>
<path fill="none" stroke="black" d="M954.88,-84.91C954.88,-104.14 954.88,-131.8 954.88,-131.8 954.88,-131.8 640.64,-131.8 640.64,-131.8"/>
<polygon fill="black" stroke="black" points="640.64,-128.3 630.64,-131.8 640.64,-135.3 640.64,-128.3"/>
</g>
<!-- BsEditable -->
<g id="node2" class="node">
<title>BsEditable</title>
<polygon fill="#ffffb3" stroke="black" points="917.94,-84.8 840.06,-84.8 840.06,-48.8 917.94,-48.8 917.94,-84.8"/>
<text text-anchor="middle" x="879" y="-62.6" font-family="Times,serif" font-size="14.00">BsEditable</text>
</g>
<!-- BsEditable&#45;&gt;BsModalModule -->
<g id="edge2" class="edge">
<title>BsEditable&#45;&gt;BsModalModule</title>
<path fill="none" stroke="black" d="M857.38,-85.1C857.38,-103.07 857.38,-127.8 857.38,-127.8 857.38,-127.8 640.45,-127.8 640.45,-127.8"/>
<polygon fill="black" stroke="black" points="640.45,-124.3 630.45,-127.8 640.45,-131.3 640.45,-124.3"/>
</g>
<!-- BsHelp -->
<g id="node3" class="node">
<title>BsHelp</title>
<polygon fill="#ffffb3" stroke="black" points="821.99,-84.8 764.01,-84.8 764.01,-48.8 821.99,-48.8 821.99,-84.8"/>
<text text-anchor="middle" x="793" y="-62.6" font-family="Times,serif" font-size="14.00">BsHelp</text>
</g>
<!-- BsHelp&#45;&gt;BsModalModule -->
<g id="edge3" class="edge">
<title>BsHelp&#45;&gt;BsModalModule</title>
<path fill="none" stroke="black" d="M769.88,-84.83C769.88,-101.2 769.88,-122.8 769.88,-122.8 769.88,-122.8 640.58,-122.8 640.58,-122.8"/>
<polygon fill="black" stroke="black" points="640.58,-119.3 630.58,-122.8 640.58,-126.3 640.58,-119.3"/>
</g>
<!-- BsLogin -->
<g id="node4" class="node">
<title>BsLogin</title>
<polygon fill="#ffffb3" stroke="black" points="746.22,-84.8 681.78,-84.8 681.78,-48.8 746.22,-48.8 746.22,-84.8"/>
<text text-anchor="middle" x="714" y="-62.6" font-family="Times,serif" font-size="14.00">BsLogin</text>
</g>
<!-- BsLogin&#45;&gt;BsModalModule -->
<g id="edge4" class="edge">
<title>BsLogin&#45;&gt;BsModalModule</title>
<path fill="none" stroke="black" d="M688.88,-84.99C688.88,-99.98 688.88,-118.8 688.88,-118.8 688.88,-118.8 640.6,-118.8 640.6,-118.8"/>
<polygon fill="black" stroke="black" points="640.6,-115.3 630.6,-118.8 640.6,-122.3 640.6,-115.3"/>
</g>
<!-- BsModal -->
<g id="node5" class="node">
<title>BsModal</title>
<polygon fill="#ffffb3" stroke="black" points="663.83,-84.8 596.17,-84.8 596.17,-48.8 663.83,-48.8 663.83,-84.8"/>
<text text-anchor="middle" x="630" y="-62.6" font-family="Times,serif" font-size="14.00">BsModal</text>
</g>
<!-- BsModal&#45;&gt;BsModalModule -->
<g id="edge5" class="edge">
<title>BsModal&#45;&gt;BsModalModule</title>
<path fill="none" stroke="black" d="M613.39,-84.91C613.39,-84.91 613.39,-103.79 613.39,-103.79"/>
<polygon fill="black" stroke="black" points="609.89,-103.79 613.39,-113.79 616.89,-103.79 609.89,-103.79"/>
</g>
<!-- BsModalFooter -->
<g id="node6" class="node">
<title>BsModalFooter</title>
<polygon fill="#ffffb3" stroke="black" points="577.88,-84.8 474.12,-84.8 474.12,-48.8 577.88,-48.8 577.88,-84.8"/>
<text text-anchor="middle" x="526" y="-62.6" font-family="Times,serif" font-size="14.00">BsModalFooter</text>
</g>
<!-- BsModalFooter&#45;&gt;BsModalModule -->
<g id="edge6" class="edge">
<title>BsModalFooter&#45;&gt;BsModalModule</title>
<path fill="none" stroke="black" d="M548.75,-84.91C548.75,-84.91 548.75,-103.79 548.75,-103.79"/>
<polygon fill="black" stroke="black" points="545.25,-103.79 548.75,-113.79 552.25,-103.79 545.25,-103.79"/>
</g>
<!-- BsModalHeader -->
<g id="node7" class="node">
<title>BsModalHeader</title>
<polygon fill="#ffffb3" stroke="black" points="455.74,-84.8 348.26,-84.8 348.26,-48.8 455.74,-48.8 455.74,-84.8"/>
<text text-anchor="middle" x="402" y="-62.6" font-family="Times,serif" font-size="14.00">BsModalHeader</text>
</g>
<!-- BsModalHeader&#45;&gt;BsModalModule -->
<g id="edge7" class="edge">
<title>BsModalHeader&#45;&gt;BsModalModule</title>
<path fill="none" stroke="black" d="M435.09,-84.99C435.09,-99.98 435.09,-118.8 435.09,-118.8 435.09,-118.8 509.3,-118.8 509.3,-118.8"/>
<polygon fill="black" stroke="black" points="509.3,-122.3 519.3,-118.8 509.3,-115.3 509.3,-122.3"/>
</g>
<!-- BsOverrideUser -->
<g id="node8" class="node">
<title>BsOverrideUser</title>
<polygon fill="#ffffb3" stroke="black" points="330.46,-84.8 223.54,-84.8 223.54,-48.8 330.46,-48.8 330.46,-84.8"/>
<text text-anchor="middle" x="277" y="-62.6" font-family="Times,serif" font-size="14.00">BsOverrideUser</text>
</g>
<!-- BsOverrideUser&#45;&gt;BsModalModule -->
<g id="edge8" class="edge">
<title>BsOverrideUser&#45;&gt;BsModalModule</title>
<path fill="none" stroke="black" d="M307.93,-84.83C307.93,-101.2 307.93,-122.8 307.93,-122.8 307.93,-122.8 509.34,-122.8 509.34,-122.8"/>
<polygon fill="black" stroke="black" points="509.34,-126.3 519.34,-122.8 509.34,-119.3 509.34,-126.3"/>
</g>
<!-- BsPrompt -->
<g id="node9" class="node">
<title>BsPrompt</title>
<polygon fill="#ffffb3" stroke="black" points="206.01,-84.8 133.99,-84.8 133.99,-48.8 206.01,-48.8 206.01,-84.8"/>
<text text-anchor="middle" x="170" y="-62.6" font-family="Times,serif" font-size="14.00">BsPrompt</text>
</g>
<!-- BsPrompt&#45;&gt;BsModalModule -->
<g id="edge9" class="edge">
<title>BsPrompt&#45;&gt;BsModalModule</title>
<path fill="none" stroke="black" d="M181.39,-85.1C181.39,-103.07 181.39,-127.8 181.39,-127.8 181.39,-127.8 509.44,-127.8 509.44,-127.8"/>
<polygon fill="black" stroke="black" points="509.44,-131.3 519.44,-127.8 509.44,-124.3 509.44,-131.3"/>
</g>
<!-- BsConfirm  -->
<g id="node12" class="node">
<title>BsConfirm </title>
<polygon fill="#fb8072" stroke="black" points="973.72,-214.8 892.28,-214.8 892.28,-178.8 973.72,-178.8 973.72,-214.8"/>
<text text-anchor="middle" x="933" y="-192.6" font-family="Times,serif" font-size="14.00">BsConfirm </text>
</g>
<!-- BsModalModule&#45;&gt;BsConfirm  -->
<g id="edge11" class="edge">
<title>BsModalModule&#45;&gt;BsConfirm </title>
<path fill="none" stroke="black" stroke-dasharray="5,2" d="M630.59,-136.8C724.62,-136.8 904.93,-136.8 904.93,-136.8 904.93,-136.8 904.93,-168.8 904.93,-168.8"/>
<polygon fill="black" stroke="black" points="901.43,-168.8 904.93,-178.8 908.43,-168.8 901.43,-168.8"/>
</g>
<!-- BsEditable  -->
<g id="node13" class="node">
<title>BsEditable </title>
<polygon fill="#fb8072" stroke="black" points="874.43,-214.8 793.57,-214.8 793.57,-178.8 874.43,-178.8 874.43,-214.8"/>
<text text-anchor="middle" x="834" y="-192.6" font-family="Times,serif" font-size="14.00">BsEditable </text>
</g>
<!-- BsModalModule&#45;&gt;BsEditable  -->
<g id="edge12" class="edge">
<title>BsModalModule&#45;&gt;BsEditable </title>
<path fill="none" stroke="black" stroke-dasharray="5,2" d="M630.46,-140.8C699.3,-140.8 807.76,-140.8 807.76,-140.8 807.76,-140.8 807.76,-168.77 807.76,-168.77"/>
<polygon fill="black" stroke="black" points="804.26,-168.77 807.76,-178.77 811.26,-168.77 804.26,-168.77"/>
</g>
<!-- BsHelp  -->
<g id="node14" class="node">
<title>BsHelp </title>
<polygon fill="#fb8072" stroke="black" points="775.99,-214.8 714.01,-214.8 714.01,-178.8 775.99,-178.8 775.99,-214.8"/>
<text text-anchor="middle" x="745" y="-192.6" font-family="Times,serif" font-size="14.00">BsHelp </text>
</g>
<!-- BsModalModule&#45;&gt;BsHelp  -->
<g id="edge13" class="edge">
<title>BsModalModule&#45;&gt;BsHelp </title>
<path fill="none" stroke="black" stroke-dasharray="5,2" d="M630.59,-145.8C675.11,-145.8 730.18,-145.8 730.18,-145.8 730.18,-145.8 730.18,-168.68 730.18,-168.68"/>
<polygon fill="black" stroke="black" points="726.68,-168.68 730.18,-178.68 733.68,-168.68 726.68,-168.68"/>
</g>
<!-- BsLogin  -->
<g id="node15" class="node">
<title>BsLogin </title>
<polygon fill="#fb8072" stroke="black" points="695.72,-214.8 628.28,-214.8 628.28,-178.8 695.72,-178.8 695.72,-214.8"/>
<text text-anchor="middle" x="662" y="-192.6" font-family="Times,serif" font-size="14.00">BsLogin </text>
</g>
<!-- BsModalModule&#45;&gt;BsLogin  -->
<g id="edge14" class="edge">
<title>BsModalModule&#45;&gt;BsLogin </title>
<path fill="none" stroke="black" stroke-dasharray="5,2" d="M619.28,-149.91C619.28,-169.14 619.28,-196.8 619.28,-196.8 619.28,-196.8 620.14,-196.8 620.14,-196.8"/>
<polygon fill="black" stroke="black" points="617.92,-200.3 627.92,-196.8 617.92,-193.3 617.92,-200.3"/>
</g>
<!-- BsModal  -->
<g id="node16" class="node">
<title>BsModal </title>
<polygon fill="#fb8072" stroke="black" points="610.33,-214.8 539.67,-214.8 539.67,-178.8 610.33,-178.8 610.33,-214.8"/>
<text text-anchor="middle" x="575" y="-192.6" font-family="Times,serif" font-size="14.00">BsModal </text>
</g>
<!-- BsModalModule&#45;&gt;BsModal  -->
<g id="edge15" class="edge">
<title>BsModalModule&#45;&gt;BsModal </title>
<path fill="none" stroke="black" stroke-dasharray="5,2" d="M575,-149.91C575,-149.91 575,-168.79 575,-168.79"/>
<polygon fill="black" stroke="black" points="571.5,-168.79 575,-178.79 578.5,-168.79 571.5,-168.79"/>
</g>
<!-- BsModalFooter  -->
<g id="node17" class="node">
<title>BsModalFooter </title>
<polygon fill="#fb8072" stroke="black" points="521.88,-214.8 414.12,-214.8 414.12,-178.8 521.88,-178.8 521.88,-214.8"/>
<text text-anchor="middle" x="468" y="-192.6" font-family="Times,serif" font-size="14.00">BsModalFooter </text>
</g>
<!-- BsModalModule&#45;&gt;BsModalFooter  -->
<g id="edge16" class="edge">
<title>BsModalModule&#45;&gt;BsModalFooter </title>
<path fill="none" stroke="black" stroke-dasharray="5,2" d="M530.64,-149.91C530.64,-169.14 530.64,-196.8 530.64,-196.8 530.64,-196.8 529.77,-196.8 529.77,-196.8"/>
<polygon fill="black" stroke="black" points="531.93,-193.3 521.93,-196.8 531.93,-200.3 531.93,-193.3"/>
</g>
<!-- BsModalHeader  -->
<g id="node18" class="node">
<title>BsModalHeader </title>
<polygon fill="#fb8072" stroke="black" points="396.74,-214.8 285.26,-214.8 285.26,-178.8 396.74,-178.8 396.74,-214.8"/>
<text text-anchor="middle" x="341" y="-192.6" font-family="Times,serif" font-size="14.00">BsModalHeader </text>
</g>
<!-- BsModalModule&#45;&gt;BsModalHeader  -->
<g id="edge17" class="edge">
<title>BsModalModule&#45;&gt;BsModalHeader </title>
<path fill="none" stroke="black" stroke-dasharray="5,2" d="M519.36,-145.8C459.38,-145.8 372.38,-145.8 372.38,-145.8 372.38,-145.8 372.38,-168.68 372.38,-168.68"/>
<polygon fill="black" stroke="black" points="368.88,-168.68 372.38,-178.68 375.88,-168.68 368.88,-168.68"/>
</g>
<!-- BsOverrideUser  -->
<g id="node19" class="node">
<title>BsOverrideUser </title>
<polygon fill="#fb8072" stroke="black" points="267.46,-214.8 156.54,-214.8 156.54,-178.8 267.46,-178.8 267.46,-214.8"/>
<text text-anchor="middle" x="212" y="-192.6" font-family="Times,serif" font-size="14.00">BsOverrideUser </text>
</g>
<!-- BsModalModule&#45;&gt;BsOverrideUser  -->
<g id="edge18" class="edge">
<title>BsModalModule&#45;&gt;BsOverrideUser </title>
<path fill="none" stroke="black" stroke-dasharray="5,2" d="M519.46,-140.8C425.52,-140.8 245.38,-140.8 245.38,-140.8 245.38,-140.8 245.38,-168.77 245.38,-168.77"/>
<polygon fill="black" stroke="black" points="241.88,-168.77 245.38,-178.77 248.88,-168.77 241.88,-168.77"/>
</g>
<!-- BsPrompt  -->
<g id="node20" class="node">
<title>BsPrompt </title>
<polygon fill="#fb8072" stroke="black" points="138.51,-214.8 63.49,-214.8 63.49,-178.8 138.51,-178.8 138.51,-214.8"/>
<text text-anchor="middle" x="101" y="-192.6" font-family="Times,serif" font-size="14.00">BsPrompt </text>
</g>
<!-- BsModalModule&#45;&gt;BsPrompt  -->
<g id="edge19" class="edge">
<title>BsModalModule&#45;&gt;BsPrompt </title>
<path fill="none" stroke="black" stroke-dasharray="5,2" d="M519.48,-136.8C398.56,-136.8 122.19,-136.8 122.19,-136.8 122.19,-136.8 122.19,-168.8 122.19,-168.8"/>
<polygon fill="black" stroke="black" points="118.69,-168.8 122.19,-178.8 125.69,-168.8 118.69,-168.8"/>
</g>
<!-- UtilsModule -->
<g id="node11" class="node">
<title>UtilsModule</title>
<polygon fill="#8dd3c7" stroke="black" points="110.27,-84.8 107.27,-88.8 86.27,-88.8 83.27,-84.8 23.73,-84.8 23.73,-48.8 110.27,-48.8 110.27,-84.8"/>
<text text-anchor="middle" x="67" y="-62.6" font-family="Times,serif" font-size="14.00">UtilsModule</text>
</g>
<!-- UtilsModule&#45;&gt;BsModalModule -->
<g id="edge10" class="edge">
<title>UtilsModule&#45;&gt;BsModalModule</title>
<path fill="none" stroke="black" d="M86.82,-84.91C86.82,-104.14 86.82,-131.8 86.82,-131.8 86.82,-131.8 509.47,-131.8 509.47,-131.8"/>
<polygon fill="black" stroke="black" points="509.47,-135.3 519.47,-131.8 509.47,-128.3 509.47,-135.3"/>
</g>
</g>
</svg>
