<?xml version="1.0" encoding="UTF-8" standalone="no"?>
<!DOCTYPE svg PUBLIC "-//W3C//DTD SVG 1.1//EN"
 "http://www.w3.org/Graphics/SVG/1.1/DTD/svg11.dtd">
<!-- Generated by graphviz version 2.47.3 (20210619.1520)
 -->
<!-- Title: dependencies Pages: 1 -->
<svg width="1046pt" height="247pt"
 viewBox="0.00 0.00 1046.00 246.80" xmlns="http://www.w3.org/2000/svg" xmlns:xlink="http://www.w3.org/1999/xlink">
<g id="graph0" class="graph" transform="scale(1 1) rotate(0) translate(4 242.8)">
<title>dependencies</title>
<polygon fill="white" stroke="transparent" points="-4,4 -4,-242.8 1042,-242.8 1042,4 -4,4"/>
<text text-anchor="middle" x="519" y="-8.2" font-family="sans-serif" font-size="14.00">dependencies</text>
<g id="clust1" class="cluster">
<title>cluster_BsModalModule</title>
<polygon fill="none" stroke="black" stroke-dasharray="1,5" points="8,-32.8 8,-230.8 1030,-230.8 1030,-32.8 8,-32.8"/>
</g>
<g id="clust12" class="cluster">
<title>cluster_BsModalModule_imports</title>
<polygon fill="none" stroke="black" points="920,-40.8 920,-92.8 1022,-92.8 1022,-40.8 920,-40.8"/>
</g>
<g id="clust2" class="cluster">
<title>cluster_BsModalModule_declarations</title>
<polygon fill="none" stroke="black" points="16,-40.8 16,-92.8 912,-92.8 912,-40.8 16,-40.8"/>
</g>
<g id="clust13" class="cluster">
<title>cluster_BsModalModule_exports</title>
<polygon fill="none" stroke="black" points="50,-170.8 50,-222.8 977,-222.8 977,-170.8 50,-170.8"/>
</g>
<!-- BsConfirm -->
<g id="node1" class="node">
<title>BsConfirm</title>
<polygon fill="#ffffb3" stroke="black" points="904.22,-84.8 825.78,-84.8 825.78,-48.8 904.22,-48.8 904.22,-84.8"/>
<text text-anchor="middle" x="865" y="-62.6" font-family="Times,serif" font-size="14.00">BsConfirm</text>
</g>
<!-- BsModalModule -->
<g id="node10" class="node">
<title>BsModalModule</title>
<polygon fill="#8dd3c7" stroke="black" points="625.38,-149.8 622.38,-153.8 601.38,-153.8 598.38,-149.8 514.62,-149.8 514.62,-113.8 625.38,-113.8 625.38,-149.8"/>
<text text-anchor="middle" x="570" y="-127.6" font-family="Times,serif" font-size="14.00">BsModalModule</text>
</g>
<!-- BsConfirm&#45;&gt;BsModalModule -->
<g id="edge1" class="edge">
<title>BsConfirm&#45;&gt;BsModalModule</title>
<path fill="none" stroke="black" d="M847.68,-84.82C847.68,-102.17 847.68,-125.8 847.68,-125.8 847.68,-125.8 635.53,-125.8 635.53,-125.8"/>
<polygon fill="black" stroke="black" points="635.53,-122.3 625.53,-125.8 635.53,-129.3 635.53,-122.3"/>
</g>
<!-- BsEditable -->
<g id="node2" class="node">
<title>BsEditable</title>
<polygon fill="#ffffb3" stroke="black" points="807.94,-84.8 730.06,-84.8 730.06,-48.8 807.94,-48.8 807.94,-84.8"/>
<text text-anchor="middle" x="769" y="-62.6" font-family="Times,serif" font-size="14.00">BsEditable</text>
</g>
<!-- BsEditable&#45;&gt;BsModalModule -->
<g id="edge2" class="edge">
<title>BsEditable&#45;&gt;BsModalModule</title>
<path fill="none" stroke="black" d="M750.51,-84.81C750.51,-100.85 750.51,-121.8 750.51,-121.8 750.51,-121.8 635.63,-121.8 635.63,-121.8"/>
<polygon fill="black" stroke="black" points="635.63,-118.3 625.63,-121.8 635.63,-125.3 635.63,-118.3"/>
</g>
<!-- BsHelp -->
<g id="node3" class="node">
<title>BsHelp</title>
<polygon fill="#ffffb3" stroke="black" points="711.99,-84.8 654.01,-84.8 654.01,-48.8 711.99,-48.8 711.99,-84.8"/>
<text text-anchor="middle" x="683" y="-62.6" font-family="Times,serif" font-size="14.00">BsHelp</text>
</g>
<!-- BsHelp&#45;&gt;BsModalModule -->
<g id="edge3" class="edge">
<title>BsHelp&#45;&gt;BsModalModule</title>
<path fill="none" stroke="black" d="M672.43,-84.92C672.43,-99.58 672.43,-117.8 672.43,-117.8 672.43,-117.8 635.41,-117.8 635.41,-117.8"/>
<polygon fill="black" stroke="black" points="635.41,-114.3 625.41,-117.8 635.41,-121.3 635.41,-114.3"/>
</g>
<!-- BsLogin -->
<g id="node4" class="node">
<title>BsLogin</title>
<polygon fill="#ffffb3" stroke="black" points="636.22,-84.8 571.78,-84.8 571.78,-48.8 636.22,-48.8 636.22,-84.8"/>
<text text-anchor="middle" x="604" y="-62.6" font-family="Times,serif" font-size="14.00">BsLogin</text>
</g>
<!-- BsLogin&#45;&gt;BsModalModule -->
<g id="edge4" class="edge">
<title>BsLogin&#45;&gt;BsModalModule</title>
<path fill="none" stroke="black" d="M598.66,-84.91C598.66,-84.91 598.66,-103.79 598.66,-103.79"/>
<polygon fill="black" stroke="black" points="595.16,-103.79 598.66,-113.79 602.16,-103.79 595.16,-103.79"/>
</g>
<!-- BsModal -->
<g id="node5" class="node">
<title>BsModal</title>
<polygon fill="#ffffb3" stroke="black" points="553.83,-84.8 486.17,-84.8 486.17,-48.8 553.83,-48.8 553.83,-84.8"/>
<text text-anchor="middle" x="520" y="-62.6" font-family="Times,serif" font-size="14.00">BsModal</text>
</g>
<!-- BsModal&#45;&gt;BsModalModule -->
<g id="edge5" class="edge">
<title>BsModal&#45;&gt;BsModalModule</title>
<path fill="none" stroke="black" d="M534.11,-84.91C534.11,-84.91 534.11,-103.79 534.11,-103.79"/>
<polygon fill="black" stroke="black" points="530.61,-103.79 534.11,-113.79 537.61,-103.79 530.61,-103.79"/>
</g>
<!-- BsModalFooter -->
<g id="node6" class="node">
<title>BsModalFooter</title>
<polygon fill="#ffffb3" stroke="black" points="467.88,-84.8 364.12,-84.8 364.12,-48.8 467.88,-48.8 467.88,-84.8"/>
<text text-anchor="middle" x="416" y="-62.6" font-family="Times,serif" font-size="14.00">BsModalFooter</text>
</g>
<!-- BsModalFooter&#45;&gt;BsModalModule -->
<g id="edge6" class="edge">
<title>BsModalFooter&#45;&gt;BsModalModule</title>
<path fill="none" stroke="black" d="M438.62,-84.99C438.62,-99.98 438.62,-118.8 438.62,-118.8 438.62,-118.8 504.29,-118.8 504.29,-118.8"/>
<polygon fill="black" stroke="black" points="504.29,-122.3 514.29,-118.8 504.29,-115.3 504.29,-122.3"/>
</g>
<!-- BsModalHeader -->
<g id="node7" class="node">
<title>BsModalHeader</title>
<polygon fill="#ffffb3" stroke="black" points="345.74,-84.8 238.26,-84.8 238.26,-48.8 345.74,-48.8 345.74,-84.8"/>
<text text-anchor="middle" x="292" y="-62.6" font-family="Times,serif" font-size="14.00">BsModalHeader</text>
</g>
<!-- BsModalHeader&#45;&gt;BsModalModule -->
<g id="edge7" class="edge">
<title>BsModalHeader&#45;&gt;BsModalModule</title>
<path fill="none" stroke="black" d="M313.12,-84.83C313.12,-101.2 313.12,-122.8 313.12,-122.8 313.12,-122.8 504.58,-122.8 504.58,-122.8"/>
<polygon fill="black" stroke="black" points="504.58,-126.3 514.58,-122.8 504.58,-119.3 504.58,-126.3"/>
</g>
<!-- BsOverrideUser -->
<g id="node8" class="node">
<title>BsOverrideUser</title>
<polygon fill="#ffffb3" stroke="black" points="220.46,-84.8 113.54,-84.8 113.54,-48.8 220.46,-48.8 220.46,-84.8"/>
<text text-anchor="middle" x="167" y="-62.6" font-family="Times,serif" font-size="14.00">BsOverrideUser</text>
</g>
<!-- BsOverrideUser&#45;&gt;BsModalModule -->
<g id="edge8" class="edge">
<title>BsOverrideUser&#45;&gt;BsModalModule</title>
<path fill="none" stroke="black" d="M186.12,-85.1C186.12,-103.07 186.12,-127.8 186.12,-127.8 186.12,-127.8 504.59,-127.8 504.59,-127.8"/>
<polygon fill="black" stroke="black" points="504.59,-131.3 514.59,-127.8 504.59,-124.3 504.59,-131.3"/>
</g>
<!-- BsPrompt -->
<g id="node9" class="node">
<title>BsPrompt</title>
<polygon fill="#ffffb3" stroke="black" points="96.01,-84.8 23.99,-84.8 23.99,-48.8 96.01,-48.8 96.01,-84.8"/>
<text text-anchor="middle" x="60" y="-62.6" font-family="Times,serif" font-size="14.00">BsPrompt</text>
</g>
<!-- BsPrompt&#45;&gt;BsModalModule -->
<g id="edge9" class="edge">
<title>BsPrompt&#45;&gt;BsModalModule</title>
<path fill="none" stroke="black" d="M77.12,-84.91C77.12,-104.14 77.12,-131.8 77.12,-131.8 77.12,-131.8 504.42,-131.8 504.42,-131.8"/>
<polygon fill="black" stroke="black" points="504.42,-135.3 514.42,-131.8 504.42,-128.3 504.42,-135.3"/>
</g>
<!-- BsConfirm  -->
<g id="node12" class="node">
<title>BsConfirm </title>
<polygon fill="#fb8072" stroke="black" points="968.72,-214.8 887.28,-214.8 887.28,-178.8 968.72,-178.8 968.72,-214.8"/>
<text text-anchor="middle" x="928" y="-192.6" font-family="Times,serif" font-size="14.00">BsConfirm </text>
</g>
<!-- BsModalModule&#45;&gt;BsConfirm  -->
<g id="edge11" class="edge">
<title>BsModalModule&#45;&gt;BsConfirm </title>
<path fill="none" stroke="black" stroke-dasharray="5,2" d="M625.61,-133.8C718.61,-133.8 895.62,-133.8 895.62,-133.8 895.62,-133.8 895.62,-168.58 895.62,-168.58"/>
<polygon fill="black" stroke="black" points="892.13,-168.58 895.62,-178.58 899.13,-168.58 892.13,-168.58"/>
</g>
<!-- BsEditable  -->
<g id="node13" class="node">
<title>BsEditable </title>
<polygon fill="#fb8072" stroke="black" points="869.43,-214.8 788.57,-214.8 788.57,-178.8 869.43,-178.8 869.43,-214.8"/>
<text text-anchor="middle" x="829" y="-192.6" font-family="Times,serif" font-size="14.00">BsEditable </text>
</g>
<!-- BsModalModule&#45;&gt;BsEditable  -->
<g id="edge12" class="edge">
<title>BsModalModule&#45;&gt;BsEditable </title>
<path fill="none" stroke="black" stroke-dasharray="5,2" d="M625.51,-137.8C693.04,-137.8 798.12,-137.8 798.12,-137.8 798.12,-137.8 798.12,-168.78 798.12,-168.78"/>
<polygon fill="black" stroke="black" points="794.63,-168.78 798.12,-178.78 801.63,-168.78 794.63,-168.78"/>
</g>
<!-- BsHelp  -->
<g id="node14" class="node">
<title>BsHelp </title>
<polygon fill="#fb8072" stroke="black" points="770.99,-214.8 709.01,-214.8 709.01,-178.8 770.99,-178.8 770.99,-214.8"/>
<text text-anchor="middle" x="740" y="-192.6" font-family="Times,serif" font-size="14.00">BsHelp </text>
</g>
<!-- BsModalModule&#45;&gt;BsHelp  -->
<g id="edge13" class="edge">
<title>BsModalModule&#45;&gt;BsHelp </title>
<path fill="none" stroke="black" stroke-dasharray="5,2" d="M625.42,-141.8C668.56,-141.8 721.14,-141.8 721.14,-141.8 721.14,-141.8 721.14,-168.79 721.14,-168.79"/>
<polygon fill="black" stroke="black" points="717.64,-168.79 721.14,-178.79 724.64,-168.79 717.64,-168.79"/>
</g>
<!-- BsLogin  -->
<g id="node15" class="node">
<title>BsLogin </title>
<polygon fill="#fb8072" stroke="black" points="690.72,-214.8 623.28,-214.8 623.28,-178.8 690.72,-178.8 690.72,-214.8"/>
<text text-anchor="middle" x="657" y="-192.6" font-family="Times,serif" font-size="14.00">BsLogin </text>
</g>
<!-- BsModalModule&#45;&gt;BsLogin  -->
<g id="edge14" class="edge">
<title>BsModalModule&#45;&gt;BsLogin </title>
<path fill="none" stroke="black" stroke-dasharray="5,2" d="M625.59,-145.8C628.81,-145.8 630.78,-145.8 630.78,-145.8 630.78,-145.8 630.78,-168.68 630.78,-168.68"/>
<polygon fill="black" stroke="black" points="627.28,-168.68 630.78,-178.68 634.28,-168.68 627.28,-168.68"/>
</g>
<!-- BsModal  -->
<g id="node16" class="node">
<title>BsModal </title>
<polygon fill="#fb8072" stroke="black" points="605.33,-214.8 534.67,-214.8 534.67,-178.8 605.33,-178.8 605.33,-214.8"/>
<text text-anchor="middle" x="570" y="-192.6" font-family="Times,serif" font-size="14.00">BsModal </text>
</g>
<!-- BsModalModule&#45;&gt;BsModal  -->
<g id="edge15" class="edge">
<title>BsModalModule&#45;&gt;BsModal </title>
<path fill="none" stroke="black" stroke-dasharray="5,2" d="M570,-149.91C570,-149.91 570,-168.79 570,-168.79"/>
<polygon fill="black" stroke="black" points="566.5,-168.79 570,-178.79 573.5,-168.79 566.5,-168.79"/>
</g>
<!-- BsModalFooter  -->
<g id="node17" class="node">
<title>BsModalFooter </title>
<polygon fill="#fb8072" stroke="black" points="516.88,-214.8 409.12,-214.8 409.12,-178.8 516.88,-178.8 516.88,-214.8"/>
<text text-anchor="middle" x="463" y="-192.6" font-family="Times,serif" font-size="14.00">BsModalFooter </text>
</g>
<!-- BsModalModule&#45;&gt;BsModalFooter  -->
<g id="edge16" class="edge">
<title>BsModalModule&#45;&gt;BsModalFooter </title>
<path fill="none" stroke="black" stroke-dasharray="5,2" d="M525.64,-149.91C525.64,-169.14 525.64,-196.8 525.64,-196.8 525.64,-196.8 524.77,-196.8 524.77,-196.8"/>
<polygon fill="black" stroke="black" points="526.93,-193.3 516.93,-196.8 526.93,-200.3 526.93,-193.3"/>
</g>
<!-- BsModalHeader  -->
<g id="node18" class="node">
<title>BsModalHeader </title>
<polygon fill="#fb8072" stroke="black" points="391.74,-214.8 280.26,-214.8 280.26,-178.8 391.74,-178.8 391.74,-214.8"/>
<text text-anchor="middle" x="336" y="-192.6" font-family="Times,serif" font-size="14.00">BsModalHeader </text>
</g>
<!-- BsModalModule&#45;&gt;BsModalHeader  -->
<g id="edge17" class="edge">
<title>BsModalModule&#45;&gt;BsModalHeader </title>
<path fill="none" stroke="black" stroke-dasharray="5,2" d="M514.42,-145.8C457.67,-145.8 377.84,-145.8 377.84,-145.8 377.84,-145.8 377.84,-168.68 377.84,-168.68"/>
<polygon fill="black" stroke="black" points="374.34,-168.68 377.84,-178.68 381.34,-168.68 374.34,-168.68"/>
</g>
<!-- BsOverrideUser  -->
<g id="node19" class="node">
<title>BsOverrideUser </title>
<polygon fill="#fb8072" stroke="black" points="262.46,-214.8 151.54,-214.8 151.54,-178.8 262.46,-178.8 262.46,-214.8"/>
<text text-anchor="middle" x="207" y="-192.6" font-family="Times,serif" font-size="14.00">BsOverrideUser </text>
</g>
<!-- BsModalModule&#45;&gt;BsOverrideUser  -->
<g id="edge18" class="edge">
<title>BsModalModule&#45;&gt;BsOverrideUser </title>
<path fill="none" stroke="black" stroke-dasharray="5,2" d="M514.29,-140.8C422.66,-140.8 250.18,-140.8 250.18,-140.8 250.18,-140.8 250.18,-168.77 250.18,-168.77"/>
<polygon fill="black" stroke="black" points="246.68,-168.77 250.18,-178.77 253.68,-168.77 246.68,-168.77"/>
</g>
<!-- BsPrompt  -->
<g id="node20" class="node">
<title>BsPrompt </title>
<polygon fill="#fb8072" stroke="black" points="133.51,-214.8 58.49,-214.8 58.49,-178.8 133.51,-178.8 133.51,-214.8"/>
<text text-anchor="middle" x="96" y="-192.6" font-family="Times,serif" font-size="14.00">BsPrompt </text>
</g>
<!-- BsModalModule&#45;&gt;BsPrompt  -->
<g id="edge19" class="edge">
<title>BsModalModule&#45;&gt;BsPrompt </title>
<path fill="none" stroke="black" stroke-dasharray="5,2" d="M514.37,-136.8C394.72,-136.8 123.64,-136.8 123.64,-136.8 123.64,-136.8 123.64,-168.8 123.64,-168.8"/>
<polygon fill="black" stroke="black" points="120.14,-168.8 123.64,-178.8 127.14,-168.8 120.14,-168.8"/>
</g>
<!-- UtilsModule -->
<g id="node11" class="node">
<title>UtilsModule</title>
<polygon fill="#8dd3c7" stroke="black" points="1014.27,-84.8 1011.27,-88.8 990.27,-88.8 987.27,-84.8 927.73,-84.8 927.73,-48.8 1014.27,-48.8 1014.27,-84.8"/>
<text text-anchor="middle" x="971" y="-62.6" font-family="Times,serif" font-size="14.00">UtilsModule</text>
</g>
<!-- UtilsModule&#45;&gt;BsModalModule -->
<g id="edge10" class="edge">
<title>UtilsModule&#45;&gt;BsModalModule</title>
<path fill="none" stroke="black" d="M948.24,-85.02C948.24,-103.63 948.24,-129.8 948.24,-129.8 948.24,-129.8 635.4,-129.8 635.4,-129.8"/>
<polygon fill="black" stroke="black" points="635.4,-126.3 625.4,-129.8 635.4,-133.3 635.4,-126.3"/>
</g>
</g>
</svg>
