<?xml version="1.0" encoding="UTF-8" standalone="no"?>
<!DOCTYPE svg PUBLIC "-//W3C//DTD SVG 1.1//EN"
 "http://www.w3.org/Graphics/SVG/1.1/DTD/svg11.dtd">
<!-- Generated by graphviz version 2.40.1 (20161225.0304)
 -->
<!-- Title: dependencies Pages: 1 -->
<svg width="1046pt" height="284pt"
 viewBox="0.00 0.00 1046.00 284.00" xmlns="http://www.w3.org/2000/svg" xmlns:xlink="http://www.w3.org/1999/xlink">
<g id="graph0" class="graph" transform="scale(1 1) rotate(0) translate(4 280)">
<title>dependencies</title>
<polygon fill="#ffffff" stroke="transparent" points="-4,4 -4,-280 1042,-280 1042,4 -4,4"/>
<text text-anchor="start" x="498.0091" y="-42.4" font-family="sans-serif" font-weight="bold" font-size="14.00" fill="#000000">Legend</text>
<polygon fill="#ffffb3" stroke="transparent" points="285,-10 285,-30 305,-30 305,-10 285,-10"/>
<text text-anchor="start" x="308.629" y="-15.4" font-family="sans-serif" font-size="14.00" fill="#000000"> &#160;Declarations</text>
<polygon fill="#8dd3c7" stroke="transparent" points="398,-10 398,-30 418,-30 418,-10 398,-10"/>
<text text-anchor="start" x="421.7251" y="-15.4" font-family="sans-serif" font-size="14.00" fill="#000000"> &#160;Module</text>
<polygon fill="#80b1d3" stroke="transparent" points="484,-10 484,-30 504,-30 504,-10 484,-10"/>
<text text-anchor="start" x="507.7812" y="-15.4" font-family="sans-serif" font-size="14.00" fill="#000000"> &#160;Bootstrap</text>
<polygon fill="#fdb462" stroke="transparent" points="581,-10 581,-30 601,-30 601,-10 581,-10"/>
<text text-anchor="start" x="604.6732" y="-15.4" font-family="sans-serif" font-size="14.00" fill="#000000"> &#160;Providers</text>
<polygon fill="#fb8072" stroke="transparent" points="677,-10 677,-30 697,-30 697,-10 677,-10"/>
<text text-anchor="start" x="700.7258" y="-15.4" font-family="sans-serif" font-size="14.00" fill="#000000"> &#160;Exports</text>
<g id="clust1" class="cluster">
<title>cluster_BsModalModule</title>
<polygon fill="none" stroke="#000000" stroke-dasharray="1,5" points="8,-70 8,-268 1030,-268 1030,-70 8,-70"/>
</g>
<g id="clust2" class="cluster">
<title>cluster_BsModalModule_declarations</title>
<polygon fill="none" stroke="#000000" points="126,-78 126,-130 1022,-130 1022,-78 126,-78"/>
</g>
<g id="clust12" class="cluster">
<title>cluster_BsModalModule_imports</title>
<polygon fill="none" stroke="#000000" points="16,-78 16,-130 118,-130 118,-78 16,-78"/>
</g>
<g id="clust13" class="cluster">
<title>cluster_BsModalModule_exports</title>
<polygon fill="none" stroke="#000000" points="55,-208 55,-260 982,-260 982,-208 55,-208"/>
</g>
<!-- BsConfirm -->
<g id="node1" class="node">
<title>BsConfirm</title>
<polygon fill="#ffffb3" stroke="#000000" points="1014.2205,-122 935.7795,-122 935.7795,-86 1014.2205,-86 1014.2205,-122"/>
<text text-anchor="middle" x="975" y="-99.8" font-family="Times,serif" font-size="14.00" fill="#000000">BsConfirm</text>
</g>
<!-- BsModalModule -->
<g id="node10" class="node">
<title>BsModalModule</title>
<polygon fill="#8dd3c7" stroke="#000000" points="630.3809,-187 627.3809,-191 606.3809,-191 603.3809,-187 519.6191,-187 519.6191,-151 630.3809,-151 630.3809,-187"/>
<text text-anchor="middle" x="575" y="-164.8" font-family="Times,serif" font-size="14.00" fill="#000000">BsModalModule</text>
</g>
<!-- BsConfirm&#45;&gt;BsModalModule -->
<g id="edge1" class="edge">
<title>BsConfirm&#45;&gt;BsModalModule</title>
<path fill="none" stroke="#000000" d="M954.875,-122.1061C954.875,-141.3391 954.875,-169 954.875,-169 954.875,-169 640.6439,-169 640.6439,-169"/>
<polygon fill="#000000" stroke="#000000" points="640.6439,-165.5001 630.6439,-169 640.6439,-172.5001 640.6439,-165.5001"/>
</g>
<!-- BsEditable -->
<g id="node2" class="node">
<title>BsEditable</title>
<polygon fill="#ffffb3" stroke="#000000" points="917.936,-122 840.064,-122 840.064,-86 917.936,-86 917.936,-122"/>
<text text-anchor="middle" x="879" y="-99.8" font-family="Times,serif" font-size="14.00" fill="#000000">BsEditable</text>
</g>
<!-- BsEditable&#45;&gt;BsModalModule -->
<g id="edge2" class="edge">
<title>BsEditable&#45;&gt;BsModalModule</title>
<path fill="none" stroke="#000000" d="M857.375,-122.302C857.375,-140.2699 857.375,-165 857.375,-165 857.375,-165 640.4513,-165 640.4513,-165"/>
<polygon fill="#000000" stroke="#000000" points="640.4513,-161.5001 630.4513,-165 640.4513,-168.5001 640.4513,-161.5001"/>
</g>
<!-- BsHelp -->
<g id="node3" class="node">
<title>BsHelp</title>
<polygon fill="#ffffb3" stroke="#000000" points="821.993,-122 764.007,-122 764.007,-86 821.993,-86 821.993,-122"/>
<text text-anchor="middle" x="793" y="-99.8" font-family="Times,serif" font-size="14.00" fill="#000000">BsHelp</text>
</g>
<!-- BsHelp&#45;&gt;BsModalModule -->
<g id="edge3" class="edge">
<title>BsHelp&#45;&gt;BsModalModule</title>
<path fill="none" stroke="#000000" d="M769.875,-122.027C769.875,-138.3976 769.875,-160 769.875,-160 769.875,-160 640.5826,-160 640.5826,-160"/>
<polygon fill="#000000" stroke="#000000" points="640.5826,-156.5001 630.5826,-160 640.5825,-163.5001 640.5826,-156.5001"/>
</g>
<!-- BsLogin -->
<g id="node4" class="node">
<title>BsLogin</title>
<polygon fill="#ffffb3" stroke="#000000" points="746.2248,-122 681.7752,-122 681.7752,-86 746.2248,-86 746.2248,-122"/>
<text text-anchor="middle" x="714" y="-99.8" font-family="Times,serif" font-size="14.00" fill="#000000">BsLogin</text>
</g>
<!-- BsLogin&#45;&gt;BsModalModule -->
<g id="edge4" class="edge">
<title>BsLogin&#45;&gt;BsModalModule</title>
<path fill="none" stroke="#000000" d="M688.875,-122.1871C688.875,-137.1824 688.875,-156 688.875,-156 688.875,-156 640.6031,-156 640.6031,-156"/>
<polygon fill="#000000" stroke="#000000" points="640.6032,-152.5001 630.6031,-156 640.6031,-159.5001 640.6032,-152.5001"/>
</g>
<!-- BsModal -->
<g id="node5" class="node">
<title>BsModal</title>
<polygon fill="#ffffb3" stroke="#000000" points="663.8318,-122 596.1682,-122 596.1682,-86 663.8318,-86 663.8318,-122"/>
<text text-anchor="middle" x="630" y="-99.8" font-family="Times,serif" font-size="14.00" fill="#000000">BsModal</text>
</g>
<!-- BsModal&#45;&gt;BsModalModule -->
<g id="edge5" class="edge">
<title>BsModal&#45;&gt;BsModalModule</title>
<path fill="none" stroke="#000000" d="M613.3874,-122.1061C613.3874,-122.1061 613.3874,-140.991 613.3874,-140.991"/>
<polygon fill="#000000" stroke="#000000" points="609.8875,-140.9909 613.3874,-150.991 616.8875,-140.991 609.8875,-140.9909"/>
</g>
<!-- BsModalFooter -->
<g id="node6" class="node">
<title>BsModalFooter</title>
<polygon fill="#ffffb3" stroke="#000000" points="577.8795,-122 474.1205,-122 474.1205,-86 577.8795,-86 577.8795,-122"/>
<text text-anchor="middle" x="526" y="-99.8" font-family="Times,serif" font-size="14.00" fill="#000000">BsModalFooter</text>
</g>
<!-- BsModalFooter&#45;&gt;BsModalModule -->
<g id="edge6" class="edge">
<title>BsModalFooter&#45;&gt;BsModalModule</title>
<path fill="none" stroke="#000000" d="M548.7497,-122.1061C548.7497,-122.1061 548.7497,-140.991 548.7497,-140.991"/>
<polygon fill="#000000" stroke="#000000" points="545.2497,-140.9909 548.7497,-150.991 552.2497,-140.991 545.2497,-140.9909"/>
</g>
<!-- BsModalHeader -->
<g id="node7" class="node">
<title>BsModalHeader</title>
<polygon fill="#ffffb3" stroke="#000000" points="455.7423,-122 348.2577,-122 348.2577,-86 455.7423,-86 455.7423,-122"/>
<text text-anchor="middle" x="402" y="-99.8" font-family="Times,serif" font-size="14.00" fill="#000000">BsModalHeader</text>
</g>
<!-- BsModalHeader&#45;&gt;BsModalModule -->
<g id="edge7" class="edge">
<title>BsModalHeader&#45;&gt;BsModalModule</title>
<path fill="none" stroke="#000000" d="M435.0907,-122.1871C435.0907,-137.1824 435.0907,-156 435.0907,-156 435.0907,-156 509.3021,-156 509.3021,-156"/>
<polygon fill="#000000" stroke="#000000" points="509.3021,-159.5001 519.3021,-156 509.3021,-152.5001 509.3021,-159.5001"/>
</g>
<!-- BsOverrideUser -->
<g id="node8" class="node">
<title>BsOverrideUser</title>
<polygon fill="#ffffb3" stroke="#000000" points="330.4552,-122 223.5448,-122 223.5448,-86 330.4552,-86 330.4552,-122"/>
<text text-anchor="middle" x="277" y="-99.8" font-family="Times,serif" font-size="14.00" fill="#000000">BsOverrideUser</text>
</g>
<!-- BsOverrideUser&#45;&gt;BsModalModule -->
<g id="edge8" class="edge">
<title>BsOverrideUser&#45;&gt;BsModalModule</title>
<path fill="none" stroke="#000000" d="M307.9283,-122.027C307.9283,-138.3976 307.9283,-160 307.9283,-160 307.9283,-160 509.3381,-160 509.3381,-160"/>
<polygon fill="#000000" stroke="#000000" points="509.3381,-163.5001 519.3381,-160 509.3381,-156.5001 509.3381,-163.5001"/>
</g>
<!-- BsPrompt -->
<g id="node9" class="node">
<title>BsPrompt</title>
<polygon fill="#ffffb3" stroke="#000000" points="206.0056,-122 133.9944,-122 133.9944,-86 206.0056,-86 206.0056,-122"/>
<text text-anchor="middle" x="170" y="-99.8" font-family="Times,serif" font-size="14.00" fill="#000000">BsPrompt</text>
</g>
<!-- BsPrompt&#45;&gt;BsModalModule -->
<g id="edge9" class="edge">
<title>BsPrompt&#45;&gt;BsModalModule</title>
<path fill="none" stroke="#000000" d="M181.3876,-122.302C181.3876,-140.2699 181.3876,-165 181.3876,-165 181.3876,-165 509.4398,-165 509.4398,-165"/>
<polygon fill="#000000" stroke="#000000" points="509.4398,-168.5001 519.4398,-165 509.4398,-161.5001 509.4398,-168.5001"/>
</g>
<!-- BsConfirm  -->
<g id="node12" class="node">
<title>BsConfirm </title>
<polygon fill="#fb8072" stroke="#000000" points="973.7207,-252 892.2793,-252 892.2793,-216 973.7207,-216 973.7207,-252"/>
<text text-anchor="middle" x="933" y="-229.8" font-family="Times,serif" font-size="14.00" fill="#000000">BsConfirm </text>
</g>
<!-- BsModalModule&#45;&gt;BsConfirm  -->
<g id="edge11" class="edge">
<title>BsModalModule&#45;&gt;BsConfirm </title>
<path fill="none" stroke="#000000" stroke-dasharray="5,2" d="M630.5948,-174C724.6219,-174 904.9287,-174 904.9287,-174 904.9287,-174 904.9287,-205.998 904.9287,-205.998"/>
<polygon fill="#000000" stroke="#000000" points="901.4287,-205.998 904.9287,-215.998 908.4287,-205.9981 901.4287,-205.998"/>
</g>
<!-- BsEditable  -->
<g id="node13" class="node">
<title>BsEditable </title>
<polygon fill="#fb8072" stroke="#000000" points="874.4348,-252 793.5652,-252 793.5652,-216 874.4348,-216 874.4348,-252"/>
<text text-anchor="middle" x="834" y="-229.8" font-family="Times,serif" font-size="14.00" fill="#000000">BsEditable </text>
</g>
<!-- BsModalModule&#45;&gt;BsEditable  -->
<g id="edge12" class="edge">
<title>BsModalModule&#45;&gt;BsEditable </title>
<path fill="none" stroke="#000000" stroke-dasharray="5,2" d="M630.4572,-178C699.3041,-178 807.7646,-178 807.7646,-178 807.7646,-178 807.7646,-205.973 807.7646,-205.973"/>
<polygon fill="#000000" stroke="#000000" points="804.2646,-205.973 807.7646,-215.973 811.2646,-205.973 804.2646,-205.973"/>
</g>
<!-- BsHelp  -->
<g id="node14" class="node">
<title>BsHelp </title>
<polygon fill="#fb8072" stroke="#000000" points="775.995,-252 714.005,-252 714.005,-216 775.995,-216 775.995,-252"/>
<text text-anchor="middle" x="745" y="-229.8" font-family="Times,serif" font-size="14.00" fill="#000000">BsHelp </text>
</g>
<!-- BsModalModule&#45;&gt;BsHelp  -->
<g id="edge13" class="edge">
<title>BsModalModule&#45;&gt;BsHelp </title>
<path fill="none" stroke="#000000" stroke-dasharray="5,2" d="M630.5863,-183C675.1143,-183 730.1829,-183 730.1829,-183 730.1829,-183 730.1829,-205.8757 730.1829,-205.8757"/>
<polygon fill="#000000" stroke="#000000" points="726.6829,-205.8757 730.1829,-215.8757 733.6829,-205.8757 726.6829,-205.8757"/>
</g>
<!-- BsLogin  -->
<g id="node15" class="node">
<title>BsLogin </title>
<polygon fill="#fb8072" stroke="#000000" points="695.725,-252 628.275,-252 628.275,-216 695.725,-216 695.725,-252"/>
<text text-anchor="middle" x="662" y="-229.8" font-family="Times,serif" font-size="14.00" fill="#000000">BsLogin </text>
</g>
<!-- BsModalModule&#45;&gt;BsLogin  -->
<g id="edge14" class="edge">
<title>BsModalModule&#45;&gt;BsLogin </title>
<path fill="none" stroke="#000000" stroke-dasharray="5,2" d="M619.2767,-187.1061C619.2767,-206.3391 619.2767,-234 619.2767,-234 619.2767,-234 620.1412,-234 620.1412,-234"/>
<polygon fill="#000000" stroke="#000000" points="617.9224,-237.5001 627.9224,-234 617.9223,-230.5001 617.9224,-237.5001"/>
</g>
<!-- BsModal  -->
<g id="node16" class="node">
<title>BsModal </title>
<polygon fill="#fb8072" stroke="#000000" points="610.3312,-252 539.6688,-252 539.6688,-216 610.3312,-216 610.3312,-252"/>
<text text-anchor="middle" x="575" y="-229.8" font-family="Times,serif" font-size="14.00" fill="#000000">BsModal </text>
</g>
<!-- BsModalModule&#45;&gt;BsModal  -->
<g id="edge15" class="edge">
<title>BsModalModule&#45;&gt;BsModal </title>
<path fill="none" stroke="#000000" stroke-dasharray="5,2" d="M575,-187.1061C575,-187.1061 575,-205.991 575,-205.991"/>
<polygon fill="#000000" stroke="#000000" points="571.5001,-205.9909 575,-215.991 578.5001,-205.991 571.5001,-205.9909"/>
</g>
<!-- BsModalFooter  -->
<g id="node17" class="node">
<title>BsModalFooter </title>
<polygon fill="#fb8072" stroke="#000000" points="521.8801,-252 414.1199,-252 414.1199,-216 521.8801,-216 521.8801,-252"/>
<text text-anchor="middle" x="468" y="-229.8" font-family="Times,serif" font-size="14.00" fill="#000000">BsModalFooter </text>
</g>
<!-- BsModalModule&#45;&gt;BsModalFooter  -->
<g id="edge16" class="edge">
<title>BsModalModule&#45;&gt;BsModalFooter </title>
<path fill="none" stroke="#000000" stroke-dasharray="5,2" d="M530.6371,-187.1061C530.6371,-206.3391 530.6371,-234 530.6371,-234 530.6371,-234 529.7662,-234 529.7662,-234"/>
<polygon fill="#000000" stroke="#000000" points="531.9277,-230.5001 521.9277,-234 531.9276,-237.5001 531.9277,-230.5001"/>
</g>
<!-- BsModalHeader  -->
<g id="node18" class="node">
<title>BsModalHeader </title>
<polygon fill="#fb8072" stroke="#000000" points="396.7423,-252 285.2577,-252 285.2577,-216 396.7423,-216 396.7423,-252"/>
<text text-anchor="middle" x="341" y="-229.8" font-family="Times,serif" font-size="14.00" fill="#000000">BsModalHeader </text>
</g>
<!-- BsModalModule&#45;&gt;BsModalHeader  -->
<g id="edge17" class="edge">
<title>BsModalModule&#45;&gt;BsModalHeader </title>
<path fill="none" stroke="#000000" stroke-dasharray="5,2" d="M519.3638,-183C459.3788,-183 372.375,-183 372.375,-183 372.375,-183 372.375,-205.8757 372.375,-205.8757"/>
<polygon fill="#000000" stroke="#000000" points="368.8751,-205.8757 372.375,-215.8757 375.8751,-205.8757 368.8751,-205.8757"/>
</g>
<!-- BsOverrideUser  -->
<g id="node19" class="node">
<title>BsOverrideUser </title>
<polygon fill="#fb8072" stroke="#000000" points="267.4561,-252 156.5439,-252 156.5439,-216 267.4561,-216 267.4561,-252"/>
<text text-anchor="middle" x="212" y="-229.8" font-family="Times,serif" font-size="14.00" fill="#000000">BsOverrideUser </text>
</g>
<!-- BsModalModule&#45;&gt;BsOverrideUser  -->
<g id="edge18" class="edge">
<title>BsModalModule&#45;&gt;BsOverrideUser </title>
<path fill="none" stroke="#000000" stroke-dasharray="5,2" d="M519.4564,-178C425.5158,-178 245.375,-178 245.375,-178 245.375,-178 245.375,-205.973 245.375,-205.973"/>
<polygon fill="#000000" stroke="#000000" points="241.8751,-205.973 245.375,-215.973 248.8751,-205.973 241.8751,-205.973"/>
</g>
<!-- BsPrompt  -->
<g id="node20" class="node">
<title>BsPrompt </title>
<polygon fill="#fb8072" stroke="#000000" points="138.5072,-252 63.4928,-252 63.4928,-216 138.5072,-216 138.5072,-252"/>
<text text-anchor="middle" x="101" y="-229.8" font-family="Times,serif" font-size="14.00" fill="#000000">BsPrompt </text>
</g>
<!-- BsModalModule&#45;&gt;BsPrompt  -->
<g id="edge19" class="edge">
<title>BsModalModule&#45;&gt;BsPrompt </title>
<path fill="none" stroke="#000000" stroke-dasharray="5,2" d="M519.4768,-174C398.564,-174 122.1918,-174 122.1918,-174 122.1918,-174 122.1918,-205.998 122.1918,-205.998"/>
<polygon fill="#000000" stroke="#000000" points="118.6919,-205.998 122.1918,-215.998 125.6919,-205.9981 118.6919,-205.998"/>
</g>
<!-- UtilsModule -->
<g id="node11" class="node">
<title>UtilsModule</title>
<polygon fill="#8dd3c7" stroke="#000000" points="110.2731,-122 107.2731,-126 86.2731,-126 83.2731,-122 23.7269,-122 23.7269,-86 110.2731,-86 110.2731,-122"/>
<text text-anchor="middle" x="67" y="-99.8" font-family="Times,serif" font-size="14.00" fill="#000000">UtilsModule</text>
</g>
<!-- UtilsModule&#45;&gt;BsModalModule -->
<g id="edge10" class="edge">
<title>UtilsModule&#45;&gt;BsModalModule</title>
<path fill="none" stroke="#000000" d="M86.8168,-122.1061C86.8168,-141.3391 86.8168,-169 86.8168,-169 86.8168,-169 509.4745,-169 509.4745,-169"/>
<polygon fill="#000000" stroke="#000000" points="509.4745,-172.5001 519.4745,-169 509.4744,-165.5001 509.4745,-172.5001"/>
</g>
</g>
</svg>
