<?xml version="1.0" encoding="UTF-8" standalone="no"?>
<!DOCTYPE svg PUBLIC "-//W3C//DTD SVG 1.1//EN"
 "http://www.w3.org/Graphics/SVG/1.1/DTD/svg11.dtd">
<!-- Generated by graphviz version 2.47.3 (20210619.1520)
 -->
<!-- Title: dependencies Pages: 1 -->
<svg width="2160pt" height="247pt"
 viewBox="0.00 0.00 2160.00 246.80" xmlns="http://www.w3.org/2000/svg" xmlns:xlink="http://www.w3.org/1999/xlink">
<g id="graph0" class="graph" transform="scale(1 1) rotate(0) translate(4 242.8)">
<title>dependencies</title>
<polygon fill="white" stroke="transparent" points="-4,4 -4,-242.8 2156,-242.8 2156,4 -4,4"/>
<text text-anchor="middle" x="1076" y="-8.2" font-family="sans-serif" font-size="14.00">dependencies</text>
<g id="clust1" class="cluster">
<title>cluster_UtilsModule</title>
<polygon fill="none" stroke="black" stroke-dasharray="1,5" points="8,-32.8 8,-230.8 2144,-230.8 2144,-32.8 8,-32.8"/>
</g>
<g id="clust2" class="cluster">
<title>cluster_UtilsModule_declarations</title>
<polygon fill="none" stroke="black" points="44,-40.8 44,-92.8 2107,-92.8 2107,-40.8 44,-40.8"/>
</g>
<g id="clust21" class="cluster">
<title>cluster_UtilsModule_exports</title>
<polygon fill="none" stroke="black" points="16,-170.8 16,-222.8 2136,-222.8 2136,-170.8 16,-170.8"/>
</g>
<!-- Autofocus -->
<g id="node1" class="node">
<title>Autofocus</title>
<polygon fill="#ffffb3" stroke="black" points="2099.32,-84.8 2024.68,-84.8 2024.68,-48.8 2099.32,-48.8 2099.32,-84.8"/>
<text text-anchor="middle" x="2062" y="-62.6" font-family="Times,serif" font-size="14.00">Autofocus</text>
</g>
<!-- UtilsModule -->
<g id="node18" class="node">
<title>UtilsModule</title>
<polygon fill="#8dd3c7" stroke="black" points="1134.27,-149.8 1131.27,-153.8 1110.27,-153.8 1107.27,-149.8 1047.73,-149.8 1047.73,-113.8 1134.27,-113.8 1134.27,-149.8"/>
<text text-anchor="middle" x="1091" y="-127.6" font-family="Times,serif" font-size="14.00">UtilsModule</text>
</g>
<!-- Autofocus&#45;&gt;UtilsModule -->
<g id="edge1" class="edge">
<title>Autofocus&#45;&gt;UtilsModule</title>
<path fill="none" stroke="black" d="M2040.89,-84.97C2040.89,-103.89 2040.89,-130.8 2040.89,-130.8 2040.89,-130.8 1144.28,-130.8 1144.28,-130.8"/>
<polygon fill="black" stroke="black" points="1144.28,-127.3 1134.28,-130.8 1144.28,-134.3 1144.28,-127.3"/>
</g>
<!-- ClickOutside -->
<g id="node2" class="node">
<title>ClickOutside</title>
<polygon fill="#ffffb3" stroke="black" points="2006.88,-84.8 1917.12,-84.8 1917.12,-48.8 2006.88,-48.8 2006.88,-84.8"/>
<text text-anchor="middle" x="1962" y="-62.6" font-family="Times,serif" font-size="14.00">ClickOutside</text>
</g>
<!-- ClickOutside&#45;&gt;UtilsModule -->
<g id="edge2" class="edge">
<title>ClickOutside&#45;&gt;UtilsModule</title>
<path fill="none" stroke="black" d="M1929.36,-85.07C1929.36,-103.36 1929.36,-128.8 1929.36,-128.8 1929.36,-128.8 1144.31,-128.8 1144.31,-128.8"/>
<polygon fill="black" stroke="black" points="1144.31,-125.3 1134.31,-128.8 1144.31,-132.3 1144.31,-125.3"/>
</g>
<!-- DatePipe -->
<g id="node3" class="node">
<title>DatePipe</title>
<polygon fill="#ffffb3" stroke="black" points="1898.81,-84.8 1831.19,-84.8 1831.19,-48.8 1898.81,-48.8 1898.81,-84.8"/>
<text text-anchor="middle" x="1865" y="-62.6" font-family="Times,serif" font-size="14.00">DatePipe</text>
</g>
<!-- DatePipe&#45;&gt;UtilsModule -->
<g id="edge3" class="edge">
<title>DatePipe&#45;&gt;UtilsModule</title>
<path fill="none" stroke="black" d="M1840.7,-84.8C1840.7,-102.48 1840.7,-126.8 1840.7,-126.8 1840.7,-126.8 1144.27,-126.8 1144.27,-126.8"/>
<polygon fill="black" stroke="black" points="1144.27,-123.3 1134.27,-126.8 1144.27,-130.3 1144.27,-123.3"/>
</g>
<!-- ExprPipe -->
<g id="node4" class="node">
<title>ExprPipe</title>
<polygon fill="#ffffb3" stroke="black" points="1813.1,-84.8 1744.9,-84.8 1744.9,-48.8 1813.1,-48.8 1813.1,-84.8"/>
<text text-anchor="middle" x="1779" y="-62.6" font-family="Times,serif" font-size="14.00">ExprPipe</text>
</g>
<!-- ExprPipe&#45;&gt;UtilsModule -->
<g id="edge4" class="edge">
<title>ExprPipe&#45;&gt;UtilsModule</title>
<path fill="none" stroke="black" d="M1752.57,-84.83C1752.57,-101.86 1752.57,-124.8 1752.57,-124.8 1752.57,-124.8 1144.41,-124.8 1144.41,-124.8"/>
<polygon fill="black" stroke="black" points="1144.41,-121.3 1134.41,-124.8 1144.41,-128.3 1144.41,-121.3"/>
</g>
<!-- FocusKeyListDirective -->
<g id="node5" class="node">
<title>FocusKeyListDirective</title>
<polygon fill="#ffffb3" stroke="black" points="1727.12,-84.8 1580.88,-84.8 1580.88,-48.8 1727.12,-48.8 1727.12,-84.8"/>
<text text-anchor="middle" x="1654" y="-62.6" font-family="Times,serif" font-size="14.00">FocusKeyListDirective</text>
</g>
<!-- FocusKeyListDirective&#45;&gt;UtilsModule -->
<g id="edge5" class="edge">
<title>FocusKeyListDirective&#45;&gt;UtilsModule</title>
<path fill="none" stroke="black" d="M1586.31,-84.83C1586.31,-101.2 1586.31,-122.8 1586.31,-122.8 1586.31,-122.8 1144.52,-122.8 1144.52,-122.8"/>
<polygon fill="black" stroke="black" points="1144.52,-119.3 1134.52,-122.8 1144.52,-126.3 1144.52,-119.3"/>
</g>
<!-- FocusKeyListItemDirective -->
<g id="node6" class="node">
<title>FocusKeyListItemDirective</title>
<polygon fill="#ffffb3" stroke="black" points="1563.28,-84.8 1390.72,-84.8 1390.72,-48.8 1563.28,-48.8 1563.28,-84.8"/>
<text text-anchor="middle" x="1477" y="-62.6" font-family="Times,serif" font-size="14.00">FocusKeyListItemDirective</text>
</g>
<!-- FocusKeyListItemDirective&#45;&gt;UtilsModule -->
<g id="edge6" class="edge">
<title>FocusKeyListItemDirective&#45;&gt;UtilsModule</title>
<path fill="none" stroke="black" d="M1394.48,-85.08C1394.48,-100.75 1394.48,-120.8 1394.48,-120.8 1394.48,-120.8 1144.48,-120.8 1144.48,-120.8"/>
<polygon fill="black" stroke="black" points="1144.48,-117.3 1134.48,-120.8 1144.48,-124.3 1144.48,-117.3"/>
</g>
<!-- MemorySizePipe -->
<g id="node7" class="node">
<title>MemorySizePipe</title>
<polygon fill="#ffffb3" stroke="black" points="1372.7,-84.8 1259.3,-84.8 1259.3,-48.8 1372.7,-48.8 1372.7,-84.8"/>
<text text-anchor="middle" x="1316" y="-62.6" font-family="Times,serif" font-size="14.00">MemorySizePipe</text>
</g>
<!-- MemorySizePipe&#45;&gt;UtilsModule -->
<g id="edge7" class="edge">
<title>MemorySizePipe&#45;&gt;UtilsModule</title>
<path fill="none" stroke="black" d="M1336.28,-84.99C1336.28,-99.98 1336.28,-118.8 1336.28,-118.8 1336.28,-118.8 1144.29,-118.8 1144.29,-118.8"/>
<polygon fill="black" stroke="black" points="1144.29,-115.3 1134.29,-118.8 1144.29,-122.3 1144.29,-115.3"/>
</g>
<!-- MomentPipe -->
<g id="node8" class="node">
<title>MomentPipe</title>
<polygon fill="#ffffb3" stroke="black" points="1241.33,-84.8 1152.67,-84.8 1152.67,-48.8 1241.33,-48.8 1241.33,-84.8"/>
<text text-anchor="middle" x="1197" y="-62.6" font-family="Times,serif" font-size="14.00">MomentPipe</text>
</g>
<!-- MomentPipe&#45;&gt;UtilsModule -->
<g id="edge8" class="edge">
<title>MomentPipe&#45;&gt;UtilsModule</title>
<path fill="none" stroke="black" d="M1212.14,-84.85C1212.14,-99.17 1212.14,-116.8 1212.14,-116.8 1212.14,-116.8 1144.39,-116.8 1144.39,-116.8"/>
<polygon fill="black" stroke="black" points="1144.39,-113.3 1134.39,-116.8 1144.39,-120.3 1144.39,-113.3"/>
</g>
<!-- NumberPipe -->
<g id="node9" class="node">
<title>NumberPipe</title>
<polygon fill="#ffffb3" stroke="black" points="1134.26,-84.8 1047.74,-84.8 1047.74,-48.8 1134.26,-48.8 1134.26,-84.8"/>
<text text-anchor="middle" x="1091" y="-62.6" font-family="Times,serif" font-size="14.00">NumberPipe</text>
</g>
<!-- NumberPipe&#45;&gt;UtilsModule -->
<g id="edge9" class="edge">
<title>NumberPipe&#45;&gt;UtilsModule</title>
<path fill="none" stroke="black" d="M1091,-84.91C1091,-84.91 1091,-103.79 1091,-103.79"/>
<polygon fill="black" stroke="black" points="1087.5,-103.79 1091,-113.79 1094.5,-103.79 1087.5,-103.79"/>
</g>
<!-- RelativeTimePipe -->
<g id="node10" class="node">
<title>RelativeTimePipe</title>
<polygon fill="#ffffb3" stroke="black" points="1029.59,-84.8 912.41,-84.8 912.41,-48.8 1029.59,-48.8 1029.59,-84.8"/>
<text text-anchor="middle" x="971" y="-62.6" font-family="Times,serif" font-size="14.00">RelativeTimePipe</text>
</g>
<!-- RelativeTimePipe&#45;&gt;UtilsModule -->
<g id="edge10" class="edge">
<title>RelativeTimePipe&#45;&gt;UtilsModule</title>
<path fill="none" stroke="black" d="M989.68,-84.85C989.68,-99.17 989.68,-116.8 989.68,-116.8 989.68,-116.8 1037.44,-116.8 1037.44,-116.8"/>
<polygon fill="black" stroke="black" points="1037.44,-120.3 1047.44,-116.8 1037.44,-113.3 1037.44,-120.3"/>
</g>
<!-- ResizeEventDirective -->
<g id="node11" class="node">
<title>ResizeEventDirective</title>
<polygon fill="#ffffb3" stroke="black" points="894.06,-84.8 755.94,-84.8 755.94,-48.8 894.06,-48.8 894.06,-84.8"/>
<text text-anchor="middle" x="825" y="-62.6" font-family="Times,serif" font-size="14.00">ResizeEventDirective</text>
</g>
<!-- ResizeEventDirective&#45;&gt;UtilsModule -->
<g id="edge11" class="edge">
<title>ResizeEventDirective&#45;&gt;UtilsModule</title>
<path fill="none" stroke="black" d="M845.18,-84.99C845.18,-99.98 845.18,-118.8 845.18,-118.8 845.18,-118.8 1037.62,-118.8 1037.62,-118.8"/>
<polygon fill="black" stroke="black" points="1037.62,-122.3 1047.62,-118.8 1037.62,-115.3 1037.62,-122.3"/>
</g>
<!-- ScrollIntoView -->
<g id="node12" class="node">
<title>ScrollIntoView</title>
<polygon fill="#ffffb3" stroke="black" points="738.31,-84.8 635.69,-84.8 635.69,-48.8 738.31,-48.8 738.31,-84.8"/>
<text text-anchor="middle" x="687" y="-62.6" font-family="Times,serif" font-size="14.00">ScrollIntoView</text>
</g>
<!-- ScrollIntoView&#45;&gt;UtilsModule -->
<g id="edge12" class="edge">
<title>ScrollIntoView&#45;&gt;UtilsModule</title>
<path fill="none" stroke="black" d="M734.03,-85.08C734.03,-100.75 734.03,-120.8 734.03,-120.8 734.03,-120.8 1037.59,-120.8 1037.59,-120.8"/>
<polygon fill="black" stroke="black" points="1037.59,-124.3 1047.59,-120.8 1037.59,-117.3 1037.59,-124.3"/>
</g>
<!-- StickyComponent -->
<g id="node13" class="node">
<title>StickyComponent</title>
<polygon fill="#ffffb3" stroke="black" points="617.61,-84.8 500.39,-84.8 500.39,-48.8 617.61,-48.8 617.61,-84.8"/>
<text text-anchor="middle" x="559" y="-62.6" font-family="Times,serif" font-size="14.00">StickyComponent</text>
</g>
<!-- StickyComponent&#45;&gt;UtilsModule -->
<g id="edge13" class="edge">
<title>StickyComponent&#45;&gt;UtilsModule</title>
<path fill="none" stroke="black" d="M611.93,-84.83C611.93,-101.2 611.93,-122.8 611.93,-122.8 611.93,-122.8 1037.64,-122.8 1037.64,-122.8"/>
<polygon fill="black" stroke="black" points="1037.64,-126.3 1047.64,-122.8 1037.64,-119.3 1037.64,-126.3"/>
</g>
<!-- TimePipe -->
<g id="node14" class="node">
<title>TimePipe</title>
<polygon fill="#ffffb3" stroke="black" points="482.44,-84.8 411.56,-84.8 411.56,-48.8 482.44,-48.8 482.44,-84.8"/>
<text text-anchor="middle" x="447" y="-62.6" font-family="Times,serif" font-size="14.00">TimePipe</text>
</g>
<!-- TimePipe&#45;&gt;UtilsModule -->
<g id="edge14" class="edge">
<title>TimePipe&#45;&gt;UtilsModule</title>
<path fill="none" stroke="black" d="M475.09,-84.83C475.09,-101.86 475.09,-124.8 475.09,-124.8 475.09,-124.8 1037.69,-124.8 1037.69,-124.8"/>
<polygon fill="black" stroke="black" points="1037.69,-128.3 1047.69,-124.8 1037.69,-121.3 1037.69,-128.3"/>
</g>
<!-- TooltipComponent -->
<g id="node15" class="node">
<title>TooltipComponent</title>
<polygon fill="#ffffb3" stroke="black" points="394.06,-84.8 271.94,-84.8 271.94,-48.8 394.06,-48.8 394.06,-84.8"/>
<text text-anchor="middle" x="333" y="-62.6" font-family="Times,serif" font-size="14.00">TooltipComponent</text>
</g>
<!-- TooltipComponent&#45;&gt;UtilsModule -->
<g id="edge15" class="edge">
<title>TooltipComponent&#45;&gt;UtilsModule</title>
<path fill="none" stroke="black" d="M385.03,-84.8C385.03,-102.48 385.03,-126.8 385.03,-126.8 385.03,-126.8 1037.64,-126.8 1037.64,-126.8"/>
<polygon fill="black" stroke="black" points="1037.64,-130.3 1047.64,-126.8 1037.64,-123.3 1037.64,-130.3"/>
</g>
<!-- TooltipDirective -->
<g id="node16" class="node">
<title>TooltipDirective</title>
<polygon fill="#ffffb3" stroke="black" points="253.81,-84.8 144.19,-84.8 144.19,-48.8 253.81,-48.8 253.81,-84.8"/>
<text text-anchor="middle" x="199" y="-62.6" font-family="Times,serif" font-size="14.00">TooltipDirective</text>
</g>
<!-- TooltipDirective&#45;&gt;UtilsModule -->
<g id="edge16" class="edge">
<title>TooltipDirective&#45;&gt;UtilsModule</title>
<path fill="none" stroke="black" d="M241.19,-85.07C241.19,-103.36 241.19,-128.8 241.19,-128.8 241.19,-128.8 1037.69,-128.8 1037.69,-128.8"/>
<polygon fill="black" stroke="black" points="1037.69,-132.3 1047.69,-128.8 1037.69,-125.3 1037.69,-132.3"/>
</g>
<!-- ValuePipe -->
<g id="node17" class="node">
<title>ValuePipe</title>
<polygon fill="#ffffb3" stroke="black" points="126.31,-84.8 51.69,-84.8 51.69,-48.8 126.31,-48.8 126.31,-84.8"/>
<text text-anchor="middle" x="89" y="-62.6" font-family="Times,serif" font-size="14.00">ValuePipe</text>
</g>
<!-- ValuePipe&#45;&gt;UtilsModule -->
<g id="edge17" class="edge">
<title>ValuePipe&#45;&gt;UtilsModule</title>
<path fill="none" stroke="black" d="M110.75,-84.97C110.75,-103.89 110.75,-130.8 110.75,-130.8 110.75,-130.8 1037.62,-130.8 1037.62,-130.8"/>
<polygon fill="black" stroke="black" points="1037.62,-134.3 1047.62,-130.8 1037.62,-127.3 1037.62,-134.3"/>
</g>
<!-- Autofocus  -->
<g id="node19" class="node">
<title>Autofocus </title>
<polygon fill="#fb8072" stroke="black" points="2127.82,-214.8 2050.18,-214.8 2050.18,-178.8 2127.82,-178.8 2127.82,-214.8"/>
<text text-anchor="middle" x="2089" y="-192.6" font-family="Times,serif" font-size="14.00">Autofocus </text>
</g>
<!-- UtilsModule&#45;&gt;Autofocus  -->
<g id="edge18" class="edge">
<title>UtilsModule&#45;&gt;Autofocus </title>
<path fill="none" stroke="black" stroke-dasharray="5,2" d="M1134.53,-133.8C1324.9,-133.8 2074.62,-133.8 2074.62,-133.8 2074.62,-133.8 2074.62,-168.58 2074.62,-168.58"/>
<polygon fill="black" stroke="black" points="2071.13,-168.58 2074.62,-178.58 2078.13,-168.58 2071.13,-168.58"/>
</g>
<!-- ClickOutside  -->
<g id="node20" class="node">
<title>ClickOutside </title>
<polygon fill="#fb8072" stroke="black" points="2031.88,-214.8 1938.12,-214.8 1938.12,-178.8 2031.88,-178.8 2031.88,-214.8"/>
<text text-anchor="middle" x="1985" y="-192.6" font-family="Times,serif" font-size="14.00">ClickOutside </text>
</g>
<!-- UtilsModule&#45;&gt;ClickOutside  -->
<g id="edge19" class="edge">
<title>UtilsModule&#45;&gt;ClickOutside </title>
<path fill="none" stroke="black" stroke-dasharray="5,2" d="M1134.42,-135.8C1311.87,-135.8 1972.62,-135.8 1972.62,-135.8 1972.62,-135.8 1972.62,-168.5 1972.62,-168.5"/>
<polygon fill="black" stroke="black" points="1969.13,-168.5 1972.62,-178.5 1976.13,-168.5 1969.13,-168.5"/>
</g>
<!-- DatePipe  -->
<g id="node21" class="node">
<title>DatePipe </title>
<polygon fill="#fb8072" stroke="black" points="1920.31,-214.8 1849.69,-214.8 1849.69,-178.8 1920.31,-178.8 1920.31,-214.8"/>
<text text-anchor="middle" x="1885" y="-192.6" font-family="Times,serif" font-size="14.00">DatePipe </text>
</g>
<!-- UtilsModule&#45;&gt;DatePipe  -->
<g id="edge20" class="edge">
<title>UtilsModule&#45;&gt;DatePipe </title>
<path fill="none" stroke="black" stroke-dasharray="5,2" d="M1134.5,-137.8C1299.05,-137.8 1874.12,-137.8 1874.12,-137.8 1874.12,-137.8 1874.12,-168.78 1874.12,-168.78"/>
<polygon fill="black" stroke="black" points="1870.63,-168.78 1874.12,-178.78 1877.63,-168.78 1870.63,-168.78"/>
</g>
<!-- ExprPipe  -->
<g id="node22" class="node">
<title>ExprPipe </title>
<polygon fill="#fb8072" stroke="black" points="1831.6,-214.8 1760.4,-214.8 1760.4,-178.8 1831.6,-178.8 1831.6,-214.8"/>
<text text-anchor="middle" x="1796" y="-192.6" font-family="Times,serif" font-size="14.00">ExprPipe </text>
</g>
<!-- UtilsModule&#45;&gt;ExprPipe  -->
<g id="edge21" class="edge">
<title>UtilsModule&#45;&gt;ExprPipe </title>
<path fill="none" stroke="black" stroke-dasharray="5,2" d="M1134.51,-139.8C1286.8,-139.8 1786.62,-139.8 1786.62,-139.8 1786.62,-139.8 1786.62,-168.76 1786.62,-168.76"/>
<polygon fill="black" stroke="black" points="1783.13,-168.76 1786.62,-178.76 1790.13,-168.76 1783.13,-168.76"/>
</g>
<!-- FocusKeyListDirective  -->
<g id="node23" class="node">
<title>FocusKeyListDirective </title>
<polygon fill="#fb8072" stroke="black" points="1742.12,-214.8 1591.88,-214.8 1591.88,-178.8 1742.12,-178.8 1742.12,-214.8"/>
<text text-anchor="middle" x="1667" y="-192.6" font-family="Times,serif" font-size="14.00">FocusKeyListDirective </text>
</g>
<!-- UtilsModule&#45;&gt;FocusKeyListDirective  -->
<g id="edge22" class="edge">
<title>UtilsModule&#45;&gt;FocusKeyListDirective </title>
<path fill="none" stroke="black" stroke-dasharray="5,2" d="M1134.67,-141.8C1267.83,-141.8 1659.62,-141.8 1659.62,-141.8 1659.62,-141.8 1659.62,-168.79 1659.62,-168.79"/>
<polygon fill="black" stroke="black" points="1656.13,-168.79 1659.62,-178.79 1663.13,-168.79 1656.13,-168.79"/>
</g>
<!-- FocusKeyListItemDirective  -->
<g id="node24" class="node">
<title>FocusKeyListItemDirective </title>
<polygon fill="#fb8072" stroke="black" points="1573.78,-214.8 1398.22,-214.8 1398.22,-178.8 1573.78,-178.8 1573.78,-214.8"/>
<text text-anchor="middle" x="1486" y="-192.6" font-family="Times,serif" font-size="14.00">FocusKeyListItemDirective </text>
</g>
<!-- UtilsModule&#45;&gt;FocusKeyListItemDirective  -->
<g id="edge23" class="edge">
<title>UtilsModule&#45;&gt;FocusKeyListItemDirective </title>
<path fill="none" stroke="black" stroke-dasharray="5,2" d="M1134.56,-143.8C1236.23,-143.8 1480.62,-143.8 1480.62,-143.8 1480.62,-143.8 1480.62,-168.56 1480.62,-168.56"/>
<polygon fill="black" stroke="black" points="1477.13,-168.56 1480.62,-178.56 1484.13,-168.56 1477.13,-168.56"/>
</g>
<!-- MemorySizePipe  -->
<g id="node25" class="node">
<title>MemorySizePipe </title>
<polygon fill="#fb8072" stroke="black" points="1380.2,-214.8 1263.8,-214.8 1263.8,-178.8 1380.2,-178.8 1380.2,-214.8"/>
<text text-anchor="middle" x="1322" y="-192.6" font-family="Times,serif" font-size="14.00">MemorySizePipe </text>
</g>
<!-- UtilsModule&#45;&gt;MemorySizePipe  -->
<g id="edge24" class="edge">
<title>UtilsModule&#45;&gt;MemorySizePipe </title>
<path fill="none" stroke="black" stroke-dasharray="5,2" d="M1134.3,-145.8C1195.51,-145.8 1299.97,-145.8 1299.97,-145.8 1299.97,-145.8 1299.97,-168.68 1299.97,-168.68"/>
<polygon fill="black" stroke="black" points="1296.47,-168.68 1299.97,-178.68 1303.47,-168.68 1296.47,-168.68"/>
</g>
<!-- MomentPipe  -->
<g id="node26" class="node">
<title>MomentPipe </title>
<polygon fill="#fb8072" stroke="black" points="1245.83,-214.8 1154.17,-214.8 1154.17,-178.8 1245.83,-178.8 1245.83,-214.8"/>
<text text-anchor="middle" x="1200" y="-192.6" font-family="Times,serif" font-size="14.00">MomentPipe </text>
</g>
<!-- UtilsModule&#45;&gt;MomentPipe  -->
<g id="edge25" class="edge">
<title>UtilsModule&#45;&gt;MomentPipe </title>
<path fill="none" stroke="black" stroke-dasharray="5,2" d="M1134.36,-147.8C1158.25,-147.8 1183.11,-147.8 1183.11,-147.8 1183.11,-147.8 1183.11,-168.55 1183.11,-168.55"/>
<polygon fill="black" stroke="black" points="1179.61,-168.55 1183.11,-178.55 1186.61,-168.55 1179.61,-168.55"/>
</g>
<!-- NumberPipe  -->
<g id="node27" class="node">
<title>NumberPipe </title>
<polygon fill="#fb8072" stroke="black" points="1136.26,-214.8 1045.74,-214.8 1045.74,-178.8 1136.26,-178.8 1136.26,-214.8"/>
<text text-anchor="middle" x="1091" y="-192.6" font-family="Times,serif" font-size="14.00">NumberPipe </text>
</g>
<!-- UtilsModule&#45;&gt;NumberPipe  -->
<g id="edge26" class="edge">
<title>UtilsModule&#45;&gt;NumberPipe </title>
<path fill="none" stroke="black" stroke-dasharray="5,2" d="M1091,-149.91C1091,-149.91 1091,-168.79 1091,-168.79"/>
<polygon fill="black" stroke="black" points="1087.5,-168.79 1091,-178.79 1094.5,-168.79 1087.5,-168.79"/>
</g>
<!-- RelativeTimePipe  -->
<g id="node28" class="node">
<title>RelativeTimePipe </title>
<polygon fill="#fb8072" stroke="black" points="1028.09,-214.8 907.91,-214.8 907.91,-178.8 1028.09,-178.8 1028.09,-214.8"/>
<text text-anchor="middle" x="968" y="-192.6" font-family="Times,serif" font-size="14.00">RelativeTimePipe </text>
</g>
<!-- UtilsModule&#45;&gt;RelativeTimePipe  -->
<g id="edge27" class="edge">
<title>UtilsModule&#45;&gt;RelativeTimePipe </title>
<path fill="none" stroke="black" stroke-dasharray="5,2" d="M1047.49,-147.8C1006.41,-147.8 951.07,-147.8 951.07,-147.8 951.07,-147.8 951.07,-168.55 951.07,-168.55"/>
<polygon fill="black" stroke="black" points="947.57,-168.55 951.07,-178.55 954.57,-168.55 947.57,-168.55"/>
</g>
<!-- ResizeEventDirective  -->
<g id="node29" class="node">
<title>ResizeEventDirective </title>
<polygon fill="#fb8072" stroke="black" points="889.56,-214.8 748.44,-214.8 748.44,-178.8 889.56,-178.8 889.56,-214.8"/>
<text text-anchor="middle" x="819" y="-192.6" font-family="Times,serif" font-size="14.00">ResizeEventDirective </text>
</g>
<!-- UtilsModule&#45;&gt;ResizeEventDirective  -->
<g id="edge28" class="edge">
<title>UtilsModule&#45;&gt;ResizeEventDirective </title>
<path fill="none" stroke="black" stroke-dasharray="5,2" d="M1047.52,-145.8C966.5,-145.8 800.57,-145.8 800.57,-145.8 800.57,-145.8 800.57,-168.68 800.57,-168.68"/>
<polygon fill="black" stroke="black" points="797.07,-168.68 800.57,-178.68 804.07,-168.68 797.07,-168.68"/>
</g>
<!-- ScrollIntoView  -->
<g id="node30" class="node">
<title>ScrollIntoView </title>
<polygon fill="#fb8072" stroke="black" points="729.81,-214.8 624.19,-214.8 624.19,-178.8 729.81,-178.8 729.81,-214.8"/>
<text text-anchor="middle" x="677" y="-192.6" font-family="Times,serif" font-size="14.00">ScrollIntoView </text>
</g>
<!-- UtilsModule&#45;&gt;ScrollIntoView  -->
<g id="edge29" class="edge">
<title>UtilsModule&#45;&gt;ScrollIntoView </title>
<path fill="none" stroke="black" stroke-dasharray="5,2" d="M1047.71,-143.8C942.67,-143.8 682.88,-143.8 682.88,-143.8 682.88,-143.8 682.88,-168.56 682.88,-168.56"/>
<polygon fill="black" stroke="black" points="679.38,-168.56 682.88,-178.56 686.38,-168.56 679.38,-168.56"/>
</g>
<!-- StickyComponent  -->
<g id="node31" class="node">
<title>StickyComponent </title>
<polygon fill="#fb8072" stroke="black" points="606.11,-214.8 485.89,-214.8 485.89,-178.8 606.11,-178.8 606.11,-214.8"/>
<text text-anchor="middle" x="546" y="-192.6" font-family="Times,serif" font-size="14.00">StickyComponent </text>
</g>
<!-- UtilsModule&#45;&gt;StickyComponent  -->
<g id="edge30" class="edge">
<title>UtilsModule&#45;&gt;StickyComponent </title>
<path fill="none" stroke="black" stroke-dasharray="5,2" d="M1047.46,-141.8C919.47,-141.8 553.38,-141.8 553.38,-141.8 553.38,-141.8 553.38,-168.79 553.38,-168.79"/>
<polygon fill="black" stroke="black" points="549.88,-168.79 553.38,-178.79 556.88,-168.79 549.88,-168.79"/>
</g>
<!-- TimePipe  -->
<g id="node32" class="node">
<title>TimePipe </title>
<polygon fill="#fb8072" stroke="black" points="467.94,-214.8 394.06,-214.8 394.06,-178.8 467.94,-178.8 467.94,-214.8"/>
<text text-anchor="middle" x="431" y="-192.6" font-family="Times,serif" font-size="14.00">TimePipe </text>
</g>
<!-- UtilsModule&#45;&gt;TimePipe  -->
<g id="edge31" class="edge">
<title>UtilsModule&#45;&gt;TimePipe </title>
<path fill="none" stroke="black" stroke-dasharray="5,2" d="M1047.52,-139.8C901.81,-139.8 439.88,-139.8 439.88,-139.8 439.88,-139.8 439.88,-168.76 439.88,-168.76"/>
<polygon fill="black" stroke="black" points="436.38,-168.76 439.88,-178.76 443.38,-168.76 436.38,-168.76"/>
</g>
<!-- TooltipComponent  -->
<g id="node33" class="node">
<title>TooltipComponent </title>
<polygon fill="#fb8072" stroke="black" points="376.06,-214.8 249.94,-214.8 249.94,-178.8 376.06,-178.8 376.06,-214.8"/>
<text text-anchor="middle" x="313" y="-192.6" font-family="Times,serif" font-size="14.00">TooltipComponent </text>
</g>
<!-- UtilsModule&#45;&gt;TooltipComponent  -->
<g id="edge32" class="edge">
<title>UtilsModule&#45;&gt;TooltipComponent </title>
<path fill="none" stroke="black" stroke-dasharray="5,2" d="M1047.56,-137.8C885.28,-137.8 323.88,-137.8 323.88,-137.8 323.88,-137.8 323.88,-168.78 323.88,-168.78"/>
<polygon fill="black" stroke="black" points="320.38,-168.78 323.88,-178.78 327.38,-168.78 320.38,-168.78"/>
</g>
<!-- TooltipDirective  -->
<g id="node34" class="node">
<title>TooltipDirective </title>
<polygon fill="#fb8072" stroke="black" points="232.31,-214.8 119.69,-214.8 119.69,-178.8 232.31,-178.8 232.31,-214.8"/>
<text text-anchor="middle" x="176" y="-192.6" font-family="Times,serif" font-size="14.00">TooltipDirective </text>
</g>
<!-- UtilsModule&#45;&gt;TooltipDirective  -->
<g id="edge33" class="edge">
<title>UtilsModule&#45;&gt;TooltipDirective </title>
<path fill="none" stroke="black" stroke-dasharray="5,2" d="M1047.46,-135.8C867.16,-135.8 188.38,-135.8 188.38,-135.8 188.38,-135.8 188.38,-168.5 188.38,-168.5"/>
<polygon fill="black" stroke="black" points="184.88,-168.5 188.38,-178.5 191.88,-168.5 184.88,-168.5"/>
</g>
<!-- ValuePipe  -->
<g id="node35" class="node">
<title>ValuePipe </title>
<polygon fill="#fb8072" stroke="black" points="101.81,-214.8 24.19,-214.8 24.19,-178.8 101.81,-178.8 101.81,-214.8"/>
<text text-anchor="middle" x="63" y="-192.6" font-family="Times,serif" font-size="14.00">ValuePipe </text>
</g>
<!-- UtilsModule&#45;&gt;ValuePipe  -->
<g id="edge34" class="edge">
<title>UtilsModule&#45;&gt;ValuePipe </title>
<path fill="none" stroke="black" stroke-dasharray="5,2" d="M1047.42,-133.8C853.31,-133.8 76.88,-133.8 76.88,-133.8 76.88,-133.8 76.88,-168.58 76.88,-168.58"/>
<polygon fill="black" stroke="black" points="73.38,-168.58 76.88,-178.58 80.38,-168.58 73.38,-168.58"/>
</g>
</g>
</svg>
