<?xml version="1.0" encoding="UTF-8" standalone="no"?>
<!DOCTYPE svg PUBLIC "-//W3C//DTD SVG 1.1//EN"
 "http://www.w3.org/Graphics/SVG/1.1/DTD/svg11.dtd">
<!-- Generated by graphviz version 2.40.1 (20161225.0304)
 -->
<!-- Title: dependencies Pages: 1 -->
<svg width="2243pt" height="284pt"
 viewBox="0.00 0.00 2243.00 284.00" xmlns="http://www.w3.org/2000/svg" xmlns:xlink="http://www.w3.org/1999/xlink">
<g id="graph0" class="graph" transform="scale(1 1) rotate(0) translate(4 280)">
<title>dependencies</title>
<polygon fill="#ffffff" stroke="transparent" points="-4,4 -4,-280 2239,-280 2239,4 -4,4"/>
<text text-anchor="start" x="1096.5091" y="-42.4" font-family="sans-serif" font-weight="bold" font-size="14.00" fill="#000000">Legend</text>
<polygon fill="#ffffb3" stroke="transparent" points="883.5,-10 883.5,-30 903.5,-30 903.5,-10 883.5,-10"/>
<text text-anchor="start" x="907.129" y="-15.4" font-family="sans-serif" font-size="14.00" fill="#000000"> &#160;Declarations</text>
<polygon fill="#8dd3c7" stroke="transparent" points="996.5,-10 996.5,-30 1016.5,-30 1016.5,-10 996.5,-10"/>
<text text-anchor="start" x="1020.2251" y="-15.4" font-family="sans-serif" font-size="14.00" fill="#000000"> &#160;Module</text>
<polygon fill="#80b1d3" stroke="transparent" points="1082.5,-10 1082.5,-30 1102.5,-30 1102.5,-10 1082.5,-10"/>
<text text-anchor="start" x="1106.2812" y="-15.4" font-family="sans-serif" font-size="14.00" fill="#000000"> &#160;Bootstrap</text>
<polygon fill="#fdb462" stroke="transparent" points="1179.5,-10 1179.5,-30 1199.5,-30 1199.5,-10 1179.5,-10"/>
<text text-anchor="start" x="1203.1732" y="-15.4" font-family="sans-serif" font-size="14.00" fill="#000000"> &#160;Providers</text>
<polygon fill="#fb8072" stroke="transparent" points="1275.5,-10 1275.5,-30 1295.5,-30 1295.5,-10 1275.5,-10"/>
<text text-anchor="start" x="1299.2258" y="-15.4" font-family="sans-serif" font-size="14.00" fill="#000000"> &#160;Exports</text>
<g id="clust1" class="cluster">
<title>cluster_UtilsModule</title>
<polygon fill="none" stroke="#000000" stroke-dasharray="1,5" points="8,-70 8,-268 2227,-268 2227,-70 8,-70"/>
</g>
<g id="clust2" class="cluster">
<title>cluster_UtilsModule_declarations</title>
<polygon fill="none" stroke="#000000" points="53,-78 53,-130 2195,-130 2195,-78 53,-78"/>
</g>
<g id="clust22" class="cluster">
<title>cluster_UtilsModule_exports</title>
<polygon fill="none" stroke="#000000" points="16,-208 16,-260 2219,-260 2219,-208 16,-208"/>
</g>
<!-- Autofocus -->
<g id="node1" class="node">
<title>Autofocus</title>
<polygon fill="#ffffb3" stroke="#000000" points="2187.3177,-122 2112.6823,-122 2112.6823,-86 2187.3177,-86 2187.3177,-122"/>
<text text-anchor="middle" x="2150" y="-99.8" font-family="Times,serif" font-size="14.00" fill="#000000">Autofocus</text>
</g>
<!-- UtilsModule -->
<g id="node19" class="node">
<title>UtilsModule</title>
<polygon fill="#8dd3c7" stroke="#000000" points="1157.2731,-187 1154.2731,-191 1133.2731,-191 1130.2731,-187 1070.7269,-187 1070.7269,-151 1157.2731,-151 1157.2731,-187"/>
<text text-anchor="middle" x="1114" y="-164.8" font-family="Times,serif" font-size="14.00" fill="#000000">UtilsModule</text>
</g>
<!-- Autofocus&#45;&gt;UtilsModule -->
<g id="edge1" class="edge">
<title>Autofocus&#45;&gt;UtilsModule</title>
<path fill="none" stroke="#000000" d="M2123.8906,-122.1686C2123.8906,-141.0898 2123.8906,-168 2123.8906,-168 2123.8906,-168 1167.3937,-168 1167.3937,-168"/>
<polygon fill="#000000" stroke="#000000" points="1167.3938,-164.5001 1157.3937,-168 1167.3937,-171.5001 1167.3938,-164.5001"/>
</g>
<!-- ClickOutside -->
<g id="node2" class="node">
<title>ClickOutside</title>
<polygon fill="#ffffb3" stroke="#000000" points="2094.8795,-122 2005.1205,-122 2005.1205,-86 2094.8795,-86 2094.8795,-122"/>
<text text-anchor="middle" x="2050" y="-99.8" font-family="Times,serif" font-size="14.00" fill="#000000">ClickOutside</text>
</g>
<!-- ClickOutside&#45;&gt;UtilsModule -->
<g id="edge2" class="edge">
<title>ClickOutside&#45;&gt;UtilsModule</title>
<path fill="none" stroke="#000000" d="M2013.1853,-122.2667C2013.1853,-140.5552 2013.1853,-166 2013.1853,-166 2013.1853,-166 1167.3696,-166 1167.3696,-166"/>
<polygon fill="#000000" stroke="#000000" points="1167.3696,-162.5001 1157.3696,-166 1167.3695,-169.5001 1167.3696,-162.5001"/>
</g>
<!-- DatePipe -->
<g id="node3" class="node">
<title>DatePipe</title>
<polygon fill="#ffffb3" stroke="#000000" points="1986.8149,-122 1919.1851,-122 1919.1851,-86 1986.8149,-86 1986.8149,-122"/>
<text text-anchor="middle" x="1953" y="-99.8" font-family="Times,serif" font-size="14.00" fill="#000000">DatePipe</text>
</g>
<!-- DatePipe&#45;&gt;UtilsModule -->
<g id="edge3" class="edge">
<title>DatePipe&#45;&gt;UtilsModule</title>
<path fill="none" stroke="#000000" d="M1925.9679,-122.002C1925.9679,-139.6754 1925.9679,-164 1925.9679,-164 1925.9679,-164 1167.3679,-164 1167.3679,-164"/>
<polygon fill="#000000" stroke="#000000" points="1167.3679,-160.5001 1157.3679,-164 1167.3678,-167.5001 1167.3679,-160.5001"/>
</g>
<!-- ExprPipe -->
<g id="node4" class="node">
<title>ExprPipe</title>
<polygon fill="#ffffb3" stroke="#000000" points="1901.1011,-122 1832.8989,-122 1832.8989,-86 1901.1011,-86 1901.1011,-122"/>
<text text-anchor="middle" x="1867" y="-99.8" font-family="Times,serif" font-size="14.00" fill="#000000">ExprPipe</text>
</g>
<!-- ExprPipe&#45;&gt;UtilsModule -->
<g id="edge4" class="edge">
<title>ExprPipe&#45;&gt;UtilsModule</title>
<path fill="none" stroke="#000000" d="M1838.0745,-122.0336C1838.0745,-139.0597 1838.0745,-162 1838.0745,-162 1838.0745,-162 1167.3943,-162 1167.3943,-162"/>
<polygon fill="#000000" stroke="#000000" points="1167.3943,-158.5001 1157.3943,-162 1167.3942,-165.5001 1167.3943,-158.5001"/>
</g>
<!-- FocusKeyListDirective -->
<g id="node5" class="node">
<title>FocusKeyListDirective</title>
<polygon fill="#ffffb3" stroke="#000000" points="1815.1247,-122 1668.8753,-122 1668.8753,-86 1815.1247,-86 1815.1247,-122"/>
<text text-anchor="middle" x="1742" y="-99.8" font-family="Times,serif" font-size="14.00" fill="#000000">FocusKeyListDirective</text>
</g>
<!-- FocusKeyListDirective&#45;&gt;UtilsModule -->
<g id="edge5" class="edge">
<title>FocusKeyListDirective&#45;&gt;UtilsModule</title>
<path fill="none" stroke="#000000" d="M1768.5207,-122.027C1768.5207,-138.3976 1768.5207,-160 1768.5207,-160 1768.5207,-160 1167.4518,-160 1167.4518,-160"/>
<polygon fill="#000000" stroke="#000000" points="1167.4519,-156.5001 1157.4518,-160 1167.4518,-163.5001 1167.4519,-156.5001"/>
</g>
<!-- FocusKeyListItemDirective -->
<g id="node6" class="node">
<title>FocusKeyListItemDirective</title>
<polygon fill="#ffffb3" stroke="#000000" points="1651.2808,-122 1478.7192,-122 1478.7192,-86 1651.2808,-86 1651.2808,-122"/>
<text text-anchor="middle" x="1565" y="-99.8" font-family="Times,serif" font-size="14.00" fill="#000000">FocusKeyListItemDirective</text>
</g>
<!-- FocusKeyListItemDirective&#45;&gt;UtilsModule -->
<g id="edge6" class="edge">
<title>FocusKeyListItemDirective&#45;&gt;UtilsModule</title>
<path fill="none" stroke="#000000" d="M1594.4634,-122.2819C1594.4634,-137.9478 1594.4634,-158 1594.4634,-158 1594.4634,-158 1167.4853,-158 1167.4853,-158"/>
<polygon fill="#000000" stroke="#000000" points="1167.4854,-154.5001 1157.4853,-158 1167.4853,-161.5001 1167.4854,-154.5001"/>
</g>
<!-- MediaIf -->
<g id="node7" class="node">
<title>MediaIf</title>
<polygon fill="#ffffb3" stroke="#000000" points="1460.5857,-122 1399.4143,-122 1399.4143,-86 1460.5857,-86 1460.5857,-122"/>
<text text-anchor="middle" x="1430" y="-99.8" font-family="Times,serif" font-size="14.00" fill="#000000">MediaIf</text>
</g>
<!-- MediaIf&#45;&gt;UtilsModule -->
<g id="edge7" class="edge">
<title>MediaIf&#45;&gt;UtilsModule</title>
<path fill="none" stroke="#000000" d="M1440.1809,-122.1871C1440.1809,-137.1824 1440.1809,-156 1440.1809,-156 1440.1809,-156 1167.3143,-156 1167.3143,-156"/>
<polygon fill="#000000" stroke="#000000" points="1167.3143,-152.5001 1157.3143,-156 1167.3143,-159.5001 1167.3143,-152.5001"/>
</g>
<!-- MemorySizePipe -->
<g id="node8" class="node">
<title>MemorySizePipe</title>
<polygon fill="#ffffb3" stroke="#000000" points="1381.7008,-122 1268.2992,-122 1268.2992,-86 1381.7008,-86 1381.7008,-122"/>
<text text-anchor="middle" x="1325" y="-99.8" font-family="Times,serif" font-size="14.00" fill="#000000">MemorySizePipe</text>
</g>
<!-- MemorySizePipe&#45;&gt;UtilsModule -->
<g id="edge8" class="edge">
<title>MemorySizePipe&#45;&gt;UtilsModule</title>
<path fill="none" stroke="#000000" d="M1305.7166,-122.0511C1305.7166,-136.373 1305.7166,-154 1305.7166,-154 1305.7166,-154 1167.5035,-154 1167.5035,-154"/>
<polygon fill="#000000" stroke="#000000" points="1167.5035,-150.5001 1157.5035,-154 1167.5034,-157.5001 1167.5035,-150.5001"/>
</g>
<!-- MomentPipe -->
<g id="node9" class="node">
<title>MomentPipe</title>
<polygon fill="#ffffb3" stroke="#000000" points="1250.3288,-122 1161.6712,-122 1161.6712,-86 1250.3288,-86 1250.3288,-122"/>
<text text-anchor="middle" x="1206" y="-99.8" font-family="Times,serif" font-size="14.00" fill="#000000">MomentPipe</text>
</g>
<!-- MomentPipe&#45;&gt;UtilsModule -->
<g id="edge9" class="edge">
<title>MomentPipe&#45;&gt;UtilsModule</title>
<path fill="none" stroke="#000000" d="M1161.6381,-104C1155.0304,-104 1150.3833,-104 1150.3833,-104 1150.3833,-104 1150.3833,-140.8939 1150.3833,-140.8939"/>
<polygon fill="#000000" stroke="#000000" points="1146.8833,-140.8938 1150.3833,-150.8939 1153.8833,-140.8939 1146.8833,-140.8938"/>
</g>
<!-- NumberPipe -->
<g id="node10" class="node">
<title>NumberPipe</title>
<polygon fill="#ffffb3" stroke="#000000" points="1143.2605,-122 1056.7395,-122 1056.7395,-86 1143.2605,-86 1143.2605,-122"/>
<text text-anchor="middle" x="1100" y="-99.8" font-family="Times,serif" font-size="14.00" fill="#000000">NumberPipe</text>
</g>
<!-- NumberPipe&#45;&gt;UtilsModule -->
<g id="edge10" class="edge">
<title>NumberPipe&#45;&gt;UtilsModule</title>
<path fill="none" stroke="#000000" d="M1106.9969,-122.1061C1106.9969,-122.1061 1106.9969,-140.991 1106.9969,-140.991"/>
<polygon fill="#000000" stroke="#000000" points="1103.4969,-140.9909 1106.9969,-150.991 1110.4969,-140.991 1103.4969,-140.9909"/>
</g>
<!-- RelativeTimePipe -->
<g id="node11" class="node">
<title>RelativeTimePipe</title>
<polygon fill="#ffffb3" stroke="#000000" points="1038.5884,-122 921.4116,-122 921.4116,-86 1038.5884,-86 1038.5884,-122"/>
<text text-anchor="middle" x="980" y="-99.8" font-family="Times,serif" font-size="14.00" fill="#000000">RelativeTimePipe</text>
</g>
<!-- RelativeTimePipe&#45;&gt;UtilsModule -->
<g id="edge11" class="edge">
<title>RelativeTimePipe&#45;&gt;UtilsModule</title>
<path fill="none" stroke="#000000" d="M1033.4192,-122.0511C1033.4192,-136.373 1033.4192,-154 1033.4192,-154 1033.4192,-154 1060.4078,-154 1060.4078,-154"/>
<polygon fill="#000000" stroke="#000000" points="1060.4079,-157.5001 1070.4078,-154 1060.4078,-150.5001 1060.4079,-157.5001"/>
</g>
<!-- ResizeEventDirective -->
<g id="node12" class="node">
<title>ResizeEventDirective</title>
<polygon fill="#ffffb3" stroke="#000000" points="903.0562,-122 764.9438,-122 764.9438,-86 903.0562,-86 903.0562,-122"/>
<text text-anchor="middle" x="834" y="-99.8" font-family="Times,serif" font-size="14.00" fill="#000000">ResizeEventDirective</text>
</g>
<!-- ResizeEventDirective&#45;&gt;UtilsModule -->
<g id="edge12" class="edge">
<title>ResizeEventDirective&#45;&gt;UtilsModule</title>
<path fill="none" stroke="#000000" d="M896.4031,-122.1871C896.4031,-137.1824 896.4031,-156 896.4031,-156 896.4031,-156 1060.489,-156 1060.489,-156"/>
<polygon fill="#000000" stroke="#000000" points="1060.489,-159.5001 1070.489,-156 1060.489,-152.5001 1060.489,-159.5001"/>
</g>
<!-- ScrollIntoView -->
<g id="node13" class="node">
<title>ScrollIntoView</title>
<polygon fill="#ffffb3" stroke="#000000" points="747.3091,-122 644.6909,-122 644.6909,-86 747.3091,-86 747.3091,-122"/>
<text text-anchor="middle" x="696" y="-99.8" font-family="Times,serif" font-size="14.00" fill="#000000">ScrollIntoView</text>
</g>
<!-- ScrollIntoView&#45;&gt;UtilsModule -->
<g id="edge13" class="edge">
<title>ScrollIntoView&#45;&gt;UtilsModule</title>
<path fill="none" stroke="#000000" d="M738.5293,-122.2819C738.5293,-137.9478 738.5293,-158 738.5293,-158 738.5293,-158 1060.5619,-158 1060.5619,-158"/>
<polygon fill="#000000" stroke="#000000" points="1060.562,-161.5001 1070.5619,-158 1060.5619,-154.5001 1060.562,-161.5001"/>
</g>
<!-- StickyComponent -->
<g id="node14" class="node">
<title>StickyComponent</title>
<polygon fill="#ffffb3" stroke="#000000" points="626.6109,-122 509.3891,-122 509.3891,-86 626.6109,-86 626.6109,-122"/>
<text text-anchor="middle" x="568" y="-99.8" font-family="Times,serif" font-size="14.00" fill="#000000">StickyComponent</text>
</g>
<!-- StickyComponent&#45;&gt;UtilsModule -->
<g id="edge14" class="edge">
<title>StickyComponent&#45;&gt;UtilsModule</title>
<path fill="none" stroke="#000000" d="M615.2006,-122.027C615.2006,-138.3976 615.2006,-160 615.2006,-160 615.2006,-160 1060.6074,-160 1060.6074,-160"/>
<polygon fill="#000000" stroke="#000000" points="1060.6074,-163.5001 1070.6074,-160 1060.6074,-156.5001 1060.6074,-163.5001"/>
</g>
<!-- TimePipe -->
<g id="node15" class="node">
<title>TimePipe</title>
<polygon fill="#ffffb3" stroke="#000000" points="491.4376,-122 420.5624,-122 420.5624,-86 491.4376,-86 491.4376,-122"/>
<text text-anchor="middle" x="456" y="-99.8" font-family="Times,serif" font-size="14.00" fill="#000000">TimePipe</text>
</g>
<!-- TimePipe&#45;&gt;UtilsModule -->
<g id="edge15" class="edge">
<title>TimePipe&#45;&gt;UtilsModule</title>
<path fill="none" stroke="#000000" d="M476.8314,-122.0336C476.8314,-139.0597 476.8314,-162 476.8313,-162 476.8313,-162 1060.7057,-162 1060.7057,-162"/>
<polygon fill="#000000" stroke="#000000" points="1060.7058,-165.5001 1070.7057,-162 1060.7057,-158.5001 1060.7058,-165.5001"/>
</g>
<!-- TooltipComponent -->
<g id="node16" class="node">
<title>TooltipComponent</title>
<polygon fill="#ffffb3" stroke="#000000" points="403.0576,-122 280.9424,-122 280.9424,-86 403.0576,-86 403.0576,-122"/>
<text text-anchor="middle" x="342" y="-99.8" font-family="Times,serif" font-size="14.00" fill="#000000">TooltipComponent</text>
</g>
<!-- TooltipComponent&#45;&gt;UtilsModule -->
<g id="edge16" class="edge">
<title>TooltipComponent&#45;&gt;UtilsModule</title>
<path fill="none" stroke="#000000" d="M398.6552,-122.002C398.6552,-139.6754 398.6552,-164 398.6552,-164 398.6552,-164 1060.5962,-164 1060.5962,-164"/>
<polygon fill="#000000" stroke="#000000" points="1060.5963,-167.5001 1070.5962,-164 1060.5962,-160.5001 1060.5963,-167.5001"/>
</g>
<!-- TooltipDirective -->
<g id="node17" class="node">
<title>TooltipDirective</title>
<polygon fill="#ffffb3" stroke="#000000" points="262.8076,-122 153.1924,-122 153.1924,-86 262.8076,-86 262.8076,-122"/>
<text text-anchor="middle" x="208" y="-99.8" font-family="Times,serif" font-size="14.00" fill="#000000">TooltipDirective</text>
</g>
<!-- TooltipDirective&#45;&gt;UtilsModule -->
<g id="edge17" class="edge">
<title>TooltipDirective&#45;&gt;UtilsModule</title>
<path fill="none" stroke="#000000" d="M256.3126,-122.2667C256.3126,-140.5552 256.3126,-166 256.3126,-166 256.3126,-166 1060.5841,-166 1060.5841,-166"/>
<polygon fill="#000000" stroke="#000000" points="1060.5842,-169.5001 1070.5841,-166 1060.5841,-162.5001 1060.5842,-169.5001"/>
</g>
<!-- ValuePipe -->
<g id="node18" class="node">
<title>ValuePipe</title>
<polygon fill="#ffffb3" stroke="#000000" points="135.3149,-122 60.6851,-122 60.6851,-86 135.3149,-86 135.3149,-122"/>
<text text-anchor="middle" x="98" y="-99.8" font-family="Times,serif" font-size="14.00" fill="#000000">ValuePipe</text>
</g>
<!-- ValuePipe&#45;&gt;UtilsModule -->
<g id="edge18" class="edge">
<title>ValuePipe&#45;&gt;UtilsModule</title>
<path fill="none" stroke="#000000" d="M127.3767,-122.1686C127.3767,-141.0898 127.3767,-168 127.3768,-168 127.3768,-168 1060.6528,-168 1060.6528,-168"/>
<polygon fill="#000000" stroke="#000000" points="1060.6529,-171.5001 1070.6528,-168 1060.6528,-164.5001 1060.6529,-171.5001"/>
</g>
<!-- Autofocus  -->
<g id="node20" class="node">
<title>Autofocus </title>
<polygon fill="#fb8072" stroke="#000000" points="2210.8172,-252 2133.1828,-252 2133.1828,-216 2210.8172,-216 2210.8172,-252"/>
<text text-anchor="middle" x="2172" y="-229.8" font-family="Times,serif" font-size="14.00" fill="#000000">Autofocus </text>
</g>
<!-- UtilsModule&#45;&gt;Autofocus  -->
<g id="edge19" class="edge">
<title>UtilsModule&#45;&gt;Autofocus </title>
<path fill="none" stroke="#000000" stroke-dasharray="5,2" d="M1157.2887,-171C1354.7098,-171 2160.125,-171 2160.125,-171 2160.125,-171 2160.125,-205.7778 2160.125,-205.7778"/>
<polygon fill="#000000" stroke="#000000" points="2156.6251,-205.7778 2160.125,-215.7778 2163.6251,-205.7778 2156.6251,-205.7778"/>
</g>
<!-- ClickOutside  -->
<g id="node21" class="node">
<title>ClickOutside </title>
<polygon fill="#fb8072" stroke="#000000" points="2114.8802,-252 2021.1198,-252 2021.1198,-216 2114.8802,-216 2114.8802,-252"/>
<text text-anchor="middle" x="2068" y="-229.8" font-family="Times,serif" font-size="14.00" fill="#000000">ClickOutside </text>
</g>
<!-- UtilsModule&#45;&gt;ClickOutside  -->
<g id="edge20" class="edge">
<title>UtilsModule&#45;&gt;ClickOutside </title>
<path fill="none" stroke="#000000" stroke-dasharray="5,2" d="M1157.3315,-173C1342.5218,-173 2058.125,-173 2058.125,-173 2058.125,-173 2058.125,-205.698 2058.125,-205.698"/>
<polygon fill="#000000" stroke="#000000" points="2054.6251,-205.698 2058.125,-215.698 2061.6251,-205.698 2054.6251,-205.698"/>
</g>
<!-- DatePipe  -->
<g id="node22" class="node">
<title>DatePipe </title>
<polygon fill="#fb8072" stroke="#000000" points="2003.3144,-252 1932.6856,-252 1932.6856,-216 2003.3144,-216 2003.3144,-252"/>
<text text-anchor="middle" x="1968" y="-229.8" font-family="Times,serif" font-size="14.00" fill="#000000">DatePipe </text>
</g>
<!-- UtilsModule&#45;&gt;DatePipe  -->
<g id="edge21" class="edge">
<title>UtilsModule&#45;&gt;DatePipe </title>
<path fill="none" stroke="#000000" stroke-dasharray="5,2" d="M1157.3901,-175C1330.1319,-175 1959.625,-175 1959.625,-175 1959.625,-175 1959.625,-205.9775 1959.625,-205.9775"/>
<polygon fill="#000000" stroke="#000000" points="1956.1251,-205.9774 1959.625,-215.9775 1963.1251,-205.9775 1956.1251,-205.9774"/>
</g>
<!-- ExprPipe  -->
<g id="node23" class="node">
<title>ExprPipe </title>
<polygon fill="#fb8072" stroke="#000000" points="1914.6021,-252 1843.3979,-252 1843.3979,-216 1914.6021,-216 1914.6021,-252"/>
<text text-anchor="middle" x="1879" y="-229.8" font-family="Times,serif" font-size="14.00" fill="#000000">ExprPipe </text>
</g>
<!-- UtilsModule&#45;&gt;ExprPipe  -->
<g id="edge22" class="edge">
<title>UtilsModule&#45;&gt;ExprPipe </title>
<path fill="none" stroke="#000000" stroke-dasharray="5,2" d="M1157.483,-177C1318.5748,-177 1872.125,-177 1872.125,-177 1872.125,-177 1872.125,-205.9648 1872.125,-205.9648"/>
<polygon fill="#000000" stroke="#000000" points="1868.6251,-205.9648 1872.125,-215.9648 1875.6251,-205.9649 1868.6251,-205.9648"/>
</g>
<!-- FocusKeyListDirective  -->
<g id="node24" class="node">
<title>FocusKeyListDirective </title>
<polygon fill="#fb8072" stroke="#000000" points="1825.1243,-252 1674.8757,-252 1674.8757,-216 1825.1243,-216 1825.1243,-252"/>
<text text-anchor="middle" x="1750" y="-229.8" font-family="Times,serif" font-size="14.00" fill="#000000">FocusKeyListDirective </text>
</g>
<!-- UtilsModule&#45;&gt;FocusKeyListDirective  -->
<g id="edge23" class="edge">
<title>UtilsModule&#45;&gt;FocusKeyListDirective </title>
<path fill="none" stroke="#000000" stroke-dasharray="5,2" d="M1157.7064,-179C1297.0532,-179 1721.7293,-179 1721.7293,-179 1721.7293,-179 1721.7293,-205.9909 1721.7293,-205.9909"/>
<polygon fill="#000000" stroke="#000000" points="1718.2294,-205.9909 1721.7293,-215.9909 1725.2294,-205.991 1718.2294,-205.9909"/>
</g>
<!-- FocusKeyListItemDirective  -->
<g id="node25" class="node">
<title>FocusKeyListItemDirective </title>
<polygon fill="#fb8072" stroke="#000000" points="1656.7807,-252 1481.2193,-252 1481.2193,-216 1656.7807,-216 1656.7807,-252"/>
<text text-anchor="middle" x="1569" y="-229.8" font-family="Times,serif" font-size="14.00" fill="#000000">FocusKeyListItemDirective </text>
</g>
<!-- UtilsModule&#45;&gt;FocusKeyListItemDirective  -->
<g id="edge24" class="edge">
<title>UtilsModule&#45;&gt;FocusKeyListItemDirective </title>
<path fill="none" stroke="#000000" stroke-dasharray="5,2" d="M1157.361,-181C1265.37,-181 1537.7866,-181 1537.7866,-181 1537.7866,-181 1537.7866,-205.7604 1537.7866,-205.7604"/>
<polygon fill="#000000" stroke="#000000" points="1534.2867,-205.7604 1537.7866,-215.7604 1541.2867,-205.7604 1534.2867,-205.7604"/>
</g>
<!-- MediaIf  -->
<g id="node26" class="node">
<title>MediaIf </title>
<polygon fill="#fb8072" stroke="#000000" points="1463.0869,-252 1398.9131,-252 1398.9131,-216 1463.0869,-216 1463.0869,-252"/>
<text text-anchor="middle" x="1431" y="-229.8" font-family="Times,serif" font-size="14.00" fill="#000000">MediaIf </text>
</g>
<!-- UtilsModule&#45;&gt;MediaIf  -->
<g id="edge25" class="edge">
<title>UtilsModule&#45;&gt;MediaIf </title>
<path fill="none" stroke="#000000" stroke-dasharray="5,2" d="M1157.4916,-183C1241.9228,-183 1419.8191,-183 1419.8191,-183 1419.8191,-183 1419.8191,-205.8757 1419.8191,-205.8757"/>
<polygon fill="#000000" stroke="#000000" points="1416.3192,-205.8757 1419.8191,-215.8757 1423.3192,-205.8757 1416.3192,-205.8757"/>
</g>
<!-- MemorySizePipe  -->
<g id="node27" class="node">
<title>MemorySizePipe </title>
<polygon fill="#fb8072" stroke="#000000" points="1380.201,-252 1263.799,-252 1263.799,-216 1380.201,-216 1380.201,-252"/>
<text text-anchor="middle" x="1322" y="-229.8" font-family="Times,serif" font-size="14.00" fill="#000000">MemorySizePipe </text>
</g>
<!-- UtilsModule&#45;&gt;MemorySizePipe  -->
<g id="edge26" class="edge">
<title>UtilsModule&#45;&gt;MemorySizePipe </title>
<path fill="none" stroke="#000000" stroke-dasharray="5,2" d="M1157.3487,-185C1223.7479,-185 1343.0334,-185 1343.0334,-185 1343.0334,-185 1343.0334,-205.7542 1343.0334,-205.7542"/>
<polygon fill="#000000" stroke="#000000" points="1339.5335,-205.7542 1343.0334,-215.7542 1346.5335,-205.7542 1339.5335,-205.7542"/>
</g>
<!-- MomentPipe  -->
<g id="node28" class="node">
<title>MomentPipe </title>
<polygon fill="#fb8072" stroke="#000000" points="1245.8284,-252 1154.1716,-252 1154.1716,-216 1245.8284,-216 1245.8284,-252"/>
<text text-anchor="middle" x="1200" y="-229.8" font-family="Times,serif" font-size="14.00" fill="#000000">MomentPipe </text>
</g>
<!-- UtilsModule&#45;&gt;MomentPipe  -->
<g id="edge27" class="edge">
<title>UtilsModule&#45;&gt;MomentPipe </title>
<path fill="none" stroke="#000000" stroke-dasharray="5,2" d="M1145.108,-187.1061C1145.108,-206.3391 1145.108,-234 1145.108,-234 1145.108,-234 1145.9657,-234 1145.9657,-234"/>
<polygon fill="#000000" stroke="#000000" points="1143.6849,-237.5001 1153.6849,-234 1143.6848,-230.5001 1143.6849,-237.5001"/>
</g>
<!-- NumberPipe  -->
<g id="node29" class="node">
<title>NumberPipe </title>
<polygon fill="#fb8072" stroke="#000000" points="1136.2606,-252 1045.7394,-252 1045.7394,-216 1136.2606,-216 1136.2606,-252"/>
<text text-anchor="middle" x="1091" y="-229.8" font-family="Times,serif" font-size="14.00" fill="#000000">NumberPipe </text>
</g>
<!-- UtilsModule&#45;&gt;NumberPipe  -->
<g id="edge28" class="edge">
<title>UtilsModule&#45;&gt;NumberPipe </title>
<path fill="none" stroke="#000000" stroke-dasharray="5,2" d="M1103.3719,-187.1061C1103.3719,-187.1061 1103.3719,-205.991 1103.3719,-205.991"/>
<polygon fill="#000000" stroke="#000000" points="1099.8719,-205.9909 1103.3719,-215.991 1106.8719,-205.991 1099.8719,-205.9909"/>
</g>
<!-- RelativeTimePipe  -->
<g id="node30" class="node">
<title>RelativeTimePipe </title>
<polygon fill="#fb8072" stroke="#000000" points="1028.0891,-252 907.9109,-252 907.9109,-216 1028.0891,-216 1028.0891,-252"/>
<text text-anchor="middle" x="968" y="-229.8" font-family="Times,serif" font-size="14.00" fill="#000000">RelativeTimePipe </text>
</g>
<!-- UtilsModule&#45;&gt;RelativeTimePipe  -->
<g id="edge29" class="edge">
<title>UtilsModule&#45;&gt;RelativeTimePipe </title>
<path fill="none" stroke="#000000" stroke-dasharray="5,2" d="M1070.3617,-185C1029.5609,-185 974.875,-185 974.875,-185 974.875,-185 974.875,-205.7542 974.875,-205.7542"/>
<polygon fill="#000000" stroke="#000000" points="971.3751,-205.7542 974.875,-215.7542 978.3751,-205.7542 971.3751,-205.7542"/>
</g>
<!-- ResizeEventDirective  -->
<g id="node31" class="node">
<title>ResizeEventDirective </title>
<polygon fill="#fb8072" stroke="#000000" points="889.5569,-252 748.4431,-252 748.4431,-216 889.5569,-216 889.5569,-252"/>
<text text-anchor="middle" x="819" y="-229.8" font-family="Times,serif" font-size="14.00" fill="#000000">ResizeEventDirective </text>
</g>
<!-- UtilsModule&#45;&gt;ResizeEventDirective  -->
<g id="edge30" class="edge">
<title>UtilsModule&#45;&gt;ResizeEventDirective </title>
<path fill="none" stroke="#000000" stroke-dasharray="5,2" d="M1070.4678,-183C990.2854,-183 827.375,-183 827.375,-183 827.375,-183 827.375,-205.8757 827.375,-205.8757"/>
<polygon fill="#000000" stroke="#000000" points="823.8751,-205.8757 827.375,-215.8757 830.8751,-205.8757 823.8751,-205.8757"/>
</g>
<!-- ScrollIntoView  -->
<g id="node32" class="node">
<title>ScrollIntoView </title>
<polygon fill="#fb8072" stroke="#000000" points="729.8088,-252 624.1912,-252 624.1912,-216 729.8088,-216 729.8088,-252"/>
<text text-anchor="middle" x="677" y="-229.8" font-family="Times,serif" font-size="14.00" fill="#000000">ScrollIntoView </text>
</g>
<!-- UtilsModule&#45;&gt;ScrollIntoView  -->
<g id="edge31" class="edge">
<title>UtilsModule&#45;&gt;ScrollIntoView </title>
<path fill="none" stroke="#000000" stroke-dasharray="5,2" d="M1070.3486,-181C961.6162,-181 687.375,-181 687.375,-181 687.375,-181 687.375,-205.7604 687.375,-205.7604"/>
<polygon fill="#000000" stroke="#000000" points="683.8751,-205.7604 687.375,-215.7604 690.8751,-205.7604 683.8751,-205.7604"/>
</g>
<!-- StickyComponent  -->
<g id="node33" class="node">
<title>StickyComponent </title>
<polygon fill="#fb8072" stroke="#000000" points="606.1114,-252 485.8886,-252 485.8886,-216 606.1114,-216 606.1114,-252"/>
<text text-anchor="middle" x="546" y="-229.8" font-family="Times,serif" font-size="14.00" fill="#000000">StickyComponent </text>
</g>
<!-- UtilsModule&#45;&gt;StickyComponent  -->
<g id="edge32" class="edge">
<title>UtilsModule&#45;&gt;StickyComponent </title>
<path fill="none" stroke="#000000" stroke-dasharray="5,2" d="M1070.3618,-179C939.2605,-179 557.875,-179 557.875,-179 557.875,-179 557.875,-205.9909 557.875,-205.9909"/>
<polygon fill="#000000" stroke="#000000" points="554.3751,-205.9909 557.875,-215.9909 561.3751,-205.991 554.3751,-205.9909"/>
</g>
<!-- TimePipe  -->
<g id="node34" class="node">
<title>TimePipe </title>
<polygon fill="#fb8072" stroke="#000000" points="467.9362,-252 394.0638,-252 394.0638,-216 467.9362,-216 467.9362,-252"/>
<text text-anchor="middle" x="431" y="-229.8" font-family="Times,serif" font-size="14.00" fill="#000000">TimePipe </text>
</g>
<!-- UtilsModule&#45;&gt;TimePipe  -->
<g id="edge33" class="edge">
<title>UtilsModule&#45;&gt;TimePipe </title>
<path fill="none" stroke="#000000" stroke-dasharray="5,2" d="M1070.58,-177C922.1946,-177 444.375,-177 444.375,-177 444.375,-177 444.375,-205.9648 444.375,-205.9648"/>
<polygon fill="#000000" stroke="#000000" points="440.8751,-205.9648 444.375,-215.9648 447.8751,-205.9649 440.8751,-205.9648"/>
</g>
<!-- TooltipComponent  -->
<g id="node35" class="node">
<title>TooltipComponent </title>
<polygon fill="#fb8072" stroke="#000000" points="376.0568,-252 249.9432,-252 249.9432,-216 376.0568,-216 376.0568,-252"/>
<text text-anchor="middle" x="313" y="-229.8" font-family="Times,serif" font-size="14.00" fill="#000000">TooltipComponent </text>
</g>
<!-- UtilsModule&#45;&gt;TooltipComponent  -->
<g id="edge34" class="edge">
<title>UtilsModule&#45;&gt;TooltipComponent </title>
<path fill="none" stroke="#000000" stroke-dasharray="5,2" d="M1070.6423,-175C905.9447,-175 328.375,-175 328.375,-175 328.375,-175 328.375,-205.9775 328.375,-205.9775"/>
<polygon fill="#000000" stroke="#000000" points="324.8751,-205.9774 328.375,-215.9775 331.8751,-205.9775 324.8751,-205.9774"/>
</g>
<!-- TooltipDirective  -->
<g id="node36" class="node">
<title>TooltipDirective </title>
<polygon fill="#fb8072" stroke="#000000" points="232.3074,-252 119.6926,-252 119.6926,-216 232.3074,-216 232.3074,-252"/>
<text text-anchor="middle" x="176" y="-229.8" font-family="Times,serif" font-size="14.00" fill="#000000">TooltipDirective </text>
</g>
<!-- UtilsModule&#45;&gt;TooltipDirective  -->
<g id="edge35" class="edge">
<title>UtilsModule&#45;&gt;TooltipDirective </title>
<path fill="none" stroke="#000000" stroke-dasharray="5,2" d="M1070.5003,-173C887.9162,-173 192.875,-173 192.875,-173 192.875,-173 192.875,-205.698 192.875,-205.698"/>
<polygon fill="#000000" stroke="#000000" points="189.3751,-205.698 192.875,-215.698 196.3751,-205.698 189.3751,-205.698"/>
</g>
<!-- ValuePipe  -->
<g id="node37" class="node">
<title>ValuePipe </title>
<polygon fill="#fb8072" stroke="#000000" points="101.8144,-252 24.1856,-252 24.1856,-216 101.8144,-216 101.8144,-252"/>
<text text-anchor="middle" x="63" y="-229.8" font-family="Times,serif" font-size="14.00" fill="#000000">ValuePipe </text>
</g>
<!-- UtilsModule&#45;&gt;ValuePipe  -->
<g id="edge36" class="edge">
<title>UtilsModule&#45;&gt;ValuePipe </title>
<path fill="none" stroke="#000000" stroke-dasharray="5,2" d="M1070.6171,-171C874.6278,-171 81.375,-171 81.375,-171 81.375,-171 81.375,-205.7778 81.375,-205.7778"/>
<polygon fill="#000000" stroke="#000000" points="77.8751,-205.7778 81.375,-215.7778 84.8751,-205.7778 77.8751,-205.7778"/>
</g>
</g>
</svg>
