<?xml version="1.0" encoding="UTF-8" standalone="no"?>
<!DOCTYPE svg PUBLIC "-//W3C//DTD SVG 1.1//EN"
 "http://www.w3.org/Graphics/SVG/1.1/DTD/svg11.dtd">
<!-- Generated by graphviz version 2.40.1 (20161225.0304)
 -->
<!-- Title: dependencies Pages: 1 -->
<svg width="504pt" height="284pt"
 viewBox="0.00 0.00 504.00 284.00" xmlns="http://www.w3.org/2000/svg" xmlns:xlink="http://www.w3.org/1999/xlink">
<g id="graph0" class="graph" transform="scale(1 1) rotate(0) translate(4 280)">
<title>dependencies</title>
<polygon fill="#ffffff" stroke="transparent" points="-4,4 -4,-280 500,-280 500,4 -4,4"/>
<text text-anchor="start" x="227.0091" y="-42.4" font-family="sans-serif" font-weight="bold" font-size="14.00" fill="#000000">Legend</text>
<polygon fill="#ffffb3" stroke="transparent" points="14,-10 14,-30 34,-30 34,-10 14,-10"/>
<text text-anchor="start" x="37.629" y="-15.4" font-family="sans-serif" font-size="14.00" fill="#000000"> &#160;Declarations</text>
<polygon fill="#8dd3c7" stroke="transparent" points="127,-10 127,-30 147,-30 147,-10 127,-10"/>
<text text-anchor="start" x="150.7251" y="-15.4" font-family="sans-serif" font-size="14.00" fill="#000000"> &#160;Module</text>
<polygon fill="#80b1d3" stroke="transparent" points="213,-10 213,-30 233,-30 233,-10 213,-10"/>
<text text-anchor="start" x="236.7812" y="-15.4" font-family="sans-serif" font-size="14.00" fill="#000000"> &#160;Bootstrap</text>
<polygon fill="#fdb462" stroke="transparent" points="310,-10 310,-30 330,-30 330,-10 310,-10"/>
<text text-anchor="start" x="333.6732" y="-15.4" font-family="sans-serif" font-size="14.00" fill="#000000"> &#160;Providers</text>
<polygon fill="#fb8072" stroke="transparent" points="406,-10 406,-30 426,-30 426,-10 406,-10"/>
<text text-anchor="start" x="429.7258" y="-15.4" font-family="sans-serif" font-size="14.00" fill="#000000"> &#160;Exports</text>
<g id="clust1" class="cluster">
<title>cluster_FusionChartsModule</title>
<polygon fill="none" stroke="#000000" stroke-dasharray="1,5" points="61.5,-70 61.5,-268 434.5,-268 434.5,-70 61.5,-70"/>
</g>
<g id="clust2" class="cluster">
<title>cluster_FusionChartsModule_declarations</title>
<polygon fill="none" stroke="#000000" points="324.5,-78 324.5,-130 426.5,-130 426.5,-78 324.5,-78"/>
</g>
<g id="clust4" class="cluster">
<title>cluster_FusionChartsModule_imports</title>
<polygon fill="none" stroke="#000000" points="69.5,-78 69.5,-130 316.5,-130 316.5,-78 69.5,-78"/>
</g>
<g id="clust5" class="cluster">
<title>cluster_FusionChartsModule_exports</title>
<polygon fill="none" stroke="#000000" points="193.5,-208 193.5,-260 297.5,-260 297.5,-208 193.5,-208"/>
</g>
<!-- FusionChart -->
<g id="node1" class="node">
<title>FusionChart</title>
<polygon fill="#ffffb3" stroke="#000000" points="418.2205,-122 332.7795,-122 332.7795,-86 418.2205,-86 418.2205,-122"/>
<text text-anchor="middle" x="375.5" y="-99.8" font-family="Times,serif" font-size="14.00" fill="#000000">FusionChart</text>
</g>
<!-- FusionChartsModule -->
<g id="node2" class="node">
<title>FusionChartsModule</title>
<polygon fill="#8dd3c7" stroke="#000000" points="312.7148,-187 309.7148,-191 288.7148,-191 285.7148,-187 178.2852,-187 178.2852,-151 312.7148,-151 312.7148,-187"/>
<text text-anchor="middle" x="245.5" y="-164.8" font-family="Times,serif" font-size="14.00" fill="#000000">FusionChartsModule</text>
</g>
<!-- FusionChart&#45;&gt;FusionChartsModule -->
<g id="edge1" class="edge">
<title>FusionChart&#45;&gt;FusionChartsModule</title>
<path fill="none" stroke="#000000" d="M375.5,-122.1061C375.5,-141.3391 375.5,-169 375.5,-169 375.5,-169 322.7847,-169 322.7847,-169"/>
<polygon fill="#000000" stroke="#000000" points="322.7848,-165.5001 312.7847,-169 322.7847,-172.5001 322.7848,-165.5001"/>
</g>
<!-- FusionChart  -->
<g id="node5" class="node">
<title>FusionChart </title>
<polygon fill="#fb8072" stroke="#000000" points="289.7206,-252 201.2794,-252 201.2794,-216 289.7206,-216 289.7206,-252"/>
<text text-anchor="middle" x="245.5" y="-229.8" font-family="Times,serif" font-size="14.00" fill="#000000">FusionChart </text>
</g>
<!-- FusionChartsModule&#45;&gt;FusionChart  -->
<g id="edge4" class="edge">
<title>FusionChartsModule&#45;&gt;FusionChart </title>
<path fill="none" stroke="#000000" stroke-dasharray="5,2" d="M245.5,-187.1061C245.5,-187.1061 245.5,-205.991 245.5,-205.991"/>
<polygon fill="#000000" stroke="#000000" points="242.0001,-205.9909 245.5,-215.991 249.0001,-205.991 242.0001,-205.9909"/>
</g>
<!-- BsSelectionModule -->
<g id="node3" class="node">
<title>BsSelectionModule</title>
<polygon fill="#8dd3c7" stroke="#000000" points="308.9299,-122 305.9299,-126 284.9299,-126 281.9299,-122 182.0701,-122 182.0701,-86 308.9299,-86 308.9299,-122"/>
<text text-anchor="middle" x="245.5" y="-99.8" font-family="Times,serif" font-size="14.00" fill="#000000">BsSelectionModule</text>
</g>
<!-- BsSelectionModule&#45;&gt;FusionChartsModule -->
<g id="edge2" class="edge">
<title>BsSelectionModule&#45;&gt;FusionChartsModule</title>
<path fill="none" stroke="#000000" d="M245.5,-122.1061C245.5,-122.1061 245.5,-140.991 245.5,-140.991"/>
<polygon fill="#000000" stroke="#000000" points="242.0001,-140.9909 245.5,-150.991 249.0001,-140.991 242.0001,-140.9909"/>
</g>
<!-- UtilsModule -->
<g id="node4" class="node">
<title>UtilsModule</title>
<polygon fill="#8dd3c7" stroke="#000000" points="163.7731,-122 160.7731,-126 139.7731,-126 136.7731,-122 77.2269,-122 77.2269,-86 163.7731,-86 163.7731,-122"/>
<text text-anchor="middle" x="120.5" y="-99.8" font-family="Times,serif" font-size="14.00" fill="#000000">UtilsModule</text>
</g>
<!-- UtilsModule&#45;&gt;FusionChartsModule -->
<g id="edge3" class="edge">
<title>UtilsModule&#45;&gt;FusionChartsModule</title>
<path fill="none" stroke="#000000" d="M120.5,-122.1061C120.5,-141.3391 120.5,-169 120.5,-169 120.5,-169 168.2434,-169 168.2434,-169"/>
<polygon fill="#000000" stroke="#000000" points="168.2434,-172.5001 178.2434,-169 168.2433,-165.5001 168.2434,-172.5001"/>
</g>
</g>
</svg>
