<?xml version="1.0" encoding="UTF-8" standalone="no"?>
<!DOCTYPE svg PUBLIC "-//W3C//DTD SVG 1.1//EN"
 "http://www.w3.org/Graphics/SVG/1.1/DTD/svg11.dtd">
<!-- Generated by graphviz version 2.47.3 (20210619.1520)
 -->
<!-- Title: dependencies Pages: 1 -->
<svg width="969pt" height="247pt"
 viewBox="0.00 0.00 969.00 246.80" xmlns="http://www.w3.org/2000/svg" xmlns:xlink="http://www.w3.org/1999/xlink">
<g id="graph0" class="graph" transform="scale(1 1) rotate(0) translate(4 242.8)">
<title>dependencies</title>
<polygon fill="white" stroke="transparent" points="-4,4 -4,-242.8 965,-242.8 965,4 -4,4"/>
<text text-anchor="middle" x="480.5" y="-8.2" font-family="sans-serif" font-size="14.00">dependencies</text>
<g id="clust1" class="cluster">
<title>cluster_BsActionModule</title>
<polygon fill="none" stroke="black" stroke-dasharray="1,5" points="8,-32.8 8,-230.8 953,-230.8 953,-32.8 8,-32.8"/>
</g>
<g id="clust10" class="cluster">
<title>cluster_BsActionModule_exports</title>
<polygon fill="none" stroke="black" points="202,-170.8 202,-222.8 738,-222.8 738,-170.8 202,-170.8"/>
</g>
<g id="clust2" class="cluster">
<title>cluster_BsActionModule_declarations</title>
<polygon fill="none" stroke="black" points="126,-40.8 126,-92.8 945,-92.8 945,-40.8 126,-40.8"/>
</g>
<g id="clust9" class="cluster">
<title>cluster_BsActionModule_imports</title>
<polygon fill="none" stroke="black" points="16,-40.8 16,-92.8 118,-92.8 118,-40.8 16,-40.8"/>
</g>
<!-- BsActionButtons -->
<g id="node1" class="node">
<title>BsActionButtons</title>
<polygon fill="#ffffb3" stroke="black" points="937.45,-84.8 824.55,-84.8 824.55,-48.8 937.45,-48.8 937.45,-84.8"/>
<text text-anchor="middle" x="881" y="-62.6" font-family="Times,serif" font-size="14.00">BsActionButtons</text>
</g>
<!-- BsActionModule -->
<g id="node7" class="node">
<title>BsActionModule</title>
<polygon fill="#8dd3c7" stroke="black" points="543.43,-149.8 540.43,-153.8 519.43,-153.8 516.43,-149.8 430.57,-149.8 430.57,-113.8 543.43,-113.8 543.43,-149.8"/>
<text text-anchor="middle" x="487" y="-127.6" font-family="Times,serif" font-size="14.00">BsActionModule</text>
</g>
<!-- BsActionButtons&#45;&gt;BsActionModule -->
<g id="edge1" class="edge">
<title>BsActionButtons&#45;&gt;BsActionModule</title>
<path fill="none" stroke="black" d="M881,-84.93C881,-105.37 881,-135.8 881,-135.8 881,-135.8 553.45,-135.8 553.45,-135.8"/>
<polygon fill="black" stroke="black" points="553.45,-132.3 543.45,-135.8 553.45,-139.3 553.45,-132.3"/>
</g>
<!-- BsActionItem -->
<g id="node2" class="node">
<title>BsActionItem</title>
<polygon fill="#ffffb3" stroke="black" points="807.04,-84.8 712.96,-84.8 712.96,-48.8 807.04,-48.8 807.04,-84.8"/>
<text text-anchor="middle" x="760" y="-62.6" font-family="Times,serif" font-size="14.00">BsActionItem</text>
</g>
<!-- BsActionItem&#45;&gt;BsActionModule -->
<g id="edge2" class="edge">
<title>BsActionItem&#45;&gt;BsActionModule</title>
<path fill="none" stroke="black" d="M721.35,-85.07C721.35,-103.36 721.35,-128.8 721.35,-128.8 721.35,-128.8 553.43,-128.8 553.43,-128.8"/>
<polygon fill="black" stroke="black" points="553.43,-125.3 543.43,-128.8 553.43,-132.3 553.43,-125.3"/>
</g>
<!-- BsActionItemContent -->
<g id="node3" class="node">
<title>BsActionItemContent</title>
<polygon fill="#ffffb3" stroke="black" points="694.37,-84.8 555.63,-84.8 555.63,-48.8 694.37,-48.8 694.37,-84.8"/>
<text text-anchor="middle" x="625" y="-62.6" font-family="Times,serif" font-size="14.00">BsActionItemContent</text>
</g>
<!-- BsActionItemContent&#45;&gt;BsActionModule -->
<g id="edge3" class="edge">
<title>BsActionItemContent&#45;&gt;BsActionModule</title>
<path fill="none" stroke="black" d="M575.79,-84.81C575.79,-100.85 575.79,-121.8 575.79,-121.8 575.79,-121.8 553.23,-121.8 553.23,-121.8"/>
<polygon fill="black" stroke="black" points="553.23,-118.3 543.23,-121.8 553.23,-125.3 553.23,-118.3"/>
</g>
<!-- BsActionMenu -->
<g id="node4" class="node">
<title>BsActionMenu</title>
<polygon fill="#ffffb3" stroke="black" points="537.54,-84.8 436.46,-84.8 436.46,-48.8 537.54,-48.8 537.54,-84.8"/>
<text text-anchor="middle" x="487" y="-62.6" font-family="Times,serif" font-size="14.00">BsActionMenu</text>
</g>
<!-- BsActionMenu&#45;&gt;BsActionModule -->
<g id="edge4" class="edge">
<title>BsActionMenu&#45;&gt;BsActionModule</title>
<path fill="none" stroke="black" d="M487,-84.91C487,-84.91 487,-103.79 487,-103.79"/>
<polygon fill="black" stroke="black" points="483.5,-103.79 487,-113.79 490.5,-103.79 483.5,-103.79"/>
</g>
<!-- BsDropdownDirective -->
<g id="node5" class="node">
<title>BsDropdownDirective</title>
<polygon fill="#ffffb3" stroke="black" points="418.24,-84.8 275.76,-84.8 275.76,-48.8 418.24,-48.8 418.24,-84.8"/>
<text text-anchor="middle" x="347" y="-62.6" font-family="Times,serif" font-size="14.00">BsDropdownDirective</text>
</g>
<!-- BsDropdownDirective&#45;&gt;BsActionModule -->
<g id="edge5" class="edge">
<title>BsDropdownDirective&#45;&gt;BsActionModule</title>
<path fill="none" stroke="black" d="M396.42,-84.81C396.42,-100.85 396.42,-121.8 396.42,-121.8 396.42,-121.8 420.67,-121.8 420.67,-121.8"/>
<polygon fill="black" stroke="black" points="420.67,-125.3 430.67,-121.8 420.67,-118.3 420.67,-125.3"/>
</g>
<!-- BsDropdownMenu -->
<g id="node6" class="node">
<title>BsDropdownMenu</title>
<polygon fill="#ffffb3" stroke="black" points="257.81,-84.8 134.19,-84.8 134.19,-48.8 257.81,-48.8 257.81,-84.8"/>
<text text-anchor="middle" x="196" y="-62.6" font-family="Times,serif" font-size="14.00">BsDropdownMenu</text>
</g>
<!-- BsDropdownMenu&#45;&gt;BsActionModule -->
<g id="edge6" class="edge">
<title>BsDropdownMenu&#45;&gt;BsActionModule</title>
<path fill="none" stroke="black" d="M233.77,-85.07C233.77,-103.36 233.77,-128.8 233.77,-128.8 233.77,-128.8 420.49,-128.8 420.49,-128.8"/>
<polygon fill="black" stroke="black" points="420.49,-132.3 430.49,-128.8 420.49,-125.3 420.49,-132.3"/>
</g>
<!-- BsActionButtons  -->
<g id="node9" class="node">
<title>BsActionButtons </title>
<polygon fill="#fb8072" stroke="black" points="729.95,-214.8 614.05,-214.8 614.05,-178.8 729.95,-178.8 729.95,-214.8"/>
<text text-anchor="middle" x="672" y="-192.6" font-family="Times,serif" font-size="14.00">BsActionButtons </text>
</g>
<!-- BsActionModule&#45;&gt;BsActionButtons  -->
<g id="edge8" class="edge">
<title>BsActionModule&#45;&gt;BsActionButtons </title>
<path fill="none" stroke="black" stroke-dasharray="5,2" d="M543.62,-142.8C592.13,-142.8 654.23,-142.8 654.23,-142.8 654.23,-142.8 654.23,-168.52 654.23,-168.52"/>
<polygon fill="black" stroke="black" points="650.73,-168.52 654.23,-178.52 657.73,-168.52 650.73,-168.52"/>
</g>
<!-- BsActionItem  -->
<g id="node10" class="node">
<title>BsActionItem </title>
<polygon fill="#fb8072" stroke="black" points="596.04,-214.8 497.96,-214.8 497.96,-178.8 596.04,-178.8 596.04,-214.8"/>
<text text-anchor="middle" x="547" y="-192.6" font-family="Times,serif" font-size="14.00">BsActionItem </text>
</g>
<!-- BsActionModule&#45;&gt;BsActionItem  -->
<g id="edge9" class="edge">
<title>BsActionModule&#45;&gt;BsActionItem </title>
<path fill="none" stroke="black" stroke-dasharray="5,2" d="M520.6,-149.91C520.6,-149.91 520.6,-168.79 520.6,-168.79"/>
<polygon fill="black" stroke="black" points="517.1,-168.79 520.6,-178.79 524.1,-168.79 517.1,-168.79"/>
</g>
<!-- BsActionMenu  -->
<g id="node11" class="node">
<title>BsActionMenu </title>
<polygon fill="#fb8072" stroke="black" points="479.54,-214.8 374.46,-214.8 374.46,-178.8 479.54,-178.8 479.54,-214.8"/>
<text text-anchor="middle" x="427" y="-192.6" font-family="Times,serif" font-size="14.00">BsActionMenu </text>
</g>
<!-- BsActionModule&#45;&gt;BsActionMenu  -->
<g id="edge10" class="edge">
<title>BsActionModule&#45;&gt;BsActionMenu </title>
<path fill="none" stroke="black" stroke-dasharray="5,2" d="M455.15,-149.91C455.15,-149.91 455.15,-168.79 455.15,-168.79"/>
<polygon fill="black" stroke="black" points="451.65,-168.79 455.15,-178.79 458.65,-168.79 451.65,-168.79"/>
</g>
<!-- BsDropdownDirective  -->
<g id="node12" class="node">
<title>BsDropdownDirective </title>
<polygon fill="#fb8072" stroke="black" points="356.24,-214.8 209.76,-214.8 209.76,-178.8 356.24,-178.8 356.24,-214.8"/>
<text text-anchor="middle" x="283" y="-192.6" font-family="Times,serif" font-size="14.00">BsDropdownDirective </text>
</g>
<!-- BsActionModule&#45;&gt;BsDropdownDirective  -->
<g id="edge11" class="edge">
<title>BsActionModule&#45;&gt;BsDropdownDirective </title>
<path fill="none" stroke="black" stroke-dasharray="5,2" d="M430.49,-142.8C380.65,-142.8 315.88,-142.8 315.88,-142.8 315.88,-142.8 315.88,-168.52 315.88,-168.52"/>
<polygon fill="black" stroke="black" points="312.38,-168.52 315.88,-178.52 319.38,-168.52 312.38,-168.52"/>
</g>
<!-- UtilsModule -->
<g id="node8" class="node">
<title>UtilsModule</title>
<polygon fill="#8dd3c7" stroke="black" points="110.27,-84.8 107.27,-88.8 86.27,-88.8 83.27,-84.8 23.73,-84.8 23.73,-48.8 110.27,-48.8 110.27,-84.8"/>
<text text-anchor="middle" x="67" y="-62.6" font-family="Times,serif" font-size="14.00">UtilsModule</text>
</g>
<!-- UtilsModule&#45;&gt;BsActionModule -->
<g id="edge7" class="edge">
<title>UtilsModule&#45;&gt;BsActionModule</title>
<path fill="none" stroke="black" d="M67,-84.93C67,-105.37 67,-135.8 67,-135.8 67,-135.8 420.36,-135.8 420.36,-135.8"/>
<polygon fill="black" stroke="black" points="420.36,-139.3 430.36,-135.8 420.36,-132.3 420.36,-139.3"/>
</g>
</g>
</svg>
