<?xml version="1.0" encoding="UTF-8" standalone="no"?>
<!DOCTYPE svg PUBLIC "-//W3C//DTD SVG 1.1//EN"
 "http://www.w3.org/Graphics/SVG/1.1/DTD/svg11.dtd">
<!-- Generated by graphviz version 2.40.1 (20161225.0304)
 -->
<!-- Title: dependencies Pages: 1 -->
<svg width="859pt" height="284pt"
 viewBox="0.00 0.00 859.00 284.00" xmlns="http://www.w3.org/2000/svg" xmlns:xlink="http://www.w3.org/1999/xlink">
<g id="graph0" class="graph" transform="scale(1 1) rotate(0) translate(4 280)">
<title>dependencies</title>
<polygon fill="#ffffff" stroke="transparent" points="-4,4 -4,-280 855,-280 855,4 -4,4"/>
<text text-anchor="start" x="404.5091" y="-42.4" font-family="sans-serif" font-weight="bold" font-size="14.00" fill="#000000">Legend</text>
<polygon fill="#ffffb3" stroke="transparent" points="191.5,-10 191.5,-30 211.5,-30 211.5,-10 191.5,-10"/>
<text text-anchor="start" x="215.129" y="-15.4" font-family="sans-serif" font-size="14.00" fill="#000000"> &#160;Declarations</text>
<polygon fill="#8dd3c7" stroke="transparent" points="304.5,-10 304.5,-30 324.5,-30 324.5,-10 304.5,-10"/>
<text text-anchor="start" x="328.2251" y="-15.4" font-family="sans-serif" font-size="14.00" fill="#000000"> &#160;Module</text>
<polygon fill="#80b1d3" stroke="transparent" points="390.5,-10 390.5,-30 410.5,-30 410.5,-10 390.5,-10"/>
<text text-anchor="start" x="414.2812" y="-15.4" font-family="sans-serif" font-size="14.00" fill="#000000"> &#160;Bootstrap</text>
<polygon fill="#fdb462" stroke="transparent" points="487.5,-10 487.5,-30 507.5,-30 507.5,-10 487.5,-10"/>
<text text-anchor="start" x="511.1732" y="-15.4" font-family="sans-serif" font-size="14.00" fill="#000000"> &#160;Providers</text>
<polygon fill="#fb8072" stroke="transparent" points="583.5,-10 583.5,-30 603.5,-30 603.5,-10 583.5,-10"/>
<text text-anchor="start" x="607.2258" y="-15.4" font-family="sans-serif" font-size="14.00" fill="#000000"> &#160;Exports</text>
<g id="clust1" class="cluster">
<title>cluster_BsActionModule</title>
<polygon fill="none" stroke="#000000" stroke-dasharray="1,5" points="8,-70 8,-268 843,-268 843,-70 8,-70"/>
</g>
<g id="clust2" class="cluster">
<title>cluster_BsActionModule_declarations</title>
<polygon fill="none" stroke="#000000" points="16,-78 16,-130 835,-130 835,-78 16,-78"/>
</g>
<g id="clust10" class="cluster">
<title>cluster_BsActionModule_exports</title>
<polygon fill="none" stroke="#000000" points="161,-208 161,-260 697,-260 697,-208 161,-208"/>
</g>
<!-- BsActionButtons -->
<g id="node1" class="node">
<title>BsActionButtons</title>
<polygon fill="#ffffb3" stroke="#000000" points="827.4469,-122 714.5531,-122 714.5531,-86 827.4469,-86 827.4469,-122"/>
<text text-anchor="middle" x="771" y="-99.8" font-family="Times,serif" font-size="14.00" fill="#000000">BsActionButtons</text>
</g>
<!-- BsActionModule -->
<g id="node7" class="node">
<title>BsActionModule</title>
<polygon fill="#8dd3c7" stroke="#000000" points="502.4342,-187 499.4342,-191 478.4342,-191 475.4342,-187 389.5658,-187 389.5658,-151 502.4342,-151 502.4342,-187"/>
<text text-anchor="middle" x="446" y="-164.8" font-family="Times,serif" font-size="14.00" fill="#000000">BsActionModule</text>
</g>
<!-- BsActionButtons&#45;&gt;BsActionModule -->
<g id="edge1" class="edge">
<title>BsActionButtons&#45;&gt;BsActionModule</title>
<path fill="none" stroke="#000000" d="M771,-122.1061C771,-141.3391 771,-169 771,-169 771,-169 512.2396,-169 512.2396,-169"/>
<polygon fill="#000000" stroke="#000000" points="512.2397,-165.5001 502.2396,-169 512.2396,-172.5001 512.2397,-165.5001"/>
</g>
<!-- BsActionItem -->
<g id="node2" class="node">
<title>BsActionItem</title>
<polygon fill="#ffffb3" stroke="#000000" points="697.0411,-122 602.9589,-122 602.9589,-86 697.0411,-86 697.0411,-122"/>
<text text-anchor="middle" x="650" y="-99.8" font-family="Times,serif" font-size="14.00" fill="#000000">BsActionItem</text>
</g>
<!-- BsActionItem&#45;&gt;BsActionModule -->
<g id="edge2" class="edge">
<title>BsActionItem&#45;&gt;BsActionModule</title>
<path fill="none" stroke="#000000" d="M645.8515,-122.027C645.8515,-138.3976 645.8515,-160 645.8515,-160 645.8515,-160 512.4681,-160 512.4681,-160"/>
<polygon fill="#000000" stroke="#000000" points="512.4681,-156.5001 502.4681,-160 512.468,-163.5001 512.4681,-156.5001"/>
</g>
<!-- BsActionItemContent -->
<g id="node3" class="node">
<title>BsActionItemContent</title>
<polygon fill="#ffffb3" stroke="#000000" points="584.3725,-122 445.6275,-122 445.6275,-86 584.3725,-86 584.3725,-122"/>
<text text-anchor="middle" x="515" y="-99.8" font-family="Times,serif" font-size="14.00" fill="#000000">BsActionItemContent</text>
</g>
<!-- BsActionItemContent&#45;&gt;BsActionModule -->
<g id="edge3" class="edge">
<title>BsActionItemContent&#45;&gt;BsActionModule</title>
<path fill="none" stroke="#000000" d="M473.8903,-122.1061C473.8903,-122.1061 473.8903,-140.991 473.8903,-140.991"/>
<polygon fill="#000000" stroke="#000000" points="470.3903,-140.9909 473.8903,-150.991 477.3903,-140.991 470.3903,-140.9909"/>
</g>
<!-- BsActionMenu -->
<g id="node4" class="node">
<title>BsActionMenu</title>
<polygon fill="#ffffb3" stroke="#000000" points="427.5438,-122 326.4562,-122 326.4562,-86 427.5438,-86 427.5438,-122"/>
<text text-anchor="middle" x="377" y="-99.8" font-family="Times,serif" font-size="14.00" fill="#000000">BsActionMenu</text>
</g>
<!-- BsActionMenu&#45;&gt;BsActionModule -->
<g id="edge4" class="edge">
<title>BsActionMenu&#45;&gt;BsActionModule</title>
<path fill="none" stroke="#000000" d="M408.7773,-122.1061C408.7773,-122.1061 408.7773,-140.991 408.7773,-140.991"/>
<polygon fill="#000000" stroke="#000000" points="405.2774,-140.9909 408.7773,-150.991 412.2774,-140.991 405.2774,-140.9909"/>
</g>
<!-- BsDropdownDirective -->
<g id="node5" class="node">
<title>BsDropdownDirective</title>
<polygon fill="#ffffb3" stroke="#000000" points="308.238,-122 165.762,-122 165.762,-86 308.238,-86 308.238,-122"/>
<text text-anchor="middle" x="237" y="-99.8" font-family="Times,serif" font-size="14.00" fill="#000000">BsDropdownDirective</text>
</g>
<!-- BsDropdownDirective&#45;&gt;BsActionModule -->
<g id="edge5" class="edge">
<title>BsDropdownDirective&#45;&gt;BsActionModule</title>
<path fill="none" stroke="#000000" d="M215.377,-122.027C215.377,-138.3976 215.377,-160 215.377,-160 215.377,-160 379.5833,-160 379.5833,-160"/>
<polygon fill="#000000" stroke="#000000" points="379.5833,-163.5001 389.5833,-160 379.5832,-156.5001 379.5833,-163.5001"/>
</g>
<!-- BsDropdownMenu -->
<g id="node6" class="node">
<title>BsDropdownMenu</title>
<polygon fill="#ffffb3" stroke="#000000" points="147.8146,-122 24.1854,-122 24.1854,-86 147.8146,-86 147.8146,-122"/>
<text text-anchor="middle" x="86" y="-99.8" font-family="Times,serif" font-size="14.00" fill="#000000">BsDropdownMenu</text>
</g>
<!-- BsDropdownMenu&#45;&gt;BsActionModule -->
<g id="edge6" class="edge">
<title>BsDropdownMenu&#45;&gt;BsActionModule</title>
<path fill="none" stroke="#000000" d="M86,-122.1061C86,-141.3391 86,-169 86,-169 86,-169 379.75,-169 379.75,-169"/>
<polygon fill="#000000" stroke="#000000" points="379.75,-172.5001 389.75,-169 379.75,-165.5001 379.75,-172.5001"/>
</g>
<!-- BsActionButtons  -->
<g id="node8" class="node">
<title>BsActionButtons </title>
<polygon fill="#fb8072" stroke="#000000" points="688.946,-252 573.054,-252 573.054,-216 688.946,-216 688.946,-252"/>
<text text-anchor="middle" x="631" y="-229.8" font-family="Times,serif" font-size="14.00" fill="#000000">BsActionButtons </text>
</g>
<!-- BsActionModule&#45;&gt;BsActionButtons  -->
<g id="edge7" class="edge">
<title>BsActionModule&#45;&gt;BsActionButtons </title>
<path fill="none" stroke="#000000" stroke-dasharray="5,2" d="M502.2901,-178C538.4661,-178 578.7316,-178 578.7316,-178 578.7316,-178 578.7316,-205.973 578.7316,-205.973"/>
<polygon fill="#000000" stroke="#000000" points="575.2317,-205.973 578.7316,-215.973 582.2317,-205.973 575.2317,-205.973"/>
</g>
<!-- BsActionItem  -->
<g id="node9" class="node">
<title>BsActionItem </title>
<polygon fill="#fb8072" stroke="#000000" points="555.04,-252 456.96,-252 456.96,-216 555.04,-216 555.04,-252"/>
<text text-anchor="middle" x="506" y="-229.8" font-family="Times,serif" font-size="14.00" fill="#000000">BsActionItem </text>
</g>
<!-- BsActionModule&#45;&gt;BsActionItem  -->
<g id="edge8" class="edge">
<title>BsActionModule&#45;&gt;BsActionItem </title>
<path fill="none" stroke="#000000" stroke-dasharray="5,2" d="M479.5984,-187.1061C479.5984,-187.1061 479.5984,-205.991 479.5984,-205.991"/>
<polygon fill="#000000" stroke="#000000" points="476.0984,-205.9909 479.5984,-215.991 483.0984,-205.991 476.0984,-205.9909"/>
</g>
<!-- BsActionMenu  -->
<g id="node10" class="node">
<title>BsActionMenu </title>
<polygon fill="#fb8072" stroke="#000000" points="438.5428,-252 333.4572,-252 333.4572,-216 438.5428,-216 438.5428,-252"/>
<text text-anchor="middle" x="386" y="-229.8" font-family="Times,serif" font-size="14.00" fill="#000000">BsActionMenu </text>
</g>
<!-- BsActionModule&#45;&gt;BsActionMenu  -->
<g id="edge9" class="edge">
<title>BsActionModule&#45;&gt;BsActionMenu </title>
<path fill="none" stroke="#000000" stroke-dasharray="5,2" d="M414.1523,-187.1061C414.1523,-187.1061 414.1523,-205.991 414.1523,-205.991"/>
<polygon fill="#000000" stroke="#000000" points="410.6524,-205.9909 414.1523,-215.991 417.6524,-205.991 410.6524,-205.9909"/>
</g>
<!-- BsDropdownDirective  -->
<g id="node11" class="node">
<title>BsDropdownDirective </title>
<polygon fill="#fb8072" stroke="#000000" points="315.238,-252 168.762,-252 168.762,-216 315.238,-216 315.238,-252"/>
<text text-anchor="middle" x="242" y="-229.8" font-family="Times,serif" font-size="14.00" fill="#000000">BsDropdownDirective </text>
</g>
<!-- BsActionModule&#45;&gt;BsDropdownDirective  -->
<g id="edge10" class="edge">
<title>BsActionModule&#45;&gt;BsDropdownDirective </title>
<path fill="none" stroke="#000000" stroke-dasharray="5,2" d="M389.7553,-178C335.6069,-178 261.873,-178 261.873,-178 261.873,-178 261.873,-205.973 261.873,-205.973"/>
<polygon fill="#000000" stroke="#000000" points="258.3731,-205.973 261.873,-215.973 265.3731,-205.973 258.3731,-205.973"/>
</g>
</g>
</svg>
