<?xml version="1.0" encoding="UTF-8" standalone="no"?>
<!DOCTYPE svg PUBLIC "-//W3C//DTD SVG 1.1//EN"
 "http://www.w3.org/Graphics/SVG/1.1/DTD/svg11.dtd">
<!-- Generated by graphviz version 2.40.1 (20161225.0304)
 -->
<!-- Title: dependencies Pages: 1 -->
<svg width="504pt" height="284pt"
 viewBox="0.00 0.00 504.00 284.00" xmlns="http://www.w3.org/2000/svg" xmlns:xlink="http://www.w3.org/1999/xlink">
<g id="graph0" class="graph" transform="scale(1 1) rotate(0) translate(4 280)">
<title>dependencies</title>
<polygon fill="#ffffff" stroke="transparent" points="-4,4 -4,-280 500,-280 500,4 -4,4"/>
<text text-anchor="start" x="227.0091" y="-42.4" font-family="sans-serif" font-weight="bold" font-size="14.00" fill="#000000">Legend</text>
<polygon fill="#ffffb3" stroke="transparent" points="14,-10 14,-30 34,-30 34,-10 14,-10"/>
<text text-anchor="start" x="37.629" y="-15.4" font-family="sans-serif" font-size="14.00" fill="#000000"> &#160;Declarations</text>
<polygon fill="#8dd3c7" stroke="transparent" points="127,-10 127,-30 147,-30 147,-10 127,-10"/>
<text text-anchor="start" x="150.7251" y="-15.4" font-family="sans-serif" font-size="14.00" fill="#000000"> &#160;Module</text>
<polygon fill="#80b1d3" stroke="transparent" points="213,-10 213,-30 233,-30 233,-10 213,-10"/>
<text text-anchor="start" x="236.7812" y="-15.4" font-family="sans-serif" font-size="14.00" fill="#000000"> &#160;Bootstrap</text>
<polygon fill="#fdb462" stroke="transparent" points="310,-10 310,-30 330,-30 330,-10 310,-10"/>
<text text-anchor="start" x="333.6732" y="-15.4" font-family="sans-serif" font-size="14.00" fill="#000000"> &#160;Providers</text>
<polygon fill="#fb8072" stroke="transparent" points="406,-10 406,-30 426,-30 426,-10 406,-10"/>
<text text-anchor="start" x="429.7258" y="-15.4" font-family="sans-serif" font-size="14.00" fill="#000000"> &#160;Exports</text>
<g id="clust1" class="cluster">
<title>cluster_HeatmapModule</title>
<polygon fill="none" stroke="#000000" stroke-dasharray="1,5" points="132,-70 132,-268 364,-268 364,-70 132,-70"/>
</g>
<g id="clust2" class="cluster">
<title>cluster_HeatmapModule_declarations</title>
<polygon fill="none" stroke="#000000" points="144,-78 144,-130 352,-130 352,-78 144,-78"/>
</g>
<g id="clust6" class="cluster">
<title>cluster_HeatmapModule_exports</title>
<polygon fill="none" stroke="#000000" points="140,-208 140,-260 356,-260 356,-208 140,-208"/>
</g>
<!-- Heatmap -->
<g id="node1" class="node">
<title>Heatmap</title>
<polygon fill="#ffffb3" stroke="#000000" points="344.0332,-122 277.9668,-122 277.9668,-86 344.0332,-86 344.0332,-122"/>
<text text-anchor="middle" x="311" y="-99.8" font-family="Times,serif" font-size="14.00" fill="#000000">Heatmap</text>
</g>
<!-- HeatmapModule -->
<g id="node3" class="node">
<title>HeatmapModule</title>
<polygon fill="#8dd3c7" stroke="#000000" points="262.0814,-187 259.0814,-191 238.0814,-191 235.0814,-187 151.9186,-187 151.9186,-151 262.0814,-151 262.0814,-187"/>
<text text-anchor="middle" x="207" y="-164.8" font-family="Times,serif" font-size="14.00" fill="#000000">HeatmapModule</text>
</g>
<!-- Heatmap&#45;&gt;HeatmapModule -->
<g id="edge1" class="edge">
<title>Heatmap&#45;&gt;HeatmapModule</title>
<path fill="none" stroke="#000000" d="M322.1719,-122.0225C322.1719,-139.3734 322.1719,-163 322.1719,-163 322.1719,-163 272.2246,-163 272.2246,-163"/>
<polygon fill="#000000" stroke="#000000" points="272.2247,-159.5001 262.2246,-163 272.2246,-166.5001 272.2247,-159.5001"/>
</g>
<!-- HeatmapTooltip -->
<g id="node2" class="node">
<title>HeatmapTooltip</title>
<polygon fill="#ffffb3" stroke="#000000" points="259.7563,-122 152.2437,-122 152.2437,-86 259.7563,-86 259.7563,-122"/>
<text text-anchor="middle" x="206" y="-99.8" font-family="Times,serif" font-size="14.00" fill="#000000">HeatmapTooltip</text>
</g>
<!-- HeatmapTooltip&#45;&gt;HeatmapModule -->
<g id="edge2" class="edge">
<title>HeatmapTooltip&#45;&gt;HeatmapModule</title>
<path fill="none" stroke="#000000" d="M206,-122.1061C206,-122.1061 206,-140.991 206,-140.991"/>
<polygon fill="#000000" stroke="#000000" points="202.5001,-140.9909 206,-150.991 209.5001,-140.991 202.5001,-140.9909"/>
</g>
<!-- Heatmap  -->
<g id="node4" class="node">
<title>Heatmap </title>
<polygon fill="#fb8072" stroke="#000000" points="348.0316,-252 277.9684,-252 277.9684,-216 348.0316,-216 348.0316,-252"/>
<text text-anchor="middle" x="313" y="-229.8" font-family="Times,serif" font-size="14.00" fill="#000000">Heatmap </text>
</g>
<!-- HeatmapModule&#45;&gt;Heatmap  -->
<g id="edge3" class="edge">
<title>HeatmapModule&#45;&gt;Heatmap </title>
<path fill="none" stroke="#000000" stroke-dasharray="5,2" d="M262.2197,-175C282.2623,-175 300.0781,-175 300.0781,-175 300.0781,-175 300.0781,-205.9775 300.0781,-205.9775"/>
<polygon fill="#000000" stroke="#000000" points="296.5782,-205.9774 300.0781,-215.9775 303.5782,-205.9775 296.5782,-205.9774"/>
</g>
<!-- HeatmapTooltip  -->
<g id="node5" class="node">
<title>HeatmapTooltip </title>
<polygon fill="#fb8072" stroke="#000000" points="259.7563,-252 148.2437,-252 148.2437,-216 259.7563,-216 259.7563,-252"/>
<text text-anchor="middle" x="204" y="-229.8" font-family="Times,serif" font-size="14.00" fill="#000000">HeatmapTooltip </text>
</g>
<!-- HeatmapModule&#45;&gt;HeatmapTooltip  -->
<g id="edge4" class="edge">
<title>HeatmapModule&#45;&gt;HeatmapTooltip </title>
<path fill="none" stroke="#000000" stroke-dasharray="5,2" d="M205.7936,-187.1061C205.7936,-187.1061 205.7936,-205.991 205.7936,-205.991"/>
<polygon fill="#000000" stroke="#000000" points="202.2937,-205.9909 205.7936,-215.991 209.2937,-205.991 202.2937,-205.9909"/>
</g>
</g>
</svg>
