<?xml version="1.0" encoding="UTF-8" standalone="no"?>
<!DOCTYPE svg PUBLIC "-//W3C//DTD SVG 1.1//EN"
 "http://www.w3.org/Graphics/SVG/1.1/DTD/svg11.dtd">
<!-- Generated by graphviz version 2.47.3 (20210619.1520)
 -->
<!-- Title: dependencies Pages: 1 -->
<svg width="583pt" height="247pt"
 viewBox="0.00 0.00 583.00 246.80" xmlns="http://www.w3.org/2000/svg" xmlns:xlink="http://www.w3.org/1999/xlink">
<g id="graph0" class="graph" transform="scale(1 1) rotate(0) translate(4 242.8)">
<title>dependencies</title>
<polygon fill="white" stroke="transparent" points="-4,4 -4,-242.8 579,-242.8 579,4 -4,4"/>
<text text-anchor="middle" x="287.5" y="-8.2" font-family="sans-serif" font-size="14.00">dependencies</text>
<g id="clust1" class="cluster">
<title>cluster_BsStatusBarModule</title>
<polygon fill="none" stroke="black" stroke-dasharray="1,5" points="8,-32.8 8,-230.8 567,-230.8 567,-32.8 8,-32.8"/>
</g>
<g id="clust2" class="cluster">
<title>cluster_BsStatusBarModule_declarations</title>
<polygon fill="none" stroke="black" points="257,-40.8 257,-92.8 559,-92.8 559,-40.8 257,-40.8"/>
</g>
<g id="clust6" class="cluster">
<title>cluster_BsStatusBarModule_exports</title>
<polygon fill="none" stroke="black" points="104,-170.8 104,-222.8 413,-222.8 413,-170.8 104,-170.8"/>
</g>
<g id="clust5" class="cluster">
<title>cluster_BsStatusBarModule_imports</title>
<polygon fill="none" stroke="black" points="16,-40.8 16,-92.8 249,-92.8 249,-40.8 16,-40.8"/>
</g>
<!-- BsFullscreenActivator -->
<g id="node1" class="node">
<title>BsFullscreenActivator</title>
<polygon fill="#ffffb3" stroke="black" points="550.96,-84.8 409.04,-84.8 409.04,-48.8 550.96,-48.8 550.96,-84.8"/>
<text text-anchor="middle" x="480" y="-62.6" font-family="Times,serif" font-size="14.00">BsFullscreenActivator</text>
</g>
<!-- BsStatusBarModule -->
<g id="node3" class="node">
<title>BsStatusBarModule</title>
<polygon fill="#8dd3c7" stroke="black" points="318.27,-149.8 315.27,-153.8 294.27,-153.8 291.27,-149.8 189.73,-149.8 189.73,-113.8 318.27,-113.8 318.27,-149.8"/>
<text text-anchor="middle" x="254" y="-127.6" font-family="Times,serif" font-size="14.00">BsStatusBarModule</text>
</g>
<!-- BsFullscreenActivator&#45;&gt;BsStatusBarModule -->
<g id="edge1" class="edge">
<title>BsFullscreenActivator&#45;&gt;BsStatusBarModule</title>
<path fill="none" stroke="black" d="M480,-84.91C480,-104.14 480,-131.8 480,-131.8 480,-131.8 328.46,-131.8 328.46,-131.8"/>
<polygon fill="black" stroke="black" points="328.46,-128.3 318.46,-131.8 328.46,-135.3 328.46,-128.3"/>
</g>
<!-- BsNetworkActivity -->
<g id="node2" class="node">
<title>BsNetworkActivity</title>
<polygon fill="#ffffb3" stroke="black" points="390.64,-84.8 265.36,-84.8 265.36,-48.8 390.64,-48.8 390.64,-84.8"/>
<text text-anchor="middle" x="328" y="-62.6" font-family="Times,serif" font-size="14.00">BsNetworkActivity</text>
</g>
<!-- BsNetworkActivity&#45;&gt;BsStatusBarModule -->
<g id="edge2" class="edge">
<title>BsNetworkActivity&#45;&gt;BsStatusBarModule</title>
<path fill="none" stroke="black" d="M291.78,-84.91C291.78,-84.91 291.78,-103.79 291.78,-103.79"/>
<polygon fill="black" stroke="black" points="288.28,-103.79 291.78,-113.79 295.28,-103.79 288.28,-103.79"/>
</g>
<!-- BsFullscreenActivator  -->
<g id="node6" class="node">
<title>BsFullscreenActivator </title>
<polygon fill="#fb8072" stroke="black" points="404.96,-214.8 259.04,-214.8 259.04,-178.8 404.96,-178.8 404.96,-214.8"/>
<text text-anchor="middle" x="332" y="-192.6" font-family="Times,serif" font-size="14.00">BsFullscreenActivator </text>
</g>
<!-- BsStatusBarModule&#45;&gt;BsFullscreenActivator  -->
<g id="edge5" class="edge">
<title>BsStatusBarModule&#45;&gt;BsFullscreenActivator </title>
<path fill="none" stroke="black" stroke-dasharray="5,2" d="M288.83,-149.91C288.83,-149.91 288.83,-168.79 288.83,-168.79"/>
<polygon fill="black" stroke="black" points="285.33,-168.79 288.83,-178.79 292.33,-168.79 285.33,-168.79"/>
</g>
<!-- BsNetworkActivity  -->
<g id="node7" class="node">
<title>BsNetworkActivity </title>
<polygon fill="#fb8072" stroke="black" points="241.64,-214.8 112.36,-214.8 112.36,-178.8 241.64,-178.8 241.64,-214.8"/>
<text text-anchor="middle" x="177" y="-192.6" font-family="Times,serif" font-size="14.00">BsNetworkActivity </text>
</g>
<!-- BsStatusBarModule&#45;&gt;BsNetworkActivity  -->
<g id="edge6" class="edge">
<title>BsStatusBarModule&#45;&gt;BsNetworkActivity </title>
<path fill="none" stroke="black" stroke-dasharray="5,2" d="M215.59,-149.91C215.59,-149.91 215.59,-168.79 215.59,-168.79"/>
<polygon fill="black" stroke="black" points="212.09,-168.79 215.59,-178.79 219.09,-168.79 212.09,-168.79"/>
</g>
<!-- BsActionModule -->
<g id="node4" class="node">
<title>BsActionModule</title>
<polygon fill="#8dd3c7" stroke="black" points="241.43,-84.8 238.43,-88.8 217.43,-88.8 214.43,-84.8 128.57,-84.8 128.57,-48.8 241.43,-48.8 241.43,-84.8"/>
<text text-anchor="middle" x="185" y="-62.6" font-family="Times,serif" font-size="14.00">BsActionModule</text>
</g>
<!-- BsActionModule&#45;&gt;BsStatusBarModule -->
<g id="edge3" class="edge">
<title>BsActionModule&#45;&gt;BsStatusBarModule</title>
<path fill="none" stroke="black" d="M215.42,-84.91C215.42,-84.91 215.42,-103.79 215.42,-103.79"/>
<polygon fill="black" stroke="black" points="211.92,-103.79 215.42,-113.79 218.92,-103.79 211.92,-103.79"/>
</g>
<!-- UtilsModule -->
<g id="node5" class="node">
<title>UtilsModule</title>
<polygon fill="#8dd3c7" stroke="black" points="110.27,-84.8 107.27,-88.8 86.27,-88.8 83.27,-84.8 23.73,-84.8 23.73,-48.8 110.27,-48.8 110.27,-84.8"/>
<text text-anchor="middle" x="67" y="-62.6" font-family="Times,serif" font-size="14.00">UtilsModule</text>
</g>
<!-- UtilsModule&#45;&gt;BsStatusBarModule -->
<g id="edge4" class="edge">
<title>UtilsModule&#45;&gt;BsStatusBarModule</title>
<path fill="none" stroke="black" d="M67,-84.91C67,-104.14 67,-131.8 67,-131.8 67,-131.8 179.65,-131.8 179.65,-131.8"/>
<polygon fill="black" stroke="black" points="179.65,-135.3 189.65,-131.8 179.65,-128.3 179.65,-135.3"/>
</g>
</g>
</svg>
