<?xml version="1.0" encoding="UTF-8" standalone="no"?>
<!DOCTYPE svg PUBLIC "-//W3C//DTD SVG 1.1//EN"
 "http://www.w3.org/Graphics/SVG/1.1/DTD/svg11.dtd">
<!-- Generated by graphviz version 2.40.1 (20161225.0304)
 -->
<!-- Title: dependencies Pages: 1 -->
<svg width="583pt" height="284pt"
 viewBox="0.00 0.00 583.00 284.00" xmlns="http://www.w3.org/2000/svg" xmlns:xlink="http://www.w3.org/1999/xlink">
<g id="graph0" class="graph" transform="scale(1 1) rotate(0) translate(4 280)">
<title>dependencies</title>
<polygon fill="#ffffff" stroke="transparent" points="-4,4 -4,-280 579,-280 579,4 -4,4"/>
<text text-anchor="start" x="266.5091" y="-42.4" font-family="sans-serif" font-weight="bold" font-size="14.00" fill="#000000">Legend</text>
<polygon fill="#ffffb3" stroke="transparent" points="53.5,-10 53.5,-30 73.5,-30 73.5,-10 53.5,-10"/>
<text text-anchor="start" x="77.129" y="-15.4" font-family="sans-serif" font-size="14.00" fill="#000000"> &#160;Declarations</text>
<polygon fill="#8dd3c7" stroke="transparent" points="166.5,-10 166.5,-30 186.5,-30 186.5,-10 166.5,-10"/>
<text text-anchor="start" x="190.2251" y="-15.4" font-family="sans-serif" font-size="14.00" fill="#000000"> &#160;Module</text>
<polygon fill="#80b1d3" stroke="transparent" points="252.5,-10 252.5,-30 272.5,-30 272.5,-10 252.5,-10"/>
<text text-anchor="start" x="276.2812" y="-15.4" font-family="sans-serif" font-size="14.00" fill="#000000"> &#160;Bootstrap</text>
<polygon fill="#fdb462" stroke="transparent" points="349.5,-10 349.5,-30 369.5,-30 369.5,-10 349.5,-10"/>
<text text-anchor="start" x="373.1732" y="-15.4" font-family="sans-serif" font-size="14.00" fill="#000000"> &#160;Providers</text>
<polygon fill="#fb8072" stroke="transparent" points="445.5,-10 445.5,-30 465.5,-30 465.5,-10 445.5,-10"/>
<text text-anchor="start" x="469.2258" y="-15.4" font-family="sans-serif" font-size="14.00" fill="#000000"> &#160;Exports</text>
<g id="clust1" class="cluster">
<title>cluster_BsStatusBarModule</title>
<polygon fill="none" stroke="#000000" stroke-dasharray="1,5" points="8,-70 8,-268 567,-268 567,-70 8,-70"/>
</g>
<g id="clust2" class="cluster">
<title>cluster_BsStatusBarModule_declarations</title>
<polygon fill="none" stroke="#000000" points="257,-78 257,-130 559,-130 559,-78 257,-78"/>
</g>
<g id="clust5" class="cluster">
<title>cluster_BsStatusBarModule_imports</title>
<polygon fill="none" stroke="#000000" points="16,-78 16,-130 249,-130 249,-78 16,-78"/>
</g>
<g id="clust6" class="cluster">
<title>cluster_BsStatusBarModule_exports</title>
<polygon fill="none" stroke="#000000" points="104,-208 104,-260 413,-260 413,-208 104,-208"/>
</g>
<!-- BsFullscreenActivator -->
<g id="node1" class="node">
<title>BsFullscreenActivator</title>
<polygon fill="#ffffb3" stroke="#000000" points="550.9622,-122 409.0378,-122 409.0378,-86 550.9622,-86 550.9622,-122"/>
<text text-anchor="middle" x="480" y="-99.8" font-family="Times,serif" font-size="14.00" fill="#000000">BsFullscreenActivator</text>
</g>
<!-- BsStatusBarModule -->
<g id="node3" class="node">
<title>BsStatusBarModule</title>
<polygon fill="#8dd3c7" stroke="#000000" points="318.266,-187 315.266,-191 294.266,-191 291.266,-187 189.734,-187 189.734,-151 318.266,-151 318.266,-187"/>
<text text-anchor="middle" x="254" y="-164.8" font-family="Times,serif" font-size="14.00" fill="#000000">BsStatusBarModule</text>
</g>
<!-- BsFullscreenActivator&#45;&gt;BsStatusBarModule -->
<g id="edge1" class="edge">
<title>BsFullscreenActivator&#45;&gt;BsStatusBarModule</title>
<path fill="none" stroke="#000000" d="M480,-122.1061C480,-141.3391 480,-169 480,-169 480,-169 328.4601,-169 328.4601,-169"/>
<polygon fill="#000000" stroke="#000000" points="328.4601,-165.5001 318.4601,-169 328.46,-172.5001 328.4601,-165.5001"/>
</g>
<!-- BsNetworkActivity -->
<g id="node2" class="node">
<title>BsNetworkActivity</title>
<polygon fill="#ffffb3" stroke="#000000" points="390.6443,-122 265.3557,-122 265.3557,-86 390.6443,-86 390.6443,-122"/>
<text text-anchor="middle" x="328" y="-99.8" font-family="Times,serif" font-size="14.00" fill="#000000">BsNetworkActivity</text>
</g>
<!-- BsNetworkActivity&#45;&gt;BsStatusBarModule -->
<g id="edge2" class="edge">
<title>BsNetworkActivity&#45;&gt;BsStatusBarModule</title>
<path fill="none" stroke="#000000" d="M291.7805,-122.1061C291.7805,-122.1061 291.7805,-140.991 291.7805,-140.991"/>
<polygon fill="#000000" stroke="#000000" points="288.2806,-140.9909 291.7805,-150.991 295.2806,-140.991 288.2806,-140.9909"/>
</g>
<!-- BsFullscreenActivator  -->
<g id="node6" class="node">
<title>BsFullscreenActivator </title>
<polygon fill="#fb8072" stroke="#000000" points="404.9629,-252 259.0371,-252 259.0371,-216 404.9629,-216 404.9629,-252"/>
<text text-anchor="middle" x="332" y="-229.8" font-family="Times,serif" font-size="14.00" fill="#000000">BsFullscreenActivator </text>
</g>
<!-- BsStatusBarModule&#45;&gt;BsFullscreenActivator  -->
<g id="edge5" class="edge">
<title>BsStatusBarModule&#45;&gt;BsFullscreenActivator </title>
<path fill="none" stroke="#000000" stroke-dasharray="5,2" d="M288.8259,-187.1061C288.8259,-187.1061 288.8259,-205.991 288.8259,-205.991"/>
<polygon fill="#000000" stroke="#000000" points="285.326,-205.9909 288.8259,-215.991 292.326,-205.991 285.326,-205.9909"/>
</g>
<!-- BsNetworkActivity  -->
<g id="node7" class="node">
<title>BsNetworkActivity </title>
<polygon fill="#fb8072" stroke="#000000" points="241.6439,-252 112.3561,-252 112.3561,-216 241.6439,-216 241.6439,-252"/>
<text text-anchor="middle" x="177" y="-229.8" font-family="Times,serif" font-size="14.00" fill="#000000">BsNetworkActivity </text>
</g>
<!-- BsStatusBarModule&#45;&gt;BsNetworkActivity  -->
<g id="edge6" class="edge">
<title>BsStatusBarModule&#45;&gt;BsNetworkActivity </title>
<path fill="none" stroke="#000000" stroke-dasharray="5,2" d="M215.5945,-187.1061C215.5945,-187.1061 215.5945,-205.991 215.5945,-205.991"/>
<polygon fill="#000000" stroke="#000000" points="212.0946,-205.9909 215.5945,-215.991 219.0946,-205.991 212.0946,-205.9909"/>
</g>
<!-- BsActionModule -->
<g id="node4" class="node">
<title>BsActionModule</title>
<polygon fill="#8dd3c7" stroke="#000000" points="241.4342,-122 238.4342,-126 217.4342,-126 214.4342,-122 128.5658,-122 128.5658,-86 241.4342,-86 241.4342,-122"/>
<text text-anchor="middle" x="185" y="-99.8" font-family="Times,serif" font-size="14.00" fill="#000000">BsActionModule</text>
</g>
<!-- BsActionModule&#45;&gt;BsStatusBarModule -->
<g id="edge3" class="edge">
<title>BsActionModule&#45;&gt;BsStatusBarModule</title>
<path fill="none" stroke="#000000" d="M215.4169,-122.1061C215.4169,-122.1061 215.4169,-140.991 215.4169,-140.991"/>
<polygon fill="#000000" stroke="#000000" points="211.917,-140.9909 215.4169,-150.991 218.917,-140.991 211.917,-140.9909"/>
</g>
<!-- UtilsModule -->
<g id="node5" class="node">
<title>UtilsModule</title>
<polygon fill="#8dd3c7" stroke="#000000" points="110.2731,-122 107.2731,-126 86.2731,-126 83.2731,-122 23.7269,-122 23.7269,-86 110.2731,-86 110.2731,-122"/>
<text text-anchor="middle" x="67" y="-99.8" font-family="Times,serif" font-size="14.00" fill="#000000">UtilsModule</text>
</g>
<!-- UtilsModule&#45;&gt;BsStatusBarModule -->
<g id="edge4" class="edge">
<title>UtilsModule&#45;&gt;BsStatusBarModule</title>
<path fill="none" stroke="#000000" d="M67,-122.1061C67,-141.3391 67,-169 67,-169 67,-169 179.6452,-169 179.6452,-169"/>
<polygon fill="#000000" stroke="#000000" points="179.6452,-172.5001 189.6452,-169 179.6452,-165.5001 179.6452,-172.5001"/>
</g>
</g>
</svg>
