<?xml version="1.0" encoding="UTF-8" standalone="no"?>
<!DOCTYPE svg PUBLIC "-//W3C//DTD SVG 1.1//EN"
 "http://www.w3.org/Graphics/SVG/1.1/DTD/svg11.dtd">
<!-- Generated by graphviz version 2.47.3 (20210619.1520)
 -->
<!-- Title: dependencies Pages: 1 -->
<svg width="562pt" height="247pt"
 viewBox="0.00 0.00 562.00 246.80" xmlns="http://www.w3.org/2000/svg" xmlns:xlink="http://www.w3.org/1999/xlink">
<g id="graph0" class="graph" transform="scale(1 1) rotate(0) translate(4 242.8)">
<title>dependencies</title>
<polygon fill="white" stroke="transparent" points="-4,4 -4,-242.8 558,-242.8 558,4 -4,4"/>
<text text-anchor="middle" x="277" y="-8.2" font-family="sans-serif" font-size="14.00">dependencies</text>
<g id="clust1" class="cluster">
<title>cluster_LoadComponentModule</title>
<polygon fill="none" stroke="black" stroke-dasharray="1,5" points="8,-32.8 8,-230.8 546,-230.8 546,-32.8 8,-32.8"/>
</g>
<g id="clust5" class="cluster">
<title>cluster_LoadComponentModule_exports</title>
<polygon fill="none" stroke="black" points="224,-170.8 224,-222.8 406,-222.8 406,-170.8 224,-170.8"/>
</g>
<g id="clust4" class="cluster">
<title>cluster_LoadComponentModule_imports</title>
<polygon fill="none" stroke="black" points="436,-40.8 436,-92.8 538,-92.8 538,-40.8 436,-40.8"/>
</g>
<g id="clust7" class="cluster">
<title>cluster_LoadComponentModule_providers</title>
<polygon fill="none" stroke="black" points="202,-40.8 202,-92.8 428,-92.8 428,-40.8 202,-40.8"/>
</g>
<g id="clust2" class="cluster">
<title>cluster_LoadComponentModule_declarations</title>
<polygon fill="none" stroke="black" points="16,-40.8 16,-92.8 194,-92.8 194,-40.8 16,-40.8"/>
</g>
<!-- LoadComponentDirective -->
<g id="node1" class="node">
<title>LoadComponentDirective</title>
<polygon fill="#ffffb3" stroke="black" points="186.18,-84.8 23.82,-84.8 23.82,-48.8 186.18,-48.8 186.18,-84.8"/>
<text text-anchor="middle" x="105" y="-62.6" font-family="Times,serif" font-size="14.00">LoadComponentDirective</text>
</g>
<!-- LoadComponentModule -->
<g id="node2" class="node">
<title>LoadComponentModule</title>
<polygon fill="#8dd3c7" stroke="black" points="391.65,-149.8 388.65,-153.8 367.65,-153.8 364.65,-149.8 238.35,-149.8 238.35,-113.8 391.65,-113.8 391.65,-149.8"/>
<text text-anchor="middle" x="315" y="-127.6" font-family="Times,serif" font-size="14.00">LoadComponentModule</text>
</g>
<!-- LoadComponentDirective&#45;&gt;LoadComponentModule -->
<g id="edge1" class="edge">
<title>LoadComponentDirective&#45;&gt;LoadComponentModule</title>
<path fill="none" stroke="black" d="M105,-84.91C105,-104.14 105,-131.8 105,-131.8 105,-131.8 228.29,-131.8 228.29,-131.8"/>
<polygon fill="black" stroke="black" points="228.29,-135.3 238.29,-131.8 228.29,-128.3 228.29,-135.3"/>
</g>
<!-- LoadComponentDirective  -->
<g id="node4" class="node">
<title>LoadComponentDirective </title>
<polygon fill="#fb8072" stroke="black" points="397.68,-214.8 232.32,-214.8 232.32,-178.8 397.68,-178.8 397.68,-214.8"/>
<text text-anchor="middle" x="315" y="-192.6" font-family="Times,serif" font-size="14.00">LoadComponentDirective </text>
</g>
<!-- LoadComponentModule&#45;&gt;LoadComponentDirective  -->
<g id="edge3" class="edge">
<title>LoadComponentModule&#45;&gt;LoadComponentDirective </title>
<path fill="none" stroke="black" stroke-dasharray="5,2" d="M315,-149.91C315,-149.91 315,-168.79 315,-168.79"/>
<polygon fill="black" stroke="black" points="311.5,-168.79 315,-178.79 318.5,-168.79 311.5,-168.79"/>
</g>
<!-- BaseModule -->
<g id="node3" class="node">
<title>BaseModule</title>
<polygon fill="#8dd3c7" stroke="black" points="530.26,-84.8 527.26,-88.8 506.26,-88.8 503.26,-84.8 443.74,-84.8 443.74,-48.8 530.26,-48.8 530.26,-84.8"/>
<text text-anchor="middle" x="487" y="-62.6" font-family="Times,serif" font-size="14.00">BaseModule</text>
</g>
<!-- BaseModule&#45;&gt;LoadComponentModule -->
<g id="edge2" class="edge">
<title>BaseModule&#45;&gt;LoadComponentModule</title>
<path fill="none" stroke="black" d="M487,-84.91C487,-104.14 487,-131.8 487,-131.8 487,-131.8 401.69,-131.8 401.69,-131.8"/>
<polygon fill="black" stroke="black" points="401.69,-128.3 391.69,-131.8 401.69,-135.3 401.69,-128.3"/>
</g>
<!-- LoadComponentService -->
<g id="node5" class="node">
<title>LoadComponentService</title>
<ellipse fill="#fdb462" stroke="black" cx="315" cy="-66.8" rx="104.8" ry="18"/>
<text text-anchor="middle" x="315" y="-62.6" font-family="Times,serif" font-size="14.00">LoadComponentService</text>
</g>
<!-- LoadComponentService&#45;&gt;LoadComponentModule -->
<g id="edge4" class="edge">
<title>LoadComponentService&#45;&gt;LoadComponentModule</title>
<path fill="none" stroke="black" d="M315,-84.91C315,-84.91 315,-103.79 315,-103.79"/>
<polygon fill="black" stroke="black" points="311.5,-103.79 315,-113.79 318.5,-103.79 311.5,-103.79"/>
</g>
</g>
</svg>
