<?xml version="1.0" encoding="UTF-8" standalone="no"?>
<!DOCTYPE svg PUBLIC "-//W3C//DTD SVG 1.1//EN"
 "http://www.w3.org/Graphics/SVG/1.1/DTD/svg11.dtd">
<!-- Generated by graphviz version 2.40.1 (20161225.0304)
 -->
<!-- Title: dependencies Pages: 1 -->
<svg width="562pt" height="284pt"
 viewBox="0.00 0.00 562.00 284.00" xmlns="http://www.w3.org/2000/svg" xmlns:xlink="http://www.w3.org/1999/xlink">
<g id="graph0" class="graph" transform="scale(1 1) rotate(0) translate(4 280)">
<title>dependencies</title>
<polygon fill="#ffffff" stroke="transparent" points="-4,4 -4,-280 558,-280 558,4 -4,4"/>
<text text-anchor="start" x="256.0091" y="-42.4" font-family="sans-serif" font-weight="bold" font-size="14.00" fill="#000000">Legend</text>
<polygon fill="#ffffb3" stroke="transparent" points="43,-10 43,-30 63,-30 63,-10 43,-10"/>
<text text-anchor="start" x="66.629" y="-15.4" font-family="sans-serif" font-size="14.00" fill="#000000"> &#160;Declarations</text>
<polygon fill="#8dd3c7" stroke="transparent" points="156,-10 156,-30 176,-30 176,-10 156,-10"/>
<text text-anchor="start" x="179.7251" y="-15.4" font-family="sans-serif" font-size="14.00" fill="#000000"> &#160;Module</text>
<polygon fill="#80b1d3" stroke="transparent" points="242,-10 242,-30 262,-30 262,-10 242,-10"/>
<text text-anchor="start" x="265.7812" y="-15.4" font-family="sans-serif" font-size="14.00" fill="#000000"> &#160;Bootstrap</text>
<polygon fill="#fdb462" stroke="transparent" points="339,-10 339,-30 359,-30 359,-10 339,-10"/>
<text text-anchor="start" x="362.6732" y="-15.4" font-family="sans-serif" font-size="14.00" fill="#000000"> &#160;Providers</text>
<polygon fill="#fb8072" stroke="transparent" points="435,-10 435,-30 455,-30 455,-10 435,-10"/>
<text text-anchor="start" x="458.7258" y="-15.4" font-family="sans-serif" font-size="14.00" fill="#000000"> &#160;Exports</text>
<g id="clust1" class="cluster">
<title>cluster_LoadComponentModule</title>
<polygon fill="none" stroke="#000000" stroke-dasharray="1,5" points="8,-70 8,-268 546,-268 546,-70 8,-70"/>
</g>
<g id="clust2" class="cluster">
<title>cluster_LoadComponentModule_declarations</title>
<polygon fill="none" stroke="#000000" points="360,-78 360,-130 538,-130 538,-78 360,-78"/>
</g>
<g id="clust4" class="cluster">
<title>cluster_LoadComponentModule_imports</title>
<polygon fill="none" stroke="#000000" points="250,-78 250,-130 352,-130 352,-78 250,-78"/>
</g>
<g id="clust5" class="cluster">
<title>cluster_LoadComponentModule_exports</title>
<polygon fill="none" stroke="#000000" points="210,-208 210,-260 392,-260 392,-208 210,-208"/>
</g>
<g id="clust7" class="cluster">
<title>cluster_LoadComponentModule_providers</title>
<polygon fill="none" stroke="#000000" points="16,-78 16,-130 242,-130 242,-78 16,-78"/>
</g>
<!-- LoadComponentDirective -->
<g id="node1" class="node">
<title>LoadComponentDirective</title>
<polygon fill="#ffffb3" stroke="#000000" points="530.1825,-122 367.8175,-122 367.8175,-86 530.1825,-86 530.1825,-122"/>
<text text-anchor="middle" x="449" y="-99.8" font-family="Times,serif" font-size="14.00" fill="#000000">LoadComponentDirective</text>
</g>
<!-- LoadComponentModule -->
<g id="node2" class="node">
<title>LoadComponentModule</title>
<polygon fill="#8dd3c7" stroke="#000000" points="377.6498,-187 374.6498,-191 353.6498,-191 350.6498,-187 224.3502,-187 224.3502,-151 377.6498,-151 377.6498,-187"/>
<text text-anchor="middle" x="301" y="-164.8" font-family="Times,serif" font-size="14.00" fill="#000000">LoadComponentModule</text>
</g>
<!-- LoadComponentDirective&#45;&gt;LoadComponentModule -->
<g id="edge1" class="edge">
<title>LoadComponentDirective&#45;&gt;LoadComponentModule</title>
<path fill="none" stroke="#000000" d="M372.8668,-122.1061C372.8668,-122.1061 372.8668,-140.991 372.8668,-140.991"/>
<polygon fill="#000000" stroke="#000000" points="369.3668,-140.9909 372.8668,-150.991 376.3668,-140.991 369.3668,-140.9909"/>
</g>
<!-- LoadComponentDirective  -->
<g id="node4" class="node">
<title>LoadComponentDirective </title>
<polygon fill="#fb8072" stroke="#000000" points="383.6827,-252 218.3173,-252 218.3173,-216 383.6827,-216 383.6827,-252"/>
<text text-anchor="middle" x="301" y="-229.8" font-family="Times,serif" font-size="14.00" fill="#000000">LoadComponentDirective </text>
</g>
<!-- LoadComponentModule&#45;&gt;LoadComponentDirective  -->
<g id="edge3" class="edge">
<title>LoadComponentModule&#45;&gt;LoadComponentDirective </title>
<path fill="none" stroke="#000000" stroke-dasharray="5,2" d="M301,-187.1061C301,-187.1061 301,-205.991 301,-205.991"/>
<polygon fill="#000000" stroke="#000000" points="297.5001,-205.9909 301,-215.991 304.5001,-205.991 297.5001,-205.9909"/>
</g>
<!-- BaseModule -->
<g id="node3" class="node">
<title>BaseModule</title>
<polygon fill="#8dd3c7" stroke="#000000" points="344.2605,-122 341.2605,-126 320.2605,-126 317.2605,-122 257.7395,-122 257.7395,-86 344.2605,-86 344.2605,-122"/>
<text text-anchor="middle" x="301" y="-99.8" font-family="Times,serif" font-size="14.00" fill="#000000">BaseModule</text>
</g>
<!-- BaseModule&#45;&gt;LoadComponentModule -->
<g id="edge2" class="edge">
<title>BaseModule&#45;&gt;LoadComponentModule</title>
<path fill="none" stroke="#000000" d="M301,-122.1061C301,-122.1061 301,-140.991 301,-140.991"/>
<polygon fill="#000000" stroke="#000000" points="297.5001,-140.9909 301,-150.991 304.5001,-140.991 297.5001,-140.9909"/>
</g>
<!-- LoadComponentService -->
<g id="node5" class="node">
<title>LoadComponentService</title>
<ellipse fill="#fdb462" stroke="#000000" cx="129" cy="-104" rx="104.8003" ry="18"/>
<text text-anchor="middle" x="129" y="-99.8" font-family="Times,serif" font-size="14.00" fill="#000000">LoadComponentService</text>
</g>
<!-- LoadComponentService&#45;&gt;LoadComponentModule -->
<g id="edge4" class="edge">
<title>LoadComponentService&#45;&gt;LoadComponentModule</title>
<path fill="none" stroke="#000000" d="M229.0377,-109.5419C229.0377,-109.5419 229.0377,-140.7507 229.0377,-140.7507"/>
<polygon fill="#000000" stroke="#000000" points="225.5378,-140.7506 229.0377,-150.7507 232.5378,-140.7507 225.5378,-140.7506"/>
</g>
</g>
</svg>
