<?xml version="1.0" encoding="UTF-8" standalone="no"?>
<!DOCTYPE svg PUBLIC "-//W3C//DTD SVG 1.1//EN"
 "http://www.w3.org/Graphics/SVG/1.1/DTD/svg11.dtd">
<!-- Generated by graphviz version 2.47.3 (20210619.1520)
 -->
<!-- Title: dependencies Pages: 1 -->
<svg width="562pt" height="247pt"
 viewBox="0.00 0.00 562.00 246.80" xmlns="http://www.w3.org/2000/svg" xmlns:xlink="http://www.w3.org/1999/xlink">
<g id="graph0" class="graph" transform="scale(1 1) rotate(0) translate(4 242.8)">
<title>dependencies</title>
<polygon fill="white" stroke="transparent" points="-4,4 -4,-242.8 558,-242.8 558,4 -4,4"/>
<text text-anchor="middle" x="277" y="-8.2" font-family="sans-serif" font-size="14.00">dependencies</text>
<g id="clust1" class="cluster">
<title>cluster_LoadComponentModule</title>
<polygon fill="none" stroke="black" stroke-dasharray="1,5" points="8,-32.8 8,-230.8 546,-230.8 546,-32.8 8,-32.8"/>
</g>
<g id="clust2" class="cluster">
<title>cluster_LoadComponentModule_declarations</title>
<polygon fill="none" stroke="black" points="360,-40.8 360,-92.8 538,-92.8 538,-40.8 360,-40.8"/>
</g>
<g id="clust4" class="cluster">
<title>cluster_LoadComponentModule_imports</title>
<polygon fill="none" stroke="black" points="250,-40.8 250,-92.8 352,-92.8 352,-40.8 250,-40.8"/>
</g>
<g id="clust5" class="cluster">
<title>cluster_LoadComponentModule_exports</title>
<polygon fill="none" stroke="black" points="210,-170.8 210,-222.8 392,-222.8 392,-170.8 210,-170.8"/>
</g>
<g id="clust7" class="cluster">
<title>cluster_LoadComponentModule_providers</title>
<polygon fill="none" stroke="black" points="16,-40.8 16,-92.8 242,-92.8 242,-40.8 16,-40.8"/>
</g>
<!-- LoadComponentDirective -->
<g id="node1" class="node">
<title>LoadComponentDirective</title>
<polygon fill="#ffffb3" stroke="black" points="530.18,-84.8 367.82,-84.8 367.82,-48.8 530.18,-48.8 530.18,-84.8"/>
<text text-anchor="middle" x="449" y="-62.6" font-family="Times,serif" font-size="14.00">LoadComponentDirective</text>
</g>
<!-- LoadComponentModule -->
<g id="node2" class="node">
<title>LoadComponentModule</title>
<polygon fill="#8dd3c7" stroke="black" points="377.65,-149.8 374.65,-153.8 353.65,-153.8 350.65,-149.8 224.35,-149.8 224.35,-113.8 377.65,-113.8 377.65,-149.8"/>
<text text-anchor="middle" x="301" y="-127.6" font-family="Times,serif" font-size="14.00">LoadComponentModule</text>
</g>
<!-- LoadComponentDirective&#45;&gt;LoadComponentModule -->
<g id="edge1" class="edge">
<title>LoadComponentDirective&#45;&gt;LoadComponentModule</title>
<path fill="none" stroke="black" d="M372.87,-84.91C372.87,-84.91 372.87,-103.79 372.87,-103.79"/>
<polygon fill="black" stroke="black" points="369.37,-103.79 372.87,-113.79 376.37,-103.79 369.37,-103.79"/>
</g>
<!-- LoadComponentDirective  -->
<g id="node4" class="node">
<title>LoadComponentDirective </title>
<polygon fill="#fb8072" stroke="black" points="383.68,-214.8 218.32,-214.8 218.32,-178.8 383.68,-178.8 383.68,-214.8"/>
<text text-anchor="middle" x="301" y="-192.6" font-family="Times,serif" font-size="14.00">LoadComponentDirective </text>
</g>
<!-- LoadComponentModule&#45;&gt;LoadComponentDirective  -->
<g id="edge3" class="edge">
<title>LoadComponentModule&#45;&gt;LoadComponentDirective </title>
<path fill="none" stroke="black" stroke-dasharray="5,2" d="M301,-149.91C301,-149.91 301,-168.79 301,-168.79"/>
<polygon fill="black" stroke="black" points="297.5,-168.79 301,-178.79 304.5,-168.79 297.5,-168.79"/>
</g>
<!-- BaseModule -->
<g id="node3" class="node">
<title>BaseModule</title>
<polygon fill="#8dd3c7" stroke="black" points="344.26,-84.8 341.26,-88.8 320.26,-88.8 317.26,-84.8 257.74,-84.8 257.74,-48.8 344.26,-48.8 344.26,-84.8"/>
<text text-anchor="middle" x="301" y="-62.6" font-family="Times,serif" font-size="14.00">BaseModule</text>
</g>
<!-- BaseModule&#45;&gt;LoadComponentModule -->
<g id="edge2" class="edge">
<title>BaseModule&#45;&gt;LoadComponentModule</title>
<path fill="none" stroke="black" d="M301,-84.91C301,-84.91 301,-103.79 301,-103.79"/>
<polygon fill="black" stroke="black" points="297.5,-103.79 301,-113.79 304.5,-103.79 297.5,-103.79"/>
</g>
<!-- LoadComponentService -->
<g id="node5" class="node">
<title>LoadComponentService</title>
<ellipse fill="#fdb462" stroke="black" cx="129" cy="-66.8" rx="104.8" ry="18"/>
<text text-anchor="middle" x="129" y="-62.6" font-family="Times,serif" font-size="14.00">LoadComponentService</text>
</g>
<!-- LoadComponentService&#45;&gt;LoadComponentModule -->
<g id="edge4" class="edge">
<title>LoadComponentService&#45;&gt;LoadComponentModule</title>
<path fill="none" stroke="black" d="M229.04,-72.34C229.04,-72.34 229.04,-103.55 229.04,-103.55"/>
<polygon fill="black" stroke="black" points="225.54,-103.55 229.04,-113.55 232.54,-103.55 225.54,-103.55"/>
</g>
</g>
</svg>
