<?xml version="1.0" encoding="UTF-8" standalone="no"?>
<!DOCTYPE svg PUBLIC "-//W3C//DTD SVG 1.1//EN"
 "http://www.w3.org/Graphics/SVG/1.1/DTD/svg11.dtd">
<!-- Generated by graphviz version 2.47.3 (20210619.1520)
 -->
<!-- Title: dependencies Pages: 1 -->
<svg width="1060pt" height="247pt"
 viewBox="0.00 0.00 1060.00 246.80" xmlns="http://www.w3.org/2000/svg" xmlns:xlink="http://www.w3.org/1999/xlink">
<g id="graph0" class="graph" transform="scale(1 1) rotate(0) translate(4 242.8)">
<title>dependencies</title>
<polygon fill="white" stroke="transparent" points="-4,4 -4,-242.8 1056,-242.8 1056,4 -4,4"/>
<text text-anchor="middle" x="526" y="-8.2" font-family="sans-serif" font-size="14.00">dependencies</text>
<g id="clust1" class="cluster">
<title>cluster_ValidationModule</title>
<polygon fill="none" stroke="black" stroke-dasharray="1,5" points="8,-32.8 8,-230.8 1044,-230.8 1044,-32.8 8,-32.8"/>
</g>
<g id="clust2" class="cluster">
<title>cluster_ValidationModule_declarations</title>
<polygon fill="none" stroke="black" points="538,-40.8 538,-92.8 1036,-92.8 1036,-40.8 538,-40.8"/>
</g>
<g id="clust7" class="cluster">
<title>cluster_ValidationModule_exports</title>
<polygon fill="none" stroke="black" points="182,-170.8 182,-222.8 690,-222.8 690,-170.8 182,-170.8"/>
</g>
<g id="clust6" class="cluster">
<title>cluster_ValidationModule_imports</title>
<polygon fill="none" stroke="black" points="202,-40.8 202,-92.8 530,-92.8 530,-40.8 202,-40.8"/>
</g>
<g id="clust9" class="cluster">
<title>cluster_ValidationModule_providers</title>
<polygon fill="none" stroke="black" points="16,-40.8 16,-92.8 194,-92.8 194,-40.8 16,-40.8"/>
</g>
<!-- ValidationDirective -->
<g id="node1" class="node">
<title>ValidationDirective</title>
<polygon fill="#ffffb3" stroke="black" points="1027.68,-84.8 900.32,-84.8 900.32,-48.8 1027.68,-48.8 1027.68,-84.8"/>
<text text-anchor="middle" x="964" y="-62.6" font-family="Times,serif" font-size="14.00">ValidationDirective</text>
</g>
<!-- ValidationModule -->
<g id="node4" class="node">
<title>ValidationModule</title>
<polygon fill="#8dd3c7" stroke="black" points="526.15,-149.8 523.15,-153.8 502.15,-153.8 499.15,-149.8 407.85,-149.8 407.85,-113.8 526.15,-113.8 526.15,-149.8"/>
<text text-anchor="middle" x="467" y="-127.6" font-family="Times,serif" font-size="14.00">ValidationModule</text>
</g>
<!-- ValidationDirective&#45;&gt;ValidationModule -->
<g id="edge1" class="edge">
<title>ValidationDirective&#45;&gt;ValidationModule</title>
<path fill="none" stroke="black" d="M964,-84.93C964,-105.37 964,-135.8 964,-135.8 964,-135.8 536.46,-135.8 536.46,-135.8"/>
<polygon fill="black" stroke="black" points="536.46,-132.3 526.46,-135.8 536.46,-139.3 536.46,-132.3"/>
</g>
<!-- ValidationErrorPipe -->
<g id="node2" class="node">
<title>ValidationErrorPipe</title>
<polygon fill="#ffffb3" stroke="black" points="882.52,-84.8 753.48,-84.8 753.48,-48.8 882.52,-48.8 882.52,-84.8"/>
<text text-anchor="middle" x="818" y="-62.6" font-family="Times,serif" font-size="14.00">ValidationErrorPipe</text>
</g>
<!-- ValidationErrorPipe&#45;&gt;ValidationModule -->
<g id="edge2" class="edge">
<title>ValidationErrorPipe&#45;&gt;ValidationModule</title>
<path fill="none" stroke="black" d="M818,-85.07C818,-103.36 818,-128.8 818,-128.8 818,-128.8 536.54,-128.8 536.54,-128.8"/>
<polygon fill="black" stroke="black" points="536.54,-125.3 526.54,-128.8 536.54,-132.3 536.54,-125.3"/>
</g>
<!-- ValidationMessageComponent -->
<g id="node3" class="node">
<title>ValidationMessageComponent</title>
<polygon fill="#ffffb3" stroke="black" points="735.91,-84.8 546.09,-84.8 546.09,-48.8 735.91,-48.8 735.91,-84.8"/>
<text text-anchor="middle" x="641" y="-62.6" font-family="Times,serif" font-size="14.00">ValidationMessageComponent</text>
</g>
<!-- ValidationMessageComponent&#45;&gt;ValidationModule -->
<g id="edge3" class="edge">
<title>ValidationMessageComponent&#45;&gt;ValidationModule</title>
<path fill="none" stroke="black" d="M595.22,-84.81C595.22,-100.85 595.22,-121.8 595.22,-121.8 595.22,-121.8 536.23,-121.8 536.23,-121.8"/>
<polygon fill="black" stroke="black" points="536.23,-118.3 526.23,-121.8 536.23,-125.3 536.23,-118.3"/>
</g>
<!-- ValidationDirective  -->
<g id="node8" class="node">
<title>ValidationDirective </title>
<polygon fill="#fb8072" stroke="black" points="682.18,-214.8 551.82,-214.8 551.82,-178.8 682.18,-178.8 682.18,-214.8"/>
<text text-anchor="middle" x="617" y="-192.6" font-family="Times,serif" font-size="14.00">ValidationDirective </text>
</g>
<!-- ValidationModule&#45;&gt;ValidationDirective  -->
<g id="edge7" class="edge">
<title>ValidationModule&#45;&gt;ValidationDirective </title>
<path fill="none" stroke="black" stroke-dasharray="5,2" d="M526.6,-142.8C576.21,-142.8 638.78,-142.8 638.78,-142.8 638.78,-142.8 638.78,-168.52 638.78,-168.52"/>
<polygon fill="black" stroke="black" points="635.28,-168.52 638.78,-178.52 642.28,-168.52 635.28,-168.52"/>
</g>
<!-- ValidationErrorPipe  -->
<g id="node9" class="node">
<title>ValidationErrorPipe </title>
<polygon fill="#fb8072" stroke="black" points="533.52,-214.8 400.48,-214.8 400.48,-178.8 533.52,-178.8 533.52,-214.8"/>
<text text-anchor="middle" x="467" y="-192.6" font-family="Times,serif" font-size="14.00">ValidationErrorPipe </text>
</g>
<!-- ValidationModule&#45;&gt;ValidationErrorPipe  -->
<g id="edge8" class="edge">
<title>ValidationModule&#45;&gt;ValidationErrorPipe </title>
<path fill="none" stroke="black" stroke-dasharray="5,2" d="M467,-149.91C467,-149.91 467,-168.79 467,-168.79"/>
<polygon fill="black" stroke="black" points="463.5,-168.79 467,-178.79 470.5,-168.79 463.5,-168.79"/>
</g>
<!-- ValidationMessageComponent  -->
<g id="node10" class="node">
<title>ValidationMessageComponent </title>
<polygon fill="#fb8072" stroke="black" points="382.41,-214.8 189.59,-214.8 189.59,-178.8 382.41,-178.8 382.41,-214.8"/>
<text text-anchor="middle" x="286" y="-192.6" font-family="Times,serif" font-size="14.00">ValidationMessageComponent </text>
</g>
<!-- ValidationModule&#45;&gt;ValidationMessageComponent  -->
<g id="edge9" class="edge">
<title>ValidationModule&#45;&gt;ValidationMessageComponent </title>
<path fill="none" stroke="black" stroke-dasharray="5,2" d="M407.56,-142.8C376.36,-142.8 344.54,-142.8 344.54,-142.8 344.54,-142.8 344.54,-168.52 344.54,-168.52"/>
<polygon fill="black" stroke="black" points="341.04,-168.52 344.54,-178.52 348.04,-168.52 341.04,-168.52"/>
</g>
<!-- AppUtilsModule -->
<g id="node5" class="node">
<title>AppUtilsModule</title>
<polygon fill="#8dd3c7" stroke="black" points="522.38,-84.8 519.38,-88.8 498.38,-88.8 495.38,-84.8 411.62,-84.8 411.62,-48.8 522.38,-48.8 522.38,-84.8"/>
<text text-anchor="middle" x="467" y="-62.6" font-family="Times,serif" font-size="14.00">AppUtilsModule</text>
</g>
<!-- AppUtilsModule&#45;&gt;ValidationModule -->
<g id="edge4" class="edge">
<title>AppUtilsModule&#45;&gt;ValidationModule</title>
<path fill="none" stroke="black" d="M467,-84.91C467,-84.91 467,-103.79 467,-103.79"/>
<polygon fill="black" stroke="black" points="463.5,-103.79 467,-113.79 470.5,-103.79 463.5,-103.79"/>
</g>
<!-- BaseModule -->
<g id="node6" class="node">
<title>BaseModule</title>
<polygon fill="#8dd3c7" stroke="black" points="393.26,-84.8 390.26,-88.8 369.26,-88.8 366.26,-84.8 306.74,-84.8 306.74,-48.8 393.26,-48.8 393.26,-84.8"/>
<text text-anchor="middle" x="350" y="-62.6" font-family="Times,serif" font-size="14.00">BaseModule</text>
</g>
<!-- BaseModule&#45;&gt;ValidationModule -->
<g id="edge5" class="edge">
<title>BaseModule&#45;&gt;ValidationModule</title>
<path fill="none" stroke="black" d="M387.92,-84.81C387.92,-100.85 387.92,-121.8 387.92,-121.8 387.92,-121.8 397.47,-121.8 397.47,-121.8"/>
<polygon fill="black" stroke="black" points="397.47,-125.3 407.47,-121.8 397.47,-118.3 397.47,-125.3"/>
</g>
<!-- IntlModule -->
<g id="node7" class="node">
<title>IntlModule</title>
<polygon fill="#8dd3c7" stroke="black" points="288.49,-84.8 285.49,-88.8 264.49,-88.8 261.49,-84.8 209.51,-84.8 209.51,-48.8 288.49,-48.8 288.49,-84.8"/>
<text text-anchor="middle" x="249" y="-62.6" font-family="Times,serif" font-size="14.00">IntlModule</text>
</g>
<!-- IntlModule&#45;&gt;ValidationModule -->
<g id="edge6" class="edge">
<title>IntlModule&#45;&gt;ValidationModule</title>
<path fill="none" stroke="black" d="M249,-85.07C249,-103.36 249,-128.8 249,-128.8 249,-128.8 397.72,-128.8 397.72,-128.8"/>
<polygon fill="black" stroke="black" points="397.72,-132.3 407.72,-128.8 397.72,-125.3 397.72,-132.3"/>
</g>
<!-- ValidationService -->
<g id="node11" class="node">
<title>ValidationService</title>
<ellipse fill="#fdb462" stroke="black" cx="105" cy="-66.8" rx="80.51" ry="18"/>
<text text-anchor="middle" x="105" y="-62.6" font-family="Times,serif" font-size="14.00">ValidationService</text>
</g>
<!-- ValidationService&#45;&gt;ValidationModule -->
<g id="edge10" class="edge">
<title>ValidationService&#45;&gt;ValidationModule</title>
<path fill="none" stroke="black" d="M105,-84.93C105,-105.37 105,-135.8 105,-135.8 105,-135.8 397.63,-135.8 397.63,-135.8"/>
<polygon fill="black" stroke="black" points="397.63,-139.3 407.63,-135.8 397.63,-132.3 397.63,-139.3"/>
</g>
</g>
</svg>
