<?xml version="1.0" encoding="UTF-8" standalone="no"?>
<!DOCTYPE svg PUBLIC "-//W3C//DTD SVG 1.1//EN"
 "http://www.w3.org/Graphics/SVG/1.1/DTD/svg11.dtd">
<!-- Generated by graphviz version 2.47.3 (20210619.1520)
 -->
<!-- Title: dependencies Pages: 1 -->
<svg width="1060pt" height="247pt"
 viewBox="0.00 0.00 1060.00 246.80" xmlns="http://www.w3.org/2000/svg" xmlns:xlink="http://www.w3.org/1999/xlink">
<g id="graph0" class="graph" transform="scale(1 1) rotate(0) translate(4 242.8)">
<title>dependencies</title>
<polygon fill="white" stroke="transparent" points="-4,4 -4,-242.8 1056,-242.8 1056,4 -4,4"/>
<text text-anchor="middle" x="526" y="-8.2" font-family="sans-serif" font-size="14.00">dependencies</text>
<g id="clust1" class="cluster">
<title>cluster_ValidationModule</title>
<polygon fill="none" stroke="black" stroke-dasharray="1,5" points="8,-32.8 8,-230.8 1044,-230.8 1044,-32.8 8,-32.8"/>
</g>
<g id="clust6" class="cluster">
<title>cluster_ValidationModule_imports</title>
<polygon fill="none" stroke="black" points="708,-40.8 708,-92.8 1036,-92.8 1036,-40.8 708,-40.8"/>
</g>
<g id="clust9" class="cluster">
<title>cluster_ValidationModule_providers</title>
<polygon fill="none" stroke="black" points="522,-40.8 522,-92.8 700,-92.8 700,-40.8 522,-40.8"/>
</g>
<g id="clust2" class="cluster">
<title>cluster_ValidationModule_declarations</title>
<polygon fill="none" stroke="black" points="16,-40.8 16,-92.8 514,-92.8 514,-40.8 16,-40.8"/>
</g>
<g id="clust7" class="cluster">
<title>cluster_ValidationModule_exports</title>
<polygon fill="none" stroke="black" points="326,-170.8 326,-222.8 834,-222.8 834,-170.8 326,-170.8"/>
</g>
<!-- ValidationDirective -->
<g id="node1" class="node">
<title>ValidationDirective</title>
<polygon fill="#ffffb3" stroke="black" points="505.68,-84.8 378.32,-84.8 378.32,-48.8 505.68,-48.8 505.68,-84.8"/>
<text text-anchor="middle" x="442" y="-62.6" font-family="Times,serif" font-size="14.00">ValidationDirective</text>
</g>
<!-- ValidationModule -->
<g id="node4" class="node">
<title>ValidationModule</title>
<polygon fill="#8dd3c7" stroke="black" points="670.15,-149.8 667.15,-153.8 646.15,-153.8 643.15,-149.8 551.85,-149.8 551.85,-113.8 670.15,-113.8 670.15,-149.8"/>
<text text-anchor="middle" x="611" y="-127.6" font-family="Times,serif" font-size="14.00">ValidationModule</text>
</g>
<!-- ValidationDirective&#45;&gt;ValidationModule -->
<g id="edge1" class="edge">
<title>ValidationDirective&#45;&gt;ValidationModule</title>
<path fill="none" stroke="black" d="M442,-84.81C442,-100.85 442,-121.8 442,-121.8 442,-121.8 541.42,-121.8 541.42,-121.8"/>
<polygon fill="black" stroke="black" points="541.42,-125.3 551.42,-121.8 541.42,-118.3 541.42,-125.3"/>
</g>
<!-- ValidationErrorPipe -->
<g id="node2" class="node">
<title>ValidationErrorPipe</title>
<polygon fill="#ffffb3" stroke="black" points="360.52,-84.8 231.48,-84.8 231.48,-48.8 360.52,-48.8 360.52,-84.8"/>
<text text-anchor="middle" x="296" y="-62.6" font-family="Times,serif" font-size="14.00">ValidationErrorPipe</text>
</g>
<!-- ValidationErrorPipe&#45;&gt;ValidationModule -->
<g id="edge2" class="edge">
<title>ValidationErrorPipe&#45;&gt;ValidationModule</title>
<path fill="none" stroke="black" d="M347.15,-85.07C347.15,-103.36 347.15,-128.8 347.15,-128.8 347.15,-128.8 541.79,-128.8 541.79,-128.8"/>
<polygon fill="black" stroke="black" points="541.79,-132.3 551.79,-128.8 541.79,-125.3 541.79,-132.3"/>
</g>
<!-- ValidationMessageComponent -->
<g id="node3" class="node">
<title>ValidationMessageComponent</title>
<polygon fill="#ffffb3" stroke="black" points="213.91,-84.8 24.09,-84.8 24.09,-48.8 213.91,-48.8 213.91,-84.8"/>
<text text-anchor="middle" x="119" y="-62.6" font-family="Times,serif" font-size="14.00">ValidationMessageComponent</text>
</g>
<!-- ValidationMessageComponent&#45;&gt;ValidationModule -->
<g id="edge3" class="edge">
<title>ValidationMessageComponent&#45;&gt;ValidationModule</title>
<path fill="none" stroke="black" d="M119,-84.93C119,-105.37 119,-135.8 119,-135.8 119,-135.8 541.65,-135.8 541.65,-135.8"/>
<polygon fill="black" stroke="black" points="541.65,-139.3 551.65,-135.8 541.65,-132.3 541.65,-139.3"/>
</g>
<!-- ValidationDirective  -->
<g id="node8" class="node">
<title>ValidationDirective </title>
<polygon fill="#fb8072" stroke="black" points="826.18,-214.8 695.82,-214.8 695.82,-178.8 826.18,-178.8 826.18,-214.8"/>
<text text-anchor="middle" x="761" y="-192.6" font-family="Times,serif" font-size="14.00">ValidationDirective </text>
</g>
<!-- ValidationModule&#45;&gt;ValidationDirective  -->
<g id="edge7" class="edge">
<title>ValidationModule&#45;&gt;ValidationDirective </title>
<path fill="none" stroke="black" stroke-dasharray="5,2" d="M670.36,-142.8C689.37,-142.8 705.58,-142.8 705.58,-142.8 705.58,-142.8 705.58,-168.52 705.58,-168.52"/>
<polygon fill="black" stroke="black" points="702.08,-168.52 705.58,-178.52 709.08,-168.52 702.08,-168.52"/>
</g>
<!-- ValidationErrorPipe  -->
<g id="node9" class="node">
<title>ValidationErrorPipe </title>
<polygon fill="#fb8072" stroke="black" points="677.52,-214.8 544.48,-214.8 544.48,-178.8 677.52,-178.8 677.52,-214.8"/>
<text text-anchor="middle" x="611" y="-192.6" font-family="Times,serif" font-size="14.00">ValidationErrorPipe </text>
</g>
<!-- ValidationModule&#45;&gt;ValidationErrorPipe  -->
<g id="edge8" class="edge">
<title>ValidationModule&#45;&gt;ValidationErrorPipe </title>
<path fill="none" stroke="black" stroke-dasharray="5,2" d="M611,-149.91C611,-149.91 611,-168.79 611,-168.79"/>
<polygon fill="black" stroke="black" points="607.5,-168.79 611,-178.79 614.5,-168.79 607.5,-168.79"/>
</g>
<!-- ValidationMessageComponent  -->
<g id="node10" class="node">
<title>ValidationMessageComponent </title>
<polygon fill="#fb8072" stroke="black" points="526.41,-214.8 333.59,-214.8 333.59,-178.8 526.41,-178.8 526.41,-214.8"/>
<text text-anchor="middle" x="430" y="-192.6" font-family="Times,serif" font-size="14.00">ValidationMessageComponent </text>
</g>
<!-- ValidationModule&#45;&gt;ValidationMessageComponent  -->
<g id="edge9" class="edge">
<title>ValidationModule&#45;&gt;ValidationMessageComponent </title>
<path fill="none" stroke="black" stroke-dasharray="5,2" d="M551.66,-142.8C532.46,-142.8 516.02,-142.8 516.02,-142.8 516.02,-142.8 516.02,-168.52 516.02,-168.52"/>
<polygon fill="black" stroke="black" points="512.52,-168.52 516.02,-178.52 519.52,-168.52 512.52,-168.52"/>
</g>
<!-- AppUtilsModule -->
<g id="node5" class="node">
<title>AppUtilsModule</title>
<polygon fill="#8dd3c7" stroke="black" points="1028.38,-84.8 1025.38,-88.8 1004.38,-88.8 1001.38,-84.8 917.62,-84.8 917.62,-48.8 1028.38,-48.8 1028.38,-84.8"/>
<text text-anchor="middle" x="973" y="-62.6" font-family="Times,serif" font-size="14.00">AppUtilsModule</text>
</g>
<!-- AppUtilsModule&#45;&gt;ValidationModule -->
<g id="edge4" class="edge">
<title>AppUtilsModule&#45;&gt;ValidationModule</title>
<path fill="none" stroke="black" d="M973,-84.93C973,-105.37 973,-135.8 973,-135.8 973,-135.8 680.37,-135.8 680.37,-135.8"/>
<polygon fill="black" stroke="black" points="680.37,-132.3 670.37,-135.8 680.37,-139.3 680.37,-132.3"/>
</g>
<!-- BaseModule -->
<g id="node6" class="node">
<title>BaseModule</title>
<polygon fill="#8dd3c7" stroke="black" points="899.26,-84.8 896.26,-88.8 875.26,-88.8 872.26,-84.8 812.74,-84.8 812.74,-48.8 899.26,-48.8 899.26,-84.8"/>
<text text-anchor="middle" x="856" y="-62.6" font-family="Times,serif" font-size="14.00">BaseModule</text>
</g>
<!-- BaseModule&#45;&gt;ValidationModule -->
<g id="edge5" class="edge">
<title>BaseModule&#45;&gt;ValidationModule</title>
<path fill="none" stroke="black" d="M819.48,-85.07C819.48,-103.36 819.48,-128.8 819.48,-128.8 819.48,-128.8 680.18,-128.8 680.18,-128.8"/>
<polygon fill="black" stroke="black" points="680.18,-125.3 670.18,-128.8 680.18,-132.3 680.18,-125.3"/>
</g>
<!-- IntlModule -->
<g id="node7" class="node">
<title>IntlModule</title>
<polygon fill="#8dd3c7" stroke="black" points="794.49,-84.8 791.49,-88.8 770.49,-88.8 767.49,-84.8 715.51,-84.8 715.51,-48.8 794.49,-48.8 794.49,-84.8"/>
<text text-anchor="middle" x="755" y="-62.6" font-family="Times,serif" font-size="14.00">IntlModule</text>
</g>
<!-- IntlModule&#45;&gt;ValidationModule -->
<g id="edge6" class="edge">
<title>IntlModule&#45;&gt;ValidationModule</title>
<path fill="none" stroke="black" d="M755,-84.81C755,-100.85 755,-121.8 755,-121.8 755,-121.8 680.4,-121.8 680.4,-121.8"/>
<polygon fill="black" stroke="black" points="680.4,-118.3 670.4,-121.8 680.4,-125.3 680.4,-118.3"/>
</g>
<!-- ValidationService -->
<g id="node11" class="node">
<title>ValidationService</title>
<ellipse fill="#fdb462" stroke="black" cx="611" cy="-66.8" rx="80.51" ry="18"/>
<text text-anchor="middle" x="611" y="-62.6" font-family="Times,serif" font-size="14.00">ValidationService</text>
</g>
<!-- ValidationService&#45;&gt;ValidationModule -->
<g id="edge10" class="edge">
<title>ValidationService&#45;&gt;ValidationModule</title>
<path fill="none" stroke="black" d="M611,-84.91C611,-84.91 611,-103.79 611,-103.79"/>
<polygon fill="black" stroke="black" points="607.5,-103.79 611,-113.79 614.5,-103.79 607.5,-103.79"/>
</g>
</g>
</svg>
