<?xml version="1.0" encoding="UTF-8" standalone="no"?>
<!DOCTYPE svg PUBLIC "-//W3C//DTD SVG 1.1//EN"
 "http://www.w3.org/Graphics/SVG/1.1/DTD/svg11.dtd">
<!-- Generated by graphviz version 2.47.3 (20210619.1520)
 -->
<!-- Title: dependencies Pages: 1 -->
<svg width="1060pt" height="247pt"
 viewBox="0.00 0.00 1060.00 246.80" xmlns="http://www.w3.org/2000/svg" xmlns:xlink="http://www.w3.org/1999/xlink">
<g id="graph0" class="graph" transform="scale(1 1) rotate(0) translate(4 242.8)">
<title>dependencies</title>
<polygon fill="white" stroke="transparent" points="-4,4 -4,-242.8 1056,-242.8 1056,4 -4,4"/>
<text text-anchor="middle" x="526" y="-8.2" font-family="sans-serif" font-size="14.00">dependencies</text>
<g id="clust1" class="cluster">
<title>cluster_ValidationModule</title>
<polygon fill="none" stroke="black" stroke-dasharray="1,5" points="8,-32.8 8,-230.8 1044,-230.8 1044,-32.8 8,-32.8"/>
</g>
<g id="clust6" class="cluster">
<title>cluster_ValidationModule_imports</title>
<polygon fill="none" stroke="black" points="708,-40.8 708,-92.8 1036,-92.8 1036,-40.8 708,-40.8"/>
</g>
<g id="clust7" class="cluster">
<title>cluster_ValidationModule_exports</title>
<polygon fill="none" stroke="black" points="343,-170.8 343,-222.8 851,-222.8 851,-170.8 343,-170.8"/>
</g>
<g id="clust2" class="cluster">
<title>cluster_ValidationModule_declarations</title>
<polygon fill="none" stroke="black" points="202,-40.8 202,-92.8 700,-92.8 700,-40.8 202,-40.8"/>
</g>
<g id="clust9" class="cluster">
<title>cluster_ValidationModule_providers</title>
<polygon fill="none" stroke="black" points="16,-40.8 16,-92.8 194,-92.8 194,-40.8 16,-40.8"/>
</g>
<!-- ValidationDirective -->
<g id="node1" class="node">
<title>ValidationDirective</title>
<polygon fill="#ffffb3" stroke="black" points="691.68,-84.8 564.32,-84.8 564.32,-48.8 691.68,-48.8 691.68,-84.8"/>
<text text-anchor="middle" x="628" y="-62.6" font-family="Times,serif" font-size="14.00">ValidationDirective</text>
</g>
<!-- ValidationModule -->
<g id="node4" class="node">
<title>ValidationModule</title>
<polygon fill="#8dd3c7" stroke="black" points="687.15,-149.8 684.15,-153.8 663.15,-153.8 660.15,-149.8 568.85,-149.8 568.85,-113.8 687.15,-113.8 687.15,-149.8"/>
<text text-anchor="middle" x="628" y="-127.6" font-family="Times,serif" font-size="14.00">ValidationModule</text>
</g>
<!-- ValidationDirective&#45;&gt;ValidationModule -->
<g id="edge1" class="edge">
<title>ValidationDirective&#45;&gt;ValidationModule</title>
<path fill="none" stroke="black" d="M628,-84.91C628,-84.91 628,-103.79 628,-103.79"/>
<polygon fill="black" stroke="black" points="624.5,-103.79 628,-113.79 631.5,-103.79 624.5,-103.79"/>
</g>
<!-- ValidationErrorPipe -->
<g id="node2" class="node">
<title>ValidationErrorPipe</title>
<polygon fill="#ffffb3" stroke="black" points="546.52,-84.8 417.48,-84.8 417.48,-48.8 546.52,-48.8 546.52,-84.8"/>
<text text-anchor="middle" x="482" y="-62.6" font-family="Times,serif" font-size="14.00">ValidationErrorPipe</text>
</g>
<!-- ValidationErrorPipe&#45;&gt;ValidationModule -->
<g id="edge2" class="edge">
<title>ValidationErrorPipe&#45;&gt;ValidationModule</title>
<path fill="none" stroke="black" d="M501.38,-84.81C501.38,-100.85 501.38,-121.8 501.38,-121.8 501.38,-121.8 558.77,-121.8 558.77,-121.8"/>
<polygon fill="black" stroke="black" points="558.77,-125.3 568.77,-121.8 558.77,-118.3 558.77,-125.3"/>
</g>
<!-- ValidationMessageComponent -->
<g id="node3" class="node">
<title>ValidationMessageComponent</title>
<polygon fill="#ffffb3" stroke="black" points="399.91,-84.8 210.09,-84.8 210.09,-48.8 399.91,-48.8 399.91,-84.8"/>
<text text-anchor="middle" x="305" y="-62.6" font-family="Times,serif" font-size="14.00">ValidationMessageComponent</text>
</g>
<!-- ValidationMessageComponent&#45;&gt;ValidationModule -->
<g id="edge3" class="edge">
<title>ValidationMessageComponent&#45;&gt;ValidationModule</title>
<path fill="none" stroke="black" d="M375.12,-85.07C375.12,-103.36 375.12,-128.8 375.12,-128.8 375.12,-128.8 558.71,-128.8 558.71,-128.8"/>
<polygon fill="black" stroke="black" points="558.71,-132.3 568.71,-128.8 558.71,-125.3 558.71,-132.3"/>
</g>
<!-- ValidationDirective  -->
<g id="node8" class="node">
<title>ValidationDirective </title>
<polygon fill="#fb8072" stroke="black" points="843.18,-214.8 712.82,-214.8 712.82,-178.8 843.18,-178.8 843.18,-214.8"/>
<text text-anchor="middle" x="778" y="-192.6" font-family="Times,serif" font-size="14.00">ValidationDirective </text>
</g>
<!-- ValidationModule&#45;&gt;ValidationDirective  -->
<g id="edge7" class="edge">
<title>ValidationModule&#45;&gt;ValidationDirective </title>
<path fill="none" stroke="black" stroke-dasharray="5,2" d="M687.25,-142.8C714.91,-142.8 741.83,-142.8 741.83,-142.8 741.83,-142.8 741.83,-168.52 741.83,-168.52"/>
<polygon fill="black" stroke="black" points="738.33,-168.52 741.83,-178.52 745.33,-168.52 738.33,-168.52"/>
</g>
<!-- ValidationErrorPipe  -->
<g id="node9" class="node">
<title>ValidationErrorPipe </title>
<polygon fill="#fb8072" stroke="black" points="694.52,-214.8 561.48,-214.8 561.48,-178.8 694.52,-178.8 694.52,-214.8"/>
<text text-anchor="middle" x="628" y="-192.6" font-family="Times,serif" font-size="14.00">ValidationErrorPipe </text>
</g>
<!-- ValidationModule&#45;&gt;ValidationErrorPipe  -->
<g id="edge8" class="edge">
<title>ValidationModule&#45;&gt;ValidationErrorPipe </title>
<path fill="none" stroke="black" stroke-dasharray="5,2" d="M628,-149.91C628,-149.91 628,-168.79 628,-168.79"/>
<polygon fill="black" stroke="black" points="624.5,-168.79 628,-178.79 631.5,-168.79 624.5,-168.79"/>
</g>
<!-- ValidationMessageComponent  -->
<g id="node10" class="node">
<title>ValidationMessageComponent </title>
<polygon fill="#fb8072" stroke="black" points="543.41,-214.8 350.59,-214.8 350.59,-178.8 543.41,-178.8 543.41,-214.8"/>
<text text-anchor="middle" x="447" y="-192.6" font-family="Times,serif" font-size="14.00">ValidationMessageComponent </text>
</g>
<!-- ValidationModule&#45;&gt;ValidationMessageComponent  -->
<g id="edge9" class="edge">
<title>ValidationModule&#45;&gt;ValidationMessageComponent </title>
<path fill="none" stroke="black" stroke-dasharray="5,2" d="M568.53,-142.8C519.96,-142.8 459.31,-142.8 459.31,-142.8 459.31,-142.8 459.31,-168.52 459.31,-168.52"/>
<polygon fill="black" stroke="black" points="455.81,-168.52 459.31,-178.52 462.81,-168.52 455.81,-168.52"/>
</g>
<!-- AppUtilsModule -->
<g id="node5" class="node">
<title>AppUtilsModule</title>
<polygon fill="#8dd3c7" stroke="black" points="1028.38,-84.8 1025.38,-88.8 1004.38,-88.8 1001.38,-84.8 917.62,-84.8 917.62,-48.8 1028.38,-48.8 1028.38,-84.8"/>
<text text-anchor="middle" x="973" y="-62.6" font-family="Times,serif" font-size="14.00">AppUtilsModule</text>
</g>
<!-- AppUtilsModule&#45;&gt;ValidationModule -->
<g id="edge4" class="edge">
<title>AppUtilsModule&#45;&gt;ValidationModule</title>
<path fill="none" stroke="black" d="M973,-84.93C973,-105.37 973,-135.8 973,-135.8 973,-135.8 697.31,-135.8 697.31,-135.8"/>
<polygon fill="black" stroke="black" points="697.31,-132.3 687.31,-135.8 697.31,-139.3 697.31,-132.3"/>
</g>
<!-- BaseModule -->
<g id="node6" class="node">
<title>BaseModule</title>
<polygon fill="#8dd3c7" stroke="black" points="899.26,-84.8 896.26,-88.8 875.26,-88.8 872.26,-84.8 812.74,-84.8 812.74,-48.8 899.26,-48.8 899.26,-84.8"/>
<text text-anchor="middle" x="856" y="-62.6" font-family="Times,serif" font-size="14.00">BaseModule</text>
</g>
<!-- BaseModule&#45;&gt;ValidationModule -->
<g id="edge5" class="edge">
<title>BaseModule&#45;&gt;ValidationModule</title>
<path fill="none" stroke="black" d="M827.98,-85.07C827.98,-103.36 827.98,-128.8 827.98,-128.8 827.98,-128.8 697.19,-128.8 697.19,-128.8"/>
<polygon fill="black" stroke="black" points="697.19,-125.3 687.19,-128.8 697.19,-132.3 697.19,-125.3"/>
</g>
<!-- IntlModule -->
<g id="node7" class="node">
<title>IntlModule</title>
<polygon fill="#8dd3c7" stroke="black" points="794.49,-84.8 791.49,-88.8 770.49,-88.8 767.49,-84.8 715.51,-84.8 715.51,-48.8 794.49,-48.8 794.49,-84.8"/>
<text text-anchor="middle" x="755" y="-62.6" font-family="Times,serif" font-size="14.00">IntlModule</text>
</g>
<!-- IntlModule&#45;&gt;ValidationModule -->
<g id="edge6" class="edge">
<title>IntlModule&#45;&gt;ValidationModule</title>
<path fill="none" stroke="black" d="M768.17,-84.81C768.17,-100.85 768.17,-121.8 768.17,-121.8 768.17,-121.8 697.44,-121.8 697.44,-121.8"/>
<polygon fill="black" stroke="black" points="697.44,-118.3 687.44,-121.8 697.44,-125.3 697.44,-118.3"/>
</g>
<!-- ValidationService -->
<g id="node11" class="node">
<title>ValidationService</title>
<ellipse fill="#fdb462" stroke="black" cx="105" cy="-66.8" rx="80.51" ry="18"/>
<text text-anchor="middle" x="105" y="-62.6" font-family="Times,serif" font-size="14.00">ValidationService</text>
</g>
<!-- ValidationService&#45;&gt;ValidationModule -->
<g id="edge10" class="edge">
<title>ValidationService&#45;&gt;ValidationModule</title>
<path fill="none" stroke="black" d="M105,-84.93C105,-105.37 105,-135.8 105,-135.8 105,-135.8 558.77,-135.8 558.77,-135.8"/>
<polygon fill="black" stroke="black" points="558.77,-139.3 568.77,-135.8 558.77,-132.3 558.77,-139.3"/>
</g>
</g>
</svg>
