<?xml version="1.0" encoding="UTF-8" standalone="no"?>
<!DOCTYPE svg PUBLIC "-//W3C//DTD SVG 1.1//EN"
 "http://www.w3.org/Graphics/SVG/1.1/DTD/svg11.dtd">
<!-- Generated by graphviz version 2.40.1 (20161225.0304)
 -->
<!-- Title: dependencies Pages: 1 -->
<svg width="1060pt" height="284pt"
 viewBox="0.00 0.00 1060.00 284.00" xmlns="http://www.w3.org/2000/svg" xmlns:xlink="http://www.w3.org/1999/xlink">
<g id="graph0" class="graph" transform="scale(1 1) rotate(0) translate(4 280)">
<title>dependencies</title>
<polygon fill="#ffffff" stroke="transparent" points="-4,4 -4,-280 1056,-280 1056,4 -4,4"/>
<text text-anchor="start" x="505.0091" y="-42.4" font-family="sans-serif" font-weight="bold" font-size="14.00" fill="#000000">Legend</text>
<polygon fill="#ffffb3" stroke="transparent" points="292,-10 292,-30 312,-30 312,-10 292,-10"/>
<text text-anchor="start" x="315.629" y="-15.4" font-family="sans-serif" font-size="14.00" fill="#000000"> &#160;Declarations</text>
<polygon fill="#8dd3c7" stroke="transparent" points="405,-10 405,-30 425,-30 425,-10 405,-10"/>
<text text-anchor="start" x="428.7251" y="-15.4" font-family="sans-serif" font-size="14.00" fill="#000000"> &#160;Module</text>
<polygon fill="#80b1d3" stroke="transparent" points="491,-10 491,-30 511,-30 511,-10 491,-10"/>
<text text-anchor="start" x="514.7812" y="-15.4" font-family="sans-serif" font-size="14.00" fill="#000000"> &#160;Bootstrap</text>
<polygon fill="#fdb462" stroke="transparent" points="588,-10 588,-30 608,-30 608,-10 588,-10"/>
<text text-anchor="start" x="611.6732" y="-15.4" font-family="sans-serif" font-size="14.00" fill="#000000"> &#160;Providers</text>
<polygon fill="#fb8072" stroke="transparent" points="684,-10 684,-30 704,-30 704,-10 684,-10"/>
<text text-anchor="start" x="707.7258" y="-15.4" font-family="sans-serif" font-size="14.00" fill="#000000"> &#160;Exports</text>
<g id="clust1" class="cluster">
<title>cluster_ValidationModule</title>
<polygon fill="none" stroke="#000000" stroke-dasharray="1,5" points="8,-70 8,-268 1044,-268 1044,-70 8,-70"/>
</g>
<g id="clust2" class="cluster">
<title>cluster_ValidationModule_declarations</title>
<polygon fill="none" stroke="#000000" points="538,-78 538,-130 1036,-130 1036,-78 538,-78"/>
</g>
<g id="clust6" class="cluster">
<title>cluster_ValidationModule_imports</title>
<polygon fill="none" stroke="#000000" points="202,-78 202,-130 530,-130 530,-78 202,-78"/>
</g>
<g id="clust7" class="cluster">
<title>cluster_ValidationModule_exports</title>
<polygon fill="none" stroke="#000000" points="182,-208 182,-260 690,-260 690,-208 182,-208"/>
</g>
<g id="clust9" class="cluster">
<title>cluster_ValidationModule_providers</title>
<polygon fill="none" stroke="#000000" points="16,-78 16,-130 194,-130 194,-78 16,-78"/>
</g>
<!-- ValidationDirective -->
<g id="node1" class="node">
<title>ValidationDirective</title>
<polygon fill="#ffffb3" stroke="#000000" points="1027.6811,-122 900.3189,-122 900.3189,-86 1027.6811,-86 1027.6811,-122"/>
<text text-anchor="middle" x="964" y="-99.8" font-family="Times,serif" font-size="14.00" fill="#000000">ValidationDirective</text>
</g>
<!-- ValidationModule -->
<g id="node4" class="node">
<title>ValidationModule</title>
<polygon fill="#8dd3c7" stroke="#000000" points="526.1485,-187 523.1485,-191 502.1485,-191 499.1485,-187 407.8515,-187 407.8515,-151 526.1485,-151 526.1485,-187"/>
<text text-anchor="middle" x="467" y="-164.8" font-family="Times,serif" font-size="14.00" fill="#000000">ValidationModule</text>
</g>
<!-- ValidationDirective&#45;&gt;ValidationModule -->
<g id="edge1" class="edge">
<title>ValidationDirective&#45;&gt;ValidationModule</title>
<path fill="none" stroke="#000000" d="M964,-122.1289C964,-142.5724 964,-173 964,-173 964,-173 536.4562,-173 536.4562,-173"/>
<polygon fill="#000000" stroke="#000000" points="536.4562,-169.5001 526.4562,-173 536.4561,-176.5001 536.4562,-169.5001"/>
</g>
<!-- ValidationErrorPipe -->
<g id="node2" class="node">
<title>ValidationErrorPipe</title>
<polygon fill="#ffffb3" stroke="#000000" points="882.5213,-122 753.4787,-122 753.4787,-86 882.5213,-86 882.5213,-122"/>
<text text-anchor="middle" x="818" y="-99.8" font-family="Times,serif" font-size="14.00" fill="#000000">ValidationErrorPipe</text>
</g>
<!-- ValidationErrorPipe&#45;&gt;ValidationModule -->
<g id="edge2" class="edge">
<title>ValidationErrorPipe&#45;&gt;ValidationModule</title>
<path fill="none" stroke="#000000" d="M818,-122.2667C818,-140.5552 818,-166 818,-166 818,-166 536.5424,-166 536.5424,-166"/>
<polygon fill="#000000" stroke="#000000" points="536.5424,-162.5001 526.5424,-166 536.5423,-169.5001 536.5424,-162.5001"/>
</g>
<!-- ValidationMessageComponent -->
<g id="node3" class="node">
<title>ValidationMessageComponent</title>
<polygon fill="#ffffb3" stroke="#000000" points="735.9086,-122 546.0914,-122 546.0914,-86 735.9086,-86 735.9086,-122"/>
<text text-anchor="middle" x="641" y="-99.8" font-family="Times,serif" font-size="14.00" fill="#000000">ValidationMessageComponent</text>
</g>
<!-- ValidationMessageComponent&#45;&gt;ValidationModule -->
<g id="edge3" class="edge">
<title>ValidationMessageComponent&#45;&gt;ValidationModule</title>
<path fill="none" stroke="#000000" d="M595.2198,-122.0091C595.2198,-138.0494 595.2198,-159 595.2198,-159 595.2198,-159 536.2307,-159 536.2307,-159"/>
<polygon fill="#000000" stroke="#000000" points="536.2308,-155.5001 526.2307,-159 536.2307,-162.5001 536.2308,-155.5001"/>
</g>
<!-- ValidationDirective  -->
<g id="node8" class="node">
<title>ValidationDirective </title>
<polygon fill="#fb8072" stroke="#000000" points="682.1814,-252 551.8186,-252 551.8186,-216 682.1814,-216 682.1814,-252"/>
<text text-anchor="middle" x="617" y="-229.8" font-family="Times,serif" font-size="14.00" fill="#000000">ValidationDirective </text>
</g>
<!-- ValidationModule&#45;&gt;ValidationDirective  -->
<g id="edge7" class="edge">
<title>ValidationModule&#45;&gt;ValidationDirective </title>
<path fill="none" stroke="#000000" stroke-dasharray="5,2" d="M526.5983,-180C576.2125,-180 638.7802,-180 638.7802,-180 638.7802,-180 638.7802,-205.7181 638.7802,-205.7181"/>
<polygon fill="#000000" stroke="#000000" points="635.2803,-205.718 638.7802,-215.7181 642.2803,-205.7181 635.2803,-205.718"/>
</g>
<!-- ValidationErrorPipe  -->
<g id="node9" class="node">
<title>ValidationErrorPipe </title>
<polygon fill="#fb8072" stroke="#000000" points="533.5204,-252 400.4796,-252 400.4796,-216 533.5204,-216 533.5204,-252"/>
<text text-anchor="middle" x="467" y="-229.8" font-family="Times,serif" font-size="14.00" fill="#000000">ValidationErrorPipe </text>
</g>
<!-- ValidationModule&#45;&gt;ValidationErrorPipe  -->
<g id="edge8" class="edge">
<title>ValidationModule&#45;&gt;ValidationErrorPipe </title>
<path fill="none" stroke="#000000" stroke-dasharray="5,2" d="M467,-187.1061C467,-187.1061 467,-205.991 467,-205.991"/>
<polygon fill="#000000" stroke="#000000" points="463.5001,-205.9909 467,-215.991 470.5001,-205.991 463.5001,-205.9909"/>
</g>
<!-- ValidationMessageComponent  -->
<g id="node10" class="node">
<title>ValidationMessageComponent </title>
<polygon fill="#fb8072" stroke="#000000" points="382.4082,-252 189.5918,-252 189.5918,-216 382.4082,-216 382.4082,-252"/>
<text text-anchor="middle" x="286" y="-229.8" font-family="Times,serif" font-size="14.00" fill="#000000">ValidationMessageComponent </text>
</g>
<!-- ValidationModule&#45;&gt;ValidationMessageComponent  -->
<g id="edge9" class="edge">
<title>ValidationModule&#45;&gt;ValidationMessageComponent </title>
<path fill="none" stroke="#000000" stroke-dasharray="5,2" d="M407.5622,-180C376.3604,-180 344.537,-180 344.537,-180 344.537,-180 344.537,-205.7181 344.537,-205.7181"/>
<polygon fill="#000000" stroke="#000000" points="341.0371,-205.718 344.537,-215.7181 348.0371,-205.7181 341.0371,-205.718"/>
</g>
<!-- AppUtilsModule -->
<g id="node5" class="node">
<title>AppUtilsModule</title>
<polygon fill="#8dd3c7" stroke="#000000" points="522.3795,-122 519.3795,-126 498.3795,-126 495.3795,-122 411.6205,-122 411.6205,-86 522.3795,-86 522.3795,-122"/>
<text text-anchor="middle" x="467" y="-99.8" font-family="Times,serif" font-size="14.00" fill="#000000">AppUtilsModule</text>
</g>
<!-- AppUtilsModule&#45;&gt;ValidationModule -->
<g id="edge4" class="edge">
<title>AppUtilsModule&#45;&gt;ValidationModule</title>
<path fill="none" stroke="#000000" d="M467,-122.1061C467,-122.1061 467,-140.991 467,-140.991"/>
<polygon fill="#000000" stroke="#000000" points="463.5001,-140.9909 467,-150.991 470.5001,-140.991 463.5001,-140.9909"/>
</g>
<!-- BaseModule -->
<g id="node6" class="node">
<title>BaseModule</title>
<polygon fill="#8dd3c7" stroke="#000000" points="393.2605,-122 390.2605,-126 369.2605,-126 366.2605,-122 306.7395,-122 306.7395,-86 393.2605,-86 393.2605,-122"/>
<text text-anchor="middle" x="350" y="-99.8" font-family="Times,serif" font-size="14.00" fill="#000000">BaseModule</text>
</g>
<!-- BaseModule&#45;&gt;ValidationModule -->
<g id="edge5" class="edge">
<title>BaseModule&#45;&gt;ValidationModule</title>
<path fill="none" stroke="#000000" d="M387.9171,-122.0091C387.9171,-138.0494 387.9171,-159 387.9171,-159 387.9171,-159 397.4657,-159 397.4657,-159"/>
<polygon fill="#000000" stroke="#000000" points="397.4657,-162.5001 407.4657,-159 397.4657,-155.5001 397.4657,-162.5001"/>
</g>
<!-- IntlModule -->
<g id="node7" class="node">
<title>IntlModule</title>
<polygon fill="#8dd3c7" stroke="#000000" points="288.4916,-122 285.4916,-126 264.4916,-126 261.4916,-122 209.5084,-122 209.5084,-86 288.4916,-86 288.4916,-122"/>
<text text-anchor="middle" x="249" y="-99.8" font-family="Times,serif" font-size="14.00" fill="#000000">IntlModule</text>
</g>
<!-- IntlModule&#45;&gt;ValidationModule -->
<g id="edge6" class="edge">
<title>IntlModule&#45;&gt;ValidationModule</title>
<path fill="none" stroke="#000000" d="M249,-122.2667C249,-140.5552 249,-166 249,-166 249,-166 397.7185,-166 397.7185,-166"/>
<polygon fill="#000000" stroke="#000000" points="397.7185,-169.5001 407.7185,-166 397.7185,-162.5001 397.7185,-169.5001"/>
</g>
<!-- ValidationService -->
<g id="node11" class="node">
<title>ValidationService</title>
<ellipse fill="#fdb462" stroke="#000000" cx="105" cy="-104" rx="80.5142" ry="18"/>
<text text-anchor="middle" x="105" y="-99.8" font-family="Times,serif" font-size="14.00" fill="#000000">ValidationService</text>
</g>
<!-- ValidationService&#45;&gt;ValidationModule -->
<g id="edge10" class="edge">
<title>ValidationService&#45;&gt;ValidationModule</title>
<path fill="none" stroke="#000000" d="M105,-122.1289C105,-142.5724 105,-173 105,-173 105,-173 397.6284,-173 397.6284,-173"/>
<polygon fill="#000000" stroke="#000000" points="397.6285,-176.5001 407.6284,-173 397.6284,-169.5001 397.6285,-176.5001"/>
</g>
</g>
</svg>
