<?xml version="1.0" encoding="UTF-8" standalone="no"?>
<!DOCTYPE svg PUBLIC "-//W3C//DTD SVG 1.1//EN"
 "http://www.w3.org/Graphics/SVG/1.1/DTD/svg11.dtd">
<!-- Generated by graphviz version 2.40.1 (20161225.0304)
 -->
<!-- Title: dependencies Pages: 1 -->
<svg width="817pt" height="284pt"
 viewBox="0.00 0.00 817.00 284.00" xmlns="http://www.w3.org/2000/svg" xmlns:xlink="http://www.w3.org/1999/xlink">
<g id="graph0" class="graph" transform="scale(1 1) rotate(0) translate(4 280)">
<title>dependencies</title>
<polygon fill="#ffffff" stroke="transparent" points="-4,4 -4,-280 813,-280 813,4 -4,4"/>
<text text-anchor="start" x="383.5091" y="-42.4" font-family="sans-serif" font-weight="bold" font-size="14.00" fill="#000000">Legend</text>
<polygon fill="#ffffb3" stroke="transparent" points="170.5,-10 170.5,-30 190.5,-30 190.5,-10 170.5,-10"/>
<text text-anchor="start" x="194.129" y="-15.4" font-family="sans-serif" font-size="14.00" fill="#000000"> &#160;Declarations</text>
<polygon fill="#8dd3c7" stroke="transparent" points="283.5,-10 283.5,-30 303.5,-30 303.5,-10 283.5,-10"/>
<text text-anchor="start" x="307.2251" y="-15.4" font-family="sans-serif" font-size="14.00" fill="#000000"> &#160;Module</text>
<polygon fill="#80b1d3" stroke="transparent" points="369.5,-10 369.5,-30 389.5,-30 389.5,-10 369.5,-10"/>
<text text-anchor="start" x="393.2812" y="-15.4" font-family="sans-serif" font-size="14.00" fill="#000000"> &#160;Bootstrap</text>
<polygon fill="#fdb462" stroke="transparent" points="466.5,-10 466.5,-30 486.5,-30 486.5,-10 466.5,-10"/>
<text text-anchor="start" x="490.1732" y="-15.4" font-family="sans-serif" font-size="14.00" fill="#000000"> &#160;Providers</text>
<polygon fill="#fb8072" stroke="transparent" points="562.5,-10 562.5,-30 582.5,-30 582.5,-10 562.5,-10"/>
<text text-anchor="start" x="586.2258" y="-15.4" font-family="sans-serif" font-size="14.00" fill="#000000"> &#160;Exports</text>
<g id="clust1" class="cluster">
<title>cluster_BsAlertsModule</title>
<polygon fill="none" stroke="#000000" stroke-dasharray="1,5" points="8,-70 8,-268 801,-268 801,-70 8,-70"/>
</g>
<g id="clust2" class="cluster">
<title>cluster_BsAlertsModule_declarations</title>
<polygon fill="none" stroke="#000000" points="386,-78 386,-130 793,-130 793,-78 386,-78"/>
</g>
<g id="clust6" class="cluster">
<title>cluster_BsAlertsModule_imports</title>
<polygon fill="none" stroke="#000000" points="16,-78 16,-130 378,-130 378,-78 16,-78"/>
</g>
<g id="clust7" class="cluster">
<title>cluster_BsAlertsModule_exports</title>
<polygon fill="none" stroke="#000000" points="198,-208 198,-260 616,-260 616,-208 198,-208"/>
</g>
<!-- BsAlertsMenuComponent -->
<g id="node1" class="node">
<title>BsAlertsMenuComponent</title>
<polygon fill="#ffffb3" stroke="#000000" points="785.4804,-122 622.5196,-122 622.5196,-86 785.4804,-86 785.4804,-122"/>
<text text-anchor="middle" x="704" y="-99.8" font-family="Times,serif" font-size="14.00" fill="#000000">BsAlertsMenuComponent</text>
</g>
<!-- BsAlertsModule -->
<g id="node4" class="node">
<title>BsAlertsModule</title>
<polygon fill="#8dd3c7" stroke="#000000" points="435.0396,-187 432.0396,-191 411.0396,-191 408.0396,-187 326.9604,-187 326.9604,-151 435.0396,-151 435.0396,-187"/>
<text text-anchor="middle" x="381" y="-164.8" font-family="Times,serif" font-size="14.00" fill="#000000">BsAlertsModule</text>
</g>
<!-- BsAlertsMenuComponent&#45;&gt;BsAlertsModule -->
<g id="edge1" class="edge">
<title>BsAlertsMenuComponent&#45;&gt;BsAlertsModule</title>
<path fill="none" stroke="#000000" d="M704,-122.2843C704,-143.3211 704,-175 704,-175 704,-175 445.0629,-175 445.0629,-175"/>
<polygon fill="#000000" stroke="#000000" points="445.063,-171.5001 435.0629,-175 445.0629,-178.5001 445.063,-171.5001"/>
</g>
<!-- BsEditAlert -->
<g id="node2" class="node">
<title>BsEditAlert</title>
<polygon fill="#ffffb3" stroke="#000000" points="604.3781,-122 521.6219,-122 521.6219,-86 604.3781,-86 604.3781,-122"/>
<text text-anchor="middle" x="563" y="-99.8" font-family="Times,serif" font-size="14.00" fill="#000000">BsEditAlert</text>
</g>
<!-- BsEditAlert&#45;&gt;BsAlertsModule -->
<g id="edge2" class="edge">
<title>BsEditAlert&#45;&gt;BsAlertsModule</title>
<path fill="none" stroke="#000000" d="M563,-122.0225C563,-139.3734 563,-163 563,-163 563,-163 445.1132,-163 445.1132,-163"/>
<polygon fill="#000000" stroke="#000000" points="445.1133,-159.5001 435.1132,-163 445.1132,-166.5001 445.1133,-159.5001"/>
</g>
<!-- BsManageAlerts -->
<g id="node3" class="node">
<title>BsManageAlerts</title>
<polygon fill="#ffffb3" stroke="#000000" points="504.0772,-122 393.9228,-122 393.9228,-86 504.0772,-86 504.0772,-122"/>
<text text-anchor="middle" x="449" y="-99.8" font-family="Times,serif" font-size="14.00" fill="#000000">BsManageAlerts</text>
</g>
<!-- BsManageAlerts&#45;&gt;BsAlertsModule -->
<g id="edge3" class="edge">
<title>BsManageAlerts&#45;&gt;BsAlertsModule</title>
<path fill="none" stroke="#000000" d="M414.6154,-122.1061C414.6154,-122.1061 414.6154,-140.991 414.6154,-140.991"/>
<polygon fill="#000000" stroke="#000000" points="411.1154,-140.9909 414.6154,-150.991 418.1154,-140.991 411.1154,-140.9909"/>
</g>
<!-- BsAlertsMenuComponent  -->
<g id="node8" class="node">
<title>BsAlertsMenuComponent </title>
<polygon fill="#fb8072" stroke="#000000" points="608.4811,-252 441.5189,-252 441.5189,-216 608.4811,-216 608.4811,-252"/>
<text text-anchor="middle" x="525" y="-229.8" font-family="Times,serif" font-size="14.00" fill="#000000">BsAlertsMenuComponent </text>
</g>
<!-- BsAlertsModule&#45;&gt;BsAlertsMenuComponent  -->
<g id="edge7" class="edge">
<title>BsAlertsModule&#45;&gt;BsAlertsMenuComponent </title>
<path fill="none" stroke="#000000" stroke-dasharray="5,2" d="M429.7292,-187.1061C429.7292,-206.3391 429.7292,-234 429.7292,-234 429.7292,-234 431.4112,-234 431.4112,-234"/>
<polygon fill="#000000" stroke="#000000" points="431.4113,-237.5001 441.4112,-234 431.4112,-230.5001 431.4113,-237.5001"/>
</g>
<!-- BsEditAlert  -->
<g id="node9" class="node">
<title>BsEditAlert </title>
<polygon fill="#fb8072" stroke="#000000" points="424.3788,-252 337.6212,-252 337.6212,-216 424.3788,-216 424.3788,-252"/>
<text text-anchor="middle" x="381" y="-229.8" font-family="Times,serif" font-size="14.00" fill="#000000">BsEditAlert </text>
</g>
<!-- BsAlertsModule&#45;&gt;BsEditAlert  -->
<g id="edge8" class="edge">
<title>BsAlertsModule&#45;&gt;BsEditAlert </title>
<path fill="none" stroke="#000000" stroke-dasharray="5,2" d="M381,-187.1061C381,-187.1061 381,-205.991 381,-205.991"/>
<polygon fill="#000000" stroke="#000000" points="377.5001,-205.9909 381,-215.991 384.5001,-205.991 377.5001,-205.9909"/>
</g>
<!-- BsManageAlerts  -->
<g id="node10" class="node">
<title>BsManageAlerts </title>
<polygon fill="#fb8072" stroke="#000000" points="319.578,-252 206.422,-252 206.422,-216 319.578,-216 319.578,-252"/>
<text text-anchor="middle" x="263" y="-229.8" font-family="Times,serif" font-size="14.00" fill="#000000">BsManageAlerts </text>
</g>
<!-- BsAlertsModule&#45;&gt;BsManageAlerts  -->
<g id="edge9" class="edge">
<title>BsAlertsModule&#45;&gt;BsManageAlerts </title>
<path fill="none" stroke="#000000" stroke-dasharray="5,2" d="M332.2709,-187.1061C332.2709,-206.3391 332.2709,-234 332.2709,-234 332.2709,-234 329.8866,-234 329.8866,-234"/>
<polygon fill="#000000" stroke="#000000" points="329.8866,-230.5001 319.8866,-234 329.8866,-237.5001 329.8866,-230.5001"/>
</g>
<!-- BsActionModule -->
<g id="node5" class="node">
<title>BsActionModule</title>
<polygon fill="#8dd3c7" stroke="#000000" points="370.4342,-122 367.4342,-126 346.4342,-126 343.4342,-122 257.5658,-122 257.5658,-86 370.4342,-86 370.4342,-122"/>
<text text-anchor="middle" x="314" y="-99.8" font-family="Times,serif" font-size="14.00" fill="#000000">BsActionModule</text>
</g>
<!-- BsActionModule&#45;&gt;BsAlertsModule -->
<g id="edge4" class="edge">
<title>BsActionModule&#45;&gt;BsAlertsModule</title>
<path fill="none" stroke="#000000" d="M348.4737,-122.1061C348.4737,-122.1061 348.4737,-140.991 348.4737,-140.991"/>
<polygon fill="#000000" stroke="#000000" points="344.9738,-140.9909 348.4737,-150.991 351.9738,-140.991 344.9738,-140.9909"/>
</g>
<!-- BsModalModule -->
<g id="node6" class="node">
<title>BsModalModule</title>
<polygon fill="#8dd3c7" stroke="#000000" points="239.3809,-122 236.3809,-126 215.3809,-126 212.3809,-122 128.6191,-122 128.6191,-86 239.3809,-86 239.3809,-122"/>
<text text-anchor="middle" x="184" y="-99.8" font-family="Times,serif" font-size="14.00" fill="#000000">BsModalModule</text>
</g>
<!-- BsModalModule&#45;&gt;BsAlertsModule -->
<g id="edge5" class="edge">
<title>BsModalModule&#45;&gt;BsAlertsModule</title>
<path fill="none" stroke="#000000" d="M222.8259,-122.0225C222.8259,-139.3734 222.8259,-163 222.8259,-163 222.8259,-163 316.5654,-163 316.5654,-163"/>
<polygon fill="#000000" stroke="#000000" points="316.5655,-166.5001 326.5654,-163 316.5654,-159.5001 316.5655,-166.5001"/>
</g>
<!-- UtilsModule -->
<g id="node7" class="node">
<title>UtilsModule</title>
<polygon fill="#8dd3c7" stroke="#000000" points="110.2731,-122 107.2731,-126 86.2731,-126 83.2731,-122 23.7269,-122 23.7269,-86 110.2731,-86 110.2731,-122"/>
<text text-anchor="middle" x="67" y="-99.8" font-family="Times,serif" font-size="14.00" fill="#000000">UtilsModule</text>
</g>
<!-- UtilsModule&#45;&gt;BsAlertsModule -->
<g id="edge6" class="edge">
<title>UtilsModule&#45;&gt;BsAlertsModule</title>
<path fill="none" stroke="#000000" d="M67,-122.2843C67,-143.3211 67,-175 67,-175 67,-175 316.6638,-175 316.6638,-175"/>
<polygon fill="#000000" stroke="#000000" points="316.6639,-178.5001 326.6638,-175 316.6638,-171.5001 316.6639,-178.5001"/>
</g>
</g>
</svg>
