<?xml version="1.0" encoding="UTF-8" standalone="no"?>
<!DOCTYPE svg PUBLIC "-//W3C//DTD SVG 1.1//EN"
 "http://www.w3.org/Graphics/SVG/1.1/DTD/svg11.dtd">
<!-- Generated by graphviz version 2.47.3 (20210619.1520)
 -->
<!-- Title: dependencies Pages: 1 -->
<svg width="1009pt" height="247pt"
 viewBox="0.00 0.00 1009.00 246.80" xmlns="http://www.w3.org/2000/svg" xmlns:xlink="http://www.w3.org/1999/xlink">
<g id="graph0" class="graph" transform="scale(1 1) rotate(0) translate(4 242.8)">
<title>dependencies</title>
<polygon fill="white" stroke="transparent" points="-4,4 -4,-242.8 1005,-242.8 1005,4 -4,4"/>
<text text-anchor="middle" x="500.5" y="-8.2" font-family="sans-serif" font-size="14.00">dependencies</text>
<g id="clust1" class="cluster">
<title>cluster_BsAlertsModule</title>
<polygon fill="none" stroke="black" stroke-dasharray="1,5" points="8,-32.8 8,-230.8 993,-230.8 993,-32.8 8,-32.8"/>
</g>
<g id="clust2" class="cluster">
<title>cluster_BsAlertsModule_declarations</title>
<polygon fill="none" stroke="black" points="386,-40.8 386,-92.8 985,-92.8 985,-40.8 386,-40.8"/>
</g>
<g id="clust8" class="cluster">
<title>cluster_BsAlertsModule_exports</title>
<polygon fill="none" stroke="black" points="266,-170.8 266,-222.8 684,-222.8 684,-170.8 266,-170.8"/>
</g>
<g id="clust7" class="cluster">
<title>cluster_BsAlertsModule_imports</title>
<polygon fill="none" stroke="black" points="16,-40.8 16,-92.8 378,-92.8 378,-40.8 16,-40.8"/>
</g>
<!-- BsAlertMessageComponent -->
<g id="node1" class="node">
<title>BsAlertMessageComponent</title>
<polygon fill="#ffffb3" stroke="black" points="976.85,-84.8 803.15,-84.8 803.15,-48.8 976.85,-48.8 976.85,-84.8"/>
<text text-anchor="middle" x="890" y="-62.6" font-family="Times,serif" font-size="14.00">BsAlertMessageComponent</text>
</g>
<!-- BsAlertsModule -->
<g id="node5" class="node">
<title>BsAlertsModule</title>
<polygon fill="#8dd3c7" stroke="black" points="503.04,-149.8 500.04,-153.8 479.04,-153.8 476.04,-149.8 394.96,-149.8 394.96,-113.8 503.04,-113.8 503.04,-149.8"/>
<text text-anchor="middle" x="449" y="-127.6" font-family="Times,serif" font-size="14.00">BsAlertsModule</text>
</g>
<!-- BsAlertMessageComponent&#45;&gt;BsAlertsModule -->
<g id="edge1" class="edge">
<title>BsAlertMessageComponent&#45;&gt;BsAlertsModule</title>
<path fill="none" stroke="black" d="M890,-85.09C890,-107.01 890,-140.8 890,-140.8 890,-140.8 513.08,-140.8 513.08,-140.8"/>
<polygon fill="black" stroke="black" points="513.08,-137.3 503.08,-140.8 513.08,-144.3 513.08,-137.3"/>
</g>
<!-- BsAlertsMenuComponent -->
<g id="node2" class="node">
<title>BsAlertsMenuComponent</title>
<polygon fill="#ffffb3" stroke="black" points="785.48,-84.8 622.52,-84.8 622.52,-48.8 785.48,-48.8 785.48,-84.8"/>
<text text-anchor="middle" x="704" y="-62.6" font-family="Times,serif" font-size="14.00">BsAlertsMenuComponent</text>
</g>
<!-- BsAlertsMenuComponent&#45;&gt;BsAlertsModule -->
<g id="edge2" class="edge">
<title>BsAlertsMenuComponent&#45;&gt;BsAlertsModule</title>
<path fill="none" stroke="black" d="M649.38,-84.91C649.38,-104.14 649.38,-131.8 649.38,-131.8 649.38,-131.8 513.22,-131.8 513.22,-131.8"/>
<polygon fill="black" stroke="black" points="513.22,-128.3 503.22,-131.8 513.22,-135.3 513.22,-128.3"/>
</g>
<!-- BsEditAlert -->
<g id="node3" class="node">
<title>BsEditAlert</title>
<polygon fill="#ffffb3" stroke="black" points="604.38,-84.8 521.62,-84.8 521.62,-48.8 604.38,-48.8 604.38,-84.8"/>
<text text-anchor="middle" x="563" y="-62.6" font-family="Times,serif" font-size="14.00">BsEditAlert</text>
</g>
<!-- BsEditAlert&#45;&gt;BsAlertsModule -->
<g id="edge3" class="edge">
<title>BsEditAlert&#45;&gt;BsAlertsModule</title>
<path fill="none" stroke="black" d="M563,-84.83C563,-101.2 563,-122.8 563,-122.8 563,-122.8 513.33,-122.8 513.33,-122.8"/>
<polygon fill="black" stroke="black" points="513.33,-119.3 503.33,-122.8 513.33,-126.3 513.33,-119.3"/>
</g>
<!-- BsManageAlerts -->
<g id="node4" class="node">
<title>BsManageAlerts</title>
<polygon fill="#ffffb3" stroke="black" points="504.08,-84.8 393.92,-84.8 393.92,-48.8 504.08,-48.8 504.08,-84.8"/>
<text text-anchor="middle" x="449" y="-62.6" font-family="Times,serif" font-size="14.00">BsManageAlerts</text>
</g>
<!-- BsManageAlerts&#45;&gt;BsAlertsModule -->
<g id="edge4" class="edge">
<title>BsManageAlerts&#45;&gt;BsAlertsModule</title>
<path fill="none" stroke="black" d="M449,-84.91C449,-84.91 449,-103.79 449,-103.79"/>
<polygon fill="black" stroke="black" points="445.5,-103.79 449,-113.79 452.5,-103.79 445.5,-103.79"/>
</g>
<!-- BsAlertsMenuComponent  -->
<g id="node9" class="node">
<title>BsAlertsMenuComponent </title>
<polygon fill="#fb8072" stroke="black" points="676.48,-214.8 509.52,-214.8 509.52,-178.8 676.48,-178.8 676.48,-214.8"/>
<text text-anchor="middle" x="593" y="-192.6" font-family="Times,serif" font-size="14.00">BsAlertsMenuComponent </text>
</g>
<!-- BsAlertsModule&#45;&gt;BsAlertsMenuComponent  -->
<g id="edge8" class="edge">
<title>BsAlertsModule&#45;&gt;BsAlertsMenuComponent </title>
<path fill="none" stroke="black" stroke-dasharray="5,2" d="M497.73,-149.91C497.73,-169.14 497.73,-196.8 497.73,-196.8 497.73,-196.8 499.41,-196.8 499.41,-196.8"/>
<polygon fill="black" stroke="black" points="499.41,-200.3 509.41,-196.8 499.41,-193.3 499.41,-200.3"/>
</g>
<!-- BsEditAlert  -->
<g id="node10" class="node">
<title>BsEditAlert </title>
<polygon fill="#fb8072" stroke="black" points="492.38,-214.8 405.62,-214.8 405.62,-178.8 492.38,-178.8 492.38,-214.8"/>
<text text-anchor="middle" x="449" y="-192.6" font-family="Times,serif" font-size="14.00">BsEditAlert </text>
</g>
<!-- BsAlertsModule&#45;&gt;BsEditAlert  -->
<g id="edge9" class="edge">
<title>BsAlertsModule&#45;&gt;BsEditAlert </title>
<path fill="none" stroke="black" stroke-dasharray="5,2" d="M449,-149.91C449,-149.91 449,-168.79 449,-168.79"/>
<polygon fill="black" stroke="black" points="445.5,-168.79 449,-178.79 452.5,-168.79 445.5,-168.79"/>
</g>
<!-- BsManageAlerts  -->
<g id="node11" class="node">
<title>BsManageAlerts </title>
<polygon fill="#fb8072" stroke="black" points="387.58,-214.8 274.42,-214.8 274.42,-178.8 387.58,-178.8 387.58,-214.8"/>
<text text-anchor="middle" x="331" y="-192.6" font-family="Times,serif" font-size="14.00">BsManageAlerts </text>
</g>
<!-- BsAlertsModule&#45;&gt;BsManageAlerts  -->
<g id="edge10" class="edge">
<title>BsAlertsModule&#45;&gt;BsManageAlerts </title>
<path fill="none" stroke="black" stroke-dasharray="5,2" d="M400.27,-149.91C400.27,-169.14 400.27,-196.8 400.27,-196.8 400.27,-196.8 397.89,-196.8 397.89,-196.8"/>
<polygon fill="black" stroke="black" points="397.89,-193.3 387.89,-196.8 397.89,-200.3 397.89,-193.3"/>
</g>
<!-- BsActionModule -->
<g id="node6" class="node">
<title>BsActionModule</title>
<polygon fill="#8dd3c7" stroke="black" points="370.43,-84.8 367.43,-88.8 346.43,-88.8 343.43,-84.8 257.57,-84.8 257.57,-48.8 370.43,-48.8 370.43,-84.8"/>
<text text-anchor="middle" x="314" y="-62.6" font-family="Times,serif" font-size="14.00">BsActionModule</text>
</g>
<!-- BsActionModule&#45;&gt;BsAlertsModule -->
<g id="edge5" class="edge">
<title>BsActionModule&#45;&gt;BsAlertsModule</title>
<path fill="none" stroke="black" d="M322.21,-84.83C322.21,-101.2 322.21,-122.8 322.21,-122.8 322.21,-122.8 384.86,-122.8 384.86,-122.8"/>
<polygon fill="black" stroke="black" points="384.86,-126.3 394.86,-122.8 384.86,-119.3 384.86,-126.3"/>
</g>
<!-- BsModalModule -->
<g id="node7" class="node">
<title>BsModalModule</title>
<polygon fill="#8dd3c7" stroke="black" points="239.38,-84.8 236.38,-88.8 215.38,-88.8 212.38,-84.8 128.62,-84.8 128.62,-48.8 239.38,-48.8 239.38,-84.8"/>
<text text-anchor="middle" x="184" y="-62.6" font-family="Times,serif" font-size="14.00">BsModalModule</text>
</g>
<!-- BsModalModule&#45;&gt;BsAlertsModule -->
<g id="edge6" class="edge">
<title>BsModalModule&#45;&gt;BsAlertsModule</title>
<path fill="none" stroke="black" d="M184,-84.91C184,-104.14 184,-131.8 184,-131.8 184,-131.8 384.73,-131.8 384.73,-131.8"/>
<polygon fill="black" stroke="black" points="384.73,-135.3 394.73,-131.8 384.73,-128.3 384.73,-135.3"/>
</g>
<!-- UtilsModule -->
<g id="node8" class="node">
<title>UtilsModule</title>
<polygon fill="#8dd3c7" stroke="black" points="110.27,-84.8 107.27,-88.8 86.27,-88.8 83.27,-84.8 23.73,-84.8 23.73,-48.8 110.27,-48.8 110.27,-84.8"/>
<text text-anchor="middle" x="67" y="-62.6" font-family="Times,serif" font-size="14.00">UtilsModule</text>
</g>
<!-- UtilsModule&#45;&gt;BsAlertsModule -->
<g id="edge7" class="edge">
<title>UtilsModule&#45;&gt;BsAlertsModule</title>
<path fill="none" stroke="black" d="M67,-85.09C67,-107.01 67,-140.8 67,-140.8 67,-140.8 384.67,-140.8 384.67,-140.8"/>
<polygon fill="black" stroke="black" points="384.67,-144.3 394.67,-140.8 384.67,-137.3 384.67,-144.3"/>
</g>
</g>
</svg>
