<?xml version="1.0" encoding="UTF-8" standalone="no"?>
<!DOCTYPE svg PUBLIC "-//W3C//DTD SVG 1.1//EN"
 "http://www.w3.org/Graphics/SVG/1.1/DTD/svg11.dtd">
<!-- Generated by graphviz version 2.40.1 (20161225.0304)
 -->
<!-- Title: dependencies Pages: 1 -->
<svg width="1009pt" height="284pt"
 viewBox="0.00 0.00 1009.00 284.00" xmlns="http://www.w3.org/2000/svg" xmlns:xlink="http://www.w3.org/1999/xlink">
<g id="graph0" class="graph" transform="scale(1 1) rotate(0) translate(4 280)">
<title>dependencies</title>
<polygon fill="#ffffff" stroke="transparent" points="-4,4 -4,-280 1005,-280 1005,4 -4,4"/>
<text text-anchor="start" x="479.5091" y="-42.4" font-family="sans-serif" font-weight="bold" font-size="14.00" fill="#000000">Legend</text>
<polygon fill="#ffffb3" stroke="transparent" points="266.5,-10 266.5,-30 286.5,-30 286.5,-10 266.5,-10"/>
<text text-anchor="start" x="290.129" y="-15.4" font-family="sans-serif" font-size="14.00" fill="#000000"> &#160;Declarations</text>
<polygon fill="#8dd3c7" stroke="transparent" points="379.5,-10 379.5,-30 399.5,-30 399.5,-10 379.5,-10"/>
<text text-anchor="start" x="403.2251" y="-15.4" font-family="sans-serif" font-size="14.00" fill="#000000"> &#160;Module</text>
<polygon fill="#80b1d3" stroke="transparent" points="465.5,-10 465.5,-30 485.5,-30 485.5,-10 465.5,-10"/>
<text text-anchor="start" x="489.2812" y="-15.4" font-family="sans-serif" font-size="14.00" fill="#000000"> &#160;Bootstrap</text>
<polygon fill="#fdb462" stroke="transparent" points="562.5,-10 562.5,-30 582.5,-30 582.5,-10 562.5,-10"/>
<text text-anchor="start" x="586.1732" y="-15.4" font-family="sans-serif" font-size="14.00" fill="#000000"> &#160;Providers</text>
<polygon fill="#fb8072" stroke="transparent" points="658.5,-10 658.5,-30 678.5,-30 678.5,-10 658.5,-10"/>
<text text-anchor="start" x="682.2258" y="-15.4" font-family="sans-serif" font-size="14.00" fill="#000000"> &#160;Exports</text>
<g id="clust1" class="cluster">
<title>cluster_BsAlertsModule</title>
<polygon fill="none" stroke="#000000" stroke-dasharray="1,5" points="8,-70 8,-268 993,-268 993,-70 8,-70"/>
</g>
<g id="clust2" class="cluster">
<title>cluster_BsAlertsModule_declarations</title>
<polygon fill="none" stroke="#000000" points="386,-78 386,-130 985,-130 985,-78 386,-78"/>
</g>
<g id="clust7" class="cluster">
<title>cluster_BsAlertsModule_imports</title>
<polygon fill="none" stroke="#000000" points="16,-78 16,-130 378,-130 378,-78 16,-78"/>
</g>
<g id="clust8" class="cluster">
<title>cluster_BsAlertsModule_exports</title>
<polygon fill="none" stroke="#000000" points="266,-208 266,-260 684,-260 684,-208 266,-208"/>
</g>
<!-- BsAlertMessageComponent -->
<g id="node1" class="node">
<title>BsAlertMessageComponent</title>
<polygon fill="#ffffb3" stroke="#000000" points="976.8543,-122 803.1457,-122 803.1457,-86 976.8543,-86 976.8543,-122"/>
<text text-anchor="middle" x="890" y="-99.8" font-family="Times,serif" font-size="14.00" fill="#000000">BsAlertMessageComponent</text>
</g>
<!-- BsAlertsModule -->
<g id="node5" class="node">
<title>BsAlertsModule</title>
<polygon fill="#8dd3c7" stroke="#000000" points="503.0396,-187 500.0396,-191 479.0396,-191 476.0396,-187 394.9604,-187 394.9604,-151 503.0396,-151 503.0396,-187"/>
<text text-anchor="middle" x="449" y="-164.8" font-family="Times,serif" font-size="14.00" fill="#000000">BsAlertsModule</text>
</g>
<!-- BsAlertMessageComponent&#45;&gt;BsAlertsModule -->
<g id="edge1" class="edge">
<title>BsAlertMessageComponent&#45;&gt;BsAlertsModule</title>
<path fill="none" stroke="#000000" d="M890,-122.2921C890,-144.2057 890,-178 890,-178 890,-178 513.0753,-178 513.0753,-178"/>
<polygon fill="#000000" stroke="#000000" points="513.0753,-174.5001 503.0753,-178 513.0752,-181.5001 513.0753,-174.5001"/>
</g>
<!-- BsAlertsMenuComponent -->
<g id="node2" class="node">
<title>BsAlertsMenuComponent</title>
<polygon fill="#ffffb3" stroke="#000000" points="785.4804,-122 622.5196,-122 622.5196,-86 785.4804,-86 785.4804,-122"/>
<text text-anchor="middle" x="704" y="-99.8" font-family="Times,serif" font-size="14.00" fill="#000000">BsAlertsMenuComponent</text>
</g>
<!-- BsAlertsMenuComponent&#45;&gt;BsAlertsModule -->
<g id="edge2" class="edge">
<title>BsAlertsMenuComponent&#45;&gt;BsAlertsModule</title>
<path fill="none" stroke="#000000" d="M649.375,-122.1061C649.375,-141.3391 649.375,-169 649.375,-169 649.375,-169 513.2244,-169 513.2244,-169"/>
<polygon fill="#000000" stroke="#000000" points="513.2244,-165.5001 503.2244,-169 513.2243,-172.5001 513.2244,-165.5001"/>
</g>
<!-- BsEditAlert -->
<g id="node3" class="node">
<title>BsEditAlert</title>
<polygon fill="#ffffb3" stroke="#000000" points="604.3781,-122 521.6219,-122 521.6219,-86 604.3781,-86 604.3781,-122"/>
<text text-anchor="middle" x="563" y="-99.8" font-family="Times,serif" font-size="14.00" fill="#000000">BsEditAlert</text>
</g>
<!-- BsEditAlert&#45;&gt;BsAlertsModule -->
<g id="edge3" class="edge">
<title>BsEditAlert&#45;&gt;BsAlertsModule</title>
<path fill="none" stroke="#000000" d="M563,-122.027C563,-138.3976 563,-160 563,-160 563,-160 513.329,-160 513.329,-160"/>
<polygon fill="#000000" stroke="#000000" points="513.329,-156.5001 503.329,-160 513.329,-163.5001 513.329,-156.5001"/>
</g>
<!-- BsManageAlerts -->
<g id="node4" class="node">
<title>BsManageAlerts</title>
<polygon fill="#ffffb3" stroke="#000000" points="504.0772,-122 393.9228,-122 393.9228,-86 504.0772,-86 504.0772,-122"/>
<text text-anchor="middle" x="449" y="-99.8" font-family="Times,serif" font-size="14.00" fill="#000000">BsManageAlerts</text>
</g>
<!-- BsManageAlerts&#45;&gt;BsAlertsModule -->
<g id="edge4" class="edge">
<title>BsManageAlerts&#45;&gt;BsAlertsModule</title>
<path fill="none" stroke="#000000" d="M449,-122.1061C449,-122.1061 449,-140.991 449,-140.991"/>
<polygon fill="#000000" stroke="#000000" points="445.5001,-140.9909 449,-150.991 452.5001,-140.991 445.5001,-140.9909"/>
</g>
<!-- BsAlertsMenuComponent  -->
<g id="node9" class="node">
<title>BsAlertsMenuComponent </title>
<polygon fill="#fb8072" stroke="#000000" points="676.4811,-252 509.5189,-252 509.5189,-216 676.4811,-216 676.4811,-252"/>
<text text-anchor="middle" x="593" y="-229.8" font-family="Times,serif" font-size="14.00" fill="#000000">BsAlertsMenuComponent </text>
</g>
<!-- BsAlertsModule&#45;&gt;BsAlertsMenuComponent  -->
<g id="edge8" class="edge">
<title>BsAlertsModule&#45;&gt;BsAlertsMenuComponent </title>
<path fill="none" stroke="#000000" stroke-dasharray="5,2" d="M497.7292,-187.1061C497.7292,-206.3391 497.7292,-234 497.7292,-234 497.7292,-234 499.4112,-234 499.4112,-234"/>
<polygon fill="#000000" stroke="#000000" points="499.4113,-237.5001 509.4112,-234 499.4112,-230.5001 499.4113,-237.5001"/>
</g>
<!-- BsEditAlert  -->
<g id="node10" class="node">
<title>BsEditAlert </title>
<polygon fill="#fb8072" stroke="#000000" points="492.3788,-252 405.6212,-252 405.6212,-216 492.3788,-216 492.3788,-252"/>
<text text-anchor="middle" x="449" y="-229.8" font-family="Times,serif" font-size="14.00" fill="#000000">BsEditAlert </text>
</g>
<!-- BsAlertsModule&#45;&gt;BsEditAlert  -->
<g id="edge9" class="edge">
<title>BsAlertsModule&#45;&gt;BsEditAlert </title>
<path fill="none" stroke="#000000" stroke-dasharray="5,2" d="M449,-187.1061C449,-187.1061 449,-205.991 449,-205.991"/>
<polygon fill="#000000" stroke="#000000" points="445.5001,-205.9909 449,-215.991 452.5001,-205.991 445.5001,-205.9909"/>
</g>
<!-- BsManageAlerts  -->
<g id="node11" class="node">
<title>BsManageAlerts </title>
<polygon fill="#fb8072" stroke="#000000" points="387.578,-252 274.422,-252 274.422,-216 387.578,-216 387.578,-252"/>
<text text-anchor="middle" x="331" y="-229.8" font-family="Times,serif" font-size="14.00" fill="#000000">BsManageAlerts </text>
</g>
<!-- BsAlertsModule&#45;&gt;BsManageAlerts  -->
<g id="edge10" class="edge">
<title>BsAlertsModule&#45;&gt;BsManageAlerts </title>
<path fill="none" stroke="#000000" stroke-dasharray="5,2" d="M400.2709,-187.1061C400.2709,-206.3391 400.2709,-234 400.2709,-234 400.2709,-234 397.8866,-234 397.8866,-234"/>
<polygon fill="#000000" stroke="#000000" points="397.8866,-230.5001 387.8866,-234 397.8866,-237.5001 397.8866,-230.5001"/>
</g>
<!-- BsActionModule -->
<g id="node6" class="node">
<title>BsActionModule</title>
<polygon fill="#8dd3c7" stroke="#000000" points="370.4342,-122 367.4342,-126 346.4342,-126 343.4342,-122 257.5658,-122 257.5658,-86 370.4342,-86 370.4342,-122"/>
<text text-anchor="middle" x="314" y="-99.8" font-family="Times,serif" font-size="14.00" fill="#000000">BsActionModule</text>
</g>
<!-- BsActionModule&#45;&gt;BsAlertsModule -->
<g id="edge5" class="edge">
<title>BsActionModule&#45;&gt;BsAlertsModule</title>
<path fill="none" stroke="#000000" d="M322.2141,-122.027C322.2141,-138.3976 322.2141,-160 322.2141,-160 322.2141,-160 384.8636,-160 384.8636,-160"/>
<polygon fill="#000000" stroke="#000000" points="384.8636,-163.5001 394.8636,-160 384.8636,-156.5001 384.8636,-163.5001"/>
</g>
<!-- BsModalModule -->
<g id="node7" class="node">
<title>BsModalModule</title>
<polygon fill="#8dd3c7" stroke="#000000" points="239.3809,-122 236.3809,-126 215.3809,-126 212.3809,-122 128.6191,-122 128.6191,-86 239.3809,-86 239.3809,-122"/>
<text text-anchor="middle" x="184" y="-99.8" font-family="Times,serif" font-size="14.00" fill="#000000">BsModalModule</text>
</g>
<!-- BsModalModule&#45;&gt;BsAlertsModule -->
<g id="edge6" class="edge">
<title>BsModalModule&#45;&gt;BsAlertsModule</title>
<path fill="none" stroke="#000000" d="M184,-122.1061C184,-141.3391 184,-169 184,-169 184,-169 384.7338,-169 384.7338,-169"/>
<polygon fill="#000000" stroke="#000000" points="384.7339,-172.5001 394.7338,-169 384.7338,-165.5001 384.7339,-172.5001"/>
</g>
<!-- UtilsModule -->
<g id="node8" class="node">
<title>UtilsModule</title>
<polygon fill="#8dd3c7" stroke="#000000" points="110.2731,-122 107.2731,-126 86.2731,-126 83.2731,-122 23.7269,-122 23.7269,-86 110.2731,-86 110.2731,-122"/>
<text text-anchor="middle" x="67" y="-99.8" font-family="Times,serif" font-size="14.00" fill="#000000">UtilsModule</text>
</g>
<!-- UtilsModule&#45;&gt;BsAlertsModule -->
<g id="edge7" class="edge">
<title>UtilsModule&#45;&gt;BsAlertsModule</title>
<path fill="none" stroke="#000000" d="M67,-122.2921C67,-144.2057 67,-178 67,-178 67,-178 384.6744,-178 384.6744,-178"/>
<polygon fill="#000000" stroke="#000000" points="384.6744,-181.5001 394.6744,-178 384.6744,-174.5001 384.6744,-181.5001"/>
</g>
</g>
</svg>
