<?xml version="1.0" encoding="UTF-8" standalone="no"?>
<!DOCTYPE svg PUBLIC "-//W3C//DTD SVG 1.1//EN"
 "http://www.w3.org/Graphics/SVG/1.1/DTD/svg11.dtd">
<!-- Generated by graphviz version 2.40.1 (20161225.0304)
 -->
<!-- Title: dependencies Pages: 1 -->
<svg width="504pt" height="284pt"
 viewBox="0.00 0.00 504.00 284.00" xmlns="http://www.w3.org/2000/svg" xmlns:xlink="http://www.w3.org/1999/xlink">
<g id="graph0" class="graph" transform="scale(1 1) rotate(0) translate(4 280)">
<title>dependencies</title>
<polygon fill="#ffffff" stroke="transparent" points="-4,4 -4,-280 500,-280 500,4 -4,4"/>
<text text-anchor="start" x="227.0091" y="-42.4" font-family="sans-serif" font-weight="bold" font-size="14.00" fill="#000000">Legend</text>
<polygon fill="#ffffb3" stroke="transparent" points="14,-10 14,-30 34,-30 34,-10 14,-10"/>
<text text-anchor="start" x="37.629" y="-15.4" font-family="sans-serif" font-size="14.00" fill="#000000"> &#160;Declarations</text>
<polygon fill="#8dd3c7" stroke="transparent" points="127,-10 127,-30 147,-30 147,-10 127,-10"/>
<text text-anchor="start" x="150.7251" y="-15.4" font-family="sans-serif" font-size="14.00" fill="#000000"> &#160;Module</text>
<polygon fill="#80b1d3" stroke="transparent" points="213,-10 213,-30 233,-30 233,-10 213,-10"/>
<text text-anchor="start" x="236.7812" y="-15.4" font-family="sans-serif" font-size="14.00" fill="#000000"> &#160;Bootstrap</text>
<polygon fill="#fdb462" stroke="transparent" points="310,-10 310,-30 330,-30 330,-10 310,-10"/>
<text text-anchor="start" x="333.6732" y="-15.4" font-family="sans-serif" font-size="14.00" fill="#000000"> &#160;Providers</text>
<polygon fill="#fb8072" stroke="transparent" points="406,-10 406,-30 426,-30 426,-10 406,-10"/>
<text text-anchor="start" x="429.7258" y="-15.4" font-family="sans-serif" font-size="14.00" fill="#000000"> &#160;Exports</text>
<g id="clust1" class="cluster">
<title>cluster_AgGridModule</title>
<polygon fill="none" stroke="#000000" stroke-dasharray="1,5" points="74,-70 74,-268 422,-268 422,-70 74,-70"/>
</g>
<g id="clust2" class="cluster">
<title>cluster_AgGridModule_declarations</title>
<polygon fill="none" stroke="#000000" points="82,-78 82,-130 414,-130 414,-78 82,-78"/>
</g>
<g id="clust6" class="cluster">
<title>cluster_AgGridModule_exports</title>
<polygon fill="none" stroke="#000000" points="161,-208 161,-260 335,-260 335,-208 161,-208"/>
</g>
<!-- AgGridViewComponent -->
<g id="node1" class="node">
<title>AgGridViewComponent</title>
<polygon fill="#ffffb3" stroke="#000000" points="406.4158,-122 251.5842,-122 251.5842,-86 406.4158,-86 406.4158,-122"/>
<text text-anchor="middle" x="329" y="-99.8" font-family="Times,serif" font-size="14.00" fill="#000000">AgGridViewComponent</text>
</g>
<!-- AgGridModule -->
<g id="node3" class="node">
<title>AgGridModule</title>
<polygon fill="#8dd3c7" stroke="#000000" points="299.3147,-187 296.3147,-191 275.3147,-191 272.3147,-187 196.6853,-187 196.6853,-151 299.3147,-151 299.3147,-187"/>
<text text-anchor="middle" x="248" y="-164.8" font-family="Times,serif" font-size="14.00" fill="#000000">AgGridModule</text>
</g>
<!-- AgGridViewComponent&#45;&gt;AgGridModule -->
<g id="edge1" class="edge">
<title>AgGridViewComponent&#45;&gt;AgGridModule</title>
<path fill="none" stroke="#000000" d="M275.4747,-122.1061C275.4747,-122.1061 275.4747,-140.991 275.4747,-140.991"/>
<polygon fill="#000000" stroke="#000000" points="271.9748,-140.9909 275.4747,-150.991 278.9748,-140.991 271.9748,-140.9909"/>
</g>
<!-- DataModalComponent -->
<g id="node2" class="node">
<title>DataModalComponent</title>
<polygon fill="#ffffb3" stroke="#000000" points="234.3089,-122 89.6911,-122 89.6911,-86 234.3089,-86 234.3089,-122"/>
<text text-anchor="middle" x="162" y="-99.8" font-family="Times,serif" font-size="14.00" fill="#000000">DataModalComponent</text>
</g>
<!-- DataModalComponent&#45;&gt;AgGridModule -->
<g id="edge2" class="edge">
<title>DataModalComponent&#45;&gt;AgGridModule</title>
<path fill="none" stroke="#000000" d="M215.4986,-122.1061C215.4986,-122.1061 215.4986,-140.991 215.4986,-140.991"/>
<polygon fill="#000000" stroke="#000000" points="211.9987,-140.9909 215.4986,-150.991 218.9987,-140.991 211.9987,-140.9909"/>
</g>
<!-- AgGridViewComponent  -->
<g id="node4" class="node">
<title>AgGridViewComponent </title>
<polygon fill="#fb8072" stroke="#000000" points="326.9152,-252 169.0848,-252 169.0848,-216 326.9152,-216 326.9152,-252"/>
<text text-anchor="middle" x="248" y="-229.8" font-family="Times,serif" font-size="14.00" fill="#000000">AgGridViewComponent </text>
</g>
<!-- AgGridModule&#45;&gt;AgGridViewComponent  -->
<g id="edge3" class="edge">
<title>AgGridModule&#45;&gt;AgGridViewComponent </title>
<path fill="none" stroke="#000000" stroke-dasharray="5,2" d="M248,-187.1061C248,-187.1061 248,-205.991 248,-205.991"/>
<polygon fill="#000000" stroke="#000000" points="244.5001,-205.9909 248,-215.991 251.5001,-205.991 244.5001,-205.9909"/>
</g>
</g>
</svg>
