<?xml version="1.0" encoding="UTF-8" standalone="no"?>
<!DOCTYPE svg PUBLIC "-//W3C//DTD SVG 1.1//EN"
 "http://www.w3.org/Graphics/SVG/1.1/DTD/svg11.dtd">
<!-- Generated by graphviz version 2.47.3 (20210619.1520)
 -->
<!-- Title: dependencies Pages: 1 -->
<svg width="550pt" height="247pt"
 viewBox="0.00 0.00 550.00 246.80" xmlns="http://www.w3.org/2000/svg" xmlns:xlink="http://www.w3.org/1999/xlink">
<g id="graph0" class="graph" transform="scale(1 1) rotate(0) translate(4 242.8)">
<title>dependencies</title>
<polygon fill="white" stroke="transparent" points="-4,4 -4,-242.8 546,-242.8 546,4 -4,4"/>
<text text-anchor="middle" x="271" y="-8.2" font-family="sans-serif" font-size="14.00">dependencies</text>
<g id="clust1" class="cluster">
<title>cluster_AgGridModule</title>
<polygon fill="none" stroke="black" stroke-dasharray="1,5" points="8,-32.8 8,-230.8 534,-230.8 534,-32.8 8,-32.8"/>
</g>
<g id="clust7" class="cluster">
<title>cluster_AgGridModule_exports</title>
<polygon fill="none" stroke="black" points="187,-170.8 187,-222.8 361,-222.8 361,-170.8 187,-170.8"/>
</g>
<g id="clust2" class="cluster">
<title>cluster_AgGridModule_declarations</title>
<polygon fill="none" stroke="black" points="16,-40.8 16,-92.8 526,-92.8 526,-40.8 16,-40.8"/>
</g>
<!-- AgGridViewComponent -->
<g id="node1" class="node">
<title>AgGridViewComponent</title>
<polygon fill="#ffffb3" stroke="black" points="518.42,-84.8 363.58,-84.8 363.58,-48.8 518.42,-48.8 518.42,-84.8"/>
<text text-anchor="middle" x="441" y="-62.6" font-family="Times,serif" font-size="14.00">AgGridViewComponent</text>
</g>
<!-- AgGridModule -->
<g id="node4" class="node">
<title>AgGridModule</title>
<polygon fill="#8dd3c7" stroke="black" points="325.31,-149.8 322.31,-153.8 301.31,-153.8 298.31,-149.8 222.69,-149.8 222.69,-113.8 325.31,-113.8 325.31,-149.8"/>
<text text-anchor="middle" x="274" y="-127.6" font-family="Times,serif" font-size="14.00">AgGridModule</text>
</g>
<!-- AgGridViewComponent&#45;&gt;AgGridModule -->
<g id="edge1" class="edge">
<title>AgGridViewComponent&#45;&gt;AgGridModule</title>
<path fill="none" stroke="black" d="M441,-84.91C441,-104.14 441,-131.8 441,-131.8 441,-131.8 335.47,-131.8 335.47,-131.8"/>
<polygon fill="black" stroke="black" points="335.47,-128.3 325.47,-131.8 335.47,-135.3 335.47,-128.3"/>
</g>
<!-- DataModalComponent -->
<g id="node2" class="node">
<title>DataModalComponent</title>
<polygon fill="#ffffb3" stroke="black" points="346.31,-84.8 201.69,-84.8 201.69,-48.8 346.31,-48.8 346.31,-84.8"/>
<text text-anchor="middle" x="274" y="-62.6" font-family="Times,serif" font-size="14.00">DataModalComponent</text>
</g>
<!-- DataModalComponent&#45;&gt;AgGridModule -->
<g id="edge2" class="edge">
<title>DataModalComponent&#45;&gt;AgGridModule</title>
<path fill="none" stroke="black" d="M274,-84.91C274,-84.91 274,-103.79 274,-103.79"/>
<polygon fill="black" stroke="black" points="270.5,-103.79 274,-113.79 277.5,-103.79 270.5,-103.79"/>
</g>
<!-- FacetWrapperComponent -->
<g id="node3" class="node">
<title>FacetWrapperComponent</title>
<polygon fill="#ffffb3" stroke="black" points="184.11,-84.8 23.89,-84.8 23.89,-48.8 184.11,-48.8 184.11,-84.8"/>
<text text-anchor="middle" x="104" y="-62.6" font-family="Times,serif" font-size="14.00">FacetWrapperComponent</text>
</g>
<!-- FacetWrapperComponent&#45;&gt;AgGridModule -->
<g id="edge3" class="edge">
<title>FacetWrapperComponent&#45;&gt;AgGridModule</title>
<path fill="none" stroke="black" d="M104,-84.91C104,-104.14 104,-131.8 104,-131.8 104,-131.8 212.53,-131.8 212.53,-131.8"/>
<polygon fill="black" stroke="black" points="212.53,-135.3 222.53,-131.8 212.53,-128.3 212.53,-135.3"/>
</g>
<!-- AgGridViewComponent  -->
<g id="node5" class="node">
<title>AgGridViewComponent </title>
<polygon fill="#fb8072" stroke="black" points="352.92,-214.8 195.08,-214.8 195.08,-178.8 352.92,-178.8 352.92,-214.8"/>
<text text-anchor="middle" x="274" y="-192.6" font-family="Times,serif" font-size="14.00">AgGridViewComponent </text>
</g>
<!-- AgGridModule&#45;&gt;AgGridViewComponent  -->
<g id="edge4" class="edge">
<title>AgGridModule&#45;&gt;AgGridViewComponent </title>
<path fill="none" stroke="black" stroke-dasharray="5,2" d="M274,-149.91C274,-149.91 274,-168.79 274,-168.79"/>
<polygon fill="black" stroke="black" points="270.5,-168.79 274,-178.79 277.5,-168.79 270.5,-168.79"/>
</g>
</g>
</svg>
