<?xml version="1.0" encoding="UTF-8" standalone="no"?>
<!DOCTYPE svg PUBLIC "-//W3C//DTD SVG 1.1//EN"
 "http://www.w3.org/Graphics/SVG/1.1/DTD/svg11.dtd">
<!-- Generated by graphviz version 2.47.3 (20210619.1520)
 -->
<!-- Title: dependencies Pages: 1 -->
<svg width="869pt" height="247pt"
 viewBox="0.00 0.00 869.00 246.80" xmlns="http://www.w3.org/2000/svg" xmlns:xlink="http://www.w3.org/1999/xlink">
<g id="graph0" class="graph" transform="scale(1 1) rotate(0) translate(4 242.8)">
<title>dependencies</title>
<polygon fill="white" stroke="transparent" points="-4,4 -4,-242.8 865,-242.8 865,4 -4,4"/>
<text text-anchor="middle" x="430.5" y="-8.2" font-family="sans-serif" font-size="14.00">dependencies</text>
<g id="clust1" class="cluster">
<title>cluster_LabelsModule</title>
<polygon fill="none" stroke="black" stroke-dasharray="1,5" points="8,-32.8 8,-230.8 853,-230.8 853,-32.8 8,-32.8"/>
</g>
<g id="clust2" class="cluster">
<title>cluster_LabelsModule_declarations</title>
<polygon fill="none" stroke="black" points="427,-40.8 427,-92.8 845,-92.8 845,-40.8 427,-40.8"/>
</g>
<g id="clust8" class="cluster">
<title>cluster_LabelsModule_exports</title>
<polygon fill="none" stroke="black" points="237,-170.8 237,-222.8 668,-222.8 668,-170.8 237,-170.8"/>
</g>
<g id="clust7" class="cluster">
<title>cluster_LabelsModule_imports</title>
<polygon fill="none" stroke="black" points="16,-40.8 16,-92.8 419,-92.8 419,-40.8 16,-40.8"/>
</g>
<!-- LabelPipe -->
<g id="node1" class="node">
<title>LabelPipe</title>
<polygon fill="#ffffb3" stroke="black" points="837.26,-84.8 764.74,-84.8 764.74,-48.8 837.26,-48.8 837.26,-84.8"/>
<text text-anchor="middle" x="801" y="-62.6" font-family="Times,serif" font-size="14.00">LabelPipe</text>
</g>
<!-- LabelsModule -->
<g id="node5" class="node">
<title>LabelsModule</title>
<polygon fill="#8dd3c7" stroke="black" points="528.37,-149.8 525.37,-153.8 504.37,-153.8 501.37,-149.8 431.63,-149.8 431.63,-113.8 528.37,-113.8 528.37,-149.8"/>
<text text-anchor="middle" x="480" y="-127.6" font-family="Times,serif" font-size="14.00">LabelsModule</text>
</g>
<!-- LabelPipe&#45;&gt;LabelsModule -->
<g id="edge1" class="edge">
<title>LabelPipe&#45;&gt;LabelsModule</title>
<path fill="none" stroke="black" d="M801,-84.93C801,-105.37 801,-135.8 801,-135.8 801,-135.8 538.4,-135.8 538.4,-135.8"/>
<polygon fill="black" stroke="black" points="538.4,-132.3 528.4,-135.8 538.4,-139.3 538.4,-132.3"/>
</g>
<!-- Labels -->
<g id="node2" class="node">
<title>Labels</title>
<polygon fill="#ffffb3" stroke="black" points="747,-84.8 693,-84.8 693,-48.8 747,-48.8 747,-84.8"/>
<text text-anchor="middle" x="720" y="-62.6" font-family="Times,serif" font-size="14.00">Labels</text>
</g>
<!-- Labels&#45;&gt;LabelsModule -->
<g id="edge2" class="edge">
<title>Labels&#45;&gt;LabelsModule</title>
<path fill="none" stroke="black" d="M720,-85.07C720,-103.36 720,-128.8 720,-128.8 720,-128.8 538.57,-128.8 538.57,-128.8"/>
<polygon fill="black" stroke="black" points="538.57,-125.3 528.57,-128.8 538.57,-132.3 538.57,-125.3"/>
</g>
<!-- LabelsAutocomplete -->
<g id="node3" class="node">
<title>LabelsAutocomplete</title>
<polygon fill="#ffffb3" stroke="black" points="675.13,-84.8 542.87,-84.8 542.87,-48.8 675.13,-48.8 675.13,-84.8"/>
<text text-anchor="middle" x="609" y="-62.6" font-family="Times,serif" font-size="14.00">LabelsAutocomplete</text>
</g>
<!-- LabelsAutocomplete&#45;&gt;LabelsModule -->
<g id="edge3" class="edge">
<title>LabelsAutocomplete&#45;&gt;LabelsModule</title>
<path fill="none" stroke="black" d="M554.05,-84.81C554.05,-100.85 554.05,-121.8 554.05,-121.8 554.05,-121.8 538.56,-121.8 538.56,-121.8"/>
<polygon fill="black" stroke="black" points="538.56,-118.3 528.56,-121.8 538.56,-125.3 538.56,-118.3"/>
</g>
<!-- ResultLabels -->
<g id="node4" class="node">
<title>ResultLabels</title>
<polygon fill="#ffffb3" stroke="black" points="524.59,-84.8 435.41,-84.8 435.41,-48.8 524.59,-48.8 524.59,-84.8"/>
<text text-anchor="middle" x="480" y="-62.6" font-family="Times,serif" font-size="14.00">ResultLabels</text>
</g>
<!-- ResultLabels&#45;&gt;LabelsModule -->
<g id="edge4" class="edge">
<title>ResultLabels&#45;&gt;LabelsModule</title>
<path fill="none" stroke="black" d="M480,-84.91C480,-84.91 480,-103.79 480,-103.79"/>
<polygon fill="black" stroke="black" points="476.5,-103.79 480,-113.79 483.5,-103.79 476.5,-103.79"/>
</g>
<!-- LabelPipe  -->
<g id="node9" class="node">
<title>LabelPipe </title>
<polygon fill="#fb8072" stroke="black" points="660.26,-214.8 583.74,-214.8 583.74,-178.8 660.26,-178.8 660.26,-214.8"/>
<text text-anchor="middle" x="622" y="-192.6" font-family="Times,serif" font-size="14.00">LabelPipe </text>
</g>
<!-- LabelsModule&#45;&gt;LabelPipe  -->
<g id="edge8" class="edge">
<title>LabelsModule&#45;&gt;LabelPipe </title>
<path fill="none" stroke="black" stroke-dasharray="5,2" d="M528.47,-142.8C569.61,-142.8 622,-142.8 622,-142.8 622,-142.8 622,-168.52 622,-168.52"/>
<polygon fill="black" stroke="black" points="618.5,-168.52 622,-178.52 625.5,-168.52 618.5,-168.52"/>
</g>
<!-- Labels  -->
<g id="node10" class="node">
<title>Labels </title>
<polygon fill="#fb8072" stroke="black" points="565.32,-214.8 508.68,-214.8 508.68,-178.8 565.32,-178.8 565.32,-214.8"/>
<text text-anchor="middle" x="537" y="-192.6" font-family="Times,serif" font-size="14.00">Labels </text>
</g>
<!-- LabelsModule&#45;&gt;Labels  -->
<g id="edge9" class="edge">
<title>LabelsModule&#45;&gt;Labels </title>
<path fill="none" stroke="black" stroke-dasharray="5,2" d="M518.51,-149.91C518.51,-149.91 518.51,-168.79 518.51,-168.79"/>
<polygon fill="black" stroke="black" points="515.01,-168.79 518.51,-178.79 522.01,-168.79 515.01,-168.79"/>
</g>
<!-- LabelsAutocomplete  -->
<g id="node11" class="node">
<title>LabelsAutocomplete </title>
<polygon fill="#fb8072" stroke="black" points="491.13,-214.8 354.87,-214.8 354.87,-178.8 491.13,-178.8 491.13,-214.8"/>
<text text-anchor="middle" x="423" y="-192.6" font-family="Times,serif" font-size="14.00">LabelsAutocomplete </text>
</g>
<!-- LabelsModule&#45;&gt;LabelsAutocomplete  -->
<g id="edge10" class="edge">
<title>LabelsModule&#45;&gt;LabelsAutocomplete </title>
<path fill="none" stroke="black" stroke-dasharray="5,2" d="M461.32,-149.91C461.32,-149.91 461.32,-168.79 461.32,-168.79"/>
<polygon fill="black" stroke="black" points="457.82,-168.79 461.32,-178.79 464.82,-168.79 457.82,-168.79"/>
</g>
<!-- ResultLabels  -->
<g id="node12" class="node">
<title>ResultLabels </title>
<polygon fill="#fb8072" stroke="black" points="337.09,-214.8 244.91,-214.8 244.91,-178.8 337.09,-178.8 337.09,-214.8"/>
<text text-anchor="middle" x="291" y="-192.6" font-family="Times,serif" font-size="14.00">ResultLabels </text>
</g>
<!-- LabelsModule&#45;&gt;ResultLabels  -->
<g id="edge11" class="edge">
<title>LabelsModule&#45;&gt;ResultLabels </title>
<path fill="none" stroke="black" stroke-dasharray="5,2" d="M431.5,-142.8C377.36,-142.8 297.24,-142.8 297.24,-142.8 297.24,-142.8 297.24,-168.52 297.24,-168.52"/>
<polygon fill="black" stroke="black" points="293.74,-168.52 297.24,-178.52 300.74,-168.52 293.74,-168.52"/>
</g>
<!-- BsAutocompleteModule -->
<g id="node6" class="node">
<title>BsAutocompleteModule</title>
<polygon fill="#8dd3c7" stroke="black" points="410.64,-84.8 407.64,-88.8 386.64,-88.8 383.64,-84.8 257.36,-84.8 257.36,-48.8 410.64,-48.8 410.64,-84.8"/>
<text text-anchor="middle" x="334" y="-62.6" font-family="Times,serif" font-size="14.00">BsAutocompleteModule</text>
</g>
<!-- BsAutocompleteModule&#45;&gt;LabelsModule -->
<g id="edge5" class="edge">
<title>BsAutocompleteModule&#45;&gt;LabelsModule</title>
<path fill="none" stroke="black" d="M382.88,-84.81C382.88,-100.85 382.88,-121.8 382.88,-121.8 382.88,-121.8 421.44,-121.8 421.44,-121.8"/>
<polygon fill="black" stroke="black" points="421.44,-125.3 431.44,-121.8 421.44,-118.3 421.44,-125.3"/>
</g>
<!-- BsModalModule -->
<g id="node7" class="node">
<title>BsModalModule</title>
<polygon fill="#8dd3c7" stroke="black" points="239.38,-84.8 236.38,-88.8 215.38,-88.8 212.38,-84.8 128.62,-84.8 128.62,-48.8 239.38,-48.8 239.38,-84.8"/>
<text text-anchor="middle" x="184" y="-62.6" font-family="Times,serif" font-size="14.00">BsModalModule</text>
</g>
<!-- BsModalModule&#45;&gt;LabelsModule -->
<g id="edge6" class="edge">
<title>BsModalModule&#45;&gt;LabelsModule</title>
<path fill="none" stroke="black" d="M184,-85.07C184,-103.36 184,-128.8 184,-128.8 184,-128.8 421.45,-128.8 421.45,-128.8"/>
<polygon fill="black" stroke="black" points="421.45,-132.3 431.45,-128.8 421.45,-125.3 421.45,-132.3"/>
</g>
<!-- UtilsModule -->
<g id="node8" class="node">
<title>UtilsModule</title>
<polygon fill="#8dd3c7" stroke="black" points="110.27,-84.8 107.27,-88.8 86.27,-88.8 83.27,-84.8 23.73,-84.8 23.73,-48.8 110.27,-48.8 110.27,-84.8"/>
<text text-anchor="middle" x="67" y="-62.6" font-family="Times,serif" font-size="14.00">UtilsModule</text>
</g>
<!-- UtilsModule&#45;&gt;LabelsModule -->
<g id="edge7" class="edge">
<title>UtilsModule&#45;&gt;LabelsModule</title>
<path fill="none" stroke="black" d="M67,-84.93C67,-105.37 67,-135.8 67,-135.8 67,-135.8 421.41,-135.8 421.41,-135.8"/>
<polygon fill="black" stroke="black" points="421.41,-139.3 431.41,-135.8 421.41,-132.3 421.41,-139.3"/>
</g>
</g>
</svg>
