<?xml version="1.0" encoding="UTF-8" standalone="no"?>
<!DOCTYPE svg PUBLIC "-//W3C//DTD SVG 1.1//EN"
 "http://www.w3.org/Graphics/SVG/1.1/DTD/svg11.dtd">
<!-- Generated by graphviz version 2.47.3 (20210619.1520)
 -->
<!-- Title: dependencies Pages: 1 -->
<svg width="869pt" height="247pt"
 viewBox="0.00 0.00 869.00 246.80" xmlns="http://www.w3.org/2000/svg" xmlns:xlink="http://www.w3.org/1999/xlink">
<g id="graph0" class="graph" transform="scale(1 1) rotate(0) translate(4 242.8)">
<title>dependencies</title>
<polygon fill="white" stroke="transparent" points="-4,4 -4,-242.8 865,-242.8 865,4 -4,4"/>
<text text-anchor="middle" x="430.5" y="-8.2" font-family="sans-serif" font-size="14.00">dependencies</text>
<g id="clust1" class="cluster">
<title>cluster_LabelsModule</title>
<polygon fill="none" stroke="black" stroke-dasharray="1,5" points="8,-32.8 8,-230.8 853,-230.8 853,-32.8 8,-32.8"/>
</g>
<g id="clust8" class="cluster">
<title>cluster_LabelsModule_exports</title>
<polygon fill="none" stroke="black" points="147,-170.8 147,-222.8 578,-222.8 578,-170.8 147,-170.8"/>
</g>
<g id="clust7" class="cluster">
<title>cluster_LabelsModule_imports</title>
<polygon fill="none" stroke="black" points="442,-40.8 442,-92.8 845,-92.8 845,-40.8 442,-40.8"/>
</g>
<g id="clust2" class="cluster">
<title>cluster_LabelsModule_declarations</title>
<polygon fill="none" stroke="black" points="16,-40.8 16,-92.8 434,-92.8 434,-40.8 16,-40.8"/>
</g>
<!-- LabelPipe -->
<g id="node1" class="node">
<title>LabelPipe</title>
<polygon fill="#ffffb3" stroke="black" points="426.26,-84.8 353.74,-84.8 353.74,-48.8 426.26,-48.8 426.26,-84.8"/>
<text text-anchor="middle" x="390" y="-62.6" font-family="Times,serif" font-size="14.00">LabelPipe</text>
</g>
<!-- LabelsModule -->
<g id="node5" class="node">
<title>LabelsModule</title>
<polygon fill="#8dd3c7" stroke="black" points="438.37,-149.8 435.37,-153.8 414.37,-153.8 411.37,-149.8 341.63,-149.8 341.63,-113.8 438.37,-113.8 438.37,-149.8"/>
<text text-anchor="middle" x="390" y="-127.6" font-family="Times,serif" font-size="14.00">LabelsModule</text>
</g>
<!-- LabelPipe&#45;&gt;LabelsModule -->
<g id="edge1" class="edge">
<title>LabelPipe&#45;&gt;LabelsModule</title>
<path fill="none" stroke="black" d="M390,-84.91C390,-84.91 390,-103.79 390,-103.79"/>
<polygon fill="black" stroke="black" points="386.5,-103.79 390,-113.79 393.5,-103.79 386.5,-103.79"/>
</g>
<!-- Labels -->
<g id="node2" class="node">
<title>Labels</title>
<polygon fill="#ffffb3" stroke="black" points="336,-84.8 282,-84.8 282,-48.8 336,-48.8 336,-84.8"/>
<text text-anchor="middle" x="309" y="-62.6" font-family="Times,serif" font-size="14.00">Labels</text>
</g>
<!-- Labels&#45;&gt;LabelsModule -->
<g id="edge2" class="edge">
<title>Labels&#45;&gt;LabelsModule</title>
<path fill="none" stroke="black" d="M336.22,-66.8C342.61,-66.8 347.59,-66.8 347.59,-66.8 347.59,-66.8 347.59,-103.69 347.59,-103.69"/>
<polygon fill="black" stroke="black" points="344.09,-103.69 347.59,-113.69 351.09,-103.69 344.09,-103.69"/>
</g>
<!-- LabelsAutocomplete -->
<g id="node3" class="node">
<title>LabelsAutocomplete</title>
<polygon fill="#ffffb3" stroke="black" points="264.13,-84.8 131.87,-84.8 131.87,-48.8 264.13,-48.8 264.13,-84.8"/>
<text text-anchor="middle" x="198" y="-62.6" font-family="Times,serif" font-size="14.00">LabelsAutocomplete</text>
</g>
<!-- LabelsAutocomplete&#45;&gt;LabelsModule -->
<g id="edge3" class="edge">
<title>LabelsAutocomplete&#45;&gt;LabelsModule</title>
<path fill="none" stroke="black" d="M255.81,-84.83C255.81,-101.2 255.81,-122.8 255.81,-122.8 255.81,-122.8 331.55,-122.8 331.55,-122.8"/>
<polygon fill="black" stroke="black" points="331.55,-126.3 341.55,-122.8 331.55,-119.3 331.55,-126.3"/>
</g>
<!-- ResultLabels -->
<g id="node4" class="node">
<title>ResultLabels</title>
<polygon fill="#ffffb3" stroke="black" points="113.59,-84.8 24.41,-84.8 24.41,-48.8 113.59,-48.8 113.59,-84.8"/>
<text text-anchor="middle" x="69" y="-62.6" font-family="Times,serif" font-size="14.00">ResultLabels</text>
</g>
<!-- ResultLabels&#45;&gt;LabelsModule -->
<g id="edge4" class="edge">
<title>ResultLabels&#45;&gt;LabelsModule</title>
<path fill="none" stroke="black" d="M69,-84.91C69,-104.14 69,-131.8 69,-131.8 69,-131.8 331.6,-131.8 331.6,-131.8"/>
<polygon fill="black" stroke="black" points="331.6,-135.3 341.6,-131.8 331.6,-128.3 331.6,-135.3"/>
</g>
<!-- LabelPipe  -->
<g id="node9" class="node">
<title>LabelPipe </title>
<polygon fill="#fb8072" stroke="black" points="570.26,-214.8 493.74,-214.8 493.74,-178.8 570.26,-178.8 570.26,-214.8"/>
<text text-anchor="middle" x="532" y="-192.6" font-family="Times,serif" font-size="14.00">LabelPipe </text>
</g>
<!-- LabelsModule&#45;&gt;LabelPipe  -->
<g id="edge8" class="edge">
<title>LabelsModule&#45;&gt;LabelPipe </title>
<path fill="none" stroke="black" stroke-dasharray="5,2" d="M438.38,-140.8C473.59,-140.8 515.13,-140.8 515.13,-140.8 515.13,-140.8 515.13,-168.77 515.13,-168.77"/>
<polygon fill="black" stroke="black" points="511.63,-168.77 515.13,-178.77 518.63,-168.77 511.63,-168.77"/>
</g>
<!-- Labels  -->
<g id="node10" class="node">
<title>Labels </title>
<polygon fill="#fb8072" stroke="black" points="475.32,-214.8 418.68,-214.8 418.68,-178.8 475.32,-178.8 475.32,-214.8"/>
<text text-anchor="middle" x="447" y="-192.6" font-family="Times,serif" font-size="14.00">Labels </text>
</g>
<!-- LabelsModule&#45;&gt;Labels  -->
<g id="edge9" class="edge">
<title>LabelsModule&#45;&gt;Labels </title>
<path fill="none" stroke="black" stroke-dasharray="5,2" d="M428.51,-149.91C428.51,-149.91 428.51,-168.79 428.51,-168.79"/>
<polygon fill="black" stroke="black" points="425.01,-168.79 428.51,-178.79 432.01,-168.79 425.01,-168.79"/>
</g>
<!-- LabelsAutocomplete  -->
<g id="node11" class="node">
<title>LabelsAutocomplete </title>
<polygon fill="#fb8072" stroke="black" points="401.13,-214.8 264.87,-214.8 264.87,-178.8 401.13,-178.8 401.13,-214.8"/>
<text text-anchor="middle" x="333" y="-192.6" font-family="Times,serif" font-size="14.00">LabelsAutocomplete </text>
</g>
<!-- LabelsModule&#45;&gt;LabelsAutocomplete  -->
<g id="edge10" class="edge">
<title>LabelsModule&#45;&gt;LabelsAutocomplete </title>
<path fill="none" stroke="black" stroke-dasharray="5,2" d="M371.32,-149.91C371.32,-149.91 371.32,-168.79 371.32,-168.79"/>
<polygon fill="black" stroke="black" points="367.82,-168.79 371.32,-178.79 374.82,-168.79 367.82,-168.79"/>
</g>
<!-- ResultLabels  -->
<g id="node12" class="node">
<title>ResultLabels </title>
<polygon fill="#fb8072" stroke="black" points="247.09,-214.8 154.91,-214.8 154.91,-178.8 247.09,-178.8 247.09,-214.8"/>
<text text-anchor="middle" x="201" y="-192.6" font-family="Times,serif" font-size="14.00">ResultLabels </text>
</g>
<!-- LabelsModule&#45;&gt;ResultLabels  -->
<g id="edge11" class="edge">
<title>LabelsModule&#45;&gt;ResultLabels </title>
<path fill="none" stroke="black" stroke-dasharray="5,2" d="M341.33,-140.8C285.33,-140.8 201,-140.8 201,-140.8 201,-140.8 201,-168.77 201,-168.77"/>
<polygon fill="black" stroke="black" points="197.5,-168.77 201,-178.77 204.5,-168.77 197.5,-168.77"/>
</g>
<!-- BsAutocompleteModule -->
<g id="node6" class="node">
<title>BsAutocompleteModule</title>
<polygon fill="#8dd3c7" stroke="black" points="836.64,-84.8 833.64,-88.8 812.64,-88.8 809.64,-84.8 683.36,-84.8 683.36,-48.8 836.64,-48.8 836.64,-84.8"/>
<text text-anchor="middle" x="760" y="-62.6" font-family="Times,serif" font-size="14.00">BsAutocompleteModule</text>
</g>
<!-- BsAutocompleteModule&#45;&gt;LabelsModule -->
<g id="edge5" class="edge">
<title>BsAutocompleteModule&#45;&gt;LabelsModule</title>
<path fill="none" stroke="black" d="M760,-84.91C760,-104.14 760,-131.8 760,-131.8 760,-131.8 448.37,-131.8 448.37,-131.8"/>
<polygon fill="black" stroke="black" points="448.37,-128.3 438.37,-131.8 448.37,-135.3 448.37,-128.3"/>
</g>
<!-- BsModalModule -->
<g id="node7" class="node">
<title>BsModalModule</title>
<polygon fill="#8dd3c7" stroke="black" points="665.38,-84.8 662.38,-88.8 641.38,-88.8 638.38,-84.8 554.62,-84.8 554.62,-48.8 665.38,-48.8 665.38,-84.8"/>
<text text-anchor="middle" x="610" y="-62.6" font-family="Times,serif" font-size="14.00">BsModalModule</text>
</g>
<!-- BsModalModule&#45;&gt;LabelsModule -->
<g id="edge6" class="edge">
<title>BsModalModule&#45;&gt;LabelsModule</title>
<path fill="none" stroke="black" d="M562.34,-84.83C562.34,-101.2 562.34,-122.8 562.34,-122.8 562.34,-122.8 448.47,-122.8 448.47,-122.8"/>
<polygon fill="black" stroke="black" points="448.47,-119.3 438.47,-122.8 448.47,-126.3 448.47,-119.3"/>
</g>
<!-- UtilsModule -->
<g id="node8" class="node">
<title>UtilsModule</title>
<polygon fill="#8dd3c7" stroke="black" points="536.27,-84.8 533.27,-88.8 512.27,-88.8 509.27,-84.8 449.73,-84.8 449.73,-48.8 536.27,-48.8 536.27,-84.8"/>
<text text-anchor="middle" x="493" y="-62.6" font-family="Times,serif" font-size="14.00">UtilsModule</text>
</g>
<!-- UtilsModule&#45;&gt;LabelsModule -->
<g id="edge7" class="edge">
<title>UtilsModule&#45;&gt;LabelsModule</title>
<path fill="none" stroke="black" d="M449.61,-66.8C439.9,-66.8 432.41,-66.8 432.41,-66.8 432.41,-66.8 432.41,-103.69 432.41,-103.69"/>
<polygon fill="black" stroke="black" points="428.91,-103.69 432.41,-113.69 435.91,-103.69 428.91,-103.69"/>
</g>
</g>
</svg>
