<?xml version="1.0" encoding="UTF-8" standalone="no"?>
<!DOCTYPE svg PUBLIC "-//W3C//DTD SVG 1.1//EN"
 "http://www.w3.org/Graphics/SVG/1.1/DTD/svg11.dtd">
<!-- Generated by graphviz version 2.47.3 (20210619.1520)
 -->
<!-- Title: dependencies Pages: 1 -->
<svg width="239pt" height="174pt"
 viewBox="0.00 0.00 239.00 173.80" xmlns="http://www.w3.org/2000/svg" xmlns:xlink="http://www.w3.org/1999/xlink">
<g id="graph0" class="graph" transform="scale(1 1) rotate(0) translate(4 169.8)">
<title>dependencies</title>
<polygon fill="white" stroke="transparent" points="-4,4 -4,-169.8 235,-169.8 235,4 -4,4"/>
<text text-anchor="middle" x="115.5" y="-8.2" font-family="sans-serif" font-size="14.00">dependencies</text>
<g id="clust1" class="cluster">
<title>cluster_WebServicesModule</title>
<polygon fill="none" stroke="black" stroke-dasharray="1,5" points="8,-32.8 8,-157.8 223,-157.8 223,-32.8 8,-32.8"/>
</g>
<g id="clust3" class="cluster">
<title>cluster_WebServicesModule_imports</title>
<polygon fill="none" stroke="black" points="16,-40.8 16,-92.8 215,-92.8 215,-40.8 16,-40.8"/>
</g>
<!-- BaseModule -->
<g id="node1" class="node">
<title>BaseModule</title>
<polygon fill="#8dd3c7" stroke="black" points="207.26,-84.8 204.26,-88.8 183.26,-88.8 180.26,-84.8 120.74,-84.8 120.74,-48.8 207.26,-48.8 207.26,-84.8"/>
<text text-anchor="middle" x="164" y="-62.6" font-family="Times,serif" font-size="14.00">BaseModule</text>
</g>
<!-- WebServicesModule -->
<g id="node3" class="node">
<title>WebServicesModule</title>
<polygon fill="#8dd3c7" stroke="black" points="181.9,-149.8 178.9,-153.8 157.9,-153.8 154.9,-149.8 48.1,-149.8 48.1,-113.8 181.9,-113.8 181.9,-149.8"/>
<text text-anchor="middle" x="115" y="-127.6" font-family="Times,serif" font-size="14.00">WebServicesModule</text>
</g>
<!-- BaseModule&#45;&gt;WebServicesModule -->
<g id="edge1" class="edge">
<title>BaseModule&#45;&gt;WebServicesModule</title>
<path fill="none" stroke="black" d="M151.16,-84.91C151.16,-84.91 151.16,-103.79 151.16,-103.79"/>
<polygon fill="black" stroke="black" points="147.66,-103.79 151.16,-113.79 154.66,-103.79 147.66,-103.79"/>
</g>
<!-- IntlModule -->
<g id="node2" class="node">
<title>IntlModule</title>
<polygon fill="#8dd3c7" stroke="black" points="102.49,-84.8 99.49,-88.8 78.49,-88.8 75.49,-84.8 23.51,-84.8 23.51,-48.8 102.49,-48.8 102.49,-84.8"/>
<text text-anchor="middle" x="63" y="-62.6" font-family="Times,serif" font-size="14.00">IntlModule</text>
</g>
<!-- IntlModule&#45;&gt;WebServicesModule -->
<g id="edge2" class="edge">
<title>IntlModule&#45;&gt;WebServicesModule</title>
<path fill="none" stroke="black" d="M75.4,-84.91C75.4,-84.91 75.4,-103.79 75.4,-103.79"/>
<polygon fill="black" stroke="black" points="71.9,-103.79 75.4,-113.79 78.9,-103.79 71.9,-103.79"/>
</g>
</g>
</svg>
