<?xml version="1.0" encoding="UTF-8" standalone="no"?>
<!DOCTYPE svg PUBLIC "-//W3C//DTD SVG 1.1//EN"
 "http://www.w3.org/Graphics/SVG/1.1/DTD/svg11.dtd">
<!-- Generated by graphviz version 2.47.3 (20210619.1520)
 -->
<!-- Title: dependencies Pages: 1 -->
<svg width="689pt" height="247pt"
 viewBox="0.00 0.00 689.00 246.80" xmlns="http://www.w3.org/2000/svg" xmlns:xlink="http://www.w3.org/1999/xlink">
<g id="graph0" class="graph" transform="scale(1 1) rotate(0) translate(4 242.8)">
<title>dependencies</title>
<polygon fill="white" stroke="transparent" points="-4,4 -4,-242.8 685,-242.8 685,4 -4,4"/>
<text text-anchor="middle" x="340.5" y="-8.2" font-family="sans-serif" font-size="14.00">dependencies</text>
<g id="clust1" class="cluster">
<title>cluster_CommentsModule</title>
<polygon fill="none" stroke="black" stroke-dasharray="1,5" points="8,-32.8 8,-230.8 673,-230.8 673,-32.8 8,-32.8"/>
</g>
<g id="clust6" class="cluster">
<title>cluster_CommentsModule_imports</title>
<polygon fill="none" stroke="black" points="436,-40.8 436,-92.8 665,-92.8 665,-40.8 436,-40.8"/>
</g>
<g id="clust7" class="cluster">
<title>cluster_CommentsModule_exports</title>
<polygon fill="none" stroke="black" points="216,-170.8 216,-222.8 502,-222.8 502,-170.8 216,-170.8"/>
</g>
<g id="clust2" class="cluster">
<title>cluster_CommentsModule_declarations</title>
<polygon fill="none" stroke="black" points="16,-40.8 16,-92.8 428,-92.8 428,-40.8 16,-40.8"/>
</g>
<!-- CommentsComponent -->
<g id="node1" class="node">
<title>CommentsComponent</title>
<polygon fill="#ffffb3" stroke="black" points="420,-84.8 278,-84.8 278,-48.8 420,-48.8 420,-84.8"/>
<text text-anchor="middle" x="349" y="-62.6" font-family="Times,serif" font-size="14.00">CommentsComponent</text>
</g>
<!-- CommentsModule -->
<g id="node4" class="node">
<title>CommentsModule</title>
<polygon fill="#8dd3c7" stroke="black" points="409.22,-149.8 406.22,-153.8 385.22,-153.8 382.22,-149.8 288.78,-149.8 288.78,-113.8 409.22,-113.8 409.22,-149.8"/>
<text text-anchor="middle" x="349" y="-127.6" font-family="Times,serif" font-size="14.00">CommentsModule</text>
</g>
<!-- CommentsComponent&#45;&gt;CommentsModule -->
<g id="edge1" class="edge">
<title>CommentsComponent&#45;&gt;CommentsModule</title>
<path fill="none" stroke="black" d="M349,-84.91C349,-84.91 349,-103.79 349,-103.79"/>
<polygon fill="black" stroke="black" points="345.5,-103.79 349,-113.79 352.5,-103.79 345.5,-103.79"/>
</g>
<!-- CreationDatePipe -->
<g id="node2" class="node">
<title>CreationDatePipe</title>
<polygon fill="#ffffb3" stroke="black" points="259.52,-84.8 144.48,-84.8 144.48,-48.8 259.52,-48.8 259.52,-84.8"/>
<text text-anchor="middle" x="202" y="-62.6" font-family="Times,serif" font-size="14.00">CreationDatePipe</text>
</g>
<!-- CreationDatePipe&#45;&gt;CommentsModule -->
<g id="edge2" class="edge">
<title>CreationDatePipe&#45;&gt;CommentsModule</title>
<path fill="none" stroke="black" d="M241.93,-84.82C241.93,-102.17 241.93,-125.8 241.93,-125.8 241.93,-125.8 278.89,-125.8 278.89,-125.8"/>
<polygon fill="black" stroke="black" points="278.89,-129.3 288.89,-125.8 278.89,-122.3 278.89,-129.3"/>
</g>
<!-- MarkdownPipe -->
<g id="node3" class="node">
<title>MarkdownPipe</title>
<polygon fill="#ffffb3" stroke="black" points="126.31,-84.8 23.69,-84.8 23.69,-48.8 126.31,-48.8 126.31,-84.8"/>
<text text-anchor="middle" x="75" y="-62.6" font-family="Times,serif" font-size="14.00">MarkdownPipe</text>
</g>
<!-- MarkdownPipe&#45;&gt;CommentsModule -->
<g id="edge3" class="edge">
<title>MarkdownPipe&#45;&gt;CommentsModule</title>
<path fill="none" stroke="black" d="M75,-85.08C75,-106.12 75,-137.8 75,-137.8 75,-137.8 278.87,-137.8 278.87,-137.8"/>
<polygon fill="black" stroke="black" points="278.87,-141.3 288.87,-137.8 278.87,-134.3 278.87,-141.3"/>
</g>
<!-- CommentsComponent  -->
<g id="node7" class="node">
<title>CommentsComponent </title>
<polygon fill="#fb8072" stroke="black" points="493.5,-214.8 348.5,-214.8 348.5,-178.8 493.5,-178.8 493.5,-214.8"/>
<text text-anchor="middle" x="421" y="-192.6" font-family="Times,serif" font-size="14.00">CommentsComponent </text>
</g>
<!-- CommentsModule&#45;&gt;CommentsComponent  -->
<g id="edge6" class="edge">
<title>CommentsModule&#45;&gt;CommentsComponent </title>
<path fill="none" stroke="black" stroke-dasharray="5,2" d="M378.68,-149.91C378.68,-149.91 378.68,-168.79 378.68,-168.79"/>
<polygon fill="black" stroke="black" points="375.18,-168.79 378.68,-178.79 382.18,-168.79 375.18,-168.79"/>
</g>
<!-- MarkdownPipe  -->
<g id="node8" class="node">
<title>MarkdownPipe </title>
<polygon fill="#fb8072" stroke="black" points="329.81,-214.8 224.19,-214.8 224.19,-178.8 329.81,-178.8 329.81,-214.8"/>
<text text-anchor="middle" x="277" y="-192.6" font-family="Times,serif" font-size="14.00">MarkdownPipe </text>
</g>
<!-- CommentsModule&#45;&gt;MarkdownPipe  -->
<g id="edge7" class="edge">
<title>CommentsModule&#45;&gt;MarkdownPipe </title>
<path fill="none" stroke="black" stroke-dasharray="5,2" d="M309.4,-149.91C309.4,-149.91 309.4,-168.79 309.4,-168.79"/>
<polygon fill="black" stroke="black" points="305.9,-168.79 309.4,-178.79 312.9,-168.79 305.9,-168.79"/>
</g>
<!-- CollapseModule -->
<g id="node5" class="node">
<title>CollapseModule</title>
<polygon fill="#8dd3c7" stroke="black" points="657.04,-84.8 654.04,-88.8 633.04,-88.8 630.04,-84.8 548.96,-84.8 548.96,-48.8 657.04,-48.8 657.04,-84.8"/>
<text text-anchor="middle" x="603" y="-62.6" font-family="Times,serif" font-size="14.00">CollapseModule</text>
</g>
<!-- CollapseModule&#45;&gt;CommentsModule -->
<g id="edge4" class="edge">
<title>CollapseModule&#45;&gt;CommentsModule</title>
<path fill="none" stroke="black" d="M603,-85.08C603,-106.12 603,-137.8 603,-137.8 603,-137.8 419.19,-137.8 419.19,-137.8"/>
<polygon fill="black" stroke="black" points="419.19,-134.3 409.19,-137.8 419.19,-141.3 419.19,-134.3"/>
</g>
<!-- UtilsModule -->
<g id="node6" class="node">
<title>UtilsModule</title>
<polygon fill="#8dd3c7" stroke="black" points="530.27,-84.8 527.27,-88.8 506.27,-88.8 503.27,-84.8 443.73,-84.8 443.73,-48.8 530.27,-48.8 530.27,-84.8"/>
<text text-anchor="middle" x="487" y="-62.6" font-family="Times,serif" font-size="14.00">UtilsModule</text>
</g>
<!-- UtilsModule&#45;&gt;CommentsModule -->
<g id="edge5" class="edge">
<title>UtilsModule&#45;&gt;CommentsModule</title>
<path fill="none" stroke="black" d="M468.68,-84.82C468.68,-102.17 468.68,-125.8 468.68,-125.8 468.68,-125.8 419.19,-125.8 419.19,-125.8"/>
<polygon fill="black" stroke="black" points="419.19,-122.3 409.19,-125.8 419.19,-129.3 419.19,-122.3"/>
</g>
</g>
</svg>
