<?xml version="1.0" encoding="UTF-8" standalone="no"?>
<!DOCTYPE svg PUBLIC "-//W3C//DTD SVG 1.1//EN"
 "http://www.w3.org/Graphics/SVG/1.1/DTD/svg11.dtd">
<!-- Generated by graphviz version 2.47.3 (20210619.1520)
 -->
<!-- Title: dependencies Pages: 1 -->
<svg width="689pt" height="247pt"
 viewBox="0.00 0.00 689.00 246.80" xmlns="http://www.w3.org/2000/svg" xmlns:xlink="http://www.w3.org/1999/xlink">
<g id="graph0" class="graph" transform="scale(1 1) rotate(0) translate(4 242.8)">
<title>dependencies</title>
<polygon fill="white" stroke="transparent" points="-4,4 -4,-242.8 685,-242.8 685,4 -4,4"/>
<text text-anchor="middle" x="340.5" y="-8.2" font-family="sans-serif" font-size="14.00">dependencies</text>
<g id="clust1" class="cluster">
<title>cluster_CommentsModule</title>
<polygon fill="none" stroke="black" stroke-dasharray="1,5" points="8,-32.8 8,-230.8 673,-230.8 673,-32.8 8,-32.8"/>
</g>
<g id="clust2" class="cluster">
<title>cluster_CommentsModule_declarations</title>
<polygon fill="none" stroke="black" points="253,-40.8 253,-92.8 665,-92.8 665,-40.8 253,-40.8"/>
</g>
<g id="clust6" class="cluster">
<title>cluster_CommentsModule_imports</title>
<polygon fill="none" stroke="black" points="16,-40.8 16,-92.8 245,-92.8 245,-40.8 16,-40.8"/>
</g>
<g id="clust7" class="cluster">
<title>cluster_CommentsModule_exports</title>
<polygon fill="none" stroke="black" points="179,-170.8 179,-222.8 465,-222.8 465,-170.8 179,-170.8"/>
</g>
<!-- CommentsComponent -->
<g id="node1" class="node">
<title>CommentsComponent</title>
<polygon fill="#ffffb3" stroke="black" points="657,-84.8 515,-84.8 515,-48.8 657,-48.8 657,-84.8"/>
<text text-anchor="middle" x="586" y="-62.6" font-family="Times,serif" font-size="14.00">CommentsComponent</text>
</g>
<!-- CommentsModule -->
<g id="node4" class="node">
<title>CommentsModule</title>
<polygon fill="#8dd3c7" stroke="black" points="372.22,-149.8 369.22,-153.8 348.22,-153.8 345.22,-149.8 251.78,-149.8 251.78,-113.8 372.22,-113.8 372.22,-149.8"/>
<text text-anchor="middle" x="312" y="-127.6" font-family="Times,serif" font-size="14.00">CommentsModule</text>
</g>
<!-- CommentsComponent&#45;&gt;CommentsModule -->
<g id="edge1" class="edge">
<title>CommentsComponent&#45;&gt;CommentsModule</title>
<path fill="none" stroke="black" d="M586,-84.91C586,-104.14 586,-131.8 586,-131.8 586,-131.8 382.13,-131.8 382.13,-131.8"/>
<polygon fill="black" stroke="black" points="382.13,-128.3 372.13,-131.8 382.13,-135.3 382.13,-128.3"/>
</g>
<!-- CreationDatePipe -->
<g id="node2" class="node">
<title>CreationDatePipe</title>
<polygon fill="#ffffb3" stroke="black" points="496.52,-84.8 381.48,-84.8 381.48,-48.8 496.52,-48.8 496.52,-84.8"/>
<text text-anchor="middle" x="439" y="-62.6" font-family="Times,serif" font-size="14.00">CreationDatePipe</text>
</g>
<!-- CreationDatePipe&#45;&gt;CommentsModule -->
<g id="edge2" class="edge">
<title>CreationDatePipe&#45;&gt;CommentsModule</title>
<path fill="none" stroke="black" d="M381.39,-66.8C373.28,-66.8 367.63,-66.8 367.63,-66.8 367.63,-66.8 367.63,-103.69 367.63,-103.69"/>
<polygon fill="black" stroke="black" points="364.13,-103.69 367.63,-113.69 371.13,-103.69 364.13,-103.69"/>
</g>
<!-- MarkdownPipe -->
<g id="node3" class="node">
<title>MarkdownPipe</title>
<polygon fill="#ffffb3" stroke="black" points="363.31,-84.8 260.69,-84.8 260.69,-48.8 363.31,-48.8 363.31,-84.8"/>
<text text-anchor="middle" x="312" y="-62.6" font-family="Times,serif" font-size="14.00">MarkdownPipe</text>
</g>
<!-- MarkdownPipe&#45;&gt;CommentsModule -->
<g id="edge3" class="edge">
<title>MarkdownPipe&#45;&gt;CommentsModule</title>
<path fill="none" stroke="black" d="M312,-84.91C312,-84.91 312,-103.79 312,-103.79"/>
<polygon fill="black" stroke="black" points="308.5,-103.79 312,-113.79 315.5,-103.79 308.5,-103.79"/>
</g>
<!-- CommentsComponent  -->
<g id="node7" class="node">
<title>CommentsComponent </title>
<polygon fill="#fb8072" stroke="black" points="456.5,-214.8 311.5,-214.8 311.5,-178.8 456.5,-178.8 456.5,-214.8"/>
<text text-anchor="middle" x="384" y="-192.6" font-family="Times,serif" font-size="14.00">CommentsComponent </text>
</g>
<!-- CommentsModule&#45;&gt;CommentsComponent  -->
<g id="edge6" class="edge">
<title>CommentsModule&#45;&gt;CommentsComponent </title>
<path fill="none" stroke="black" stroke-dasharray="5,2" d="M341.68,-149.91C341.68,-149.91 341.68,-168.79 341.68,-168.79"/>
<polygon fill="black" stroke="black" points="338.18,-168.79 341.68,-178.79 345.18,-168.79 338.18,-168.79"/>
</g>
<!-- MarkdownPipe  -->
<g id="node8" class="node">
<title>MarkdownPipe </title>
<polygon fill="#fb8072" stroke="black" points="292.81,-214.8 187.19,-214.8 187.19,-178.8 292.81,-178.8 292.81,-214.8"/>
<text text-anchor="middle" x="240" y="-192.6" font-family="Times,serif" font-size="14.00">MarkdownPipe </text>
</g>
<!-- CommentsModule&#45;&gt;MarkdownPipe  -->
<g id="edge7" class="edge">
<title>CommentsModule&#45;&gt;MarkdownPipe </title>
<path fill="none" stroke="black" stroke-dasharray="5,2" d="M272.4,-149.91C272.4,-149.91 272.4,-168.79 272.4,-168.79"/>
<polygon fill="black" stroke="black" points="268.9,-168.79 272.4,-178.79 275.9,-168.79 268.9,-168.79"/>
</g>
<!-- CollapseModule -->
<g id="node5" class="node">
<title>CollapseModule</title>
<polygon fill="#8dd3c7" stroke="black" points="237.04,-84.8 234.04,-88.8 213.04,-88.8 210.04,-84.8 128.96,-84.8 128.96,-48.8 237.04,-48.8 237.04,-84.8"/>
<text text-anchor="middle" x="183" y="-62.6" font-family="Times,serif" font-size="14.00">CollapseModule</text>
</g>
<!-- CollapseModule&#45;&gt;CommentsModule -->
<g id="edge4" class="edge">
<title>CollapseModule&#45;&gt;CommentsModule</title>
<path fill="none" stroke="black" d="M237.09,-66.8C248.09,-66.8 256.37,-66.8 256.37,-66.8 256.37,-66.8 256.37,-103.69 256.37,-103.69"/>
<polygon fill="black" stroke="black" points="252.87,-103.69 256.37,-113.69 259.87,-103.69 252.87,-103.69"/>
</g>
<!-- UtilsModule -->
<g id="node6" class="node">
<title>UtilsModule</title>
<polygon fill="#8dd3c7" stroke="black" points="110.27,-84.8 107.27,-88.8 86.27,-88.8 83.27,-84.8 23.73,-84.8 23.73,-48.8 110.27,-48.8 110.27,-84.8"/>
<text text-anchor="middle" x="67" y="-62.6" font-family="Times,serif" font-size="14.00">UtilsModule</text>
</g>
<!-- UtilsModule&#45;&gt;CommentsModule -->
<g id="edge5" class="edge">
<title>UtilsModule&#45;&gt;CommentsModule</title>
<path fill="none" stroke="black" d="M67,-84.91C67,-104.14 67,-131.8 67,-131.8 67,-131.8 241.75,-131.8 241.75,-131.8"/>
<polygon fill="black" stroke="black" points="241.75,-135.3 251.75,-131.8 241.75,-128.3 241.75,-135.3"/>
</g>
</g>
</svg>
