<?xml version="1.0" encoding="UTF-8" standalone="no"?>
<!DOCTYPE svg PUBLIC "-//W3C//DTD SVG 1.1//EN"
 "http://www.w3.org/Graphics/SVG/1.1/DTD/svg11.dtd">
<!-- Generated by graphviz version 2.40.1 (20161225.0304)
 -->
<!-- Title: dependencies Pages: 1 -->
<svg width="504pt" height="284pt"
 viewBox="0.00 0.00 504.00 284.00" xmlns="http://www.w3.org/2000/svg" xmlns:xlink="http://www.w3.org/1999/xlink">
<g id="graph0" class="graph" transform="scale(1 1) rotate(0) translate(4 280)">
<title>dependencies</title>
<polygon fill="#ffffff" stroke="transparent" points="-4,4 -4,-280 500,-280 500,4 -4,4"/>
<text text-anchor="start" x="227.0091" y="-42.4" font-family="sans-serif" font-weight="bold" font-size="14.00" fill="#000000">Legend</text>
<polygon fill="#ffffb3" stroke="transparent" points="14,-10 14,-30 34,-30 34,-10 14,-10"/>
<text text-anchor="start" x="37.629" y="-15.4" font-family="sans-serif" font-size="14.00" fill="#000000"> &#160;Declarations</text>
<polygon fill="#8dd3c7" stroke="transparent" points="127,-10 127,-30 147,-30 147,-10 127,-10"/>
<text text-anchor="start" x="150.7251" y="-15.4" font-family="sans-serif" font-size="14.00" fill="#000000"> &#160;Module</text>
<polygon fill="#80b1d3" stroke="transparent" points="213,-10 213,-30 233,-30 233,-10 213,-10"/>
<text text-anchor="start" x="236.7812" y="-15.4" font-family="sans-serif" font-size="14.00" fill="#000000"> &#160;Bootstrap</text>
<polygon fill="#fdb462" stroke="transparent" points="310,-10 310,-30 330,-30 330,-10 310,-10"/>
<text text-anchor="start" x="333.6732" y="-15.4" font-family="sans-serif" font-size="14.00" fill="#000000"> &#160;Providers</text>
<polygon fill="#fb8072" stroke="transparent" points="406,-10 406,-30 426,-30 426,-10 406,-10"/>
<text text-anchor="start" x="429.7258" y="-15.4" font-family="sans-serif" font-size="14.00" fill="#000000"> &#160;Exports</text>
<g id="clust1" class="cluster">
<title>cluster_NgxChartsModule</title>
<polygon fill="none" stroke="#000000" stroke-dasharray="1,5" points="9,-70 9,-268 487,-268 487,-70 9,-70"/>
</g>
<g id="clust2" class="cluster">
<title>cluster_NgxChartsModule_declarations</title>
<polygon fill="none" stroke="#000000" points="272,-78 272,-130 479,-130 479,-78 272,-78"/>
</g>
<g id="clust5" class="cluster">
<title>cluster_NgxChartsModule_imports</title>
<polygon fill="none" stroke="#000000" points="17,-78 17,-130 264,-130 264,-78 17,-78"/>
</g>
<g id="clust6" class="cluster">
<title>cluster_NgxChartsModule_exports</title>
<polygon fill="none" stroke="#000000" points="155,-208 155,-260 369,-260 369,-208 155,-208"/>
</g>
<!-- FacetNgxChart -->
<g id="node1" class="node">
<title>FacetNgxChart</title>
<polygon fill="#ffffb3" stroke="#000000" points="470.5271,-122 369.4729,-122 369.4729,-86 470.5271,-86 470.5271,-122"/>
<text text-anchor="middle" x="420" y="-99.8" font-family="Times,serif" font-size="14.00" fill="#000000">FacetNgxChart</text>
</g>
<!-- NgxChartsModule -->
<g id="node3" class="node">
<title>NgxChartsModule</title>
<polygon fill="#8dd3c7" stroke="#000000" points="314.2036,-187 311.2036,-191 290.2036,-191 287.2036,-187 193.7964,-187 193.7964,-151 314.2036,-151 314.2036,-187"/>
<text text-anchor="middle" x="254" y="-164.8" font-family="Times,serif" font-size="14.00" fill="#000000">NgxChartsModule</text>
</g>
<!-- FacetNgxChart&#45;&gt;NgxChartsModule -->
<g id="edge1" class="edge">
<title>FacetNgxChart&#45;&gt;NgxChartsModule</title>
<path fill="none" stroke="#000000" d="M420,-122.1061C420,-141.3391 420,-169 420,-169 420,-169 324.3994,-169 324.3994,-169"/>
<polygon fill="#000000" stroke="#000000" points="324.3994,-165.5001 314.3994,-169 324.3994,-172.5001 324.3994,-165.5001"/>
</g>
<!-- NgxChart -->
<g id="node2" class="node">
<title>NgxChart</title>
<polygon fill="#ffffb3" stroke="#000000" points="351.7093,-122 280.2907,-122 280.2907,-86 351.7093,-86 351.7093,-122"/>
<text text-anchor="middle" x="316" y="-99.8" font-family="Times,serif" font-size="14.00" fill="#000000">NgxChart</text>
</g>
<!-- NgxChart&#45;&gt;NgxChartsModule -->
<g id="edge2" class="edge">
<title>NgxChart&#45;&gt;NgxChartsModule</title>
<path fill="none" stroke="#000000" d="M297.2486,-122.1061C297.2486,-122.1061 297.2486,-140.991 297.2486,-140.991"/>
<polygon fill="#000000" stroke="#000000" points="293.7487,-140.9909 297.2486,-150.991 300.7487,-140.991 293.7487,-140.9909"/>
</g>
<!-- FacetNgxChart  -->
<g id="node6" class="node">
<title>FacetNgxChart </title>
<polygon fill="#fb8072" stroke="#000000" points="360.526,-252 255.474,-252 255.474,-216 360.526,-216 360.526,-252"/>
<text text-anchor="middle" x="308" y="-229.8" font-family="Times,serif" font-size="14.00" fill="#000000">FacetNgxChart </text>
</g>
<!-- NgxChartsModule&#45;&gt;FacetNgxChart  -->
<g id="edge5" class="edge">
<title>NgxChartsModule&#45;&gt;FacetNgxChart </title>
<path fill="none" stroke="#000000" stroke-dasharray="5,2" d="M284.7944,-187.1061C284.7944,-187.1061 284.7944,-205.991 284.7944,-205.991"/>
<polygon fill="#000000" stroke="#000000" points="281.2944,-205.9909 284.7944,-215.991 288.2944,-205.991 281.2944,-205.9909"/>
</g>
<!-- NgxChart  -->
<g id="node7" class="node">
<title>NgxChart </title>
<polygon fill="#fb8072" stroke="#000000" points="237.2096,-252 162.7904,-252 162.7904,-216 237.2096,-216 237.2096,-252"/>
<text text-anchor="middle" x="200" y="-229.8" font-family="Times,serif" font-size="14.00" fill="#000000">NgxChart </text>
</g>
<!-- NgxChartsModule&#45;&gt;NgxChart  -->
<g id="edge6" class="edge">
<title>NgxChartsModule&#45;&gt;NgxChart </title>
<path fill="none" stroke="#000000" stroke-dasharray="5,2" d="M215.6264,-187.1061C215.6264,-187.1061 215.6264,-205.991 215.6264,-205.991"/>
<polygon fill="#000000" stroke="#000000" points="212.1265,-205.9909 215.6264,-215.991 219.1265,-205.991 212.1265,-205.9909"/>
</g>
<!-- BsSelectionModule -->
<g id="node4" class="node">
<title>BsSelectionModule</title>
<polygon fill="#8dd3c7" stroke="#000000" points="256.4299,-122 253.4299,-126 232.4299,-126 229.4299,-122 129.5701,-122 129.5701,-86 256.4299,-86 256.4299,-122"/>
<text text-anchor="middle" x="193" y="-99.8" font-family="Times,serif" font-size="14.00" fill="#000000">BsSelectionModule</text>
</g>
<!-- BsSelectionModule&#45;&gt;NgxChartsModule -->
<g id="edge3" class="edge">
<title>BsSelectionModule&#45;&gt;NgxChartsModule</title>
<path fill="none" stroke="#000000" d="M225.0565,-122.1061C225.0565,-122.1061 225.0565,-140.991 225.0565,-140.991"/>
<polygon fill="#000000" stroke="#000000" points="221.5565,-140.9909 225.0565,-150.991 228.5565,-140.991 221.5565,-140.9909"/>
</g>
<!-- UtilsModule -->
<g id="node5" class="node">
<title>UtilsModule</title>
<polygon fill="#8dd3c7" stroke="#000000" points="111.2731,-122 108.2731,-126 87.2731,-126 84.2731,-122 24.7269,-122 24.7269,-86 111.2731,-86 111.2731,-122"/>
<text text-anchor="middle" x="68" y="-99.8" font-family="Times,serif" font-size="14.00" fill="#000000">UtilsModule</text>
</g>
<!-- UtilsModule&#45;&gt;NgxChartsModule -->
<g id="edge4" class="edge">
<title>UtilsModule&#45;&gt;NgxChartsModule</title>
<path fill="none" stroke="#000000" d="M68,-122.1061C68,-141.3391 68,-169 68,-169 68,-169 183.868,-169 183.868,-169"/>
<polygon fill="#000000" stroke="#000000" points="183.868,-172.5001 193.868,-169 183.868,-165.5001 183.868,-172.5001"/>
</g>
</g>
</svg>
