<?xml version="1.0" encoding="UTF-8" standalone="no"?>
<!DOCTYPE svg PUBLIC "-//W3C//DTD SVG 1.1//EN"
 "http://www.w3.org/Graphics/SVG/1.1/DTD/svg11.dtd">
<!-- Generated by graphviz version 2.40.1 (20161225.0304)
 -->
<!-- Title: dependencies Pages: 1 -->
<svg width="894pt" height="284pt"
 viewBox="0.00 0.00 894.00 284.00" xmlns="http://www.w3.org/2000/svg" xmlns:xlink="http://www.w3.org/1999/xlink">
<g id="graph0" class="graph" transform="scale(1 1) rotate(0) translate(4 280)">
<title>dependencies</title>
<polygon fill="#ffffff" stroke="transparent" points="-4,4 -4,-280 890,-280 890,4 -4,4"/>
<text text-anchor="start" x="422.0091" y="-42.4" font-family="sans-serif" font-weight="bold" font-size="14.00" fill="#000000">Legend</text>
<polygon fill="#ffffb3" stroke="transparent" points="209,-10 209,-30 229,-30 229,-10 209,-10"/>
<text text-anchor="start" x="232.629" y="-15.4" font-family="sans-serif" font-size="14.00" fill="#000000"> &#160;Declarations</text>
<polygon fill="#8dd3c7" stroke="transparent" points="322,-10 322,-30 342,-30 342,-10 322,-10"/>
<text text-anchor="start" x="345.7251" y="-15.4" font-family="sans-serif" font-size="14.00" fill="#000000"> &#160;Module</text>
<polygon fill="#80b1d3" stroke="transparent" points="408,-10 408,-30 428,-30 428,-10 408,-10"/>
<text text-anchor="start" x="431.7812" y="-15.4" font-family="sans-serif" font-size="14.00" fill="#000000"> &#160;Bootstrap</text>
<polygon fill="#fdb462" stroke="transparent" points="505,-10 505,-30 525,-30 525,-10 505,-10"/>
<text text-anchor="start" x="528.6732" y="-15.4" font-family="sans-serif" font-size="14.00" fill="#000000"> &#160;Providers</text>
<polygon fill="#fb8072" stroke="transparent" points="601,-10 601,-30 621,-30 621,-10 601,-10"/>
<text text-anchor="start" x="624.7258" y="-15.4" font-family="sans-serif" font-size="14.00" fill="#000000"> &#160;Exports</text>
<g id="clust1" class="cluster">
<title>cluster_ResultsViewModule</title>
<polygon fill="none" stroke="#000000" stroke-dasharray="1,5" points="8,-70 8,-268 878,-268 878,-70 8,-70"/>
</g>
<g id="clust2" class="cluster">
<title>cluster_ResultsViewModule_declarations</title>
<polygon fill="none" stroke="#000000" points="401,-78 401,-130 870,-130 870,-78 401,-78"/>
</g>
<g id="clust6" class="cluster">
<title>cluster_ResultsViewModule_imports</title>
<polygon fill="none" stroke="#000000" points="16,-78 16,-130 393,-130 393,-78 16,-78"/>
</g>
<g id="clust7" class="cluster">
<title>cluster_ResultsViewModule_exports</title>
<polygon fill="none" stroke="#000000" points="229,-208 229,-260 564,-260 564,-208 229,-208"/>
</g>
<!-- BsResultsScatterView -->
<g id="node1" class="node">
<title>BsResultsScatterView</title>
<polygon fill="#ffffb3" stroke="#000000" points="861.6895,-122 720.3105,-122 720.3105,-86 861.6895,-86 861.6895,-122"/>
<text text-anchor="middle" x="791" y="-99.8" font-family="Times,serif" font-size="14.00" fill="#000000">BsResultsScatterView</text>
</g>
<!-- ResultsViewModule -->
<g id="node4" class="node">
<title>ResultsViewModule</title>
<polygon fill="#8dd3c7" stroke="#000000" points="464.5898,-187 461.5898,-191 440.5898,-191 437.5898,-187 333.4102,-187 333.4102,-151 464.5898,-151 464.5898,-187"/>
<text text-anchor="middle" x="399" y="-164.8" font-family="Times,serif" font-size="14.00" fill="#000000">ResultsViewModule</text>
</g>
<!-- BsResultsScatterView&#45;&gt;ResultsViewModule -->
<g id="edge1" class="edge">
<title>BsResultsScatterView&#45;&gt;ResultsViewModule</title>
<path fill="none" stroke="#000000" d="M791,-122.2843C791,-143.3211 791,-175 791,-175 791,-175 474.612,-175 474.612,-175"/>
<polygon fill="#000000" stroke="#000000" points="474.612,-171.5001 464.612,-175 474.612,-178.5001 474.612,-171.5001"/>
</g>
<!-- BsResultsTimelineView -->
<g id="node2" class="node">
<title>BsResultsTimelineView</title>
<polygon fill="#ffffb3" stroke="#000000" points="702.3655,-122 549.6345,-122 549.6345,-86 702.3655,-86 702.3655,-122"/>
<text text-anchor="middle" x="626" y="-99.8" font-family="Times,serif" font-size="14.00" fill="#000000">BsResultsTimelineView</text>
</g>
<!-- BsResultsTimelineView&#45;&gt;ResultsViewModule -->
<g id="edge2" class="edge">
<title>BsResultsTimelineView&#45;&gt;ResultsViewModule</title>
<path fill="none" stroke="#000000" d="M629.3887,-122.0225C629.3887,-139.3734 629.3887,-163 629.3887,-163 629.3887,-163 474.7118,-163 474.7118,-163"/>
<polygon fill="#000000" stroke="#000000" points="474.7119,-159.5001 464.7118,-163 474.7118,-166.5001 474.7119,-159.5001"/>
</g>
<!-- BsTimelineTooltip -->
<g id="node3" class="node">
<title>BsTimelineTooltip</title>
<polygon fill="#ffffb3" stroke="#000000" points="531.0506,-122 408.9494,-122 408.9494,-86 531.0506,-86 531.0506,-122"/>
<text text-anchor="middle" x="470" y="-99.8" font-family="Times,serif" font-size="14.00" fill="#000000">BsTimelineTooltip</text>
</g>
<!-- BsTimelineTooltip&#45;&gt;ResultsViewModule -->
<g id="edge3" class="edge">
<title>BsTimelineTooltip&#45;&gt;ResultsViewModule</title>
<path fill="none" stroke="#000000" d="M436.635,-122.1061C436.635,-122.1061 436.635,-140.991 436.635,-140.991"/>
<polygon fill="#000000" stroke="#000000" points="433.1351,-140.9909 436.635,-150.991 440.1351,-140.991 433.1351,-140.9909"/>
</g>
<!-- BsResultsScatterView  -->
<g id="node8" class="node">
<title>BsResultsScatterView </title>
<polygon fill="#fb8072" stroke="#000000" points="556.1897,-252 411.8103,-252 411.8103,-216 556.1897,-216 556.1897,-252"/>
<text text-anchor="middle" x="484" y="-229.8" font-family="Times,serif" font-size="14.00" fill="#000000">BsResultsScatterView </text>
</g>
<!-- ResultsViewModule&#45;&gt;BsResultsScatterView  -->
<g id="edge7" class="edge">
<title>ResultsViewModule&#45;&gt;BsResultsScatterView </title>
<path fill="none" stroke="#000000" stroke-dasharray="5,2" d="M438.1001,-187.1061C438.1001,-187.1061 438.1001,-205.991 438.1001,-205.991"/>
<polygon fill="#000000" stroke="#000000" points="434.6002,-205.9909 438.1001,-215.991 441.6002,-205.991 434.6002,-205.9909"/>
</g>
<!-- BsResultsTimelineView  -->
<g id="node9" class="node">
<title>BsResultsTimelineView </title>
<polygon fill="#fb8072" stroke="#000000" points="393.3658,-252 236.6342,-252 236.6342,-216 393.3658,-216 393.3658,-252"/>
<text text-anchor="middle" x="315" y="-229.8" font-family="Times,serif" font-size="14.00" fill="#000000">BsResultsTimelineView </text>
</g>
<!-- ResultsViewModule&#45;&gt;BsResultsTimelineView  -->
<g id="edge8" class="edge">
<title>ResultsViewModule&#45;&gt;BsResultsTimelineView </title>
<path fill="none" stroke="#000000" stroke-dasharray="5,2" d="M363.3189,-187.1061C363.3189,-187.1061 363.3189,-205.991 363.3189,-205.991"/>
<polygon fill="#000000" stroke="#000000" points="359.819,-205.9909 363.3189,-215.991 366.819,-205.991 359.819,-205.9909"/>
</g>
<!-- BsActionModule -->
<g id="node5" class="node">
<title>BsActionModule</title>
<polygon fill="#8dd3c7" stroke="#000000" points="385.4342,-122 382.4342,-126 361.4342,-126 358.4342,-122 272.5658,-122 272.5658,-86 385.4342,-86 385.4342,-122"/>
<text text-anchor="middle" x="329" y="-99.8" font-family="Times,serif" font-size="14.00" fill="#000000">BsActionModule</text>
</g>
<!-- BsActionModule&#45;&gt;ResultsViewModule -->
<g id="edge4" class="edge">
<title>BsActionModule&#45;&gt;ResultsViewModule</title>
<path fill="none" stroke="#000000" d="M359.3359,-122.1061C359.3359,-122.1061 359.3359,-140.991 359.3359,-140.991"/>
<polygon fill="#000000" stroke="#000000" points="355.836,-140.9909 359.3359,-150.991 362.836,-140.991 355.836,-140.9909"/>
</g>
<!-- BsSelectionModule -->
<g id="node6" class="node">
<title>BsSelectionModule</title>
<polygon fill="#8dd3c7" stroke="#000000" points="255.4299,-122 252.4299,-126 231.4299,-126 228.4299,-122 128.5701,-122 128.5701,-86 255.4299,-86 255.4299,-122"/>
<text text-anchor="middle" x="192" y="-99.8" font-family="Times,serif" font-size="14.00" fill="#000000">BsSelectionModule</text>
</g>
<!-- BsSelectionModule&#45;&gt;ResultsViewModule -->
<g id="edge5" class="edge">
<title>BsSelectionModule&#45;&gt;ResultsViewModule</title>
<path fill="none" stroke="#000000" d="M246.0159,-122.0225C246.0159,-139.3734 246.0159,-163 246.0159,-163 246.0159,-163 323.2332,-163 323.2332,-163"/>
<polygon fill="#000000" stroke="#000000" points="323.2332,-166.5001 333.2332,-163 323.2331,-159.5001 323.2332,-166.5001"/>
</g>
<!-- UtilsModule -->
<g id="node7" class="node">
<title>UtilsModule</title>
<polygon fill="#8dd3c7" stroke="#000000" points="110.2731,-122 107.2731,-126 86.2731,-126 83.2731,-122 23.7269,-122 23.7269,-86 110.2731,-86 110.2731,-122"/>
<text text-anchor="middle" x="67" y="-99.8" font-family="Times,serif" font-size="14.00" fill="#000000">UtilsModule</text>
</g>
<!-- UtilsModule&#45;&gt;ResultsViewModule -->
<g id="edge6" class="edge">
<title>UtilsModule&#45;&gt;ResultsViewModule</title>
<path fill="none" stroke="#000000" d="M67,-122.2843C67,-143.3211 67,-175 67,-175 67,-175 323.4075,-175 323.4075,-175"/>
<polygon fill="#000000" stroke="#000000" points="323.4075,-178.5001 333.4075,-175 323.4074,-171.5001 323.4075,-178.5001"/>
</g>
</g>
</svg>
