<?xml version="1.0" encoding="UTF-8" standalone="no"?>
<!DOCTYPE svg PUBLIC "-//W3C//DTD SVG 1.1//EN"
 "http://www.w3.org/Graphics/SVG/1.1/DTD/svg11.dtd">
<!-- Generated by graphviz version 2.40.1 (20161225.0304)
 -->
<!-- Title: dependencies Pages: 1 -->
<svg width="583pt" height="284pt"
 viewBox="0.00 0.00 583.00 284.00" xmlns="http://www.w3.org/2000/svg" xmlns:xlink="http://www.w3.org/1999/xlink">
<g id="graph0" class="graph" transform="scale(1 1) rotate(0) translate(4 280)">
<title>dependencies</title>
<polygon fill="#ffffff" stroke="transparent" points="-4,4 -4,-280 579,-280 579,4 -4,4"/>
<text text-anchor="start" x="266.5091" y="-42.4" font-family="sans-serif" font-weight="bold" font-size="14.00" fill="#000000">Legend</text>
<polygon fill="#ffffb3" stroke="transparent" points="53.5,-10 53.5,-30 73.5,-30 73.5,-10 53.5,-10"/>
<text text-anchor="start" x="77.129" y="-15.4" font-family="sans-serif" font-size="14.00" fill="#000000"> &#160;Declarations</text>
<polygon fill="#8dd3c7" stroke="transparent" points="166.5,-10 166.5,-30 186.5,-30 186.5,-10 166.5,-10"/>
<text text-anchor="start" x="190.2251" y="-15.4" font-family="sans-serif" font-size="14.00" fill="#000000"> &#160;Module</text>
<polygon fill="#80b1d3" stroke="transparent" points="252.5,-10 252.5,-30 272.5,-30 272.5,-10 252.5,-10"/>
<text text-anchor="start" x="276.2812" y="-15.4" font-family="sans-serif" font-size="14.00" fill="#000000"> &#160;Bootstrap</text>
<polygon fill="#fdb462" stroke="transparent" points="349.5,-10 349.5,-30 369.5,-30 369.5,-10 349.5,-10"/>
<text text-anchor="start" x="373.1732" y="-15.4" font-family="sans-serif" font-size="14.00" fill="#000000"> &#160;Providers</text>
<polygon fill="#fb8072" stroke="transparent" points="445.5,-10 445.5,-30 465.5,-30 465.5,-10 445.5,-10"/>
<text text-anchor="start" x="469.2258" y="-15.4" font-family="sans-serif" font-size="14.00" fill="#000000"> &#160;Exports</text>
<g id="clust1" class="cluster">
<title>cluster_ResultsViewModule</title>
<polygon fill="none" stroke="#000000" stroke-dasharray="1,5" points="8,-70 8,-268 567,-268 567,-70 8,-70"/>
</g>
<g id="clust2" class="cluster">
<title>cluster_ResultsViewModule_declarations</title>
<polygon fill="none" stroke="#000000" points="401,-78 401,-130 559,-130 559,-78 401,-78"/>
</g>
<g id="clust4" class="cluster">
<title>cluster_ResultsViewModule_imports</title>
<polygon fill="none" stroke="#000000" points="16,-78 16,-130 393,-130 393,-78 16,-78"/>
</g>
<g id="clust5" class="cluster">
<title>cluster_ResultsViewModule_exports</title>
<polygon fill="none" stroke="#000000" points="180,-208 180,-260 340,-260 340,-208 180,-208"/>
</g>
<!-- BsResultsScatterView -->
<g id="node1" class="node">
<title>BsResultsScatterView</title>
<polygon fill="#ffffb3" stroke="#000000" points="550.6895,-122 409.3105,-122 409.3105,-86 550.6895,-86 550.6895,-122"/>
<text text-anchor="middle" x="480" y="-99.8" font-family="Times,serif" font-size="14.00" fill="#000000">BsResultsScatterView</text>
</g>
<!-- ResultsViewModule -->
<g id="node2" class="node">
<title>ResultsViewModule</title>
<polygon fill="#8dd3c7" stroke="#000000" points="325.5898,-187 322.5898,-191 301.5898,-191 298.5898,-187 194.4102,-187 194.4102,-151 325.5898,-151 325.5898,-187"/>
<text text-anchor="middle" x="260" y="-164.8" font-family="Times,serif" font-size="14.00" fill="#000000">ResultsViewModule</text>
</g>
<!-- BsResultsScatterView&#45;&gt;ResultsViewModule -->
<g id="edge1" class="edge">
<title>BsResultsScatterView&#45;&gt;ResultsViewModule</title>
<path fill="none" stroke="#000000" d="M480,-122.1061C480,-141.3391 480,-169 480,-169 480,-169 335.7093,-169 335.7093,-169"/>
<polygon fill="#000000" stroke="#000000" points="335.7093,-165.5001 325.7093,-169 335.7092,-172.5001 335.7093,-165.5001"/>
</g>
<!-- BsResultsScatterView  -->
<g id="node6" class="node">
<title>BsResultsScatterView </title>
<polygon fill="#fb8072" stroke="#000000" points="332.1897,-252 187.8103,-252 187.8103,-216 332.1897,-216 332.1897,-252"/>
<text text-anchor="middle" x="260" y="-229.8" font-family="Times,serif" font-size="14.00" fill="#000000">BsResultsScatterView </text>
</g>
<!-- ResultsViewModule&#45;&gt;BsResultsScatterView  -->
<g id="edge5" class="edge">
<title>ResultsViewModule&#45;&gt;BsResultsScatterView </title>
<path fill="none" stroke="#000000" stroke-dasharray="5,2" d="M260,-187.1061C260,-187.1061 260,-205.991 260,-205.991"/>
<polygon fill="#000000" stroke="#000000" points="256.5001,-205.9909 260,-215.991 263.5001,-205.991 256.5001,-205.9909"/>
</g>
<!-- BsActionModule -->
<g id="node3" class="node">
<title>BsActionModule</title>
<polygon fill="#8dd3c7" stroke="#000000" points="385.4342,-122 382.4342,-126 361.4342,-126 358.4342,-122 272.5658,-122 272.5658,-86 385.4342,-86 385.4342,-122"/>
<text text-anchor="middle" x="329" y="-99.8" font-family="Times,serif" font-size="14.00" fill="#000000">BsActionModule</text>
</g>
<!-- BsActionModule&#45;&gt;ResultsViewModule -->
<g id="edge2" class="edge">
<title>BsActionModule&#45;&gt;ResultsViewModule</title>
<path fill="none" stroke="#000000" d="M299.1641,-122.1061C299.1641,-122.1061 299.1641,-140.991 299.1641,-140.991"/>
<polygon fill="#000000" stroke="#000000" points="295.6642,-140.9909 299.1641,-150.991 302.6642,-140.991 295.6642,-140.9909"/>
</g>
<!-- BsSelectionModule -->
<g id="node4" class="node">
<title>BsSelectionModule</title>
<polygon fill="#8dd3c7" stroke="#000000" points="255.4299,-122 252.4299,-126 231.4299,-126 228.4299,-122 128.5701,-122 128.5701,-86 255.4299,-86 255.4299,-122"/>
<text text-anchor="middle" x="192" y="-99.8" font-family="Times,serif" font-size="14.00" fill="#000000">BsSelectionModule</text>
</g>
<!-- BsSelectionModule&#45;&gt;ResultsViewModule -->
<g id="edge3" class="edge">
<title>BsSelectionModule&#45;&gt;ResultsViewModule</title>
<path fill="none" stroke="#000000" d="M224.8349,-122.1061C224.8349,-122.1061 224.8349,-140.991 224.8349,-140.991"/>
<polygon fill="#000000" stroke="#000000" points="221.3349,-140.9909 224.8349,-150.991 228.3349,-140.991 221.3349,-140.9909"/>
</g>
<!-- UtilsModule -->
<g id="node5" class="node">
<title>UtilsModule</title>
<polygon fill="#8dd3c7" stroke="#000000" points="110.2731,-122 107.2731,-126 86.2731,-126 83.2731,-122 23.7269,-122 23.7269,-86 110.2731,-86 110.2731,-122"/>
<text text-anchor="middle" x="67" y="-99.8" font-family="Times,serif" font-size="14.00" fill="#000000">UtilsModule</text>
</g>
<!-- UtilsModule&#45;&gt;ResultsViewModule -->
<g id="edge4" class="edge">
<title>UtilsModule&#45;&gt;ResultsViewModule</title>
<path fill="none" stroke="#000000" d="M67,-122.1061C67,-141.3391 67,-169 67,-169 67,-169 184.3897,-169 184.3897,-169"/>
<polygon fill="#000000" stroke="#000000" points="184.3897,-172.5001 194.3897,-169 184.3897,-165.5001 184.3897,-172.5001"/>
</g>
</g>
</svg>
