<?xml version="1.0" encoding="UTF-8" standalone="no"?>
<!DOCTYPE svg PUBLIC "-//W3C//DTD SVG 1.1//EN"
 "http://www.w3.org/Graphics/SVG/1.1/DTD/svg11.dtd">
<!-- Generated by graphviz version 2.47.3 (20210619.1520)
 -->
<!-- Title: dependencies Pages: 1 -->
<svg width="592pt" height="247pt"
 viewBox="0.00 0.00 592.00 246.80" xmlns="http://www.w3.org/2000/svg" xmlns:xlink="http://www.w3.org/1999/xlink">
<g id="graph0" class="graph" transform="scale(1 1) rotate(0) translate(4 242.8)">
<title>dependencies</title>
<polygon fill="white" stroke="transparent" points="-4,4 -4,-242.8 588,-242.8 588,4 -4,4"/>
<text text-anchor="middle" x="292" y="-8.2" font-family="sans-serif" font-size="14.00">dependencies</text>
<g id="clust1" class="cluster">
<title>cluster_BsSelectionModule</title>
<polygon fill="none" stroke="black" stroke-dasharray="1,5" points="8,-32.8 8,-230.8 576,-230.8 576,-32.8 8,-32.8"/>
</g>
<g id="clust2" class="cluster">
<title>cluster_BsSelectionModule_declarations</title>
<polygon fill="none" stroke="black" points="152,-40.8 152,-92.8 568,-92.8 568,-40.8 152,-40.8"/>
</g>
<g id="clust7" class="cluster">
<title>cluster_BsSelectionModule_exports</title>
<polygon fill="none" stroke="black" points="79,-170.8 79,-222.8 505,-222.8 505,-170.8 79,-170.8"/>
</g>
<g id="clust6" class="cluster">
<title>cluster_BsSelectionModule_imports</title>
<polygon fill="none" stroke="black" points="16,-40.8 16,-92.8 144,-92.8 144,-40.8 16,-40.8"/>
</g>
<!-- BsResultSelector -->
<g id="node1" class="node">
<title>BsResultSelector</title>
<polygon fill="#ffffb3" stroke="black" points="560.43,-84.8 447.57,-84.8 447.57,-48.8 560.43,-48.8 560.43,-84.8"/>
<text text-anchor="middle" x="504" y="-62.6" font-family="Times,serif" font-size="14.00">BsResultSelector</text>
</g>
<!-- BsSelectionModule -->
<g id="node4" class="node">
<title>BsSelectionModule</title>
<polygon fill="#8dd3c7" stroke="black" points="365.43,-149.8 362.43,-153.8 341.43,-153.8 338.43,-149.8 238.57,-149.8 238.57,-113.8 365.43,-113.8 365.43,-149.8"/>
<text text-anchor="middle" x="302" y="-127.6" font-family="Times,serif" font-size="14.00">BsSelectionModule</text>
</g>
<!-- BsResultSelector&#45;&gt;BsSelectionModule -->
<g id="edge1" class="edge">
<title>BsResultSelector&#45;&gt;BsSelectionModule</title>
<path fill="none" stroke="black" d="M472.38,-84.82C472.38,-102.17 472.38,-125.8 472.38,-125.8 472.38,-125.8 375.44,-125.8 375.44,-125.8"/>
<polygon fill="black" stroke="black" points="375.44,-122.3 365.44,-125.8 375.44,-129.3 375.44,-122.3"/>
</g>
<!-- BsResultsSelector -->
<g id="node2" class="node">
<title>BsResultsSelector</title>
<polygon fill="#ffffb3" stroke="black" points="429.87,-84.8 312.13,-84.8 312.13,-48.8 429.87,-48.8 429.87,-84.8"/>
<text text-anchor="middle" x="371" y="-62.6" font-family="Times,serif" font-size="14.00">BsResultsSelector</text>
</g>
<!-- BsResultsSelector&#45;&gt;BsSelectionModule -->
<g id="edge2" class="edge">
<title>BsResultsSelector&#45;&gt;BsSelectionModule</title>
<path fill="none" stroke="black" d="M338.64,-84.91C338.64,-84.91 338.64,-103.79 338.64,-103.79"/>
<polygon fill="black" stroke="black" points="335.14,-103.79 338.64,-113.79 342.14,-103.79 335.14,-103.79"/>
</g>
<!-- BsSelectionArranger -->
<g id="node3" class="node">
<title>BsSelectionArranger</title>
<polygon fill="#ffffb3" stroke="black" points="293.9,-84.8 160.1,-84.8 160.1,-48.8 293.9,-48.8 293.9,-84.8"/>
<text text-anchor="middle" x="227" y="-62.6" font-family="Times,serif" font-size="14.00">BsSelectionArranger</text>
</g>
<!-- BsSelectionArranger&#45;&gt;BsSelectionModule -->
<g id="edge3" class="edge">
<title>BsSelectionArranger&#45;&gt;BsSelectionModule</title>
<path fill="none" stroke="black" d="M266.24,-84.91C266.24,-84.91 266.24,-103.79 266.24,-103.79"/>
<polygon fill="black" stroke="black" points="262.74,-103.79 266.24,-113.79 269.74,-103.79 262.74,-103.79"/>
</g>
<!-- BsResultSelector  -->
<g id="node6" class="node">
<title>BsResultSelector </title>
<polygon fill="#fb8072" stroke="black" points="496.93,-214.8 381.07,-214.8 381.07,-178.8 496.93,-178.8 496.93,-214.8"/>
<text text-anchor="middle" x="439" y="-192.6" font-family="Times,serif" font-size="14.00">BsResultSelector </text>
</g>
<!-- BsSelectionModule&#45;&gt;BsResultSelector  -->
<g id="edge5" class="edge">
<title>BsSelectionModule&#45;&gt;BsResultSelector </title>
<path fill="none" stroke="black" stroke-dasharray="5,2" d="M365.48,-137.8C386.9,-137.8 405.49,-137.8 405.49,-137.8 405.49,-137.8 405.49,-168.78 405.49,-168.78"/>
<polygon fill="black" stroke="black" points="401.99,-168.78 405.49,-178.78 408.99,-168.78 401.99,-168.78"/>
</g>
<!-- BsResultsSelector  -->
<g id="node7" class="node">
<title>BsResultsSelector </title>
<polygon fill="#fb8072" stroke="black" points="362.87,-214.8 241.13,-214.8 241.13,-178.8 362.87,-178.8 362.87,-214.8"/>
<text text-anchor="middle" x="302" y="-192.6" font-family="Times,serif" font-size="14.00">BsResultsSelector </text>
</g>
<!-- BsSelectionModule&#45;&gt;BsResultsSelector  -->
<g id="edge6" class="edge">
<title>BsSelectionModule&#45;&gt;BsResultsSelector </title>
<path fill="none" stroke="black" stroke-dasharray="5,2" d="M302,-149.91C302,-149.91 302,-168.79 302,-168.79"/>
<polygon fill="black" stroke="black" points="298.5,-168.79 302,-178.79 305.5,-168.79 298.5,-168.79"/>
</g>
<!-- BsSelectionArranger  -->
<g id="node8" class="node">
<title>BsSelectionArranger </title>
<polygon fill="#fb8072" stroke="black" points="223.4,-214.8 86.6,-214.8 86.6,-178.8 223.4,-178.8 223.4,-214.8"/>
<text text-anchor="middle" x="155" y="-192.6" font-family="Times,serif" font-size="14.00">BsSelectionArranger </text>
</g>
<!-- BsSelectionModule&#45;&gt;BsSelectionArranger  -->
<g id="edge7" class="edge">
<title>BsSelectionModule&#45;&gt;BsSelectionArranger </title>
<path fill="none" stroke="black" stroke-dasharray="5,2" d="M238.58,-137.8C214.1,-137.8 191.88,-137.8 191.88,-137.8 191.88,-137.8 191.88,-168.78 191.88,-168.78"/>
<polygon fill="black" stroke="black" points="188.38,-168.78 191.88,-178.78 195.38,-168.78 188.38,-168.78"/>
</g>
<!-- BsActionModule -->
<g id="node5" class="node">
<title>BsActionModule</title>
<polygon fill="#8dd3c7" stroke="black" points="136.43,-84.8 133.43,-88.8 112.43,-88.8 109.43,-84.8 23.57,-84.8 23.57,-48.8 136.43,-48.8 136.43,-84.8"/>
<text text-anchor="middle" x="80" y="-62.6" font-family="Times,serif" font-size="14.00">BsActionModule</text>
</g>
<!-- BsActionModule&#45;&gt;BsSelectionModule -->
<g id="edge4" class="edge">
<title>BsActionModule&#45;&gt;BsSelectionModule</title>
<path fill="none" stroke="black" d="M111.38,-84.82C111.38,-102.17 111.38,-125.8 111.38,-125.8 111.38,-125.8 228.53,-125.8 228.53,-125.8"/>
<polygon fill="black" stroke="black" points="228.53,-129.3 238.53,-125.8 228.53,-122.3 228.53,-129.3"/>
</g>
</g>
</svg>
