<?xml version="1.0" encoding="UTF-8" standalone="no"?>
<!DOCTYPE svg PUBLIC "-//W3C//DTD SVG 1.1//EN"
 "http://www.w3.org/Graphics/SVG/1.1/DTD/svg11.dtd">
<!-- Generated by graphviz version 2.40.1 (20161225.0304)
 -->
<!-- Title: dependencies Pages: 1 -->
<svg width="504pt" height="284pt"
 viewBox="0.00 0.00 504.00 284.00" xmlns="http://www.w3.org/2000/svg" xmlns:xlink="http://www.w3.org/1999/xlink">
<g id="graph0" class="graph" transform="scale(1 1) rotate(0) translate(4 280)">
<title>dependencies</title>
<polygon fill="#ffffff" stroke="transparent" points="-4,4 -4,-280 500,-280 500,4 -4,4"/>
<text text-anchor="start" x="227.0091" y="-42.4" font-family="sans-serif" font-weight="bold" font-size="14.00" fill="#000000">Legend</text>
<polygon fill="#ffffb3" stroke="transparent" points="14,-10 14,-30 34,-30 34,-10 14,-10"/>
<text text-anchor="start" x="37.629" y="-15.4" font-family="sans-serif" font-size="14.00" fill="#000000"> &#160;Declarations</text>
<polygon fill="#8dd3c7" stroke="transparent" points="127,-10 127,-30 147,-30 147,-10 127,-10"/>
<text text-anchor="start" x="150.7251" y="-15.4" font-family="sans-serif" font-size="14.00" fill="#000000"> &#160;Module</text>
<polygon fill="#80b1d3" stroke="transparent" points="213,-10 213,-30 233,-30 233,-10 213,-10"/>
<text text-anchor="start" x="236.7812" y="-15.4" font-family="sans-serif" font-size="14.00" fill="#000000"> &#160;Bootstrap</text>
<polygon fill="#fdb462" stroke="transparent" points="310,-10 310,-30 330,-30 330,-10 310,-10"/>
<text text-anchor="start" x="333.6732" y="-15.4" font-family="sans-serif" font-size="14.00" fill="#000000"> &#160;Providers</text>
<polygon fill="#fb8072" stroke="transparent" points="406,-10 406,-30 426,-30 426,-10 406,-10"/>
<text text-anchor="start" x="429.7258" y="-15.4" font-family="sans-serif" font-size="14.00" fill="#000000"> &#160;Exports</text>
<g id="clust1" class="cluster">
<title>cluster_BsSelectionModule</title>
<polygon fill="none" stroke="#000000" stroke-dasharray="1,5" points="40,-70 40,-268 456,-268 456,-70 40,-70"/>
</g>
<g id="clust2" class="cluster">
<title>cluster_BsSelectionModule_declarations</title>
<polygon fill="none" stroke="#000000" points="184,-78 184,-130 448,-130 448,-78 184,-78"/>
</g>
<g id="clust5" class="cluster">
<title>cluster_BsSelectionModule_imports</title>
<polygon fill="none" stroke="#000000" points="48,-78 48,-130 176,-130 176,-78 48,-78"/>
</g>
<g id="clust6" class="cluster">
<title>cluster_BsSelectionModule_exports</title>
<polygon fill="none" stroke="#000000" points="112,-208 112,-260 384,-260 384,-208 112,-208"/>
</g>
<!-- BsResultSelector -->
<g id="node1" class="node">
<title>BsResultSelector</title>
<polygon fill="#ffffb3" stroke="#000000" points="440.4272,-122 327.5728,-122 327.5728,-86 440.4272,-86 440.4272,-122"/>
<text text-anchor="middle" x="384" y="-99.8" font-family="Times,serif" font-size="14.00" fill="#000000">BsResultSelector</text>
</g>
<!-- BsSelectionModule -->
<g id="node3" class="node">
<title>BsSelectionModule</title>
<polygon fill="#8dd3c7" stroke="#000000" points="314.4299,-187 311.4299,-191 290.4299,-191 287.4299,-187 187.5701,-187 187.5701,-151 314.4299,-151 314.4299,-187"/>
<text text-anchor="middle" x="251" y="-164.8" font-family="Times,serif" font-size="14.00" fill="#000000">BsSelectionModule</text>
</g>
<!-- BsResultSelector&#45;&gt;BsSelectionModule -->
<g id="edge1" class="edge">
<title>BsResultSelector&#45;&gt;BsSelectionModule</title>
<path fill="none" stroke="#000000" d="M351.875,-122.1061C351.875,-141.3391 351.875,-169 351.875,-169 351.875,-169 324.3129,-169 324.3129,-169"/>
<polygon fill="#000000" stroke="#000000" points="324.3129,-165.5001 314.3129,-169 324.3128,-172.5001 324.3129,-165.5001"/>
</g>
<!-- BsResultsSelector -->
<g id="node2" class="node">
<title>BsResultsSelector</title>
<polygon fill="#ffffb3" stroke="#000000" points="309.8711,-122 192.1289,-122 192.1289,-86 309.8711,-86 309.8711,-122"/>
<text text-anchor="middle" x="251" y="-99.8" font-family="Times,serif" font-size="14.00" fill="#000000">BsResultsSelector</text>
</g>
<!-- BsResultsSelector&#45;&gt;BsSelectionModule -->
<g id="edge2" class="edge">
<title>BsResultsSelector&#45;&gt;BsSelectionModule</title>
<path fill="none" stroke="#000000" d="M251,-122.1061C251,-122.1061 251,-140.991 251,-140.991"/>
<polygon fill="#000000" stroke="#000000" points="247.5001,-140.9909 251,-150.991 254.5001,-140.991 247.5001,-140.9909"/>
</g>
<!-- BsResultSelector  -->
<g id="node5" class="node">
<title>BsResultSelector </title>
<polygon fill="#fb8072" stroke="#000000" points="375.9264,-252 260.0736,-252 260.0736,-216 375.9264,-216 375.9264,-252"/>
<text text-anchor="middle" x="318" y="-229.8" font-family="Times,serif" font-size="14.00" fill="#000000">BsResultSelector </text>
</g>
<!-- BsSelectionModule&#45;&gt;BsResultSelector  -->
<g id="edge4" class="edge">
<title>BsSelectionModule&#45;&gt;BsResultSelector </title>
<path fill="none" stroke="#000000" stroke-dasharray="5,2" d="M287.1257,-187.1061C287.1257,-187.1061 287.1257,-205.991 287.1257,-205.991"/>
<polygon fill="#000000" stroke="#000000" points="283.6258,-205.9909 287.1257,-215.991 290.6258,-205.991 283.6258,-205.9909"/>
</g>
<!-- BsResultsSelector  -->
<g id="node6" class="node">
<title>BsResultsSelector </title>
<polygon fill="#fb8072" stroke="#000000" points="241.8716,-252 120.1284,-252 120.1284,-216 241.8716,-216 241.8716,-252"/>
<text text-anchor="middle" x="181" y="-229.8" font-family="Times,serif" font-size="14.00" fill="#000000">BsResultsSelector </text>
</g>
<!-- BsSelectionModule&#45;&gt;BsResultsSelector  -->
<g id="edge5" class="edge">
<title>BsSelectionModule&#45;&gt;BsResultsSelector </title>
<path fill="none" stroke="#000000" stroke-dasharray="5,2" d="M214.7355,-187.1061C214.7355,-187.1061 214.7355,-205.991 214.7355,-205.991"/>
<polygon fill="#000000" stroke="#000000" points="211.2355,-205.9909 214.7355,-215.991 218.2355,-205.991 211.2355,-205.9909"/>
</g>
<!-- BsActionModule -->
<g id="node4" class="node">
<title>BsActionModule</title>
<polygon fill="#8dd3c7" stroke="#000000" points="168.4342,-122 165.4342,-126 144.4342,-126 141.4342,-122 55.5658,-122 55.5658,-86 168.4342,-86 168.4342,-122"/>
<text text-anchor="middle" x="112" y="-99.8" font-family="Times,serif" font-size="14.00" fill="#000000">BsActionModule</text>
</g>
<!-- BsActionModule&#45;&gt;BsSelectionModule -->
<g id="edge3" class="edge">
<title>BsActionModule&#45;&gt;BsSelectionModule</title>
<path fill="none" stroke="#000000" d="M144.2656,-122.1061C144.2656,-141.3391 144.2656,-169 144.2656,-169 144.2656,-169 177.6786,-169 177.6786,-169"/>
<polygon fill="#000000" stroke="#000000" points="177.6786,-172.5001 187.6786,-169 177.6785,-165.5001 177.6786,-172.5001"/>
</g>
</g>
</svg>
