<?xml version="1.0" encoding="UTF-8" standalone="no"?>
<!DOCTYPE svg PUBLIC "-//W3C//DTD SVG 1.1//EN"
 "http://www.w3.org/Graphics/SVG/1.1/DTD/svg11.dtd">
<!-- Generated by graphviz version 2.47.3 (20210619.1520)
 -->
<!-- Title: dependencies Pages: 1 -->
<svg width="3890pt" height="247pt"
 viewBox="0.00 0.00 3890.00 246.80" xmlns="http://www.w3.org/2000/svg" xmlns:xlink="http://www.w3.org/1999/xlink">
<g id="graph0" class="graph" transform="scale(1 1) rotate(0) translate(4 242.8)">
<title>dependencies</title>
<polygon fill="white" stroke="transparent" points="-4,4 -4,-242.8 3886,-242.8 3886,4 -4,4"/>
<text text-anchor="middle" x="1941" y="-8.2" font-family="sans-serif" font-size="14.00">dependencies</text>
<g id="clust1" class="cluster">
<title>cluster_BsPreviewModule</title>
<polygon fill="none" stroke="black" stroke-dasharray="1,5" points="8,-32.8 8,-230.8 3874,-230.8 3874,-32.8 8,-32.8"/>
</g>
<g id="clust18" class="cluster">
<title>cluster_BsPreviewModule_imports</title>
<polygon fill="none" stroke="black" points="2758,-40.8 2758,-92.8 3866,-92.8 3866,-40.8 2758,-40.8"/>
</g>
<g id="clust2" class="cluster">
<title>cluster_BsPreviewModule_declarations</title>
<polygon fill="none" stroke="black" points="16,-40.8 16,-92.8 2750,-92.8 2750,-40.8 16,-40.8"/>
</g>
<g id="clust19" class="cluster">
<title>cluster_BsPreviewModule_exports</title>
<polygon fill="none" stroke="black" points="775,-170.8 775,-222.8 3689,-222.8 3689,-170.8 775,-170.8"/>
</g>
<!-- BsFacetPreview -->
<g id="node1" class="node">
<title>BsFacetPreview</title>
<polygon fill="#ffffb3" stroke="black" points="2742.47,-84.8 2635.53,-84.8 2635.53,-48.8 2742.47,-48.8 2742.47,-84.8"/>
<text text-anchor="middle" x="2689" y="-62.6" font-family="Times,serif" font-size="14.00">BsFacetPreview</text>
</g>
<!-- BsPreviewModule -->
<g id="node16" class="node">
<title>BsPreviewModule</title>
<polygon fill="#8dd3c7" stroke="black" points="2220.2,-149.8 2217.2,-153.8 2196.2,-153.8 2193.2,-149.8 2099.8,-149.8 2099.8,-113.8 2220.2,-113.8 2220.2,-149.8"/>
<text text-anchor="middle" x="2160" y="-127.6" font-family="Times,serif" font-size="14.00">BsPreviewModule</text>
</g>
<!-- BsFacetPreview&#45;&gt;BsPreviewModule -->
<g id="edge1" class="edge">
<title>BsFacetPreview&#45;&gt;BsPreviewModule</title>
<path fill="none" stroke="black" d="M2645.07,-84.92C2645.07,-99.58 2645.07,-117.8 2645.07,-117.8 2645.07,-117.8 2230.45,-117.8 2230.45,-117.8"/>
<polygon fill="black" stroke="black" points="2230.45,-114.3 2220.45,-117.8 2230.45,-121.3 2230.45,-114.3"/>
</g>
<!-- BsFacetPreviewComponent2 -->
<g id="node2" class="node">
<title>BsFacetPreviewComponent2</title>
<polygon fill="#ffffb3" stroke="black" points="2617.8,-84.8 2438.2,-84.8 2438.2,-48.8 2617.8,-48.8 2617.8,-84.8"/>
<text text-anchor="middle" x="2528" y="-62.6" font-family="Times,serif" font-size="14.00">BsFacetPreviewComponent2</text>
</g>
<!-- BsFacetPreviewComponent2&#45;&gt;BsPreviewModule -->
<g id="edge2" class="edge">
<title>BsFacetPreviewComponent2&#45;&gt;BsPreviewModule</title>
<path fill="none" stroke="black" d="M2467.68,-85.05C2467.68,-98.98 2467.68,-115.8 2467.68,-115.8 2467.68,-115.8 2230.42,-115.8 2230.42,-115.8"/>
<polygon fill="black" stroke="black" points="2230.42,-112.3 2220.42,-115.8 2230.42,-119.3 2230.42,-112.3"/>
</g>
<!-- BsPreviewEntityFacetComponent -->
<g id="node3" class="node">
<title>BsPreviewEntityFacetComponent</title>
<polygon fill="#ffffb3" stroke="black" points="2420.03,-84.8 2213.97,-84.8 2213.97,-48.8 2420.03,-48.8 2420.03,-84.8"/>
<text text-anchor="middle" x="2317" y="-62.6" font-family="Times,serif" font-size="14.00">BsPreviewEntityFacetComponent</text>
</g>
<!-- BsPreviewEntityFacetComponent&#45;&gt;BsPreviewModule -->
<g id="edge3" class="edge">
<title>BsPreviewEntityFacetComponent&#45;&gt;BsPreviewModule</title>
<path fill="none" stroke="black" d="M2213.89,-66.8C2208.17,-66.8 2204.7,-66.8 2204.7,-66.8 2204.7,-66.8 2204.7,-103.69 2204.7,-103.69"/>
<polygon fill="black" stroke="black" points="2201.2,-103.69 2204.7,-113.69 2208.2,-103.69 2201.2,-103.69"/>
</g>
<!-- BsPreviewEntityPanelComponent -->
<g id="node4" class="node">
<title>BsPreviewEntityPanelComponent</title>
<polygon fill="#ffffb3" stroke="black" points="2195.81,-84.8 1988.19,-84.8 1988.19,-48.8 2195.81,-48.8 2195.81,-84.8"/>
<text text-anchor="middle" x="2092" y="-62.6" font-family="Times,serif" font-size="14.00">BsPreviewEntityPanelComponent</text>
</g>
<!-- BsPreviewEntityPanelComponent&#45;&gt;BsPreviewModule -->
<g id="edge4" class="edge">
<title>BsPreviewEntityPanelComponent&#45;&gt;BsPreviewModule</title>
<path fill="none" stroke="black" d="M2147.78,-84.91C2147.78,-84.91 2147.78,-103.79 2147.78,-103.79"/>
<polygon fill="black" stroke="black" points="2144.28,-103.79 2147.78,-113.79 2151.28,-103.79 2144.28,-103.79"/>
</g>
<!-- BsPreviewExtractsPanelComponent -->
<g id="node5" class="node">
<title>BsPreviewExtractsPanelComponent</title>
<polygon fill="#ffffb3" stroke="black" points="1970.45,-84.8 1751.55,-84.8 1751.55,-48.8 1970.45,-48.8 1970.45,-84.8"/>
<text text-anchor="middle" x="1861" y="-62.6" font-family="Times,serif" font-size="14.00">BsPreviewExtractsPanelComponent</text>
</g>
<!-- BsPreviewExtractsPanelComponent&#45;&gt;BsPreviewModule -->
<g id="edge5" class="edge">
<title>BsPreviewExtractsPanelComponent&#45;&gt;BsPreviewModule</title>
<path fill="none" stroke="black" d="M1959.98,-85.05C1959.98,-98.98 1959.98,-115.8 1959.98,-115.8 1959.98,-115.8 2089.72,-115.8 2089.72,-115.8"/>
<polygon fill="black" stroke="black" points="2089.72,-119.3 2099.72,-115.8 2089.72,-112.3 2089.72,-119.3"/>
</g>
<!-- BsPreviewHighlights -->
<g id="node6" class="node">
<title>BsPreviewHighlights</title>
<polygon fill="#ffffb3" stroke="black" points="1733.76,-84.8 1598.24,-84.8 1598.24,-48.8 1733.76,-48.8 1733.76,-84.8"/>
<text text-anchor="middle" x="1666" y="-62.6" font-family="Times,serif" font-size="14.00">BsPreviewHighlights</text>
</g>
<!-- BsPreviewHighlights&#45;&gt;BsPreviewModule -->
<g id="edge6" class="edge">
<title>BsPreviewHighlights&#45;&gt;BsPreviewModule</title>
<path fill="none" stroke="black" d="M1728.13,-84.92C1728.13,-99.58 1728.13,-117.8 1728.13,-117.8 1728.13,-117.8 2089.5,-117.8 2089.5,-117.8"/>
<polygon fill="black" stroke="black" points="2089.5,-121.3 2099.5,-117.8 2089.5,-114.3 2089.5,-121.3"/>
</g>
<!-- BsPreviewLinks -->
<g id="node7" class="node">
<title>BsPreviewLinks</title>
<polygon fill="#ffffb3" stroke="black" points="1580.04,-84.8 1471.96,-84.8 1471.96,-48.8 1580.04,-48.8 1580.04,-84.8"/>
<text text-anchor="middle" x="1526" y="-62.6" font-family="Times,serif" font-size="14.00">BsPreviewLinks</text>
</g>
<!-- BsPreviewLinks&#45;&gt;BsPreviewModule -->
<g id="edge7" class="edge">
<title>BsPreviewLinks&#45;&gt;BsPreviewModule</title>
<path fill="none" stroke="black" d="M1540.55,-85.04C1540.55,-100.37 1540.55,-119.8 1540.55,-119.8 1540.55,-119.8 2089.76,-119.8 2089.76,-119.8"/>
<polygon fill="black" stroke="black" points="2089.76,-123.3 2099.76,-119.8 2089.76,-116.3 2089.76,-123.3"/>
</g>
<!-- BsPreviewMinimapComponent -->
<g id="node8" class="node">
<title>BsPreviewMinimapComponent</title>
<polygon fill="#ffffb3" stroke="black" points="1453.81,-84.8 1260.19,-84.8 1260.19,-48.8 1453.81,-48.8 1453.81,-84.8"/>
<text text-anchor="middle" x="1357" y="-62.6" font-family="Times,serif" font-size="14.00">BsPreviewMinimapComponent</text>
</g>
<!-- BsPreviewMinimapComponent&#45;&gt;BsPreviewModule -->
<g id="edge8" class="edge">
<title>BsPreviewMinimapComponent&#45;&gt;BsPreviewModule</title>
<path fill="none" stroke="black" d="M1447.3,-84.81C1447.3,-100.85 1447.3,-121.8 1447.3,-121.8 1447.3,-121.8 2089.85,-121.8 2089.85,-121.8"/>
<polygon fill="black" stroke="black" points="2089.85,-125.3 2099.85,-121.8 2089.85,-118.3 2089.85,-125.3"/>
</g>
<!-- BsPreviewPageFormComponent -->
<g id="node9" class="node">
<title>BsPreviewPageFormComponent</title>
<polygon fill="#ffffb3" stroke="black" points="1242.53,-84.8 1043.47,-84.8 1043.47,-48.8 1242.53,-48.8 1242.53,-84.8"/>
<text text-anchor="middle" x="1143" y="-62.6" font-family="Times,serif" font-size="14.00">BsPreviewPageFormComponent</text>
</g>
<!-- BsPreviewPageFormComponent&#45;&gt;BsPreviewModule -->
<g id="edge9" class="edge">
<title>BsPreviewPageFormComponent&#45;&gt;BsPreviewModule</title>
<path fill="none" stroke="black" d="M1234.91,-84.84C1234.91,-101.53 1234.91,-123.8 1234.91,-123.8 1234.91,-123.8 2089.66,-123.8 2089.66,-123.8"/>
<polygon fill="black" stroke="black" points="2089.66,-127.3 2099.66,-123.8 2089.66,-120.3 2089.66,-127.3"/>
</g>
<!-- BsPreviewPagesPanelComponent -->
<g id="node10" class="node">
<title>BsPreviewPagesPanelComponent</title>
<polygon fill="#ffffb3" stroke="black" points="1024.74,-84.8 819.26,-84.8 819.26,-48.8 1024.74,-48.8 1024.74,-84.8"/>
<text text-anchor="middle" x="922" y="-62.6" font-family="Times,serif" font-size="14.00">BsPreviewPagesPanelComponent</text>
</g>
<!-- BsPreviewPagesPanelComponent&#45;&gt;BsPreviewModule -->
<g id="edge10" class="edge">
<title>BsPreviewPagesPanelComponent&#45;&gt;BsPreviewModule</title>
<path fill="none" stroke="black" d="M967.12,-84.82C967.12,-102.17 967.12,-125.8 967.12,-125.8 967.12,-125.8 2089.62,-125.8 2089.62,-125.8"/>
<polygon fill="black" stroke="black" points="2089.62,-129.3 2099.62,-125.8 2089.62,-122.3 2089.62,-129.3"/>
</g>
<!-- BsPreviewPanel -->
<g id="node11" class="node">
<title>BsPreviewPanel</title>
<polygon fill="#ffffb3" stroke="black" points="800.75,-84.8 693.25,-84.8 693.25,-48.8 800.75,-48.8 800.75,-84.8"/>
<text text-anchor="middle" x="747" y="-62.6" font-family="Times,serif" font-size="14.00">BsPreviewPanel</text>
</g>
<!-- BsPreviewPanel&#45;&gt;BsPreviewModule -->
<g id="edge11" class="edge">
<title>BsPreviewPanel&#45;&gt;BsPreviewModule</title>
<path fill="none" stroke="black" d="M791.71,-85.1C791.71,-103.07 791.71,-127.8 791.71,-127.8 791.71,-127.8 2089.88,-127.8 2089.88,-127.8"/>
<polygon fill="black" stroke="black" points="2089.88,-131.3 2099.88,-127.8 2089.88,-124.3 2089.88,-131.3"/>
</g>
<!-- BsPreviewPopup -->
<g id="node12" class="node">
<title>BsPreviewPopup</title>
<polygon fill="#ffffb3" stroke="black" points="675.43,-84.8 562.57,-84.8 562.57,-48.8 675.43,-48.8 675.43,-84.8"/>
<text text-anchor="middle" x="619" y="-62.6" font-family="Times,serif" font-size="14.00">BsPreviewPopup</text>
</g>
<!-- BsPreviewPopup&#45;&gt;BsPreviewModule -->
<g id="edge12" class="edge">
<title>BsPreviewPopup&#45;&gt;BsPreviewModule</title>
<path fill="none" stroke="black" d="M619,-85.02C619,-103.63 619,-129.8 619,-129.8 619,-129.8 2089.59,-129.8 2089.59,-129.8"/>
<polygon fill="black" stroke="black" points="2089.59,-133.3 2099.59,-129.8 2089.59,-126.3 2089.59,-133.3"/>
</g>
<!-- BsPreviewSearchFormComponent -->
<g id="node13" class="node">
<title>BsPreviewSearchFormComponent</title>
<polygon fill="#ffffb3" stroke="black" points="545.4,-84.8 334.6,-84.8 334.6,-48.8 545.4,-48.8 545.4,-84.8"/>
<text text-anchor="middle" x="440" y="-62.6" font-family="Times,serif" font-size="14.00">BsPreviewSearchFormComponent</text>
</g>
<!-- BsPreviewSearchFormComponent&#45;&gt;BsPreviewModule -->
<g id="edge13" class="edge">
<title>BsPreviewSearchFormComponent&#45;&gt;BsPreviewModule</title>
<path fill="none" stroke="black" d="M440,-84.91C440,-104.14 440,-131.8 440,-131.8 440,-131.8 2089.79,-131.8 2089.79,-131.8"/>
<polygon fill="black" stroke="black" points="2089.79,-135.3 2099.79,-131.8 2089.79,-128.3 2089.79,-135.3"/>
</g>
<!-- BsResultLinkPreview -->
<g id="node14" class="node">
<title>BsResultLinkPreview</title>
<polygon fill="#ffffb3" stroke="black" points="316.37,-84.8 177.63,-84.8 177.63,-48.8 316.37,-48.8 316.37,-84.8"/>
<text text-anchor="middle" x="247" y="-62.6" font-family="Times,serif" font-size="14.00">BsResultLinkPreview</text>
</g>
<!-- BsResultLinkPreview&#45;&gt;BsPreviewModule -->
<g id="edge14" class="edge">
<title>BsResultLinkPreview&#45;&gt;BsPreviewModule</title>
<path fill="none" stroke="black" d="M247,-84.83C247,-104.38 247,-132.8 247,-132.8 247,-132.8 2089.85,-132.8 2089.85,-132.8"/>
<polygon fill="black" stroke="black" points="2089.85,-136.3 2099.85,-132.8 2089.85,-129.3 2089.85,-136.3"/>
</g>
<!-- BsSimilarDocuments -->
<g id="node15" class="node">
<title>BsSimilarDocuments</title>
<polygon fill="#ffffb3" stroke="black" points="159.76,-84.8 24.24,-84.8 24.24,-48.8 159.76,-48.8 159.76,-84.8"/>
<text text-anchor="middle" x="92" y="-62.6" font-family="Times,serif" font-size="14.00">BsSimilarDocuments</text>
</g>
<!-- BsSimilarDocuments&#45;&gt;BsPreviewModule -->
<g id="edge15" class="edge">
<title>BsSimilarDocuments&#45;&gt;BsPreviewModule</title>
<path fill="none" stroke="black" d="M92,-85.02C92,-105.17 92,-134.8 92,-134.8 92,-134.8 2089.79,-134.8 2089.79,-134.8"/>
<polygon fill="black" stroke="black" points="2089.79,-138.3 2099.79,-134.8 2089.78,-131.3 2089.79,-138.3"/>
</g>
<!-- BsFacetPreview  -->
<g id="node26" class="node">
<title>BsFacetPreview </title>
<polygon fill="#fb8072" stroke="black" points="3681.47,-214.8 3570.53,-214.8 3570.53,-178.8 3681.47,-178.8 3681.47,-214.8"/>
<text text-anchor="middle" x="3626" y="-192.6" font-family="Times,serif" font-size="14.00">BsFacetPreview </text>
</g>
<!-- BsPreviewModule&#45;&gt;BsFacetPreview  -->
<g id="edge25" class="edge">
<title>BsPreviewModule&#45;&gt;BsFacetPreview </title>
<path fill="none" stroke="black" stroke-dasharray="5,2" d="M2220.43,-136.8C2492.15,-136.8 3587.6,-136.8 3587.6,-136.8 3587.6,-136.8 3587.6,-168.8 3587.6,-168.8"/>
<polygon fill="black" stroke="black" points="3584.1,-168.8 3587.6,-178.8 3591.1,-168.8 3584.1,-168.8"/>
</g>
<!-- BsFacetPreviewComponent2  -->
<g id="node27" class="node">
<title>BsFacetPreviewComponent2 </title>
<polygon fill="#fb8072" stroke="black" points="3552.3,-214.8 3369.7,-214.8 3369.7,-178.8 3552.3,-178.8 3552.3,-214.8"/>
<text text-anchor="middle" x="3461" y="-192.6" font-family="Times,serif" font-size="14.00">BsFacetPreviewComponent2 </text>
</g>
<!-- BsPreviewModule&#45;&gt;BsFacetPreviewComponent2  -->
<g id="edge26" class="edge">
<title>BsPreviewModule&#45;&gt;BsFacetPreviewComponent2 </title>
<path fill="none" stroke="black" stroke-dasharray="5,2" d="M2220.46,-138.8C2469.75,-138.8 3404.8,-138.8 3404.8,-138.8 3404.8,-138.8 3404.8,-168.77 3404.8,-168.77"/>
<polygon fill="black" stroke="black" points="3401.3,-168.77 3404.8,-178.77 3408.3,-168.77 3401.3,-168.77"/>
</g>
<!-- BsPreviewEntityFacetComponent  -->
<g id="node28" class="node">
<title>BsPreviewEntityFacetComponent </title>
<polygon fill="#fb8072" stroke="black" points="3352.02,-214.8 3141.98,-214.8 3141.98,-178.8 3352.02,-178.8 3352.02,-214.8"/>
<text text-anchor="middle" x="3247" y="-192.6" font-family="Times,serif" font-size="14.00">BsPreviewEntityFacetComponent </text>
</g>
<!-- BsPreviewModule&#45;&gt;BsPreviewEntityFacetComponent  -->
<g id="edge27" class="edge">
<title>BsPreviewModule&#45;&gt;BsPreviewEntityFacetComponent </title>
<path fill="none" stroke="black" stroke-dasharray="5,2" d="M2220.4,-140.8C2439.6,-140.8 3180.4,-140.8 3180.4,-140.8 3180.4,-140.8 3180.4,-168.77 3180.4,-168.77"/>
<polygon fill="black" stroke="black" points="3176.9,-168.77 3180.4,-178.77 3183.9,-168.77 3176.9,-168.77"/>
</g>
<!-- BsPreviewEntityPanelComponent  -->
<g id="node29" class="node">
<title>BsPreviewEntityPanelComponent </title>
<polygon fill="#fb8072" stroke="black" points="3124.31,-214.8 2913.69,-214.8 2913.69,-178.8 3124.31,-178.8 3124.31,-214.8"/>
<text text-anchor="middle" x="3019" y="-192.6" font-family="Times,serif" font-size="14.00">BsPreviewEntityPanelComponent </text>
</g>
<!-- BsPreviewModule&#45;&gt;BsPreviewEntityPanelComponent  -->
<g id="edge28" class="edge">
<title>BsPreviewModule&#45;&gt;BsPreviewEntityPanelComponent </title>
<path fill="none" stroke="black" stroke-dasharray="5,2" d="M2220.2,-142.8C2403.07,-142.8 2939.63,-142.8 2939.63,-142.8 2939.63,-142.8 2939.63,-168.52 2939.63,-168.52"/>
<polygon fill="black" stroke="black" points="2936.13,-168.52 2939.63,-178.52 2943.13,-168.52 2936.13,-168.52"/>
</g>
<!-- BsPreviewExtractsPanelComponent  -->
<g id="node30" class="node">
<title>BsPreviewExtractsPanelComponent </title>
<polygon fill="#fb8072" stroke="black" points="2895.45,-214.8 2672.55,-214.8 2672.55,-178.8 2895.45,-178.8 2895.45,-214.8"/>
<text text-anchor="middle" x="2784" y="-192.6" font-family="Times,serif" font-size="14.00">BsPreviewExtractsPanelComponent </text>
</g>
<!-- BsPreviewModule&#45;&gt;BsPreviewExtractsPanelComponent  -->
<g id="edge29" class="edge">
<title>BsPreviewModule&#45;&gt;BsPreviewExtractsPanelComponent </title>
<path fill="none" stroke="black" stroke-dasharray="5,2" d="M2220.17,-144.8C2362.43,-144.8 2707.63,-144.8 2707.63,-144.8 2707.63,-144.8 2707.63,-168.61 2707.63,-168.61"/>
<polygon fill="black" stroke="black" points="2704.13,-168.61 2707.63,-178.61 2711.13,-168.61 2704.13,-168.61"/>
</g>
<!-- BsPreviewHighlights  -->
<g id="node31" class="node">
<title>BsPreviewHighlights </title>
<polygon fill="#fb8072" stroke="black" points="2654.76,-214.8 2515.24,-214.8 2515.24,-178.8 2654.76,-178.8 2654.76,-214.8"/>
<text text-anchor="middle" x="2585" y="-192.6" font-family="Times,serif" font-size="14.00">BsPreviewHighlights </text>
</g>
<!-- BsPreviewModule&#45;&gt;BsPreviewHighlights  -->
<g id="edge30" class="edge">
<title>BsPreviewModule&#45;&gt;BsPreviewHighlights </title>
<path fill="none" stroke="black" stroke-dasharray="5,2" d="M2220.42,-146.8C2333.66,-146.8 2566.51,-146.8 2566.51,-146.8 2566.51,-146.8 2566.51,-168.75 2566.51,-168.75"/>
<polygon fill="black" stroke="black" points="2563.01,-168.75 2566.51,-178.75 2570.01,-168.75 2563.01,-168.75"/>
</g>
<!-- BsPreviewLinks  -->
<g id="node32" class="node">
<title>BsPreviewLinks </title>
<polygon fill="#fb8072" stroke="black" points="2497.04,-214.8 2384.96,-214.8 2384.96,-178.8 2497.04,-178.8 2497.04,-214.8"/>
<text text-anchor="middle" x="2441" y="-192.6" font-family="Times,serif" font-size="14.00">BsPreviewLinks </text>
</g>
<!-- BsPreviewModule&#45;&gt;BsPreviewLinks  -->
<g id="edge31" class="edge">
<title>BsPreviewModule&#45;&gt;BsPreviewLinks </title>
<path fill="none" stroke="black" stroke-dasharray="5,2" d="M2220.29,-148.8C2292.14,-148.8 2402.62,-148.8 2402.62,-148.8 2402.62,-148.8 2402.62,-168.65 2402.62,-168.65"/>
<polygon fill="black" stroke="black" points="2399.12,-168.65 2402.62,-178.65 2406.12,-168.65 2399.12,-168.65"/>
</g>
<!-- BsPreviewMinimapComponent  -->
<g id="node33" class="node">
<title>BsPreviewMinimapComponent </title>
<polygon fill="#fb8072" stroke="black" points="2367.31,-214.8 2170.69,-214.8 2170.69,-178.8 2367.31,-178.8 2367.31,-214.8"/>
<text text-anchor="middle" x="2269" y="-192.6" font-family="Times,serif" font-size="14.00">BsPreviewMinimapComponent </text>
</g>
<!-- BsPreviewModule&#45;&gt;BsPreviewMinimapComponent  -->
<g id="edge32" class="edge">
<title>BsPreviewModule&#45;&gt;BsPreviewMinimapComponent </title>
<path fill="none" stroke="black" stroke-dasharray="5,2" d="M2195.35,-149.91C2195.35,-149.91 2195.35,-168.79 2195.35,-168.79"/>
<polygon fill="black" stroke="black" points="2191.85,-168.79 2195.35,-178.79 2198.85,-168.79 2191.85,-168.79"/>
</g>
<!-- BsPreviewPageFormComponent  -->
<g id="node34" class="node">
<title>BsPreviewPageFormComponent </title>
<polygon fill="#fb8072" stroke="black" points="2152.53,-214.8 1949.47,-214.8 1949.47,-178.8 2152.53,-178.8 2152.53,-214.8"/>
<text text-anchor="middle" x="2051" y="-192.6" font-family="Times,serif" font-size="14.00">BsPreviewPageFormComponent </text>
</g>
<!-- BsPreviewModule&#45;&gt;BsPreviewPageFormComponent  -->
<g id="edge33" class="edge">
<title>BsPreviewModule&#45;&gt;BsPreviewPageFormComponent </title>
<path fill="none" stroke="black" stroke-dasharray="5,2" d="M2126.21,-149.91C2126.21,-149.91 2126.21,-168.79 2126.21,-168.79"/>
<polygon fill="black" stroke="black" points="2122.71,-168.79 2126.21,-178.79 2129.71,-168.79 2122.71,-168.79"/>
</g>
<!-- BsPreviewPagesPanelComponent  -->
<g id="node35" class="node">
<title>BsPreviewPagesPanelComponent </title>
<polygon fill="#fb8072" stroke="black" points="1931.74,-214.8 1722.26,-214.8 1722.26,-178.8 1931.74,-178.8 1931.74,-214.8"/>
<text text-anchor="middle" x="1827" y="-192.6" font-family="Times,serif" font-size="14.00">BsPreviewPagesPanelComponent </text>
</g>
<!-- BsPreviewModule&#45;&gt;BsPreviewPagesPanelComponent  -->
<g id="edge34" class="edge">
<title>BsPreviewModule&#45;&gt;BsPreviewPagesPanelComponent </title>
<path fill="none" stroke="black" stroke-dasharray="5,2" d="M2099.73,-148.8C2007.42,-148.8 1841.57,-148.8 1841.57,-148.8 1841.57,-148.8 1841.57,-168.65 1841.57,-168.65"/>
<polygon fill="black" stroke="black" points="1838.07,-168.65 1841.57,-178.65 1845.07,-168.65 1838.07,-168.65"/>
</g>
<!-- BsPreviewPanel  -->
<g id="node36" class="node">
<title>BsPreviewPanel </title>
<polygon fill="#fb8072" stroke="black" points="1704.75,-214.8 1593.25,-214.8 1593.25,-178.8 1704.75,-178.8 1704.75,-214.8"/>
<text text-anchor="middle" x="1649" y="-192.6" font-family="Times,serif" font-size="14.00">BsPreviewPanel </text>
</g>
<!-- BsPreviewModule&#45;&gt;BsPreviewPanel  -->
<g id="edge35" class="edge">
<title>BsPreviewModule&#45;&gt;BsPreviewPanel </title>
<path fill="none" stroke="black" stroke-dasharray="5,2" d="M2099.66,-146.8C1964.93,-146.8 1651.37,-146.8 1651.37,-146.8 1651.37,-146.8 1651.37,-168.75 1651.37,-168.75"/>
<polygon fill="black" stroke="black" points="1647.87,-168.75 1651.37,-178.75 1654.87,-168.75 1647.87,-168.75"/>
</g>
<!-- BsPreviewPopup  -->
<g id="node37" class="node">
<title>BsPreviewPopup </title>
<polygon fill="#fb8072" stroke="black" points="1574.93,-214.8 1459.07,-214.8 1459.07,-178.8 1574.93,-178.8 1574.93,-214.8"/>
<text text-anchor="middle" x="1517" y="-192.6" font-family="Times,serif" font-size="14.00">BsPreviewPopup </text>
</g>
<!-- BsPreviewModule&#45;&gt;BsPreviewPopup  -->
<g id="edge36" class="edge">
<title>BsPreviewModule&#45;&gt;BsPreviewPopup </title>
<path fill="none" stroke="black" stroke-dasharray="5,2" d="M2099.66,-144.8C1937.79,-144.8 1506.14,-144.8 1506.14,-144.8 1506.14,-144.8 1506.14,-168.61 1506.14,-168.61"/>
<polygon fill="black" stroke="black" points="1502.64,-168.61 1506.14,-178.61 1509.64,-168.61 1502.64,-168.61"/>
</g>
<!-- BsPreviewSearchFormComponent  -->
<g id="node38" class="node">
<title>BsPreviewSearchFormComponent </title>
<polygon fill="#fb8072" stroke="black" points="1440.9,-214.8 1227.1,-214.8 1227.1,-178.8 1440.9,-178.8 1440.9,-214.8"/>
<text text-anchor="middle" x="1334" y="-192.6" font-family="Times,serif" font-size="14.00">BsPreviewSearchFormComponent </text>
</g>
<!-- BsPreviewModule&#45;&gt;BsPreviewSearchFormComponent  -->
<g id="edge37" class="edge">
<title>BsPreviewModule&#45;&gt;BsPreviewSearchFormComponent </title>
<path fill="none" stroke="black" stroke-dasharray="5,2" d="M2099.83,-142.8C1912.26,-142.8 1350.65,-142.8 1350.65,-142.8 1350.65,-142.8 1350.65,-168.52 1350.65,-168.52"/>
<polygon fill="black" stroke="black" points="1347.15,-168.52 1350.65,-178.52 1354.15,-168.52 1347.15,-168.52"/>
</g>
<!-- BsResultLinkPreview  -->
<g id="node39" class="node">
<title>BsResultLinkPreview </title>
<polygon fill="#fb8072" stroke="black" points="1209.37,-214.8 1066.63,-214.8 1066.63,-178.8 1209.37,-178.8 1209.37,-214.8"/>
<text text-anchor="middle" x="1138" y="-192.6" font-family="Times,serif" font-size="14.00">BsResultLinkPreview </text>
</g>
<!-- BsPreviewModule&#45;&gt;BsResultLinkPreview  -->
<g id="edge38" class="edge">
<title>BsPreviewModule&#45;&gt;BsResultLinkPreview </title>
<path fill="none" stroke="black" stroke-dasharray="5,2" d="M2099.88,-140.8C1880.81,-140.8 1138,-140.8 1138,-140.8 1138,-140.8 1138,-168.77 1138,-168.77"/>
<polygon fill="black" stroke="black" points="1134.5,-168.77 1138,-178.77 1141.5,-168.77 1134.5,-168.77"/>
</g>
<!-- BsSimilarDocuments  -->
<g id="node40" class="node">
<title>BsSimilarDocuments </title>
<polygon fill="#fb8072" stroke="black" points="1048.76,-214.8 909.24,-214.8 909.24,-178.8 1048.76,-178.8 1048.76,-214.8"/>
<text text-anchor="middle" x="979" y="-192.6" font-family="Times,serif" font-size="14.00">BsSimilarDocuments </text>
</g>
<!-- BsPreviewModule&#45;&gt;BsSimilarDocuments  -->
<g id="edge39" class="edge">
<title>BsPreviewModule&#45;&gt;BsSimilarDocuments </title>
<path fill="none" stroke="black" stroke-dasharray="5,2" d="M2099.86,-138.8C1866.54,-138.8 1034.05,-138.8 1034.05,-138.8 1034.05,-138.8 1034.05,-168.77 1034.05,-168.77"/>
<polygon fill="black" stroke="black" points="1030.55,-168.77 1034.05,-178.77 1037.55,-168.77 1030.55,-168.77"/>
</g>
<!-- PreviewModule  -->
<g id="node41" class="node">
<title>PreviewModule </title>
<polygon fill="#fb8072" stroke="black" points="891.42,-214.8 782.58,-214.8 782.58,-178.8 891.42,-178.8 891.42,-214.8"/>
<text text-anchor="middle" x="837" y="-192.6" font-family="Times,serif" font-size="14.00">PreviewModule </text>
</g>
<!-- BsPreviewModule&#45;&gt;PreviewModule  -->
<g id="edge40" class="edge">
<title>BsPreviewModule&#45;&gt;PreviewModule </title>
<path fill="none" stroke="black" stroke-dasharray="5,2" d="M2099.69,-136.8C1843.09,-136.8 855.29,-136.8 855.29,-136.8 855.29,-136.8 855.29,-168.8 855.29,-168.8"/>
<polygon fill="black" stroke="black" points="851.79,-168.8 855.29,-178.8 858.79,-168.8 851.79,-168.8"/>
</g>
<!-- BsActionModule -->
<g id="node17" class="node">
<title>BsActionModule</title>
<polygon fill="#8dd3c7" stroke="black" points="3858.43,-84.8 3855.43,-88.8 3834.43,-88.8 3831.43,-84.8 3745.57,-84.8 3745.57,-48.8 3858.43,-48.8 3858.43,-84.8"/>
<text text-anchor="middle" x="3802" y="-62.6" font-family="Times,serif" font-size="14.00">BsActionModule</text>
</g>
<!-- BsActionModule&#45;&gt;BsPreviewModule -->
<g id="edge16" class="edge">
<title>BsActionModule&#45;&gt;BsPreviewModule</title>
<path fill="none" stroke="black" d="M3802,-85.02C3802,-105.17 3802,-134.8 3802,-134.8 3802,-134.8 2230.39,-134.8 2230.39,-134.8"/>
<polygon fill="black" stroke="black" points="2230.39,-131.3 2220.39,-134.8 2230.39,-138.3 2230.39,-131.3"/>
</g>
<!-- BsFacetModule -->
<g id="node18" class="node">
<title>BsFacetModule</title>
<polygon fill="#8dd3c7" stroke="black" points="3727.15,-84.8 3724.15,-88.8 3703.15,-88.8 3700.15,-84.8 3622.85,-84.8 3622.85,-48.8 3727.15,-48.8 3727.15,-84.8"/>
<text text-anchor="middle" x="3675" y="-62.6" font-family="Times,serif" font-size="14.00">BsFacetModule</text>
</g>
<!-- BsFacetModule&#45;&gt;BsPreviewModule -->
<g id="edge17" class="edge">
<title>BsFacetModule&#45;&gt;BsPreviewModule</title>
<path fill="none" stroke="black" d="M3651.95,-84.83C3651.95,-104.38 3651.95,-132.8 3651.95,-132.8 3651.95,-132.8 2230.33,-132.8 2230.33,-132.8"/>
<polygon fill="black" stroke="black" points="2230.33,-129.3 2220.33,-132.8 2230.33,-136.3 2230.33,-129.3"/>
</g>
<!-- BsModalModule -->
<g id="node19" class="node">
<title>BsModalModule</title>
<polygon fill="#8dd3c7" stroke="black" points="3604.38,-84.8 3601.38,-88.8 3580.38,-88.8 3577.38,-84.8 3493.62,-84.8 3493.62,-48.8 3604.38,-48.8 3604.38,-84.8"/>
<text text-anchor="middle" x="3549" y="-62.6" font-family="Times,serif" font-size="14.00">BsModalModule</text>
</g>
<!-- BsModalModule&#45;&gt;BsPreviewModule -->
<g id="edge18" class="edge">
<title>BsModalModule&#45;&gt;BsPreviewModule</title>
<path fill="none" stroke="black" d="M3522.98,-84.91C3522.98,-104.14 3522.98,-131.8 3522.98,-131.8 3522.98,-131.8 2230.32,-131.8 2230.32,-131.8"/>
<polygon fill="black" stroke="black" points="2230.32,-128.3 2220.32,-131.8 2230.32,-135.3 2230.32,-128.3"/>
</g>
<!-- BsSearchModule -->
<g id="node20" class="node">
<title>BsSearchModule</title>
<polygon fill="#8dd3c7" stroke="black" points="3475.42,-84.8 3472.42,-88.8 3451.42,-88.8 3448.42,-84.8 3362.58,-84.8 3362.58,-48.8 3475.42,-48.8 3475.42,-84.8"/>
<text text-anchor="middle" x="3419" y="-62.6" font-family="Times,serif" font-size="14.00">BsSearchModule</text>
</g>
<!-- BsSearchModule&#45;&gt;BsPreviewModule -->
<g id="edge19" class="edge">
<title>BsSearchModule&#45;&gt;BsPreviewModule</title>
<path fill="none" stroke="black" d="M3440.01,-85.02C3440.01,-103.63 3440.01,-129.8 3440.01,-129.8 3440.01,-129.8 2230.45,-129.8 2230.45,-129.8"/>
<polygon fill="black" stroke="black" points="2230.45,-126.3 2220.45,-129.8 2230.45,-133.3 2230.45,-126.3"/>
</g>
<!-- CollapseModule -->
<g id="node21" class="node">
<title>CollapseModule</title>
<polygon fill="#8dd3c7" stroke="black" points="3345.04,-84.8 3342.04,-88.8 3321.04,-88.8 3318.04,-84.8 3236.96,-84.8 3236.96,-48.8 3345.04,-48.8 3345.04,-84.8"/>
<text text-anchor="middle" x="3291" y="-62.6" font-family="Times,serif" font-size="14.00">CollapseModule</text>
</g>
<!-- CollapseModule&#45;&gt;BsPreviewModule -->
<g id="edge20" class="edge">
<title>CollapseModule&#45;&gt;BsPreviewModule</title>
<path fill="none" stroke="black" d="M3291,-85.1C3291,-103.07 3291,-127.8 3291,-127.8 3291,-127.8 2230.41,-127.8 2230.41,-127.8"/>
<polygon fill="black" stroke="black" points="2230.41,-124.3 2220.41,-127.8 2230.41,-131.3 2230.41,-124.3"/>
</g>
<!-- MetadataModule -->
<g id="node22" class="node">
<title>MetadataModule</title>
<polygon fill="#8dd3c7" stroke="black" points="3218.63,-84.8 3215.63,-88.8 3194.63,-88.8 3191.63,-84.8 3107.37,-84.8 3107.37,-48.8 3218.63,-48.8 3218.63,-84.8"/>
<text text-anchor="middle" x="3163" y="-62.6" font-family="Times,serif" font-size="14.00">MetadataModule</text>
</g>
<!-- MetadataModule&#45;&gt;BsPreviewModule -->
<g id="edge21" class="edge">
<title>MetadataModule&#45;&gt;BsPreviewModule</title>
<path fill="none" stroke="black" d="M3115.79,-84.82C3115.79,-102.17 3115.79,-125.8 3115.79,-125.8 3115.79,-125.8 2230.15,-125.8 2230.15,-125.8"/>
<polygon fill="black" stroke="black" points="2230.15,-122.3 2220.15,-125.8 2230.15,-129.3 2230.15,-122.3"/>
</g>
<!-- PreviewModule -->
<g id="node23" class="node">
<title>PreviewModule</title>
<polygon fill="#8dd3c7" stroke="black" points="3088.92,-84.8 3085.92,-88.8 3064.92,-88.8 3061.92,-84.8 2983.08,-84.8 2983.08,-48.8 3088.92,-48.8 3088.92,-84.8"/>
<text text-anchor="middle" x="3036" y="-62.6" font-family="Times,serif" font-size="14.00">PreviewModule</text>
</g>
<!-- PreviewModule&#45;&gt;BsPreviewModule -->
<g id="edge22" class="edge">
<title>PreviewModule&#45;&gt;BsPreviewModule</title>
<path fill="none" stroke="black" d="M3036,-84.84C3036,-101.53 3036,-123.8 3036,-123.8 3036,-123.8 2230.21,-123.8 2230.21,-123.8"/>
<polygon fill="black" stroke="black" points="2230.21,-120.3 2220.21,-123.8 2230.21,-127.3 2230.21,-120.3"/>
</g>
<!-- ResultModule -->
<g id="node24" class="node">
<title>ResultModule</title>
<polygon fill="#8dd3c7" stroke="black" points="2965.83,-84.8 2962.83,-88.8 2941.83,-88.8 2938.83,-84.8 2870.17,-84.8 2870.17,-48.8 2965.83,-48.8 2965.83,-84.8"/>
<text text-anchor="middle" x="2918" y="-62.6" font-family="Times,serif" font-size="14.00">ResultModule</text>
</g>
<!-- ResultModule&#45;&gt;BsPreviewModule -->
<g id="edge23" class="edge">
<title>ResultModule&#45;&gt;BsPreviewModule</title>
<path fill="none" stroke="black" d="M2882.78,-84.81C2882.78,-100.85 2882.78,-121.8 2882.78,-121.8 2882.78,-121.8 2230.38,-121.8 2230.38,-121.8"/>
<polygon fill="black" stroke="black" points="2230.38,-118.3 2220.38,-121.8 2230.38,-125.3 2230.38,-118.3"/>
</g>
<!-- UtilsModule -->
<g id="node25" class="node">
<title>UtilsModule</title>
<polygon fill="#8dd3c7" stroke="black" points="2852.27,-84.8 2849.27,-88.8 2828.27,-88.8 2825.27,-84.8 2765.73,-84.8 2765.73,-48.8 2852.27,-48.8 2852.27,-84.8"/>
<text text-anchor="middle" x="2809" y="-62.6" font-family="Times,serif" font-size="14.00">UtilsModule</text>
</g>
<!-- UtilsModule&#45;&gt;BsPreviewModule -->
<g id="edge24" class="edge">
<title>UtilsModule&#45;&gt;BsPreviewModule</title>
<path fill="none" stroke="black" d="M2809,-85.04C2809,-100.37 2809,-119.8 2809,-119.8 2809,-119.8 2230.18,-119.8 2230.18,-119.8"/>
<polygon fill="black" stroke="black" points="2230.18,-116.3 2220.18,-119.8 2230.18,-123.3 2230.18,-116.3"/>
</g>
</g>
</svg>
