<?xml version="1.0" encoding="UTF-8" standalone="no"?>
<!DOCTYPE svg PUBLIC "-//W3C//DTD SVG 1.1//EN"
 "http://www.w3.org/Graphics/SVG/1.1/DTD/svg11.dtd">
<!-- Generated by graphviz version 2.40.1 (20161225.0304)
 -->
<!-- Title: dependencies Pages: 1 -->
<svg width="3226pt" height="284pt"
 viewBox="0.00 0.00 3226.00 284.00" xmlns="http://www.w3.org/2000/svg" xmlns:xlink="http://www.w3.org/1999/xlink">
<g id="graph0" class="graph" transform="scale(1 1) rotate(0) translate(4 280)">
<title>dependencies</title>
<polygon fill="#ffffff" stroke="transparent" points="-4,4 -4,-280 3222,-280 3222,4 -4,4"/>
<text text-anchor="start" x="1588.0091" y="-42.4" font-family="sans-serif" font-weight="bold" font-size="14.00" fill="#000000">Legend</text>
<polygon fill="#ffffb3" stroke="transparent" points="1375,-10 1375,-30 1395,-30 1395,-10 1375,-10"/>
<text text-anchor="start" x="1398.629" y="-15.4" font-family="sans-serif" font-size="14.00" fill="#000000"> &#160;Declarations</text>
<polygon fill="#8dd3c7" stroke="transparent" points="1488,-10 1488,-30 1508,-30 1508,-10 1488,-10"/>
<text text-anchor="start" x="1511.7251" y="-15.4" font-family="sans-serif" font-size="14.00" fill="#000000"> &#160;Module</text>
<polygon fill="#80b1d3" stroke="transparent" points="1574,-10 1574,-30 1594,-30 1594,-10 1574,-10"/>
<text text-anchor="start" x="1597.7812" y="-15.4" font-family="sans-serif" font-size="14.00" fill="#000000"> &#160;Bootstrap</text>
<polygon fill="#fdb462" stroke="transparent" points="1671,-10 1671,-30 1691,-30 1691,-10 1671,-10"/>
<text text-anchor="start" x="1694.6732" y="-15.4" font-family="sans-serif" font-size="14.00" fill="#000000"> &#160;Providers</text>
<polygon fill="#fb8072" stroke="transparent" points="1767,-10 1767,-30 1787,-30 1787,-10 1767,-10"/>
<text text-anchor="start" x="1790.7258" y="-15.4" font-family="sans-serif" font-size="14.00" fill="#000000"> &#160;Exports</text>
<g id="clust1" class="cluster">
<title>cluster_BsPreviewModule</title>
<polygon fill="none" stroke="#000000" stroke-dasharray="1,5" points="8,-70 8,-268 3210,-268 3210,-70 8,-70"/>
</g>
<g id="clust2" class="cluster">
<title>cluster_BsPreviewModule_declarations</title>
<polygon fill="none" stroke="#000000" points="1002,-78 1002,-130 3202,-130 3202,-78 1002,-78"/>
</g>
<g id="clust16" class="cluster">
<title>cluster_BsPreviewModule_imports</title>
<polygon fill="none" stroke="#000000" points="16,-78 16,-130 994,-130 994,-78 16,-78"/>
</g>
<g id="clust17" class="cluster">
<title>cluster_BsPreviewModule_exports</title>
<polygon fill="none" stroke="#000000" points="291,-208 291,-260 2665,-260 2665,-208 291,-208"/>
</g>
<!-- BsFacetPreview -->
<g id="node1" class="node">
<title>BsFacetPreview</title>
<polygon fill="#ffffb3" stroke="#000000" points="3194.4678,-122 3087.5322,-122 3087.5322,-86 3194.4678,-86 3194.4678,-122"/>
<text text-anchor="middle" x="3141" y="-99.8" font-family="Times,serif" font-size="14.00" fill="#000000">BsFacetPreview</text>
</g>
<!-- BsPreviewModule -->
<g id="node14" class="node">
<title>BsPreviewModule</title>
<polygon fill="#8dd3c7" stroke="#000000" points="1412.2008,-187 1409.2008,-191 1388.2008,-191 1385.2008,-187 1291.7992,-187 1291.7992,-151 1412.2008,-151 1412.2008,-187"/>
<text text-anchor="middle" x="1352" y="-164.8" font-family="Times,serif" font-size="14.00" fill="#000000">BsPreviewModule</text>
</g>
<!-- BsFacetPreview&#45;&gt;BsPreviewModule -->
<g id="edge1" class="edge">
<title>BsFacetPreview&#45;&gt;BsPreviewModule</title>
<path fill="none" stroke="#000000" d="M3141,-122.1289C3141,-142.5724 3141,-173 3141,-173 3141,-173 1422.2913,-173 1422.2913,-173"/>
<polygon fill="#000000" stroke="#000000" points="1422.2914,-169.5001 1412.2913,-173 1422.2913,-176.5001 1422.2914,-169.5001"/>
</g>
<!-- BsFacetPreviewComponent2 -->
<g id="node2" class="node">
<title>BsFacetPreviewComponent2</title>
<polygon fill="#ffffb3" stroke="#000000" points="3069.8005,-122 2890.1995,-122 2890.1995,-86 3069.8005,-86 3069.8005,-122"/>
<text text-anchor="middle" x="2980" y="-99.8" font-family="Times,serif" font-size="14.00" fill="#000000">BsFacetPreviewComponent2</text>
</g>
<!-- BsFacetPreviewComponent2&#45;&gt;BsPreviewModule -->
<g id="edge2" class="edge">
<title>BsFacetPreviewComponent2&#45;&gt;BsPreviewModule</title>
<path fill="none" stroke="#000000" d="M2980,-122.308C2980,-142.1455 2980,-171 2980,-171 2980,-171 1422.3593,-171 1422.3593,-171"/>
<polygon fill="#000000" stroke="#000000" points="1422.3593,-167.5001 1412.3593,-171 1422.3593,-174.5001 1422.3593,-167.5001"/>
</g>
<!-- BsPreviewEntityFacetComponent -->
<g id="node3" class="node">
<title>BsPreviewEntityFacetComponent</title>
<polygon fill="#ffffb3" stroke="#000000" points="2872.0251,-122 2665.9749,-122 2665.9749,-86 2872.0251,-86 2872.0251,-122"/>
<text text-anchor="middle" x="2769" y="-99.8" font-family="Times,serif" font-size="14.00" fill="#000000">BsPreviewEntityFacetComponent</text>
</g>
<!-- BsPreviewEntityFacetComponent&#45;&gt;BsPreviewModule -->
<g id="edge3" class="edge">
<title>BsPreviewEntityFacetComponent&#45;&gt;BsPreviewModule</title>
<path fill="none" stroke="#000000" d="M2769,-122.1686C2769,-141.0898 2769,-168 2769,-168 2769,-168 1422.4334,-168 1422.4334,-168"/>
<polygon fill="#000000" stroke="#000000" points="1422.4335,-164.5001 1412.4334,-168 1422.4334,-171.5001 1422.4335,-164.5001"/>
</g>
<!-- BsPreviewEntityPanelComponent -->
<g id="node4" class="node">
<title>BsPreviewEntityPanelComponent</title>
<polygon fill="#ffffb3" stroke="#000000" points="2647.8102,-122 2440.1898,-122 2440.1898,-86 2647.8102,-86 2647.8102,-122"/>
<text text-anchor="middle" x="2544" y="-99.8" font-family="Times,serif" font-size="14.00" fill="#000000">BsPreviewEntityPanelComponent</text>
</g>
<!-- BsPreviewEntityPanelComponent&#45;&gt;BsPreviewModule -->
<g id="edge4" class="edge">
<title>BsPreviewEntityPanelComponent&#45;&gt;BsPreviewModule</title>
<path fill="none" stroke="#000000" d="M2484.3726,-122.2667C2484.3726,-140.5552 2484.3726,-166 2484.3726,-166 2484.3726,-166 1422.4809,-166 1422.4809,-166"/>
<polygon fill="#000000" stroke="#000000" points="1422.481,-162.5001 1412.4809,-166 1422.4809,-169.5001 1422.481,-162.5001"/>
</g>
<!-- BsPreviewExtractsPanelComponent -->
<g id="node5" class="node">
<title>BsPreviewExtractsPanelComponent</title>
<polygon fill="#ffffb3" stroke="#000000" points="2422.4538,-122 2203.5462,-122 2203.5462,-86 2422.4538,-86 2422.4538,-122"/>
<text text-anchor="middle" x="2313" y="-99.8" font-family="Times,serif" font-size="14.00" fill="#000000">BsPreviewExtractsPanelComponent</text>
</g>
<!-- BsPreviewExtractsPanelComponent&#45;&gt;BsPreviewModule -->
<g id="edge5" class="edge">
<title>BsPreviewExtractsPanelComponent&#45;&gt;BsPreviewModule</title>
<path fill="none" stroke="#000000" d="M2265.7677,-122.002C2265.7677,-139.6754 2265.7677,-164 2265.7677,-164 2265.7677,-164 1422.3082,-164 1422.3082,-164"/>
<polygon fill="#000000" stroke="#000000" points="1422.3083,-160.5001 1412.3082,-164 1422.3082,-167.5001 1422.3083,-160.5001"/>
</g>
<!-- BsPreviewHighlights -->
<g id="node6" class="node">
<title>BsPreviewHighlights</title>
<polygon fill="#ffffb3" stroke="#000000" points="2185.7646,-122 2050.2354,-122 2050.2354,-86 2185.7646,-86 2185.7646,-122"/>
<text text-anchor="middle" x="2118" y="-99.8" font-family="Times,serif" font-size="14.00" fill="#000000">BsPreviewHighlights</text>
</g>
<!-- BsPreviewHighlights&#45;&gt;BsPreviewModule -->
<g id="edge6" class="edge">
<title>BsPreviewHighlights&#45;&gt;BsPreviewModule</title>
<path fill="none" stroke="#000000" d="M2075.2614,-122.0336C2075.2614,-139.0597 2075.2614,-162 2075.2614,-162 2075.2614,-162 1422.1115,-162 1422.1115,-162"/>
<polygon fill="#000000" stroke="#000000" points="1422.1116,-158.5001 1412.1115,-162 1422.1115,-165.5001 1422.1116,-158.5001"/>
</g>
<!-- BsPreviewLinks -->
<g id="node7" class="node">
<title>BsPreviewLinks</title>
<polygon fill="#ffffb3" stroke="#000000" points="2032.0396,-122 1923.9604,-122 1923.9604,-86 2032.0396,-86 2032.0396,-122"/>
<text text-anchor="middle" x="1978" y="-99.8" font-family="Times,serif" font-size="14.00" fill="#000000">BsPreviewLinks</text>
</g>
<!-- BsPreviewLinks&#45;&gt;BsPreviewModule -->
<g id="edge7" class="edge">
<title>BsPreviewLinks&#45;&gt;BsPreviewModule</title>
<path fill="none" stroke="#000000" d="M1978,-122.027C1978,-138.3976 1978,-160 1978,-160 1978,-160 1422.3076,-160 1422.3076,-160"/>
<polygon fill="#000000" stroke="#000000" points="1422.3077,-156.5001 1412.3076,-160 1422.3076,-163.5001 1422.3077,-156.5001"/>
</g>
<!-- BsPreviewPanel -->
<g id="node8" class="node">
<title>BsPreviewPanel</title>
<polygon fill="#ffffb3" stroke="#000000" points="1905.7535,-122 1798.2465,-122 1798.2465,-86 1905.7535,-86 1905.7535,-122"/>
<text text-anchor="middle" x="1852" y="-99.8" font-family="Times,serif" font-size="14.00" fill="#000000">BsPreviewPanel</text>
</g>
<!-- BsPreviewPanel&#45;&gt;BsPreviewModule -->
<g id="edge8" class="edge">
<title>BsPreviewPanel&#45;&gt;BsPreviewModule</title>
<path fill="none" stroke="#000000" d="M1834.6752,-122.2819C1834.6752,-137.9478 1834.6752,-158 1834.6752,-158 1834.6752,-158 1422.1552,-158 1422.1552,-158"/>
<polygon fill="#000000" stroke="#000000" points="1422.1552,-154.5001 1412.1552,-158 1422.1552,-161.5001 1422.1552,-154.5001"/>
</g>
<!-- BsPreviewPopup -->
<g id="node9" class="node">
<title>BsPreviewPopup</title>
<polygon fill="#ffffb3" stroke="#000000" points="1780.4342,-122 1667.5658,-122 1667.5658,-86 1780.4342,-86 1780.4342,-122"/>
<text text-anchor="middle" x="1724" y="-99.8" font-family="Times,serif" font-size="14.00" fill="#000000">BsPreviewPopup</text>
</g>
<!-- BsPreviewPopup&#45;&gt;BsPreviewModule -->
<g id="edge9" class="edge">
<title>BsPreviewPopup&#45;&gt;BsPreviewModule</title>
<path fill="none" stroke="#000000" d="M1724,-122.1871C1724,-137.1824 1724,-156 1724,-156 1724,-156 1422.1817,-156 1422.1817,-156"/>
<polygon fill="#000000" stroke="#000000" points="1422.1817,-152.5001 1412.1817,-156 1422.1816,-159.5001 1422.1817,-152.5001"/>
</g>
<!-- BsPreviewSearchFormComponent -->
<g id="node10" class="node">
<title>BsPreviewSearchFormComponent</title>
<polygon fill="#ffffb3" stroke="#000000" points="1650.4044,-122 1439.5956,-122 1439.5956,-86 1650.4044,-86 1650.4044,-122"/>
<text text-anchor="middle" x="1545" y="-99.8" font-family="Times,serif" font-size="14.00" fill="#000000">BsPreviewSearchFormComponent</text>
</g>
<!-- BsPreviewSearchFormComponent&#45;&gt;BsPreviewModule -->
<g id="edge10" class="edge">
<title>BsPreviewSearchFormComponent&#45;&gt;BsPreviewModule</title>
<path fill="none" stroke="#000000" d="M1456.4086,-122.0511C1456.4086,-136.373 1456.4086,-154 1456.4086,-154 1456.4086,-154 1422.13,-154 1422.13,-154"/>
<polygon fill="#000000" stroke="#000000" points="1422.13,-150.5001 1412.13,-154 1422.1299,-157.5001 1422.13,-150.5001"/>
</g>
<!-- BsResultLinkPreview -->
<g id="node11" class="node">
<title>BsResultLinkPreview</title>
<polygon fill="#ffffb3" stroke="#000000" points="1421.3711,-122 1282.6289,-122 1282.6289,-86 1421.3711,-86 1421.3711,-122"/>
<text text-anchor="middle" x="1352" y="-99.8" font-family="Times,serif" font-size="14.00" fill="#000000">BsResultLinkPreview</text>
</g>
<!-- BsResultLinkPreview&#45;&gt;BsPreviewModule -->
<g id="edge11" class="edge">
<title>BsResultLinkPreview&#45;&gt;BsPreviewModule</title>
<path fill="none" stroke="#000000" d="M1352,-122.1061C1352,-122.1061 1352,-140.991 1352,-140.991"/>
<polygon fill="#000000" stroke="#000000" points="1348.5001,-140.9909 1352,-150.991 1355.5001,-140.991 1348.5001,-140.9909"/>
</g>
<!-- BsSimilarDocs -->
<g id="node12" class="node">
<title>BsSimilarDocs</title>
<polygon fill="#ffffb3" stroke="#000000" points="1264.2675,-122 1163.7325,-122 1163.7325,-86 1264.2675,-86 1264.2675,-122"/>
<text text-anchor="middle" x="1214" y="-99.8" font-family="Times,serif" font-size="14.00" fill="#000000">BsSimilarDocs</text>
</g>
<!-- BsSimilarDocs&#45;&gt;BsPreviewModule -->
<g id="edge12" class="edge">
<title>BsSimilarDocs&#45;&gt;BsPreviewModule</title>
<path fill="none" stroke="#000000" d="M1247.8785,-122.0511C1247.8785,-136.373 1247.8785,-154 1247.8785,-154 1247.8785,-154 1281.7336,-154 1281.7336,-154"/>
<polygon fill="#000000" stroke="#000000" points="1281.7337,-157.5001 1291.7336,-154 1281.7336,-150.5001 1281.7337,-157.5001"/>
</g>
<!-- BsSimilarDocuments -->
<g id="node13" class="node">
<title>BsSimilarDocuments</title>
<polygon fill="#ffffb3" stroke="#000000" points="1145.7632,-122 1010.2368,-122 1010.2368,-86 1145.7632,-86 1145.7632,-122"/>
<text text-anchor="middle" x="1078" y="-99.8" font-family="Times,serif" font-size="14.00" fill="#000000">BsSimilarDocuments</text>
</g>
<!-- BsSimilarDocuments&#45;&gt;BsPreviewModule -->
<g id="edge13" class="edge">
<title>BsSimilarDocuments&#45;&gt;BsPreviewModule</title>
<path fill="none" stroke="#000000" d="M1121.4574,-122.1871C1121.4574,-137.1824 1121.4574,-156 1121.4574,-156 1121.4574,-156 1281.7288,-156 1281.7288,-156"/>
<polygon fill="#000000" stroke="#000000" points="1281.7288,-159.5001 1291.7288,-156 1281.7287,-152.5001 1281.7288,-159.5001"/>
</g>
<!-- BsFacetPreview  -->
<g id="node23" class="node">
<title>BsFacetPreview </title>
<polygon fill="#fb8072" stroke="#000000" points="2657.4688,-252 2546.5312,-252 2546.5312,-216 2657.4688,-216 2657.4688,-252"/>
<text text-anchor="middle" x="2602" y="-229.8" font-family="Times,serif" font-size="14.00" fill="#000000">BsFacetPreview </text>
</g>
<!-- BsPreviewModule&#45;&gt;BsFacetPreview  -->
<g id="edge22" class="edge">
<title>BsPreviewModule&#45;&gt;BsFacetPreview </title>
<path fill="none" stroke="#000000" stroke-dasharray="5,2" d="M1412.4799,-175C1661.8488,-175 2597.2105,-175 2597.2105,-175 2597.2105,-175 2597.2105,-205.9775 2597.2105,-205.9775"/>
<polygon fill="#000000" stroke="#000000" points="2593.7106,-205.9774 2597.2105,-215.9775 2600.7106,-205.9775 2593.7106,-205.9774"/>
</g>
<!-- BsFacetPreviewComponent2  -->
<g id="node24" class="node">
<title>BsFacetPreviewComponent2 </title>
<polygon fill="#fb8072" stroke="#000000" points="2528.3003,-252 2345.6997,-252 2345.6997,-216 2528.3003,-216 2528.3003,-252"/>
<text text-anchor="middle" x="2437" y="-229.8" font-family="Times,serif" font-size="14.00" fill="#000000">BsFacetPreviewComponent2 </text>
</g>
<!-- BsPreviewModule&#45;&gt;BsFacetPreviewComponent2  -->
<g id="edge23" class="edge">
<title>BsPreviewModule&#45;&gt;BsFacetPreviewComponent2 </title>
<path fill="none" stroke="#000000" stroke-dasharray="5,2" d="M1412.3261,-177C1633.0698,-177 2384.0384,-177 2384.0384,-177 2384.0384,-177 2384.0384,-205.9648 2384.0384,-205.9648"/>
<polygon fill="#000000" stroke="#000000" points="2380.5385,-205.9648 2384.0384,-215.9648 2387.5385,-205.9649 2380.5385,-205.9648"/>
</g>
<!-- BsPreviewEntityFacetComponent  -->
<g id="node25" class="node">
<title>BsPreviewEntityFacetComponent </title>
<polygon fill="#fb8072" stroke="#000000" points="2328.0246,-252 2117.9754,-252 2117.9754,-216 2328.0246,-216 2328.0246,-252"/>
<text text-anchor="middle" x="2223" y="-229.8" font-family="Times,serif" font-size="14.00" fill="#000000">BsPreviewEntityFacetComponent </text>
</g>
<!-- BsPreviewModule&#45;&gt;BsPreviewEntityFacetComponent  -->
<g id="edge24" class="edge">
<title>BsPreviewModule&#45;&gt;BsPreviewEntityFacetComponent </title>
<path fill="none" stroke="#000000" stroke-dasharray="5,2" d="M1412.1251,-179C1598.1592,-179 2151.935,-179 2151.935,-179 2151.935,-179 2151.935,-205.9909 2151.935,-205.9909"/>
<polygon fill="#000000" stroke="#000000" points="2148.435,-205.9909 2151.935,-215.9909 2155.435,-205.991 2148.435,-205.9909"/>
</g>
<!-- BsPreviewEntityPanelComponent  -->
<g id="node26" class="node">
<title>BsPreviewEntityPanelComponent </title>
<polygon fill="#fb8072" stroke="#000000" points="2100.3101,-252 1889.6899,-252 1889.6899,-216 2100.3101,-216 2100.3101,-252"/>
<text text-anchor="middle" x="1995" y="-229.8" font-family="Times,serif" font-size="14.00" fill="#000000">BsPreviewEntityPanelComponent </text>
</g>
<!-- BsPreviewModule&#45;&gt;BsPreviewEntityPanelComponent  -->
<g id="edge25" class="edge">
<title>BsPreviewModule&#45;&gt;BsPreviewEntityPanelComponent </title>
<path fill="none" stroke="#000000" stroke-dasharray="5,2" d="M1412.2262,-181C1554.1547,-181 1897.7358,-181 1897.7358,-181 1897.7358,-181 1897.7358,-205.7604 1897.7358,-205.7604"/>
<polygon fill="#000000" stroke="#000000" points="1894.2359,-205.7604 1897.7358,-215.7604 1901.2359,-205.7604 1894.2359,-205.7604"/>
</g>
<!-- BsPreviewExtractsPanelComponent  -->
<g id="node27" class="node">
<title>BsPreviewExtractsPanelComponent </title>
<polygon fill="#fb8072" stroke="#000000" points="1871.4543,-252 1648.5457,-252 1648.5457,-216 1871.4543,-216 1871.4543,-252"/>
<text text-anchor="middle" x="1760" y="-229.8" font-family="Times,serif" font-size="14.00" fill="#000000">BsPreviewExtractsPanelComponent </text>
</g>
<!-- BsPreviewModule&#45;&gt;BsPreviewExtractsPanelComponent  -->
<g id="edge26" class="edge">
<title>BsPreviewModule&#45;&gt;BsPreviewExtractsPanelComponent </title>
<path fill="none" stroke="#000000" stroke-dasharray="5,2" d="M1412.2856,-183C1501.69,-183 1658.9927,-183 1658.9927,-183 1658.9927,-183 1658.9927,-205.8757 1658.9927,-205.8757"/>
<polygon fill="#000000" stroke="#000000" points="1655.4927,-205.8757 1658.9927,-215.8757 1662.4927,-205.8757 1655.4927,-205.8757"/>
</g>
<!-- BsPreviewHighlights  -->
<g id="node28" class="node">
<title>BsPreviewHighlights </title>
<polygon fill="#fb8072" stroke="#000000" points="1630.7647,-252 1491.2353,-252 1491.2353,-216 1630.7647,-216 1630.7647,-252"/>
<text text-anchor="middle" x="1561" y="-229.8" font-family="Times,serif" font-size="14.00" fill="#000000">BsPreviewHighlights </text>
</g>
<!-- BsPreviewModule&#45;&gt;BsPreviewHighlights  -->
<g id="edge27" class="edge">
<title>BsPreviewModule&#45;&gt;BsPreviewHighlights </title>
<path fill="none" stroke="#000000" stroke-dasharray="5,2" d="M1412.1711,-185C1473.9138,-185 1561,-185 1561,-185 1561,-185 1561,-205.7542 1561,-205.7542"/>
<polygon fill="#000000" stroke="#000000" points="1557.5001,-205.7542 1561,-215.7542 1564.5001,-205.7542 1557.5001,-205.7542"/>
</g>
<!-- BsPreviewLinks  -->
<g id="node29" class="node">
<title>BsPreviewLinks </title>
<polygon fill="#fb8072" stroke="#000000" points="1473.0386,-252 1360.9614,-252 1360.9614,-216 1473.0386,-216 1473.0386,-252"/>
<text text-anchor="middle" x="1417" y="-229.8" font-family="Times,serif" font-size="14.00" fill="#000000">BsPreviewLinks </text>
</g>
<!-- BsPreviewModule&#45;&gt;BsPreviewLinks  -->
<g id="edge28" class="edge">
<title>BsPreviewModule&#45;&gt;BsPreviewLinks </title>
<path fill="none" stroke="#000000" stroke-dasharray="5,2" d="M1386.5405,-187.1061C1386.5405,-187.1061 1386.5405,-205.991 1386.5405,-205.991"/>
<polygon fill="#000000" stroke="#000000" points="1383.0406,-205.9909 1386.5405,-215.991 1390.0406,-205.991 1383.0406,-205.9909"/>
</g>
<!-- BsPreviewPanel  -->
<g id="node30" class="node">
<title>BsPreviewPanel </title>
<polygon fill="#fb8072" stroke="#000000" points="1342.7535,-252 1231.2465,-252 1231.2465,-216 1342.7535,-216 1342.7535,-252"/>
<text text-anchor="middle" x="1287" y="-229.8" font-family="Times,serif" font-size="14.00" fill="#000000">BsPreviewPanel </text>
</g>
<!-- BsPreviewModule&#45;&gt;BsPreviewPanel  -->
<g id="edge29" class="edge">
<title>BsPreviewModule&#45;&gt;BsPreviewPanel </title>
<path fill="none" stroke="#000000" stroke-dasharray="5,2" d="M1317.2632,-187.1061C1317.2632,-187.1061 1317.2632,-205.991 1317.2632,-205.991"/>
<polygon fill="#000000" stroke="#000000" points="1313.7632,-205.9909 1317.2632,-215.991 1320.7632,-205.991 1313.7632,-205.9909"/>
</g>
<!-- BsPreviewPopup  -->
<g id="node31" class="node">
<title>BsPreviewPopup </title>
<polygon fill="#fb8072" stroke="#000000" points="1212.9334,-252 1097.0666,-252 1097.0666,-216 1212.9334,-216 1212.9334,-252"/>
<text text-anchor="middle" x="1155" y="-229.8" font-family="Times,serif" font-size="14.00" fill="#000000">BsPreviewPopup </text>
</g>
<!-- BsPreviewModule&#45;&gt;BsPreviewPopup  -->
<g id="edge30" class="edge">
<title>BsPreviewModule&#45;&gt;BsPreviewPopup </title>
<path fill="none" stroke="#000000" stroke-dasharray="5,2" d="M1291.5061,-185C1244.8717,-185 1188.2916,-185 1188.2916,-185 1188.2916,-185 1188.2916,-205.7542 1188.2916,-205.7542"/>
<polygon fill="#000000" stroke="#000000" points="1184.7916,-205.7542 1188.2916,-215.7542 1191.7916,-205.7542 1184.7916,-205.7542"/>
</g>
<!-- BsPreviewSearchFormComponent  -->
<g id="node32" class="node">
<title>BsPreviewSearchFormComponent </title>
<polygon fill="#fb8072" stroke="#000000" points="1078.904,-252 865.096,-252 865.096,-216 1078.904,-216 1078.904,-252"/>
<text text-anchor="middle" x="972" y="-229.8" font-family="Times,serif" font-size="14.00" fill="#000000">BsPreviewSearchFormComponent </text>
</g>
<!-- BsPreviewModule&#45;&gt;BsPreviewSearchFormComponent  -->
<g id="edge31" class="edge">
<title>BsPreviewModule&#45;&gt;BsPreviewSearchFormComponent </title>
<path fill="none" stroke="#000000" stroke-dasharray="5,2" d="M1291.6217,-183C1202.0798,-183 1044.5352,-183 1044.5352,-183 1044.5352,-183 1044.5352,-205.8757 1044.5352,-205.8757"/>
<polygon fill="#000000" stroke="#000000" points="1041.0353,-205.8757 1044.5352,-215.8757 1048.0353,-205.8757 1041.0353,-205.8757"/>
</g>
<!-- BsResultLinkPreview  -->
<g id="node33" class="node">
<title>BsResultLinkPreview </title>
<polygon fill="#fb8072" stroke="#000000" points="847.3715,-252 704.6285,-252 704.6285,-216 847.3715,-216 847.3715,-252"/>
<text text-anchor="middle" x="776" y="-229.8" font-family="Times,serif" font-size="14.00" fill="#000000">BsResultLinkPreview </text>
</g>
<!-- BsPreviewModule&#45;&gt;BsResultLinkPreview  -->
<g id="edge32" class="edge">
<title>BsPreviewModule&#45;&gt;BsResultLinkPreview </title>
<path fill="none" stroke="#000000" stroke-dasharray="5,2" d="M1291.7591,-181C1148.4156,-181 798.9308,-181 798.9308,-181 798.9308,-181 798.9308,-205.7604 798.9308,-205.7604"/>
<polygon fill="#000000" stroke="#000000" points="795.4308,-205.7604 798.9308,-215.7604 802.4308,-205.7604 795.4308,-205.7604"/>
</g>
<!-- BsSimilarDocs  -->
<g id="node34" class="node">
<title>BsSimilarDocs </title>
<polygon fill="#fb8072" stroke="#000000" points="687.2675,-252 582.7325,-252 582.7325,-216 687.2675,-216 687.2675,-252"/>
<text text-anchor="middle" x="635" y="-229.8" font-family="Times,serif" font-size="14.00" fill="#000000">BsSimilarDocs </text>
</g>
<!-- BsPreviewModule&#45;&gt;BsSimilarDocs  -->
<g id="edge33" class="edge">
<title>BsPreviewModule&#45;&gt;BsSimilarDocs </title>
<path fill="none" stroke="#000000" stroke-dasharray="5,2" d="M1291.6118,-179C1122.1312,-179 654.3466,-179 654.3466,-179 654.3466,-179 654.3466,-205.9909 654.3466,-205.9909"/>
<polygon fill="#000000" stroke="#000000" points="650.8467,-205.9909 654.3466,-215.9909 657.8467,-205.991 650.8467,-205.9909"/>
</g>
<!-- BsSimilarDocuments  -->
<g id="node35" class="node">
<title>BsSimilarDocuments </title>
<polygon fill="#fb8072" stroke="#000000" points="564.7632,-252 425.2368,-252 425.2368,-216 564.7632,-216 564.7632,-252"/>
<text text-anchor="middle" x="495" y="-229.8" font-family="Times,serif" font-size="14.00" fill="#000000">BsSimilarDocuments </text>
</g>
<!-- BsPreviewModule&#45;&gt;BsSimilarDocuments  -->
<g id="edge34" class="edge">
<title>BsPreviewModule&#45;&gt;BsSimilarDocuments </title>
<path fill="none" stroke="#000000" stroke-dasharray="5,2" d="M1291.866,-177C1102.2982,-177 529.6804,-177 529.6804,-177 529.6804,-177 529.6804,-205.9648 529.6804,-205.9648"/>
<polygon fill="#000000" stroke="#000000" points="526.1805,-205.9648 529.6804,-215.9648 533.1805,-205.9649 526.1805,-205.9648"/>
</g>
<!-- PreviewModule  -->
<g id="node36" class="node">
<title>PreviewModule </title>
<polygon fill="#fb8072" stroke="#000000" points="407.4194,-252 298.5806,-252 298.5806,-216 407.4194,-216 407.4194,-252"/>
<text text-anchor="middle" x="353" y="-229.8" font-family="Times,serif" font-size="14.00" fill="#000000">PreviewModule </text>
</g>
<!-- BsPreviewModule&#45;&gt;PreviewModule  -->
<g id="edge35" class="edge">
<title>BsPreviewModule&#45;&gt;PreviewModule </title>
<path fill="none" stroke="#000000" stroke-dasharray="5,2" d="M1291.5925,-175C1080.1819,-175 386.3213,-175 386.3213,-175 386.3213,-175 386.3213,-205.9775 386.3213,-205.9775"/>
<polygon fill="#000000" stroke="#000000" points="382.8213,-205.9775 386.3214,-215.9775 389.8213,-205.9774 382.8213,-205.9775"/>
</g>
<!-- BsActionModule -->
<g id="node15" class="node">
<title>BsActionModule</title>
<polygon fill="#8dd3c7" stroke="#000000" points="986.4342,-122 983.4342,-126 962.4342,-126 959.4342,-122 873.5658,-122 873.5658,-86 986.4342,-86 986.4342,-122"/>
<text text-anchor="middle" x="930" y="-99.8" font-family="Times,serif" font-size="14.00" fill="#000000">BsActionModule</text>
</g>
<!-- BsActionModule&#45;&gt;BsPreviewModule -->
<g id="edge14" class="edge">
<title>BsActionModule&#45;&gt;BsPreviewModule</title>
<path fill="none" stroke="#000000" d="M930,-122.2819C930,-137.9478 930,-158 930,-158 930,-158 1281.5377,-158 1281.5377,-158"/>
<polygon fill="#000000" stroke="#000000" points="1281.5377,-161.5001 1291.5377,-158 1281.5377,-154.5001 1281.5377,-161.5001"/>
</g>
<!-- BsFacetModule -->
<g id="node16" class="node">
<title>BsFacetModule</title>
<polygon fill="#8dd3c7" stroke="#000000" points="855.1486,-122 852.1486,-126 831.1486,-126 828.1486,-122 750.8514,-122 750.8514,-86 855.1486,-86 855.1486,-122"/>
<text text-anchor="middle" x="803" y="-99.8" font-family="Times,serif" font-size="14.00" fill="#000000">BsFacetModule</text>
</g>
<!-- BsFacetModule&#45;&gt;BsPreviewModule -->
<g id="edge15" class="edge">
<title>BsFacetModule&#45;&gt;BsPreviewModule</title>
<path fill="none" stroke="#000000" d="M851.2548,-122.027C851.2548,-138.3976 851.2548,-160 851.2548,-160 851.2548,-160 1281.5984,-160 1281.5984,-160"/>
<polygon fill="#000000" stroke="#000000" points="1281.5985,-163.5001 1291.5984,-160 1281.5984,-156.5001 1281.5985,-163.5001"/>
</g>
<!-- BsModalModule -->
<g id="node17" class="node">
<title>BsModalModule</title>
<polygon fill="#8dd3c7" stroke="#000000" points="732.3809,-122 729.3809,-126 708.3809,-126 705.3809,-122 621.6191,-122 621.6191,-86 732.3809,-86 732.3809,-122"/>
<text text-anchor="middle" x="677" y="-99.8" font-family="Times,serif" font-size="14.00" fill="#000000">BsModalModule</text>
</g>
<!-- BsModalModule&#45;&gt;BsPreviewModule -->
<g id="edge16" class="edge">
<title>BsModalModule&#45;&gt;BsPreviewModule</title>
<path fill="none" stroke="#000000" d="M718.6275,-122.0336C718.6275,-139.0597 718.6275,-162 718.6275,-162 718.6275,-162 1281.8428,-162 1281.8428,-162"/>
<polygon fill="#000000" stroke="#000000" points="1281.8429,-165.5001 1291.8428,-162 1281.8428,-158.5001 1281.8429,-165.5001"/>
</g>
<!-- CollapseModule -->
<g id="node18" class="node">
<title>CollapseModule</title>
<polygon fill="#8dd3c7" stroke="#000000" points="603.0424,-122 600.0424,-126 579.0424,-126 576.0424,-122 494.9576,-122 494.9576,-86 603.0424,-86 603.0424,-122"/>
<text text-anchor="middle" x="549" y="-99.8" font-family="Times,serif" font-size="14.00" fill="#000000">CollapseModule</text>
</g>
<!-- CollapseModule&#45;&gt;BsPreviewModule -->
<g id="edge17" class="edge">
<title>CollapseModule&#45;&gt;BsPreviewModule</title>
<path fill="none" stroke="#000000" d="M593.0686,-122.002C593.0686,-139.6754 593.0686,-164 593.0686,-164 593.0686,-164 1281.8136,-164 1281.8136,-164"/>
<polygon fill="#000000" stroke="#000000" points="1281.8136,-167.5001 1291.8136,-164 1281.8135,-160.5001 1281.8136,-167.5001"/>
</g>
<!-- MetadataModule -->
<g id="node19" class="node">
<title>MetadataModule</title>
<polygon fill="#8dd3c7" stroke="#000000" points="476.6346,-122 473.6346,-126 452.6346,-126 449.6346,-122 365.3654,-122 365.3654,-86 476.6346,-86 476.6346,-122"/>
<text text-anchor="middle" x="421" y="-99.8" font-family="Times,serif" font-size="14.00" fill="#000000">MetadataModule</text>
</g>
<!-- MetadataModule&#45;&gt;BsPreviewModule -->
<g id="edge18" class="edge">
<title>MetadataModule&#45;&gt;BsPreviewModule</title>
<path fill="none" stroke="#000000" d="M451.0928,-122.2667C451.0928,-140.5552 451.0928,-166 451.0928,-166 451.0928,-166 1281.8411,-166 1281.8411,-166"/>
<polygon fill="#000000" stroke="#000000" points="1281.8411,-169.5001 1291.8411,-166 1281.841,-162.5001 1281.8411,-169.5001"/>
</g>
<!-- PreviewModule -->
<g id="node20" class="node">
<title>PreviewModule</title>
<polygon fill="#8dd3c7" stroke="#000000" points="346.9202,-122 343.9202,-126 322.9202,-126 319.9202,-122 241.0798,-122 241.0798,-86 346.9202,-86 346.9202,-122"/>
<text text-anchor="middle" x="294" y="-99.8" font-family="Times,serif" font-size="14.00" fill="#000000">PreviewModule</text>
</g>
<!-- PreviewModule&#45;&gt;BsPreviewModule -->
<g id="edge19" class="edge">
<title>PreviewModule&#45;&gt;BsPreviewModule</title>
<path fill="none" stroke="#000000" d="M322.625,-122.1686C322.625,-141.0898 322.625,-168 322.625,-168 322.625,-168 1281.8295,-168 1281.8295,-168"/>
<polygon fill="#000000" stroke="#000000" points="1281.8296,-171.5001 1291.8295,-168 1281.8295,-164.5001 1281.8296,-171.5001"/>
</g>
<!-- ResultModule -->
<g id="node21" class="node">
<title>ResultModule</title>
<polygon fill="#8dd3c7" stroke="#000000" points="223.8274,-122 220.8274,-126 199.8274,-126 196.8274,-122 128.1726,-122 128.1726,-86 223.8274,-86 223.8274,-122"/>
<text text-anchor="middle" x="176" y="-99.8" font-family="Times,serif" font-size="14.00" fill="#000000">ResultModule</text>
</g>
<!-- ResultModule&#45;&gt;BsPreviewModule -->
<g id="edge20" class="edge">
<title>ResultModule&#45;&gt;BsPreviewModule</title>
<path fill="none" stroke="#000000" d="M176,-122.308C176,-142.1455 176,-171 176,-171 176,-171 1281.658,-171 1281.658,-171"/>
<polygon fill="#000000" stroke="#000000" points="1281.658,-174.5001 1291.658,-171 1281.6579,-167.5001 1281.658,-174.5001"/>
</g>
<!-- UtilsModule -->
<g id="node22" class="node">
<title>UtilsModule</title>
<polygon fill="#8dd3c7" stroke="#000000" points="110.2731,-122 107.2731,-126 86.2731,-126 83.2731,-122 23.7269,-122 23.7269,-86 110.2731,-86 110.2731,-122"/>
<text text-anchor="middle" x="67" y="-99.8" font-family="Times,serif" font-size="14.00" fill="#000000">UtilsModule</text>
</g>
<!-- UtilsModule&#45;&gt;BsPreviewModule -->
<g id="edge21" class="edge">
<title>UtilsModule&#45;&gt;BsPreviewModule</title>
<path fill="none" stroke="#000000" d="M67,-122.1289C67,-142.5724 67,-173 67,-173 67,-173 1281.7453,-173 1281.7453,-173"/>
<polygon fill="#000000" stroke="#000000" points="1281.7453,-176.5001 1291.7453,-173 1281.7453,-169.5001 1281.7453,-176.5001"/>
</g>
</g>
</svg>
