<?xml version="1.0" encoding="UTF-8" standalone="no"?>
<!DOCTYPE svg PUBLIC "-//W3C//DTD SVG 1.1//EN"
 "http://www.w3.org/Graphics/SVG/1.1/DTD/svg11.dtd">
<!-- Generated by graphviz version 2.47.3 (20210619.1520)
 -->
<!-- Title: dependencies Pages: 1 -->
<svg width="737pt" height="247pt"
 viewBox="0.00 0.00 737.00 246.80" xmlns="http://www.w3.org/2000/svg" xmlns:xlink="http://www.w3.org/1999/xlink">
<g id="graph0" class="graph" transform="scale(1 1) rotate(0) translate(4 242.8)">
<title>dependencies</title>
<polygon fill="white" stroke="transparent" points="-4,4 -4,-242.8 733,-242.8 733,4 -4,4"/>
<text text-anchor="middle" x="364.5" y="-8.2" font-family="sans-serif" font-size="14.00">dependencies</text>
<g id="clust1" class="cluster">
<title>cluster_BsHeatmapModule</title>
<polygon fill="none" stroke="black" stroke-dasharray="1,5" points="8,-32.8 8,-230.8 721,-230.8 721,-32.8 8,-32.8"/>
</g>
<g id="clust8" class="cluster">
<title>cluster_BsHeatmapModule_exports</title>
<polygon fill="none" stroke="black" points="16,-170.8 16,-222.8 713,-222.8 713,-170.8 16,-170.8"/>
</g>
<g id="clust2" class="cluster">
<title>cluster_BsHeatmapModule_declarations</title>
<polygon fill="none" stroke="black" points="24,-40.8 24,-92.8 708,-92.8 708,-40.8 24,-40.8"/>
</g>
<!-- BsFacetHeatmapComponent -->
<g id="node1" class="node">
<title>BsFacetHeatmapComponent</title>
<polygon fill="#ffffb3" stroke="black" points="700.46,-84.8 523.54,-84.8 523.54,-48.8 700.46,-48.8 700.46,-84.8"/>
<text text-anchor="middle" x="612" y="-62.6" font-family="Times,serif" font-size="14.00">BsFacetHeatmapComponent</text>
</g>
<!-- BsHeatmapModule -->
<g id="node5" class="node">
<title>BsHeatmapModule</title>
<polygon fill="#8dd3c7" stroke="black" points="328.36,-149.8 325.36,-153.8 304.36,-153.8 301.36,-149.8 203.64,-149.8 203.64,-113.8 328.36,-113.8 328.36,-149.8"/>
<text text-anchor="middle" x="266" y="-127.6" font-family="Times,serif" font-size="14.00">BsHeatmapModule</text>
</g>
<!-- BsFacetHeatmapComponent&#45;&gt;BsHeatmapModule -->
<g id="edge1" class="edge">
<title>BsFacetHeatmapComponent&#45;&gt;BsHeatmapModule</title>
<path fill="none" stroke="black" d="M641.91,-85.07C641.91,-103.36 641.91,-128.8 641.91,-128.8 641.91,-128.8 338.5,-128.8 338.5,-128.8"/>
<polygon fill="black" stroke="black" points="338.5,-125.3 328.5,-128.8 338.5,-132.3 338.5,-125.3"/>
</g>
<!-- BsHeatmapComponent -->
<g id="node2" class="node">
<title>BsHeatmapComponent</title>
<polygon fill="#ffffb3" stroke="black" points="505.15,-84.8 358.85,-84.8 358.85,-48.8 505.15,-48.8 505.15,-84.8"/>
<text text-anchor="middle" x="432" y="-62.6" font-family="Times,serif" font-size="14.00">BsHeatmapComponent</text>
</g>
<!-- BsHeatmapComponent&#45;&gt;BsHeatmapModule -->
<g id="edge2" class="edge">
<title>BsHeatmapComponent&#45;&gt;BsHeatmapModule</title>
<path fill="none" stroke="black" d="M456.44,-84.81C456.44,-100.85 456.44,-121.8 456.44,-121.8 456.44,-121.8 338.62,-121.8 338.62,-121.8"/>
<polygon fill="black" stroke="black" points="338.62,-118.3 328.62,-121.8 338.62,-125.3 338.62,-118.3"/>
</g>
<!-- BsResultsHeatmapView -->
<g id="node3" class="node">
<title>BsResultsHeatmapView</title>
<polygon fill="#ffffb3" stroke="black" points="340.35,-84.8 187.65,-84.8 187.65,-48.8 340.35,-48.8 340.35,-84.8"/>
<text text-anchor="middle" x="264" y="-62.6" font-family="Times,serif" font-size="14.00">BsResultsHeatmapView</text>
</g>
<!-- BsResultsHeatmapView&#45;&gt;BsHeatmapModule -->
<g id="edge3" class="edge">
<title>BsResultsHeatmapView&#45;&gt;BsHeatmapModule</title>
<path fill="none" stroke="black" d="M266,-84.91C266,-84.91 266,-103.79 266,-103.79"/>
<polygon fill="black" stroke="black" points="262.5,-103.79 266,-113.79 269.5,-103.79 262.5,-103.79"/>
</g>
<!-- BsTooltipComponent -->
<g id="node4" class="node">
<title>BsTooltipComponent</title>
<polygon fill="#ffffb3" stroke="black" points="169.84,-84.8 32.16,-84.8 32.16,-48.8 169.84,-48.8 169.84,-84.8"/>
<text text-anchor="middle" x="101" y="-62.6" font-family="Times,serif" font-size="14.00">BsTooltipComponent</text>
</g>
<!-- BsTooltipComponent&#45;&gt;BsHeatmapModule -->
<g id="edge4" class="edge">
<title>BsTooltipComponent&#45;&gt;BsHeatmapModule</title>
<path fill="none" stroke="black" d="M120.39,-84.82C120.39,-102.17 120.39,-125.8 120.39,-125.8 120.39,-125.8 193.4,-125.8 193.4,-125.8"/>
<polygon fill="black" stroke="black" points="193.4,-129.3 203.4,-125.8 193.4,-122.3 193.4,-129.3"/>
</g>
<!-- BsFacetHeatmapComponent  -->
<g id="node6" class="node">
<title>BsFacetHeatmapComponent </title>
<polygon fill="#fb8072" stroke="black" points="705.46,-214.8 524.54,-214.8 524.54,-178.8 705.46,-178.8 705.46,-214.8"/>
<text text-anchor="middle" x="615" y="-192.6" font-family="Times,serif" font-size="14.00">BsFacetHeatmapComponent </text>
</g>
<!-- BsHeatmapModule&#45;&gt;BsFacetHeatmapComponent  -->
<g id="edge5" class="edge">
<title>BsHeatmapModule&#45;&gt;BsFacetHeatmapComponent </title>
<path fill="none" stroke="black" stroke-dasharray="5,2" d="M328.7,-135.8C421.18,-135.8 583.34,-135.8 583.34,-135.8 583.34,-135.8 583.34,-168.5 583.34,-168.5"/>
<polygon fill="black" stroke="black" points="579.84,-168.5 583.34,-178.5 586.84,-168.5 579.84,-168.5"/>
</g>
<!-- BsHeatmapComponent  -->
<g id="node7" class="node">
<title>BsHeatmapComponent </title>
<polygon fill="#fb8072" stroke="black" points="507.15,-214.8 356.85,-214.8 356.85,-178.8 507.15,-178.8 507.15,-214.8"/>
<text text-anchor="middle" x="432" y="-192.6" font-family="Times,serif" font-size="14.00">BsHeatmapComponent </text>
</g>
<!-- BsHeatmapModule&#45;&gt;BsHeatmapComponent  -->
<g id="edge6" class="edge">
<title>BsHeatmapModule&#45;&gt;BsHeatmapComponent </title>
<path fill="none" stroke="black" stroke-dasharray="5,2" d="M328.5,-142.8C366.42,-142.8 407.56,-142.8 407.56,-142.8 407.56,-142.8 407.56,-168.52 407.56,-168.52"/>
<polygon fill="black" stroke="black" points="404.06,-168.52 407.56,-178.52 411.06,-168.52 404.06,-168.52"/>
</g>
<!-- BsResultsHeatmapView  -->
<g id="node8" class="node">
<title>BsResultsHeatmapView </title>
<polygon fill="#fb8072" stroke="black" points="339.35,-214.8 182.65,-214.8 182.65,-178.8 339.35,-178.8 339.35,-214.8"/>
<text text-anchor="middle" x="261" y="-192.6" font-family="Times,serif" font-size="14.00">BsResultsHeatmapView </text>
</g>
<!-- BsHeatmapModule&#45;&gt;BsResultsHeatmapView  -->
<g id="edge7" class="edge">
<title>BsHeatmapModule&#45;&gt;BsResultsHeatmapView </title>
<path fill="none" stroke="black" stroke-dasharray="5,2" d="M266,-149.91C266,-149.91 266,-168.79 266,-168.79"/>
<polygon fill="black" stroke="black" points="262.5,-168.79 266,-178.79 269.5,-168.79 262.5,-168.79"/>
</g>
<!-- BsTooltipComponent  -->
<g id="node9" class="node">
<title>BsTooltipComponent </title>
<polygon fill="#fb8072" stroke="black" points="164.34,-214.8 23.66,-214.8 23.66,-178.8 164.34,-178.8 164.34,-214.8"/>
<text text-anchor="middle" x="94" y="-192.6" font-family="Times,serif" font-size="14.00">BsTooltipComponent </text>
</g>
<!-- BsHeatmapModule&#45;&gt;BsTooltipComponent  -->
<g id="edge8" class="edge">
<title>BsHeatmapModule&#45;&gt;BsTooltipComponent </title>
<path fill="none" stroke="black" stroke-dasharray="5,2" d="M203.38,-137.8C148.14,-137.8 76.36,-137.8 76.36,-137.8 76.36,-137.8 76.36,-168.78 76.36,-168.78"/>
<polygon fill="black" stroke="black" points="72.86,-168.78 76.36,-178.78 79.86,-168.78 72.86,-168.78"/>
</g>
</g>
</svg>
