<?xml version="1.0" encoding="UTF-8" standalone="no"?>
<!DOCTYPE svg PUBLIC "-//W3C//DTD SVG 1.1//EN"
 "http://www.w3.org/Graphics/SVG/1.1/DTD/svg11.dtd">
<!-- Generated by graphviz version 2.40.1 (20161225.0304)
 -->
<!-- Title: dependencies Pages: 1 -->
<svg width="737pt" height="284pt"
 viewBox="0.00 0.00 737.00 284.00" xmlns="http://www.w3.org/2000/svg" xmlns:xlink="http://www.w3.org/1999/xlink">
<g id="graph0" class="graph" transform="scale(1 1) rotate(0) translate(4 280)">
<title>dependencies</title>
<polygon fill="#ffffff" stroke="transparent" points="-4,4 -4,-280 733,-280 733,4 -4,4"/>
<text text-anchor="start" x="343.5091" y="-42.4" font-family="sans-serif" font-weight="bold" font-size="14.00" fill="#000000">Legend</text>
<polygon fill="#ffffb3" stroke="transparent" points="130.5,-10 130.5,-30 150.5,-30 150.5,-10 130.5,-10"/>
<text text-anchor="start" x="154.129" y="-15.4" font-family="sans-serif" font-size="14.00" fill="#000000"> &#160;Declarations</text>
<polygon fill="#8dd3c7" stroke="transparent" points="243.5,-10 243.5,-30 263.5,-30 263.5,-10 243.5,-10"/>
<text text-anchor="start" x="267.2251" y="-15.4" font-family="sans-serif" font-size="14.00" fill="#000000"> &#160;Module</text>
<polygon fill="#80b1d3" stroke="transparent" points="329.5,-10 329.5,-30 349.5,-30 349.5,-10 329.5,-10"/>
<text text-anchor="start" x="353.2812" y="-15.4" font-family="sans-serif" font-size="14.00" fill="#000000"> &#160;Bootstrap</text>
<polygon fill="#fdb462" stroke="transparent" points="426.5,-10 426.5,-30 446.5,-30 446.5,-10 426.5,-10"/>
<text text-anchor="start" x="450.1732" y="-15.4" font-family="sans-serif" font-size="14.00" fill="#000000"> &#160;Providers</text>
<polygon fill="#fb8072" stroke="transparent" points="522.5,-10 522.5,-30 542.5,-30 542.5,-10 522.5,-10"/>
<text text-anchor="start" x="546.2258" y="-15.4" font-family="sans-serif" font-size="14.00" fill="#000000"> &#160;Exports</text>
<g id="clust1" class="cluster">
<title>cluster_BsHeatmapModule</title>
<polygon fill="none" stroke="#000000" stroke-dasharray="1,5" points="8,-70 8,-268 721,-268 721,-70 8,-70"/>
</g>
<g id="clust2" class="cluster">
<title>cluster_BsHeatmapModule_declarations</title>
<polygon fill="none" stroke="#000000" points="24,-78 24,-130 708,-130 708,-78 24,-78"/>
</g>
<g id="clust8" class="cluster">
<title>cluster_BsHeatmapModule_exports</title>
<polygon fill="none" stroke="#000000" points="16,-208 16,-260 713,-260 713,-208 16,-208"/>
</g>
<!-- BsFacetHeatmapComponent -->
<g id="node1" class="node">
<title>BsFacetHeatmapComponent</title>
<polygon fill="#ffffb3" stroke="#000000" points="700.4622,-122 523.5378,-122 523.5378,-86 700.4622,-86 700.4622,-122"/>
<text text-anchor="middle" x="612" y="-99.8" font-family="Times,serif" font-size="14.00" fill="#000000">BsFacetHeatmapComponent</text>
</g>
<!-- BsHeatmapModule -->
<g id="node5" class="node">
<title>BsHeatmapModule</title>
<polygon fill="#8dd3c7" stroke="#000000" points="328.3627,-187 325.3627,-191 304.3627,-191 301.3627,-187 203.6373,-187 203.6373,-151 328.3627,-151 328.3627,-187"/>
<text text-anchor="middle" x="266" y="-164.8" font-family="Times,serif" font-size="14.00" fill="#000000">BsHeatmapModule</text>
</g>
<!-- BsFacetHeatmapComponent&#45;&gt;BsHeatmapModule -->
<g id="edge1" class="edge">
<title>BsFacetHeatmapComponent&#45;&gt;BsHeatmapModule</title>
<path fill="none" stroke="#000000" d="M641.9104,-122.2667C641.9104,-140.5552 641.9104,-166 641.9104,-166 641.9104,-166 338.4959,-166 338.4959,-166"/>
<polygon fill="#000000" stroke="#000000" points="338.496,-162.5001 328.4959,-166 338.4959,-169.5001 338.496,-162.5001"/>
</g>
<!-- BsHeatmapComponent -->
<g id="node2" class="node">
<title>BsHeatmapComponent</title>
<polygon fill="#ffffb3" stroke="#000000" points="505.1456,-122 358.8544,-122 358.8544,-86 505.1456,-86 505.1456,-122"/>
<text text-anchor="middle" x="432" y="-99.8" font-family="Times,serif" font-size="14.00" fill="#000000">BsHeatmapComponent</text>
</g>
<!-- BsHeatmapComponent&#45;&gt;BsHeatmapModule -->
<g id="edge2" class="edge">
<title>BsHeatmapComponent&#45;&gt;BsHeatmapModule</title>
<path fill="none" stroke="#000000" d="M456.4409,-122.0091C456.4409,-138.0494 456.4409,-159 456.4409,-159 456.4409,-159 338.6212,-159 338.6212,-159"/>
<polygon fill="#000000" stroke="#000000" points="338.6213,-155.5001 328.6212,-159 338.6212,-162.5001 338.6213,-155.5001"/>
</g>
<!-- BsResultsHeatmapView -->
<g id="node3" class="node">
<title>BsResultsHeatmapView</title>
<polygon fill="#ffffb3" stroke="#000000" points="340.3529,-122 187.6471,-122 187.6471,-86 340.3529,-86 340.3529,-122"/>
<text text-anchor="middle" x="264" y="-99.8" font-family="Times,serif" font-size="14.00" fill="#000000">BsResultsHeatmapView</text>
</g>
<!-- BsResultsHeatmapView&#45;&gt;BsHeatmapModule -->
<g id="edge3" class="edge">
<title>BsResultsHeatmapView&#45;&gt;BsHeatmapModule</title>
<path fill="none" stroke="#000000" d="M266,-122.1061C266,-122.1061 266,-140.991 266,-140.991"/>
<polygon fill="#000000" stroke="#000000" points="262.5001,-140.9909 266,-150.991 269.5001,-140.991 262.5001,-140.9909"/>
</g>
<!-- BsTooltipComponent -->
<g id="node4" class="node">
<title>BsTooltipComponent</title>
<polygon fill="#ffffb3" stroke="#000000" points="169.8384,-122 32.1616,-122 32.1616,-86 169.8384,-86 169.8384,-122"/>
<text text-anchor="middle" x="101" y="-99.8" font-family="Times,serif" font-size="14.00" fill="#000000">BsTooltipComponent</text>
</g>
<!-- BsTooltipComponent&#45;&gt;BsHeatmapModule -->
<g id="edge4" class="edge">
<title>BsTooltipComponent&#45;&gt;BsHeatmapModule</title>
<path fill="none" stroke="#000000" d="M120.3897,-122.0225C120.3897,-139.3734 120.3897,-163 120.3897,-163 120.3897,-163 193.4031,-163 193.4031,-163"/>
<polygon fill="#000000" stroke="#000000" points="193.4031,-166.5001 203.4031,-163 193.403,-159.5001 193.4031,-166.5001"/>
</g>
<!-- BsFacetHeatmapComponent  -->
<g id="node6" class="node">
<title>BsFacetHeatmapComponent </title>
<polygon fill="#fb8072" stroke="#000000" points="705.4628,-252 524.5372,-252 524.5372,-216 705.4628,-216 705.4628,-252"/>
<text text-anchor="middle" x="615" y="-229.8" font-family="Times,serif" font-size="14.00" fill="#000000">BsFacetHeatmapComponent </text>
</g>
<!-- BsHeatmapModule&#45;&gt;BsFacetHeatmapComponent  -->
<g id="edge5" class="edge">
<title>BsHeatmapModule&#45;&gt;BsFacetHeatmapComponent </title>
<path fill="none" stroke="#000000" stroke-dasharray="5,2" d="M328.6961,-173C421.1786,-173 583.3396,-173 583.3396,-173 583.3396,-173 583.3396,-205.698 583.3396,-205.698"/>
<polygon fill="#000000" stroke="#000000" points="579.8397,-205.698 583.3396,-215.698 586.8397,-205.698 579.8397,-205.698"/>
</g>
<!-- BsHeatmapComponent  -->
<g id="node7" class="node">
<title>BsHeatmapComponent </title>
<polygon fill="#fb8072" stroke="#000000" points="507.1453,-252 356.8547,-252 356.8547,-216 507.1453,-216 507.1453,-252"/>
<text text-anchor="middle" x="432" y="-229.8" font-family="Times,serif" font-size="14.00" fill="#000000">BsHeatmapComponent </text>
</g>
<!-- BsHeatmapModule&#45;&gt;BsHeatmapComponent  -->
<g id="edge6" class="edge">
<title>BsHeatmapModule&#45;&gt;BsHeatmapComponent </title>
<path fill="none" stroke="#000000" stroke-dasharray="5,2" d="M328.502,-180C366.4237,-180 407.5591,-180 407.5591,-180 407.5591,-180 407.5591,-205.7181 407.5591,-205.7181"/>
<polygon fill="#000000" stroke="#000000" points="404.0592,-205.718 407.5591,-215.7181 411.0592,-205.7181 404.0592,-205.718"/>
</g>
<!-- BsResultsHeatmapView  -->
<g id="node8" class="node">
<title>BsResultsHeatmapView </title>
<polygon fill="#fb8072" stroke="#000000" points="339.3532,-252 182.6468,-252 182.6468,-216 339.3532,-216 339.3532,-252"/>
<text text-anchor="middle" x="261" y="-229.8" font-family="Times,serif" font-size="14.00" fill="#000000">BsResultsHeatmapView </text>
</g>
<!-- BsHeatmapModule&#45;&gt;BsResultsHeatmapView  -->
<g id="edge7" class="edge">
<title>BsHeatmapModule&#45;&gt;BsResultsHeatmapView </title>
<path fill="none" stroke="#000000" stroke-dasharray="5,2" d="M266,-187.1061C266,-187.1061 266,-205.991 266,-205.991"/>
<polygon fill="#000000" stroke="#000000" points="262.5001,-205.9909 266,-215.991 269.5001,-205.991 262.5001,-205.9909"/>
</g>
<!-- BsTooltipComponent  -->
<g id="node9" class="node">
<title>BsTooltipComponent </title>
<polygon fill="#fb8072" stroke="#000000" points="164.3381,-252 23.6619,-252 23.6619,-216 164.3381,-216 164.3381,-252"/>
<text text-anchor="middle" x="94" y="-229.8" font-family="Times,serif" font-size="14.00" fill="#000000">BsTooltipComponent </text>
</g>
<!-- BsHeatmapModule&#45;&gt;BsTooltipComponent  -->
<g id="edge8" class="edge">
<title>BsHeatmapModule&#45;&gt;BsTooltipComponent </title>
<path fill="none" stroke="#000000" stroke-dasharray="5,2" d="M203.3793,-175C148.1415,-175 76.3603,-175 76.3603,-175 76.3603,-175 76.3603,-205.9775 76.3603,-205.9775"/>
<polygon fill="#000000" stroke="#000000" points="72.8604,-205.9774 76.3603,-215.9775 79.8604,-205.9775 72.8604,-205.9774"/>
</g>
</g>
</svg>
