<?xml version="1.0" encoding="UTF-8" standalone="no"?>
<!DOCTYPE svg PUBLIC "-//W3C//DTD SVG 1.1//EN"
 "http://www.w3.org/Graphics/SVG/1.1/DTD/svg11.dtd">
<!-- Generated by graphviz version 2.47.3 (20210619.1520)
 -->
<!-- Title: dependencies Pages: 1 -->
<svg width="730pt" height="247pt"
 viewBox="0.00 0.00 730.00 246.80" xmlns="http://www.w3.org/2000/svg" xmlns:xlink="http://www.w3.org/1999/xlink">
<g id="graph0" class="graph" transform="scale(1 1) rotate(0) translate(4 242.8)">
<title>dependencies</title>
<polygon fill="white" stroke="transparent" points="-4,4 -4,-242.8 726,-242.8 726,4 -4,4"/>
<text text-anchor="middle" x="361" y="-8.2" font-family="sans-serif" font-size="14.00">dependencies</text>
<g id="clust1" class="cluster">
<title>cluster_BsHeatmapModule</title>
<polygon fill="none" stroke="black" stroke-dasharray="1,5" points="8,-32.8 8,-230.8 714,-230.8 714,-32.8 8,-32.8"/>
</g>
<g id="clust7" class="cluster">
<title>cluster_BsHeatmapModule_exports</title>
<polygon fill="none" stroke="black" points="92,-170.8 92,-222.8 630,-222.8 630,-170.8 92,-170.8"/>
</g>
<g id="clust6" class="cluster">
<title>cluster_BsHeatmapModule_imports</title>
<polygon fill="none" stroke="black" points="552,-40.8 552,-92.8 706,-92.8 706,-40.8 552,-40.8"/>
</g>
<g id="clust2" class="cluster">
<title>cluster_BsHeatmapModule_declarations</title>
<polygon fill="none" stroke="black" points="16,-40.8 16,-92.8 544,-92.8 544,-40.8 16,-40.8"/>
</g>
<!-- BsFacetHeatmapComponent -->
<g id="node1" class="node">
<title>BsFacetHeatmapComponent</title>
<polygon fill="#ffffb3" stroke="black" points="536.46,-84.8 359.54,-84.8 359.54,-48.8 536.46,-48.8 536.46,-84.8"/>
<text text-anchor="middle" x="448" y="-62.6" font-family="Times,serif" font-size="14.00">BsFacetHeatmapComponent</text>
</g>
<!-- BsHeatmapModule -->
<g id="node4" class="node">
<title>BsHeatmapModule</title>
<polygon fill="#8dd3c7" stroke="black" points="411.36,-149.8 408.36,-153.8 387.36,-153.8 384.36,-149.8 286.64,-149.8 286.64,-113.8 411.36,-113.8 411.36,-149.8"/>
<text text-anchor="middle" x="349" y="-127.6" font-family="Times,serif" font-size="14.00">BsHeatmapModule</text>
</g>
<!-- BsFacetHeatmapComponent&#45;&gt;BsHeatmapModule -->
<g id="edge1" class="edge">
<title>BsFacetHeatmapComponent&#45;&gt;BsHeatmapModule</title>
<path fill="none" stroke="black" d="M385.48,-84.91C385.48,-84.91 385.48,-103.79 385.48,-103.79"/>
<polygon fill="black" stroke="black" points="381.98,-103.79 385.48,-113.79 388.98,-103.79 381.98,-103.79"/>
</g>
<!-- BsHeatmapComponent -->
<g id="node2" class="node">
<title>BsHeatmapComponent</title>
<polygon fill="#ffffb3" stroke="black" points="341.15,-84.8 194.85,-84.8 194.85,-48.8 341.15,-48.8 341.15,-84.8"/>
<text text-anchor="middle" x="268" y="-62.6" font-family="Times,serif" font-size="14.00">BsHeatmapComponent</text>
</g>
<!-- BsHeatmapComponent&#45;&gt;BsHeatmapModule -->
<g id="edge2" class="edge">
<title>BsHeatmapComponent&#45;&gt;BsHeatmapModule</title>
<path fill="none" stroke="black" d="M313.95,-84.91C313.95,-84.91 313.95,-103.79 313.95,-103.79"/>
<polygon fill="black" stroke="black" points="310.45,-103.79 313.95,-113.79 317.45,-103.79 310.45,-103.79"/>
</g>
<!-- BsResultsHeatmapView -->
<g id="node3" class="node">
<title>BsResultsHeatmapView</title>
<polygon fill="#ffffb3" stroke="black" points="176.35,-84.8 23.65,-84.8 23.65,-48.8 176.35,-48.8 176.35,-84.8"/>
<text text-anchor="middle" x="100" y="-62.6" font-family="Times,serif" font-size="14.00">BsResultsHeatmapView</text>
</g>
<!-- BsResultsHeatmapView&#45;&gt;BsHeatmapModule -->
<g id="edge3" class="edge">
<title>BsResultsHeatmapView&#45;&gt;BsHeatmapModule</title>
<path fill="none" stroke="black" d="M138.12,-84.82C138.12,-102.17 138.12,-125.8 138.12,-125.8 138.12,-125.8 276.59,-125.8 276.59,-125.8"/>
<polygon fill="black" stroke="black" points="276.59,-129.3 286.59,-125.8 276.59,-122.3 276.59,-129.3"/>
</g>
<!-- BsFacetHeatmapComponent  -->
<g id="node6" class="node">
<title>BsFacetHeatmapComponent </title>
<polygon fill="#fb8072" stroke="black" points="622.46,-214.8 441.54,-214.8 441.54,-178.8 622.46,-178.8 622.46,-214.8"/>
<text text-anchor="middle" x="532" y="-192.6" font-family="Times,serif" font-size="14.00">BsFacetHeatmapComponent </text>
</g>
<!-- BsHeatmapModule&#45;&gt;BsFacetHeatmapComponent  -->
<g id="edge5" class="edge">
<title>BsHeatmapModule&#45;&gt;BsFacetHeatmapComponent </title>
<path fill="none" stroke="black" stroke-dasharray="5,2" d="M411.69,-137.8C448.99,-137.8 489.12,-137.8 489.12,-137.8 489.12,-137.8 489.12,-168.78 489.12,-168.78"/>
<polygon fill="black" stroke="black" points="485.63,-168.78 489.12,-178.78 492.63,-168.78 485.63,-168.78"/>
</g>
<!-- BsHeatmapComponent  -->
<g id="node7" class="node">
<title>BsHeatmapComponent </title>
<polygon fill="#fb8072" stroke="black" points="424.15,-214.8 273.85,-214.8 273.85,-178.8 424.15,-178.8 424.15,-214.8"/>
<text text-anchor="middle" x="349" y="-192.6" font-family="Times,serif" font-size="14.00">BsHeatmapComponent </text>
</g>
<!-- BsHeatmapModule&#45;&gt;BsHeatmapComponent  -->
<g id="edge6" class="edge">
<title>BsHeatmapModule&#45;&gt;BsHeatmapComponent </title>
<path fill="none" stroke="black" stroke-dasharray="5,2" d="M349,-149.91C349,-149.91 349,-168.79 349,-168.79"/>
<polygon fill="black" stroke="black" points="345.5,-168.79 349,-178.79 352.5,-168.79 345.5,-168.79"/>
</g>
<!-- BsResultsHeatmapView  -->
<g id="node8" class="node">
<title>BsResultsHeatmapView </title>
<polygon fill="#fb8072" stroke="black" points="256.35,-214.8 99.65,-214.8 99.65,-178.8 256.35,-178.8 256.35,-214.8"/>
<text text-anchor="middle" x="178" y="-192.6" font-family="Times,serif" font-size="14.00">BsResultsHeatmapView </text>
</g>
<!-- BsHeatmapModule&#45;&gt;BsResultsHeatmapView  -->
<g id="edge7" class="edge">
<title>BsHeatmapModule&#45;&gt;BsResultsHeatmapView </title>
<path fill="none" stroke="black" stroke-dasharray="5,2" d="M286.49,-137.8C255.84,-137.8 225.43,-137.8 225.43,-137.8 225.43,-137.8 225.43,-168.78 225.43,-168.78"/>
<polygon fill="black" stroke="black" points="221.93,-168.78 225.43,-178.78 228.93,-168.78 221.93,-168.78"/>
</g>
<!-- BsTooltipComponent -->
<g id="node5" class="node">
<title>BsTooltipComponent</title>
<polygon fill="#8dd3c7" stroke="black" points="697.84,-84.8 694.84,-88.8 673.84,-88.8 670.84,-84.8 560.16,-84.8 560.16,-48.8 697.84,-48.8 697.84,-84.8"/>
<text text-anchor="middle" x="629" y="-62.6" font-family="Times,serif" font-size="14.00">BsTooltipComponent</text>
</g>
<!-- BsTooltipComponent&#45;&gt;BsHeatmapModule -->
<g id="edge4" class="edge">
<title>BsTooltipComponent&#45;&gt;BsHeatmapModule</title>
<path fill="none" stroke="black" d="M591.28,-84.82C591.28,-102.17 591.28,-125.8 591.28,-125.8 591.28,-125.8 421.39,-125.8 421.39,-125.8"/>
<polygon fill="black" stroke="black" points="421.39,-122.3 411.39,-125.8 421.39,-129.3 421.39,-122.3"/>
</g>
</g>
</svg>
