<?xml version="1.0" encoding="UTF-8" standalone="no"?>
<!DOCTYPE svg PUBLIC "-//W3C//DTD SVG 1.1//EN"
 "http://www.w3.org/Graphics/SVG/1.1/DTD/svg11.dtd">
<!-- Generated by graphviz version 2.40.1 (20161225.0304)
 -->
<!-- Title: dependencies Pages: 1 -->
<svg width="590pt" height="284pt"
 viewBox="0.00 0.00 590.00 284.00" xmlns="http://www.w3.org/2000/svg" xmlns:xlink="http://www.w3.org/1999/xlink">
<g id="graph0" class="graph" transform="scale(1 1) rotate(0) translate(4 280)">
<title>dependencies</title>
<polygon fill="#ffffff" stroke="transparent" points="-4,4 -4,-280 586,-280 586,4 -4,4"/>
<text text-anchor="start" x="270.0091" y="-42.4" font-family="sans-serif" font-weight="bold" font-size="14.00" fill="#000000">Legend</text>
<polygon fill="#ffffb3" stroke="transparent" points="57,-10 57,-30 77,-30 77,-10 57,-10"/>
<text text-anchor="start" x="80.629" y="-15.4" font-family="sans-serif" font-size="14.00" fill="#000000"> &#160;Declarations</text>
<polygon fill="#8dd3c7" stroke="transparent" points="170,-10 170,-30 190,-30 190,-10 170,-10"/>
<text text-anchor="start" x="193.7251" y="-15.4" font-family="sans-serif" font-size="14.00" fill="#000000"> &#160;Module</text>
<polygon fill="#80b1d3" stroke="transparent" points="256,-10 256,-30 276,-30 276,-10 256,-10"/>
<text text-anchor="start" x="279.7812" y="-15.4" font-family="sans-serif" font-size="14.00" fill="#000000"> &#160;Bootstrap</text>
<polygon fill="#fdb462" stroke="transparent" points="353,-10 353,-30 373,-30 373,-10 353,-10"/>
<text text-anchor="start" x="376.6732" y="-15.4" font-family="sans-serif" font-size="14.00" fill="#000000"> &#160;Providers</text>
<polygon fill="#fb8072" stroke="transparent" points="449,-10 449,-30 469,-30 469,-10 449,-10"/>
<text text-anchor="start" x="472.7258" y="-15.4" font-family="sans-serif" font-size="14.00" fill="#000000"> &#160;Exports</text>
<g id="clust1" class="cluster">
<title>cluster_MdModalModule</title>
<polygon fill="none" stroke="#000000" stroke-dasharray="1,5" points="8,-70 8,-268 574,-268 574,-70 8,-70"/>
</g>
<g id="clust2" class="cluster">
<title>cluster_MdModalModule_declarations</title>
<polygon fill="none" stroke="#000000" points="26,-78 26,-130 557,-130 557,-78 26,-78"/>
</g>
<g id="clust9" class="cluster">
<title>cluster_MdModalModule_exports</title>
<polygon fill="none" stroke="#000000" points="16,-208 16,-260 566,-260 566,-208 16,-208"/>
</g>
<!-- MdConfirm -->
<g id="node1" class="node">
<title>MdConfirm</title>
<polygon fill="#ffffb3" stroke="#000000" points="549.3837,-122 466.6163,-122 466.6163,-86 549.3837,-86 549.3837,-122"/>
<text text-anchor="middle" x="508" y="-99.8" font-family="Times,serif" font-size="14.00" fill="#000000">MdConfirm</text>
</g>
<!-- MdModalModule -->
<g id="node6" class="node">
<title>MdModalModule</title>
<polygon fill="#8dd3c7" stroke="#000000" points="383.5451,-187 380.5451,-191 359.5451,-191 356.5451,-187 268.4549,-187 268.4549,-151 383.5451,-151 383.5451,-187"/>
<text text-anchor="middle" x="326" y="-164.8" font-family="Times,serif" font-size="14.00" fill="#000000">MdModalModule</text>
</g>
<!-- MdConfirm&#45;&gt;MdModalModule -->
<g id="edge1" class="edge">
<title>MdConfirm&#45;&gt;MdModalModule</title>
<path fill="none" stroke="#000000" d="M523.5639,-122.0225C523.5639,-139.3734 523.5639,-163 523.5639,-163 523.5639,-163 393.6748,-163 393.6748,-163"/>
<polygon fill="#000000" stroke="#000000" points="393.6748,-159.5001 383.6748,-163 393.6747,-166.5001 393.6748,-159.5001"/>
</g>
<!-- MdLogin -->
<g id="node2" class="node">
<title>MdLogin</title>
<polygon fill="#ffffb3" stroke="#000000" points="448.3879,-122 379.6121,-122 379.6121,-86 448.3879,-86 448.3879,-122"/>
<text text-anchor="middle" x="414" y="-99.8" font-family="Times,serif" font-size="14.00" fill="#000000">MdLogin</text>
</g>
<!-- MdLogin&#45;&gt;MdModalModule -->
<g id="edge2" class="edge">
<title>MdLogin&#45;&gt;MdModalModule</title>
<path fill="none" stroke="#000000" d="M379.5235,-104C374.3883,-104 370.7767,-104 370.7767,-104 370.7767,-104 370.7767,-140.8939 370.7767,-140.8939"/>
<polygon fill="#000000" stroke="#000000" points="367.2767,-140.8938 370.7767,-150.8939 374.2767,-140.8939 367.2767,-140.8938"/>
</g>
<!-- MdModal -->
<g id="node3" class="node">
<title>MdModal</title>
<polygon fill="#ffffb3" stroke="#000000" points="361.9944,-122 290.0056,-122 290.0056,-86 361.9944,-86 361.9944,-122"/>
<text text-anchor="middle" x="326" y="-99.8" font-family="Times,serif" font-size="14.00" fill="#000000">MdModal</text>
</g>
<!-- MdModal&#45;&gt;MdModalModule -->
<g id="edge3" class="edge">
<title>MdModal&#45;&gt;MdModalModule</title>
<path fill="none" stroke="#000000" d="M326,-122.1061C326,-122.1061 326,-140.991 326,-140.991"/>
<polygon fill="#000000" stroke="#000000" points="322.5001,-140.9909 326,-150.991 329.5001,-140.991 322.5001,-140.9909"/>
</g>
<!-- MdModalFooter -->
<g id="node4" class="node">
<title>MdModalFooter</title>
<polygon fill="#ffffb3" stroke="#000000" points="272.0438,-122 163.9562,-122 163.9562,-86 272.0438,-86 272.0438,-122"/>
<text text-anchor="middle" x="218" y="-99.8" font-family="Times,serif" font-size="14.00" fill="#000000">MdModalFooter</text>
</g>
<!-- MdModalFooter&#45;&gt;MdModalModule -->
<g id="edge4" class="edge">
<title>MdModalFooter&#45;&gt;MdModalModule</title>
<path fill="none" stroke="#000000" d="M272.0911,-104C277.5523,-104 281.1371,-104 281.1371,-104 281.1371,-104 281.1371,-140.8939 281.1371,-140.8939"/>
<polygon fill="#000000" stroke="#000000" points="277.6372,-140.8938 281.1371,-150.8939 284.6372,-140.8939 277.6372,-140.8938"/>
</g>
<!-- MdModalHeader -->
<g id="node5" class="node">
<title>MdModalHeader</title>
<polygon fill="#ffffb3" stroke="#000000" points="146.4061,-122 33.5939,-122 33.5939,-86 146.4061,-86 146.4061,-122"/>
<text text-anchor="middle" x="90" y="-99.8" font-family="Times,serif" font-size="14.00" fill="#000000">MdModalHeader</text>
</g>
<!-- MdModalHeader&#45;&gt;MdModalModule -->
<g id="edge5" class="edge">
<title>MdModalHeader&#45;&gt;MdModalModule</title>
<path fill="none" stroke="#000000" d="M104.5676,-122.0225C104.5676,-139.3734 104.5676,-163 104.5676,-163 104.5676,-163 258.3993,-163 258.3993,-163"/>
<polygon fill="#000000" stroke="#000000" points="258.3993,-166.5001 268.3993,-163 258.3992,-159.5001 258.3993,-166.5001"/>
</g>
<!-- MdConfirm  -->
<g id="node7" class="node">
<title>MdConfirm </title>
<polygon fill="#fb8072" stroke="#000000" points="558.3845,-252 471.6155,-252 471.6155,-216 558.3845,-216 558.3845,-252"/>
<text text-anchor="middle" x="515" y="-229.8" font-family="Times,serif" font-size="14.00" fill="#000000">MdConfirm </text>
</g>
<!-- MdModalModule&#45;&gt;MdConfirm  -->
<g id="edge6" class="edge">
<title>MdModalModule&#45;&gt;MdConfirm </title>
<path fill="none" stroke="#000000" stroke-dasharray="5,2" d="M383.6466,-175C433.5232,-175 497.6861,-175 497.6861,-175 497.6861,-175 497.6861,-205.9775 497.6861,-205.9775"/>
<polygon fill="#000000" stroke="#000000" points="494.1862,-205.9774 497.6861,-215.9775 501.1862,-205.9775 494.1862,-205.9774"/>
</g>
<!-- MdLogin  -->
<g id="node8" class="node">
<title>MdLogin </title>
<polygon fill="#fb8072" stroke="#000000" points="454.3888,-252 381.6112,-252 381.6112,-216 454.3888,-216 454.3888,-252"/>
<text text-anchor="middle" x="418" y="-229.8" font-family="Times,serif" font-size="14.00" fill="#000000">MdLogin </text>
</g>
<!-- MdModalModule&#45;&gt;MdLogin  -->
<g id="edge7" class="edge">
<title>MdModalModule&#45;&gt;MdLogin </title>
<path fill="none" stroke="#000000" stroke-dasharray="5,2" d="M372.7767,-187.1061C372.7767,-206.3391 372.7767,-234 372.7767,-234 372.7767,-234 373.6486,-234 373.6486,-234"/>
<polygon fill="#000000" stroke="#000000" points="371.4962,-237.5001 381.4962,-234 371.4961,-230.5001 371.4962,-237.5001"/>
</g>
<!-- MdModal  -->
<g id="node9" class="node">
<title>MdModal </title>
<polygon fill="#fb8072" stroke="#000000" points="363.996,-252 288.004,-252 288.004,-216 363.996,-216 363.996,-252"/>
<text text-anchor="middle" x="326" y="-229.8" font-family="Times,serif" font-size="14.00" fill="#000000">MdModal </text>
</g>
<!-- MdModalModule&#45;&gt;MdModal  -->
<g id="edge8" class="edge">
<title>MdModalModule&#45;&gt;MdModal </title>
<path fill="none" stroke="#000000" stroke-dasharray="5,2" d="M326,-187.1061C326,-187.1061 326,-205.991 326,-205.991"/>
<polygon fill="#000000" stroke="#000000" points="322.5001,-205.9909 326,-215.991 329.5001,-205.991 322.5001,-205.9909"/>
</g>
<!-- MdModalFooter  -->
<g id="node10" class="node">
<title>MdModalFooter </title>
<polygon fill="#fb8072" stroke="#000000" points="270.0428,-252 157.9572,-252 157.9572,-216 270.0428,-216 270.0428,-252"/>
<text text-anchor="middle" x="214" y="-229.8" font-family="Times,serif" font-size="14.00" fill="#000000">MdModalFooter </text>
</g>
<!-- MdModalModule&#45;&gt;MdModalFooter  -->
<g id="edge9" class="edge">
<title>MdModalModule&#45;&gt;MdModalFooter </title>
<path fill="none" stroke="#000000" stroke-dasharray="5,2" d="M279.1371,-187.1061C279.1371,-206.3391 279.1371,-234 279.1371,-234 279.1371,-234 278.2314,-234 278.2314,-234"/>
<polygon fill="#000000" stroke="#000000" points="280.0801,-230.5001 270.0801,-234 280.08,-237.5001 280.0801,-230.5001"/>
</g>
<!-- MdModalHeader  -->
<g id="node11" class="node">
<title>MdModalHeader </title>
<polygon fill="#fb8072" stroke="#000000" points="139.9054,-252 24.0946,-252 24.0946,-216 139.9054,-216 139.9054,-252"/>
<text text-anchor="middle" x="82" y="-229.8" font-family="Times,serif" font-size="14.00" fill="#000000">MdModalHeader </text>
</g>
<!-- MdModalModule&#45;&gt;MdModalHeader  -->
<g id="edge10" class="edge">
<title>MdModalModule&#45;&gt;MdModalHeader </title>
<path fill="none" stroke="#000000" stroke-dasharray="5,2" d="M268.3651,-175C192.6468,-175 69.1824,-175 69.1824,-175 69.1824,-175 69.1824,-205.9775 69.1824,-205.9775"/>
<polygon fill="#000000" stroke="#000000" points="65.6825,-205.9774 69.1824,-215.9775 72.6825,-205.9775 65.6825,-205.9774"/>
</g>
</g>
</svg>
