<?xml version="1.0" encoding="UTF-8" standalone="no"?>
<!DOCTYPE svg PUBLIC "-//W3C//DTD SVG 1.1//EN"
 "http://www.w3.org/Graphics/SVG/1.1/DTD/svg11.dtd">
<!-- Generated by graphviz version 2.47.3 (20210619.1520)
 -->
<!-- Title: dependencies Pages: 1 -->
<svg width="340pt" height="247pt"
 viewBox="0.00 0.00 340.00 246.80" xmlns="http://www.w3.org/2000/svg" xmlns:xlink="http://www.w3.org/1999/xlink">
<g id="graph0" class="graph" transform="scale(1 1) rotate(0) translate(4 242.8)">
<title>dependencies</title>
<polygon fill="white" stroke="transparent" points="-4,4 -4,-242.8 336,-242.8 336,4 -4,4"/>
<text text-anchor="middle" x="166" y="-8.2" font-family="sans-serif" font-size="14.00">dependencies</text>
<g id="clust1" class="cluster">
<title>cluster_BsThemeToggleModule</title>
<polygon fill="none" stroke="black" stroke-dasharray="1,5" points="8,-32.8 8,-230.8 324,-230.8 324,-32.8 8,-32.8"/>
</g>
<g id="clust4" class="cluster">
<title>cluster_BsThemeToggleModule_imports</title>
<polygon fill="none" stroke="black" points="214,-40.8 214,-92.8 316,-92.8 316,-40.8 214,-40.8"/>
</g>
<g id="clust5" class="cluster">
<title>cluster_BsThemeToggleModule_exports</title>
<polygon fill="none" stroke="black" points="69,-170.8 69,-222.8 263,-222.8 263,-170.8 69,-170.8"/>
</g>
<g id="clust2" class="cluster">
<title>cluster_BsThemeToggleModule_declarations</title>
<polygon fill="none" stroke="black" points="16,-40.8 16,-92.8 206,-92.8 206,-40.8 16,-40.8"/>
</g>
<!-- BsThemeToggleComponent -->
<g id="node1" class="node">
<title>BsThemeToggleComponent</title>
<polygon fill="#ffffb3" stroke="black" points="198.14,-84.8 23.86,-84.8 23.86,-48.8 198.14,-48.8 198.14,-84.8"/>
<text text-anchor="middle" x="111" y="-62.6" font-family="Times,serif" font-size="14.00">BsThemeToggleComponent</text>
</g>
<!-- BsThemeToggleModule -->
<g id="node2" class="node">
<title>BsThemeToggleModule</title>
<polygon fill="#8dd3c7" stroke="black" points="242.36,-149.8 239.36,-153.8 218.36,-153.8 215.36,-149.8 89.64,-149.8 89.64,-113.8 242.36,-113.8 242.36,-149.8"/>
<text text-anchor="middle" x="166" y="-127.6" font-family="Times,serif" font-size="14.00">BsThemeToggleModule</text>
</g>
<!-- BsThemeToggleComponent&#45;&gt;BsThemeToggleModule -->
<g id="edge1" class="edge">
<title>BsThemeToggleComponent&#45;&gt;BsThemeToggleModule</title>
<path fill="none" stroke="black" d="M143.95,-84.91C143.95,-84.91 143.95,-103.79 143.95,-103.79"/>
<polygon fill="black" stroke="black" points="140.45,-103.79 143.95,-113.79 147.45,-103.79 140.45,-103.79"/>
</g>
<!-- BsThemeToggleComponent  -->
<g id="node4" class="node">
<title>BsThemeToggleComponent </title>
<polygon fill="#fb8072" stroke="black" points="255.14,-214.8 76.86,-214.8 76.86,-178.8 255.14,-178.8 255.14,-214.8"/>
<text text-anchor="middle" x="166" y="-192.6" font-family="Times,serif" font-size="14.00">BsThemeToggleComponent </text>
</g>
<!-- BsThemeToggleModule&#45;&gt;BsThemeToggleComponent  -->
<g id="edge3" class="edge">
<title>BsThemeToggleModule&#45;&gt;BsThemeToggleComponent </title>
<path fill="none" stroke="black" stroke-dasharray="5,2" d="M166,-149.91C166,-149.91 166,-168.79 166,-168.79"/>
<polygon fill="black" stroke="black" points="162.5,-168.79 166,-178.79 169.5,-168.79 162.5,-168.79"/>
</g>
<!-- UtilsModule -->
<g id="node3" class="node">
<title>UtilsModule</title>
<polygon fill="#8dd3c7" stroke="black" points="308.27,-84.8 305.27,-88.8 284.27,-88.8 281.27,-84.8 221.73,-84.8 221.73,-48.8 308.27,-48.8 308.27,-84.8"/>
<text text-anchor="middle" x="265" y="-62.6" font-family="Times,serif" font-size="14.00">UtilsModule</text>
</g>
<!-- UtilsModule&#45;&gt;BsThemeToggleModule -->
<g id="edge2" class="edge">
<title>UtilsModule&#45;&gt;BsThemeToggleModule</title>
<path fill="none" stroke="black" d="M232.02,-84.91C232.02,-84.91 232.02,-103.79 232.02,-103.79"/>
<polygon fill="black" stroke="black" points="228.52,-103.79 232.02,-113.79 235.52,-103.79 228.52,-103.79"/>
</g>
</g>
</svg>
