<?xml version="1.0" encoding="UTF-8" standalone="no"?>
<!DOCTYPE svg PUBLIC "-//W3C//DTD SVG 1.1//EN"
 "http://www.w3.org/Graphics/SVG/1.1/DTD/svg11.dtd">
<!-- Generated by graphviz version 2.40.1 (20161225.0304)
 -->
<!-- Title: dependencies Pages: 1 -->
<svg width="781pt" height="284pt"
 viewBox="0.00 0.00 781.00 284.00" xmlns="http://www.w3.org/2000/svg" xmlns:xlink="http://www.w3.org/1999/xlink">
<g id="graph0" class="graph" transform="scale(1 1) rotate(0) translate(4 280)">
<title>dependencies</title>
<polygon fill="#ffffff" stroke="transparent" points="-4,4 -4,-280 777,-280 777,4 -4,4"/>
<text text-anchor="start" x="365.5091" y="-42.4" font-family="sans-serif" font-weight="bold" font-size="14.00" fill="#000000">Legend</text>
<polygon fill="#ffffb3" stroke="transparent" points="152.5,-10 152.5,-30 172.5,-30 172.5,-10 152.5,-10"/>
<text text-anchor="start" x="176.129" y="-15.4" font-family="sans-serif" font-size="14.00" fill="#000000"> &#160;Declarations</text>
<polygon fill="#8dd3c7" stroke="transparent" points="265.5,-10 265.5,-30 285.5,-30 285.5,-10 265.5,-10"/>
<text text-anchor="start" x="289.2251" y="-15.4" font-family="sans-serif" font-size="14.00" fill="#000000"> &#160;Module</text>
<polygon fill="#80b1d3" stroke="transparent" points="351.5,-10 351.5,-30 371.5,-30 371.5,-10 351.5,-10"/>
<text text-anchor="start" x="375.2812" y="-15.4" font-family="sans-serif" font-size="14.00" fill="#000000"> &#160;Bootstrap</text>
<polygon fill="#fdb462" stroke="transparent" points="448.5,-10 448.5,-30 468.5,-30 468.5,-10 448.5,-10"/>
<text text-anchor="start" x="472.1732" y="-15.4" font-family="sans-serif" font-size="14.00" fill="#000000"> &#160;Providers</text>
<polygon fill="#fb8072" stroke="transparent" points="544.5,-10 544.5,-30 564.5,-30 564.5,-10 544.5,-10"/>
<text text-anchor="start" x="568.2258" y="-15.4" font-family="sans-serif" font-size="14.00" fill="#000000"> &#160;Exports</text>
<g id="clust1" class="cluster">
<title>cluster_BsTimelineModule</title>
<polygon fill="none" stroke="#000000" stroke-dasharray="1,5" points="8,-70 8,-268 765,-268 765,-70 8,-70"/>
</g>
<g id="clust2" class="cluster">
<title>cluster_BsTimelineModule_declarations</title>
<polygon fill="none" stroke="#000000" points="400,-78 400,-130 757,-130 757,-78 400,-78"/>
</g>
<g id="clust5" class="cluster">
<title>cluster_BsTimelineModule_imports</title>
<polygon fill="none" stroke="#000000" points="16,-78 16,-130 392,-130 392,-78 16,-78"/>
</g>
<g id="clust6" class="cluster">
<title>cluster_BsTimelineModule_exports</title>
<polygon fill="none" stroke="#000000" points="154,-208 154,-260 518,-260 518,-208 154,-208"/>
</g>
<!-- BsFacetTimelineComponent -->
<g id="node1" class="node">
<title>BsFacetTimelineComponent</title>
<polygon fill="#ffffb3" stroke="#000000" points="749.4748,-122 572.5252,-122 572.5252,-86 749.4748,-86 749.4748,-122"/>
<text text-anchor="middle" x="661" y="-99.8" font-family="Times,serif" font-size="14.00" fill="#000000">BsFacetTimelineComponent</text>
</g>
<!-- BsTimelineModule -->
<g id="node3" class="node">
<title>BsTimelineModule</title>
<polygon fill="#8dd3c7" stroke="#000000" points="390.3753,-187 387.3753,-191 366.3753,-191 363.3753,-187 265.6247,-187 265.6247,-151 390.3753,-151 390.3753,-187"/>
<text text-anchor="middle" x="328" y="-164.8" font-family="Times,serif" font-size="14.00" fill="#000000">BsTimelineModule</text>
</g>
<!-- BsFacetTimelineComponent&#45;&gt;BsTimelineModule -->
<g id="edge1" class="edge">
<title>BsFacetTimelineComponent&#45;&gt;BsTimelineModule</title>
<path fill="none" stroke="#000000" d="M661,-122.2843C661,-143.3211 661,-175 661,-175 661,-175 400.6348,-175 400.6348,-175"/>
<polygon fill="#000000" stroke="#000000" points="400.6348,-171.5001 390.6348,-175 400.6347,-178.5001 400.6348,-171.5001"/>
</g>
<!-- BsTimelineComponent -->
<g id="node2" class="node">
<title>BsTimelineComponent</title>
<polygon fill="#ffffb3" stroke="#000000" points="554.1582,-122 407.8418,-122 407.8418,-86 554.1582,-86 554.1582,-122"/>
<text text-anchor="middle" x="481" y="-99.8" font-family="Times,serif" font-size="14.00" fill="#000000">BsTimelineComponent</text>
</g>
<!-- BsTimelineComponent&#45;&gt;BsTimelineModule -->
<g id="edge2" class="edge">
<title>BsTimelineComponent&#45;&gt;BsTimelineModule</title>
<path fill="none" stroke="#000000" d="M458.9543,-122.0225C458.9543,-139.3734 458.9543,-163 458.9543,-163 458.9543,-163 400.4089,-163 400.4089,-163"/>
<polygon fill="#000000" stroke="#000000" points="400.4089,-159.5001 390.4089,-163 400.4088,-166.5001 400.4089,-159.5001"/>
</g>
<!-- BsFacetTimelineComponent  -->
<g id="node7" class="node">
<title>BsFacetTimelineComponent </title>
<polygon fill="#fb8072" stroke="#000000" points="510.4754,-252 329.5246,-252 329.5246,-216 510.4754,-216 510.4754,-252"/>
<text text-anchor="middle" x="420" y="-229.8" font-family="Times,serif" font-size="14.00" fill="#000000">BsFacetTimelineComponent </text>
</g>
<!-- BsTimelineModule&#45;&gt;BsFacetTimelineComponent  -->
<g id="edge6" class="edge">
<title>BsTimelineModule&#45;&gt;BsFacetTimelineComponent </title>
<path fill="none" stroke="#000000" stroke-dasharray="5,2" d="M360.1001,-187.1061C360.1001,-187.1061 360.1001,-205.991 360.1001,-205.991"/>
<polygon fill="#000000" stroke="#000000" points="356.6002,-205.9909 360.1001,-215.991 363.6002,-205.991 356.6002,-205.9909"/>
</g>
<!-- BsTimelineComponent  -->
<g id="node8" class="node">
<title>BsTimelineComponent </title>
<polygon fill="#fb8072" stroke="#000000" points="312.1579,-252 161.8421,-252 161.8421,-216 312.1579,-216 312.1579,-252"/>
<text text-anchor="middle" x="237" y="-229.8" font-family="Times,serif" font-size="14.00" fill="#000000">BsTimelineComponent </text>
</g>
<!-- BsTimelineModule&#45;&gt;BsTimelineComponent  -->
<g id="edge7" class="edge">
<title>BsTimelineModule&#45;&gt;BsTimelineComponent </title>
<path fill="none" stroke="#000000" stroke-dasharray="5,2" d="M288.8207,-187.1061C288.8207,-187.1061 288.8207,-205.991 288.8207,-205.991"/>
<polygon fill="#000000" stroke="#000000" points="285.3207,-205.9909 288.8207,-215.991 292.3207,-205.991 285.3207,-205.9909"/>
</g>
<!-- BsActionModule -->
<g id="node4" class="node">
<title>BsActionModule</title>
<polygon fill="#8dd3c7" stroke="#000000" points="384.4342,-122 381.4342,-126 360.4342,-126 357.4342,-122 271.5658,-122 271.5658,-86 384.4342,-86 384.4342,-122"/>
<text text-anchor="middle" x="328" y="-99.8" font-family="Times,serif" font-size="14.00" fill="#000000">BsActionModule</text>
</g>
<!-- BsActionModule&#45;&gt;BsTimelineModule -->
<g id="edge3" class="edge">
<title>BsActionModule&#45;&gt;BsTimelineModule</title>
<path fill="none" stroke="#000000" d="M328,-122.1061C328,-122.1061 328,-140.991 328,-140.991"/>
<polygon fill="#000000" stroke="#000000" points="324.5001,-140.9909 328,-150.991 331.5001,-140.991 324.5001,-140.9909"/>
</g>
<!-- BsHeatmapModule -->
<g id="node5" class="node">
<title>BsHeatmapModule</title>
<polygon fill="#8dd3c7" stroke="#000000" points="253.3627,-122 250.3627,-126 229.3627,-126 226.3627,-122 128.6373,-122 128.6373,-86 253.3627,-86 253.3627,-122"/>
<text text-anchor="middle" x="191" y="-99.8" font-family="Times,serif" font-size="14.00" fill="#000000">BsHeatmapModule</text>
</g>
<!-- BsHeatmapModule&#45;&gt;BsTimelineModule -->
<g id="edge4" class="edge">
<title>BsHeatmapModule&#45;&gt;BsTimelineModule</title>
<path fill="none" stroke="#000000" d="M207.6762,-122.0225C207.6762,-139.3734 207.6762,-163 207.6762,-163 207.6762,-163 255.3711,-163 255.3711,-163"/>
<polygon fill="#000000" stroke="#000000" points="255.3712,-166.5001 265.3711,-163 255.3711,-159.5001 255.3712,-166.5001"/>
</g>
<!-- UtilsModule -->
<g id="node6" class="node">
<title>UtilsModule</title>
<polygon fill="#8dd3c7" stroke="#000000" points="110.2731,-122 107.2731,-126 86.2731,-126 83.2731,-122 23.7269,-122 23.7269,-86 110.2731,-86 110.2731,-122"/>
<text text-anchor="middle" x="67" y="-99.8" font-family="Times,serif" font-size="14.00" fill="#000000">UtilsModule</text>
</g>
<!-- UtilsModule&#45;&gt;BsTimelineModule -->
<g id="edge5" class="edge">
<title>UtilsModule&#45;&gt;BsTimelineModule</title>
<path fill="none" stroke="#000000" d="M67,-122.2843C67,-143.3211 67,-175 67,-175 67,-175 255.484,-175 255.484,-175"/>
<polygon fill="#000000" stroke="#000000" points="255.484,-178.5001 265.484,-175 255.484,-171.5001 255.484,-178.5001"/>
</g>
</g>
</svg>
