<?xml version="1.0" encoding="UTF-8" standalone="no"?>
<!DOCTYPE svg PUBLIC "-//W3C//DTD SVG 1.1//EN"
 "http://www.w3.org/Graphics/SVG/1.1/DTD/svg11.dtd">
<!-- Generated by graphviz version 2.47.3 (20210619.1520)
 -->
<!-- Title: dependencies Pages: 1 -->
<svg width="4089pt" height="247pt"
 viewBox="0.00 0.00 4089.00 246.80" xmlns="http://www.w3.org/2000/svg" xmlns:xlink="http://www.w3.org/1999/xlink">
<g id="graph0" class="graph" transform="scale(1 1) rotate(0) translate(4 242.8)">
<title>dependencies</title>
<polygon fill="white" stroke="transparent" points="-4,4 -4,-242.8 4085,-242.8 4085,4 -4,4"/>
<text text-anchor="middle" x="2040.5" y="-8.2" font-family="sans-serif" font-size="14.00">dependencies</text>
<g id="clust1" class="cluster">
<title>cluster_AgGridModule</title>
<polygon fill="none" stroke="black" stroke-dasharray="1,5" points="8,-32.8 8,-230.8 535,-230.8 535,-32.8 8,-32.8"/>
</g>
<g id="clust2" class="cluster">
<title>cluster_AgGridModule_declarations</title>
<polygon fill="none" stroke="black" points="16,-40.8 16,-92.8 527,-92.8 527,-40.8 16,-40.8"/>
</g>
<g id="clust7" class="cluster">
<title>cluster_AgGridModule_exports</title>
<polygon fill="none" stroke="black" points="190,-170.8 190,-222.8 364,-222.8 364,-170.8 190,-170.8"/>
</g>
<g id="clust10" class="cluster">
<title>cluster_BsHeatmapModule</title>
<polygon fill="none" stroke="black" stroke-dasharray="1,5" points="543,-32.8 543,-230.8 1249,-230.8 1249,-32.8 543,-32.8"/>
</g>
<g id="clust11" class="cluster">
<title>cluster_BsHeatmapModule_declarations</title>
<polygon fill="none" stroke="black" points="551,-40.8 551,-92.8 1079,-92.8 1079,-40.8 551,-40.8"/>
</g>
<g id="clust15" class="cluster">
<title>cluster_BsHeatmapModule_imports</title>
<polygon fill="none" stroke="black" points="1087,-40.8 1087,-92.8 1241,-92.8 1241,-40.8 1087,-40.8"/>
</g>
<g id="clust16" class="cluster">
<title>cluster_BsHeatmapModule_exports</title>
<polygon fill="none" stroke="black" points="627,-170.8 627,-222.8 1165,-222.8 1165,-170.8 627,-170.8"/>
</g>
<g id="clust19" class="cluster">
<title>cluster_BsTimelineModule</title>
<polygon fill="none" stroke="black" stroke-dasharray="1,5" points="1257,-32.8 1257,-230.8 1943,-230.8 1943,-32.8 1257,-32.8"/>
</g>
<g id="clust20" class="cluster">
<title>cluster_BsTimelineModule_declarations</title>
<polygon fill="none" stroke="black" points="1273,-40.8 1273,-92.8 1927,-92.8 1927,-40.8 1273,-40.8"/>
</g>
<g id="clust26" class="cluster">
<title>cluster_BsTimelineModule_exports</title>
<polygon fill="none" stroke="black" points="1265,-170.8 1265,-222.8 1935,-222.8 1935,-170.8 1265,-170.8"/>
</g>
<g id="clust29" class="cluster">
<title>cluster_FinanceModule</title>
<polygon fill="none" stroke="black" stroke-dasharray="1,5" points="1951,-32.8 1951,-230.8 2335,-230.8 2335,-32.8 1951,-32.8"/>
</g>
<g id="clust30" class="cluster">
<title>cluster_FinanceModule_declarations</title>
<polygon fill="none" stroke="black" points="1960,-40.8 1960,-92.8 2321,-92.8 2321,-40.8 1960,-40.8"/>
</g>
<g id="clust34" class="cluster">
<title>cluster_FinanceModule_exports</title>
<polygon fill="none" stroke="black" points="1959,-170.8 1959,-222.8 2327,-222.8 2327,-170.8 1959,-170.8"/>
</g>
<g id="clust37" class="cluster">
<title>cluster_FusionChartsModule</title>
<polygon fill="none" stroke="black" stroke-dasharray="1,5" points="2343,-32.8 2343,-230.8 2777,-230.8 2777,-32.8 2343,-32.8"/>
</g>
<g id="clust38" class="cluster">
<title>cluster_FusionChartsModule_declarations</title>
<polygon fill="none" stroke="black" points="2355,-40.8 2355,-92.8 2763,-92.8 2763,-40.8 2355,-40.8"/>
</g>
<g id="clust43" class="cluster">
<title>cluster_FusionChartsModule_exports</title>
<polygon fill="none" stroke="black" points="2351,-170.8 2351,-222.8 2769,-222.8 2769,-170.8 2351,-170.8"/>
</g>
<g id="clust46" class="cluster">
<title>cluster_GoogleMapsModule</title>
<polygon fill="none" stroke="black" stroke-dasharray="1,5" points="2785,-32.8 2785,-230.8 2933,-230.8 2933,-32.8 2785,-32.8"/>
</g>
<g id="clust47" class="cluster">
<title>cluster_GoogleMapsModule_declarations</title>
<polygon fill="none" stroke="black" points="2798,-40.8 2798,-92.8 2920,-92.8 2920,-40.8 2798,-40.8"/>
</g>
<g id="clust50" class="cluster">
<title>cluster_GoogleMapsModule_exports</title>
<polygon fill="none" stroke="black" points="2796,-170.8 2796,-222.8 2922,-222.8 2922,-170.8 2796,-170.8"/>
</g>
<g id="clust53" class="cluster">
<title>cluster_NetworkModule</title>
<polygon fill="none" stroke="black" stroke-dasharray="1,5" points="2941,-32.8 2941,-230.8 3529,-230.8 3529,-32.8 2941,-32.8"/>
</g>
<g id="clust54" class="cluster">
<title>cluster_NetworkModule_declarations</title>
<polygon fill="none" stroke="black" points="2956,-40.8 2956,-92.8 3514,-92.8 3514,-40.8 2956,-40.8"/>
</g>
<g id="clust60" class="cluster">
<title>cluster_NetworkModule_exports</title>
<polygon fill="none" stroke="black" points="2949,-170.8 2949,-222.8 3521,-222.8 3521,-170.8 2949,-170.8"/>
</g>
<g id="clust63" class="cluster">
<title>cluster_NgxChartsModule</title>
<polygon fill="none" stroke="black" stroke-dasharray="1,5" points="3537,-32.8 3537,-230.8 3767,-230.8 3767,-32.8 3537,-32.8"/>
</g>
<g id="clust64" class="cluster">
<title>cluster_NgxChartsModule_declarations</title>
<polygon fill="none" stroke="black" points="3548,-40.8 3548,-92.8 3755,-92.8 3755,-40.8 3548,-40.8"/>
</g>
<g id="clust68" class="cluster">
<title>cluster_NgxChartsModule_exports</title>
<polygon fill="none" stroke="black" points="3545,-170.8 3545,-222.8 3759,-222.8 3759,-170.8 3545,-170.8"/>
</g>
<g id="clust71" class="cluster">
<title>cluster_VisTimelineModule</title>
<polygon fill="none" stroke="black" stroke-dasharray="1,5" points="3775,-32.8 3775,-230.8 4073,-230.8 4073,-32.8 3775,-32.8"/>
</g>
<g id="clust72" class="cluster">
<title>cluster_VisTimelineModule_declarations</title>
<polygon fill="none" stroke="black" points="3787,-40.8 3787,-92.8 4061,-92.8 4061,-40.8 3787,-40.8"/>
</g>
<g id="clust76" class="cluster">
<title>cluster_VisTimelineModule_exports</title>
<polygon fill="none" stroke="black" points="3783,-170.8 3783,-222.8 4065,-222.8 4065,-170.8 3783,-170.8"/>
</g>
<!-- AgGridViewComponent -->
<g id="node1" class="node">
<title>AgGridViewComponent</title>
<polygon fill="#ffffb3" stroke="black" points="178.42,-84.8 23.58,-84.8 23.58,-48.8 178.42,-48.8 178.42,-84.8"/>
<text text-anchor="middle" x="101" y="-62.6" font-family="Times,serif" font-size="14.00">AgGridViewComponent</text>
</g>
<!-- AgGridModule -->
<g id="node4" class="node">
<title>AgGridModule</title>
<polygon fill="#8dd3c7" stroke="black" points="328.31,-149.8 325.31,-153.8 304.31,-153.8 301.31,-149.8 225.69,-149.8 225.69,-113.8 328.31,-113.8 328.31,-149.8"/>
<text text-anchor="middle" x="277" y="-127.6" font-family="Times,serif" font-size="14.00">AgGridModule</text>
</g>
<!-- AgGridViewComponent&#45;&gt;AgGridModule -->
<g id="edge1" class="edge">
<title>AgGridViewComponent&#45;&gt;AgGridModule</title>
<path fill="none" stroke="black" d="M101,-84.91C101,-104.14 101,-131.8 101,-131.8 101,-131.8 215.62,-131.8 215.62,-131.8"/>
<polygon fill="black" stroke="black" points="215.62,-135.3 225.62,-131.8 215.62,-128.3 215.62,-135.3"/>
</g>
<!-- DataModalComponent -->
<g id="node2" class="node">
<title>DataModalComponent</title>
<polygon fill="#ffffb3" stroke="black" points="519.31,-84.8 374.69,-84.8 374.69,-48.8 519.31,-48.8 519.31,-84.8"/>
<text text-anchor="middle" x="447" y="-62.6" font-family="Times,serif" font-size="14.00">DataModalComponent</text>
</g>
<!-- DataModalComponent&#45;&gt;AgGridModule -->
<g id="edge2" class="edge">
<title>DataModalComponent&#45;&gt;AgGridModule</title>
<path fill="none" stroke="black" d="M447,-85.09C447,-107.01 447,-140.8 447,-140.8 447,-140.8 338.47,-140.8 338.47,-140.8"/>
<polygon fill="black" stroke="black" points="338.47,-137.3 328.47,-140.8 338.47,-144.3 338.47,-137.3"/>
</g>
<!-- FacetWrapperComponent -->
<g id="node3" class="node">
<title>FacetWrapperComponent</title>
<polygon fill="#ffffb3" stroke="black" points="357.11,-84.8 196.89,-84.8 196.89,-48.8 357.11,-48.8 357.11,-84.8"/>
<text text-anchor="middle" x="277" y="-62.6" font-family="Times,serif" font-size="14.00">FacetWrapperComponent</text>
</g>
<!-- FacetWrapperComponent&#45;&gt;AgGridModule -->
<g id="edge3" class="edge">
<title>FacetWrapperComponent&#45;&gt;AgGridModule</title>
<path fill="none" stroke="black" d="M277,-84.91C277,-84.91 277,-103.79 277,-103.79"/>
<polygon fill="black" stroke="black" points="273.5,-103.79 277,-113.79 280.5,-103.79 273.5,-103.79"/>
</g>
<!-- AgGridViewComponent  -->
<g id="node5" class="node">
<title>AgGridViewComponent </title>
<polygon fill="#fb8072" stroke="black" points="355.92,-214.8 198.08,-214.8 198.08,-178.8 355.92,-178.8 355.92,-214.8"/>
<text text-anchor="middle" x="277" y="-192.6" font-family="Times,serif" font-size="14.00">AgGridViewComponent </text>
</g>
<!-- AgGridModule&#45;&gt;AgGridViewComponent  -->
<g id="edge4" class="edge">
<title>AgGridModule&#45;&gt;AgGridViewComponent </title>
<path fill="none" stroke="black" stroke-dasharray="5,2" d="M277,-149.91C277,-149.91 277,-168.79 277,-168.79"/>
<polygon fill="black" stroke="black" points="273.5,-168.79 277,-178.79 280.5,-168.79 273.5,-168.79"/>
</g>
<!-- BsFacetHeatmapComponent -->
<g id="node6" class="node">
<title>BsFacetHeatmapComponent</title>
<polygon fill="#ffffb3" stroke="black" points="735.46,-84.8 558.54,-84.8 558.54,-48.8 735.46,-48.8 735.46,-84.8"/>
<text text-anchor="middle" x="647" y="-62.6" font-family="Times,serif" font-size="14.00">BsFacetHeatmapComponent</text>
</g>
<!-- BsHeatmapModule -->
<g id="node9" class="node">
<title>BsHeatmapModule</title>
<polygon fill="#8dd3c7" stroke="black" points="973.36,-149.8 970.36,-153.8 949.36,-153.8 946.36,-149.8 848.64,-149.8 848.64,-113.8 973.36,-113.8 973.36,-149.8"/>
<text text-anchor="middle" x="911" y="-127.6" font-family="Times,serif" font-size="14.00">BsHeatmapModule</text>
</g>
<!-- BsFacetHeatmapComponent&#45;&gt;BsHeatmapModule -->
<g id="edge5" class="edge">
<title>BsFacetHeatmapComponent&#45;&gt;BsHeatmapModule</title>
<path fill="none" stroke="black" d="M685.12,-84.83C685.12,-101.2 685.12,-122.8 685.12,-122.8 685.12,-122.8 838.38,-122.8 838.38,-122.8"/>
<polygon fill="black" stroke="black" points="838.38,-126.3 848.38,-122.8 838.38,-119.3 838.38,-126.3"/>
</g>
<!-- BsHeatmapComponent -->
<g id="node7" class="node">
<title>BsHeatmapComponent</title>
<polygon fill="#ffffb3" stroke="black" points="1071.15,-84.8 924.85,-84.8 924.85,-48.8 1071.15,-48.8 1071.15,-84.8"/>
<text text-anchor="middle" x="998" y="-62.6" font-family="Times,serif" font-size="14.00">BsHeatmapComponent</text>
</g>
<!-- BsHeatmapComponent&#45;&gt;BsHeatmapModule -->
<g id="edge6" class="edge">
<title>BsHeatmapComponent&#45;&gt;BsHeatmapModule</title>
<path fill="none" stroke="black" d="M949.05,-84.91C949.05,-84.91 949.05,-103.79 949.05,-103.79"/>
<polygon fill="black" stroke="black" points="945.55,-103.79 949.05,-113.79 952.55,-103.79 945.55,-103.79"/>
</g>
<!-- BsResultsHeatmapView -->
<g id="node8" class="node">
<title>BsResultsHeatmapView</title>
<polygon fill="#ffffb3" stroke="black" points="906.35,-84.8 753.65,-84.8 753.65,-48.8 906.35,-48.8 906.35,-84.8"/>
<text text-anchor="middle" x="830" y="-62.6" font-family="Times,serif" font-size="14.00">BsResultsHeatmapView</text>
</g>
<!-- BsResultsHeatmapView&#45;&gt;BsHeatmapModule -->
<g id="edge7" class="edge">
<title>BsResultsHeatmapView&#45;&gt;BsHeatmapModule</title>
<path fill="none" stroke="black" d="M877.5,-84.91C877.5,-84.91 877.5,-103.79 877.5,-103.79"/>
<polygon fill="black" stroke="black" points="874,-103.79 877.5,-113.79 881,-103.79 874,-103.79"/>
</g>
<!-- BsFacetHeatmapComponent  -->
<g id="node11" class="node">
<title>BsFacetHeatmapComponent </title>
<polygon fill="#fb8072" stroke="black" points="815.46,-214.8 634.54,-214.8 634.54,-178.8 815.46,-178.8 815.46,-214.8"/>
<text text-anchor="middle" x="725" y="-192.6" font-family="Times,serif" font-size="14.00">BsFacetHeatmapComponent </text>
</g>
<!-- BsHeatmapModule&#45;&gt;BsFacetHeatmapComponent  -->
<g id="edge9" class="edge">
<title>BsHeatmapModule&#45;&gt;BsFacetHeatmapComponent </title>
<path fill="none" stroke="black" stroke-dasharray="5,2" d="M848.44,-131.8C816.55,-131.8 784.4,-131.8 784.4,-131.8 784.4,-131.8 784.4,-168.69 784.4,-168.69"/>
<polygon fill="black" stroke="black" points="780.9,-168.69 784.4,-178.69 787.9,-168.69 780.9,-168.69"/>
</g>
<!-- BsHeatmapComponent  -->
<g id="node12" class="node">
<title>BsHeatmapComponent </title>
<polygon fill="#fb8072" stroke="black" points="1157.15,-214.8 1006.85,-214.8 1006.85,-178.8 1157.15,-178.8 1157.15,-214.8"/>
<text text-anchor="middle" x="1082" y="-192.6" font-family="Times,serif" font-size="14.00">BsHeatmapComponent </text>
</g>
<!-- BsHeatmapModule&#45;&gt;BsHeatmapComponent  -->
<g id="edge10" class="edge">
<title>BsHeatmapModule&#45;&gt;BsHeatmapComponent </title>
<path fill="none" stroke="black" stroke-dasharray="5,2" d="M973.56,-143.8C1006.08,-143.8 1039.12,-143.8 1039.12,-143.8 1039.12,-143.8 1039.12,-168.56 1039.12,-168.56"/>
<polygon fill="black" stroke="black" points="1035.63,-168.56 1039.12,-178.56 1042.63,-168.56 1035.63,-168.56"/>
</g>
<!-- BsResultsHeatmapView  -->
<g id="node13" class="node">
<title>BsResultsHeatmapView </title>
<polygon fill="#fb8072" stroke="black" points="989.35,-214.8 832.65,-214.8 832.65,-178.8 989.35,-178.8 989.35,-214.8"/>
<text text-anchor="middle" x="911" y="-192.6" font-family="Times,serif" font-size="14.00">BsResultsHeatmapView </text>
</g>
<!-- BsHeatmapModule&#45;&gt;BsResultsHeatmapView  -->
<g id="edge11" class="edge">
<title>BsHeatmapModule&#45;&gt;BsResultsHeatmapView </title>
<path fill="none" stroke="black" stroke-dasharray="5,2" d="M911,-149.91C911,-149.91 911,-168.79 911,-168.79"/>
<polygon fill="black" stroke="black" points="907.5,-168.79 911,-178.79 914.5,-168.79 907.5,-168.79"/>
</g>
<!-- BsTooltipComponent -->
<g id="node10" class="node">
<title>BsTooltipComponent</title>
<polygon fill="#8dd3c7" stroke="black" points="1232.84,-84.8 1229.84,-88.8 1208.84,-88.8 1205.84,-84.8 1095.16,-84.8 1095.16,-48.8 1232.84,-48.8 1232.84,-84.8"/>
<text text-anchor="middle" x="1164" y="-62.6" font-family="Times,serif" font-size="14.00">BsTooltipComponent</text>
</g>
<!-- BsTooltipComponent&#45;&gt;BsHeatmapModule -->
<g id="edge8" class="edge">
<title>BsTooltipComponent&#45;&gt;BsHeatmapModule</title>
<path fill="none" stroke="black" d="M1126.2,-85.04C1126.2,-100.37 1126.2,-119.8 1126.2,-119.8 1126.2,-119.8 983.53,-119.8 983.53,-119.8"/>
<polygon fill="black" stroke="black" points="983.53,-116.3 973.53,-119.8 983.53,-123.3 983.53,-116.3"/>
</g>
<!-- BsTimelineModule -->
<g id="node18" class="node">
<title>BsTimelineModule</title>
<polygon fill="#8dd3c7" stroke="black" points="1606.38,-149.8 1603.38,-153.8 1582.38,-153.8 1579.38,-149.8 1481.62,-149.8 1481.62,-113.8 1606.38,-113.8 1606.38,-149.8"/>
<text text-anchor="middle" x="1544" y="-127.6" font-family="Times,serif" font-size="14.00">BsTimelineModule</text>
</g>
<!-- BsTooltipComponent&#45;&gt;BsTimelineModule -->
<g id="edge16" class="edge">
<title>BsTooltipComponent&#45;&gt;BsTimelineModule</title>
<path fill="none" stroke="black" d="M1207.47,-84.91C1207.47,-104.14 1207.47,-131.8 1207.47,-131.8 1207.47,-131.8 1471.49,-131.8 1471.49,-131.8"/>
<polygon fill="black" stroke="black" points="1471.49,-135.3 1481.49,-131.8 1471.49,-128.3 1471.49,-135.3"/>
</g>
<!-- FinanceModule -->
<g id="node25" class="node">
<title>FinanceModule</title>
<polygon fill="#8dd3c7" stroke="black" points="2106.87,-149.8 2103.87,-153.8 2082.87,-153.8 2079.87,-149.8 2003.13,-149.8 2003.13,-113.8 2106.87,-113.8 2106.87,-149.8"/>
<text text-anchor="middle" x="2055" y="-127.6" font-family="Times,serif" font-size="14.00">FinanceModule</text>
</g>
<!-- BsTooltipComponent&#45;&gt;FinanceModule -->
<g id="edge23" class="edge">
<title>BsTooltipComponent&#45;&gt;FinanceModule</title>
<path fill="none" stroke="black" d="M1182.27,-84.84C1182.27,-92.55 1182.27,-99.8 1182.27,-99.8 1182.27,-99.8 2037.69,-99.8 2037.69,-99.8 2037.69,-99.8 2037.69,-103.56 2037.69,-103.56"/>
<polygon fill="black" stroke="black" points="2034.19,-103.56 2037.69,-113.56 2041.19,-103.56 2034.19,-103.56"/>
</g>
<!-- BsFacetDate -->
<g id="node14" class="node">
<title>BsFacetDate</title>
<polygon fill="#ffffb3" stroke="black" points="1562.53,-84.8 1475.47,-84.8 1475.47,-48.8 1562.53,-48.8 1562.53,-84.8"/>
<text text-anchor="middle" x="1519" y="-62.6" font-family="Times,serif" font-size="14.00">BsFacetDate</text>
</g>
<!-- BsFacetDate&#45;&gt;BsTimelineModule -->
<g id="edge12" class="edge">
<title>BsFacetDate&#45;&gt;BsTimelineModule</title>
<path fill="none" stroke="black" d="M1522.16,-84.91C1522.16,-84.91 1522.16,-103.79 1522.16,-103.79"/>
<polygon fill="black" stroke="black" points="1518.66,-103.79 1522.16,-113.79 1525.66,-103.79 1518.66,-103.79"/>
</g>
<!-- BsFacetTimelineComponent -->
<g id="node15" class="node">
<title>BsFacetTimelineComponent</title>
<polygon fill="#ffffb3" stroke="black" points="1457.47,-84.8 1280.53,-84.8 1280.53,-48.8 1457.47,-48.8 1457.47,-84.8"/>
<text text-anchor="middle" x="1369" y="-62.6" font-family="Times,serif" font-size="14.00">BsFacetTimelineComponent</text>
</g>
<!-- BsFacetTimelineComponent&#45;&gt;BsTimelineModule -->
<g id="edge13" class="edge">
<title>BsFacetTimelineComponent&#45;&gt;BsTimelineModule</title>
<path fill="none" stroke="black" d="M1393.96,-84.82C1393.96,-102.17 1393.96,-125.8 1393.96,-125.8 1393.96,-125.8 1471.24,-125.8 1471.24,-125.8"/>
<polygon fill="black" stroke="black" points="1471.24,-129.3 1481.24,-125.8 1471.24,-122.3 1471.24,-129.3"/>
</g>
<!-- BsTimelineComponent -->
<g id="node16" class="node">
<title>BsTimelineComponent</title>
<polygon fill="#ffffb3" stroke="black" points="1919.16,-84.8 1772.84,-84.8 1772.84,-48.8 1919.16,-48.8 1919.16,-84.8"/>
<text text-anchor="middle" x="1846" y="-62.6" font-family="Times,serif" font-size="14.00">BsTimelineComponent</text>
</g>
<!-- BsTimelineComponent&#45;&gt;BsTimelineModule -->
<g id="edge14" class="edge">
<title>BsTimelineComponent&#45;&gt;BsTimelineModule</title>
<path fill="none" stroke="black" d="M1794.95,-84.83C1794.95,-101.2 1794.95,-122.8 1794.95,-122.8 1794.95,-122.8 1616.68,-122.8 1616.68,-122.8"/>
<polygon fill="black" stroke="black" points="1616.68,-119.3 1606.68,-122.8 1616.68,-126.3 1616.68,-119.3"/>
</g>
<!-- TimelineLegendComponent -->
<g id="node17" class="node">
<title>TimelineLegendComponent</title>
<polygon fill="#ffffb3" stroke="black" points="1754.86,-84.8 1581.14,-84.8 1581.14,-48.8 1754.86,-48.8 1754.86,-84.8"/>
<text text-anchor="middle" x="1668" y="-62.6" font-family="Times,serif" font-size="14.00">TimelineLegendComponent</text>
</g>
<!-- TimelineLegendComponent&#45;&gt;BsTimelineModule -->
<g id="edge15" class="edge">
<title>TimelineLegendComponent&#45;&gt;BsTimelineModule</title>
<path fill="none" stroke="black" d="M1593.75,-84.91C1593.75,-84.91 1593.75,-103.79 1593.75,-103.79"/>
<polygon fill="black" stroke="black" points="1590.25,-103.79 1593.75,-113.79 1597.25,-103.79 1590.25,-103.79"/>
</g>
<!-- BsFacetDate  -->
<g id="node19" class="node">
<title>BsFacetDate </title>
<polygon fill="#fb8072" stroke="black" points="1926.52,-214.8 1835.48,-214.8 1835.48,-178.8 1926.52,-178.8 1926.52,-214.8"/>
<text text-anchor="middle" x="1881" y="-192.6" font-family="Times,serif" font-size="14.00">BsFacetDate </text>
</g>
<!-- BsTimelineModule&#45;&gt;BsFacetDate  -->
<g id="edge17" class="edge">
<title>BsTimelineModule&#45;&gt;BsFacetDate </title>
<path fill="none" stroke="black" stroke-dasharray="5,2" d="M1606.71,-131.8C1703.29,-131.8 1877.41,-131.8 1877.41,-131.8 1877.41,-131.8 1877.41,-168.69 1877.41,-168.69"/>
<polygon fill="black" stroke="black" points="1873.91,-168.69 1877.41,-178.69 1880.91,-168.69 1873.91,-168.69"/>
</g>
<!-- BsFacetTimelineComponent  -->
<g id="node20" class="node">
<title>BsFacetTimelineComponent </title>
<polygon fill="#fb8072" stroke="black" points="1817.48,-214.8 1636.52,-214.8 1636.52,-178.8 1817.48,-178.8 1817.48,-214.8"/>
<text text-anchor="middle" x="1727" y="-192.6" font-family="Times,serif" font-size="14.00">BsFacetTimelineComponent </text>
</g>
<!-- BsTimelineModule&#45;&gt;BsFacetTimelineComponent  -->
<g id="edge18" class="edge">
<title>BsTimelineModule&#45;&gt;BsFacetTimelineComponent </title>
<path fill="none" stroke="black" stroke-dasharray="5,2" d="M1606.64,-140.8C1648.47,-140.8 1695.85,-140.8 1695.85,-140.8 1695.85,-140.8 1695.85,-168.77 1695.85,-168.77"/>
<polygon fill="black" stroke="black" points="1692.35,-168.77 1695.85,-178.77 1699.35,-168.77 1692.35,-168.77"/>
</g>
<!-- BsTimelineComponent  -->
<g id="node21" class="node">
<title>BsTimelineComponent </title>
<polygon fill="#fb8072" stroke="black" points="1619.16,-214.8 1468.84,-214.8 1468.84,-178.8 1619.16,-178.8 1619.16,-214.8"/>
<text text-anchor="middle" x="1544" y="-192.6" font-family="Times,serif" font-size="14.00">BsTimelineComponent </text>
</g>
<!-- BsTimelineModule&#45;&gt;BsTimelineComponent  -->
<g id="edge19" class="edge">
<title>BsTimelineModule&#45;&gt;BsTimelineComponent </title>
<path fill="none" stroke="black" stroke-dasharray="5,2" d="M1544,-149.91C1544,-149.91 1544,-168.79 1544,-168.79"/>
<polygon fill="black" stroke="black" points="1540.5,-168.79 1544,-178.79 1547.5,-168.79 1540.5,-168.79"/>
</g>
<!-- TimelineLegendComponent  -->
<g id="node22" class="node">
<title>TimelineLegendComponent </title>
<polygon fill="#fb8072" stroke="black" points="1450.86,-214.8 1273.14,-214.8 1273.14,-178.8 1450.86,-178.8 1450.86,-214.8"/>
<text text-anchor="middle" x="1362" y="-192.6" font-family="Times,serif" font-size="14.00">TimelineLegendComponent </text>
</g>
<!-- BsTimelineModule&#45;&gt;TimelineLegendComponent  -->
<g id="edge20" class="edge">
<title>BsTimelineModule&#45;&gt;TimelineLegendComponent </title>
<path fill="none" stroke="black" stroke-dasharray="5,2" d="M1481.4,-137.8C1420.55,-137.8 1337.23,-137.8 1337.23,-137.8 1337.23,-137.8 1337.23,-168.78 1337.23,-168.78"/>
<polygon fill="black" stroke="black" points="1333.73,-168.78 1337.23,-178.78 1340.73,-168.78 1333.73,-168.78"/>
</g>
<!-- MoneyCloudComponent -->
<g id="node23" class="node">
<title>MoneyCloudComponent</title>
<polygon fill="#ffffb3" stroke="black" points="2312.72,-84.8 2157.28,-84.8 2157.28,-48.8 2312.72,-48.8 2312.72,-84.8"/>
<text text-anchor="middle" x="2235" y="-62.6" font-family="Times,serif" font-size="14.00">MoneyCloudComponent</text>
</g>
<!-- MoneyCloudComponent&#45;&gt;FinanceModule -->
<g id="edge21" class="edge">
<title>MoneyCloudComponent&#45;&gt;FinanceModule</title>
<path fill="none" stroke="black" d="M2261.95,-84.81C2261.95,-100.85 2261.95,-121.8 2261.95,-121.8 2261.95,-121.8 2116.96,-121.8 2116.96,-121.8"/>
<polygon fill="black" stroke="black" points="2116.96,-118.3 2106.96,-121.8 2116.96,-125.3 2116.96,-118.3"/>
</g>
<!-- MoneyTimelineComponent -->
<g id="node24" class="node">
<title>MoneyTimelineComponent</title>
<polygon fill="#ffffb3" stroke="black" points="2139.54,-84.8 1968.46,-84.8 1968.46,-48.8 2139.54,-48.8 2139.54,-84.8"/>
<text text-anchor="middle" x="2054" y="-62.6" font-family="Times,serif" font-size="14.00">MoneyTimelineComponent</text>
</g>
<!-- MoneyTimelineComponent&#45;&gt;FinanceModule -->
<g id="edge22" class="edge">
<title>MoneyTimelineComponent&#45;&gt;FinanceModule</title>
<path fill="none" stroke="black" d="M2072.31,-84.91C2072.31,-84.91 2072.31,-103.79 2072.31,-103.79"/>
<polygon fill="black" stroke="black" points="2068.81,-103.79 2072.31,-113.79 2075.81,-103.79 2068.81,-103.79"/>
</g>
<!-- MoneyCloudComponent  -->
<g id="node26" class="node">
<title>MoneyCloudComponent </title>
<polygon fill="#fb8072" stroke="black" points="2319.22,-214.8 2160.78,-214.8 2160.78,-178.8 2319.22,-178.8 2319.22,-214.8"/>
<text text-anchor="middle" x="2240" y="-192.6" font-family="Times,serif" font-size="14.00">MoneyCloudComponent </text>
</g>
<!-- FinanceModule&#45;&gt;MoneyCloudComponent  -->
<g id="edge24" class="edge">
<title>FinanceModule&#45;&gt;MoneyCloudComponent </title>
<path fill="none" stroke="black" stroke-dasharray="5,2" d="M2107.04,-128.8C2152.51,-128.8 2211.3,-128.8 2211.3,-128.8 2211.3,-128.8 2211.3,-168.58 2211.3,-168.58"/>
<polygon fill="black" stroke="black" points="2207.8,-168.58 2211.3,-178.58 2214.8,-168.58 2207.8,-168.58"/>
</g>
<!-- MoneyTimelineComponent  -->
<g id="node27" class="node">
<title>MoneyTimelineComponent </title>
<polygon fill="#fb8072" stroke="black" points="2142.54,-214.8 1967.46,-214.8 1967.46,-178.8 2142.54,-178.8 2142.54,-214.8"/>
<text text-anchor="middle" x="2055" y="-192.6" font-family="Times,serif" font-size="14.00">MoneyTimelineComponent </text>
</g>
<!-- FinanceModule&#45;&gt;MoneyTimelineComponent  -->
<g id="edge25" class="edge">
<title>FinanceModule&#45;&gt;MoneyTimelineComponent </title>
<path fill="none" stroke="black" stroke-dasharray="5,2" d="M2055,-149.91C2055,-149.91 2055,-168.79 2055,-168.79"/>
<polygon fill="black" stroke="black" points="2051.5,-168.79 2055,-178.79 2058.5,-168.79 2051.5,-168.79"/>
</g>
<!-- FusionChart -->
<g id="node28" class="node">
<title>FusionChart</title>
<polygon fill="#ffffb3" stroke="black" points="2448.72,-84.8 2363.28,-84.8 2363.28,-48.8 2448.72,-48.8 2448.72,-84.8"/>
<text text-anchor="middle" x="2406" y="-62.6" font-family="Times,serif" font-size="14.00">FusionChart</text>
</g>
<!-- FusionChartsModule -->
<g id="node31" class="node">
<title>FusionChartsModule</title>
<polygon fill="#8dd3c7" stroke="black" points="2598.21,-149.8 2595.21,-153.8 2574.21,-153.8 2571.21,-149.8 2463.79,-149.8 2463.79,-113.8 2598.21,-113.8 2598.21,-149.8"/>
<text text-anchor="middle" x="2531" y="-127.6" font-family="Times,serif" font-size="14.00">FusionChartsModule</text>
</g>
<!-- FusionChart&#45;&gt;FusionChartsModule -->
<g id="edge26" class="edge">
<title>FusionChart&#45;&gt;FusionChartsModule</title>
<path fill="none" stroke="black" d="M2419.37,-84.93C2419.37,-105.37 2419.37,-135.8 2419.37,-135.8 2419.37,-135.8 2453.81,-135.8 2453.81,-135.8"/>
<polygon fill="black" stroke="black" points="2453.81,-139.3 2463.81,-135.8 2453.81,-132.3 2453.81,-139.3"/>
</g>
<!-- FusionChartsDirective -->
<g id="node29" class="node">
<title>FusionChartsDirective</title>
<polygon fill="#ffffb3" stroke="black" points="2755.25,-84.8 2612.75,-84.8 2612.75,-48.8 2755.25,-48.8 2755.25,-84.8"/>
<text text-anchor="middle" x="2684" y="-62.6" font-family="Times,serif" font-size="14.00">FusionChartsDirective</text>
</g>
<!-- FusionChartsDirective&#45;&gt;FusionChartsModule -->
<g id="edge27" class="edge">
<title>FusionChartsDirective&#45;&gt;FusionChartsModule</title>
<path fill="none" stroke="black" d="M2708.54,-84.82C2708.54,-102.17 2708.54,-125.8 2708.54,-125.8 2708.54,-125.8 2608.12,-125.8 2608.12,-125.8"/>
<polygon fill="black" stroke="black" points="2608.12,-122.3 2598.12,-125.8 2608.12,-129.3 2608.12,-122.3"/>
</g>
<!-- MultiLevelPieChart -->
<g id="node30" class="node">
<title>MultiLevelPieChart</title>
<polygon fill="#ffffb3" stroke="black" points="2594.98,-84.8 2467.02,-84.8 2467.02,-48.8 2594.98,-48.8 2594.98,-84.8"/>
<text text-anchor="middle" x="2531" y="-62.6" font-family="Times,serif" font-size="14.00">MultiLevelPieChart</text>
</g>
<!-- MultiLevelPieChart&#45;&gt;FusionChartsModule -->
<g id="edge28" class="edge">
<title>MultiLevelPieChart&#45;&gt;FusionChartsModule</title>
<path fill="none" stroke="black" d="M2531,-84.91C2531,-84.91 2531,-103.79 2531,-103.79"/>
<polygon fill="black" stroke="black" points="2527.5,-103.79 2531,-113.79 2534.5,-103.79 2527.5,-103.79"/>
</g>
<!-- FusionChart  -->
<g id="node32" class="node">
<title>FusionChart </title>
<polygon fill="#fb8072" stroke="black" points="2447.22,-214.8 2358.78,-214.8 2358.78,-178.8 2447.22,-178.8 2447.22,-214.8"/>
<text text-anchor="middle" x="2403" y="-192.6" font-family="Times,serif" font-size="14.00">FusionChart </text>
</g>
<!-- FusionChartsModule&#45;&gt;FusionChart  -->
<g id="edge29" class="edge">
<title>FusionChartsModule&#45;&gt;FusionChart </title>
<path fill="none" stroke="black" stroke-dasharray="5,2" d="M2463.64,-142.8C2427.94,-142.8 2391.38,-142.8 2391.38,-142.8 2391.38,-142.8 2391.38,-168.52 2391.38,-168.52"/>
<polygon fill="black" stroke="black" points="2387.88,-168.52 2391.38,-178.52 2394.88,-168.52 2387.88,-168.52"/>
</g>
<!-- FusionChartsDirective  -->
<g id="node33" class="node">
<title>FusionChartsDirective </title>
<polygon fill="#fb8072" stroke="black" points="2761.25,-214.8 2614.75,-214.8 2614.75,-178.8 2761.25,-178.8 2761.25,-214.8"/>
<text text-anchor="middle" x="2688" y="-192.6" font-family="Times,serif" font-size="14.00">FusionChartsDirective </text>
</g>
<!-- FusionChartsModule&#45;&gt;FusionChartsDirective  -->
<g id="edge30" class="edge">
<title>FusionChartsModule&#45;&gt;FusionChartsDirective </title>
<path fill="none" stroke="black" stroke-dasharray="5,2" d="M2598.27,-137.8C2630.3,-137.8 2661.71,-137.8 2661.71,-137.8 2661.71,-137.8 2661.71,-168.78 2661.71,-168.78"/>
<polygon fill="black" stroke="black" points="2658.21,-168.78 2661.71,-178.78 2665.21,-168.78 2658.21,-168.78"/>
</g>
<!-- MultiLevelPieChart  -->
<g id="node34" class="node">
<title>MultiLevelPieChart </title>
<polygon fill="#fb8072" stroke="black" points="2596.98,-214.8 2465.02,-214.8 2465.02,-178.8 2596.98,-178.8 2596.98,-214.8"/>
<text text-anchor="middle" x="2531" y="-192.6" font-family="Times,serif" font-size="14.00">MultiLevelPieChart </text>
</g>
<!-- FusionChartsModule&#45;&gt;MultiLevelPieChart  -->
<g id="edge31" class="edge">
<title>FusionChartsModule&#45;&gt;MultiLevelPieChart </title>
<path fill="none" stroke="black" stroke-dasharray="5,2" d="M2531,-149.91C2531,-149.91 2531,-168.79 2531,-168.79"/>
<polygon fill="black" stroke="black" points="2527.5,-168.79 2531,-178.79 2534.5,-168.79 2527.5,-168.79"/>
</g>
<!-- MapComponent -->
<g id="node35" class="node">
<title>MapComponent</title>
<polygon fill="#ffffb3" stroke="black" points="2912.49,-84.8 2805.51,-84.8 2805.51,-48.8 2912.49,-48.8 2912.49,-84.8"/>
<text text-anchor="middle" x="2859" y="-62.6" font-family="Times,serif" font-size="14.00">MapComponent</text>
</g>
<!-- GoogleMapsModule -->
<g id="node36" class="node">
<title>GoogleMapsModule</title>
<polygon fill="#8dd3c7" stroke="black" points="2924.87,-149.8 2921.87,-153.8 2900.87,-153.8 2897.87,-149.8 2793.13,-149.8 2793.13,-113.8 2924.87,-113.8 2924.87,-149.8"/>
<text text-anchor="middle" x="2859" y="-127.6" font-family="Times,serif" font-size="14.00">GoogleMapsModule</text>
</g>
<!-- MapComponent&#45;&gt;GoogleMapsModule -->
<g id="edge32" class="edge">
<title>MapComponent&#45;&gt;GoogleMapsModule</title>
<path fill="none" stroke="black" d="M2859,-84.91C2859,-84.91 2859,-103.79 2859,-103.79"/>
<polygon fill="black" stroke="black" points="2855.5,-103.79 2859,-113.79 2862.5,-103.79 2855.5,-103.79"/>
</g>
<!-- MapComponent  -->
<g id="node37" class="node">
<title>MapComponent </title>
<polygon fill="#fb8072" stroke="black" points="2914.49,-214.8 2803.51,-214.8 2803.51,-178.8 2914.49,-178.8 2914.49,-214.8"/>
<text text-anchor="middle" x="2859" y="-192.6" font-family="Times,serif" font-size="14.00">MapComponent </text>
</g>
<!-- GoogleMapsModule&#45;&gt;MapComponent  -->
<g id="edge33" class="edge">
<title>GoogleMapsModule&#45;&gt;MapComponent </title>
<path fill="none" stroke="black" stroke-dasharray="5,2" d="M2859,-149.91C2859,-149.91 2859,-168.79 2859,-168.79"/>
<polygon fill="black" stroke="black" points="2855.5,-168.79 2859,-178.79 2862.5,-168.79 2855.5,-168.79"/>
</g>
<!-- BsEdgeInfoCard -->
<g id="node38" class="node">
<title>BsEdgeInfoCard</title>
<polygon fill="#ffffb3" stroke="black" points="3204.08,-84.8 3093.92,-84.8 3093.92,-48.8 3204.08,-48.8 3204.08,-84.8"/>
<text text-anchor="middle" x="3149" y="-62.6" font-family="Times,serif" font-size="14.00">BsEdgeInfoCard</text>
</g>
<!-- NetworkModule -->
<g id="node42" class="node">
<title>NetworkModule</title>
<polygon fill="#8dd3c7" stroke="black" points="3290.03,-149.8 3287.03,-153.8 3266.03,-153.8 3263.03,-149.8 3181.97,-149.8 3181.97,-113.8 3290.03,-113.8 3290.03,-149.8"/>
<text text-anchor="middle" x="3236" y="-127.6" font-family="Times,serif" font-size="14.00">NetworkModule</text>
</g>
<!-- BsEdgeInfoCard&#45;&gt;NetworkModule -->
<g id="edge34" class="edge">
<title>BsEdgeInfoCard&#45;&gt;NetworkModule</title>
<path fill="none" stroke="black" d="M3192.89,-84.91C3192.89,-84.91 3192.89,-103.79 3192.89,-103.79"/>
<polygon fill="black" stroke="black" points="3189.39,-103.79 3192.89,-113.79 3196.39,-103.79 3189.39,-103.79"/>
</g>
<!-- BsNodeInfoCard -->
<g id="node39" class="node">
<title>BsNodeInfoCard</title>
<polygon fill="#ffffb3" stroke="black" points="3075.64,-84.8 2964.36,-84.8 2964.36,-48.8 3075.64,-48.8 3075.64,-84.8"/>
<text text-anchor="middle" x="3020" y="-62.6" font-family="Times,serif" font-size="14.00">BsNodeInfoCard</text>
</g>
<!-- BsNodeInfoCard&#45;&gt;NetworkModule -->
<g id="edge35" class="edge">
<title>BsNodeInfoCard&#45;&gt;NetworkModule</title>
<path fill="none" stroke="black" d="M3020,-84.82C3020,-102.17 3020,-125.8 3020,-125.8 3020,-125.8 3171.77,-125.8 3171.77,-125.8"/>
<polygon fill="black" stroke="black" points="3171.77,-129.3 3181.77,-125.8 3171.77,-122.3 3171.77,-129.3"/>
</g>
<!-- NetworkComponent -->
<g id="node40" class="node">
<title>NetworkComponent</title>
<polygon fill="#ffffb3" stroke="black" points="3506.31,-84.8 3375.69,-84.8 3375.69,-48.8 3506.31,-48.8 3506.31,-84.8"/>
<text text-anchor="middle" x="3441" y="-62.6" font-family="Times,serif" font-size="14.00">NetworkComponent</text>
</g>
<!-- NetworkComponent&#45;&gt;NetworkModule -->
<g id="edge36" class="edge">
<title>NetworkComponent&#45;&gt;NetworkModule</title>
<path fill="none" stroke="black" d="M3390.39,-84.82C3390.39,-102.17 3390.39,-125.8 3390.39,-125.8 3390.39,-125.8 3300.43,-125.8 3300.43,-125.8"/>
<polygon fill="black" stroke="black" points="3300.43,-122.3 3290.43,-125.8 3300.43,-129.3 3300.43,-122.3"/>
</g>
<!-- VisNetworkDirective -->
<g id="node41" class="node">
<title>VisNetworkDirective</title>
<polygon fill="#ffffb3" stroke="black" points="3358,-84.8 3222,-84.8 3222,-48.8 3358,-48.8 3358,-84.8"/>
<text text-anchor="middle" x="3290" y="-62.6" font-family="Times,serif" font-size="14.00">VisNetworkDirective</text>
</g>
<!-- VisNetworkDirective&#45;&gt;NetworkModule -->
<g id="edge37" class="edge">
<title>VisNetworkDirective&#45;&gt;NetworkModule</title>
<path fill="none" stroke="black" d="M3256.01,-84.91C3256.01,-84.91 3256.01,-103.79 3256.01,-103.79"/>
<polygon fill="black" stroke="black" points="3252.51,-103.79 3256.01,-113.79 3259.51,-103.79 3252.51,-103.79"/>
</g>
<!-- BsEdgeInfoCard  -->
<g id="node43" class="node">
<title>BsEdgeInfoCard </title>
<polygon fill="#fb8072" stroke="black" points="3512.58,-214.8 3399.42,-214.8 3399.42,-178.8 3512.58,-178.8 3512.58,-214.8"/>
<text text-anchor="middle" x="3456" y="-192.6" font-family="Times,serif" font-size="14.00">BsEdgeInfoCard </text>
</g>
<!-- NetworkModule&#45;&gt;BsEdgeInfoCard  -->
<g id="edge38" class="edge">
<title>NetworkModule&#45;&gt;BsEdgeInfoCard </title>
<path fill="none" stroke="black" stroke-dasharray="5,2" d="M3290.12,-137.8C3354.3,-137.8 3452.68,-137.8 3452.68,-137.8 3452.68,-137.8 3452.68,-168.78 3452.68,-168.78"/>
<polygon fill="black" stroke="black" points="3449.18,-168.78 3452.68,-178.78 3456.18,-168.78 3449.18,-168.78"/>
</g>
<!-- BsNodeInfoCard  -->
<g id="node44" class="node">
<title>BsNodeInfoCard </title>
<polygon fill="#fb8072" stroke="black" points="3381.64,-214.8 3266.36,-214.8 3266.36,-178.8 3381.64,-178.8 3381.64,-214.8"/>
<text text-anchor="middle" x="3324" y="-192.6" font-family="Times,serif" font-size="14.00">BsNodeInfoCard </text>
</g>
<!-- NetworkModule&#45;&gt;BsNodeInfoCard  -->
<g id="edge39" class="edge">
<title>NetworkModule&#45;&gt;BsNodeInfoCard </title>
<path fill="none" stroke="black" stroke-dasharray="5,2" d="M3278.35,-149.91C3278.35,-149.91 3278.35,-168.79 3278.35,-168.79"/>
<polygon fill="black" stroke="black" points="3274.85,-168.79 3278.35,-178.79 3281.85,-168.79 3274.85,-168.79"/>
</g>
<!-- NetworkComponent  -->
<g id="node45" class="node">
<title>NetworkComponent </title>
<polygon fill="#fb8072" stroke="black" points="3248.81,-214.8 3115.19,-214.8 3115.19,-178.8 3248.81,-178.8 3248.81,-214.8"/>
<text text-anchor="middle" x="3182" y="-192.6" font-family="Times,serif" font-size="14.00">NetworkComponent </text>
</g>
<!-- NetworkModule&#45;&gt;NetworkComponent  -->
<g id="edge40" class="edge">
<title>NetworkModule&#45;&gt;NetworkComponent </title>
<path fill="none" stroke="black" stroke-dasharray="5,2" d="M3215.32,-149.91C3215.32,-149.91 3215.32,-168.79 3215.32,-168.79"/>
<polygon fill="black" stroke="black" points="3211.82,-168.79 3215.32,-178.79 3218.82,-168.79 3211.82,-168.79"/>
</g>
<!-- VisNetworkDirective  -->
<g id="node46" class="node">
<title>VisNetworkDirective </title>
<polygon fill="#fb8072" stroke="black" points="3097,-214.8 2957,-214.8 2957,-178.8 3097,-178.8 3097,-214.8"/>
<text text-anchor="middle" x="3027" y="-192.6" font-family="Times,serif" font-size="14.00">VisNetworkDirective </text>
</g>
<!-- NetworkModule&#45;&gt;VisNetworkDirective  -->
<g id="edge41" class="edge">
<title>NetworkModule&#45;&gt;VisNetworkDirective </title>
<path fill="none" stroke="black" stroke-dasharray="5,2" d="M3181.87,-137.8C3138.51,-137.8 3084.89,-137.8 3084.89,-137.8 3084.89,-137.8 3084.89,-168.78 3084.89,-168.78"/>
<polygon fill="black" stroke="black" points="3081.39,-168.78 3084.89,-178.78 3088.39,-168.78 3081.39,-168.78"/>
</g>
<!-- FacetNgxChart -->
<g id="node47" class="node">
<title>FacetNgxChart</title>
<polygon fill="#ffffb3" stroke="black" points="3746.53,-84.8 3645.47,-84.8 3645.47,-48.8 3746.53,-48.8 3746.53,-84.8"/>
<text text-anchor="middle" x="3696" y="-62.6" font-family="Times,serif" font-size="14.00">FacetNgxChart</text>
</g>
<!-- NgxChartsModule -->
<g id="node49" class="node">
<title>NgxChartsModule</title>
<polygon fill="#8dd3c7" stroke="black" points="3709.2,-149.8 3706.2,-153.8 3685.2,-153.8 3682.2,-149.8 3588.8,-149.8 3588.8,-113.8 3709.2,-113.8 3709.2,-149.8"/>
<text text-anchor="middle" x="3649" y="-127.6" font-family="Times,serif" font-size="14.00">NgxChartsModule</text>
</g>
<!-- FacetNgxChart&#45;&gt;NgxChartsModule -->
<g id="edge42" class="edge">
<title>FacetNgxChart&#45;&gt;NgxChartsModule</title>
<path fill="none" stroke="black" d="M3677.17,-84.91C3677.17,-84.91 3677.17,-103.79 3677.17,-103.79"/>
<polygon fill="black" stroke="black" points="3673.67,-103.79 3677.17,-113.79 3680.67,-103.79 3673.67,-103.79"/>
</g>
<!-- NgxChart -->
<g id="node48" class="node">
<title>NgxChart</title>
<polygon fill="#ffffb3" stroke="black" points="3627.71,-84.8 3556.29,-84.8 3556.29,-48.8 3627.71,-48.8 3627.71,-84.8"/>
<text text-anchor="middle" x="3592" y="-62.6" font-family="Times,serif" font-size="14.00">NgxChart</text>
</g>
<!-- NgxChart&#45;&gt;NgxChartsModule -->
<g id="edge43" class="edge">
<title>NgxChart&#45;&gt;NgxChartsModule</title>
<path fill="none" stroke="black" d="M3608.25,-84.91C3608.25,-84.91 3608.25,-103.79 3608.25,-103.79"/>
<polygon fill="black" stroke="black" points="3604.75,-103.79 3608.25,-113.79 3611.75,-103.79 3604.75,-103.79"/>
</g>
<!-- FacetNgxChart  -->
<g id="node50" class="node">
<title>FacetNgxChart </title>
<polygon fill="#fb8072" stroke="black" points="3750.53,-214.8 3645.47,-214.8 3645.47,-178.8 3750.53,-178.8 3750.53,-214.8"/>
<text text-anchor="middle" x="3698" y="-192.6" font-family="Times,serif" font-size="14.00">FacetNgxChart </text>
</g>
<!-- NgxChartsModule&#45;&gt;FacetNgxChart  -->
<g id="edge44" class="edge">
<title>NgxChartsModule&#45;&gt;FacetNgxChart </title>
<path fill="none" stroke="black" stroke-dasharray="5,2" d="M3677.29,-149.91C3677.29,-149.91 3677.29,-168.79 3677.29,-168.79"/>
<polygon fill="black" stroke="black" points="3673.79,-168.79 3677.29,-178.79 3680.79,-168.79 3673.79,-168.79"/>
</g>
<!-- NgxChart  -->
<g id="node51" class="node">
<title>NgxChart </title>
<polygon fill="#fb8072" stroke="black" points="3627.21,-214.8 3552.79,-214.8 3552.79,-178.8 3627.21,-178.8 3627.21,-214.8"/>
<text text-anchor="middle" x="3590" y="-192.6" font-family="Times,serif" font-size="14.00">NgxChart </text>
</g>
<!-- NgxChartsModule&#45;&gt;NgxChart  -->
<g id="edge45" class="edge">
<title>NgxChartsModule&#45;&gt;NgxChart </title>
<path fill="none" stroke="black" stroke-dasharray="5,2" d="M3608.13,-149.91C3608.13,-149.91 3608.13,-168.79 3608.13,-168.79"/>
<polygon fill="black" stroke="black" points="3604.63,-168.79 3608.13,-178.79 3611.63,-168.79 3604.63,-168.79"/>
</g>
<!-- ResultTimeline -->
<g id="node52" class="node">
<title>ResultTimeline</title>
<polygon fill="#ffffb3" stroke="black" points="4053.32,-84.8 3950.68,-84.8 3950.68,-48.8 4053.32,-48.8 4053.32,-84.8"/>
<text text-anchor="middle" x="4002" y="-62.6" font-family="Times,serif" font-size="14.00">ResultTimeline</text>
</g>
<!-- VisTimelineModule -->
<g id="node54" class="node">
<title>VisTimelineModule</title>
<polygon fill="#8dd3c7" stroke="black" points="3929.54,-149.8 3926.54,-153.8 3905.54,-153.8 3902.54,-149.8 3800.46,-149.8 3800.46,-113.8 3929.54,-113.8 3929.54,-149.8"/>
<text text-anchor="middle" x="3865" y="-127.6" font-family="Times,serif" font-size="14.00">VisTimelineModule</text>
</g>
<!-- ResultTimeline&#45;&gt;VisTimelineModule -->
<g id="edge46" class="edge">
<title>ResultTimeline&#45;&gt;VisTimelineModule</title>
<path fill="none" stroke="black" d="M4019.14,-84.82C4019.14,-102.17 4019.14,-125.8 4019.14,-125.8 4019.14,-125.8 3939.92,-125.8 3939.92,-125.8"/>
<polygon fill="black" stroke="black" points="3939.92,-122.3 3929.92,-125.8 3939.92,-129.3 3939.92,-122.3"/>
</g>
<!-- VisTimelineDirective -->
<g id="node53" class="node">
<title>VisTimelineDirective</title>
<polygon fill="#ffffb3" stroke="black" points="3933.07,-84.8 3794.93,-84.8 3794.93,-48.8 3933.07,-48.8 3933.07,-84.8"/>
<text text-anchor="middle" x="3864" y="-62.6" font-family="Times,serif" font-size="14.00">VisTimelineDirective</text>
</g>
<!-- VisTimelineDirective&#45;&gt;VisTimelineModule -->
<g id="edge47" class="edge">
<title>VisTimelineDirective&#45;&gt;VisTimelineModule</title>
<path fill="none" stroke="black" d="M3865,-84.91C3865,-84.91 3865,-103.79 3865,-103.79"/>
<polygon fill="black" stroke="black" points="3861.5,-103.79 3865,-113.79 3868.5,-103.79 3861.5,-103.79"/>
</g>
<!-- ResultTimeline  -->
<g id="node55" class="node">
<title>ResultTimeline </title>
<polygon fill="#fb8072" stroke="black" points="4056.82,-214.8 3951.18,-214.8 3951.18,-178.8 4056.82,-178.8 4056.82,-214.8"/>
<text text-anchor="middle" x="4004" y="-192.6" font-family="Times,serif" font-size="14.00">ResultTimeline </text>
</g>
<!-- VisTimelineModule&#45;&gt;ResultTimeline  -->
<g id="edge48" class="edge">
<title>VisTimelineModule&#45;&gt;ResultTimeline </title>
<path fill="none" stroke="black" stroke-dasharray="5,2" d="M3929.63,-137.8C3958.06,-137.8 3985.11,-137.8 3985.11,-137.8 3985.11,-137.8 3985.11,-168.78 3985.11,-168.78"/>
<polygon fill="black" stroke="black" points="3981.61,-168.78 3985.11,-178.78 3988.61,-168.78 3981.61,-168.78"/>
</g>
<!-- VisTimelineDirective  -->
<g id="node56" class="node">
<title>VisTimelineDirective </title>
<polygon fill="#fb8072" stroke="black" points="3932.57,-214.8 3791.43,-214.8 3791.43,-178.8 3932.57,-178.8 3932.57,-214.8"/>
<text text-anchor="middle" x="3862" y="-192.6" font-family="Times,serif" font-size="14.00">VisTimelineDirective </text>
</g>
<!-- VisTimelineModule&#45;&gt;VisTimelineDirective  -->
<g id="edge49" class="edge">
<title>VisTimelineModule&#45;&gt;VisTimelineDirective </title>
<path fill="none" stroke="black" stroke-dasharray="5,2" d="M3865,-149.91C3865,-149.91 3865,-168.79 3865,-168.79"/>
<polygon fill="black" stroke="black" points="3861.5,-168.79 3865,-178.79 3868.5,-168.79 3861.5,-168.79"/>
</g>
</g>
</svg>
