<?xml version="1.0" encoding="UTF-8" standalone="no"?>
<!DOCTYPE svg PUBLIC "-//W3C//DTD SVG 1.1//EN"
 "http://www.w3.org/Graphics/SVG/1.1/DTD/svg11.dtd">
<!-- Generated by graphviz version 2.47.3 (20210619.1520)
 -->
<!-- Title: dependencies Pages: 1 -->
<svg width="3392pt" height="318pt"
 viewBox="0.00 0.00 3392.00 317.80" xmlns="http://www.w3.org/2000/svg" xmlns:xlink="http://www.w3.org/1999/xlink">
<g id="graph0" class="graph" transform="scale(1 1) rotate(0) translate(4 313.8)">
<title>dependencies</title>
<polygon fill="white" stroke="transparent" points="-4,4 -4,-313.8 3388,-313.8 3388,4 -4,4"/>
<text text-anchor="middle" x="1692" y="-8.2" font-family="sans-serif" font-size="14.00">dependencies</text>
<g id="clust1" class="cluster">
<title>cluster_AgGridModule</title>
<polygon fill="none" stroke="black" stroke-dasharray="1,5" points="8,-32.8 8,-233.8 534,-233.8 534,-32.8 8,-32.8"/>
</g>
<g id="clust2" class="cluster">
<title>cluster_AgGridModule_declarations</title>
<polygon fill="none" stroke="black" points="16,-40.8 16,-92.8 526,-92.8 526,-40.8 16,-40.8"/>
</g>
<g id="clust7" class="cluster">
<title>cluster_AgGridModule_exports</title>
<polygon fill="none" stroke="black" points="187,-173.8 187,-225.8 361,-225.8 361,-173.8 187,-173.8"/>
</g>
<g id="clust10" class="cluster">
<title>cluster_BsHeatmapModule</title>
<polygon fill="none" stroke="black" stroke-dasharray="1,5" points="542,-32.8 542,-233.8 1256,-233.8 1256,-32.8 542,-32.8"/>
</g>
<g id="clust11" class="cluster">
<title>cluster_BsHeatmapModule_declarations</title>
<polygon fill="none" stroke="black" points="564,-40.8 564,-92.8 1247,-92.8 1247,-40.8 564,-40.8"/>
</g>
<g id="clust17" class="cluster">
<title>cluster_BsHeatmapModule_exports</title>
<polygon fill="none" stroke="black" points="550,-173.8 550,-225.8 1248,-225.8 1248,-173.8 550,-173.8"/>
</g>
<g id="clust20" class="cluster">
<title>cluster_BsTimelineModule</title>
<polygon fill="none" stroke="black" stroke-dasharray="1,5" points="1264,-100.8 1264,-301.8 1840,-301.8 1840,-100.8 1264,-100.8"/>
</g>
<g id="clust21" class="cluster">
<title>cluster_BsTimelineModule_declarations</title>
<polygon fill="none" stroke="black" points="1272,-108.8 1272,-160.8 1821,-160.8 1821,-108.8 1272,-108.8"/>
</g>
<g id="clust26" class="cluster">
<title>cluster_BsTimelineModule_exports</title>
<polygon fill="none" stroke="black" points="1272,-241.8 1272,-293.8 1832,-293.8 1832,-241.8 1272,-241.8"/>
</g>
<g id="clust29" class="cluster">
<title>cluster_FinanceModule</title>
<polygon fill="none" stroke="black" stroke-dasharray="1,5" points="1848,-100.8 1848,-301.8 2232,-301.8 2232,-100.8 1848,-100.8"/>
</g>
<g id="clust30" class="cluster">
<title>cluster_FinanceModule_declarations</title>
<polygon fill="none" stroke="black" points="1857,-108.8 1857,-160.8 2218,-160.8 2218,-108.8 1857,-108.8"/>
</g>
<g id="clust34" class="cluster">
<title>cluster_FinanceModule_exports</title>
<polygon fill="none" stroke="black" points="1856,-241.8 1856,-293.8 2224,-293.8 2224,-241.8 1856,-241.8"/>
</g>
<g id="clust37" class="cluster">
<title>cluster_FusionChartsModule</title>
<polygon fill="none" stroke="black" stroke-dasharray="1,5" points="2240,-32.8 2240,-233.8 2390,-233.8 2390,-32.8 2240,-32.8"/>
</g>
<g id="clust38" class="cluster">
<title>cluster_FusionChartsModule_declarations</title>
<polygon fill="none" stroke="black" points="2264,-40.8 2264,-92.8 2366,-92.8 2366,-40.8 2264,-40.8"/>
</g>
<g id="clust41" class="cluster">
<title>cluster_FusionChartsModule_exports</title>
<polygon fill="none" stroke="black" points="2263,-173.8 2263,-225.8 2367,-225.8 2367,-173.8 2263,-173.8"/>
</g>
<g id="clust44" class="cluster">
<title>cluster_GoogleMapsModule</title>
<polygon fill="none" stroke="black" stroke-dasharray="1,5" points="2398,-32.8 2398,-233.8 2546,-233.8 2546,-32.8 2398,-32.8"/>
</g>
<g id="clust45" class="cluster">
<title>cluster_GoogleMapsModule_declarations</title>
<polygon fill="none" stroke="black" points="2411,-40.8 2411,-92.8 2533,-92.8 2533,-40.8 2411,-40.8"/>
</g>
<g id="clust48" class="cluster">
<title>cluster_GoogleMapsModule_exports</title>
<polygon fill="none" stroke="black" points="2409,-173.8 2409,-225.8 2535,-225.8 2535,-173.8 2409,-173.8"/>
</g>
<g id="clust51" class="cluster">
<title>cluster_NetworkModule</title>
<polygon fill="none" stroke="black" stroke-dasharray="1,5" points="2554,-32.8 2554,-233.8 2984,-233.8 2984,-32.8 2554,-32.8"/>
</g>
<g id="clust52" class="cluster">
<title>cluster_NetworkModule_declarations</title>
<polygon fill="none" stroke="black" points="2567,-40.8 2567,-92.8 2971,-92.8 2971,-40.8 2567,-40.8"/>
</g>
<g id="clust57" class="cluster">
<title>cluster_NetworkModule_exports</title>
<polygon fill="none" stroke="black" points="2562,-173.8 2562,-225.8 2976,-225.8 2976,-173.8 2562,-173.8"/>
</g>
<g id="clust60" class="cluster">
<title>cluster_NgxChartsModule</title>
<polygon fill="none" stroke="black" stroke-dasharray="1,5" points="2992,-32.8 2992,-233.8 3222,-233.8 3222,-32.8 2992,-32.8"/>
</g>
<g id="clust61" class="cluster">
<title>cluster_NgxChartsModule_declarations</title>
<polygon fill="none" stroke="black" points="3003,-40.8 3003,-92.8 3210,-92.8 3210,-40.8 3003,-40.8"/>
</g>
<g id="clust65" class="cluster">
<title>cluster_NgxChartsModule_exports</title>
<polygon fill="none" stroke="black" points="3000,-173.8 3000,-225.8 3214,-225.8 3214,-173.8 3000,-173.8"/>
</g>
<g id="clust68" class="cluster">
<title>cluster_VisTimelineModule</title>
<polygon fill="none" stroke="black" stroke-dasharray="1,5" points="3230,-32.8 3230,-233.8 3376,-233.8 3376,-32.8 3230,-32.8"/>
</g>
<g id="clust69" class="cluster">
<title>cluster_VisTimelineModule_declarations</title>
<polygon fill="none" stroke="black" points="3244,-40.8 3244,-92.8 3362,-92.8 3362,-40.8 3244,-40.8"/>
</g>
<g id="clust72" class="cluster">
<title>cluster_VisTimelineModule_exports</title>
<polygon fill="none" stroke="black" points="3242,-173.8 3242,-225.8 3364,-225.8 3364,-173.8 3242,-173.8"/>
</g>
<!-- AgGridViewComponent -->
<g id="node1" class="node">
<title>AgGridViewComponent</title>
<polygon fill="#ffffb3" stroke="black" points="518.42,-84.8 363.58,-84.8 363.58,-48.8 518.42,-48.8 518.42,-84.8"/>
<text text-anchor="middle" x="441" y="-62.6" font-family="Times,serif" font-size="14.00">AgGridViewComponent</text>
</g>
<!-- AgGridModule -->
<g id="node4" class="node">
<title>AgGridModule</title>
<polygon fill="#8dd3c7" stroke="black" points="325.31,-152.8 322.31,-156.8 301.31,-156.8 298.31,-152.8 222.69,-152.8 222.69,-116.8 325.31,-116.8 325.31,-152.8"/>
<text text-anchor="middle" x="274" y="-130.6" font-family="Times,serif" font-size="14.00">AgGridModule</text>
</g>
<!-- AgGridViewComponent&#45;&gt;AgGridModule -->
<g id="edge1" class="edge">
<title>AgGridViewComponent&#45;&gt;AgGridModule</title>
<path fill="none" stroke="black" d="M441,-84.95C441,-108.56 441,-146.8 441,-146.8 441,-146.8 335.47,-146.8 335.47,-146.8"/>
<polygon fill="black" stroke="black" points="335.47,-143.3 325.47,-146.8 335.47,-150.3 335.47,-143.3"/>
</g>
<!-- DataModalComponent -->
<g id="node2" class="node">
<title>DataModalComponent</title>
<polygon fill="#ffffb3" stroke="black" points="346.31,-84.8 201.69,-84.8 201.69,-48.8 346.31,-48.8 346.31,-84.8"/>
<text text-anchor="middle" x="274" y="-62.6" font-family="Times,serif" font-size="14.00">DataModalComponent</text>
</g>
<!-- DataModalComponent&#45;&gt;AgGridModule -->
<g id="edge2" class="edge">
<title>DataModalComponent&#45;&gt;AgGridModule</title>
<path fill="none" stroke="black" d="M274,-85.02C274,-85.02 274,-106.53 274,-106.53"/>
<polygon fill="black" stroke="black" points="270.5,-106.53 274,-116.53 277.5,-106.53 270.5,-106.53"/>
</g>
<!-- FacetWrapperComponent -->
<g id="node3" class="node">
<title>FacetWrapperComponent</title>
<polygon fill="#ffffb3" stroke="black" points="184.11,-84.8 23.89,-84.8 23.89,-48.8 184.11,-48.8 184.11,-84.8"/>
<text text-anchor="middle" x="104" y="-62.6" font-family="Times,serif" font-size="14.00">FacetWrapperComponent</text>
</g>
<!-- FacetWrapperComponent&#45;&gt;AgGridModule -->
<g id="edge3" class="edge">
<title>FacetWrapperComponent&#45;&gt;AgGridModule</title>
<path fill="none" stroke="black" d="M104,-85.02C104,-105.17 104,-134.8 104,-134.8 104,-134.8 212.53,-134.8 212.53,-134.8"/>
<polygon fill="black" stroke="black" points="212.53,-138.3 222.53,-134.8 212.53,-131.3 212.53,-138.3"/>
</g>
<!-- AgGridViewComponent  -->
<g id="node5" class="node">
<title>AgGridViewComponent </title>
<polygon fill="#fb8072" stroke="black" points="352.92,-217.8 195.08,-217.8 195.08,-181.8 352.92,-181.8 352.92,-217.8"/>
<text text-anchor="middle" x="274" y="-195.6" font-family="Times,serif" font-size="14.00">AgGridViewComponent </text>
</g>
<!-- AgGridModule&#45;&gt;AgGridViewComponent  -->
<g id="edge4" class="edge">
<title>AgGridModule&#45;&gt;AgGridViewComponent </title>
<path fill="none" stroke="black" stroke-dasharray="5,2" d="M274,-152.91C274,-152.91 274,-171.79 274,-171.79"/>
<polygon fill="black" stroke="black" points="270.5,-171.79 274,-181.79 277.5,-171.79 270.5,-171.79"/>
</g>
<!-- BsFacetHeatmapComponent -->
<g id="node6" class="node">
<title>BsFacetHeatmapComponent</title>
<polygon fill="#ffffb3" stroke="black" points="913.46,-84.8 736.54,-84.8 736.54,-48.8 913.46,-48.8 913.46,-84.8"/>
<text text-anchor="middle" x="825" y="-62.6" font-family="Times,serif" font-size="14.00">BsFacetHeatmapComponent</text>
</g>
<!-- BsHeatmapModule -->
<g id="node10" class="node">
<title>BsHeatmapModule</title>
<polygon fill="#8dd3c7" stroke="black" points="1060.36,-152.8 1057.36,-156.8 1036.36,-156.8 1033.36,-152.8 935.64,-152.8 935.64,-116.8 1060.36,-116.8 1060.36,-152.8"/>
<text text-anchor="middle" x="998" y="-130.6" font-family="Times,serif" font-size="14.00">BsHeatmapModule</text>
</g>
<!-- BsFacetHeatmapComponent&#45;&gt;BsHeatmapModule -->
<g id="edge5" class="edge">
<title>BsFacetHeatmapComponent&#45;&gt;BsHeatmapModule</title>
<path fill="none" stroke="black" d="M909.86,-84.83C909.86,-101.2 909.86,-122.8 909.86,-122.8 909.86,-122.8 925.35,-122.8 925.35,-122.8"/>
<polygon fill="black" stroke="black" points="925.35,-126.3 935.35,-122.8 925.35,-119.3 925.35,-126.3"/>
</g>
<!-- BsHeatmapComponent -->
<g id="node7" class="node">
<title>BsHeatmapComponent</title>
<polygon fill="#ffffb3" stroke="black" points="718.15,-84.8 571.85,-84.8 571.85,-48.8 718.15,-48.8 718.15,-84.8"/>
<text text-anchor="middle" x="645" y="-62.6" font-family="Times,serif" font-size="14.00">BsHeatmapComponent</text>
</g>
<!-- BsHeatmapComponent&#45;&gt;BsHeatmapModule -->
<g id="edge6" class="edge">
<title>BsHeatmapComponent&#45;&gt;BsHeatmapModule</title>
<path fill="none" stroke="black" d="M713.2,-85.07C713.2,-103.36 713.2,-128.8 713.2,-128.8 713.2,-128.8 925.5,-128.8 925.5,-128.8"/>
<polygon fill="black" stroke="black" points="925.5,-132.3 935.5,-128.8 925.5,-125.3 925.5,-132.3"/>
</g>
<!-- BsResultsHeatmapView -->
<g id="node8" class="node">
<title>BsResultsHeatmapView</title>
<polygon fill="#ffffb3" stroke="black" points="1239.35,-84.8 1086.65,-84.8 1086.65,-48.8 1239.35,-48.8 1239.35,-84.8"/>
<text text-anchor="middle" x="1163" y="-62.6" font-family="Times,serif" font-size="14.00">BsResultsHeatmapView</text>
</g>
<!-- BsResultsHeatmapView&#45;&gt;BsHeatmapModule -->
<g id="edge7" class="edge">
<title>BsResultsHeatmapView&#45;&gt;BsHeatmapModule</title>
<path fill="none" stroke="black" d="M1137.52,-84.82C1137.52,-102.17 1137.52,-125.8 1137.52,-125.8 1137.52,-125.8 1070.42,-125.8 1070.42,-125.8"/>
<polygon fill="black" stroke="black" points="1070.42,-122.3 1060.42,-125.8 1070.42,-129.3 1070.42,-122.3"/>
</g>
<!-- BsTooltipComponent -->
<g id="node9" class="node">
<title>BsTooltipComponent</title>
<polygon fill="#ffffb3" stroke="black" points="1068.84,-84.8 931.16,-84.8 931.16,-48.8 1068.84,-48.8 1068.84,-84.8"/>
<text text-anchor="middle" x="1000" y="-62.6" font-family="Times,serif" font-size="14.00">BsTooltipComponent</text>
</g>
<!-- BsTooltipComponent&#45;&gt;BsHeatmapModule -->
<g id="edge8" class="edge">
<title>BsTooltipComponent&#45;&gt;BsHeatmapModule</title>
<path fill="none" stroke="black" d="M998,-85.02C998,-85.02 998,-106.53 998,-106.53"/>
<polygon fill="black" stroke="black" points="994.5,-106.53 998,-116.53 1001.5,-106.53 994.5,-106.53"/>
</g>
<!-- BsFacetHeatmapComponent  -->
<g id="node11" class="node">
<title>BsFacetHeatmapComponent </title>
<polygon fill="#fb8072" stroke="black" points="906.46,-217.8 725.54,-217.8 725.54,-181.8 906.46,-181.8 906.46,-217.8"/>
<text text-anchor="middle" x="816" y="-195.6" font-family="Times,serif" font-size="14.00">BsFacetHeatmapComponent </text>
</g>
<!-- BsHeatmapModule&#45;&gt;BsFacetHeatmapComponent  -->
<g id="edge9" class="edge">
<title>BsHeatmapModule&#45;&gt;BsFacetHeatmapComponent </title>
<path fill="none" stroke="black" stroke-dasharray="5,2" d="M935.23,-140.8C884.46,-140.8 821.38,-140.8 821.38,-140.8 821.38,-140.8 821.38,-171.78 821.38,-171.78"/>
<polygon fill="black" stroke="black" points="817.88,-171.78 821.38,-181.78 824.88,-171.78 817.88,-171.78"/>
</g>
<!-- BsHeatmapComponent  -->
<g id="node12" class="node">
<title>BsHeatmapComponent </title>
<polygon fill="#fb8072" stroke="black" points="708.15,-217.8 557.85,-217.8 557.85,-181.8 708.15,-181.8 708.15,-217.8"/>
<text text-anchor="middle" x="633" y="-195.6" font-family="Times,serif" font-size="14.00">BsHeatmapComponent </text>
</g>
<!-- BsHeatmapModule&#45;&gt;BsHeatmapComponent  -->
<g id="edge10" class="edge">
<title>BsHeatmapModule&#45;&gt;BsHeatmapComponent </title>
<path fill="none" stroke="black" stroke-dasharray="5,2" d="M935.62,-134.8C833.01,-134.8 639.88,-134.8 639.88,-134.8 639.88,-134.8 639.88,-171.69 639.88,-171.69"/>
<polygon fill="black" stroke="black" points="636.38,-171.69 639.88,-181.69 643.38,-171.69 636.38,-171.69"/>
</g>
<!-- BsResultsHeatmapView  -->
<g id="node13" class="node">
<title>BsResultsHeatmapView </title>
<polygon fill="#fb8072" stroke="black" points="1240.35,-217.8 1083.65,-217.8 1083.65,-181.8 1240.35,-181.8 1240.35,-217.8"/>
<text text-anchor="middle" x="1162" y="-195.6" font-family="Times,serif" font-size="14.00">BsResultsHeatmapView </text>
</g>
<!-- BsHeatmapModule&#45;&gt;BsResultsHeatmapView  -->
<g id="edge11" class="edge">
<title>BsHeatmapModule&#45;&gt;BsResultsHeatmapView </title>
<path fill="none" stroke="black" stroke-dasharray="5,2" d="M1060.37,-143.8C1115.92,-143.8 1188.48,-143.8 1188.48,-143.8 1188.48,-143.8 1188.48,-171.77 1188.48,-171.77"/>
<polygon fill="black" stroke="black" points="1184.98,-171.77 1188.48,-181.77 1191.98,-171.77 1184.98,-171.77"/>
</g>
<!-- BsTooltipComponent  -->
<g id="node14" class="node">
<title>BsTooltipComponent </title>
<polygon fill="#fb8072" stroke="black" points="1065.34,-217.8 924.66,-217.8 924.66,-181.8 1065.34,-181.8 1065.34,-217.8"/>
<text text-anchor="middle" x="995" y="-195.6" font-family="Times,serif" font-size="14.00">BsTooltipComponent </text>
</g>
<!-- BsHeatmapModule&#45;&gt;BsTooltipComponent  -->
<g id="edge12" class="edge">
<title>BsHeatmapModule&#45;&gt;BsTooltipComponent </title>
<path fill="none" stroke="black" stroke-dasharray="5,2" d="M977.19,-152.91C977.19,-152.91 977.19,-171.79 977.19,-171.79"/>
<polygon fill="black" stroke="black" points="973.69,-171.79 977.19,-181.79 980.69,-171.79 973.69,-171.79"/>
</g>
<!-- BsTimelineModule -->
<g id="node18" class="node">
<title>BsTimelineModule</title>
<polygon fill="#8dd3c7" stroke="black" points="1600.38,-217.8 1597.38,-221.8 1576.38,-221.8 1573.38,-217.8 1475.62,-217.8 1475.62,-181.8 1600.38,-181.8 1600.38,-217.8"/>
<text text-anchor="middle" x="1538" y="-195.6" font-family="Times,serif" font-size="14.00">BsTimelineModule</text>
</g>
<!-- BsHeatmapModule&#45;&gt;BsTimelineModule -->
<g id="edge16" class="edge">
<title>BsHeatmapModule&#45;&gt;BsTimelineModule</title>
<path fill="none" stroke="black" d="M1060.43,-134.8C1137.94,-134.8 1260.05,-134.8 1260.05,-134.8 1260.05,-134.8 1260.05,-199.8 1260.05,-199.8 1260.05,-199.8 1465.62,-199.8 1465.62,-199.8"/>
<polygon fill="black" stroke="black" points="1465.62,-203.3 1475.62,-199.8 1465.62,-196.3 1465.62,-203.3"/>
</g>
<!-- FinanceModule -->
<g id="node24" class="node">
<title>FinanceModule</title>
<polygon fill="#8dd3c7" stroke="black" points="2003.87,-217.8 2000.87,-221.8 1979.87,-221.8 1976.87,-217.8 1900.13,-217.8 1900.13,-181.8 2003.87,-181.8 2003.87,-217.8"/>
<text text-anchor="middle" x="1952" y="-195.6" font-family="Times,serif" font-size="14.00">FinanceModule</text>
</g>
<!-- BsHeatmapModule&#45;&gt;FinanceModule -->
<g id="edge22" class="edge">
<title>BsHeatmapModule&#45;&gt;FinanceModule</title>
<path fill="none" stroke="black" d="M1018.81,-152.84C1018.81,-160.55 1018.81,-167.8 1018.81,-167.8 1018.81,-167.8 1934.69,-167.8 1934.69,-167.8 1934.69,-167.8 1934.69,-171.56 1934.69,-171.56"/>
<polygon fill="black" stroke="black" points="1931.19,-171.56 1934.69,-181.56 1938.19,-171.56 1931.19,-171.56"/>
</g>
<!-- BsFacetTimelineComponent -->
<g id="node15" class="node">
<title>BsFacetTimelineComponent</title>
<polygon fill="#ffffb3" stroke="black" points="1813.47,-152.8 1636.53,-152.8 1636.53,-116.8 1813.47,-116.8 1813.47,-152.8"/>
<text text-anchor="middle" x="1725" y="-130.6" font-family="Times,serif" font-size="14.00">BsFacetTimelineComponent</text>
</g>
<!-- BsFacetTimelineComponent&#45;&gt;BsTimelineModule -->
<g id="edge13" class="edge">
<title>BsFacetTimelineComponent&#45;&gt;BsTimelineModule</title>
<path fill="none" stroke="black" d="M1641.42,-152.82C1641.42,-170.17 1641.42,-193.8 1641.42,-193.8 1641.42,-193.8 1610.54,-193.8 1610.54,-193.8"/>
<polygon fill="black" stroke="black" points="1610.54,-190.3 1600.54,-193.8 1610.54,-197.3 1610.54,-190.3"/>
</g>
<!-- BsTimelineComponent -->
<g id="node16" class="node">
<title>BsTimelineComponent</title>
<polygon fill="#ffffb3" stroke="black" points="1618.16,-152.8 1471.84,-152.8 1471.84,-116.8 1618.16,-116.8 1618.16,-152.8"/>
<text text-anchor="middle" x="1545" y="-130.6" font-family="Times,serif" font-size="14.00">BsTimelineComponent</text>
</g>
<!-- BsTimelineComponent&#45;&gt;BsTimelineModule -->
<g id="edge14" class="edge">
<title>BsTimelineComponent&#45;&gt;BsTimelineModule</title>
<path fill="none" stroke="black" d="M1538,-152.91C1538,-152.91 1538,-171.79 1538,-171.79"/>
<polygon fill="black" stroke="black" points="1534.5,-171.79 1538,-181.79 1541.5,-171.79 1534.5,-171.79"/>
</g>
<!-- TimelineLegendComponent -->
<g id="node17" class="node">
<title>TimelineLegendComponent</title>
<polygon fill="#ffffb3" stroke="black" points="1453.86,-152.8 1280.14,-152.8 1280.14,-116.8 1453.86,-116.8 1453.86,-152.8"/>
<text text-anchor="middle" x="1367" y="-130.6" font-family="Times,serif" font-size="14.00">TimelineLegendComponent</text>
</g>
<!-- TimelineLegendComponent&#45;&gt;BsTimelineModule -->
<g id="edge15" class="edge">
<title>TimelineLegendComponent&#45;&gt;BsTimelineModule</title>
<path fill="none" stroke="black" d="M1438.92,-152.83C1438.92,-169.2 1438.92,-190.8 1438.92,-190.8 1438.92,-190.8 1465.53,-190.8 1465.53,-190.8"/>
<polygon fill="black" stroke="black" points="1465.53,-194.3 1475.53,-190.8 1465.53,-187.3 1465.53,-194.3"/>
</g>
<!-- BsFacetTimelineComponent  -->
<g id="node19" class="node">
<title>BsFacetTimelineComponent </title>
<polygon fill="#fb8072" stroke="black" points="1628.48,-285.8 1447.52,-285.8 1447.52,-249.8 1628.48,-249.8 1628.48,-285.8"/>
<text text-anchor="middle" x="1538" y="-263.6" font-family="Times,serif" font-size="14.00">BsFacetTimelineComponent </text>
</g>
<!-- BsTimelineModule&#45;&gt;BsFacetTimelineComponent  -->
<g id="edge17" class="edge">
<title>BsTimelineModule&#45;&gt;BsFacetTimelineComponent </title>
<path fill="none" stroke="black" stroke-dasharray="5,2" d="M1538,-218.02C1538,-218.02 1538,-239.53 1538,-239.53"/>
<polygon fill="black" stroke="black" points="1534.5,-239.53 1538,-249.53 1541.5,-239.53 1534.5,-239.53"/>
</g>
<!-- BsTimelineComponent  -->
<g id="node20" class="node">
<title>BsTimelineComponent </title>
<polygon fill="#fb8072" stroke="black" points="1430.16,-285.8 1279.84,-285.8 1279.84,-249.8 1430.16,-249.8 1430.16,-285.8"/>
<text text-anchor="middle" x="1355" y="-263.6" font-family="Times,serif" font-size="14.00">BsTimelineComponent </text>
</g>
<!-- BsTimelineModule&#45;&gt;BsTimelineComponent  -->
<g id="edge18" class="edge">
<title>BsTimelineModule&#45;&gt;BsTimelineComponent </title>
<path fill="none" stroke="black" stroke-dasharray="5,2" d="M1475.56,-208.8C1422.57,-208.8 1355.07,-208.8 1355.07,-208.8 1355.07,-208.8 1355.07,-239.78 1355.07,-239.78"/>
<polygon fill="black" stroke="black" points="1351.57,-239.78 1355.07,-249.78 1358.57,-239.78 1351.57,-239.78"/>
</g>
<!-- TimelineLegendComponent  -->
<g id="node21" class="node">
<title>TimelineLegendComponent </title>
<polygon fill="#fb8072" stroke="black" points="1823.86,-285.8 1646.14,-285.8 1646.14,-249.8 1823.86,-249.8 1823.86,-285.8"/>
<text text-anchor="middle" x="1735" y="-263.6" font-family="Times,serif" font-size="14.00">TimelineLegendComponent </text>
</g>
<!-- BsTimelineModule&#45;&gt;TimelineLegendComponent  -->
<g id="edge19" class="edge">
<title>BsTimelineModule&#45;&gt;TimelineLegendComponent </title>
<path fill="none" stroke="black" stroke-dasharray="5,2" d="M1600.57,-205.8C1656.57,-205.8 1729.9,-205.8 1729.9,-205.8 1729.9,-205.8 1729.9,-239.53 1729.9,-239.53"/>
<polygon fill="black" stroke="black" points="1726.4,-239.53 1729.9,-249.53 1733.4,-239.53 1726.4,-239.53"/>
</g>
<!-- MoneyCloudComponent -->
<g id="node22" class="node">
<title>MoneyCloudComponent</title>
<polygon fill="#ffffb3" stroke="black" points="2209.72,-152.8 2054.28,-152.8 2054.28,-116.8 2209.72,-116.8 2209.72,-152.8"/>
<text text-anchor="middle" x="2132" y="-130.6" font-family="Times,serif" font-size="14.00">MoneyCloudComponent</text>
</g>
<!-- MoneyCloudComponent&#45;&gt;FinanceModule -->
<g id="edge20" class="edge">
<title>MoneyCloudComponent&#45;&gt;FinanceModule</title>
<path fill="none" stroke="black" d="M2158.95,-152.82C2158.95,-170.17 2158.95,-193.8 2158.95,-193.8 2158.95,-193.8 2013.96,-193.8 2013.96,-193.8"/>
<polygon fill="black" stroke="black" points="2013.96,-190.3 2003.96,-193.8 2013.96,-197.3 2013.96,-190.3"/>
</g>
<!-- MoneyTimelineComponent -->
<g id="node23" class="node">
<title>MoneyTimelineComponent</title>
<polygon fill="#ffffb3" stroke="black" points="2036.54,-152.8 1865.46,-152.8 1865.46,-116.8 2036.54,-116.8 2036.54,-152.8"/>
<text text-anchor="middle" x="1951" y="-130.6" font-family="Times,serif" font-size="14.00">MoneyTimelineComponent</text>
</g>
<!-- MoneyTimelineComponent&#45;&gt;FinanceModule -->
<g id="edge21" class="edge">
<title>MoneyTimelineComponent&#45;&gt;FinanceModule</title>
<path fill="none" stroke="black" d="M1969.31,-152.91C1969.31,-152.91 1969.31,-171.79 1969.31,-171.79"/>
<polygon fill="black" stroke="black" points="1965.81,-171.79 1969.31,-181.79 1972.81,-171.79 1965.81,-171.79"/>
</g>
<!-- MoneyCloudComponent  -->
<g id="node25" class="node">
<title>MoneyCloudComponent </title>
<polygon fill="#fb8072" stroke="black" points="2216.22,-285.8 2057.78,-285.8 2057.78,-249.8 2216.22,-249.8 2216.22,-285.8"/>
<text text-anchor="middle" x="2137" y="-263.6" font-family="Times,serif" font-size="14.00">MoneyCloudComponent </text>
</g>
<!-- FinanceModule&#45;&gt;MoneyCloudComponent  -->
<g id="edge23" class="edge">
<title>FinanceModule&#45;&gt;MoneyCloudComponent </title>
<path fill="none" stroke="black" stroke-dasharray="5,2" d="M2004.04,-205.8C2049.51,-205.8 2108.3,-205.8 2108.3,-205.8 2108.3,-205.8 2108.3,-239.53 2108.3,-239.53"/>
<polygon fill="black" stroke="black" points="2104.8,-239.53 2108.3,-249.53 2111.8,-239.53 2104.8,-239.53"/>
</g>
<!-- MoneyTimelineComponent  -->
<g id="node26" class="node">
<title>MoneyTimelineComponent </title>
<polygon fill="#fb8072" stroke="black" points="2039.54,-285.8 1864.46,-285.8 1864.46,-249.8 2039.54,-249.8 2039.54,-285.8"/>
<text text-anchor="middle" x="1952" y="-263.6" font-family="Times,serif" font-size="14.00">MoneyTimelineComponent </text>
</g>
<!-- FinanceModule&#45;&gt;MoneyTimelineComponent  -->
<g id="edge24" class="edge">
<title>FinanceModule&#45;&gt;MoneyTimelineComponent </title>
<path fill="none" stroke="black" stroke-dasharray="5,2" d="M1952,-218.02C1952,-218.02 1952,-239.53 1952,-239.53"/>
<polygon fill="black" stroke="black" points="1948.5,-239.53 1952,-249.53 1955.5,-239.53 1948.5,-239.53"/>
</g>
<!-- FusionChart -->
<g id="node27" class="node">
<title>FusionChart</title>
<polygon fill="#ffffb3" stroke="black" points="2357.72,-84.8 2272.28,-84.8 2272.28,-48.8 2357.72,-48.8 2357.72,-84.8"/>
<text text-anchor="middle" x="2315" y="-62.6" font-family="Times,serif" font-size="14.00">FusionChart</text>
</g>
<!-- FusionChartsModule -->
<g id="node28" class="node">
<title>FusionChartsModule</title>
<polygon fill="#8dd3c7" stroke="black" points="2382.21,-152.8 2379.21,-156.8 2358.21,-156.8 2355.21,-152.8 2247.79,-152.8 2247.79,-116.8 2382.21,-116.8 2382.21,-152.8"/>
<text text-anchor="middle" x="2315" y="-130.6" font-family="Times,serif" font-size="14.00">FusionChartsModule</text>
</g>
<!-- FusionChart&#45;&gt;FusionChartsModule -->
<g id="edge25" class="edge">
<title>FusionChart&#45;&gt;FusionChartsModule</title>
<path fill="none" stroke="black" d="M2315,-85.02C2315,-85.02 2315,-106.53 2315,-106.53"/>
<polygon fill="black" stroke="black" points="2311.5,-106.53 2315,-116.53 2318.5,-106.53 2311.5,-106.53"/>
</g>
<!-- FusionChart  -->
<g id="node29" class="node">
<title>FusionChart </title>
<polygon fill="#fb8072" stroke="black" points="2359.22,-217.8 2270.78,-217.8 2270.78,-181.8 2359.22,-181.8 2359.22,-217.8"/>
<text text-anchor="middle" x="2315" y="-195.6" font-family="Times,serif" font-size="14.00">FusionChart </text>
</g>
<!-- FusionChartsModule&#45;&gt;FusionChart  -->
<g id="edge26" class="edge">
<title>FusionChartsModule&#45;&gt;FusionChart </title>
<path fill="none" stroke="black" stroke-dasharray="5,2" d="M2315,-152.91C2315,-152.91 2315,-171.79 2315,-171.79"/>
<polygon fill="black" stroke="black" points="2311.5,-171.79 2315,-181.79 2318.5,-171.79 2311.5,-171.79"/>
</g>
<!-- MapComponent -->
<g id="node30" class="node">
<title>MapComponent</title>
<polygon fill="#ffffb3" stroke="black" points="2525.49,-84.8 2418.51,-84.8 2418.51,-48.8 2525.49,-48.8 2525.49,-84.8"/>
<text text-anchor="middle" x="2472" y="-62.6" font-family="Times,serif" font-size="14.00">MapComponent</text>
</g>
<!-- GoogleMapsModule -->
<g id="node31" class="node">
<title>GoogleMapsModule</title>
<polygon fill="#8dd3c7" stroke="black" points="2537.87,-152.8 2534.87,-156.8 2513.87,-156.8 2510.87,-152.8 2406.13,-152.8 2406.13,-116.8 2537.87,-116.8 2537.87,-152.8"/>
<text text-anchor="middle" x="2472" y="-130.6" font-family="Times,serif" font-size="14.00">GoogleMapsModule</text>
</g>
<!-- MapComponent&#45;&gt;GoogleMapsModule -->
<g id="edge27" class="edge">
<title>MapComponent&#45;&gt;GoogleMapsModule</title>
<path fill="none" stroke="black" d="M2472,-85.02C2472,-85.02 2472,-106.53 2472,-106.53"/>
<polygon fill="black" stroke="black" points="2468.5,-106.53 2472,-116.53 2475.5,-106.53 2468.5,-106.53"/>
</g>
<!-- MapComponent  -->
<g id="node32" class="node">
<title>MapComponent </title>
<polygon fill="#fb8072" stroke="black" points="2527.49,-217.8 2416.51,-217.8 2416.51,-181.8 2527.49,-181.8 2527.49,-217.8"/>
<text text-anchor="middle" x="2472" y="-195.6" font-family="Times,serif" font-size="14.00">MapComponent </text>
</g>
<!-- GoogleMapsModule&#45;&gt;MapComponent  -->
<g id="edge28" class="edge">
<title>GoogleMapsModule&#45;&gt;MapComponent </title>
<path fill="none" stroke="black" stroke-dasharray="5,2" d="M2472,-152.91C2472,-152.91 2472,-171.79 2472,-171.79"/>
<polygon fill="black" stroke="black" points="2468.5,-171.79 2472,-181.79 2475.5,-171.79 2468.5,-171.79"/>
</g>
<!-- BsEdgeInfoCard -->
<g id="node33" class="node">
<title>BsEdgeInfoCard</title>
<polygon fill="#ffffb3" stroke="black" points="2963.08,-84.8 2852.92,-84.8 2852.92,-48.8 2963.08,-48.8 2963.08,-84.8"/>
<text text-anchor="middle" x="2908" y="-62.6" font-family="Times,serif" font-size="14.00">BsEdgeInfoCard</text>
</g>
<!-- NetworkModule -->
<g id="node36" class="node">
<title>NetworkModule</title>
<polygon fill="#8dd3c7" stroke="black" points="2833.03,-152.8 2830.03,-156.8 2809.03,-156.8 2806.03,-152.8 2724.97,-152.8 2724.97,-116.8 2833.03,-116.8 2833.03,-152.8"/>
<text text-anchor="middle" x="2779" y="-130.6" font-family="Times,serif" font-size="14.00">NetworkModule</text>
</g>
<!-- BsEdgeInfoCard&#45;&gt;NetworkModule -->
<g id="edge29" class="edge">
<title>BsEdgeInfoCard&#45;&gt;NetworkModule</title>
<path fill="none" stroke="black" d="M2926.76,-85.07C2926.76,-103.36 2926.76,-128.8 2926.76,-128.8 2926.76,-128.8 2843.18,-128.8 2843.18,-128.8"/>
<polygon fill="black" stroke="black" points="2843.18,-125.3 2833.18,-128.8 2843.18,-132.3 2843.18,-125.3"/>
</g>
<!-- BsNodeInfoCard -->
<g id="node34" class="node">
<title>BsNodeInfoCard</title>
<polygon fill="#ffffb3" stroke="black" points="2834.64,-84.8 2723.36,-84.8 2723.36,-48.8 2834.64,-48.8 2834.64,-84.8"/>
<text text-anchor="middle" x="2779" y="-62.6" font-family="Times,serif" font-size="14.00">BsNodeInfoCard</text>
</g>
<!-- BsNodeInfoCard&#45;&gt;NetworkModule -->
<g id="edge30" class="edge">
<title>BsNodeInfoCard&#45;&gt;NetworkModule</title>
<path fill="none" stroke="black" d="M2779,-85.02C2779,-85.02 2779,-106.53 2779,-106.53"/>
<polygon fill="black" stroke="black" points="2775.5,-106.53 2779,-116.53 2782.5,-106.53 2775.5,-106.53"/>
</g>
<!-- NetworkComponent -->
<g id="node35" class="node">
<title>NetworkComponent</title>
<polygon fill="#ffffb3" stroke="black" points="2705.31,-84.8 2574.69,-84.8 2574.69,-48.8 2705.31,-48.8 2705.31,-84.8"/>
<text text-anchor="middle" x="2640" y="-62.6" font-family="Times,serif" font-size="14.00">NetworkComponent</text>
</g>
<!-- NetworkComponent&#45;&gt;NetworkModule -->
<g id="edge31" class="edge">
<title>NetworkComponent&#45;&gt;NetworkModule</title>
<path fill="none" stroke="black" d="M2660.89,-85.07C2660.89,-103.36 2660.89,-128.8 2660.89,-128.8 2660.89,-128.8 2714.78,-128.8 2714.78,-128.8"/>
<polygon fill="black" stroke="black" points="2714.78,-132.3 2724.78,-128.8 2714.78,-125.3 2714.78,-132.3"/>
</g>
<!-- BsEdgeInfoCard  -->
<g id="node37" class="node">
<title>BsEdgeInfoCard </title>
<polygon fill="#fb8072" stroke="black" points="2967.58,-217.8 2854.42,-217.8 2854.42,-181.8 2967.58,-181.8 2967.58,-217.8"/>
<text text-anchor="middle" x="2911" y="-195.6" font-family="Times,serif" font-size="14.00">BsEdgeInfoCard </text>
</g>
<!-- NetworkModule&#45;&gt;BsEdgeInfoCard  -->
<g id="edge32" class="edge">
<title>NetworkModule&#45;&gt;BsEdgeInfoCard </title>
<path fill="none" stroke="black" stroke-dasharray="5,2" d="M2833.11,-140.8C2861.52,-140.8 2890.49,-140.8 2890.49,-140.8 2890.49,-140.8 2890.49,-171.78 2890.49,-171.78"/>
<polygon fill="black" stroke="black" points="2886.99,-171.78 2890.49,-181.78 2893.99,-171.78 2886.99,-171.78"/>
</g>
<!-- BsNodeInfoCard  -->
<g id="node38" class="node">
<title>BsNodeInfoCard </title>
<polygon fill="#fb8072" stroke="black" points="2836.64,-217.8 2721.36,-217.8 2721.36,-181.8 2836.64,-181.8 2836.64,-217.8"/>
<text text-anchor="middle" x="2779" y="-195.6" font-family="Times,serif" font-size="14.00">BsNodeInfoCard </text>
</g>
<!-- NetworkModule&#45;&gt;BsNodeInfoCard  -->
<g id="edge33" class="edge">
<title>NetworkModule&#45;&gt;BsNodeInfoCard </title>
<path fill="none" stroke="black" stroke-dasharray="5,2" d="M2779,-152.91C2779,-152.91 2779,-171.79 2779,-171.79"/>
<polygon fill="black" stroke="black" points="2775.5,-171.79 2779,-181.79 2782.5,-171.79 2775.5,-171.79"/>
</g>
<!-- NetworkComponent  -->
<g id="node39" class="node">
<title>NetworkComponent </title>
<polygon fill="#fb8072" stroke="black" points="2703.81,-217.8 2570.19,-217.8 2570.19,-181.8 2703.81,-181.8 2703.81,-217.8"/>
<text text-anchor="middle" x="2637" y="-195.6" font-family="Times,serif" font-size="14.00">NetworkComponent </text>
</g>
<!-- NetworkModule&#45;&gt;NetworkComponent  -->
<g id="edge34" class="edge">
<title>NetworkModule&#45;&gt;NetworkComponent </title>
<path fill="none" stroke="black" stroke-dasharray="5,2" d="M2724.9,-140.8C2678.08,-140.8 2617.86,-140.8 2617.86,-140.8 2617.86,-140.8 2617.86,-171.78 2617.86,-171.78"/>
<polygon fill="black" stroke="black" points="2614.36,-171.78 2617.86,-181.78 2621.36,-171.78 2614.36,-171.78"/>
</g>
<!-- FacetNgxChart -->
<g id="node40" class="node">
<title>FacetNgxChart</title>
<polygon fill="#ffffb3" stroke="black" points="3201.53,-84.8 3100.47,-84.8 3100.47,-48.8 3201.53,-48.8 3201.53,-84.8"/>
<text text-anchor="middle" x="3151" y="-62.6" font-family="Times,serif" font-size="14.00">FacetNgxChart</text>
</g>
<!-- NgxChartsModule -->
<g id="node42" class="node">
<title>NgxChartsModule</title>
<polygon fill="#8dd3c7" stroke="black" points="3164.2,-152.8 3161.2,-156.8 3140.2,-156.8 3137.2,-152.8 3043.8,-152.8 3043.8,-116.8 3164.2,-116.8 3164.2,-152.8"/>
<text text-anchor="middle" x="3104" y="-130.6" font-family="Times,serif" font-size="14.00">NgxChartsModule</text>
</g>
<!-- FacetNgxChart&#45;&gt;NgxChartsModule -->
<g id="edge35" class="edge">
<title>FacetNgxChart&#45;&gt;NgxChartsModule</title>
<path fill="none" stroke="black" d="M3132.17,-85.02C3132.17,-85.02 3132.17,-106.53 3132.17,-106.53"/>
<polygon fill="black" stroke="black" points="3128.67,-106.53 3132.17,-116.53 3135.67,-106.53 3128.67,-106.53"/>
</g>
<!-- NgxChart -->
<g id="node41" class="node">
<title>NgxChart</title>
<polygon fill="#ffffb3" stroke="black" points="3082.71,-84.8 3011.29,-84.8 3011.29,-48.8 3082.71,-48.8 3082.71,-84.8"/>
<text text-anchor="middle" x="3047" y="-62.6" font-family="Times,serif" font-size="14.00">NgxChart</text>
</g>
<!-- NgxChart&#45;&gt;NgxChartsModule -->
<g id="edge36" class="edge">
<title>NgxChart&#45;&gt;NgxChartsModule</title>
<path fill="none" stroke="black" d="M3063.25,-85.02C3063.25,-85.02 3063.25,-106.53 3063.25,-106.53"/>
<polygon fill="black" stroke="black" points="3059.75,-106.53 3063.25,-116.53 3066.75,-106.53 3059.75,-106.53"/>
</g>
<!-- FacetNgxChart  -->
<g id="node43" class="node">
<title>FacetNgxChart </title>
<polygon fill="#fb8072" stroke="black" points="3205.53,-217.8 3100.47,-217.8 3100.47,-181.8 3205.53,-181.8 3205.53,-217.8"/>
<text text-anchor="middle" x="3153" y="-195.6" font-family="Times,serif" font-size="14.00">FacetNgxChart </text>
</g>
<!-- NgxChartsModule&#45;&gt;FacetNgxChart  -->
<g id="edge37" class="edge">
<title>NgxChartsModule&#45;&gt;FacetNgxChart </title>
<path fill="none" stroke="black" stroke-dasharray="5,2" d="M3132.29,-152.91C3132.29,-152.91 3132.29,-171.79 3132.29,-171.79"/>
<polygon fill="black" stroke="black" points="3128.79,-171.79 3132.29,-181.79 3135.79,-171.79 3128.79,-171.79"/>
</g>
<!-- NgxChart  -->
<g id="node44" class="node">
<title>NgxChart </title>
<polygon fill="#fb8072" stroke="black" points="3082.21,-217.8 3007.79,-217.8 3007.79,-181.8 3082.21,-181.8 3082.21,-217.8"/>
<text text-anchor="middle" x="3045" y="-195.6" font-family="Times,serif" font-size="14.00">NgxChart </text>
</g>
<!-- NgxChartsModule&#45;&gt;NgxChart  -->
<g id="edge38" class="edge">
<title>NgxChartsModule&#45;&gt;NgxChart </title>
<path fill="none" stroke="black" stroke-dasharray="5,2" d="M3063.13,-152.91C3063.13,-152.91 3063.13,-171.79 3063.13,-171.79"/>
<polygon fill="black" stroke="black" points="3059.63,-171.79 3063.13,-181.79 3066.63,-171.79 3059.63,-171.79"/>
</g>
<!-- ResultTimeline -->
<g id="node45" class="node">
<title>ResultTimeline</title>
<polygon fill="#ffffb3" stroke="black" points="3354.32,-84.8 3251.68,-84.8 3251.68,-48.8 3354.32,-48.8 3354.32,-84.8"/>
<text text-anchor="middle" x="3303" y="-62.6" font-family="Times,serif" font-size="14.00">ResultTimeline</text>
</g>
<!-- VisTimelineModule -->
<g id="node46" class="node">
<title>VisTimelineModule</title>
<polygon fill="#8dd3c7" stroke="black" points="3367.54,-152.8 3364.54,-156.8 3343.54,-156.8 3340.54,-152.8 3238.46,-152.8 3238.46,-116.8 3367.54,-116.8 3367.54,-152.8"/>
<text text-anchor="middle" x="3303" y="-130.6" font-family="Times,serif" font-size="14.00">VisTimelineModule</text>
</g>
<!-- ResultTimeline&#45;&gt;VisTimelineModule -->
<g id="edge39" class="edge">
<title>ResultTimeline&#45;&gt;VisTimelineModule</title>
<path fill="none" stroke="black" d="M3303,-85.02C3303,-85.02 3303,-106.53 3303,-106.53"/>
<polygon fill="black" stroke="black" points="3299.5,-106.53 3303,-116.53 3306.5,-106.53 3299.5,-106.53"/>
</g>
<!-- ResultTimeline  -->
<g id="node47" class="node">
<title>ResultTimeline </title>
<polygon fill="#fb8072" stroke="black" points="3355.82,-217.8 3250.18,-217.8 3250.18,-181.8 3355.82,-181.8 3355.82,-217.8"/>
<text text-anchor="middle" x="3303" y="-195.6" font-family="Times,serif" font-size="14.00">ResultTimeline </text>
</g>
<!-- VisTimelineModule&#45;&gt;ResultTimeline  -->
<g id="edge40" class="edge">
<title>VisTimelineModule&#45;&gt;ResultTimeline </title>
<path fill="none" stroke="black" stroke-dasharray="5,2" d="M3303,-152.91C3303,-152.91 3303,-171.79 3303,-171.79"/>
<polygon fill="black" stroke="black" points="3299.5,-171.79 3303,-181.79 3306.5,-171.79 3299.5,-171.79"/>
</g>
</g>
</svg>
