<?xml version="1.0" encoding="UTF-8" standalone="no"?>
<!DOCTYPE svg PUBLIC "-//W3C//DTD SVG 1.1//EN"
 "http://www.w3.org/Graphics/SVG/1.1/DTD/svg11.dtd">
<!-- Generated by graphviz version 2.40.1 (20161225.0304)
 -->
<!-- Title: dependencies Pages: 1 -->
<svg width="3214pt" height="355pt"
 viewBox="0.00 0.00 3214.00 355.00" xmlns="http://www.w3.org/2000/svg" xmlns:xlink="http://www.w3.org/1999/xlink">
<g id="graph0" class="graph" transform="scale(1 1) rotate(0) translate(4 351)">
<title>dependencies</title>
<polygon fill="#ffffff" stroke="transparent" points="-4,4 -4,-351 3210,-351 3210,4 -4,4"/>
<text text-anchor="start" x="1582.0091" y="-42.4" font-family="sans-serif" font-weight="bold" font-size="14.00" fill="#000000">Legend</text>
<polygon fill="#ffffb3" stroke="transparent" points="1369,-10 1369,-30 1389,-30 1389,-10 1369,-10"/>
<text text-anchor="start" x="1392.629" y="-15.4" font-family="sans-serif" font-size="14.00" fill="#000000"> &#160;Declarations</text>
<polygon fill="#8dd3c7" stroke="transparent" points="1482,-10 1482,-30 1502,-30 1502,-10 1482,-10"/>
<text text-anchor="start" x="1505.7251" y="-15.4" font-family="sans-serif" font-size="14.00" fill="#000000"> &#160;Module</text>
<polygon fill="#80b1d3" stroke="transparent" points="1568,-10 1568,-30 1588,-30 1588,-10 1568,-10"/>
<text text-anchor="start" x="1591.7812" y="-15.4" font-family="sans-serif" font-size="14.00" fill="#000000"> &#160;Bootstrap</text>
<polygon fill="#fdb462" stroke="transparent" points="1665,-10 1665,-30 1685,-30 1685,-10 1665,-10"/>
<text text-anchor="start" x="1688.6732" y="-15.4" font-family="sans-serif" font-size="14.00" fill="#000000"> &#160;Providers</text>
<polygon fill="#fb8072" stroke="transparent" points="1761,-10 1761,-30 1781,-30 1781,-10 1761,-10"/>
<text text-anchor="start" x="1784.7258" y="-15.4" font-family="sans-serif" font-size="14.00" fill="#000000"> &#160;Exports</text>
<g id="clust1" class="cluster">
<title>cluster_AgGridModule</title>
<polygon fill="none" stroke="#000000" stroke-dasharray="1,5" points="8,-70 8,-271 356,-271 356,-70 8,-70"/>
</g>
<g id="clust2" class="cluster">
<title>cluster_AgGridModule_declarations</title>
<polygon fill="none" stroke="#000000" points="16,-78 16,-130 348,-130 348,-78 16,-78"/>
</g>
<g id="clust6" class="cluster">
<title>cluster_AgGridModule_exports</title>
<polygon fill="none" stroke="#000000" points="95,-211 95,-263 269,-263 269,-211 95,-211"/>
</g>
<g id="clust9" class="cluster">
<title>cluster_BsHeatmapModule</title>
<polygon fill="none" stroke="#000000" stroke-dasharray="1,5" points="364,-70 364,-271 1078,-271 1078,-70 364,-70"/>
</g>
<g id="clust10" class="cluster">
<title>cluster_BsHeatmapModule_declarations</title>
<polygon fill="none" stroke="#000000" points="386,-78 386,-130 1070,-130 1070,-78 386,-78"/>
</g>
<g id="clust16" class="cluster">
<title>cluster_BsHeatmapModule_exports</title>
<polygon fill="none" stroke="#000000" points="372,-211 372,-263 1070,-263 1070,-211 372,-211"/>
</g>
<g id="clust19" class="cluster">
<title>cluster_BsTimelineModule</title>
<polygon fill="none" stroke="#000000" stroke-dasharray="1,5" points="1086,-138 1086,-339 1662,-339 1662,-138 1086,-138"/>
</g>
<g id="clust20" class="cluster">
<title>cluster_BsTimelineModule_declarations</title>
<polygon fill="none" stroke="#000000" points="1094,-146 1094,-198 1643,-198 1643,-146 1094,-146"/>
</g>
<g id="clust25" class="cluster">
<title>cluster_BsTimelineModule_exports</title>
<polygon fill="none" stroke="#000000" points="1094,-279 1094,-331 1654,-331 1654,-279 1094,-279"/>
</g>
<g id="clust28" class="cluster">
<title>cluster_FinanceModule</title>
<polygon fill="none" stroke="#000000" stroke-dasharray="1,5" points="1670,-138 1670,-339 2054,-339 2054,-138 1670,-138"/>
</g>
<g id="clust29" class="cluster">
<title>cluster_FinanceModule_declarations</title>
<polygon fill="none" stroke="#000000" points="1679,-146 1679,-198 2040,-198 2040,-146 1679,-146"/>
</g>
<g id="clust33" class="cluster">
<title>cluster_FinanceModule_exports</title>
<polygon fill="none" stroke="#000000" points="1678,-279 1678,-331 2046,-331 2046,-279 1678,-279"/>
</g>
<g id="clust36" class="cluster">
<title>cluster_FusionChartsModule</title>
<polygon fill="none" stroke="#000000" stroke-dasharray="1,5" points="2062,-70 2062,-271 2212,-271 2212,-70 2062,-70"/>
</g>
<g id="clust37" class="cluster">
<title>cluster_FusionChartsModule_declarations</title>
<polygon fill="none" stroke="#000000" points="2086,-78 2086,-130 2188,-130 2188,-78 2086,-78"/>
</g>
<g id="clust40" class="cluster">
<title>cluster_FusionChartsModule_exports</title>
<polygon fill="none" stroke="#000000" points="2085,-211 2085,-263 2189,-263 2189,-211 2085,-211"/>
</g>
<g id="clust43" class="cluster">
<title>cluster_GoogleMapsModule</title>
<polygon fill="none" stroke="#000000" stroke-dasharray="1,5" points="2220,-70 2220,-271 2368,-271 2368,-70 2220,-70"/>
</g>
<g id="clust44" class="cluster">
<title>cluster_GoogleMapsModule_declarations</title>
<polygon fill="none" stroke="#000000" points="2233,-78 2233,-130 2355,-130 2355,-78 2233,-78"/>
</g>
<g id="clust47" class="cluster">
<title>cluster_GoogleMapsModule_exports</title>
<polygon fill="none" stroke="#000000" points="2231,-211 2231,-263 2357,-263 2357,-211 2231,-211"/>
</g>
<g id="clust50" class="cluster">
<title>cluster_NetworkModule</title>
<polygon fill="none" stroke="#000000" stroke-dasharray="1,5" points="2376,-70 2376,-271 2806,-271 2806,-70 2376,-70"/>
</g>
<g id="clust51" class="cluster">
<title>cluster_NetworkModule_declarations</title>
<polygon fill="none" stroke="#000000" points="2394,-78 2394,-130 2798,-130 2798,-78 2394,-78"/>
</g>
<g id="clust56" class="cluster">
<title>cluster_NetworkModule_exports</title>
<polygon fill="none" stroke="#000000" points="2384,-211 2384,-263 2798,-263 2798,-211 2384,-211"/>
</g>
<g id="clust59" class="cluster">
<title>cluster_NgxChartsModule</title>
<polygon fill="none" stroke="#000000" stroke-dasharray="1,5" points="2814,-70 2814,-271 3044,-271 3044,-70 2814,-70"/>
</g>
<g id="clust60" class="cluster">
<title>cluster_NgxChartsModule_declarations</title>
<polygon fill="none" stroke="#000000" points="2825,-78 2825,-130 3032,-130 3032,-78 2825,-78"/>
</g>
<g id="clust64" class="cluster">
<title>cluster_NgxChartsModule_exports</title>
<polygon fill="none" stroke="#000000" points="2822,-211 2822,-263 3036,-263 3036,-211 2822,-211"/>
</g>
<g id="clust67" class="cluster">
<title>cluster_VisTimelineModule</title>
<polygon fill="none" stroke="#000000" stroke-dasharray="1,5" points="3052,-70 3052,-271 3198,-271 3198,-70 3052,-70"/>
</g>
<g id="clust68" class="cluster">
<title>cluster_VisTimelineModule_declarations</title>
<polygon fill="none" stroke="#000000" points="3066,-78 3066,-130 3184,-130 3184,-78 3066,-78"/>
</g>
<g id="clust71" class="cluster">
<title>cluster_VisTimelineModule_exports</title>
<polygon fill="none" stroke="#000000" points="3064,-211 3064,-263 3186,-263 3186,-211 3064,-211"/>
</g>
<!-- AgGridViewComponent -->
<g id="node1" class="node">
<title>AgGridViewComponent</title>
<polygon fill="#ffffb3" stroke="#000000" points="340.4158,-122 185.5842,-122 185.5842,-86 340.4158,-86 340.4158,-122"/>
<text text-anchor="middle" x="263" y="-99.8" font-family="Times,serif" font-size="14.00" fill="#000000">AgGridViewComponent</text>
</g>
<!-- AgGridModule -->
<g id="node3" class="node">
<title>AgGridModule</title>
<polygon fill="#8dd3c7" stroke="#000000" points="233.3147,-190 230.3147,-194 209.3147,-194 206.3147,-190 130.6853,-190 130.6853,-154 233.3147,-154 233.3147,-190"/>
<text text-anchor="middle" x="182" y="-167.8" font-family="Times,serif" font-size="14.00" fill="#000000">AgGridModule</text>
</g>
<!-- AgGridViewComponent&#45;&gt;AgGridModule -->
<g id="edge1" class="edge">
<title>AgGridViewComponent&#45;&gt;AgGridModule</title>
<path fill="none" stroke="#000000" d="M209.4748,-122.2228C209.4748,-122.2228 209.4748,-143.7269 209.4748,-143.7269"/>
<polygon fill="#000000" stroke="#000000" points="205.9748,-143.7269 209.4748,-153.7269 212.9748,-143.727 205.9748,-143.7269"/>
</g>
<!-- DataModalComponent -->
<g id="node2" class="node">
<title>DataModalComponent</title>
<polygon fill="#ffffb3" stroke="#000000" points="168.3089,-122 23.6911,-122 23.6911,-86 168.3089,-86 168.3089,-122"/>
<text text-anchor="middle" x="96" y="-99.8" font-family="Times,serif" font-size="14.00" fill="#000000">DataModalComponent</text>
</g>
<!-- DataModalComponent&#45;&gt;AgGridModule -->
<g id="edge2" class="edge">
<title>DataModalComponent&#45;&gt;AgGridModule</title>
<path fill="none" stroke="#000000" d="M149.4986,-122.2228C149.4986,-122.2228 149.4986,-143.7269 149.4986,-143.7269"/>
<polygon fill="#000000" stroke="#000000" points="145.9987,-143.7269 149.4986,-153.7269 152.9987,-143.727 145.9987,-143.7269"/>
</g>
<!-- AgGridViewComponent  -->
<g id="node4" class="node">
<title>AgGridViewComponent </title>
<polygon fill="#fb8072" stroke="#000000" points="260.9152,-255 103.0848,-255 103.0848,-219 260.9152,-219 260.9152,-255"/>
<text text-anchor="middle" x="182" y="-232.8" font-family="Times,serif" font-size="14.00" fill="#000000">AgGridViewComponent </text>
</g>
<!-- AgGridModule&#45;&gt;AgGridViewComponent  -->
<g id="edge3" class="edge">
<title>AgGridModule&#45;&gt;AgGridViewComponent </title>
<path fill="none" stroke="#000000" stroke-dasharray="5,2" d="M182,-190.1061C182,-190.1061 182,-208.991 182,-208.991"/>
<polygon fill="#000000" stroke="#000000" points="178.5001,-208.9909 182,-218.991 185.5001,-208.991 178.5001,-208.9909"/>
</g>
<!-- BsFacetHeatmapComponent -->
<g id="node5" class="node">
<title>BsFacetHeatmapComponent</title>
<polygon fill="#ffffb3" stroke="#000000" points="1062.4622,-122 885.5378,-122 885.5378,-86 1062.4622,-86 1062.4622,-122"/>
<text text-anchor="middle" x="974" y="-99.8" font-family="Times,serif" font-size="14.00" fill="#000000">BsFacetHeatmapComponent</text>
</g>
<!-- BsHeatmapModule -->
<g id="node9" class="node">
<title>BsHeatmapModule</title>
<polygon fill="#8dd3c7" stroke="#000000" points="867.3627,-190 864.3627,-194 843.3627,-194 840.3627,-190 742.6373,-190 742.6373,-154 867.3627,-154 867.3627,-190"/>
<text text-anchor="middle" x="805" y="-167.8" font-family="Times,serif" font-size="14.00" fill="#000000">BsHeatmapModule</text>
</g>
<!-- BsFacetHeatmapComponent&#45;&gt;BsHeatmapModule -->
<g id="edge4" class="edge">
<title>BsFacetHeatmapComponent&#45;&gt;BsHeatmapModule</title>
<path fill="none" stroke="#000000" d="M896.6213,-122.0225C896.6213,-139.3734 896.6213,-163 896.6213,-163 896.6213,-163 877.3798,-163 877.3798,-163"/>
<polygon fill="#000000" stroke="#000000" points="877.3799,-159.5001 867.3798,-163 877.3798,-166.5001 877.3799,-159.5001"/>
</g>
<!-- BsHeatmapComponent -->
<g id="node6" class="node">
<title>BsHeatmapComponent</title>
<polygon fill="#ffffb3" stroke="#000000" points="867.1456,-122 720.8544,-122 720.8544,-86 867.1456,-86 867.1456,-122"/>
<text text-anchor="middle" x="794" y="-99.8" font-family="Times,serif" font-size="14.00" fill="#000000">BsHeatmapComponent</text>
</g>
<!-- BsHeatmapComponent&#45;&gt;BsHeatmapModule -->
<g id="edge5" class="edge">
<title>BsHeatmapComponent&#45;&gt;BsHeatmapModule</title>
<path fill="none" stroke="#000000" d="M804.9457,-122.2228C804.9457,-122.2228 804.9457,-143.7269 804.9457,-143.7269"/>
<polygon fill="#000000" stroke="#000000" points="801.4457,-143.7269 804.9457,-153.7269 808.4457,-143.727 801.4457,-143.7269"/>
</g>
<!-- BsResultsHeatmapView -->
<g id="node7" class="node">
<title>BsResultsHeatmapView</title>
<polygon fill="#ffffb3" stroke="#000000" points="702.3529,-122 549.6471,-122 549.6471,-86 702.3529,-86 702.3529,-122"/>
<text text-anchor="middle" x="626" y="-99.8" font-family="Times,serif" font-size="14.00" fill="#000000">BsResultsHeatmapView</text>
</g>
<!-- BsResultsHeatmapView&#45;&gt;BsHeatmapModule -->
<g id="edge6" class="edge">
<title>BsResultsHeatmapView&#45;&gt;BsHeatmapModule</title>
<path fill="none" stroke="#000000" d="M626,-122.0336C626,-139.0597 626,-162 626,-162 626,-162 732.3945,-162 732.3945,-162"/>
<polygon fill="#000000" stroke="#000000" points="732.3945,-165.5001 742.3945,-162 732.3945,-158.5001 732.3945,-165.5001"/>
</g>
<!-- BsTooltipComponent -->
<g id="node8" class="node">
<title>BsTooltipComponent</title>
<polygon fill="#ffffb3" stroke="#000000" points="531.8384,-122 394.1616,-122 394.1616,-86 531.8384,-86 531.8384,-122"/>
<text text-anchor="middle" x="463" y="-99.8" font-family="Times,serif" font-size="14.00" fill="#000000">BsTooltipComponent</text>
</g>
<!-- BsTooltipComponent&#45;&gt;BsHeatmapModule -->
<g id="edge7" class="edge">
<title>BsTooltipComponent&#45;&gt;BsHeatmapModule</title>
<path fill="none" stroke="#000000" d="M484.8254,-122.1061C484.8254,-141.3391 484.8254,-169 484.8254,-169 484.8254,-169 732.507,-169 732.507,-169"/>
<polygon fill="#000000" stroke="#000000" points="732.5071,-172.5001 742.507,-169 732.507,-165.5001 732.5071,-172.5001"/>
</g>
<!-- BsFacetHeatmapComponent  -->
<g id="node10" class="node">
<title>BsFacetHeatmapComponent </title>
<polygon fill="#fb8072" stroke="#000000" points="728.4628,-255 547.5372,-255 547.5372,-219 728.4628,-219 728.4628,-255"/>
<text text-anchor="middle" x="638" y="-232.8" font-family="Times,serif" font-size="14.00" fill="#000000">BsFacetHeatmapComponent </text>
</g>
<!-- BsHeatmapModule&#45;&gt;BsFacetHeatmapComponent  -->
<g id="edge8" class="edge">
<title>BsHeatmapModule&#45;&gt;BsFacetHeatmapComponent </title>
<path fill="none" stroke="#000000" stroke-dasharray="5,2" d="M742.33,-183C731.9317,-183 724.4543,-183 724.4543,-183 724.4543,-183 724.4543,-208.7181 724.4543,-208.7181"/>
<polygon fill="#000000" stroke="#000000" points="720.9543,-208.718 724.4543,-218.7181 727.9543,-208.7181 720.9543,-208.718"/>
</g>
<!-- BsHeatmapComponent  -->
<g id="node11" class="node">
<title>BsHeatmapComponent </title>
<polygon fill="#fb8072" stroke="#000000" points="530.1453,-255 379.8547,-255 379.8547,-219 530.1453,-219 530.1453,-255"/>
<text text-anchor="middle" x="455" y="-232.8" font-family="Times,serif" font-size="14.00" fill="#000000">BsHeatmapComponent </text>
</g>
<!-- BsHeatmapModule&#45;&gt;BsHeatmapComponent  -->
<g id="edge9" class="edge">
<title>BsHeatmapModule&#45;&gt;BsHeatmapComponent </title>
<path fill="none" stroke="#000000" stroke-dasharray="5,2" d="M742.597,-176C638.2281,-176 439.5782,-176 439.5782,-176 439.5782,-176 439.5782,-208.698 439.5782,-208.698"/>
<polygon fill="#000000" stroke="#000000" points="436.0783,-208.698 439.5782,-218.698 443.0783,-208.698 436.0783,-208.698"/>
</g>
<!-- BsResultsHeatmapView  -->
<g id="node12" class="node">
<title>BsResultsHeatmapView </title>
<polygon fill="#fb8072" stroke="#000000" points="1062.3532,-255 905.6468,-255 905.6468,-219 1062.3532,-219 1062.3532,-255"/>
<text text-anchor="middle" x="984" y="-232.8" font-family="Times,serif" font-size="14.00" fill="#000000">BsResultsHeatmapView </text>
</g>
<!-- BsHeatmapModule&#45;&gt;BsResultsHeatmapView  -->
<g id="edge10" class="edge">
<title>BsHeatmapModule&#45;&gt;BsResultsHeatmapView </title>
<path fill="none" stroke="#000000" stroke-dasharray="5,2" d="M867.6055,-181C919.2239,-181 984,-181 984,-181 984,-181 984,-208.973 984,-208.973"/>
<polygon fill="#000000" stroke="#000000" points="980.5001,-208.973 984,-218.973 987.5001,-208.973 980.5001,-208.973"/>
</g>
<!-- BsTooltipComponent  -->
<g id="node13" class="node">
<title>BsTooltipComponent </title>
<polygon fill="#fb8072" stroke="#000000" points="887.3381,-255 746.6619,-255 746.6619,-219 887.3381,-219 887.3381,-255"/>
<text text-anchor="middle" x="817" y="-232.8" font-family="Times,serif" font-size="14.00" fill="#000000">BsTooltipComponent </text>
</g>
<!-- BsHeatmapModule&#45;&gt;BsTooltipComponent  -->
<g id="edge11" class="edge">
<title>BsHeatmapModule&#45;&gt;BsTooltipComponent </title>
<path fill="none" stroke="#000000" stroke-dasharray="5,2" d="M786.8644,-190.1061C786.8644,-190.1061 786.8644,-208.991 786.8644,-208.991"/>
<polygon fill="#000000" stroke="#000000" points="783.3645,-208.9909 786.8644,-218.991 790.3645,-208.991 783.3645,-208.9909"/>
</g>
<!-- BsTimelineModule -->
<g id="node17" class="node">
<title>BsTimelineModule</title>
<polygon fill="#8dd3c7" stroke="#000000" points="1422.3753,-255 1419.3753,-259 1398.3753,-259 1395.3753,-255 1297.6247,-255 1297.6247,-219 1422.3753,-219 1422.3753,-255"/>
<text text-anchor="middle" x="1360" y="-232.8" font-family="Times,serif" font-size="14.00" fill="#000000">BsTimelineModule</text>
</g>
<!-- BsHeatmapModule&#45;&gt;BsTimelineModule -->
<g id="edge15" class="edge">
<title>BsHeatmapModule&#45;&gt;BsTimelineModule</title>
<path fill="none" stroke="#000000" d="M867.555,-172C949.3126,-172 1082.2011,-172 1082.2011,-172 1082.2011,-172 1082.2011,-237 1082.2011,-237 1082.2011,-237 1287.3101,-237 1287.3101,-237"/>
<polygon fill="#000000" stroke="#000000" points="1287.3102,-240.5001 1297.3101,-237 1287.3101,-233.5001 1287.3102,-240.5001"/>
</g>
<!-- FinanceModule -->
<g id="node23" class="node">
<title>FinanceModule</title>
<polygon fill="#8dd3c7" stroke="#000000" points="1825.8669,-255 1822.8669,-259 1801.8669,-259 1798.8669,-255 1722.1331,-255 1722.1331,-219 1825.8669,-219 1825.8669,-255"/>
<text text-anchor="middle" x="1774" y="-232.8" font-family="Times,serif" font-size="14.00" fill="#000000">FinanceModule</text>
</g>
<!-- BsHeatmapModule&#45;&gt;FinanceModule -->
<g id="edge21" class="edge">
<title>BsHeatmapModule&#45;&gt;FinanceModule</title>
<path fill="none" stroke="#000000" d="M827.1479,-190.0449C827.1479,-197.749 827.1479,-205 827.1479,-205 827.1479,-205 1756.6889,-205 1756.6889,-205 1756.6889,-205 1756.6889,-208.7566 1756.6889,-208.7566"/>
<polygon fill="#000000" stroke="#000000" points="1753.189,-208.7566 1756.6889,-218.7566 1760.189,-208.7566 1753.189,-208.7566"/>
</g>
<!-- BsFacetTimelineComponent -->
<g id="node14" class="node">
<title>BsFacetTimelineComponent</title>
<polygon fill="#ffffb3" stroke="#000000" points="1635.4748,-190 1458.5252,-190 1458.5252,-154 1635.4748,-154 1635.4748,-190"/>
<text text-anchor="middle" x="1547" y="-167.8" font-family="Times,serif" font-size="14.00" fill="#000000">BsFacetTimelineComponent</text>
</g>
<!-- BsFacetTimelineComponent&#45;&gt;BsTimelineModule -->
<g id="edge12" class="edge">
<title>BsFacetTimelineComponent&#45;&gt;BsTimelineModule</title>
<path fill="none" stroke="#000000" d="M1463.4167,-190.0225C1463.4167,-207.3734 1463.4167,-231 1463.4167,-231 1463.4167,-231 1432.5437,-231 1432.5437,-231"/>
<polygon fill="#000000" stroke="#000000" points="1432.5437,-227.5001 1422.5437,-231 1432.5436,-234.5001 1432.5437,-227.5001"/>
</g>
<!-- BsTimelineComponent -->
<g id="node15" class="node">
<title>BsTimelineComponent</title>
<polygon fill="#ffffb3" stroke="#000000" points="1440.1582,-190 1293.8418,-190 1293.8418,-154 1440.1582,-154 1440.1582,-190"/>
<text text-anchor="middle" x="1367" y="-167.8" font-family="Times,serif" font-size="14.00" fill="#000000">BsTimelineComponent</text>
</g>
<!-- BsTimelineComponent&#45;&gt;BsTimelineModule -->
<g id="edge13" class="edge">
<title>BsTimelineComponent&#45;&gt;BsTimelineModule</title>
<path fill="none" stroke="#000000" d="M1360,-190.1061C1360,-190.1061 1360,-208.991 1360,-208.991"/>
<polygon fill="#000000" stroke="#000000" points="1356.5001,-208.9909 1360,-218.991 1363.5001,-208.991 1356.5001,-208.9909"/>
</g>
<!-- TimelineLegendComponent -->
<g id="node16" class="node">
<title>TimelineLegendComponent</title>
<polygon fill="#ffffb3" stroke="#000000" points="1275.8585,-190 1102.1415,-190 1102.1415,-154 1275.8585,-154 1275.8585,-190"/>
<text text-anchor="middle" x="1189" y="-167.8" font-family="Times,serif" font-size="14.00" fill="#000000">TimelineLegendComponent</text>
</g>
<!-- TimelineLegendComponent&#45;&gt;BsTimelineModule -->
<g id="edge14" class="edge">
<title>TimelineLegendComponent&#45;&gt;BsTimelineModule</title>
<path fill="none" stroke="#000000" d="M1260.9208,-190.027C1260.9208,-206.3976 1260.9208,-228 1260.9208,-228 1260.9208,-228 1287.5327,-228 1287.5327,-228"/>
<polygon fill="#000000" stroke="#000000" points="1287.5327,-231.5001 1297.5327,-228 1287.5327,-224.5001 1287.5327,-231.5001"/>
</g>
<!-- BsFacetTimelineComponent  -->
<g id="node18" class="node">
<title>BsFacetTimelineComponent </title>
<polygon fill="#fb8072" stroke="#000000" points="1450.4754,-323 1269.5246,-323 1269.5246,-287 1450.4754,-287 1450.4754,-323"/>
<text text-anchor="middle" x="1360" y="-300.8" font-family="Times,serif" font-size="14.00" fill="#000000">BsFacetTimelineComponent </text>
</g>
<!-- BsTimelineModule&#45;&gt;BsFacetTimelineComponent  -->
<g id="edge16" class="edge">
<title>BsTimelineModule&#45;&gt;BsFacetTimelineComponent </title>
<path fill="none" stroke="#000000" stroke-dasharray="5,2" d="M1360,-255.2228C1360,-255.2228 1360,-276.7269 1360,-276.7269"/>
<polygon fill="#000000" stroke="#000000" points="1356.5001,-276.7269 1360,-286.7269 1363.5001,-276.727 1356.5001,-276.7269"/>
</g>
<!-- BsTimelineComponent  -->
<g id="node19" class="node">
<title>BsTimelineComponent </title>
<polygon fill="#fb8072" stroke="#000000" points="1252.1579,-323 1101.8421,-323 1101.8421,-287 1252.1579,-287 1252.1579,-323"/>
<text text-anchor="middle" x="1177" y="-300.8" font-family="Times,serif" font-size="14.00" fill="#000000">BsTimelineComponent </text>
</g>
<!-- BsTimelineModule&#45;&gt;BsTimelineComponent  -->
<g id="edge17" class="edge">
<title>BsTimelineModule&#45;&gt;BsTimelineComponent </title>
<path fill="none" stroke="#000000" stroke-dasharray="5,2" d="M1297.5592,-246C1244.5672,-246 1177.0749,-246 1177.0749,-246 1177.0749,-246 1177.0749,-276.9775 1177.0749,-276.9775"/>
<polygon fill="#000000" stroke="#000000" points="1173.5749,-276.9774 1177.0749,-286.9775 1180.5749,-276.9775 1173.5749,-276.9774"/>
</g>
<!-- TimelineLegendComponent  -->
<g id="node20" class="node">
<title>TimelineLegendComponent </title>
<polygon fill="#fb8072" stroke="#000000" points="1645.8588,-323 1468.1412,-323 1468.1412,-287 1645.8588,-287 1645.8588,-323"/>
<text text-anchor="middle" x="1557" y="-300.8" font-family="Times,serif" font-size="14.00" fill="#000000">TimelineLegendComponent </text>
</g>
<!-- BsTimelineModule&#45;&gt;TimelineLegendComponent  -->
<g id="edge18" class="edge">
<title>BsTimelineModule&#45;&gt;TimelineLegendComponent </title>
<path fill="none" stroke="#000000" stroke-dasharray="5,2" d="M1422.571,-243C1478.5724,-243 1551.9041,-243 1551.9041,-243 1551.9041,-243 1551.9041,-276.7333 1551.9041,-276.7333"/>
<polygon fill="#000000" stroke="#000000" points="1548.4042,-276.7333 1551.9041,-286.7333 1555.4042,-276.7333 1548.4042,-276.7333"/>
</g>
<!-- MoneyCloudComponent -->
<g id="node21" class="node">
<title>MoneyCloudComponent</title>
<polygon fill="#ffffb3" stroke="#000000" points="2031.719,-190 1876.281,-190 1876.281,-154 2031.719,-154 2031.719,-190"/>
<text text-anchor="middle" x="1954" y="-167.8" font-family="Times,serif" font-size="14.00" fill="#000000">MoneyCloudComponent</text>
</g>
<!-- MoneyCloudComponent&#45;&gt;FinanceModule -->
<g id="edge19" class="edge">
<title>MoneyCloudComponent&#45;&gt;FinanceModule</title>
<path fill="none" stroke="#000000" d="M1980.9531,-190.0225C1980.9531,-207.3734 1980.9531,-231 1980.9531,-231 1980.9531,-231 1835.9559,-231 1835.9559,-231"/>
<polygon fill="#000000" stroke="#000000" points="1835.9559,-227.5001 1825.9559,-231 1835.9559,-234.5001 1835.9559,-227.5001"/>
</g>
<!-- MoneyTimelineComponent -->
<g id="node22" class="node">
<title>MoneyTimelineComponent</title>
<polygon fill="#ffffb3" stroke="#000000" points="1858.5364,-190 1687.4636,-190 1687.4636,-154 1858.5364,-154 1858.5364,-190"/>
<text text-anchor="middle" x="1773" y="-167.8" font-family="Times,serif" font-size="14.00" fill="#000000">MoneyTimelineComponent</text>
</g>
<!-- MoneyTimelineComponent&#45;&gt;FinanceModule -->
<g id="edge20" class="edge">
<title>MoneyTimelineComponent&#45;&gt;FinanceModule</title>
<path fill="none" stroke="#000000" d="M1791.3111,-190.1061C1791.3111,-190.1061 1791.3111,-208.991 1791.3111,-208.991"/>
<polygon fill="#000000" stroke="#000000" points="1787.8112,-208.9909 1791.3111,-218.991 1794.8112,-208.991 1787.8112,-208.9909"/>
</g>
<!-- MoneyCloudComponent  -->
<g id="node24" class="node">
<title>MoneyCloudComponent </title>
<polygon fill="#fb8072" stroke="#000000" points="2038.219,-323 1879.781,-323 1879.781,-287 2038.219,-287 2038.219,-323"/>
<text text-anchor="middle" x="1959" y="-300.8" font-family="Times,serif" font-size="14.00" fill="#000000">MoneyCloudComponent </text>
</g>
<!-- FinanceModule&#45;&gt;MoneyCloudComponent  -->
<g id="edge22" class="edge">
<title>FinanceModule&#45;&gt;MoneyCloudComponent </title>
<path fill="none" stroke="#000000" stroke-dasharray="5,2" d="M1826.0446,-243C1871.5114,-243 1930.2969,-243 1930.2969,-243 1930.2969,-243 1930.2969,-276.7333 1930.2969,-276.7333"/>
<polygon fill="#000000" stroke="#000000" points="1926.797,-276.7333 1930.2969,-286.7333 1933.797,-276.7333 1926.797,-276.7333"/>
</g>
<!-- MoneyTimelineComponent  -->
<g id="node25" class="node">
<title>MoneyTimelineComponent </title>
<polygon fill="#fb8072" stroke="#000000" points="1861.5358,-323 1686.4642,-323 1686.4642,-287 1861.5358,-287 1861.5358,-323"/>
<text text-anchor="middle" x="1774" y="-300.8" font-family="Times,serif" font-size="14.00" fill="#000000">MoneyTimelineComponent </text>
</g>
<!-- FinanceModule&#45;&gt;MoneyTimelineComponent  -->
<g id="edge23" class="edge">
<title>FinanceModule&#45;&gt;MoneyTimelineComponent </title>
<path fill="none" stroke="#000000" stroke-dasharray="5,2" d="M1774,-255.2228C1774,-255.2228 1774,-276.7269 1774,-276.7269"/>
<polygon fill="#000000" stroke="#000000" points="1770.5001,-276.7269 1774,-286.7269 1777.5001,-276.727 1770.5001,-276.7269"/>
</g>
<!-- FusionChart -->
<g id="node26" class="node">
<title>FusionChart</title>
<polygon fill="#ffffb3" stroke="#000000" points="2179.7205,-122 2094.2795,-122 2094.2795,-86 2179.7205,-86 2179.7205,-122"/>
<text text-anchor="middle" x="2137" y="-99.8" font-family="Times,serif" font-size="14.00" fill="#000000">FusionChart</text>
</g>
<!-- FusionChartsModule -->
<g id="node27" class="node">
<title>FusionChartsModule</title>
<polygon fill="#8dd3c7" stroke="#000000" points="2204.2148,-190 2201.2148,-194 2180.2148,-194 2177.2148,-190 2069.7852,-190 2069.7852,-154 2204.2148,-154 2204.2148,-190"/>
<text text-anchor="middle" x="2137" y="-167.8" font-family="Times,serif" font-size="14.00" fill="#000000">FusionChartsModule</text>
</g>
<!-- FusionChart&#45;&gt;FusionChartsModule -->
<g id="edge24" class="edge">
<title>FusionChart&#45;&gt;FusionChartsModule</title>
<path fill="none" stroke="#000000" d="M2137,-122.2228C2137,-122.2228 2137,-143.7269 2137,-143.7269"/>
<polygon fill="#000000" stroke="#000000" points="2133.5001,-143.7269 2137,-153.7269 2140.5001,-143.727 2133.5001,-143.7269"/>
</g>
<!-- FusionChart  -->
<g id="node28" class="node">
<title>FusionChart </title>
<polygon fill="#fb8072" stroke="#000000" points="2181.2206,-255 2092.7794,-255 2092.7794,-219 2181.2206,-219 2181.2206,-255"/>
<text text-anchor="middle" x="2137" y="-232.8" font-family="Times,serif" font-size="14.00" fill="#000000">FusionChart </text>
</g>
<!-- FusionChartsModule&#45;&gt;FusionChart  -->
<g id="edge25" class="edge">
<title>FusionChartsModule&#45;&gt;FusionChart </title>
<path fill="none" stroke="#000000" stroke-dasharray="5,2" d="M2137,-190.1061C2137,-190.1061 2137,-208.991 2137,-208.991"/>
<polygon fill="#000000" stroke="#000000" points="2133.5001,-208.9909 2137,-218.991 2140.5001,-208.991 2133.5001,-208.9909"/>
</g>
<!-- MapComponent -->
<g id="node29" class="node">
<title>MapComponent</title>
<polygon fill="#ffffb3" stroke="#000000" points="2347.4916,-122 2240.5084,-122 2240.5084,-86 2347.4916,-86 2347.4916,-122"/>
<text text-anchor="middle" x="2294" y="-99.8" font-family="Times,serif" font-size="14.00" fill="#000000">MapComponent</text>
</g>
<!-- GoogleMapsModule -->
<g id="node30" class="node">
<title>GoogleMapsModule</title>
<polygon fill="#8dd3c7" stroke="#000000" points="2359.8655,-190 2356.8655,-194 2335.8655,-194 2332.8655,-190 2228.1345,-190 2228.1345,-154 2359.8655,-154 2359.8655,-190"/>
<text text-anchor="middle" x="2294" y="-167.8" font-family="Times,serif" font-size="14.00" fill="#000000">GoogleMapsModule</text>
</g>
<!-- MapComponent&#45;&gt;GoogleMapsModule -->
<g id="edge26" class="edge">
<title>MapComponent&#45;&gt;GoogleMapsModule</title>
<path fill="none" stroke="#000000" d="M2294,-122.2228C2294,-122.2228 2294,-143.7269 2294,-143.7269"/>
<polygon fill="#000000" stroke="#000000" points="2290.5001,-143.7269 2294,-153.7269 2297.5001,-143.727 2290.5001,-143.7269"/>
</g>
<!-- MapComponent  -->
<g id="node31" class="node">
<title>MapComponent </title>
<polygon fill="#fb8072" stroke="#000000" points="2349.4927,-255 2238.5073,-255 2238.5073,-219 2349.4927,-219 2349.4927,-255"/>
<text text-anchor="middle" x="2294" y="-232.8" font-family="Times,serif" font-size="14.00" fill="#000000">MapComponent </text>
</g>
<!-- GoogleMapsModule&#45;&gt;MapComponent  -->
<g id="edge27" class="edge">
<title>GoogleMapsModule&#45;&gt;MapComponent </title>
<path fill="none" stroke="#000000" stroke-dasharray="5,2" d="M2294,-190.1061C2294,-190.1061 2294,-208.991 2294,-208.991"/>
<polygon fill="#000000" stroke="#000000" points="2290.5001,-208.9909 2294,-218.991 2297.5001,-208.991 2290.5001,-208.9909"/>
</g>
<!-- BsEdgeInfoCard -->
<g id="node32" class="node">
<title>BsEdgeInfoCard</title>
<polygon fill="#ffffb3" stroke="#000000" points="2642.0814,-122 2531.9186,-122 2531.9186,-86 2642.0814,-86 2642.0814,-122"/>
<text text-anchor="middle" x="2587" y="-99.8" font-family="Times,serif" font-size="14.00" fill="#000000">BsEdgeInfoCard</text>
</g>
<!-- NetworkModule -->
<g id="node35" class="node">
<title>NetworkModule</title>
<polygon fill="#8dd3c7" stroke="#000000" points="2648.0298,-190 2645.0298,-194 2624.0298,-194 2621.0298,-190 2539.9702,-190 2539.9702,-154 2648.0298,-154 2648.0298,-190"/>
<text text-anchor="middle" x="2594" y="-167.8" font-family="Times,serif" font-size="14.00" fill="#000000">NetworkModule</text>
</g>
<!-- BsEdgeInfoCard&#45;&gt;NetworkModule -->
<g id="edge28" class="edge">
<title>BsEdgeInfoCard&#45;&gt;NetworkModule</title>
<path fill="none" stroke="#000000" d="M2590.8881,-122.2228C2590.8881,-122.2228 2590.8881,-143.7269 2590.8881,-143.7269"/>
<polygon fill="#000000" stroke="#000000" points="2587.3882,-143.7269 2590.8881,-153.7269 2594.3882,-143.727 2587.3882,-143.7269"/>
</g>
<!-- BsNodeInfoCard -->
<g id="node33" class="node">
<title>BsNodeInfoCard</title>
<polygon fill="#ffffb3" stroke="#000000" points="2513.636,-122 2402.364,-122 2402.364,-86 2513.636,-86 2513.636,-122"/>
<text text-anchor="middle" x="2458" y="-99.8" font-family="Times,serif" font-size="14.00" fill="#000000">BsNodeInfoCard</text>
</g>
<!-- BsNodeInfoCard&#45;&gt;NetworkModule -->
<g id="edge29" class="edge">
<title>BsNodeInfoCard&#45;&gt;NetworkModule</title>
<path fill="none" stroke="#000000" d="M2458,-122.2667C2458,-140.5552 2458,-166 2458,-166 2458,-166 2529.8584,-166 2529.8584,-166"/>
<polygon fill="#000000" stroke="#000000" points="2529.8585,-169.5001 2539.8584,-166 2529.8584,-162.5001 2529.8585,-169.5001"/>
</g>
<!-- NetworkComponent -->
<g id="node34" class="node">
<title>NetworkComponent</title>
<polygon fill="#ffffb3" stroke="#000000" points="2790.3118,-122 2659.6882,-122 2659.6882,-86 2790.3118,-86 2790.3118,-122"/>
<text text-anchor="middle" x="2725" y="-99.8" font-family="Times,serif" font-size="14.00" fill="#000000">NetworkComponent</text>
</g>
<!-- NetworkComponent&#45;&gt;NetworkModule -->
<g id="edge30" class="edge">
<title>NetworkComponent&#45;&gt;NetworkModule</title>
<path fill="none" stroke="#000000" d="M2668.0268,-122.2667C2668.0268,-140.5552 2668.0268,-166 2668.0268,-166 2668.0268,-166 2658.189,-166 2658.189,-166"/>
<polygon fill="#000000" stroke="#000000" points="2658.189,-162.5001 2648.189,-166 2658.1889,-169.5001 2658.189,-162.5001"/>
</g>
<!-- BsEdgeInfoCard  -->
<g id="node36" class="node">
<title>BsEdgeInfoCard </title>
<polygon fill="#fb8072" stroke="#000000" points="2789.5822,-255 2676.4178,-255 2676.4178,-219 2789.5822,-219 2789.5822,-255"/>
<text text-anchor="middle" x="2733" y="-232.8" font-family="Times,serif" font-size="14.00" fill="#000000">BsEdgeInfoCard </text>
</g>
<!-- NetworkModule&#45;&gt;BsEdgeInfoCard  -->
<g id="edge31" class="edge">
<title>NetworkModule&#45;&gt;BsEdgeInfoCard </title>
<path fill="none" stroke="#000000" stroke-dasharray="5,2" d="M2648.139,-178C2687.1679,-178 2733,-178 2733,-178 2733,-178 2733,-208.9775 2733,-208.9775"/>
<polygon fill="#000000" stroke="#000000" points="2729.5001,-208.9774 2733,-218.9775 2736.5001,-208.9775 2729.5001,-208.9774"/>
</g>
<!-- BsNodeInfoCard  -->
<g id="node37" class="node">
<title>BsNodeInfoCard </title>
<polygon fill="#fb8072" stroke="#000000" points="2658.6355,-255 2543.3645,-255 2543.3645,-219 2658.6355,-219 2658.6355,-255"/>
<text text-anchor="middle" x="2601" y="-232.8" font-family="Times,serif" font-size="14.00" fill="#000000">BsNodeInfoCard </text>
</g>
<!-- NetworkModule&#45;&gt;BsNodeInfoCard  -->
<g id="edge32" class="edge">
<title>NetworkModule&#45;&gt;BsNodeInfoCard </title>
<path fill="none" stroke="#000000" stroke-dasharray="5,2" d="M2595.8484,-190.1061C2595.8484,-190.1061 2595.8484,-208.991 2595.8484,-208.991"/>
<polygon fill="#000000" stroke="#000000" points="2592.3484,-208.9909 2595.8484,-218.991 2599.3484,-208.991 2592.3484,-208.9909"/>
</g>
<!-- NetworkComponent  -->
<g id="node38" class="node">
<title>NetworkComponent </title>
<polygon fill="#fb8072" stroke="#000000" points="2525.8115,-255 2392.1885,-255 2392.1885,-219 2525.8115,-219 2525.8115,-255"/>
<text text-anchor="middle" x="2459" y="-232.8" font-family="Times,serif" font-size="14.00" fill="#000000">NetworkComponent </text>
</g>
<!-- NetworkModule&#45;&gt;NetworkComponent  -->
<g id="edge33" class="edge">
<title>NetworkModule&#45;&gt;NetworkComponent </title>
<path fill="none" stroke="#000000" stroke-dasharray="5,2" d="M2539.7294,-178C2528.4242,-178 2519.8617,-178 2519.8617,-178 2519.8617,-178 2519.8617,-208.9775 2519.8617,-208.9775"/>
<polygon fill="#000000" stroke="#000000" points="2516.3618,-208.9774 2519.8617,-218.9775 2523.3618,-208.9775 2516.3618,-208.9774"/>
</g>
<!-- FacetNgxChart -->
<g id="node39" class="node">
<title>FacetNgxChart</title>
<polygon fill="#ffffb3" stroke="#000000" points="3023.5271,-122 2922.4729,-122 2922.4729,-86 3023.5271,-86 3023.5271,-122"/>
<text text-anchor="middle" x="2973" y="-99.8" font-family="Times,serif" font-size="14.00" fill="#000000">FacetNgxChart</text>
</g>
<!-- NgxChartsModule -->
<g id="node41" class="node">
<title>NgxChartsModule</title>
<polygon fill="#8dd3c7" stroke="#000000" points="2986.2036,-190 2983.2036,-194 2962.2036,-194 2959.2036,-190 2865.7964,-190 2865.7964,-154 2986.2036,-154 2986.2036,-190"/>
<text text-anchor="middle" x="2926" y="-167.8" font-family="Times,serif" font-size="14.00" fill="#000000">NgxChartsModule</text>
</g>
<!-- FacetNgxChart&#45;&gt;NgxChartsModule -->
<g id="edge34" class="edge">
<title>FacetNgxChart&#45;&gt;NgxChartsModule</title>
<path fill="none" stroke="#000000" d="M2954.1694,-122.2228C2954.1694,-122.2228 2954.1694,-143.7269 2954.1694,-143.7269"/>
<polygon fill="#000000" stroke="#000000" points="2950.6694,-143.7269 2954.1694,-153.7269 2957.6694,-143.727 2950.6694,-143.7269"/>
</g>
<!-- NgxChart -->
<g id="node40" class="node">
<title>NgxChart</title>
<polygon fill="#ffffb3" stroke="#000000" points="2904.7093,-122 2833.2907,-122 2833.2907,-86 2904.7093,-86 2904.7093,-122"/>
<text text-anchor="middle" x="2869" y="-99.8" font-family="Times,serif" font-size="14.00" fill="#000000">NgxChart</text>
</g>
<!-- NgxChart&#45;&gt;NgxChartsModule -->
<g id="edge35" class="edge">
<title>NgxChart&#45;&gt;NgxChartsModule</title>
<path fill="none" stroke="#000000" d="M2885.2514,-122.2228C2885.2514,-122.2228 2885.2514,-143.7269 2885.2514,-143.7269"/>
<polygon fill="#000000" stroke="#000000" points="2881.7515,-143.7269 2885.2514,-153.7269 2888.7515,-143.727 2881.7515,-143.7269"/>
</g>
<!-- FacetNgxChart  -->
<g id="node42" class="node">
<title>FacetNgxChart </title>
<polygon fill="#fb8072" stroke="#000000" points="3027.526,-255 2922.474,-255 2922.474,-219 3027.526,-219 3027.526,-255"/>
<text text-anchor="middle" x="2975" y="-232.8" font-family="Times,serif" font-size="14.00" fill="#000000">FacetNgxChart </text>
</g>
<!-- NgxChartsModule&#45;&gt;FacetNgxChart  -->
<g id="edge36" class="edge">
<title>NgxChartsModule&#45;&gt;FacetNgxChart </title>
<path fill="none" stroke="#000000" stroke-dasharray="5,2" d="M2954.2944,-190.1061C2954.2944,-190.1061 2954.2944,-208.991 2954.2944,-208.991"/>
<polygon fill="#000000" stroke="#000000" points="2950.7944,-208.9909 2954.2944,-218.991 2957.7944,-208.991 2950.7944,-208.9909"/>
</g>
<!-- NgxChart  -->
<g id="node43" class="node">
<title>NgxChart </title>
<polygon fill="#fb8072" stroke="#000000" points="2904.2096,-255 2829.7904,-255 2829.7904,-219 2904.2096,-219 2904.2096,-255"/>
<text text-anchor="middle" x="2867" y="-232.8" font-family="Times,serif" font-size="14.00" fill="#000000">NgxChart </text>
</g>
<!-- NgxChartsModule&#45;&gt;NgxChart  -->
<g id="edge37" class="edge">
<title>NgxChartsModule&#45;&gt;NgxChart </title>
<path fill="none" stroke="#000000" stroke-dasharray="5,2" d="M2885.1264,-190.1061C2885.1264,-190.1061 2885.1264,-208.991 2885.1264,-208.991"/>
<polygon fill="#000000" stroke="#000000" points="2881.6265,-208.9909 2885.1264,-218.991 2888.6265,-208.991 2881.6265,-208.9909"/>
</g>
<!-- ResultTimeline -->
<g id="node44" class="node">
<title>ResultTimeline</title>
<polygon fill="#ffffb3" stroke="#000000" points="3176.3217,-122 3073.6783,-122 3073.6783,-86 3176.3217,-86 3176.3217,-122"/>
<text text-anchor="middle" x="3125" y="-99.8" font-family="Times,serif" font-size="14.00" fill="#000000">ResultTimeline</text>
</g>
<!-- VisTimelineModule -->
<g id="node45" class="node">
<title>VisTimelineModule</title>
<polygon fill="#8dd3c7" stroke="#000000" points="3189.5366,-190 3186.5366,-194 3165.5366,-194 3162.5366,-190 3060.4634,-190 3060.4634,-154 3189.5366,-154 3189.5366,-190"/>
<text text-anchor="middle" x="3125" y="-167.8" font-family="Times,serif" font-size="14.00" fill="#000000">VisTimelineModule</text>
</g>
<!-- ResultTimeline&#45;&gt;VisTimelineModule -->
<g id="edge38" class="edge">
<title>ResultTimeline&#45;&gt;VisTimelineModule</title>
<path fill="none" stroke="#000000" d="M3125,-122.2228C3125,-122.2228 3125,-143.7269 3125,-143.7269"/>
<polygon fill="#000000" stroke="#000000" points="3121.5001,-143.7269 3125,-153.7269 3128.5001,-143.727 3121.5001,-143.7269"/>
</g>
<!-- ResultTimeline  -->
<g id="node46" class="node">
<title>ResultTimeline </title>
<polygon fill="#fb8072" stroke="#000000" points="3177.8214,-255 3072.1786,-255 3072.1786,-219 3177.8214,-219 3177.8214,-255"/>
<text text-anchor="middle" x="3125" y="-232.8" font-family="Times,serif" font-size="14.00" fill="#000000">ResultTimeline </text>
</g>
<!-- VisTimelineModule&#45;&gt;ResultTimeline  -->
<g id="edge39" class="edge">
<title>VisTimelineModule&#45;&gt;ResultTimeline </title>
<path fill="none" stroke="#000000" stroke-dasharray="5,2" d="M3125,-190.1061C3125,-190.1061 3125,-208.991 3125,-208.991"/>
<polygon fill="#000000" stroke="#000000" points="3121.5001,-208.9909 3125,-218.991 3128.5001,-208.991 3121.5001,-208.9909"/>
</g>
</g>
</svg>
