<?xml version="1.0" encoding="UTF-8" standalone="no"?>
<!DOCTYPE svg PUBLIC "-//W3C//DTD SVG 1.1//EN"
 "http://www.w3.org/Graphics/SVG/1.1/DTD/svg11.dtd">
<!-- Generated by graphviz version 2.47.3 (20210619.1520)
 -->
<!-- Title: dependencies Pages: 1 -->
<svg width="458pt" height="247pt"
 viewBox="0.00 0.00 458.00 246.80" xmlns="http://www.w3.org/2000/svg" xmlns:xlink="http://www.w3.org/1999/xlink">
<g id="graph0" class="graph" transform="scale(1 1) rotate(0) translate(4 242.8)">
<title>dependencies</title>
<polygon fill="white" stroke="transparent" points="-4,4 -4,-242.8 454,-242.8 454,4 -4,4"/>
<text text-anchor="middle" x="225" y="-8.2" font-family="sans-serif" font-size="14.00">dependencies</text>
<g id="clust1" class="cluster">
<title>cluster_FusionChartsModule</title>
<polygon fill="none" stroke="black" stroke-dasharray="1,5" points="8,-32.8 8,-230.8 442,-230.8 442,-32.8 8,-32.8"/>
</g>
<g id="clust2" class="cluster">
<title>cluster_FusionChartsModule_declarations</title>
<polygon fill="none" stroke="black" points="22,-40.8 22,-92.8 430,-92.8 430,-40.8 22,-40.8"/>
</g>
<g id="clust7" class="cluster">
<title>cluster_FusionChartsModule_exports</title>
<polygon fill="none" stroke="black" points="16,-170.8 16,-222.8 434,-222.8 434,-170.8 16,-170.8"/>
</g>
<!-- FusionChart -->
<g id="node1" class="node">
<title>FusionChart</title>
<polygon fill="#ffffb3" stroke="black" points="421.72,-84.8 336.28,-84.8 336.28,-48.8 421.72,-48.8 421.72,-84.8"/>
<text text-anchor="middle" x="379" y="-62.6" font-family="Times,serif" font-size="14.00">FusionChart</text>
</g>
<!-- FusionChartsModule -->
<g id="node4" class="node">
<title>FusionChartsModule</title>
<polygon fill="#8dd3c7" stroke="black" points="314.21,-149.8 311.21,-153.8 290.21,-153.8 287.21,-149.8 179.79,-149.8 179.79,-113.8 314.21,-113.8 314.21,-149.8"/>
<text text-anchor="middle" x="247" y="-127.6" font-family="Times,serif" font-size="14.00">FusionChartsModule</text>
</g>
<!-- FusionChart&#45;&gt;FusionChartsModule -->
<g id="edge1" class="edge">
<title>FusionChart&#45;&gt;FusionChartsModule</title>
<path fill="none" stroke="black" d="M393.62,-84.82C393.62,-102.17 393.62,-125.8 393.62,-125.8 393.62,-125.8 324.3,-125.8 324.3,-125.8"/>
<polygon fill="black" stroke="black" points="324.3,-122.3 314.3,-125.8 324.3,-129.3 324.3,-122.3"/>
</g>
<!-- FusionChartsDirective -->
<g id="node2" class="node">
<title>FusionChartsDirective</title>
<polygon fill="#ffffb3" stroke="black" points="318.25,-84.8 175.75,-84.8 175.75,-48.8 318.25,-48.8 318.25,-84.8"/>
<text text-anchor="middle" x="247" y="-62.6" font-family="Times,serif" font-size="14.00">FusionChartsDirective</text>
</g>
<!-- FusionChartsDirective&#45;&gt;FusionChartsModule -->
<g id="edge2" class="edge">
<title>FusionChartsDirective&#45;&gt;FusionChartsModule</title>
<path fill="none" stroke="black" d="M247,-84.91C247,-84.91 247,-103.79 247,-103.79"/>
<polygon fill="black" stroke="black" points="243.5,-103.79 247,-113.79 250.5,-103.79 243.5,-103.79"/>
</g>
<!-- MultiLevelPieChart -->
<g id="node3" class="node">
<title>MultiLevelPieChart</title>
<polygon fill="#ffffb3" stroke="black" points="157.98,-84.8 30.02,-84.8 30.02,-48.8 157.98,-48.8 157.98,-84.8"/>
<text text-anchor="middle" x="94" y="-62.6" font-family="Times,serif" font-size="14.00">MultiLevelPieChart</text>
</g>
<!-- MultiLevelPieChart&#45;&gt;FusionChartsModule -->
<g id="edge3" class="edge">
<title>MultiLevelPieChart&#45;&gt;FusionChartsModule</title>
<path fill="none" stroke="black" d="M113.83,-84.82C113.83,-102.17 113.83,-125.8 113.83,-125.8 113.83,-125.8 169.63,-125.8 169.63,-125.8"/>
<polygon fill="black" stroke="black" points="169.63,-129.3 179.63,-125.8 169.63,-122.3 169.63,-129.3"/>
</g>
<!-- FusionChart  -->
<g id="node5" class="node">
<title>FusionChart </title>
<polygon fill="#fb8072" stroke="black" points="426.22,-214.8 337.78,-214.8 337.78,-178.8 426.22,-178.8 426.22,-214.8"/>
<text text-anchor="middle" x="382" y="-192.6" font-family="Times,serif" font-size="14.00">FusionChart </text>
</g>
<!-- FusionChartsModule&#45;&gt;FusionChart  -->
<g id="edge4" class="edge">
<title>FusionChartsModule&#45;&gt;FusionChart </title>
<path fill="none" stroke="black" stroke-dasharray="5,2" d="M314.29,-137.8C341.06,-137.8 365.63,-137.8 365.63,-137.8 365.63,-137.8 365.63,-168.78 365.63,-168.78"/>
<polygon fill="black" stroke="black" points="362.13,-168.78 365.63,-178.78 369.13,-168.78 362.13,-168.78"/>
</g>
<!-- FusionChartsDirective  -->
<g id="node6" class="node">
<title>FusionChartsDirective </title>
<polygon fill="#fb8072" stroke="black" points="320.25,-214.8 173.75,-214.8 173.75,-178.8 320.25,-178.8 320.25,-214.8"/>
<text text-anchor="middle" x="247" y="-192.6" font-family="Times,serif" font-size="14.00">FusionChartsDirective </text>
</g>
<!-- FusionChartsModule&#45;&gt;FusionChartsDirective  -->
<g id="edge5" class="edge">
<title>FusionChartsModule&#45;&gt;FusionChartsDirective </title>
<path fill="none" stroke="black" stroke-dasharray="5,2" d="M247,-149.91C247,-149.91 247,-168.79 247,-168.79"/>
<polygon fill="black" stroke="black" points="243.5,-168.79 247,-178.79 250.5,-168.79 243.5,-168.79"/>
</g>
<!-- MultiLevelPieChart  -->
<g id="node7" class="node">
<title>MultiLevelPieChart </title>
<polygon fill="#fb8072" stroke="black" points="155.98,-214.8 24.02,-214.8 24.02,-178.8 155.98,-178.8 155.98,-214.8"/>
<text text-anchor="middle" x="90" y="-192.6" font-family="Times,serif" font-size="14.00">MultiLevelPieChart </text>
</g>
<!-- FusionChartsModule&#45;&gt;MultiLevelPieChart  -->
<g id="edge6" class="edge">
<title>FusionChartsModule&#45;&gt;MultiLevelPieChart </title>
<path fill="none" stroke="black" stroke-dasharray="5,2" d="M179.81,-137.8C130.44,-137.8 71.92,-137.8 71.92,-137.8 71.92,-137.8 71.92,-168.78 71.92,-168.78"/>
<polygon fill="black" stroke="black" points="68.42,-168.78 71.92,-178.78 75.42,-168.78 68.42,-168.78"/>
</g>
</g>
</svg>
