<?xml version="1.0" encoding="UTF-8" standalone="no"?>
<!DOCTYPE svg PUBLIC "-//W3C//DTD SVG 1.1//EN"
 "http://www.w3.org/Graphics/SVG/1.1/DTD/svg11.dtd">
<!-- Generated by graphviz version 2.47.3 (20210619.1520)
 -->
<!-- Title: dependencies Pages: 1 -->
<svg width="174pt" height="247pt"
 viewBox="0.00 0.00 174.00 246.80" xmlns="http://www.w3.org/2000/svg" xmlns:xlink="http://www.w3.org/1999/xlink">
<g id="graph0" class="graph" transform="scale(1 1) rotate(0) translate(4 242.8)">
<title>dependencies</title>
<polygon fill="white" stroke="transparent" points="-4,4 -4,-242.8 170,-242.8 170,4 -4,4"/>
<text text-anchor="middle" x="83" y="-8.2" font-family="sans-serif" font-size="14.00">dependencies</text>
<g id="clust1" class="cluster">
<title>cluster_FusionChartsModule</title>
<polygon fill="none" stroke="black" stroke-dasharray="1,5" points="8,-32.8 8,-230.8 158,-230.8 158,-32.8 8,-32.8"/>
</g>
<g id="clust2" class="cluster">
<title>cluster_FusionChartsModule_declarations</title>
<polygon fill="none" stroke="black" points="32,-40.8 32,-92.8 134,-92.8 134,-40.8 32,-40.8"/>
</g>
<g id="clust5" class="cluster">
<title>cluster_FusionChartsModule_exports</title>
<polygon fill="none" stroke="black" points="31,-170.8 31,-222.8 135,-222.8 135,-170.8 31,-170.8"/>
</g>
<!-- FusionChart -->
<g id="node1" class="node">
<title>FusionChart</title>
<polygon fill="#ffffb3" stroke="black" points="125.72,-84.8 40.28,-84.8 40.28,-48.8 125.72,-48.8 125.72,-84.8"/>
<text text-anchor="middle" x="83" y="-62.6" font-family="Times,serif" font-size="14.00">FusionChart</text>
</g>
<!-- FusionChartsModule -->
<g id="node2" class="node">
<title>FusionChartsModule</title>
<polygon fill="#8dd3c7" stroke="black" points="150.21,-149.8 147.21,-153.8 126.21,-153.8 123.21,-149.8 15.79,-149.8 15.79,-113.8 150.21,-113.8 150.21,-149.8"/>
<text text-anchor="middle" x="83" y="-127.6" font-family="Times,serif" font-size="14.00">FusionChartsModule</text>
</g>
<!-- FusionChart&#45;&gt;FusionChartsModule -->
<g id="edge1" class="edge">
<title>FusionChart&#45;&gt;FusionChartsModule</title>
<path fill="none" stroke="black" d="M83,-84.91C83,-84.91 83,-103.79 83,-103.79"/>
<polygon fill="black" stroke="black" points="79.5,-103.79 83,-113.79 86.5,-103.79 79.5,-103.79"/>
</g>
<!-- FusionChart  -->
<g id="node3" class="node">
<title>FusionChart </title>
<polygon fill="#fb8072" stroke="black" points="127.22,-214.8 38.78,-214.8 38.78,-178.8 127.22,-178.8 127.22,-214.8"/>
<text text-anchor="middle" x="83" y="-192.6" font-family="Times,serif" font-size="14.00">FusionChart </text>
</g>
<!-- FusionChartsModule&#45;&gt;FusionChart  -->
<g id="edge2" class="edge">
<title>FusionChartsModule&#45;&gt;FusionChart </title>
<path fill="none" stroke="black" stroke-dasharray="5,2" d="M83,-149.91C83,-149.91 83,-168.79 83,-168.79"/>
<polygon fill="black" stroke="black" points="79.5,-168.79 83,-178.79 86.5,-168.79 79.5,-168.79"/>
</g>
</g>
</svg>
