<?xml version="1.0" encoding="UTF-8" standalone="no"?>
<!DOCTYPE svg PUBLIC "-//W3C//DTD SVG 1.1//EN"
 "http://www.w3.org/Graphics/SVG/1.1/DTD/svg11.dtd">
<!-- Generated by graphviz version 2.47.3 (20210619.1520)
 -->
<!-- Title: dependencies Pages: 1 -->
<svg width="172pt" height="247pt"
 viewBox="0.00 0.00 172.00 246.80" xmlns="http://www.w3.org/2000/svg" xmlns:xlink="http://www.w3.org/1999/xlink">
<g id="graph0" class="graph" transform="scale(1 1) rotate(0) translate(4 242.8)">
<title>dependencies</title>
<polygon fill="white" stroke="transparent" points="-4,4 -4,-242.8 168,-242.8 168,4 -4,4"/>
<text text-anchor="middle" x="82" y="-8.2" font-family="sans-serif" font-size="14.00">dependencies</text>
<g id="clust1" class="cluster">
<title>cluster_GoogleMapsModule</title>
<polygon fill="none" stroke="black" stroke-dasharray="1,5" points="8,-32.8 8,-230.8 156,-230.8 156,-32.8 8,-32.8"/>
</g>
<g id="clust5" class="cluster">
<title>cluster_GoogleMapsModule_exports</title>
<polygon fill="none" stroke="black" points="19,-170.8 19,-222.8 145,-222.8 145,-170.8 19,-170.8"/>
</g>
<g id="clust2" class="cluster">
<title>cluster_GoogleMapsModule_declarations</title>
<polygon fill="none" stroke="black" points="21,-40.8 21,-92.8 143,-92.8 143,-40.8 21,-40.8"/>
</g>
<!-- MapComponent -->
<g id="node1" class="node">
<title>MapComponent</title>
<polygon fill="#ffffb3" stroke="black" points="135.49,-84.8 28.51,-84.8 28.51,-48.8 135.49,-48.8 135.49,-84.8"/>
<text text-anchor="middle" x="82" y="-62.6" font-family="Times,serif" font-size="14.00">MapComponent</text>
</g>
<!-- GoogleMapsModule -->
<g id="node2" class="node">
<title>GoogleMapsModule</title>
<polygon fill="#8dd3c7" stroke="black" points="147.87,-149.8 144.87,-153.8 123.87,-153.8 120.87,-149.8 16.13,-149.8 16.13,-113.8 147.87,-113.8 147.87,-149.8"/>
<text text-anchor="middle" x="82" y="-127.6" font-family="Times,serif" font-size="14.00">GoogleMapsModule</text>
</g>
<!-- MapComponent&#45;&gt;GoogleMapsModule -->
<g id="edge1" class="edge">
<title>MapComponent&#45;&gt;GoogleMapsModule</title>
<path fill="none" stroke="black" d="M82,-84.91C82,-84.91 82,-103.79 82,-103.79"/>
<polygon fill="black" stroke="black" points="78.5,-103.79 82,-113.79 85.5,-103.79 78.5,-103.79"/>
</g>
<!-- MapComponent  -->
<g id="node3" class="node">
<title>MapComponent </title>
<polygon fill="#fb8072" stroke="black" points="137.49,-214.8 26.51,-214.8 26.51,-178.8 137.49,-178.8 137.49,-214.8"/>
<text text-anchor="middle" x="82" y="-192.6" font-family="Times,serif" font-size="14.00">MapComponent </text>
</g>
<!-- GoogleMapsModule&#45;&gt;MapComponent  -->
<g id="edge2" class="edge">
<title>GoogleMapsModule&#45;&gt;MapComponent </title>
<path fill="none" stroke="black" stroke-dasharray="5,2" d="M82,-149.91C82,-149.91 82,-168.79 82,-168.79"/>
<polygon fill="black" stroke="black" points="78.5,-168.79 82,-178.79 85.5,-168.79 78.5,-168.79"/>
</g>
</g>
</svg>
