<?xml version="1.0" encoding="UTF-8" standalone="no"?>
<!DOCTYPE svg PUBLIC "-//W3C//DTD SVG 1.1//EN"
 "http://www.w3.org/Graphics/SVG/1.1/DTD/svg11.dtd">
<!-- Generated by graphviz version 2.47.3 (20210619.1520)
 -->
<!-- Title: dependencies Pages: 1 -->
<svg width="362pt" height="247pt"
 viewBox="0.00 0.00 362.00 246.80" xmlns="http://www.w3.org/2000/svg" xmlns:xlink="http://www.w3.org/1999/xlink">
<g id="graph0" class="graph" transform="scale(1 1) rotate(0) translate(4 242.8)">
<title>dependencies</title>
<polygon fill="white" stroke="transparent" points="-4,4 -4,-242.8 358,-242.8 358,4 -4,4"/>
<text text-anchor="middle" x="177" y="-8.2" font-family="sans-serif" font-size="14.00">dependencies</text>
<g id="clust1" class="cluster">
<title>cluster_CollapseModule</title>
<polygon fill="none" stroke="black" stroke-dasharray="1,5" points="8,-32.8 8,-230.8 346,-230.8 346,-32.8 8,-32.8"/>
</g>
<g id="clust7" class="cluster">
<title>cluster_CollapseModule_exports</title>
<polygon fill="none" stroke="black" points="16,-170.8 16,-222.8 338,-222.8 338,-170.8 16,-170.8"/>
</g>
<g id="clust2" class="cluster">
<title>cluster_CollapseModule_declarations</title>
<polygon fill="none" stroke="black" points="21,-40.8 21,-92.8 332,-92.8 332,-40.8 21,-40.8"/>
</g>
<!-- Collapse -->
<g id="node1" class="node">
<title>Collapse</title>
<polygon fill="#ffffb3" stroke="black" points="324.49,-84.8 259.51,-84.8 259.51,-48.8 324.49,-48.8 324.49,-84.8"/>
<text text-anchor="middle" x="292" y="-62.6" font-family="Times,serif" font-size="14.00">Collapse</text>
</g>
<!-- CollapseModule -->
<g id="node4" class="node">
<title>CollapseModule</title>
<polygon fill="#8dd3c7" stroke="black" points="244.04,-149.8 241.04,-153.8 220.04,-153.8 217.04,-149.8 135.96,-149.8 135.96,-113.8 244.04,-113.8 244.04,-149.8"/>
<text text-anchor="middle" x="190" y="-127.6" font-family="Times,serif" font-size="14.00">CollapseModule</text>
</g>
<!-- Collapse&#45;&gt;CollapseModule -->
<g id="edge1" class="edge">
<title>Collapse&#45;&gt;CollapseModule</title>
<path fill="none" stroke="black" d="M303.58,-84.82C303.58,-102.17 303.58,-125.8 303.58,-125.8 303.58,-125.8 254.13,-125.8 254.13,-125.8"/>
<polygon fill="black" stroke="black" points="254.13,-122.3 244.13,-125.8 254.13,-129.3 254.13,-122.3"/>
</g>
<!-- CollapseButton -->
<g id="node2" class="node">
<title>CollapseButton</title>
<polygon fill="#ffffb3" stroke="black" points="241.61,-84.8 138.39,-84.8 138.39,-48.8 241.61,-48.8 241.61,-84.8"/>
<text text-anchor="middle" x="190" y="-62.6" font-family="Times,serif" font-size="14.00">CollapseButton</text>
</g>
<!-- CollapseButton&#45;&gt;CollapseModule -->
<g id="edge2" class="edge">
<title>CollapseButton&#45;&gt;CollapseModule</title>
<path fill="none" stroke="black" d="M190,-84.91C190,-84.91 190,-103.79 190,-103.79"/>
<polygon fill="black" stroke="black" points="186.5,-103.79 190,-113.79 193.5,-103.79 186.5,-103.79"/>
</g>
<!-- CollapseLink -->
<g id="node3" class="node">
<title>CollapseLink</title>
<polygon fill="#ffffb3" stroke="black" points="120.94,-84.8 29.06,-84.8 29.06,-48.8 120.94,-48.8 120.94,-84.8"/>
<text text-anchor="middle" x="75" y="-62.6" font-family="Times,serif" font-size="14.00">CollapseLink</text>
</g>
<!-- CollapseLink&#45;&gt;CollapseModule -->
<g id="edge3" class="edge">
<title>CollapseLink&#45;&gt;CollapseModule</title>
<path fill="none" stroke="black" d="M88.74,-84.82C88.74,-102.17 88.74,-125.8 88.74,-125.8 88.74,-125.8 125.81,-125.8 125.81,-125.8"/>
<polygon fill="black" stroke="black" points="125.81,-129.3 135.81,-125.8 125.81,-122.3 125.81,-129.3"/>
</g>
<!-- Collapse  -->
<g id="node5" class="node">
<title>Collapse </title>
<polygon fill="#fb8072" stroke="black" points="330.49,-214.8 261.51,-214.8 261.51,-178.8 330.49,-178.8 330.49,-214.8"/>
<text text-anchor="middle" x="296" y="-192.6" font-family="Times,serif" font-size="14.00">Collapse </text>
</g>
<!-- CollapseModule&#45;&gt;Collapse  -->
<g id="edge4" class="edge">
<title>CollapseModule&#45;&gt;Collapse </title>
<path fill="none" stroke="black" stroke-dasharray="5,2" d="M244.17,-137.8C264.45,-137.8 282.67,-137.8 282.67,-137.8 282.67,-137.8 282.67,-168.78 282.67,-168.78"/>
<polygon fill="black" stroke="black" points="279.17,-168.78 282.67,-178.78 286.17,-168.78 279.17,-168.78"/>
</g>
<!-- CollapseButton  -->
<g id="node6" class="node">
<title>CollapseButton </title>
<polygon fill="#fb8072" stroke="black" points="243.11,-214.8 136.89,-214.8 136.89,-178.8 243.11,-178.8 243.11,-214.8"/>
<text text-anchor="middle" x="190" y="-192.6" font-family="Times,serif" font-size="14.00">CollapseButton </text>
</g>
<!-- CollapseModule&#45;&gt;CollapseButton  -->
<g id="edge5" class="edge">
<title>CollapseModule&#45;&gt;CollapseButton </title>
<path fill="none" stroke="black" stroke-dasharray="5,2" d="M190,-149.91C190,-149.91 190,-168.79 190,-168.79"/>
<polygon fill="black" stroke="black" points="186.5,-168.79 190,-178.79 193.5,-168.79 186.5,-168.79"/>
</g>
<!-- CollapseLink  -->
<g id="node7" class="node">
<title>CollapseLink </title>
<polygon fill="#fb8072" stroke="black" points="118.43,-214.8 23.57,-214.8 23.57,-178.8 118.43,-178.8 118.43,-214.8"/>
<text text-anchor="middle" x="71" y="-192.6" font-family="Times,serif" font-size="14.00">CollapseLink </text>
</g>
<!-- CollapseModule&#45;&gt;CollapseLink  -->
<g id="edge6" class="edge">
<title>CollapseModule&#45;&gt;CollapseLink </title>
<path fill="none" stroke="black" stroke-dasharray="5,2" d="M135.59,-137.8C99.6,-137.8 59.01,-137.8 59.01,-137.8 59.01,-137.8 59.01,-168.78 59.01,-168.78"/>
<polygon fill="black" stroke="black" points="55.51,-168.78 59.01,-178.78 62.51,-168.78 55.51,-168.78"/>
</g>
</g>
</svg>
