<?xml version="1.0" encoding="UTF-8" standalone="no"?>
<!DOCTYPE svg PUBLIC "-//W3C//DTD SVG 1.1//EN"
 "http://www.w3.org/Graphics/SVG/1.1/DTD/svg11.dtd">
<!-- Generated by graphviz version 2.40.1 (20161225.0304)
 -->
<!-- Title: dependencies Pages: 1 -->
<svg width="504pt" height="284pt"
 viewBox="0.00 0.00 504.00 284.00" xmlns="http://www.w3.org/2000/svg" xmlns:xlink="http://www.w3.org/1999/xlink">
<g id="graph0" class="graph" transform="scale(1 1) rotate(0) translate(4 280)">
<title>dependencies</title>
<polygon fill="#ffffff" stroke="transparent" points="-4,4 -4,-280 500,-280 500,4 -4,4"/>
<text text-anchor="start" x="227.0091" y="-42.4" font-family="sans-serif" font-weight="bold" font-size="14.00" fill="#000000">Legend</text>
<polygon fill="#ffffb3" stroke="transparent" points="14,-10 14,-30 34,-30 34,-10 14,-10"/>
<text text-anchor="start" x="37.629" y="-15.4" font-family="sans-serif" font-size="14.00" fill="#000000"> &#160;Declarations</text>
<polygon fill="#8dd3c7" stroke="transparent" points="127,-10 127,-30 147,-30 147,-10 127,-10"/>
<text text-anchor="start" x="150.7251" y="-15.4" font-family="sans-serif" font-size="14.00" fill="#000000"> &#160;Module</text>
<polygon fill="#80b1d3" stroke="transparent" points="213,-10 213,-30 233,-30 233,-10 213,-10"/>
<text text-anchor="start" x="236.7812" y="-15.4" font-family="sans-serif" font-size="14.00" fill="#000000"> &#160;Bootstrap</text>
<polygon fill="#fdb462" stroke="transparent" points="310,-10 310,-30 330,-30 330,-10 310,-10"/>
<text text-anchor="start" x="333.6732" y="-15.4" font-family="sans-serif" font-size="14.00" fill="#000000"> &#160;Providers</text>
<polygon fill="#fb8072" stroke="transparent" points="406,-10 406,-30 426,-30 426,-10 406,-10"/>
<text text-anchor="start" x="429.7258" y="-15.4" font-family="sans-serif" font-size="14.00" fill="#000000"> &#160;Exports</text>
<g id="clust1" class="cluster">
<title>cluster_CollapseModule</title>
<polygon fill="none" stroke="#000000" stroke-dasharray="1,5" points="79,-70 79,-268 417,-268 417,-70 79,-70"/>
</g>
<g id="clust2" class="cluster">
<title>cluster_CollapseModule_declarations</title>
<polygon fill="none" stroke="#000000" points="92,-78 92,-130 403,-130 403,-78 92,-78"/>
</g>
<g id="clust7" class="cluster">
<title>cluster_CollapseModule_exports</title>
<polygon fill="none" stroke="#000000" points="87,-208 87,-260 409,-260 409,-208 87,-208"/>
</g>
<!-- Collapse -->
<g id="node1" class="node">
<title>Collapse</title>
<polygon fill="#ffffb3" stroke="#000000" points="395.4916,-122 330.5084,-122 330.5084,-86 395.4916,-86 395.4916,-122"/>
<text text-anchor="middle" x="363" y="-99.8" font-family="Times,serif" font-size="14.00" fill="#000000">Collapse</text>
</g>
<!-- CollapseModule -->
<g id="node4" class="node">
<title>CollapseModule</title>
<polygon fill="#8dd3c7" stroke="#000000" points="315.0424,-187 312.0424,-191 291.0424,-191 288.0424,-187 206.9576,-187 206.9576,-151 315.0424,-151 315.0424,-187"/>
<text text-anchor="middle" x="261" y="-164.8" font-family="Times,serif" font-size="14.00" fill="#000000">CollapseModule</text>
</g>
<!-- Collapse&#45;&gt;CollapseModule -->
<g id="edge1" class="edge">
<title>Collapse&#45;&gt;CollapseModule</title>
<path fill="none" stroke="#000000" d="M374.5819,-122.0225C374.5819,-139.3734 374.5819,-163 374.5819,-163 374.5819,-163 325.1298,-163 325.1298,-163"/>
<polygon fill="#000000" stroke="#000000" points="325.1298,-159.5001 315.1298,-163 325.1297,-166.5001 325.1298,-159.5001"/>
</g>
<!-- CollapseButton -->
<g id="node2" class="node">
<title>CollapseButton</title>
<polygon fill="#ffffb3" stroke="#000000" points="312.6095,-122 209.3905,-122 209.3905,-86 312.6095,-86 312.6095,-122"/>
<text text-anchor="middle" x="261" y="-99.8" font-family="Times,serif" font-size="14.00" fill="#000000">CollapseButton</text>
</g>
<!-- CollapseButton&#45;&gt;CollapseModule -->
<g id="edge2" class="edge">
<title>CollapseButton&#45;&gt;CollapseModule</title>
<path fill="none" stroke="#000000" d="M261,-122.1061C261,-122.1061 261,-140.991 261,-140.991"/>
<polygon fill="#000000" stroke="#000000" points="257.5001,-140.9909 261,-150.991 264.5001,-140.991 257.5001,-140.9909"/>
</g>
<!-- CollapseLink -->
<g id="node3" class="node">
<title>CollapseLink</title>
<polygon fill="#ffffb3" stroke="#000000" points="191.9358,-122 100.0642,-122 100.0642,-86 191.9358,-86 191.9358,-122"/>
<text text-anchor="middle" x="146" y="-99.8" font-family="Times,serif" font-size="14.00" fill="#000000">CollapseLink</text>
</g>
<!-- CollapseLink&#45;&gt;CollapseModule -->
<g id="edge3" class="edge">
<title>CollapseLink&#45;&gt;CollapseModule</title>
<path fill="none" stroke="#000000" d="M159.7391,-122.0225C159.7391,-139.3734 159.7391,-163 159.7391,-163 159.7391,-163 196.8122,-163 196.8122,-163"/>
<polygon fill="#000000" stroke="#000000" points="196.8123,-166.5001 206.8122,-163 196.8122,-159.5001 196.8123,-166.5001"/>
</g>
<!-- Collapse  -->
<g id="node5" class="node">
<title>Collapse </title>
<polygon fill="#fb8072" stroke="#000000" points="401.4934,-252 332.5066,-252 332.5066,-216 401.4934,-216 401.4934,-252"/>
<text text-anchor="middle" x="367" y="-229.8" font-family="Times,serif" font-size="14.00" fill="#000000">Collapse </text>
</g>
<!-- CollapseModule&#45;&gt;Collapse  -->
<g id="edge4" class="edge">
<title>CollapseModule&#45;&gt;Collapse </title>
<path fill="none" stroke="#000000" stroke-dasharray="5,2" d="M315.1735,-175C335.4525,-175 353.6681,-175 353.6681,-175 353.6681,-175 353.6681,-205.9775 353.6681,-205.9775"/>
<polygon fill="#000000" stroke="#000000" points="350.1682,-205.9774 353.6681,-215.9775 357.1682,-205.9775 350.1682,-205.9774"/>
</g>
<!-- CollapseButton  -->
<g id="node6" class="node">
<title>CollapseButton </title>
<polygon fill="#fb8072" stroke="#000000" points="314.1101,-252 207.8899,-252 207.8899,-216 314.1101,-216 314.1101,-252"/>
<text text-anchor="middle" x="261" y="-229.8" font-family="Times,serif" font-size="14.00" fill="#000000">CollapseButton </text>
</g>
<!-- CollapseModule&#45;&gt;CollapseButton  -->
<g id="edge5" class="edge">
<title>CollapseModule&#45;&gt;CollapseButton </title>
<path fill="none" stroke="#000000" stroke-dasharray="5,2" d="M261,-187.1061C261,-187.1061 261,-205.991 261,-205.991"/>
<polygon fill="#000000" stroke="#000000" points="257.5001,-205.9909 261,-215.991 264.5001,-205.991 257.5001,-205.9909"/>
</g>
<!-- CollapseLink  -->
<g id="node7" class="node">
<title>CollapseLink </title>
<polygon fill="#fb8072" stroke="#000000" points="189.4348,-252 94.5652,-252 94.5652,-216 189.4348,-216 189.4348,-252"/>
<text text-anchor="middle" x="142" y="-229.8" font-family="Times,serif" font-size="14.00" fill="#000000">CollapseLink </text>
</g>
<!-- CollapseModule&#45;&gt;CollapseLink  -->
<g id="edge6" class="edge">
<title>CollapseModule&#45;&gt;CollapseLink </title>
<path fill="none" stroke="#000000" stroke-dasharray="5,2" d="M206.5868,-175C170.5977,-175 130.0109,-175 130.0109,-175 130.0109,-175 130.0109,-205.9775 130.0109,-205.9775"/>
<polygon fill="#000000" stroke="#000000" points="126.511,-205.9774 130.0109,-215.9775 133.511,-205.9775 126.511,-205.9774"/>
</g>
</g>
</svg>
