<?xml version="1.0" encoding="UTF-8" standalone="no"?>
<!DOCTYPE svg PUBLIC "-//W3C//DTD SVG 1.1//EN"
 "http://www.w3.org/Graphics/SVG/1.1/DTD/svg11.dtd">
<!-- Generated by graphviz version 2.40.1 (20161225.0304)
 -->
<!-- Title: dependencies Pages: 1 -->
<svg width="566pt" height="284pt"
 viewBox="0.00 0.00 566.00 284.00" xmlns="http://www.w3.org/2000/svg" xmlns:xlink="http://www.w3.org/1999/xlink">
<g id="graph0" class="graph" transform="scale(1 1) rotate(0) translate(4 280)">
<title>dependencies</title>
<polygon fill="#ffffff" stroke="transparent" points="-4,4 -4,-280 562,-280 562,4 -4,4"/>
<text text-anchor="start" x="258.0091" y="-42.4" font-family="sans-serif" font-weight="bold" font-size="14.00" fill="#000000">Legend</text>
<polygon fill="#ffffb3" stroke="transparent" points="45,-10 45,-30 65,-30 65,-10 45,-10"/>
<text text-anchor="start" x="68.629" y="-15.4" font-family="sans-serif" font-size="14.00" fill="#000000"> &#160;Declarations</text>
<polygon fill="#8dd3c7" stroke="transparent" points="158,-10 158,-30 178,-30 178,-10 158,-10"/>
<text text-anchor="start" x="181.7251" y="-15.4" font-family="sans-serif" font-size="14.00" fill="#000000"> &#160;Module</text>
<polygon fill="#80b1d3" stroke="transparent" points="244,-10 244,-30 264,-30 264,-10 244,-10"/>
<text text-anchor="start" x="267.7812" y="-15.4" font-family="sans-serif" font-size="14.00" fill="#000000"> &#160;Bootstrap</text>
<polygon fill="#fdb462" stroke="transparent" points="341,-10 341,-30 361,-30 361,-10 341,-10"/>
<text text-anchor="start" x="364.6732" y="-15.4" font-family="sans-serif" font-size="14.00" fill="#000000"> &#160;Providers</text>
<polygon fill="#fb8072" stroke="transparent" points="437,-10 437,-30 457,-30 457,-10 437,-10"/>
<text text-anchor="start" x="460.7258" y="-15.4" font-family="sans-serif" font-size="14.00" fill="#000000"> &#160;Exports</text>
<g id="clust1" class="cluster">
<title>cluster_GoogleMapsModule</title>
<polygon fill="none" stroke="#000000" stroke-dasharray="1,5" points="8,-70 8,-268 550,-268 550,-70 8,-70"/>
</g>
<g id="clust2" class="cluster">
<title>cluster_GoogleMapsModule_declarations</title>
<polygon fill="none" stroke="#000000" points="420,-78 420,-130 542,-130 542,-78 420,-78"/>
</g>
<g id="clust4" class="cluster">
<title>cluster_GoogleMapsModule_imports</title>
<polygon fill="none" stroke="#000000" points="16,-78 16,-130 412,-130 412,-78 16,-78"/>
</g>
<g id="clust5" class="cluster">
<title>cluster_GoogleMapsModule_exports</title>
<polygon fill="none" stroke="#000000" points="221,-208 221,-260 347,-260 347,-208 221,-208"/>
</g>
<!-- MapComponent -->
<g id="node1" class="node">
<title>MapComponent</title>
<polygon fill="#ffffb3" stroke="#000000" points="534.4916,-122 427.5084,-122 427.5084,-86 534.4916,-86 534.4916,-122"/>
<text text-anchor="middle" x="481" y="-99.8" font-family="Times,serif" font-size="14.00" fill="#000000">MapComponent</text>
</g>
<!-- GoogleMapsModule -->
<g id="node2" class="node">
<title>GoogleMapsModule</title>
<polygon fill="#8dd3c7" stroke="#000000" points="349.8655,-187 346.8655,-191 325.8655,-191 322.8655,-187 218.1345,-187 218.1345,-151 349.8655,-151 349.8655,-187"/>
<text text-anchor="middle" x="284" y="-164.8" font-family="Times,serif" font-size="14.00" fill="#000000">GoogleMapsModule</text>
</g>
<!-- MapComponent&#45;&gt;GoogleMapsModule -->
<g id="edge1" class="edge">
<title>MapComponent&#45;&gt;GoogleMapsModule</title>
<path fill="none" stroke="#000000" d="M481,-122.1061C481,-141.3391 481,-169 481,-169 481,-169 359.872,-169 359.872,-169"/>
<polygon fill="#000000" stroke="#000000" points="359.8721,-165.5001 349.872,-169 359.872,-172.5001 359.8721,-165.5001"/>
</g>
<!-- MapComponent  -->
<g id="node6" class="node">
<title>MapComponent </title>
<polygon fill="#fb8072" stroke="#000000" points="339.4927,-252 228.5073,-252 228.5073,-216 339.4927,-216 339.4927,-252"/>
<text text-anchor="middle" x="284" y="-229.8" font-family="Times,serif" font-size="14.00" fill="#000000">MapComponent </text>
</g>
<!-- GoogleMapsModule&#45;&gt;MapComponent  -->
<g id="edge5" class="edge">
<title>GoogleMapsModule&#45;&gt;MapComponent </title>
<path fill="none" stroke="#000000" stroke-dasharray="5,2" d="M284,-187.1061C284,-187.1061 284,-205.991 284,-205.991"/>
<polygon fill="#000000" stroke="#000000" points="280.5001,-205.9909 284,-215.991 287.5001,-205.991 280.5001,-205.9909"/>
</g>
<!-- BsActionModule -->
<g id="node3" class="node">
<title>BsActionModule</title>
<polygon fill="#8dd3c7" stroke="#000000" points="404.4342,-122 401.4342,-126 380.4342,-126 377.4342,-122 291.5658,-122 291.5658,-86 404.4342,-86 404.4342,-122"/>
<text text-anchor="middle" x="348" y="-99.8" font-family="Times,serif" font-size="14.00" fill="#000000">BsActionModule</text>
</g>
<!-- BsActionModule&#45;&gt;GoogleMapsModule -->
<g id="edge2" class="edge">
<title>BsActionModule&#45;&gt;GoogleMapsModule</title>
<path fill="none" stroke="#000000" d="M320.858,-122.1061C320.858,-122.1061 320.858,-140.991 320.858,-140.991"/>
<polygon fill="#000000" stroke="#000000" points="317.3581,-140.9909 320.858,-150.991 324.3581,-140.991 317.3581,-140.9909"/>
</g>
<!-- BsFacetModule -->
<g id="node4" class="node">
<title>BsFacetModule</title>
<polygon fill="#8dd3c7" stroke="#000000" points="273.1486,-122 270.1486,-126 249.1486,-126 246.1486,-122 168.8514,-122 168.8514,-86 273.1486,-86 273.1486,-122"/>
<text text-anchor="middle" x="221" y="-99.8" font-family="Times,serif" font-size="14.00" fill="#000000">BsFacetModule</text>
</g>
<!-- BsFacetModule&#45;&gt;GoogleMapsModule -->
<g id="edge3" class="edge">
<title>BsFacetModule&#45;&gt;GoogleMapsModule</title>
<path fill="none" stroke="#000000" d="M245.6957,-122.1061C245.6957,-122.1061 245.6957,-140.991 245.6957,-140.991"/>
<polygon fill="#000000" stroke="#000000" points="242.1957,-140.9909 245.6957,-150.991 249.1957,-140.991 242.1957,-140.9909"/>
</g>
<!-- BsSelectionModule -->
<g id="node5" class="node">
<title>BsSelectionModule</title>
<polygon fill="#8dd3c7" stroke="#000000" points="150.4299,-122 147.4299,-126 126.4299,-126 123.4299,-122 23.5701,-122 23.5701,-86 150.4299,-86 150.4299,-122"/>
<text text-anchor="middle" x="87" y="-99.8" font-family="Times,serif" font-size="14.00" fill="#000000">BsSelectionModule</text>
</g>
<!-- BsSelectionModule&#45;&gt;GoogleMapsModule -->
<g id="edge4" class="edge">
<title>BsSelectionModule&#45;&gt;GoogleMapsModule</title>
<path fill="none" stroke="#000000" d="M87,-122.1061C87,-141.3391 87,-169 87,-169 87,-169 208.128,-169 208.128,-169"/>
<polygon fill="#000000" stroke="#000000" points="208.128,-172.5001 218.128,-169 208.1279,-165.5001 208.128,-172.5001"/>
</g>
</g>
</svg>
