<?xml version="1.0" encoding="UTF-8" standalone="no"?>
<!DOCTYPE svg PUBLIC "-//W3C//DTD SVG 1.1//EN"
 "http://www.w3.org/Graphics/SVG/1.1/DTD/svg11.dtd">
<!-- Generated by graphviz version 2.40.1 (20161225.0304)
 -->
<!-- Title: dependencies Pages: 1 -->
<svg width="504pt" height="284pt"
 viewBox="0.00 0.00 504.00 284.00" xmlns="http://www.w3.org/2000/svg" xmlns:xlink="http://www.w3.org/1999/xlink">
<g id="graph0" class="graph" transform="scale(1 1) rotate(0) translate(4 280)">
<title>dependencies</title>
<polygon fill="#ffffff" stroke="transparent" points="-4,4 -4,-280 500,-280 500,4 -4,4"/>
<text text-anchor="start" x="227.0091" y="-42.4" font-family="sans-serif" font-weight="bold" font-size="14.00" fill="#000000">Legend</text>
<polygon fill="#ffffb3" stroke="transparent" points="14,-10 14,-30 34,-30 34,-10 14,-10"/>
<text text-anchor="start" x="37.629" y="-15.4" font-family="sans-serif" font-size="14.00" fill="#000000"> &#160;Declarations</text>
<polygon fill="#8dd3c7" stroke="transparent" points="127,-10 127,-30 147,-30 147,-10 127,-10"/>
<text text-anchor="start" x="150.7251" y="-15.4" font-family="sans-serif" font-size="14.00" fill="#000000"> &#160;Module</text>
<polygon fill="#80b1d3" stroke="transparent" points="213,-10 213,-30 233,-30 233,-10 213,-10"/>
<text text-anchor="start" x="236.7812" y="-15.4" font-family="sans-serif" font-size="14.00" fill="#000000"> &#160;Bootstrap</text>
<polygon fill="#fdb462" stroke="transparent" points="310,-10 310,-30 330,-30 330,-10 310,-10"/>
<text text-anchor="start" x="333.6732" y="-15.4" font-family="sans-serif" font-size="14.00" fill="#000000"> &#160;Providers</text>
<polygon fill="#fb8072" stroke="transparent" points="406,-10 406,-30 426,-30 426,-10 406,-10"/>
<text text-anchor="start" x="429.7258" y="-15.4" font-family="sans-serif" font-size="14.00" fill="#000000"> &#160;Exports</text>
<g id="clust1" class="cluster">
<title>cluster_NetworkModule</title>
<polygon fill="none" stroke="#000000" stroke-dasharray="1,5" points="33,-70 33,-268 463,-268 463,-70 33,-70"/>
</g>
<g id="clust2" class="cluster">
<title>cluster_NetworkModule_declarations</title>
<polygon fill="none" stroke="#000000" points="46,-78 46,-130 450,-130 450,-78 46,-78"/>
</g>
<g id="clust7" class="cluster">
<title>cluster_NetworkModule_exports</title>
<polygon fill="none" stroke="#000000" points="41,-208 41,-260 455,-260 455,-208 41,-208"/>
</g>
<!-- BsEdgeInfoCard -->
<g id="node1" class="node">
<title>BsEdgeInfoCard</title>
<polygon fill="#ffffb3" stroke="#000000" points="442.0814,-122 331.9186,-122 331.9186,-86 442.0814,-86 442.0814,-122"/>
<text text-anchor="middle" x="387" y="-99.8" font-family="Times,serif" font-size="14.00" fill="#000000">BsEdgeInfoCard</text>
</g>
<!-- NetworkModule -->
<g id="node4" class="node">
<title>NetworkModule</title>
<polygon fill="#8dd3c7" stroke="#000000" points="312.0298,-187 309.0298,-191 288.0298,-191 285.0298,-187 203.9702,-187 203.9702,-151 312.0298,-151 312.0298,-187"/>
<text text-anchor="middle" x="258" y="-164.8" font-family="Times,serif" font-size="14.00" fill="#000000">NetworkModule</text>
</g>
<!-- BsEdgeInfoCard&#45;&gt;NetworkModule -->
<g id="edge1" class="edge">
<title>BsEdgeInfoCard&#45;&gt;NetworkModule</title>
<path fill="none" stroke="#000000" d="M405.7636,-122.0225C405.7636,-139.3734 405.7636,-163 405.7636,-163 405.7636,-163 322.1827,-163 322.1827,-163"/>
<polygon fill="#000000" stroke="#000000" points="322.1827,-159.5001 312.1827,-163 322.1826,-166.5001 322.1827,-159.5001"/>
</g>
<!-- BsNodeInfoCard -->
<g id="node2" class="node">
<title>BsNodeInfoCard</title>
<polygon fill="#ffffb3" stroke="#000000" points="313.636,-122 202.364,-122 202.364,-86 313.636,-86 313.636,-122"/>
<text text-anchor="middle" x="258" y="-99.8" font-family="Times,serif" font-size="14.00" fill="#000000">BsNodeInfoCard</text>
</g>
<!-- BsNodeInfoCard&#45;&gt;NetworkModule -->
<g id="edge2" class="edge">
<title>BsNodeInfoCard&#45;&gt;NetworkModule</title>
<path fill="none" stroke="#000000" d="M258,-122.1061C258,-122.1061 258,-140.991 258,-140.991"/>
<polygon fill="#000000" stroke="#000000" points="254.5001,-140.9909 258,-150.991 261.5001,-140.991 254.5001,-140.9909"/>
</g>
<!-- NetworkComponent -->
<g id="node3" class="node">
<title>NetworkComponent</title>
<polygon fill="#ffffb3" stroke="#000000" points="184.3118,-122 53.6882,-122 53.6882,-86 184.3118,-86 184.3118,-122"/>
<text text-anchor="middle" x="119" y="-99.8" font-family="Times,serif" font-size="14.00" fill="#000000">NetworkComponent</text>
</g>
<!-- NetworkComponent&#45;&gt;NetworkModule -->
<g id="edge3" class="edge">
<title>NetworkComponent&#45;&gt;NetworkModule</title>
<path fill="none" stroke="#000000" d="M139.8852,-122.0225C139.8852,-139.3734 139.8852,-163 139.8852,-163 139.8852,-163 193.7823,-163 193.7823,-163"/>
<polygon fill="#000000" stroke="#000000" points="193.7824,-166.5001 203.7823,-163 193.7823,-159.5001 193.7824,-166.5001"/>
</g>
<!-- BsEdgeInfoCard  -->
<g id="node5" class="node">
<title>BsEdgeInfoCard </title>
<polygon fill="#fb8072" stroke="#000000" points="446.5822,-252 333.4178,-252 333.4178,-216 446.5822,-216 446.5822,-252"/>
<text text-anchor="middle" x="390" y="-229.8" font-family="Times,serif" font-size="14.00" fill="#000000">BsEdgeInfoCard </text>
</g>
<!-- NetworkModule&#45;&gt;BsEdgeInfoCard  -->
<g id="edge4" class="edge">
<title>NetworkModule&#45;&gt;BsEdgeInfoCard </title>
<path fill="none" stroke="#000000" stroke-dasharray="5,2" d="M312.1103,-175C340.5155,-175 369.4864,-175 369.4864,-175 369.4864,-175 369.4864,-205.9775 369.4864,-205.9775"/>
<polygon fill="#000000" stroke="#000000" points="365.9865,-205.9774 369.4864,-215.9775 372.9865,-205.9775 365.9865,-205.9774"/>
</g>
<!-- BsNodeInfoCard  -->
<g id="node6" class="node">
<title>BsNodeInfoCard </title>
<polygon fill="#fb8072" stroke="#000000" points="315.6355,-252 200.3645,-252 200.3645,-216 315.6355,-216 315.6355,-252"/>
<text text-anchor="middle" x="258" y="-229.8" font-family="Times,serif" font-size="14.00" fill="#000000">BsNodeInfoCard </text>
</g>
<!-- NetworkModule&#45;&gt;BsNodeInfoCard  -->
<g id="edge5" class="edge">
<title>NetworkModule&#45;&gt;BsNodeInfoCard </title>
<path fill="none" stroke="#000000" stroke-dasharray="5,2" d="M258,-187.1061C258,-187.1061 258,-205.991 258,-205.991"/>
<polygon fill="#000000" stroke="#000000" points="254.5001,-205.9909 258,-215.991 261.5001,-205.991 254.5001,-205.9909"/>
</g>
<!-- NetworkComponent  -->
<g id="node7" class="node">
<title>NetworkComponent </title>
<polygon fill="#fb8072" stroke="#000000" points="182.8115,-252 49.1885,-252 49.1885,-216 182.8115,-216 182.8115,-252"/>
<text text-anchor="middle" x="116" y="-229.8" font-family="Times,serif" font-size="14.00" fill="#000000">NetworkComponent </text>
</g>
<!-- NetworkModule&#45;&gt;NetworkComponent  -->
<g id="edge6" class="edge">
<title>NetworkModule&#45;&gt;NetworkComponent </title>
<path fill="none" stroke="#000000" stroke-dasharray="5,2" d="M203.896,-175C157.0846,-175 96.8648,-175 96.8648,-175 96.8648,-175 96.8648,-205.9775 96.8648,-205.9775"/>
<polygon fill="#000000" stroke="#000000" points="93.3649,-205.9774 96.8648,-215.9775 100.3649,-205.9775 93.3649,-205.9774"/>
</g>
</g>
</svg>
