<?xml version="1.0" encoding="UTF-8" standalone="no"?>
<!DOCTYPE svg PUBLIC "-//W3C//DTD SVG 1.1//EN"
 "http://www.w3.org/Graphics/SVG/1.1/DTD/svg11.dtd">
<!-- Generated by graphviz version 2.47.3 (20210619.1520)
 -->
<!-- Title: dependencies Pages: 1 -->
<svg width="612pt" height="247pt"
 viewBox="0.00 0.00 612.00 246.80" xmlns="http://www.w3.org/2000/svg" xmlns:xlink="http://www.w3.org/1999/xlink">
<g id="graph0" class="graph" transform="scale(1 1) rotate(0) translate(4 242.8)">
<title>dependencies</title>
<polygon fill="white" stroke="transparent" points="-4,4 -4,-242.8 608,-242.8 608,4 -4,4"/>
<text text-anchor="middle" x="302" y="-8.2" font-family="sans-serif" font-size="14.00">dependencies</text>
<g id="clust1" class="cluster">
<title>cluster_NetworkModule</title>
<polygon fill="none" stroke="black" stroke-dasharray="1,5" points="8,-32.8 8,-230.8 596,-230.8 596,-32.8 8,-32.8"/>
</g>
<g id="clust2" class="cluster">
<title>cluster_NetworkModule_declarations</title>
<polygon fill="none" stroke="black" points="24,-40.8 24,-92.8 582,-92.8 582,-40.8 24,-40.8"/>
</g>
<g id="clust8" class="cluster">
<title>cluster_NetworkModule_exports</title>
<polygon fill="none" stroke="black" points="16,-170.8 16,-222.8 588,-222.8 588,-170.8 16,-170.8"/>
</g>
<!-- BsEdgeInfoCard -->
<g id="node1" class="node">
<title>BsEdgeInfoCard</title>
<polygon fill="#ffffb3" stroke="black" points="574.08,-84.8 463.92,-84.8 463.92,-48.8 574.08,-48.8 574.08,-84.8"/>
<text text-anchor="middle" x="519" y="-62.6" font-family="Times,serif" font-size="14.00">BsEdgeInfoCard</text>
</g>
<!-- NetworkModule -->
<g id="node5" class="node">
<title>NetworkModule</title>
<polygon fill="#8dd3c7" stroke="black" points="308.03,-149.8 305.03,-153.8 284.03,-153.8 281.03,-149.8 199.97,-149.8 199.97,-113.8 308.03,-113.8 308.03,-149.8"/>
<text text-anchor="middle" x="254" y="-127.6" font-family="Times,serif" font-size="14.00">NetworkModule</text>
</g>
<!-- BsEdgeInfoCard&#45;&gt;NetworkModule -->
<g id="edge1" class="edge">
<title>BsEdgeInfoCard&#45;&gt;NetworkModule</title>
<path fill="none" stroke="black" d="M538.1,-85.07C538.1,-103.36 538.1,-128.8 538.1,-128.8 538.1,-128.8 318.11,-128.8 318.11,-128.8"/>
<polygon fill="black" stroke="black" points="318.11,-125.3 308.11,-128.8 318.11,-132.3 318.11,-125.3"/>
</g>
<!-- BsNodeInfoCard -->
<g id="node2" class="node">
<title>BsNodeInfoCard</title>
<polygon fill="#ffffb3" stroke="black" points="445.64,-84.8 334.36,-84.8 334.36,-48.8 445.64,-48.8 445.64,-84.8"/>
<text text-anchor="middle" x="390" y="-62.6" font-family="Times,serif" font-size="14.00">BsNodeInfoCard</text>
</g>
<!-- BsNodeInfoCard&#45;&gt;NetworkModule -->
<g id="edge2" class="edge">
<title>BsNodeInfoCard&#45;&gt;NetworkModule</title>
<path fill="none" stroke="black" d="M408.61,-84.81C408.61,-100.85 408.61,-121.8 408.61,-121.8 408.61,-121.8 318.07,-121.8 318.07,-121.8"/>
<polygon fill="black" stroke="black" points="318.07,-118.3 308.07,-121.8 318.07,-125.3 318.07,-118.3"/>
</g>
<!-- NetworkComponent -->
<g id="node3" class="node">
<title>NetworkComponent</title>
<polygon fill="#ffffb3" stroke="black" points="316.31,-84.8 185.69,-84.8 185.69,-48.8 316.31,-48.8 316.31,-84.8"/>
<text text-anchor="middle" x="251" y="-62.6" font-family="Times,serif" font-size="14.00">NetworkComponent</text>
</g>
<!-- NetworkComponent&#45;&gt;NetworkModule -->
<g id="edge3" class="edge">
<title>NetworkComponent&#45;&gt;NetworkModule</title>
<path fill="none" stroke="black" d="M254,-84.91C254,-84.91 254,-103.79 254,-103.79"/>
<polygon fill="black" stroke="black" points="250.5,-103.79 254,-113.79 257.5,-103.79 250.5,-103.79"/>
</g>
<!-- VisNetworkDirective -->
<g id="node4" class="node">
<title>VisNetworkDirective</title>
<polygon fill="#ffffb3" stroke="black" points="168,-84.8 32,-84.8 32,-48.8 168,-48.8 168,-84.8"/>
<text text-anchor="middle" x="100" y="-62.6" font-family="Times,serif" font-size="14.00">VisNetworkDirective</text>
</g>
<!-- VisNetworkDirective&#45;&gt;NetworkModule -->
<g id="edge4" class="edge">
<title>VisNetworkDirective&#45;&gt;NetworkModule</title>
<path fill="none" stroke="black" d="M119.92,-84.82C119.92,-102.17 119.92,-125.8 119.92,-125.8 119.92,-125.8 189.85,-125.8 189.85,-125.8"/>
<polygon fill="black" stroke="black" points="189.85,-129.3 199.85,-125.8 189.85,-122.3 189.85,-129.3"/>
</g>
<!-- BsEdgeInfoCard  -->
<g id="node6" class="node">
<title>BsEdgeInfoCard </title>
<polygon fill="#fb8072" stroke="black" points="579.58,-214.8 466.42,-214.8 466.42,-178.8 579.58,-178.8 579.58,-214.8"/>
<text text-anchor="middle" x="523" y="-192.6" font-family="Times,serif" font-size="14.00">BsEdgeInfoCard </text>
</g>
<!-- NetworkModule&#45;&gt;BsEdgeInfoCard  -->
<g id="edge5" class="edge">
<title>NetworkModule&#45;&gt;BsEdgeInfoCard </title>
<path fill="none" stroke="black" stroke-dasharray="5,2" d="M308.15,-135.8C381.17,-135.8 502.15,-135.8 502.15,-135.8 502.15,-135.8 502.15,-168.5 502.15,-168.5"/>
<polygon fill="black" stroke="black" points="498.65,-168.5 502.15,-178.5 505.65,-168.5 498.65,-168.5"/>
</g>
<!-- BsNodeInfoCard  -->
<g id="node7" class="node">
<title>BsNodeInfoCard </title>
<polygon fill="#fb8072" stroke="black" points="448.64,-214.8 333.36,-214.8 333.36,-178.8 448.64,-178.8 448.64,-214.8"/>
<text text-anchor="middle" x="391" y="-192.6" font-family="Times,serif" font-size="14.00">BsNodeInfoCard </text>
</g>
<!-- NetworkModule&#45;&gt;BsNodeInfoCard  -->
<g id="edge6" class="edge">
<title>NetworkModule&#45;&gt;BsNodeInfoCard </title>
<path fill="none" stroke="black" stroke-dasharray="5,2" d="M308.23,-142.8C338.99,-142.8 371.39,-142.8 371.39,-142.8 371.39,-142.8 371.39,-168.52 371.39,-168.52"/>
<polygon fill="black" stroke="black" points="367.89,-168.52 371.39,-178.52 374.89,-168.52 367.89,-168.52"/>
</g>
<!-- NetworkComponent  -->
<g id="node8" class="node">
<title>NetworkComponent </title>
<polygon fill="#fb8072" stroke="black" points="315.81,-214.8 182.19,-214.8 182.19,-178.8 315.81,-178.8 315.81,-214.8"/>
<text text-anchor="middle" x="249" y="-192.6" font-family="Times,serif" font-size="14.00">NetworkComponent </text>
</g>
<!-- NetworkModule&#45;&gt;NetworkComponent  -->
<g id="edge7" class="edge">
<title>NetworkModule&#45;&gt;NetworkComponent </title>
<path fill="none" stroke="black" stroke-dasharray="5,2" d="M254,-149.91C254,-149.91 254,-168.79 254,-168.79"/>
<polygon fill="black" stroke="black" points="250.5,-168.79 254,-178.79 257.5,-168.79 250.5,-168.79"/>
</g>
<!-- VisNetworkDirective  -->
<g id="node9" class="node">
<title>VisNetworkDirective </title>
<polygon fill="#fb8072" stroke="black" points="164,-214.8 24,-214.8 24,-178.8 164,-178.8 164,-214.8"/>
<text text-anchor="middle" x="94" y="-192.6" font-family="Times,serif" font-size="14.00">VisNetworkDirective </text>
</g>
<!-- NetworkModule&#45;&gt;VisNetworkDirective  -->
<g id="edge8" class="edge">
<title>NetworkModule&#45;&gt;VisNetworkDirective </title>
<path fill="none" stroke="black" stroke-dasharray="5,2" d="M199.58,-137.8C147.18,-137.8 75.83,-137.8 75.83,-137.8 75.83,-137.8 75.83,-168.78 75.83,-168.78"/>
<polygon fill="black" stroke="black" points="72.33,-168.78 75.83,-178.78 79.33,-168.78 72.33,-168.78"/>
</g>
</g>
</svg>
