<?xml version="1.0" encoding="UTF-8" standalone="no"?>
<!DOCTYPE svg PUBLIC "-//W3C//DTD SVG 1.1//EN"
 "http://www.w3.org/Graphics/SVG/1.1/DTD/svg11.dtd">
<!-- Generated by graphviz version 2.47.3 (20210619.1520)
 -->
<!-- Title: dependencies Pages: 1 -->
<svg width="462pt" height="174pt"
 viewBox="0.00 0.00 462.00 173.80" xmlns="http://www.w3.org/2000/svg" xmlns:xlink="http://www.w3.org/1999/xlink">
<g id="graph0" class="graph" transform="scale(1 1) rotate(0) translate(4 169.8)">
<title>dependencies</title>
<polygon fill="white" stroke="transparent" points="-4,4 -4,-169.8 458,-169.8 458,4 -4,4"/>
<text text-anchor="middle" x="227" y="-8.2" font-family="sans-serif" font-size="14.00">dependencies</text>
<g id="clust1" class="cluster">
<title>cluster_NotificationModule</title>
<polygon fill="none" stroke="black" stroke-dasharray="1,5" points="8,-32.8 8,-157.8 446,-157.8 446,-32.8 8,-32.8"/>
</g>
<g id="clust6" class="cluster">
<title>cluster_NotificationModule_providers</title>
<polygon fill="none" stroke="black" points="16,-40.8 16,-92.8 438,-92.8 438,-40.8 16,-40.8"/>
</g>
<!-- NotificationsInterceptor -->
<g id="node1" class="node">
<title>NotificationsInterceptor</title>
<ellipse fill="#fdb462" stroke="black" cx="326" cy="-66.8" rx="103.63" ry="18"/>
<text text-anchor="middle" x="326" y="-62.6" font-family="Times,serif" font-size="14.00">NotificationsInterceptor</text>
</g>
<!-- NotificationModule -->
<g id="node3" class="node">
<title>NotificationModule</title>
<polygon fill="#8dd3c7" stroke="black" points="283.7,-149.8 280.7,-153.8 259.7,-153.8 256.7,-149.8 156.3,-149.8 156.3,-113.8 283.7,-113.8 283.7,-149.8"/>
<text text-anchor="middle" x="220" y="-127.6" font-family="Times,serif" font-size="14.00">NotificationModule</text>
</g>
<!-- NotificationsInterceptor&#45;&gt;NotificationModule -->
<g id="edge1" class="edge">
<title>NotificationsInterceptor&#45;&gt;NotificationModule</title>
<path fill="none" stroke="black" d="M252.89,-79.64C252.89,-79.64 252.89,-103.32 252.89,-103.32"/>
<polygon fill="black" stroke="black" points="249.39,-103.32 252.89,-113.32 256.39,-103.32 249.39,-103.32"/>
</g>
<!-- NotificationsService -->
<g id="node2" class="node">
<title>NotificationsService</title>
<ellipse fill="#fdb462" stroke="black" cx="114" cy="-66.8" rx="90.32" ry="18"/>
<text text-anchor="middle" x="114" y="-62.6" font-family="Times,serif" font-size="14.00">NotificationsService</text>
</g>
<!-- NotificationsService&#45;&gt;NotificationModule -->
<g id="edge2" class="edge">
<title>NotificationsService&#45;&gt;NotificationModule</title>
<path fill="none" stroke="black" d="M180.41,-79.03C180.41,-79.03 180.41,-103.48 180.41,-103.48"/>
<polygon fill="black" stroke="black" points="176.91,-103.48 180.41,-113.48 183.91,-103.48 176.91,-103.48"/>
</g>
</g>
</svg>
