<?xml version="1.0" encoding="UTF-8" standalone="no"?>
<!DOCTYPE svg PUBLIC "-//W3C//DTD SVG 1.1//EN"
 "http://www.w3.org/Graphics/SVG/1.1/DTD/svg11.dtd">
<!-- Generated by graphviz version 2.40.1 (20161225.0304)
 -->
<!-- Title: dependencies Pages: 1 -->
<svg width="504pt" height="211pt"
 viewBox="0.00 0.00 504.00 211.00" xmlns="http://www.w3.org/2000/svg" xmlns:xlink="http://www.w3.org/1999/xlink">
<g id="graph0" class="graph" transform="scale(1 1) rotate(0) translate(4 207)">
<title>dependencies</title>
<polygon fill="#ffffff" stroke="transparent" points="-4,4 -4,-207 500,-207 500,4 -4,4"/>
<text text-anchor="start" x="227.0091" y="-42.4" font-family="sans-serif" font-weight="bold" font-size="14.00" fill="#000000">Legend</text>
<polygon fill="#ffffb3" stroke="transparent" points="14,-10 14,-30 34,-30 34,-10 14,-10"/>
<text text-anchor="start" x="37.629" y="-15.4" font-family="sans-serif" font-size="14.00" fill="#000000"> &#160;Declarations</text>
<polygon fill="#8dd3c7" stroke="transparent" points="127,-10 127,-30 147,-30 147,-10 127,-10"/>
<text text-anchor="start" x="150.7251" y="-15.4" font-family="sans-serif" font-size="14.00" fill="#000000"> &#160;Module</text>
<polygon fill="#80b1d3" stroke="transparent" points="213,-10 213,-30 233,-30 233,-10 213,-10"/>
<text text-anchor="start" x="236.7812" y="-15.4" font-family="sans-serif" font-size="14.00" fill="#000000"> &#160;Bootstrap</text>
<polygon fill="#fdb462" stroke="transparent" points="310,-10 310,-30 330,-30 330,-10 310,-10"/>
<text text-anchor="start" x="333.6732" y="-15.4" font-family="sans-serif" font-size="14.00" fill="#000000"> &#160;Providers</text>
<polygon fill="#fb8072" stroke="transparent" points="406,-10 406,-30 426,-30 426,-10 406,-10"/>
<text text-anchor="start" x="429.7258" y="-15.4" font-family="sans-serif" font-size="14.00" fill="#000000"> &#160;Exports</text>
<g id="clust1" class="cluster">
<title>cluster_NotificationModule</title>
<polygon fill="none" stroke="#000000" stroke-dasharray="1,5" points="29,-70 29,-195 467,-195 467,-70 29,-70"/>
</g>
<g id="clust6" class="cluster">
<title>cluster_NotificationModule_providers</title>
<polygon fill="none" stroke="#000000" points="37,-78 37,-130 459,-130 459,-78 37,-78"/>
</g>
<!-- NotificationsInterceptor -->
<g id="node1" class="node">
<title>NotificationsInterceptor</title>
<ellipse fill="#fdb462" stroke="#000000" cx="347" cy="-104" rx="103.6257" ry="18"/>
<text text-anchor="middle" x="347" y="-99.8" font-family="Times,serif" font-size="14.00" fill="#000000">NotificationsInterceptor</text>
</g>
<!-- NotificationModule -->
<g id="node3" class="node">
<title>NotificationModule</title>
<polygon fill="#8dd3c7" stroke="#000000" points="304.6994,-187 301.6994,-191 280.6994,-191 277.6994,-187 177.3006,-187 177.3006,-151 304.6994,-151 304.6994,-187"/>
<text text-anchor="middle" x="241" y="-164.8" font-family="Times,serif" font-size="14.00" fill="#000000">NotificationModule</text>
</g>
<!-- NotificationsInterceptor&#45;&gt;NotificationModule -->
<g id="edge1" class="edge">
<title>NotificationsInterceptor&#45;&gt;NotificationModule</title>
<path fill="none" stroke="#000000" d="M273.8934,-116.8419C273.8934,-116.8419 273.8934,-140.5231 273.8934,-140.5231"/>
<polygon fill="#000000" stroke="#000000" points="270.3935,-140.523 273.8934,-150.5231 277.3935,-140.5231 270.3935,-140.523"/>
</g>
<!-- NotificationsService -->
<g id="node2" class="node">
<title>NotificationsService</title>
<ellipse fill="#fdb462" stroke="#000000" cx="135" cy="-104" rx="90.3217" ry="18"/>
<text text-anchor="middle" x="135" y="-99.8" font-family="Times,serif" font-size="14.00" fill="#000000">NotificationsService</text>
</g>
<!-- NotificationsService&#45;&gt;NotificationModule -->
<g id="edge2" class="edge">
<title>NotificationsService&#45;&gt;NotificationModule</title>
<path fill="none" stroke="#000000" d="M201.4056,-116.226C201.4056,-116.226 201.4056,-140.683 201.4056,-140.683"/>
<polygon fill="#000000" stroke="#000000" points="197.9057,-140.683 201.4056,-150.683 204.9057,-140.683 197.9057,-140.683"/>
</g>
</g>
</svg>
