<?xml version="1.0" encoding="UTF-8" standalone="no"?>
<!DOCTYPE svg PUBLIC "-//W3C//DTD SVG 1.1//EN"
 "http://www.w3.org/Graphics/SVG/1.1/DTD/svg11.dtd">
<!-- Generated by graphviz version 2.47.3 (20210619.1520)
 -->
<!-- Title: dependencies Pages: 1 -->
<svg width="549pt" height="247pt"
 viewBox="0.00 0.00 549.00 246.80" xmlns="http://www.w3.org/2000/svg" xmlns:xlink="http://www.w3.org/1999/xlink">
<g id="graph0" class="graph" transform="scale(1 1) rotate(0) translate(4 242.8)">
<title>dependencies</title>
<polygon fill="white" stroke="transparent" points="-4,4 -4,-242.8 545,-242.8 545,4 -4,4"/>
<text text-anchor="middle" x="270.5" y="-8.2" font-family="sans-serif" font-size="14.00">dependencies</text>
<g id="clust1" class="cluster">
<title>cluster_FinanceModule</title>
<polygon fill="none" stroke="black" stroke-dasharray="1,5" points="8,-32.8 8,-230.8 533,-230.8 533,-32.8 8,-32.8"/>
</g>
<g id="clust5" class="cluster">
<title>cluster_FinanceModule_imports</title>
<polygon fill="none" stroke="black" points="385,-40.8 385,-92.8 525,-92.8 525,-40.8 385,-40.8"/>
</g>
<g id="clust2" class="cluster">
<title>cluster_FinanceModule_declarations</title>
<polygon fill="none" stroke="black" points="16,-40.8 16,-92.8 377,-92.8 377,-40.8 16,-40.8"/>
</g>
<g id="clust6" class="cluster">
<title>cluster_FinanceModule_exports</title>
<polygon fill="none" stroke="black" points="87,-170.8 87,-222.8 455,-222.8 455,-170.8 87,-170.8"/>
</g>
<!-- MoneyCloudComponent -->
<g id="node1" class="node">
<title>MoneyCloudComponent</title>
<polygon fill="#ffffb3" stroke="black" points="368.72,-84.8 213.28,-84.8 213.28,-48.8 368.72,-48.8 368.72,-84.8"/>
<text text-anchor="middle" x="291" y="-62.6" font-family="Times,serif" font-size="14.00">MoneyCloudComponent</text>
</g>
<!-- FinanceModule -->
<g id="node3" class="node">
<title>FinanceModule</title>
<polygon fill="#8dd3c7" stroke="black" points="342.87,-149.8 339.87,-153.8 318.87,-153.8 315.87,-149.8 239.13,-149.8 239.13,-113.8 342.87,-113.8 342.87,-149.8"/>
<text text-anchor="middle" x="291" y="-127.6" font-family="Times,serif" font-size="14.00">FinanceModule</text>
</g>
<!-- MoneyCloudComponent&#45;&gt;FinanceModule -->
<g id="edge1" class="edge">
<title>MoneyCloudComponent&#45;&gt;FinanceModule</title>
<path fill="none" stroke="black" d="M291,-84.91C291,-84.91 291,-103.79 291,-103.79"/>
<polygon fill="black" stroke="black" points="287.5,-103.79 291,-113.79 294.5,-103.79 287.5,-103.79"/>
</g>
<!-- MoneyTimelineComponent -->
<g id="node2" class="node">
<title>MoneyTimelineComponent</title>
<polygon fill="#ffffb3" stroke="black" points="195.54,-84.8 24.46,-84.8 24.46,-48.8 195.54,-48.8 195.54,-84.8"/>
<text text-anchor="middle" x="110" y="-62.6" font-family="Times,serif" font-size="14.00">MoneyTimelineComponent</text>
</g>
<!-- MoneyTimelineComponent&#45;&gt;FinanceModule -->
<g id="edge2" class="edge">
<title>MoneyTimelineComponent&#45;&gt;FinanceModule</title>
<path fill="none" stroke="black" d="M145.62,-84.91C145.62,-104.14 145.62,-131.8 145.62,-131.8 145.62,-131.8 228.93,-131.8 228.93,-131.8"/>
<polygon fill="black" stroke="black" points="228.93,-135.3 238.93,-131.8 228.93,-128.3 228.93,-135.3"/>
</g>
<!-- MoneyCloudComponent  -->
<g id="node5" class="node">
<title>MoneyCloudComponent </title>
<polygon fill="#fb8072" stroke="black" points="447.22,-214.8 288.78,-214.8 288.78,-178.8 447.22,-178.8 447.22,-214.8"/>
<text text-anchor="middle" x="368" y="-192.6" font-family="Times,serif" font-size="14.00">MoneyCloudComponent </text>
</g>
<!-- FinanceModule&#45;&gt;MoneyCloudComponent  -->
<g id="edge4" class="edge">
<title>FinanceModule&#45;&gt;MoneyCloudComponent </title>
<path fill="none" stroke="black" stroke-dasharray="5,2" d="M315.79,-149.91C315.79,-149.91 315.79,-168.79 315.79,-168.79"/>
<polygon fill="black" stroke="black" points="312.29,-168.79 315.79,-178.79 319.29,-168.79 312.29,-168.79"/>
</g>
<!-- MoneyTimelineComponent  -->
<g id="node6" class="node">
<title>MoneyTimelineComponent </title>
<polygon fill="#fb8072" stroke="black" points="270.54,-214.8 95.46,-214.8 95.46,-178.8 270.54,-178.8 270.54,-214.8"/>
<text text-anchor="middle" x="183" y="-192.6" font-family="Times,serif" font-size="14.00">MoneyTimelineComponent </text>
</g>
<!-- FinanceModule&#45;&gt;MoneyTimelineComponent  -->
<g id="edge5" class="edge">
<title>FinanceModule&#45;&gt;MoneyTimelineComponent </title>
<path fill="none" stroke="black" stroke-dasharray="5,2" d="M254.79,-149.91C254.79,-149.91 254.79,-168.79 254.79,-168.79"/>
<polygon fill="black" stroke="black" points="251.29,-168.79 254.79,-178.79 258.29,-168.79 251.29,-168.79"/>
</g>
<!-- BsHeatmapModule -->
<g id="node4" class="node">
<title>BsHeatmapModule</title>
<polygon fill="#8dd3c7" stroke="black" points="517.36,-84.8 514.36,-88.8 493.36,-88.8 490.36,-84.8 392.64,-84.8 392.64,-48.8 517.36,-48.8 517.36,-84.8"/>
<text text-anchor="middle" x="455" y="-62.6" font-family="Times,serif" font-size="14.00">BsHeatmapModule</text>
</g>
<!-- BsHeatmapModule&#45;&gt;FinanceModule -->
<g id="edge3" class="edge">
<title>BsHeatmapModule&#45;&gt;FinanceModule</title>
<path fill="none" stroke="black" d="M419.96,-84.91C419.96,-104.14 419.96,-131.8 419.96,-131.8 419.96,-131.8 353.08,-131.8 353.08,-131.8"/>
<polygon fill="black" stroke="black" points="353.08,-128.3 343.08,-131.8 353.08,-135.3 353.08,-128.3"/>
</g>
</g>
</svg>
