<?xml version="1.0" encoding="UTF-8" standalone="no"?>
<!DOCTYPE svg PUBLIC "-//W3C//DTD SVG 1.1//EN"
 "http://www.w3.org/Graphics/SVG/1.1/DTD/svg11.dtd">
<!-- Generated by graphviz version 2.40.1 (20161225.0304)
 -->
<!-- Title: dependencies Pages: 1 -->
<svg width="549pt" height="284pt"
 viewBox="0.00 0.00 549.00 284.00" xmlns="http://www.w3.org/2000/svg" xmlns:xlink="http://www.w3.org/1999/xlink">
<g id="graph0" class="graph" transform="scale(1 1) rotate(0) translate(4 280)">
<title>dependencies</title>
<polygon fill="#ffffff" stroke="transparent" points="-4,4 -4,-280 545,-280 545,4 -4,4"/>
<text text-anchor="start" x="249.5091" y="-42.4" font-family="sans-serif" font-weight="bold" font-size="14.00" fill="#000000">Legend</text>
<polygon fill="#ffffb3" stroke="transparent" points="36.5,-10 36.5,-30 56.5,-30 56.5,-10 36.5,-10"/>
<text text-anchor="start" x="60.129" y="-15.4" font-family="sans-serif" font-size="14.00" fill="#000000"> &#160;Declarations</text>
<polygon fill="#8dd3c7" stroke="transparent" points="149.5,-10 149.5,-30 169.5,-30 169.5,-10 149.5,-10"/>
<text text-anchor="start" x="173.2251" y="-15.4" font-family="sans-serif" font-size="14.00" fill="#000000"> &#160;Module</text>
<polygon fill="#80b1d3" stroke="transparent" points="235.5,-10 235.5,-30 255.5,-30 255.5,-10 235.5,-10"/>
<text text-anchor="start" x="259.2812" y="-15.4" font-family="sans-serif" font-size="14.00" fill="#000000"> &#160;Bootstrap</text>
<polygon fill="#fdb462" stroke="transparent" points="332.5,-10 332.5,-30 352.5,-30 352.5,-10 332.5,-10"/>
<text text-anchor="start" x="356.1732" y="-15.4" font-family="sans-serif" font-size="14.00" fill="#000000"> &#160;Providers</text>
<polygon fill="#fb8072" stroke="transparent" points="428.5,-10 428.5,-30 448.5,-30 448.5,-10 428.5,-10"/>
<text text-anchor="start" x="452.2258" y="-15.4" font-family="sans-serif" font-size="14.00" fill="#000000"> &#160;Exports</text>
<g id="clust1" class="cluster">
<title>cluster_FinanceModule</title>
<polygon fill="none" stroke="#000000" stroke-dasharray="1,5" points="8,-70 8,-268 533,-268 533,-70 8,-70"/>
</g>
<g id="clust2" class="cluster">
<title>cluster_FinanceModule_declarations</title>
<polygon fill="none" stroke="#000000" points="164,-78 164,-130 525,-130 525,-78 164,-78"/>
</g>
<g id="clust5" class="cluster">
<title>cluster_FinanceModule_imports</title>
<polygon fill="none" stroke="#000000" points="16,-78 16,-130 156,-130 156,-78 16,-78"/>
</g>
<g id="clust6" class="cluster">
<title>cluster_FinanceModule_exports</title>
<polygon fill="none" stroke="#000000" points="87,-208 87,-260 455,-260 455,-208 87,-208"/>
</g>
<!-- MoneyCloudComponent -->
<g id="node1" class="node">
<title>MoneyCloudComponent</title>
<polygon fill="#ffffb3" stroke="#000000" points="516.719,-122 361.281,-122 361.281,-86 516.719,-86 516.719,-122"/>
<text text-anchor="middle" x="439" y="-99.8" font-family="Times,serif" font-size="14.00" fill="#000000">MoneyCloudComponent</text>
</g>
<!-- FinanceModule -->
<g id="node3" class="node">
<title>FinanceModule</title>
<polygon fill="#8dd3c7" stroke="#000000" points="309.8669,-187 306.8669,-191 285.8669,-191 282.8669,-187 206.1331,-187 206.1331,-151 309.8669,-151 309.8669,-187"/>
<text text-anchor="middle" x="258" y="-164.8" font-family="Times,serif" font-size="14.00" fill="#000000">FinanceModule</text>
</g>
<!-- MoneyCloudComponent&#45;&gt;FinanceModule -->
<g id="edge1" class="edge">
<title>MoneyCloudComponent&#45;&gt;FinanceModule</title>
<path fill="none" stroke="#000000" d="M404.375,-122.1061C404.375,-141.3391 404.375,-169 404.375,-169 404.375,-169 320.0185,-169 320.0185,-169"/>
<polygon fill="#000000" stroke="#000000" points="320.0185,-165.5001 310.0185,-169 320.0185,-172.5001 320.0185,-165.5001"/>
</g>
<!-- MoneyTimelineComponent -->
<g id="node2" class="node">
<title>MoneyTimelineComponent</title>
<polygon fill="#ffffb3" stroke="#000000" points="343.5364,-122 172.4636,-122 172.4636,-86 343.5364,-86 343.5364,-122"/>
<text text-anchor="middle" x="258" y="-99.8" font-family="Times,serif" font-size="14.00" fill="#000000">MoneyTimelineComponent</text>
</g>
<!-- MoneyTimelineComponent&#45;&gt;FinanceModule -->
<g id="edge2" class="edge">
<title>MoneyTimelineComponent&#45;&gt;FinanceModule</title>
<path fill="none" stroke="#000000" d="M258,-122.1061C258,-122.1061 258,-140.991 258,-140.991"/>
<polygon fill="#000000" stroke="#000000" points="254.5001,-140.9909 258,-150.991 261.5001,-140.991 254.5001,-140.9909"/>
</g>
<!-- MoneyCloudComponent  -->
<g id="node5" class="node">
<title>MoneyCloudComponent </title>
<polygon fill="#fb8072" stroke="#000000" points="447.219,-252 288.781,-252 288.781,-216 447.219,-216 447.219,-252"/>
<text text-anchor="middle" x="368" y="-229.8" font-family="Times,serif" font-size="14.00" fill="#000000">MoneyCloudComponent </text>
</g>
<!-- FinanceModule&#45;&gt;MoneyCloudComponent  -->
<g id="edge4" class="edge">
<title>FinanceModule&#45;&gt;MoneyCloudComponent </title>
<path fill="none" stroke="#000000" stroke-dasharray="5,2" d="M299.287,-187.1061C299.287,-187.1061 299.287,-205.991 299.287,-205.991"/>
<polygon fill="#000000" stroke="#000000" points="295.7871,-205.9909 299.287,-215.991 302.7871,-205.991 295.7871,-205.9909"/>
</g>
<!-- MoneyTimelineComponent  -->
<g id="node6" class="node">
<title>MoneyTimelineComponent </title>
<polygon fill="#fb8072" stroke="#000000" points="270.5358,-252 95.4642,-252 95.4642,-216 270.5358,-216 270.5358,-252"/>
<text text-anchor="middle" x="183" y="-229.8" font-family="Times,serif" font-size="14.00" fill="#000000">MoneyTimelineComponent </text>
</g>
<!-- FinanceModule&#45;&gt;MoneyTimelineComponent  -->
<g id="edge5" class="edge">
<title>FinanceModule&#45;&gt;MoneyTimelineComponent </title>
<path fill="none" stroke="#000000" stroke-dasharray="5,2" d="M238.2923,-187.1061C238.2923,-187.1061 238.2923,-205.991 238.2923,-205.991"/>
<polygon fill="#000000" stroke="#000000" points="234.7923,-205.9909 238.2923,-215.991 241.7923,-205.991 234.7923,-205.9909"/>
</g>
<!-- BsHeatmapModule -->
<g id="node4" class="node">
<title>BsHeatmapModule</title>
<polygon fill="#8dd3c7" stroke="#000000" points="148.3627,-122 145.3627,-126 124.3627,-126 121.3627,-122 23.6373,-122 23.6373,-86 148.3627,-86 148.3627,-122"/>
<text text-anchor="middle" x="86" y="-99.8" font-family="Times,serif" font-size="14.00" fill="#000000">BsHeatmapModule</text>
</g>
<!-- BsHeatmapModule&#45;&gt;FinanceModule -->
<g id="edge3" class="edge">
<title>BsHeatmapModule&#45;&gt;FinanceModule</title>
<path fill="none" stroke="#000000" d="M121.9567,-122.1061C121.9567,-141.3391 121.9567,-169 121.9567,-169 121.9567,-169 195.7912,-169 195.7912,-169"/>
<polygon fill="#000000" stroke="#000000" points="195.7912,-172.5001 205.7912,-169 195.7911,-165.5001 195.7912,-172.5001"/>
</g>
</g>
</svg>
