<?xml version="1.0" encoding="UTF-8" standalone="no"?>
<!DOCTYPE svg PUBLIC "-//W3C//DTD SVG 1.1//EN"
 "http://www.w3.org/Graphics/SVG/1.1/DTD/svg11.dtd">
<!-- Generated by graphviz version 2.40.1 (20161225.0304)
 -->
<!-- Title: dependencies Pages: 1 -->
<svg width="2389pt" height="284pt"
 viewBox="0.00 0.00 2389.00 284.00" xmlns="http://www.w3.org/2000/svg" xmlns:xlink="http://www.w3.org/1999/xlink">
<g id="graph0" class="graph" transform="scale(1 1) rotate(0) translate(4 280)">
<title>dependencies</title>
<polygon fill="#ffffff" stroke="transparent" points="-4,4 -4,-280 2385,-280 2385,4 -4,4"/>
<text text-anchor="start" x="1169.5091" y="-42.4" font-family="sans-serif" font-weight="bold" font-size="14.00" fill="#000000">Legend</text>
<polygon fill="#ffffb3" stroke="transparent" points="956.5,-10 956.5,-30 976.5,-30 976.5,-10 956.5,-10"/>
<text text-anchor="start" x="980.129" y="-15.4" font-family="sans-serif" font-size="14.00" fill="#000000"> &#160;Declarations</text>
<polygon fill="#8dd3c7" stroke="transparent" points="1069.5,-10 1069.5,-30 1089.5,-30 1089.5,-10 1069.5,-10"/>
<text text-anchor="start" x="1093.2251" y="-15.4" font-family="sans-serif" font-size="14.00" fill="#000000"> &#160;Module</text>
<polygon fill="#80b1d3" stroke="transparent" points="1155.5,-10 1155.5,-30 1175.5,-30 1175.5,-10 1155.5,-10"/>
<text text-anchor="start" x="1179.2812" y="-15.4" font-family="sans-serif" font-size="14.00" fill="#000000"> &#160;Bootstrap</text>
<polygon fill="#fdb462" stroke="transparent" points="1252.5,-10 1252.5,-30 1272.5,-30 1272.5,-10 1252.5,-10"/>
<text text-anchor="start" x="1276.1732" y="-15.4" font-family="sans-serif" font-size="14.00" fill="#000000"> &#160;Providers</text>
<polygon fill="#fb8072" stroke="transparent" points="1348.5,-10 1348.5,-30 1368.5,-30 1368.5,-10 1348.5,-10"/>
<text text-anchor="start" x="1372.2258" y="-15.4" font-family="sans-serif" font-size="14.00" fill="#000000"> &#160;Exports</text>
<g id="clust1" class="cluster">
<title>cluster_BsFacetModule</title>
<polygon fill="none" stroke="#000000" stroke-dasharray="1,5" points="8,-70 8,-268 2373,-268 2373,-70 8,-70"/>
</g>
<g id="clust2" class="cluster">
<title>cluster_BsFacetModule_declarations</title>
<polygon fill="none" stroke="#000000" points="685,-78 685,-130 2365,-130 2365,-78 685,-78"/>
</g>
<g id="clust17" class="cluster">
<title>cluster_BsFacetModule_imports</title>
<polygon fill="none" stroke="#000000" points="16,-78 16,-130 677,-130 677,-78 16,-78"/>
</g>
<g id="clust18" class="cluster">
<title>cluster_BsFacetModule_exports</title>
<polygon fill="none" stroke="#000000" points="408,-208 408,-260 1949,-260 1949,-208 408,-208"/>
</g>
<!-- BsChart -->
<g id="node1" class="node">
<title>BsChart</title>
<polygon fill="#ffffb3" stroke="#000000" points="2356.8837,-122 2295.1163,-122 2295.1163,-86 2356.8837,-86 2356.8837,-122"/>
<text text-anchor="middle" x="2326" y="-99.8" font-family="Times,serif" font-size="14.00" fill="#000000">BsChart</text>
</g>
<!-- BsFacetModule -->
<g id="node15" class="node">
<title>BsFacetModule</title>
<polygon fill="#8dd3c7" stroke="#000000" points="1280.1486,-187 1277.1486,-191 1256.1486,-191 1253.1486,-187 1175.8514,-187 1175.8514,-151 1280.1486,-151 1280.1486,-187"/>
<text text-anchor="middle" x="1228" y="-164.8" font-family="Times,serif" font-size="14.00" fill="#000000">BsFacetModule</text>
</g>
<!-- BsChart&#45;&gt;BsFacetModule -->
<g id="edge1" class="edge">
<title>BsChart&#45;&gt;BsFacetModule</title>
<path fill="none" stroke="#000000" d="M2326,-122.308C2326,-142.1455 2326,-171 2326,-171 2326,-171 1290.2202,-171 1290.2202,-171"/>
<polygon fill="#000000" stroke="#000000" points="1290.2202,-167.5001 1280.2202,-171 1290.2201,-174.5001 1290.2202,-167.5001"/>
</g>
<!-- BsFacetBar -->
<g id="node2" class="node">
<title>BsFacetBar</title>
<polygon fill="#ffffb3" stroke="#000000" points="2276.8106,-122 2195.1894,-122 2195.1894,-86 2276.8106,-86 2276.8106,-122"/>
<text text-anchor="middle" x="2236" y="-99.8" font-family="Times,serif" font-size="14.00" fill="#000000">BsFacetBar</text>
</g>
<!-- BsFacetBar&#45;&gt;BsFacetModule -->
<g id="edge2" class="edge">
<title>BsFacetBar&#45;&gt;BsFacetModule</title>
<path fill="none" stroke="#000000" d="M2236,-122.1686C2236,-141.0898 2236,-168 2236,-168 2236,-168 1290.423,-168 1290.423,-168"/>
<polygon fill="#000000" stroke="#000000" points="1290.4231,-164.5001 1280.423,-168 1290.423,-171.5001 1290.4231,-164.5001"/>
</g>
<!-- BsFacetCard -->
<g id="node3" class="node">
<title>BsFacetCard</title>
<polygon fill="#ffffb3" stroke="#000000" points="2177.3105,-122 2088.6895,-122 2088.6895,-86 2177.3105,-86 2177.3105,-122"/>
<text text-anchor="middle" x="2133" y="-99.8" font-family="Times,serif" font-size="14.00" fill="#000000">BsFacetCard</text>
</g>
<!-- BsFacetCard&#45;&gt;BsFacetModule -->
<g id="edge3" class="edge">
<title>BsFacetCard&#45;&gt;BsFacetModule</title>
<path fill="none" stroke="#000000" d="M2133,-122.2667C2133,-140.5552 2133,-166 2133,-166 2133,-166 1290.2373,-166 1290.2373,-166"/>
<polygon fill="#000000" stroke="#000000" points="1290.2374,-162.5001 1280.2373,-166 1290.2373,-169.5001 1290.2374,-162.5001"/>
</g>
<!-- BsFacetChart -->
<g id="node4" class="node">
<title>BsFacetChart</title>
<polygon fill="#ffffb3" stroke="#000000" points="2071.2008,-122 1978.7992,-122 1978.7992,-86 2071.2008,-86 2071.2008,-122"/>
<text text-anchor="middle" x="2025" y="-99.8" font-family="Times,serif" font-size="14.00" fill="#000000">BsFacetChart</text>
</g>
<!-- BsFacetChart&#45;&gt;BsFacetModule -->
<g id="edge4" class="edge">
<title>BsFacetChart&#45;&gt;BsFacetModule</title>
<path fill="none" stroke="#000000" d="M2025,-122.0225C2025,-139.3734 2025,-163 2025,-163 2025,-163 1290.2934,-163 1290.2934,-163"/>
<polygon fill="#000000" stroke="#000000" points="1290.2934,-159.5001 1280.2934,-163 1290.2934,-166.5001 1290.2934,-159.5001"/>
</g>
<!-- BsFacetFilters -->
<g id="node5" class="node">
<title>BsFacetFilters</title>
<polygon fill="#ffffb3" stroke="#000000" points="1960.3725,-122 1863.6275,-122 1863.6275,-86 1960.3725,-86 1960.3725,-122"/>
<text text-anchor="middle" x="1912" y="-99.8" font-family="Times,serif" font-size="14.00" fill="#000000">BsFacetFilters</text>
</g>
<!-- BsFacetFilters&#45;&gt;BsFacetModule -->
<g id="edge5" class="edge">
<title>BsFacetFilters&#45;&gt;BsFacetModule</title>
<path fill="none" stroke="#000000" d="M1869.436,-122.0352C1869.436,-138.7344 1869.436,-161 1869.436,-161 1869.436,-161 1290.2194,-161 1290.2194,-161"/>
<polygon fill="#000000" stroke="#000000" points="1290.2195,-157.5001 1280.2194,-161 1290.2194,-164.5001 1290.2195,-157.5001"/>
</g>
<!-- BsFacetFiltersBackground -->
<g id="node6" class="node">
<title>BsFacetFiltersBackground</title>
<polygon fill="#ffffb3" stroke="#000000" points="1845.7991,-122 1680.2009,-122 1680.2009,-86 1845.7991,-86 1845.7991,-122"/>
<text text-anchor="middle" x="1763" y="-99.8" font-family="Times,serif" font-size="14.00" fill="#000000">BsFacetFiltersBackground</text>
</g>
<!-- BsFacetFiltersBackground&#45;&gt;BsFacetModule -->
<g id="edge6" class="edge">
<title>BsFacetFiltersBackground&#45;&gt;BsFacetModule</title>
<path fill="none" stroke="#000000" d="M1717.6278,-122.0091C1717.6278,-138.0494 1717.6278,-159 1717.6278,-159 1717.6278,-159 1290.3988,-159 1290.3988,-159"/>
<polygon fill="#000000" stroke="#000000" points="1290.3988,-155.5001 1280.3988,-159 1290.3987,-162.5001 1290.3988,-155.5001"/>
</g>
<!-- BsFacetList -->
<g id="node7" class="node">
<title>BsFacetList</title>
<polygon fill="#ffffb3" stroke="#000000" points="1662.3767,-122 1579.6233,-122 1579.6233,-86 1662.3767,-86 1662.3767,-122"/>
<text text-anchor="middle" x="1621" y="-99.8" font-family="Times,serif" font-size="14.00" fill="#000000">BsFacetList</text>
</g>
<!-- BsFacetList&#45;&gt;BsFacetModule -->
<g id="edge7" class="edge">
<title>BsFacetList&#45;&gt;BsFacetModule</title>
<path fill="none" stroke="#000000" d="M1612.206,-122.1871C1612.206,-137.1824 1612.206,-156 1612.206,-156 1612.206,-156 1290.2156,-156 1290.2156,-156"/>
<polygon fill="#000000" stroke="#000000" points="1290.2156,-152.5001 1280.2156,-156 1290.2155,-159.5001 1290.2156,-152.5001"/>
</g>
<!-- BsFacetMultiComponent -->
<g id="node8" class="node">
<title>BsFacetMultiComponent</title>
<polygon fill="#ffffb3" stroke="#000000" points="1561.5476,-122 1404.4524,-122 1404.4524,-86 1561.5476,-86 1561.5476,-122"/>
<text text-anchor="middle" x="1483" y="-99.8" font-family="Times,serif" font-size="14.00" fill="#000000">BsFacetMultiComponent</text>
</g>
<!-- BsFacetMultiComponent&#45;&gt;BsFacetModule -->
<g id="edge8" class="edge">
<title>BsFacetMultiComponent&#45;&gt;BsFacetModule</title>
<path fill="none" stroke="#000000" d="M1408.7074,-122.0511C1408.7074,-136.373 1408.7074,-154 1408.7074,-154 1408.7074,-154 1290.2681,-154 1290.2681,-154"/>
<polygon fill="#000000" stroke="#000000" points="1290.2681,-150.5001 1280.2681,-154 1290.268,-157.5001 1290.2681,-150.5001"/>
</g>
<!-- BsFacetRange -->
<g id="node9" class="node">
<title>BsFacetRange</title>
<polygon fill="#ffffb3" stroke="#000000" points="1386.3641,-122 1289.6359,-122 1289.6359,-86 1386.3641,-86 1386.3641,-122"/>
<text text-anchor="middle" x="1338" y="-99.8" font-family="Times,serif" font-size="14.00" fill="#000000">BsFacetRange</text>
</g>
<!-- BsFacetRange&#45;&gt;BsFacetModule -->
<g id="edge9" class="edge">
<title>BsFacetRange&#45;&gt;BsFacetModule</title>
<path fill="none" stroke="#000000" d="M1289.3334,-104C1281.4701,-104 1275.8472,-104 1275.8472,-104 1275.8472,-104 1275.8472,-140.8939 1275.8472,-140.8939"/>
<polygon fill="#000000" stroke="#000000" points="1272.3472,-140.8938 1275.8472,-150.8939 1279.3472,-140.8939 1272.3472,-140.8938"/>
</g>
<!-- BsFacetTree -->
<g id="node10" class="node">
<title>BsFacetTree</title>
<polygon fill="#ffffb3" stroke="#000000" points="1271.241,-122 1184.759,-122 1184.759,-86 1271.241,-86 1271.241,-122"/>
<text text-anchor="middle" x="1228" y="-99.8" font-family="Times,serif" font-size="14.00" fill="#000000">BsFacetTree</text>
</g>
<!-- BsFacetTree&#45;&gt;BsFacetModule -->
<g id="edge10" class="edge">
<title>BsFacetTree&#45;&gt;BsFacetModule</title>
<path fill="none" stroke="#000000" d="M1228,-122.1061C1228,-122.1061 1228,-140.991 1228,-140.991"/>
<polygon fill="#000000" stroke="#000000" points="1224.5001,-140.9909 1228,-150.991 1231.5001,-140.991 1224.5001,-140.9909"/>
</g>
<!-- BsMySearch -->
<g id="node11" class="node">
<title>BsMySearch</title>
<polygon fill="#ffffb3" stroke="#000000" points="1166.3134,-122 1077.6866,-122 1077.6866,-86 1166.3134,-86 1166.3134,-122"/>
<text text-anchor="middle" x="1122" y="-99.8" font-family="Times,serif" font-size="14.00" fill="#000000">BsMySearch</text>
</g>
<!-- BsMySearch&#45;&gt;BsFacetModule -->
<g id="edge11" class="edge">
<title>BsMySearch&#45;&gt;BsFacetModule</title>
<path fill="none" stroke="#000000" d="M1166.3714,-104C1174.331,-104 1180.1529,-104 1180.1529,-104 1180.1529,-104 1180.1529,-140.8939 1180.1529,-140.8939"/>
<polygon fill="#000000" stroke="#000000" points="1176.6529,-140.8938 1180.1529,-150.8939 1183.6529,-140.8939 1176.6529,-140.8938"/>
</g>
<!-- BsRecentQueries -->
<g id="node12" class="node">
<title>BsRecentQueries</title>
<polygon fill="#ffffb3" stroke="#000000" points="1059.6839,-122 946.3161,-122 946.3161,-86 1059.6839,-86 1059.6839,-122"/>
<text text-anchor="middle" x="1003" y="-99.8" font-family="Times,serif" font-size="14.00" fill="#000000">BsRecentQueries</text>
</g>
<!-- BsRecentQueries&#45;&gt;BsFacetModule -->
<g id="edge12" class="edge">
<title>BsRecentQueries&#45;&gt;BsFacetModule</title>
<path fill="none" stroke="#000000" d="M1044.205,-122.0511C1044.205,-136.373 1044.205,-154 1044.205,-154 1044.205,-154 1165.8233,-154 1165.8233,-154"/>
<polygon fill="#000000" stroke="#000000" points="1165.8234,-157.5001 1175.8233,-154 1165.8233,-150.5001 1165.8234,-157.5001"/>
</g>
<!-- BsRecentQueriesPublic -->
<g id="node13" class="node">
<title>BsRecentQueriesPublic</title>
<polygon fill="#ffffb3" stroke="#000000" points="928.4622,-122 779.5378,-122 779.5378,-86 928.4622,-86 928.4622,-122"/>
<text text-anchor="middle" x="854" y="-99.8" font-family="Times,serif" font-size="14.00" fill="#000000">BsRecentQueriesPublic</text>
</g>
<!-- BsRecentQueriesPublic&#45;&gt;BsFacetModule -->
<g id="edge13" class="edge">
<title>BsRecentQueriesPublic&#45;&gt;BsFacetModule</title>
<path fill="none" stroke="#000000" d="M924.6804,-122.1871C924.6804,-137.1824 924.6804,-156 924.6804,-156 924.6804,-156 1165.512,-156 1165.512,-156"/>
<polygon fill="#000000" stroke="#000000" points="1165.5121,-159.5001 1175.512,-156 1165.512,-152.5001 1165.5121,-159.5001"/>
</g>
<!-- BsRefine -->
<g id="node14" class="node">
<title>BsRefine</title>
<polygon fill="#ffffb3" stroke="#000000" points="761.0983,-122 692.9017,-122 692.9017,-86 761.0983,-86 761.0983,-122"/>
<text text-anchor="middle" x="727" y="-99.8" font-family="Times,serif" font-size="14.00" fill="#000000">BsRefine</text>
</g>
<!-- BsRefine&#45;&gt;BsFacetModule -->
<g id="edge14" class="edge">
<title>BsRefine&#45;&gt;BsFacetModule</title>
<path fill="none" stroke="#000000" d="M727,-122.0091C727,-138.0494 727,-159 727,-159 727,-159 1165.802,-159 1165.802,-159"/>
<polygon fill="#000000" stroke="#000000" points="1165.8021,-162.5001 1175.802,-159 1165.802,-155.5001 1165.8021,-162.5001"/>
</g>
<!-- BsChart  -->
<g id="node21" class="node">
<title>BsChart </title>
<polygon fill="#fb8072" stroke="#000000" points="1940.8847,-252 1875.1153,-252 1875.1153,-216 1940.8847,-216 1940.8847,-252"/>
<text text-anchor="middle" x="1908" y="-229.8" font-family="Times,serif" font-size="14.00" fill="#000000">BsChart </text>
</g>
<!-- BsFacetModule&#45;&gt;BsChart  -->
<g id="edge20" class="edge">
<title>BsFacetModule&#45;&gt;BsChart </title>
<path fill="none" stroke="#000000" stroke-dasharray="5,2" d="M1280.2294,-173C1439.4598,-173 1908,-173 1908,-173 1908,-173 1908,-205.698 1908,-205.698"/>
<polygon fill="#000000" stroke="#000000" points="1904.5001,-205.698 1908,-215.698 1911.5001,-205.698 1904.5001,-205.698"/>
</g>
<!-- BsFacetBar  -->
<g id="node22" class="node">
<title>BsFacetBar </title>
<polygon fill="#fb8072" stroke="#000000" points="1857.3102,-252 1772.6898,-252 1772.6898,-216 1857.3102,-216 1857.3102,-252"/>
<text text-anchor="middle" x="1815" y="-229.8" font-family="Times,serif" font-size="14.00" fill="#000000">BsFacetBar </text>
</g>
<!-- BsFacetModule&#45;&gt;BsFacetBar  -->
<g id="edge21" class="edge">
<title>BsFacetModule&#45;&gt;BsFacetBar </title>
<path fill="none" stroke="#000000" stroke-dasharray="5,2" d="M1280.3386,-175C1423.1818,-175 1809.1222,-175 1809.1222,-175 1809.1222,-175 1809.1222,-205.9775 1809.1222,-205.9775"/>
<polygon fill="#000000" stroke="#000000" points="1805.6223,-205.9774 1809.1222,-215.9775 1812.6223,-205.9775 1805.6223,-205.9774"/>
</g>
<!-- BsFacetCard  -->
<g id="node23" class="node">
<title>BsFacetCard </title>
<polygon fill="#fb8072" stroke="#000000" points="1754.8102,-252 1663.1898,-252 1663.1898,-216 1754.8102,-216 1754.8102,-252"/>
<text text-anchor="middle" x="1709" y="-229.8" font-family="Times,serif" font-size="14.00" fill="#000000">BsFacetCard </text>
</g>
<!-- BsFacetModule&#45;&gt;BsFacetCard  -->
<g id="edge22" class="edge">
<title>BsFacetModule&#45;&gt;BsFacetCard </title>
<path fill="none" stroke="#000000" stroke-dasharray="5,2" d="M1280.2055,-178C1397.5,-178 1671.7228,-178 1671.7228,-178 1671.7228,-178 1671.7228,-205.973 1671.7228,-205.973"/>
<polygon fill="#000000" stroke="#000000" points="1668.2229,-205.973 1671.7228,-215.973 1675.2229,-205.973 1668.2229,-205.973"/>
</g>
<!-- BsFacetChart  -->
<g id="node24" class="node">
<title>BsFacetChart </title>
<polygon fill="#fb8072" stroke="#000000" points="1644.7011,-252 1549.2989,-252 1549.2989,-216 1644.7011,-216 1644.7011,-252"/>
<text text-anchor="middle" x="1597" y="-229.8" font-family="Times,serif" font-size="14.00" fill="#000000">BsFacetChart </text>
</g>
<!-- BsFacetModule&#45;&gt;BsFacetChart  -->
<g id="edge23" class="edge">
<title>BsFacetModule&#45;&gt;BsFacetChart </title>
<path fill="none" stroke="#000000" stroke-dasharray="5,2" d="M1280.2494,-180C1372.7007,-180 1555.4616,-180 1555.4616,-180 1555.4616,-180 1555.4616,-205.7181 1555.4616,-205.7181"/>
<polygon fill="#000000" stroke="#000000" points="1551.9617,-205.718 1555.4616,-215.7181 1558.9617,-205.7181 1551.9617,-205.718"/>
</g>
<!-- BsFacetFilters  -->
<g id="node25" class="node">
<title>BsFacetFilters </title>
<polygon fill="#fb8072" stroke="#000000" points="1531.3731,-252 1430.6269,-252 1430.6269,-216 1531.3731,-216 1531.3731,-252"/>
<text text-anchor="middle" x="1481" y="-229.8" font-family="Times,serif" font-size="14.00" fill="#000000">BsFacetFilters </text>
</g>
<!-- BsFacetModule&#45;&gt;BsFacetFilters  -->
<g id="edge24" class="edge">
<title>BsFacetModule&#45;&gt;BsFacetFilters </title>
<path fill="none" stroke="#000000" stroke-dasharray="5,2" d="M1280.4218,-183C1354.527,-183 1481,-183 1481,-183 1481,-183 1481,-205.8757 1481,-205.8757"/>
<polygon fill="#000000" stroke="#000000" points="1477.5001,-205.8757 1481,-215.8757 1484.5001,-205.8757 1477.5001,-205.8757"/>
</g>
<!-- BsFacetList  -->
<g id="node26" class="node">
<title>BsFacetList </title>
<polygon fill="#fb8072" stroke="#000000" points="1413.3774,-252 1326.6226,-252 1326.6226,-216 1413.3774,-216 1413.3774,-252"/>
<text text-anchor="middle" x="1370" y="-229.8" font-family="Times,serif" font-size="14.00" fill="#000000">BsFacetList </text>
</g>
<!-- BsFacetModule&#45;&gt;BsFacetList  -->
<g id="edge25" class="edge">
<title>BsFacetModule&#45;&gt;BsFacetList </title>
<path fill="none" stroke="#000000" stroke-dasharray="5,2" d="M1280.3154,-185C1315.9251,-185 1356.6219,-185 1356.6219,-185 1356.6219,-185 1356.6219,-205.7542 1356.6219,-205.7542"/>
<polygon fill="#000000" stroke="#000000" points="1353.1219,-205.7542 1356.6219,-215.7542 1360.1219,-205.7542 1353.1219,-205.7542"/>
</g>
<!-- BsFacetMultiComponent  -->
<g id="node27" class="node">
<title>BsFacetMultiComponent </title>
<polygon fill="#fb8072" stroke="#000000" points="1308.547,-252 1147.453,-252 1147.453,-216 1308.547,-216 1308.547,-252"/>
<text text-anchor="middle" x="1228" y="-229.8" font-family="Times,serif" font-size="14.00" fill="#000000">BsFacetMultiComponent </text>
</g>
<!-- BsFacetModule&#45;&gt;BsFacetMultiComponent  -->
<g id="edge26" class="edge">
<title>BsFacetModule&#45;&gt;BsFacetMultiComponent </title>
<path fill="none" stroke="#000000" stroke-dasharray="5,2" d="M1228,-187.1061C1228,-187.1061 1228,-205.991 1228,-205.991"/>
<polygon fill="#000000" stroke="#000000" points="1224.5001,-205.9909 1228,-215.991 1231.5001,-205.991 1224.5001,-205.9909"/>
</g>
<!-- BsFacetRange  -->
<g id="node28" class="node">
<title>BsFacetRange </title>
<polygon fill="#fb8072" stroke="#000000" points="1129.3647,-252 1028.6353,-252 1028.6353,-216 1129.3647,-216 1129.3647,-252"/>
<text text-anchor="middle" x="1079" y="-229.8" font-family="Times,serif" font-size="14.00" fill="#000000">BsFacetRange </text>
</g>
<!-- BsFacetModule&#45;&gt;BsFacetRange  -->
<g id="edge27" class="edge">
<title>BsFacetModule&#45;&gt;BsFacetRange </title>
<path fill="none" stroke="#000000" stroke-dasharray="5,2" d="M1175.567,-185C1141.5455,-185 1103.5128,-185 1103.5128,-185 1103.5128,-185 1103.5128,-205.7542 1103.5128,-205.7542"/>
<polygon fill="#000000" stroke="#000000" points="1100.0129,-205.7542 1103.5128,-215.7542 1107.0129,-205.7542 1100.0129,-205.7542"/>
</g>
<!-- BsFacetTree  -->
<g id="node29" class="node">
<title>BsFacetTree </title>
<polygon fill="#fb8072" stroke="#000000" points="1011.2409,-252 920.7591,-252 920.7591,-216 1011.2409,-216 1011.2409,-252"/>
<text text-anchor="middle" x="966" y="-229.8" font-family="Times,serif" font-size="14.00" fill="#000000">BsFacetTree </text>
</g>
<!-- BsFacetModule&#45;&gt;BsFacetTree  -->
<g id="edge28" class="edge">
<title>BsFacetModule&#45;&gt;BsFacetTree </title>
<path fill="none" stroke="#000000" stroke-dasharray="5,2" d="M1175.752,-183C1102.6681,-183 978.7642,-183 978.7642,-183 978.7642,-183 978.7642,-205.8757 978.7642,-205.8757"/>
<polygon fill="#000000" stroke="#000000" points="975.2643,-205.8757 978.7642,-215.8757 982.2643,-205.8757 975.2643,-205.8757"/>
</g>
<!-- BsMySearch  -->
<g id="node30" class="node">
<title>BsMySearch </title>
<polygon fill="#fb8072" stroke="#000000" points="902.813,-252 811.187,-252 811.187,-216 902.813,-216 902.813,-252"/>
<text text-anchor="middle" x="857" y="-229.8" font-family="Times,serif" font-size="14.00" fill="#000000">BsMySearch </text>
</g>
<!-- BsFacetModule&#45;&gt;BsMySearch  -->
<g id="edge29" class="edge">
<title>BsFacetModule&#45;&gt;BsMySearch </title>
<path fill="none" stroke="#000000" stroke-dasharray="5,2" d="M1175.6316,-180C1073.3652,-180 857,-180 857,-180 857,-180 857,-205.7181 857,-205.7181"/>
<polygon fill="#000000" stroke="#000000" points="853.5001,-205.718 857,-215.7181 860.5001,-205.7181 853.5001,-205.718"/>
</g>
<!-- BsRecentQueries  -->
<g id="node31" class="node">
<title>BsRecentQueries </title>
<polygon fill="#fb8072" stroke="#000000" points="793.1842,-252 676.8158,-252 676.8158,-216 793.1842,-216 793.1842,-252"/>
<text text-anchor="middle" x="735" y="-229.8" font-family="Times,serif" font-size="14.00" fill="#000000">BsRecentQueries </text>
</g>
<!-- BsFacetModule&#45;&gt;BsRecentQueries  -->
<g id="edge30" class="edge">
<title>BsFacetModule&#45;&gt;BsRecentQueries </title>
<path fill="none" stroke="#000000" stroke-dasharray="5,2" d="M1175.6122,-178C1058.645,-178 786.4304,-178 786.4304,-178 786.4304,-178 786.4304,-205.973 786.4304,-205.973"/>
<polygon fill="#000000" stroke="#000000" points="782.9305,-205.973 786.4304,-215.973 789.9305,-205.973 782.9305,-205.973"/>
</g>
<!-- BsRecentQueriesPublic  -->
<g id="node32" class="node">
<title>BsRecentQueriesPublic </title>
<polygon fill="#fb8072" stroke="#000000" points="658.4629,-252 505.5371,-252 505.5371,-216 658.4629,-216 658.4629,-252"/>
<text text-anchor="middle" x="582" y="-229.8" font-family="Times,serif" font-size="14.00" fill="#000000">BsRecentQueriesPublic </text>
</g>
<!-- BsFacetModule&#45;&gt;BsRecentQueriesPublic  -->
<g id="edge31" class="edge">
<title>BsFacetModule&#45;&gt;BsRecentQueriesPublic </title>
<path fill="none" stroke="#000000" stroke-dasharray="5,2" d="M1175.6319,-175C1026.0394,-175 607.5072,-175 607.5072,-175 607.5072,-175 607.5072,-205.9775 607.5072,-205.9775"/>
<polygon fill="#000000" stroke="#000000" points="604.0073,-205.9774 607.5072,-215.9775 611.0073,-205.9775 604.0073,-205.9774"/>
</g>
<!-- BsRefine  -->
<g id="node33" class="node">
<title>BsRefine </title>
<polygon fill="#fb8072" stroke="#000000" points="487.5993,-252 416.4007,-252 416.4007,-216 487.5993,-216 487.5993,-252"/>
<text text-anchor="middle" x="452" y="-229.8" font-family="Times,serif" font-size="14.00" fill="#000000">BsRefine </text>
</g>
<!-- BsFacetModule&#45;&gt;BsRefine  -->
<g id="edge32" class="edge">
<title>BsFacetModule&#45;&gt;BsRefine </title>
<path fill="none" stroke="#000000" stroke-dasharray="5,2" d="M1175.5764,-173C1001.2529,-173 452,-173 452,-173 452,-173 452,-205.698 452,-205.698"/>
<polygon fill="#000000" stroke="#000000" points="448.5001,-205.698 452,-215.698 455.5001,-205.698 448.5001,-205.698"/>
</g>
<!-- BsActionModule -->
<g id="node16" class="node">
<title>BsActionModule</title>
<polygon fill="#8dd3c7" stroke="#000000" points="669.4342,-122 666.4342,-126 645.4342,-126 642.4342,-122 556.5658,-122 556.5658,-86 669.4342,-86 669.4342,-122"/>
<text text-anchor="middle" x="613" y="-99.8" font-family="Times,serif" font-size="14.00" fill="#000000">BsActionModule</text>
</g>
<!-- BsActionModule&#45;&gt;BsFacetModule -->
<g id="edge15" class="edge">
<title>BsActionModule&#45;&gt;BsFacetModule</title>
<path fill="none" stroke="#000000" d="M663.7239,-122.0352C663.7239,-138.7344 663.7239,-161 663.7239,-161 663.7239,-161 1165.6736,-161 1165.6736,-161"/>
<polygon fill="#000000" stroke="#000000" points="1165.6736,-164.5001 1175.6736,-161 1165.6736,-157.5001 1165.6736,-164.5001"/>
</g>
<!-- BsAutocompleteModule -->
<g id="node17" class="node">
<title>BsAutocompleteModule</title>
<polygon fill="#8dd3c7" stroke="#000000" points="538.6442,-122 535.6442,-126 514.6442,-126 511.6442,-122 385.3558,-122 385.3558,-86 538.6442,-86 538.6442,-122"/>
<text text-anchor="middle" x="462" y="-99.8" font-family="Times,serif" font-size="14.00" fill="#000000">BsAutocompleteModule</text>
</g>
<!-- BsAutocompleteModule&#45;&gt;BsFacetModule -->
<g id="edge16" class="edge">
<title>BsAutocompleteModule&#45;&gt;BsFacetModule</title>
<path fill="none" stroke="#000000" d="M522.2954,-122.0225C522.2954,-139.3734 522.2954,-163 522.2954,-163 522.2954,-163 1165.8213,-163 1165.8213,-163"/>
<polygon fill="#000000" stroke="#000000" points="1165.8213,-166.5001 1175.8213,-163 1165.8212,-159.5001 1165.8213,-166.5001"/>
</g>
<!-- BsSearchModule -->
<g id="node18" class="node">
<title>BsSearchModule</title>
<polygon fill="#8dd3c7" stroke="#000000" points="367.4188,-122 364.4188,-126 343.4188,-126 340.4188,-122 254.5812,-122 254.5812,-86 367.4188,-86 367.4188,-122"/>
<text text-anchor="middle" x="311" y="-99.8" font-family="Times,serif" font-size="14.00" fill="#000000">BsSearchModule</text>
</g>
<!-- BsSearchModule&#45;&gt;BsFacetModule -->
<g id="edge17" class="edge">
<title>BsSearchModule&#45;&gt;BsFacetModule</title>
<path fill="none" stroke="#000000" d="M311,-122.2667C311,-140.5552 311,-166 311,-166 311,-166 1165.7381,-166 1165.7381,-166"/>
<polygon fill="#000000" stroke="#000000" points="1165.7381,-169.5001 1175.7381,-166 1165.738,-162.5001 1165.7381,-169.5001"/>
</g>
<!-- CollapseModule -->
<g id="node19" class="node">
<title>CollapseModule</title>
<polygon fill="#8dd3c7" stroke="#000000" points="237.0424,-122 234.0424,-126 213.0424,-126 210.0424,-122 128.9576,-122 128.9576,-86 237.0424,-86 237.0424,-122"/>
<text text-anchor="middle" x="183" y="-99.8" font-family="Times,serif" font-size="14.00" fill="#000000">CollapseModule</text>
</g>
<!-- CollapseModule&#45;&gt;BsFacetModule -->
<g id="edge18" class="edge">
<title>CollapseModule&#45;&gt;BsFacetModule</title>
<path fill="none" stroke="#000000" d="M183,-122.1686C183,-141.0898 183,-168 183,-168 183,-168 1165.8208,-168 1165.8208,-168"/>
<polygon fill="#000000" stroke="#000000" points="1165.8208,-171.5001 1175.8208,-168 1165.8207,-164.5001 1165.8208,-171.5001"/>
</g>
<!-- UtilsModule -->
<g id="node20" class="node">
<title>UtilsModule</title>
<polygon fill="#8dd3c7" stroke="#000000" points="110.2731,-122 107.2731,-126 86.2731,-126 83.2731,-122 23.7269,-122 23.7269,-86 110.2731,-86 110.2731,-122"/>
<text text-anchor="middle" x="67" y="-99.8" font-family="Times,serif" font-size="14.00" fill="#000000">UtilsModule</text>
</g>
<!-- UtilsModule&#45;&gt;BsFacetModule -->
<g id="edge19" class="edge">
<title>UtilsModule&#45;&gt;BsFacetModule</title>
<path fill="none" stroke="#000000" d="M67,-122.308C67,-142.1455 67,-171 67,-171 67,-171 1165.4787,-171 1165.4787,-171"/>
<polygon fill="#000000" stroke="#000000" points="1165.4787,-174.5001 1175.4787,-171 1165.4786,-167.5001 1165.4787,-174.5001"/>
</g>
</g>
</svg>
