<?xml version="1.0" encoding="UTF-8" standalone="no"?>
<!DOCTYPE svg PUBLIC "-//W3C//DTD SVG 1.1//EN"
 "http://www.w3.org/Graphics/SVG/1.1/DTD/svg11.dtd">
<!-- Generated by graphviz version 2.47.3 (20210619.1520)
 -->
<!-- Title: dependencies Pages: 1 -->
<svg width="1998pt" height="247pt"
 viewBox="0.00 0.00 1998.00 246.80" xmlns="http://www.w3.org/2000/svg" xmlns:xlink="http://www.w3.org/1999/xlink">
<g id="graph0" class="graph" transform="scale(1 1) rotate(0) translate(4 242.8)">
<title>dependencies</title>
<polygon fill="white" stroke="transparent" points="-4,4 -4,-242.8 1994,-242.8 1994,4 -4,4"/>
<text text-anchor="middle" x="995" y="-8.2" font-family="sans-serif" font-size="14.00">dependencies</text>
<g id="clust1" class="cluster">
<title>cluster_BsFacetModule</title>
<polygon fill="none" stroke="black" stroke-dasharray="1,5" points="8,-32.8 8,-230.8 1982,-230.8 1982,-32.8 8,-32.8"/>
</g>
<g id="clust2" class="cluster">
<title>cluster_BsFacetModule_declarations</title>
<polygon fill="none" stroke="black" points="685,-40.8 685,-92.8 1974,-92.8 1974,-40.8 685,-40.8"/>
</g>
<g id="clust14" class="cluster">
<title>cluster_BsFacetModule_imports</title>
<polygon fill="none" stroke="black" points="16,-40.8 16,-92.8 677,-92.8 677,-40.8 16,-40.8"/>
</g>
<g id="clust15" class="cluster">
<title>cluster_BsFacetModule_exports</title>
<polygon fill="none" stroke="black" points="368,-170.8 368,-222.8 1694,-222.8 1694,-170.8 368,-170.8"/>
</g>
<!-- BsFacetBar -->
<g id="node1" class="node">
<title>BsFacetBar</title>
<polygon fill="#ffffb3" stroke="black" points="1965.81,-84.8 1884.19,-84.8 1884.19,-48.8 1965.81,-48.8 1965.81,-84.8"/>
<text text-anchor="middle" x="1925" y="-62.6" font-family="Times,serif" font-size="14.00">BsFacetBar</text>
</g>
<!-- BsFacetModule -->
<g id="node12" class="node">
<title>BsFacetModule</title>
<polygon fill="#8dd3c7" stroke="black" points="1074.15,-149.8 1071.15,-153.8 1050.15,-153.8 1047.15,-149.8 969.85,-149.8 969.85,-113.8 1074.15,-113.8 1074.15,-149.8"/>
<text text-anchor="middle" x="1022" y="-127.6" font-family="Times,serif" font-size="14.00">BsFacetModule</text>
</g>
<!-- BsFacetBar&#45;&gt;BsFacetModule -->
<g id="edge1" class="edge">
<title>BsFacetBar&#45;&gt;BsFacetModule</title>
<path fill="none" stroke="black" d="M1925,-85.11C1925,-104.95 1925,-133.8 1925,-133.8 1925,-133.8 1084.45,-133.8 1084.45,-133.8"/>
<polygon fill="black" stroke="black" points="1084.45,-130.3 1074.45,-133.8 1084.45,-137.3 1084.45,-130.3"/>
</g>
<!-- BsFacetCard -->
<g id="node2" class="node">
<title>BsFacetCard</title>
<polygon fill="#ffffb3" stroke="black" points="1866.31,-84.8 1777.69,-84.8 1777.69,-48.8 1866.31,-48.8 1866.31,-84.8"/>
<text text-anchor="middle" x="1822" y="-62.6" font-family="Times,serif" font-size="14.00">BsFacetCard</text>
</g>
<!-- BsFacetCard&#45;&gt;BsFacetModule -->
<g id="edge2" class="edge">
<title>BsFacetCard&#45;&gt;BsFacetModule</title>
<path fill="none" stroke="black" d="M1822,-84.97C1822,-103.89 1822,-130.8 1822,-130.8 1822,-130.8 1084.18,-130.8 1084.18,-130.8"/>
<polygon fill="black" stroke="black" points="1084.18,-127.3 1074.18,-130.8 1084.18,-134.3 1084.18,-127.3"/>
</g>
<!-- BsFacetFilters -->
<g id="node3" class="node">
<title>BsFacetFilters</title>
<polygon fill="#ffffb3" stroke="black" points="1759.37,-84.8 1662.63,-84.8 1662.63,-48.8 1759.37,-48.8 1759.37,-84.8"/>
<text text-anchor="middle" x="1711" y="-62.6" font-family="Times,serif" font-size="14.00">BsFacetFilters</text>
</g>
<!-- BsFacetFilters&#45;&gt;BsFacetModule -->
<g id="edge3" class="edge">
<title>BsFacetFilters&#45;&gt;BsFacetModule</title>
<path fill="none" stroke="black" d="M1674.48,-85.1C1674.48,-103.07 1674.48,-127.8 1674.48,-127.8 1674.48,-127.8 1084.29,-127.8 1084.29,-127.8"/>
<polygon fill="black" stroke="black" points="1084.29,-124.3 1074.29,-127.8 1084.29,-131.3 1084.29,-124.3"/>
</g>
<!-- BsFacetList -->
<g id="node4" class="node">
<title>BsFacetList</title>
<polygon fill="#ffffb3" stroke="black" points="1644.38,-84.8 1561.62,-84.8 1561.62,-48.8 1644.38,-48.8 1644.38,-84.8"/>
<text text-anchor="middle" x="1603" y="-62.6" font-family="Times,serif" font-size="14.00">BsFacetList</text>
</g>
<!-- BsFacetList&#45;&gt;BsFacetModule -->
<g id="edge4" class="edge">
<title>BsFacetList&#45;&gt;BsFacetModule</title>
<path fill="none" stroke="black" d="M1572.73,-84.82C1572.73,-102.17 1572.73,-125.8 1572.73,-125.8 1572.73,-125.8 1084.31,-125.8 1084.31,-125.8"/>
<polygon fill="black" stroke="black" points="1084.31,-122.3 1074.31,-125.8 1084.31,-129.3 1084.31,-122.3"/>
</g>
<!-- BsFacetMultiComponent -->
<g id="node5" class="node">
<title>BsFacetMultiComponent</title>
<polygon fill="#ffffb3" stroke="black" points="1543.55,-84.8 1386.45,-84.8 1386.45,-48.8 1543.55,-48.8 1543.55,-84.8"/>
<text text-anchor="middle" x="1465" y="-62.6" font-family="Times,serif" font-size="14.00">BsFacetMultiComponent</text>
</g>
<!-- BsFacetMultiComponent&#45;&gt;BsFacetModule -->
<g id="edge5" class="edge">
<title>BsFacetMultiComponent&#45;&gt;BsFacetModule</title>
<path fill="none" stroke="black" d="M1430.21,-84.83C1430.21,-101.2 1430.21,-122.8 1430.21,-122.8 1430.21,-122.8 1084.53,-122.8 1084.53,-122.8"/>
<polygon fill="black" stroke="black" points="1084.53,-119.3 1074.53,-122.8 1084.53,-126.3 1084.53,-119.3"/>
</g>
<!-- BsFacetRange -->
<g id="node6" class="node">
<title>BsFacetRange</title>
<polygon fill="#ffffb3" stroke="black" points="1368.36,-84.8 1271.64,-84.8 1271.64,-48.8 1368.36,-48.8 1368.36,-84.8"/>
<text text-anchor="middle" x="1320" y="-62.6" font-family="Times,serif" font-size="14.00">BsFacetRange</text>
</g>
<!-- BsFacetRange&#45;&gt;BsFacetModule -->
<g id="edge6" class="edge">
<title>BsFacetRange&#45;&gt;BsFacetModule</title>
<path fill="none" stroke="black" d="M1299.77,-85.04C1299.77,-100.37 1299.77,-119.8 1299.77,-119.8 1299.77,-119.8 1084.25,-119.8 1084.25,-119.8"/>
<polygon fill="black" stroke="black" points="1084.25,-116.3 1074.25,-119.8 1084.25,-123.3 1084.25,-116.3"/>
</g>
<!-- BsFacetTagCloud -->
<g id="node7" class="node">
<title>BsFacetTagCloud</title>
<polygon fill="#ffffb3" stroke="black" points="1253.59,-84.8 1136.41,-84.8 1136.41,-48.8 1253.59,-48.8 1253.59,-84.8"/>
<text text-anchor="middle" x="1195" y="-62.6" font-family="Times,serif" font-size="14.00">BsFacetTagCloud</text>
</g>
<!-- BsFacetTagCloud&#45;&gt;BsFacetModule -->
<g id="edge7" class="edge">
<title>BsFacetTagCloud&#45;&gt;BsFacetModule</title>
<path fill="none" stroke="black" d="M1193.99,-84.85C1193.99,-99.17 1193.99,-116.8 1193.99,-116.8 1193.99,-116.8 1084.54,-116.8 1084.54,-116.8"/>
<polygon fill="black" stroke="black" points="1084.54,-113.3 1074.54,-116.8 1084.54,-120.3 1084.54,-113.3"/>
</g>
<!-- BsFacetTree -->
<g id="node8" class="node">
<title>BsFacetTree</title>
<polygon fill="#ffffb3" stroke="black" points="1118.24,-84.8 1031.76,-84.8 1031.76,-48.8 1118.24,-48.8 1118.24,-84.8"/>
<text text-anchor="middle" x="1075" y="-62.6" font-family="Times,serif" font-size="14.00">BsFacetTree</text>
</g>
<!-- BsFacetTree&#45;&gt;BsFacetModule -->
<g id="edge8" class="edge">
<title>BsFacetTree&#45;&gt;BsFacetModule</title>
<path fill="none" stroke="black" d="M1052.98,-84.91C1052.98,-84.91 1052.98,-103.79 1052.98,-103.79"/>
<polygon fill="black" stroke="black" points="1049.48,-103.79 1052.98,-113.79 1056.48,-103.79 1049.48,-103.79"/>
</g>
<!-- BsMySearch -->
<g id="node9" class="node">
<title>BsMySearch</title>
<polygon fill="#ffffb3" stroke="black" points="1013.31,-84.8 924.69,-84.8 924.69,-48.8 1013.31,-48.8 1013.31,-84.8"/>
<text text-anchor="middle" x="969" y="-62.6" font-family="Times,serif" font-size="14.00">BsMySearch</text>
</g>
<!-- BsMySearch&#45;&gt;BsFacetModule -->
<g id="edge9" class="edge">
<title>BsMySearch&#45;&gt;BsFacetModule</title>
<path fill="none" stroke="black" d="M991.42,-84.91C991.42,-84.91 991.42,-103.79 991.42,-103.79"/>
<polygon fill="black" stroke="black" points="987.92,-103.79 991.42,-113.79 994.92,-103.79 987.92,-103.79"/>
</g>
<!-- BsRefine -->
<g id="node10" class="node">
<title>BsRefine</title>
<polygon fill="#ffffb3" stroke="black" points="907.1,-84.8 838.9,-84.8 838.9,-48.8 907.1,-48.8 907.1,-84.8"/>
<text text-anchor="middle" x="873" y="-62.6" font-family="Times,serif" font-size="14.00">BsRefine</text>
</g>
<!-- BsRefine&#45;&gt;BsFacetModule -->
<g id="edge10" class="edge">
<title>BsRefine&#45;&gt;BsFacetModule</title>
<path fill="none" stroke="black" d="M873,-84.85C873,-99.17 873,-116.8 873,-116.8 873,-116.8 959.47,-116.8 959.47,-116.8"/>
<polygon fill="black" stroke="black" points="959.47,-120.3 969.47,-116.8 959.47,-113.3 959.47,-120.3"/>
</g>
<!-- FacetViewDirective -->
<g id="node11" class="node">
<title>FacetViewDirective</title>
<polygon fill="#ffffb3" stroke="black" points="821.22,-84.8 692.78,-84.8 692.78,-48.8 821.22,-48.8 821.22,-84.8"/>
<text text-anchor="middle" x="757" y="-62.6" font-family="Times,serif" font-size="14.00">FacetViewDirective</text>
</g>
<!-- FacetViewDirective&#45;&gt;BsFacetModule -->
<g id="edge11" class="edge">
<title>FacetViewDirective&#45;&gt;BsFacetModule</title>
<path fill="none" stroke="black" d="M755.96,-85.04C755.96,-100.37 755.96,-119.8 755.96,-119.8 755.96,-119.8 959.76,-119.8 959.76,-119.8"/>
<polygon fill="black" stroke="black" points="959.76,-123.3 969.76,-119.8 959.76,-116.3 959.76,-123.3"/>
</g>
<!-- BsFacetBar  -->
<g id="node18" class="node">
<title>BsFacetBar </title>
<polygon fill="#fb8072" stroke="black" points="1686.31,-214.8 1601.69,-214.8 1601.69,-178.8 1686.31,-178.8 1686.31,-214.8"/>
<text text-anchor="middle" x="1644" y="-192.6" font-family="Times,serif" font-size="14.00">BsFacetBar </text>
</g>
<!-- BsFacetModule&#45;&gt;BsFacetBar  -->
<g id="edge17" class="edge">
<title>BsFacetModule&#45;&gt;BsFacetBar </title>
<path fill="none" stroke="black" stroke-dasharray="5,2" d="M1074.28,-136.8C1220.51,-136.8 1623.02,-136.8 1623.02,-136.8 1623.02,-136.8 1623.02,-168.8 1623.02,-168.8"/>
<polygon fill="black" stroke="black" points="1619.52,-168.8 1623.02,-178.8 1626.52,-168.8 1619.52,-168.8"/>
</g>
<!-- BsFacetCard  -->
<g id="node19" class="node">
<title>BsFacetCard </title>
<polygon fill="#fb8072" stroke="black" points="1583.81,-214.8 1492.19,-214.8 1492.19,-178.8 1583.81,-178.8 1583.81,-214.8"/>
<text text-anchor="middle" x="1538" y="-192.6" font-family="Times,serif" font-size="14.00">BsFacetCard </text>
</g>
<!-- BsFacetModule&#45;&gt;BsFacetCard  -->
<g id="edge18" class="edge">
<title>BsFacetModule&#45;&gt;BsFacetCard </title>
<path fill="none" stroke="black" stroke-dasharray="5,2" d="M1074.6,-138.8C1202.24,-138.8 1517.93,-138.8 1517.93,-138.8 1517.93,-138.8 1517.93,-168.77 1517.93,-168.77"/>
<polygon fill="black" stroke="black" points="1514.43,-168.77 1517.93,-178.77 1521.43,-168.77 1514.43,-168.77"/>
</g>
<!-- BsFacetFilters  -->
<g id="node20" class="node">
<title>BsFacetFilters </title>
<polygon fill="#fb8072" stroke="black" points="1474.37,-214.8 1373.63,-214.8 1373.63,-178.8 1474.37,-178.8 1474.37,-214.8"/>
<text text-anchor="middle" x="1424" y="-192.6" font-family="Times,serif" font-size="14.00">BsFacetFilters </text>
</g>
<!-- BsFacetModule&#45;&gt;BsFacetFilters  -->
<g id="edge19" class="edge">
<title>BsFacetModule&#45;&gt;BsFacetFilters </title>
<path fill="none" stroke="black" stroke-dasharray="5,2" d="M1074.44,-141.8C1173.89,-141.8 1380.02,-141.8 1380.02,-141.8 1380.02,-141.8 1380.02,-168.79 1380.02,-168.79"/>
<polygon fill="black" stroke="black" points="1376.52,-168.79 1380.02,-178.79 1383.52,-168.79 1376.52,-168.79"/>
</g>
<!-- BsFacetList  -->
<g id="node21" class="node">
<title>BsFacetList </title>
<polygon fill="#fb8072" stroke="black" points="1356.38,-214.8 1269.62,-214.8 1269.62,-178.8 1356.38,-178.8 1356.38,-214.8"/>
<text text-anchor="middle" x="1313" y="-192.6" font-family="Times,serif" font-size="14.00">BsFacetList </text>
</g>
<!-- BsFacetModule&#45;&gt;BsFacetList  -->
<g id="edge20" class="edge">
<title>BsFacetModule&#45;&gt;BsFacetList </title>
<path fill="none" stroke="black" stroke-dasharray="5,2" d="M1074.25,-144.8C1161.64,-144.8 1327.98,-144.8 1327.98,-144.8 1327.98,-144.8 1327.98,-168.61 1327.98,-168.61"/>
<polygon fill="black" stroke="black" points="1324.48,-168.61 1327.98,-178.61 1331.48,-168.61 1324.48,-168.61"/>
</g>
<!-- BsFacetMultiComponent  -->
<g id="node22" class="node">
<title>BsFacetMultiComponent </title>
<polygon fill="#fb8072" stroke="black" points="1251.55,-214.8 1090.45,-214.8 1090.45,-178.8 1251.55,-178.8 1251.55,-214.8"/>
<text text-anchor="middle" x="1171" y="-192.6" font-family="Times,serif" font-size="14.00">BsFacetMultiComponent </text>
</g>
<!-- BsFacetModule&#45;&gt;BsFacetMultiComponent  -->
<g id="edge21" class="edge">
<title>BsFacetModule&#45;&gt;BsFacetMultiComponent </title>
<path fill="none" stroke="black" stroke-dasharray="5,2" d="M1074.2,-147.8C1090.56,-147.8 1104.42,-147.8 1104.42,-147.8 1104.42,-147.8 1104.42,-168.55 1104.42,-168.55"/>
<polygon fill="black" stroke="black" points="1100.92,-168.55 1104.42,-178.55 1107.92,-168.55 1100.92,-168.55"/>
</g>
<!-- BsFacetRange  -->
<g id="node23" class="node">
<title>BsFacetRange </title>
<polygon fill="#fb8072" stroke="black" points="1072.36,-214.8 971.64,-214.8 971.64,-178.8 1072.36,-178.8 1072.36,-214.8"/>
<text text-anchor="middle" x="1022" y="-192.6" font-family="Times,serif" font-size="14.00">BsFacetRange </text>
</g>
<!-- BsFacetModule&#45;&gt;BsFacetRange  -->
<g id="edge22" class="edge">
<title>BsFacetModule&#45;&gt;BsFacetRange </title>
<path fill="none" stroke="black" stroke-dasharray="5,2" d="M1022,-149.91C1022,-149.91 1022,-168.79 1022,-168.79"/>
<polygon fill="black" stroke="black" points="1018.5,-168.79 1022,-178.79 1025.5,-168.79 1018.5,-168.79"/>
</g>
<!-- BsFacetTagCloud  -->
<g id="node24" class="node">
<title>BsFacetTagCloud </title>
<polygon fill="#fb8072" stroke="black" points="954.09,-214.8 833.91,-214.8 833.91,-178.8 954.09,-178.8 954.09,-214.8"/>
<text text-anchor="middle" x="894" y="-192.6" font-family="Times,serif" font-size="14.00">BsFacetTagCloud </text>
</g>
<!-- BsFacetModule&#45;&gt;BsFacetTagCloud  -->
<g id="edge23" class="edge">
<title>BsFacetModule&#45;&gt;BsFacetTagCloud </title>
<path fill="none" stroke="black" stroke-dasharray="5,2" d="M969.8,-147.8C953.44,-147.8 939.57,-147.8 939.57,-147.8 939.57,-147.8 939.57,-168.55 939.57,-168.55"/>
<polygon fill="black" stroke="black" points="936.07,-168.55 939.57,-178.55 943.07,-168.55 936.07,-168.55"/>
</g>
<!-- BsFacetTree  -->
<g id="node25" class="node">
<title>BsFacetTree </title>
<polygon fill="#fb8072" stroke="black" points="816.24,-214.8 725.76,-214.8 725.76,-178.8 816.24,-178.8 816.24,-214.8"/>
<text text-anchor="middle" x="771" y="-192.6" font-family="Times,serif" font-size="14.00">BsFacetTree </text>
</g>
<!-- BsFacetModule&#45;&gt;BsFacetTree  -->
<g id="edge24" class="edge">
<title>BsFacetModule&#45;&gt;BsFacetTree </title>
<path fill="none" stroke="black" stroke-dasharray="5,2" d="M969.63,-144.8C900.12,-144.8 786.04,-144.8 786.04,-144.8 786.04,-144.8 786.04,-168.61 786.04,-168.61"/>
<polygon fill="black" stroke="black" points="782.54,-168.61 786.04,-178.61 789.54,-168.61 782.54,-168.61"/>
</g>
<!-- BsMySearch  -->
<g id="node26" class="node">
<title>BsMySearch </title>
<polygon fill="#fb8072" stroke="black" points="707.81,-214.8 616.19,-214.8 616.19,-178.8 707.81,-178.8 707.81,-214.8"/>
<text text-anchor="middle" x="662" y="-192.6" font-family="Times,serif" font-size="14.00">BsMySearch </text>
</g>
<!-- BsFacetModule&#45;&gt;BsMySearch  -->
<g id="edge25" class="edge">
<title>BsFacetModule&#45;&gt;BsMySearch </title>
<path fill="none" stroke="black" stroke-dasharray="5,2" d="M969.59,-141.8C878.43,-141.8 700.27,-141.8 700.27,-141.8 700.27,-141.8 700.27,-168.79 700.27,-168.79"/>
<polygon fill="black" stroke="black" points="696.77,-168.79 700.27,-178.79 703.77,-168.79 696.77,-168.79"/>
</g>
<!-- BsRefine  -->
<g id="node27" class="node">
<title>BsRefine </title>
<polygon fill="#fb8072" stroke="black" points="597.6,-214.8 526.4,-214.8 526.4,-178.8 597.6,-178.8 597.6,-214.8"/>
<text text-anchor="middle" x="562" y="-192.6" font-family="Times,serif" font-size="14.00">BsRefine </text>
</g>
<!-- BsFacetModule&#45;&gt;BsRefine  -->
<g id="edge26" class="edge">
<title>BsFacetModule&#45;&gt;BsRefine </title>
<path fill="none" stroke="black" stroke-dasharray="5,2" d="M969.68,-138.8C852.12,-138.8 577.29,-138.8 577.29,-138.8 577.29,-138.8 577.29,-168.77 577.29,-168.77"/>
<polygon fill="black" stroke="black" points="573.79,-168.77 577.29,-178.77 580.79,-168.77 573.79,-168.77"/>
</g>
<!-- FacetViewDirective  -->
<g id="node28" class="node">
<title>FacetViewDirective </title>
<polygon fill="#fb8072" stroke="black" points="508.22,-214.8 375.78,-214.8 375.78,-178.8 508.22,-178.8 508.22,-214.8"/>
<text text-anchor="middle" x="442" y="-192.6" font-family="Times,serif" font-size="14.00">FacetViewDirective </text>
</g>
<!-- BsFacetModule&#45;&gt;FacetViewDirective  -->
<g id="edge27" class="edge">
<title>BsFacetModule&#45;&gt;FacetViewDirective </title>
<path fill="none" stroke="black" stroke-dasharray="5,2" d="M969.67,-136.8C827.84,-136.8 446.64,-136.8 446.64,-136.8 446.64,-136.8 446.64,-168.8 446.64,-168.8"/>
<polygon fill="black" stroke="black" points="443.14,-168.8 446.64,-178.8 450.14,-168.8 443.14,-168.8"/>
</g>
<!-- BsActionModule -->
<g id="node13" class="node">
<title>BsActionModule</title>
<polygon fill="#8dd3c7" stroke="black" points="669.43,-84.8 666.43,-88.8 645.43,-88.8 642.43,-84.8 556.57,-84.8 556.57,-48.8 669.43,-48.8 669.43,-84.8"/>
<text text-anchor="middle" x="613" y="-62.6" font-family="Times,serif" font-size="14.00">BsActionModule</text>
</g>
<!-- BsActionModule&#45;&gt;BsFacetModule -->
<g id="edge12" class="edge">
<title>BsActionModule&#45;&gt;BsFacetModule</title>
<path fill="none" stroke="black" d="M642.66,-84.83C642.66,-101.2 642.66,-122.8 642.66,-122.8 642.66,-122.8 959.65,-122.8 959.65,-122.8"/>
<polygon fill="black" stroke="black" points="959.65,-126.3 969.65,-122.8 959.65,-119.3 959.65,-126.3"/>
</g>
<!-- BsAutocompleteModule -->
<g id="node14" class="node">
<title>BsAutocompleteModule</title>
<polygon fill="#8dd3c7" stroke="black" points="538.64,-84.8 535.64,-88.8 514.64,-88.8 511.64,-84.8 385.36,-84.8 385.36,-48.8 538.64,-48.8 538.64,-84.8"/>
<text text-anchor="middle" x="462" y="-62.6" font-family="Times,serif" font-size="14.00">BsAutocompleteModule</text>
</g>
<!-- BsAutocompleteModule&#45;&gt;BsFacetModule -->
<g id="edge13" class="edge">
<title>BsAutocompleteModule&#45;&gt;BsFacetModule</title>
<path fill="none" stroke="black" d="M532.51,-84.82C532.51,-102.17 532.51,-125.8 532.51,-125.8 532.51,-125.8 959.62,-125.8 959.62,-125.8"/>
<polygon fill="black" stroke="black" points="959.62,-129.3 969.62,-125.8 959.62,-122.3 959.62,-129.3"/>
</g>
<!-- BsSearchModule -->
<g id="node15" class="node">
<title>BsSearchModule</title>
<polygon fill="#8dd3c7" stroke="black" points="367.42,-84.8 364.42,-88.8 343.42,-88.8 340.42,-84.8 254.58,-84.8 254.58,-48.8 367.42,-48.8 367.42,-84.8"/>
<text text-anchor="middle" x="311" y="-62.6" font-family="Times,serif" font-size="14.00">BsSearchModule</text>
</g>
<!-- BsSearchModule&#45;&gt;BsFacetModule -->
<g id="edge14" class="edge">
<title>BsSearchModule&#45;&gt;BsFacetModule</title>
<path fill="none" stroke="black" d="M311,-85.1C311,-103.07 311,-127.8 311,-127.8 311,-127.8 959.72,-127.8 959.72,-127.8"/>
<polygon fill="black" stroke="black" points="959.72,-131.3 969.72,-127.8 959.72,-124.3 959.72,-131.3"/>
</g>
<!-- CollapseModule -->
<g id="node16" class="node">
<title>CollapseModule</title>
<polygon fill="#8dd3c7" stroke="black" points="237.04,-84.8 234.04,-88.8 213.04,-88.8 210.04,-84.8 128.96,-84.8 128.96,-48.8 237.04,-48.8 237.04,-84.8"/>
<text text-anchor="middle" x="183" y="-62.6" font-family="Times,serif" font-size="14.00">CollapseModule</text>
</g>
<!-- CollapseModule&#45;&gt;BsFacetModule -->
<g id="edge15" class="edge">
<title>CollapseModule&#45;&gt;BsFacetModule</title>
<path fill="none" stroke="black" d="M183,-84.97C183,-103.89 183,-130.8 183,-130.8 183,-130.8 959.83,-130.8 959.83,-130.8"/>
<polygon fill="black" stroke="black" points="959.83,-134.3 969.83,-130.8 959.83,-127.3 959.83,-134.3"/>
</g>
<!-- UtilsModule -->
<g id="node17" class="node">
<title>UtilsModule</title>
<polygon fill="#8dd3c7" stroke="black" points="110.27,-84.8 107.27,-88.8 86.27,-88.8 83.27,-84.8 23.73,-84.8 23.73,-48.8 110.27,-48.8 110.27,-84.8"/>
<text text-anchor="middle" x="67" y="-62.6" font-family="Times,serif" font-size="14.00">UtilsModule</text>
</g>
<!-- UtilsModule&#45;&gt;BsFacetModule -->
<g id="edge16" class="edge">
<title>UtilsModule&#45;&gt;BsFacetModule</title>
<path fill="none" stroke="black" d="M67,-85.11C67,-104.95 67,-133.8 67,-133.8 67,-133.8 959.64,-133.8 959.64,-133.8"/>
<polygon fill="black" stroke="black" points="959.64,-137.3 969.64,-133.8 959.64,-130.3 959.64,-137.3"/>
</g>
</g>
</svg>
