<?xml version="1.0" encoding="UTF-8" standalone="no"?>
<!DOCTYPE svg PUBLIC "-//W3C//DTD SVG 1.1//EN"
 "http://www.w3.org/Graphics/SVG/1.1/DTD/svg11.dtd">
<!-- Generated by graphviz version 2.40.1 (20161225.0304)
 -->
<!-- Title: dependencies Pages: 1 -->
<svg width="1900pt" height="284pt"
 viewBox="0.00 0.00 1900.00 284.00" xmlns="http://www.w3.org/2000/svg" xmlns:xlink="http://www.w3.org/1999/xlink">
<g id="graph0" class="graph" transform="scale(1 1) rotate(0) translate(4 280)">
<title>dependencies</title>
<polygon fill="#ffffff" stroke="transparent" points="-4,4 -4,-280 1896,-280 1896,4 -4,4"/>
<text text-anchor="start" x="925.0091" y="-42.4" font-family="sans-serif" font-weight="bold" font-size="14.00" fill="#000000">Legend</text>
<polygon fill="#ffffb3" stroke="transparent" points="712,-10 712,-30 732,-30 732,-10 712,-10"/>
<text text-anchor="start" x="735.629" y="-15.4" font-family="sans-serif" font-size="14.00" fill="#000000"> &#160;Declarations</text>
<polygon fill="#8dd3c7" stroke="transparent" points="825,-10 825,-30 845,-30 845,-10 825,-10"/>
<text text-anchor="start" x="848.7251" y="-15.4" font-family="sans-serif" font-size="14.00" fill="#000000"> &#160;Module</text>
<polygon fill="#80b1d3" stroke="transparent" points="911,-10 911,-30 931,-30 931,-10 911,-10"/>
<text text-anchor="start" x="934.7812" y="-15.4" font-family="sans-serif" font-size="14.00" fill="#000000"> &#160;Bootstrap</text>
<polygon fill="#fdb462" stroke="transparent" points="1008,-10 1008,-30 1028,-30 1028,-10 1008,-10"/>
<text text-anchor="start" x="1031.6732" y="-15.4" font-family="sans-serif" font-size="14.00" fill="#000000"> &#160;Providers</text>
<polygon fill="#fb8072" stroke="transparent" points="1104,-10 1104,-30 1124,-30 1124,-10 1104,-10"/>
<text text-anchor="start" x="1127.7258" y="-15.4" font-family="sans-serif" font-size="14.00" fill="#000000"> &#160;Exports</text>
<g id="clust1" class="cluster">
<title>cluster_BsFacetModule</title>
<polygon fill="none" stroke="#000000" stroke-dasharray="1,5" points="8,-70 8,-268 1884,-268 1884,-70 8,-70"/>
</g>
<g id="clust2" class="cluster">
<title>cluster_BsFacetModule_declarations</title>
<polygon fill="none" stroke="#000000" points="685,-78 685,-130 1876,-130 1876,-78 685,-78"/>
</g>
<g id="clust13" class="cluster">
<title>cluster_BsFacetModule_imports</title>
<polygon fill="none" stroke="#000000" points="16,-78 16,-130 677,-130 677,-78 16,-78"/>
</g>
<g id="clust14" class="cluster">
<title>cluster_BsFacetModule_exports</title>
<polygon fill="none" stroke="#000000" points="414,-208 414,-260 1452,-260 1452,-208 414,-208"/>
</g>
<!-- BsFacetBar -->
<g id="node1" class="node">
<title>BsFacetBar</title>
<polygon fill="#ffffb3" stroke="#000000" points="1867.8106,-122 1786.1894,-122 1786.1894,-86 1867.8106,-86 1867.8106,-122"/>
<text text-anchor="middle" x="1827" y="-99.8" font-family="Times,serif" font-size="14.00" fill="#000000">BsFacetBar</text>
</g>
<!-- BsFacetModule -->
<g id="node11" class="node">
<title>BsFacetModule</title>
<polygon fill="#8dd3c7" stroke="#000000" points="981.1486,-187 978.1486,-191 957.1486,-191 954.1486,-187 876.8514,-187 876.8514,-151 981.1486,-151 981.1486,-187"/>
<text text-anchor="middle" x="929" y="-164.8" font-family="Times,serif" font-size="14.00" fill="#000000">BsFacetModule</text>
</g>
<!-- BsFacetBar&#45;&gt;BsFacetModule -->
<g id="edge1" class="edge">
<title>BsFacetBar&#45;&gt;BsFacetModule</title>
<path fill="none" stroke="#000000" d="M1827,-122.308C1827,-142.1455 1827,-171 1827,-171 1827,-171 991.1618,-171 991.1618,-171"/>
<polygon fill="#000000" stroke="#000000" points="991.1618,-167.5001 981.1618,-171 991.1617,-174.5001 991.1618,-167.5001"/>
</g>
<!-- BsFacetCard -->
<g id="node2" class="node">
<title>BsFacetCard</title>
<polygon fill="#ffffb3" stroke="#000000" points="1768.3105,-122 1679.6895,-122 1679.6895,-86 1768.3105,-86 1768.3105,-122"/>
<text text-anchor="middle" x="1724" y="-99.8" font-family="Times,serif" font-size="14.00" fill="#000000">BsFacetCard</text>
</g>
<!-- BsFacetCard&#45;&gt;BsFacetModule -->
<g id="edge2" class="edge">
<title>BsFacetCard&#45;&gt;BsFacetModule</title>
<path fill="none" stroke="#000000" d="M1724,-122.1686C1724,-141.0898 1724,-168 1724,-168 1724,-168 991.1622,-168 991.1622,-168"/>
<polygon fill="#000000" stroke="#000000" points="991.1622,-164.5001 981.1622,-168 991.1621,-171.5001 991.1622,-164.5001"/>
</g>
<!-- BsFacetFilters -->
<g id="node3" class="node">
<title>BsFacetFilters</title>
<polygon fill="#ffffb3" stroke="#000000" points="1661.3725,-122 1564.6275,-122 1564.6275,-86 1661.3725,-86 1661.3725,-122"/>
<text text-anchor="middle" x="1613" y="-99.8" font-family="Times,serif" font-size="14.00" fill="#000000">BsFacetFilters</text>
</g>
<!-- BsFacetFilters&#45;&gt;BsFacetModule -->
<g id="edge3" class="edge">
<title>BsFacetFilters&#45;&gt;BsFacetModule</title>
<path fill="none" stroke="#000000" d="M1613,-122.302C1613,-140.2699 1613,-165 1613,-165 1613,-165 991.2543,-165 991.2543,-165"/>
<polygon fill="#000000" stroke="#000000" points="991.2543,-161.5001 981.2543,-165 991.2542,-168.5001 991.2543,-161.5001"/>
</g>
<!-- BsFacetFiltersBackground -->
<g id="node4" class="node">
<title>BsFacetFiltersBackground</title>
<polygon fill="#ffffb3" stroke="#000000" points="1546.7991,-122 1381.2009,-122 1381.2009,-86 1546.7991,-86 1546.7991,-122"/>
<text text-anchor="middle" x="1464" y="-99.8" font-family="Times,serif" font-size="14.00" fill="#000000">BsFacetFiltersBackground</text>
</g>
<!-- BsFacetFiltersBackground&#45;&gt;BsFacetModule -->
<g id="edge4" class="edge">
<title>BsFacetFiltersBackground&#45;&gt;BsFacetModule</title>
<path fill="none" stroke="#000000" d="M1412.8778,-122.0352C1412.8778,-138.7344 1412.8778,-161 1412.8778,-161 1412.8778,-161 991.2431,-161 991.2431,-161"/>
<polygon fill="#000000" stroke="#000000" points="991.2432,-157.5001 981.2431,-161 991.2431,-164.5001 991.2432,-157.5001"/>
</g>
<!-- BsFacetList -->
<g id="node5" class="node">
<title>BsFacetList</title>
<polygon fill="#ffffb3" stroke="#000000" points="1363.3767,-122 1280.6233,-122 1280.6233,-86 1363.3767,-86 1363.3767,-122"/>
<text text-anchor="middle" x="1322" y="-99.8" font-family="Times,serif" font-size="14.00" fill="#000000">BsFacetList</text>
</g>
<!-- BsFacetList&#45;&gt;BsFacetModule -->
<g id="edge5" class="edge">
<title>BsFacetList&#45;&gt;BsFacetModule</title>
<path fill="none" stroke="#000000" d="M1311.2334,-122.2819C1311.2334,-137.9478 1311.2334,-158 1311.2334,-158 1311.2334,-158 991.3465,-158 991.3465,-158"/>
<polygon fill="#000000" stroke="#000000" points="991.3465,-154.5001 981.3465,-158 991.3464,-161.5001 991.3465,-154.5001"/>
</g>
<!-- BsFacetMultiComponent -->
<g id="node6" class="node">
<title>BsFacetMultiComponent</title>
<polygon fill="#ffffb3" stroke="#000000" points="1262.5476,-122 1105.4524,-122 1105.4524,-86 1262.5476,-86 1262.5476,-122"/>
<text text-anchor="middle" x="1184" y="-99.8" font-family="Times,serif" font-size="14.00" fill="#000000">BsFacetMultiComponent</text>
</g>
<!-- BsFacetMultiComponent&#45;&gt;BsFacetModule -->
<g id="edge6" class="edge">
<title>BsFacetMultiComponent&#45;&gt;BsFacetModule</title>
<path fill="none" stroke="#000000" d="M1109.7074,-122.1243C1109.7074,-136.7832 1109.7074,-155 1109.7074,-155 1109.7074,-155 991.2681,-155 991.2681,-155"/>
<polygon fill="#000000" stroke="#000000" points="991.2681,-151.5001 981.2681,-155 991.268,-158.5001 991.2681,-151.5001"/>
</g>
<!-- BsFacetRange -->
<g id="node7" class="node">
<title>BsFacetRange</title>
<polygon fill="#ffffb3" stroke="#000000" points="1087.3641,-122 990.6359,-122 990.6359,-86 1087.3641,-86 1087.3641,-122"/>
<text text-anchor="middle" x="1039" y="-99.8" font-family="Times,serif" font-size="14.00" fill="#000000">BsFacetRange</text>
</g>
<!-- BsFacetRange&#45;&gt;BsFacetModule -->
<g id="edge7" class="edge">
<title>BsFacetRange&#45;&gt;BsFacetModule</title>
<path fill="none" stroke="#000000" d="M990.3334,-104C982.4701,-104 976.8472,-104 976.8472,-104 976.8472,-104 976.8472,-140.8939 976.8472,-140.8939"/>
<polygon fill="#000000" stroke="#000000" points="973.3472,-140.8938 976.8472,-150.8939 980.3472,-140.8939 973.3472,-140.8938"/>
</g>
<!-- BsFacetTree -->
<g id="node8" class="node">
<title>BsFacetTree</title>
<polygon fill="#ffffb3" stroke="#000000" points="972.241,-122 885.759,-122 885.759,-86 972.241,-86 972.241,-122"/>
<text text-anchor="middle" x="929" y="-99.8" font-family="Times,serif" font-size="14.00" fill="#000000">BsFacetTree</text>
</g>
<!-- BsFacetTree&#45;&gt;BsFacetModule -->
<g id="edge8" class="edge">
<title>BsFacetTree&#45;&gt;BsFacetModule</title>
<path fill="none" stroke="#000000" d="M929,-122.1061C929,-122.1061 929,-140.991 929,-140.991"/>
<polygon fill="#000000" stroke="#000000" points="925.5001,-140.9909 929,-150.991 932.5001,-140.991 925.5001,-140.9909"/>
</g>
<!-- BsMySearch -->
<g id="node9" class="node">
<title>BsMySearch</title>
<polygon fill="#ffffb3" stroke="#000000" points="867.3134,-122 778.6866,-122 778.6866,-86 867.3134,-86 867.3134,-122"/>
<text text-anchor="middle" x="823" y="-99.8" font-family="Times,serif" font-size="14.00" fill="#000000">BsMySearch</text>
</g>
<!-- BsMySearch&#45;&gt;BsFacetModule -->
<g id="edge9" class="edge">
<title>BsMySearch&#45;&gt;BsFacetModule</title>
<path fill="none" stroke="#000000" d="M867.3714,-104C875.331,-104 881.1529,-104 881.1529,-104 881.1529,-104 881.1529,-140.8939 881.1529,-140.8939"/>
<polygon fill="#000000" stroke="#000000" points="877.6529,-140.8938 881.1529,-150.8939 884.6529,-140.8939 877.6529,-140.8938"/>
</g>
<!-- BsRefine -->
<g id="node10" class="node">
<title>BsRefine</title>
<polygon fill="#ffffb3" stroke="#000000" points="761.0983,-122 692.9017,-122 692.9017,-86 761.0983,-86 761.0983,-122"/>
<text text-anchor="middle" x="727" y="-99.8" font-family="Times,serif" font-size="14.00" fill="#000000">BsRefine</text>
</g>
<!-- BsRefine&#45;&gt;BsFacetModule -->
<g id="edge10" class="edge">
<title>BsRefine&#45;&gt;BsFacetModule</title>
<path fill="none" stroke="#000000" d="M745.4336,-122.1243C745.4336,-136.7832 745.4336,-155 745.4336,-155 745.4336,-155 866.3972,-155 866.3972,-155"/>
<polygon fill="#000000" stroke="#000000" points="866.3973,-158.5001 876.3972,-155 866.3972,-151.5001 866.3973,-158.5001"/>
</g>
<!-- BsFacetBar  -->
<g id="node17" class="node">
<title>BsFacetBar </title>
<polygon fill="#fb8072" stroke="#000000" points="1444.3102,-252 1359.6898,-252 1359.6898,-216 1444.3102,-216 1444.3102,-252"/>
<text text-anchor="middle" x="1402" y="-229.8" font-family="Times,serif" font-size="14.00" fill="#000000">BsFacetBar </text>
</g>
<!-- BsFacetModule&#45;&gt;BsFacetBar  -->
<g id="edge16" class="edge">
<title>BsFacetModule&#45;&gt;BsFacetBar </title>
<path fill="none" stroke="#000000" stroke-dasharray="5,2" d="M981.1668,-174C1098.3746,-174 1372.3945,-174 1372.3945,-174 1372.3945,-174 1372.3945,-205.998 1372.3945,-205.998"/>
<polygon fill="#000000" stroke="#000000" points="1368.8945,-205.998 1372.3945,-215.998 1375.8945,-205.9981 1368.8945,-205.998"/>
</g>
<!-- BsFacetCard  -->
<g id="node18" class="node">
<title>BsFacetCard </title>
<polygon fill="#fb8072" stroke="#000000" points="1341.8102,-252 1250.1898,-252 1250.1898,-216 1341.8102,-216 1341.8102,-252"/>
<text text-anchor="middle" x="1296" y="-229.8" font-family="Times,serif" font-size="14.00" fill="#000000">BsFacetCard </text>
</g>
<!-- BsFacetModule&#45;&gt;BsFacetCard  -->
<g id="edge17" class="edge">
<title>BsFacetModule&#45;&gt;BsFacetCard </title>
<path fill="none" stroke="#000000" stroke-dasharray="5,2" d="M981.245,-178C1073.6886,-178 1256.4343,-178 1256.4343,-178 1256.4343,-178 1256.4343,-205.973 1256.4343,-205.973"/>
<polygon fill="#000000" stroke="#000000" points="1252.9343,-205.973 1256.4343,-215.973 1259.9343,-205.973 1252.9343,-205.973"/>
</g>
<!-- BsFacetFilters  -->
<g id="node19" class="node">
<title>BsFacetFilters </title>
<polygon fill="#fb8072" stroke="#000000" points="1232.3731,-252 1131.6269,-252 1131.6269,-216 1232.3731,-216 1232.3731,-252"/>
<text text-anchor="middle" x="1182" y="-229.8" font-family="Times,serif" font-size="14.00" fill="#000000">BsFacetFilters </text>
</g>
<!-- BsFacetModule&#45;&gt;BsFacetFilters  -->
<g id="edge18" class="edge">
<title>BsFacetModule&#45;&gt;BsFacetFilters </title>
<path fill="none" stroke="#000000" stroke-dasharray="5,2" d="M981.4218,-181C1055.527,-181 1182,-181 1182,-181 1182,-181 1182,-205.7604 1182,-205.7604"/>
<polygon fill="#000000" stroke="#000000" points="1178.5001,-205.7604 1182,-215.7604 1185.5001,-205.7604 1178.5001,-205.7604"/>
</g>
<!-- BsFacetList  -->
<g id="node20" class="node">
<title>BsFacetList </title>
<polygon fill="#fb8072" stroke="#000000" points="1114.3774,-252 1027.6226,-252 1027.6226,-216 1114.3774,-216 1114.3774,-252"/>
<text text-anchor="middle" x="1071" y="-229.8" font-family="Times,serif" font-size="14.00" fill="#000000">BsFacetList </text>
</g>
<!-- BsFacetModule&#45;&gt;BsFacetList  -->
<g id="edge19" class="edge">
<title>BsFacetModule&#45;&gt;BsFacetList </title>
<path fill="none" stroke="#000000" stroke-dasharray="5,2" d="M981.3154,-184C1016.9251,-184 1057.6219,-184 1057.6219,-184 1057.6219,-184 1057.6219,-205.9489 1057.6219,-205.9489"/>
<polygon fill="#000000" stroke="#000000" points="1054.1219,-205.9488 1057.6219,-215.9489 1061.1219,-205.9489 1054.1219,-205.9488"/>
</g>
<!-- BsFacetMultiComponent  -->
<g id="node21" class="node">
<title>BsFacetMultiComponent </title>
<polygon fill="#fb8072" stroke="#000000" points="1009.547,-252 848.453,-252 848.453,-216 1009.547,-216 1009.547,-252"/>
<text text-anchor="middle" x="929" y="-229.8" font-family="Times,serif" font-size="14.00" fill="#000000">BsFacetMultiComponent </text>
</g>
<!-- BsFacetModule&#45;&gt;BsFacetMultiComponent  -->
<g id="edge20" class="edge">
<title>BsFacetModule&#45;&gt;BsFacetMultiComponent </title>
<path fill="none" stroke="#000000" stroke-dasharray="5,2" d="M929,-187.1061C929,-187.1061 929,-205.991 929,-205.991"/>
<polygon fill="#000000" stroke="#000000" points="925.5001,-205.9909 929,-215.991 932.5001,-205.991 925.5001,-205.9909"/>
</g>
<!-- BsFacetRange  -->
<g id="node22" class="node">
<title>BsFacetRange </title>
<polygon fill="#fb8072" stroke="#000000" points="830.3647,-252 729.6353,-252 729.6353,-216 830.3647,-216 830.3647,-252"/>
<text text-anchor="middle" x="780" y="-229.8" font-family="Times,serif" font-size="14.00" fill="#000000">BsFacetRange </text>
</g>
<!-- BsFacetModule&#45;&gt;BsFacetRange  -->
<g id="edge21" class="edge">
<title>BsFacetModule&#45;&gt;BsFacetRange </title>
<path fill="none" stroke="#000000" stroke-dasharray="5,2" d="M876.567,-184C842.5455,-184 804.5128,-184 804.5128,-184 804.5128,-184 804.5128,-205.9489 804.5128,-205.9489"/>
<polygon fill="#000000" stroke="#000000" points="801.0129,-205.9488 804.5128,-215.9489 808.0129,-205.9489 801.0129,-205.9488"/>
</g>
<!-- BsFacetTree  -->
<g id="node23" class="node">
<title>BsFacetTree </title>
<polygon fill="#fb8072" stroke="#000000" points="712.2409,-252 621.7591,-252 621.7591,-216 712.2409,-216 712.2409,-252"/>
<text text-anchor="middle" x="667" y="-229.8" font-family="Times,serif" font-size="14.00" fill="#000000">BsFacetTree </text>
</g>
<!-- BsFacetModule&#45;&gt;BsFacetTree  -->
<g id="edge22" class="edge">
<title>BsFacetModule&#45;&gt;BsFacetTree </title>
<path fill="none" stroke="#000000" stroke-dasharray="5,2" d="M876.7601,-181C809.8797,-181 702.5356,-181 702.5356,-181 702.5356,-181 702.5356,-205.7604 702.5356,-205.7604"/>
<polygon fill="#000000" stroke="#000000" points="699.0357,-205.7604 702.5356,-215.7604 706.0357,-205.7604 699.0357,-205.7604"/>
</g>
<!-- BsMySearch  -->
<g id="node24" class="node">
<title>BsMySearch </title>
<polygon fill="#fb8072" stroke="#000000" points="603.813,-252 512.187,-252 512.187,-216 603.813,-216 603.813,-252"/>
<text text-anchor="middle" x="558" y="-229.8" font-family="Times,serif" font-size="14.00" fill="#000000">BsMySearch </text>
</g>
<!-- BsFacetModule&#45;&gt;BsMySearch  -->
<g id="edge23" class="edge">
<title>BsFacetModule&#45;&gt;BsMySearch </title>
<path fill="none" stroke="#000000" stroke-dasharray="5,2" d="M876.8028,-178C779.5397,-178 580.3448,-178 580.3448,-178 580.3448,-178 580.3448,-205.973 580.3448,-205.973"/>
<polygon fill="#000000" stroke="#000000" points="576.8449,-205.973 580.3448,-215.973 583.8449,-205.973 576.8449,-205.973"/>
</g>
<!-- BsRefine  -->
<g id="node25" class="node">
<title>BsRefine </title>
<polygon fill="#fb8072" stroke="#000000" points="493.5993,-252 422.4007,-252 422.4007,-216 493.5993,-216 493.5993,-252"/>
<text text-anchor="middle" x="458" y="-229.8" font-family="Times,serif" font-size="14.00" fill="#000000">BsRefine </text>
</g>
<!-- BsFacetModule&#45;&gt;BsRefine  -->
<g id="edge24" class="edge">
<title>BsFacetModule&#45;&gt;BsRefine </title>
<path fill="none" stroke="#000000" stroke-dasharray="5,2" d="M876.7952,-174C754.1645,-174 458,-174 458,-174 458,-174 458,-205.998 458,-205.998"/>
<polygon fill="#000000" stroke="#000000" points="454.5001,-205.998 458,-215.998 461.5001,-205.9981 454.5001,-205.998"/>
</g>
<!-- BsActionModule -->
<g id="node12" class="node">
<title>BsActionModule</title>
<polygon fill="#8dd3c7" stroke="#000000" points="669.4342,-122 666.4342,-126 645.4342,-126 642.4342,-122 556.5658,-122 556.5658,-86 669.4342,-86 669.4342,-122"/>
<text text-anchor="middle" x="613" y="-99.8" font-family="Times,serif" font-size="14.00" fill="#000000">BsActionModule</text>
</g>
<!-- BsActionModule&#45;&gt;BsFacetModule -->
<g id="edge11" class="edge">
<title>BsActionModule&#45;&gt;BsFacetModule</title>
<path fill="none" stroke="#000000" d="M645.5482,-122.2819C645.5482,-137.9478 645.5482,-158 645.5482,-158 645.5482,-158 866.6802,-158 866.6802,-158"/>
<polygon fill="#000000" stroke="#000000" points="866.6803,-161.5001 876.6802,-158 866.6802,-154.5001 866.6803,-161.5001"/>
</g>
<!-- BsAutocompleteModule -->
<g id="node13" class="node">
<title>BsAutocompleteModule</title>
<polygon fill="#8dd3c7" stroke="#000000" points="538.6442,-122 535.6442,-126 514.6442,-126 511.6442,-122 385.3558,-122 385.3558,-86 538.6442,-86 538.6442,-122"/>
<text text-anchor="middle" x="462" y="-99.8" font-family="Times,serif" font-size="14.00" fill="#000000">BsAutocompleteModule</text>
</g>
<!-- BsAutocompleteModule&#45;&gt;BsFacetModule -->
<g id="edge12" class="edge">
<title>BsAutocompleteModule&#45;&gt;BsFacetModule</title>
<path fill="none" stroke="#000000" d="M525.4578,-122.0352C525.4578,-138.7344 525.4578,-161 525.4578,-161 525.4578,-161 866.6576,-161 866.6576,-161"/>
<polygon fill="#000000" stroke="#000000" points="866.6576,-164.5001 876.6576,-161 866.6576,-157.5001 866.6576,-164.5001"/>
</g>
<!-- BsSearchModule -->
<g id="node14" class="node">
<title>BsSearchModule</title>
<polygon fill="#8dd3c7" stroke="#000000" points="367.4188,-122 364.4188,-126 343.4188,-126 340.4188,-122 254.5812,-122 254.5812,-86 367.4188,-86 367.4188,-122"/>
<text text-anchor="middle" x="311" y="-99.8" font-family="Times,serif" font-size="14.00" fill="#000000">BsSearchModule</text>
</g>
<!-- BsSearchModule&#45;&gt;BsFacetModule -->
<g id="edge13" class="edge">
<title>BsSearchModule&#45;&gt;BsFacetModule</title>
<path fill="none" stroke="#000000" d="M311,-122.302C311,-140.2699 311,-165 311,-165 311,-165 866.8423,-165 866.8423,-165"/>
<polygon fill="#000000" stroke="#000000" points="866.8423,-168.5001 876.8423,-165 866.8422,-161.5001 866.8423,-168.5001"/>
</g>
<!-- CollapseModule -->
<g id="node15" class="node">
<title>CollapseModule</title>
<polygon fill="#8dd3c7" stroke="#000000" points="237.0424,-122 234.0424,-126 213.0424,-126 210.0424,-122 128.9576,-122 128.9576,-86 237.0424,-86 237.0424,-122"/>
<text text-anchor="middle" x="183" y="-99.8" font-family="Times,serif" font-size="14.00" fill="#000000">CollapseModule</text>
</g>
<!-- CollapseModule&#45;&gt;BsFacetModule -->
<g id="edge14" class="edge">
<title>CollapseModule&#45;&gt;BsFacetModule</title>
<path fill="none" stroke="#000000" d="M183,-122.1686C183,-141.0898 183,-168 183,-168 183,-168 866.8392,-168 866.8392,-168"/>
<polygon fill="#000000" stroke="#000000" points="866.8393,-171.5001 876.8392,-168 866.8392,-164.5001 866.8393,-171.5001"/>
</g>
<!-- UtilsModule -->
<g id="node16" class="node">
<title>UtilsModule</title>
<polygon fill="#8dd3c7" stroke="#000000" points="110.2731,-122 107.2731,-126 86.2731,-126 83.2731,-122 23.7269,-122 23.7269,-86 110.2731,-86 110.2731,-122"/>
<text text-anchor="middle" x="67" y="-99.8" font-family="Times,serif" font-size="14.00" fill="#000000">UtilsModule</text>
</g>
<!-- UtilsModule&#45;&gt;BsFacetModule -->
<g id="edge15" class="edge">
<title>UtilsModule&#45;&gt;BsFacetModule</title>
<path fill="none" stroke="#000000" d="M67,-122.308C67,-142.1455 67,-171 67,-171 67,-171 866.6979,-171 866.6979,-171"/>
<polygon fill="#000000" stroke="#000000" points="866.6979,-174.5001 876.6979,-171 866.6978,-167.5001 866.6979,-174.5001"/>
</g>
</g>
</svg>
