<?xml version="1.0" encoding="UTF-8" standalone="no"?>
<!DOCTYPE svg PUBLIC "-//W3C//DTD SVG 1.1//EN"
 "http://www.w3.org/Graphics/SVG/1.1/DTD/svg11.dtd">
<!-- Generated by graphviz version 2.47.3 (20210619.1520)
 -->
<!-- Title: dependencies Pages: 1 -->
<svg width="2310pt" height="247pt"
 viewBox="0.00 0.00 2310.00 246.80" xmlns="http://www.w3.org/2000/svg" xmlns:xlink="http://www.w3.org/1999/xlink">
<g id="graph0" class="graph" transform="scale(1 1) rotate(0) translate(4 242.8)">
<title>dependencies</title>
<polygon fill="white" stroke="transparent" points="-4,4 -4,-242.8 2306,-242.8 2306,4 -4,4"/>
<text text-anchor="middle" x="1151" y="-8.2" font-family="sans-serif" font-size="14.00">dependencies</text>
<g id="clust1" class="cluster">
<title>cluster_BsAdvancedModule</title>
<polygon fill="none" stroke="black" stroke-dasharray="1,5" points="8,-32.8 8,-230.8 2294,-230.8 2294,-32.8 8,-32.8"/>
</g>
<g id="clust14" class="cluster">
<title>cluster_BsAdvancedModule_imports</title>
<polygon fill="none" stroke="black" points="2012,-40.8 2012,-92.8 2286,-92.8 2286,-40.8 2012,-40.8"/>
</g>
<g id="clust2" class="cluster">
<title>cluster_BsAdvancedModule_declarations</title>
<polygon fill="none" stroke="black" points="16,-40.8 16,-92.8 2004,-92.8 2004,-40.8 16,-40.8"/>
</g>
<g id="clust15" class="cluster">
<title>cluster_BsAdvancedModule_exports</title>
<polygon fill="none" stroke="black" points="183,-170.8 183,-222.8 2207,-222.8 2207,-170.8 183,-170.8"/>
</g>
<!-- BsAdvancedFormAutocomplete -->
<g id="node1" class="node">
<title>BsAdvancedFormAutocomplete</title>
<polygon fill="#ffffb3" stroke="black" points="1995.68,-84.8 1798.32,-84.8 1798.32,-48.8 1995.68,-48.8 1995.68,-84.8"/>
<text text-anchor="middle" x="1897" y="-62.6" font-family="Times,serif" font-size="14.00">BsAdvancedFormAutocomplete</text>
</g>
<!-- BsAdvancedModule -->
<g id="node12" class="node">
<title>BsAdvancedModule</title>
<polygon fill="#8dd3c7" stroke="black" points="1122.58,-149.8 1119.58,-153.8 1098.58,-153.8 1095.58,-149.8 991.42,-149.8 991.42,-113.8 1122.58,-113.8 1122.58,-149.8"/>
<text text-anchor="middle" x="1057" y="-127.6" font-family="Times,serif" font-size="14.00">BsAdvancedModule</text>
</g>
<!-- BsAdvancedFormAutocomplete&#45;&gt;BsAdvancedModule -->
<g id="edge1" class="edge">
<title>BsAdvancedFormAutocomplete&#45;&gt;BsAdvancedModule</title>
<path fill="none" stroke="black" d="M1889.54,-84.82C1889.54,-102.17 1889.54,-125.8 1889.54,-125.8 1889.54,-125.8 1132.68,-125.8 1132.68,-125.8"/>
<polygon fill="black" stroke="black" points="1132.68,-122.3 1122.68,-125.8 1132.68,-129.3 1132.68,-122.3"/>
</g>
<!-- BsAdvancedFormAutocompleteMultiInput -->
<g id="node2" class="node">
<title>BsAdvancedFormAutocompleteMultiInput</title>
<polygon fill="#ffffb3" stroke="black" points="1779.85,-84.8 1522.15,-84.8 1522.15,-48.8 1779.85,-48.8 1779.85,-84.8"/>
<text text-anchor="middle" x="1651" y="-62.6" font-family="Times,serif" font-size="14.00">BsAdvancedFormAutocompleteMultiInput</text>
</g>
<!-- BsAdvancedFormAutocompleteMultiInput&#45;&gt;BsAdvancedModule -->
<g id="edge2" class="edge">
<title>BsAdvancedFormAutocompleteMultiInput&#45;&gt;BsAdvancedModule</title>
<path fill="none" stroke="black" d="M1582.31,-84.83C1582.31,-101.2 1582.31,-122.8 1582.31,-122.8 1582.31,-122.8 1132.73,-122.8 1132.73,-122.8"/>
<polygon fill="black" stroke="black" points="1132.73,-119.3 1122.73,-122.8 1132.73,-126.3 1132.73,-119.3"/>
</g>
<!-- BsAdvancedFormCheckbox -->
<g id="node3" class="node">
<title>BsAdvancedFormCheckbox</title>
<polygon fill="#ffffb3" stroke="black" points="1504.13,-84.8 1329.87,-84.8 1329.87,-48.8 1504.13,-48.8 1504.13,-84.8"/>
<text text-anchor="middle" x="1417" y="-62.6" font-family="Times,serif" font-size="14.00">BsAdvancedFormCheckbox</text>
</g>
<!-- BsAdvancedFormCheckbox&#45;&gt;BsAdvancedModule -->
<g id="edge3" class="edge">
<title>BsAdvancedFormCheckbox&#45;&gt;BsAdvancedModule</title>
<path fill="none" stroke="black" d="M1344.78,-85.04C1344.78,-100.37 1344.78,-119.8 1344.78,-119.8 1344.78,-119.8 1132.66,-119.8 1132.66,-119.8"/>
<polygon fill="black" stroke="black" points="1132.66,-116.3 1122.66,-119.8 1132.66,-123.3 1132.66,-116.3"/>
</g>
<!-- BsAdvancedFormInput -->
<g id="node4" class="node">
<title>BsAdvancedFormInput</title>
<polygon fill="#ffffb3" stroke="black" points="1311.92,-84.8 1164.08,-84.8 1164.08,-48.8 1311.92,-48.8 1311.92,-84.8"/>
<text text-anchor="middle" x="1238" y="-62.6" font-family="Times,serif" font-size="14.00">BsAdvancedFormInput</text>
</g>
<!-- BsAdvancedFormInput&#45;&gt;BsAdvancedModule -->
<g id="edge4" class="edge">
<title>BsAdvancedFormInput&#45;&gt;BsAdvancedModule</title>
<path fill="none" stroke="black" d="M1238,-84.85C1238,-99.17 1238,-116.8 1238,-116.8 1238,-116.8 1132.6,-116.8 1132.6,-116.8"/>
<polygon fill="black" stroke="black" points="1132.6,-113.3 1122.6,-116.8 1132.6,-120.3 1132.6,-113.3"/>
</g>
<!-- BsAdvancedFormMultiInput -->
<g id="node5" class="node">
<title>BsAdvancedFormMultiInput</title>
<polygon fill="#ffffb3" stroke="black" points="1146.03,-84.8 967.97,-84.8 967.97,-48.8 1146.03,-48.8 1146.03,-84.8"/>
<text text-anchor="middle" x="1057" y="-62.6" font-family="Times,serif" font-size="14.00">BsAdvancedFormMultiInput</text>
</g>
<!-- BsAdvancedFormMultiInput&#45;&gt;BsAdvancedModule -->
<g id="edge5" class="edge">
<title>BsAdvancedFormMultiInput&#45;&gt;BsAdvancedModule</title>
<path fill="none" stroke="black" d="M1057,-84.91C1057,-84.91 1057,-103.79 1057,-103.79"/>
<polygon fill="black" stroke="black" points="1053.5,-103.79 1057,-113.79 1060.5,-103.79 1053.5,-103.79"/>
</g>
<!-- BsAdvancedFormRange -->
<g id="node6" class="node">
<title>BsAdvancedFormRange</title>
<polygon fill="#ffffb3" stroke="black" points="949.63,-84.8 796.37,-84.8 796.37,-48.8 949.63,-48.8 949.63,-84.8"/>
<text text-anchor="middle" x="873" y="-62.6" font-family="Times,serif" font-size="14.00">BsAdvancedFormRange</text>
</g>
<!-- BsAdvancedFormRange&#45;&gt;BsAdvancedModule -->
<g id="edge6" class="edge">
<title>BsAdvancedFormRange&#45;&gt;BsAdvancedModule</title>
<path fill="none" stroke="black" d="M877.51,-84.85C877.51,-99.17 877.51,-116.8 877.51,-116.8 877.51,-116.8 981.44,-116.8 981.44,-116.8"/>
<polygon fill="black" stroke="black" points="981.44,-120.3 991.44,-116.8 981.44,-113.3 981.44,-120.3"/>
</g>
<!-- BsAdvancedFormSelect -->
<g id="node7" class="node">
<title>BsAdvancedFormSelect</title>
<polygon fill="#ffffb3" stroke="black" points="778.07,-84.8 625.93,-84.8 625.93,-48.8 778.07,-48.8 778.07,-84.8"/>
<text text-anchor="middle" x="702" y="-62.6" font-family="Times,serif" font-size="14.00">BsAdvancedFormSelect</text>
</g>
<!-- BsAdvancedFormSelect&#45;&gt;BsAdvancedModule -->
<g id="edge7" class="edge">
<title>BsAdvancedFormSelect&#45;&gt;BsAdvancedModule</title>
<path fill="none" stroke="black" d="M702,-85.04C702,-100.37 702,-119.8 702,-119.8 702,-119.8 981.06,-119.8 981.06,-119.8"/>
<polygon fill="black" stroke="black" points="981.06,-123.3 991.06,-119.8 981.06,-116.3 981.06,-123.3"/>
</g>
<!-- BsAdvancedFormValidation -->
<g id="node8" class="node">
<title>BsAdvancedFormValidation</title>
<polygon fill="#ffffb3" stroke="black" points="607.46,-84.8 430.54,-84.8 430.54,-48.8 607.46,-48.8 607.46,-84.8"/>
<text text-anchor="middle" x="519" y="-62.6" font-family="Times,serif" font-size="14.00">BsAdvancedFormValidation</text>
</g>
<!-- BsAdvancedFormValidation&#45;&gt;BsAdvancedModule -->
<g id="edge8" class="edge">
<title>BsAdvancedFormValidation&#45;&gt;BsAdvancedModule</title>
<path fill="none" stroke="black" d="M598,-84.83C598,-101.2 598,-122.8 598,-122.8 598,-122.8 981.24,-122.8 981.24,-122.8"/>
<polygon fill="black" stroke="black" points="981.24,-126.3 991.24,-122.8 981.24,-119.3 981.24,-126.3"/>
</g>
<!-- BsDatePicker -->
<g id="node9" class="node">
<title>BsDatePicker</title>
<polygon fill="#ffffb3" stroke="black" points="412.47,-84.8 319.53,-84.8 319.53,-48.8 412.47,-48.8 412.47,-84.8"/>
<text text-anchor="middle" x="366" y="-62.6" font-family="Times,serif" font-size="14.00">BsDatePicker</text>
</g>
<!-- BsDatePicker&#45;&gt;BsAdvancedModule -->
<g id="edge9" class="edge">
<title>BsDatePicker&#45;&gt;BsAdvancedModule</title>
<path fill="none" stroke="black" d="M377.68,-84.82C377.68,-102.17 377.68,-125.8 377.68,-125.8 377.68,-125.8 981.25,-125.8 981.25,-125.8"/>
<polygon fill="black" stroke="black" points="981.25,-129.3 991.25,-125.8 981.25,-122.3 981.25,-129.3"/>
</g>
<!-- BsDateRangePicker -->
<g id="node10" class="node">
<title>BsDateRangePicker</title>
<polygon fill="#ffffb3" stroke="black" points="301.24,-84.8 172.76,-84.8 172.76,-48.8 301.24,-48.8 301.24,-84.8"/>
<text text-anchor="middle" x="237" y="-62.6" font-family="Times,serif" font-size="14.00">BsDateRangePicker</text>
</g>
<!-- BsDateRangePicker&#45;&gt;BsAdvancedModule -->
<g id="edge10" class="edge">
<title>BsDateRangePicker&#45;&gt;BsAdvancedModule</title>
<path fill="none" stroke="black" d="M246.23,-85.07C246.23,-103.36 246.23,-128.8 246.23,-128.8 246.23,-128.8 981.34,-128.8 981.34,-128.8"/>
<polygon fill="black" stroke="black" points="981.34,-132.3 991.34,-128.8 981.34,-125.3 981.34,-132.3"/>
</g>
<!-- BsSelectComponent -->
<g id="node11" class="node">
<title>BsSelectComponent</title>
<polygon fill="#ffffb3" stroke="black" points="154.32,-84.8 23.68,-84.8 23.68,-48.8 154.32,-48.8 154.32,-84.8"/>
<text text-anchor="middle" x="89" y="-62.6" font-family="Times,serif" font-size="14.00">BsSelectComponent</text>
</g>
<!-- BsSelectComponent&#45;&gt;BsAdvancedModule -->
<g id="edge11" class="edge">
<title>BsSelectComponent&#45;&gt;BsAdvancedModule</title>
<path fill="none" stroke="black" d="M89,-84.91C89,-104.14 89,-131.8 89,-131.8 89,-131.8 981.23,-131.8 981.23,-131.8"/>
<polygon fill="black" stroke="black" points="981.23,-135.3 991.23,-131.8 981.23,-128.3 981.23,-135.3"/>
</g>
<!-- BsAdvancedFormAutocomplete  -->
<g id="node15" class="node">
<title>BsAdvancedFormAutocomplete </title>
<polygon fill="#fb8072" stroke="black" points="2199.18,-214.8 1998.82,-214.8 1998.82,-178.8 2199.18,-178.8 2199.18,-214.8"/>
<text text-anchor="middle" x="2099" y="-192.6" font-family="Times,serif" font-size="14.00">BsAdvancedFormAutocomplete </text>
</g>
<!-- BsAdvancedModule&#45;&gt;BsAdvancedFormAutocomplete  -->
<g id="edge14" class="edge">
<title>BsAdvancedModule&#45;&gt;BsAdvancedFormAutocomplete </title>
<path fill="none" stroke="black" stroke-dasharray="5,2" d="M1122.82,-134.8C1338.34,-134.8 2009.14,-134.8 2009.14,-134.8 2009.14,-134.8 2009.14,-168.53 2009.14,-168.53"/>
<polygon fill="black" stroke="black" points="2005.64,-168.53 2009.14,-178.53 2012.64,-168.53 2005.64,-168.53"/>
</g>
<!-- BsAdvancedFormAutocompleteMultiInput  -->
<g id="node16" class="node">
<title>BsAdvancedFormAutocompleteMultiInput </title>
<polygon fill="#fb8072" stroke="black" points="1980.85,-214.8 1719.15,-214.8 1719.15,-178.8 1980.85,-178.8 1980.85,-214.8"/>
<text text-anchor="middle" x="1850" y="-192.6" font-family="Times,serif" font-size="14.00">BsAdvancedFormAutocompleteMultiInput </text>
</g>
<!-- BsAdvancedModule&#45;&gt;BsAdvancedFormAutocompleteMultiInput  -->
<g id="edge15" class="edge">
<title>BsAdvancedModule&#45;&gt;BsAdvancedFormAutocompleteMultiInput </title>
<path fill="none" stroke="black" stroke-dasharray="5,2" d="M1122.78,-137.8C1295.68,-137.8 1749.62,-137.8 1749.62,-137.8 1749.62,-137.8 1749.62,-168.78 1749.62,-168.78"/>
<polygon fill="black" stroke="black" points="1746.13,-168.78 1749.62,-178.78 1753.13,-168.78 1746.13,-168.78"/>
</g>
<!-- BsAdvancedFormCheckbox  -->
<g id="node17" class="node">
<title>BsAdvancedFormCheckbox </title>
<polygon fill="#fb8072" stroke="black" points="1701.13,-214.8 1522.87,-214.8 1522.87,-178.8 1701.13,-178.8 1701.13,-214.8"/>
<text text-anchor="middle" x="1612" y="-192.6" font-family="Times,serif" font-size="14.00">BsAdvancedFormCheckbox </text>
</g>
<!-- BsAdvancedModule&#45;&gt;BsAdvancedFormCheckbox  -->
<g id="edge16" class="edge">
<title>BsAdvancedModule&#45;&gt;BsAdvancedFormCheckbox </title>
<path fill="none" stroke="black" stroke-dasharray="5,2" d="M1122.65,-140.8C1275.39,-140.8 1641.69,-140.8 1641.69,-140.8 1641.69,-140.8 1641.69,-168.77 1641.69,-168.77"/>
<polygon fill="black" stroke="black" points="1638.19,-168.77 1641.69,-178.77 1645.19,-168.77 1638.19,-168.77"/>
</g>
<!-- BsAdvancedFormInput  -->
<g id="node18" class="node">
<title>BsAdvancedFormInput </title>
<polygon fill="#fb8072" stroke="black" points="1504.42,-214.8 1353.58,-214.8 1353.58,-178.8 1504.42,-178.8 1504.42,-214.8"/>
<text text-anchor="middle" x="1429" y="-192.6" font-family="Times,serif" font-size="14.00">BsAdvancedFormInput </text>
</g>
<!-- BsAdvancedModule&#45;&gt;BsAdvancedFormInput  -->
<g id="edge17" class="edge">
<title>BsAdvancedModule&#45;&gt;BsAdvancedFormInput </title>
<path fill="none" stroke="black" stroke-dasharray="5,2" d="M1122.64,-143.8C1229.41,-143.8 1428.93,-143.8 1428.93,-143.8 1428.93,-143.8 1428.93,-168.56 1428.93,-168.56"/>
<polygon fill="black" stroke="black" points="1425.43,-168.56 1428.93,-178.56 1432.43,-168.56 1425.43,-168.56"/>
</g>
<!-- BsAdvancedFormMultiInput  -->
<g id="node19" class="node">
<title>BsAdvancedFormMultiInput </title>
<polygon fill="#fb8072" stroke="black" points="1336.03,-214.8 1153.97,-214.8 1153.97,-178.8 1336.03,-178.8 1336.03,-214.8"/>
<text text-anchor="middle" x="1245" y="-192.6" font-family="Times,serif" font-size="14.00">BsAdvancedFormMultiInput </text>
</g>
<!-- BsAdvancedModule&#45;&gt;BsAdvancedFormMultiInput  -->
<g id="edge18" class="edge">
<title>BsAdvancedModule&#45;&gt;BsAdvancedFormMultiInput </title>
<path fill="none" stroke="black" stroke-dasharray="5,2" d="M1122.55,-146.8C1142.44,-146.8 1159.14,-146.8 1159.14,-146.8 1159.14,-146.8 1159.14,-168.75 1159.14,-168.75"/>
<polygon fill="black" stroke="black" points="1155.64,-168.75 1159.14,-178.75 1162.64,-168.75 1155.64,-168.75"/>
</g>
<!-- BsAdvancedFormRange  -->
<g id="node20" class="node">
<title>BsAdvancedFormRange </title>
<polygon fill="#fb8072" stroke="black" points="1135.63,-214.8 978.37,-214.8 978.37,-178.8 1135.63,-178.8 1135.63,-214.8"/>
<text text-anchor="middle" x="1057" y="-192.6" font-family="Times,serif" font-size="14.00">BsAdvancedFormRange </text>
</g>
<!-- BsAdvancedModule&#45;&gt;BsAdvancedFormRange  -->
<g id="edge19" class="edge">
<title>BsAdvancedModule&#45;&gt;BsAdvancedFormRange </title>
<path fill="none" stroke="black" stroke-dasharray="5,2" d="M1057,-149.91C1057,-149.91 1057,-168.79 1057,-168.79"/>
<polygon fill="black" stroke="black" points="1053.5,-168.79 1057,-178.79 1060.5,-168.79 1053.5,-168.79"/>
</g>
<!-- BsAdvancedFormSelect  -->
<g id="node21" class="node">
<title>BsAdvancedFormSelect </title>
<polygon fill="#fb8072" stroke="black" points="960.57,-214.8 805.43,-214.8 805.43,-178.8 960.57,-178.8 960.57,-214.8"/>
<text text-anchor="middle" x="883" y="-192.6" font-family="Times,serif" font-size="14.00">BsAdvancedFormSelect </text>
</g>
<!-- BsAdvancedModule&#45;&gt;BsAdvancedFormSelect  -->
<g id="edge20" class="edge">
<title>BsAdvancedModule&#45;&gt;BsAdvancedFormSelect </title>
<path fill="none" stroke="black" stroke-dasharray="5,2" d="M991.44,-146.8C971.76,-146.8 955.3,-146.8 955.3,-146.8 955.3,-146.8 955.3,-168.75 955.3,-168.75"/>
<polygon fill="black" stroke="black" points="951.8,-168.75 955.3,-178.75 958.8,-168.75 951.8,-168.75"/>
</g>
<!-- BsAdvancedFormValidation  -->
<g id="node22" class="node">
<title>BsAdvancedFormValidation </title>
<polygon fill="#fb8072" stroke="black" points="787.46,-214.8 606.54,-214.8 606.54,-178.8 787.46,-178.8 787.46,-214.8"/>
<text text-anchor="middle" x="697" y="-192.6" font-family="Times,serif" font-size="14.00">BsAdvancedFormValidation </text>
</g>
<!-- BsAdvancedModule&#45;&gt;BsAdvancedFormValidation  -->
<g id="edge21" class="edge">
<title>BsAdvancedModule&#45;&gt;BsAdvancedFormValidation </title>
<path fill="none" stroke="black" stroke-dasharray="5,2" d="M991.28,-143.8C910.11,-143.8 782.63,-143.8 782.63,-143.8 782.63,-143.8 782.63,-168.56 782.63,-168.56"/>
<polygon fill="black" stroke="black" points="779.13,-168.56 782.63,-178.56 786.13,-168.56 779.13,-168.56"/>
</g>
<!-- BsDatePicker  -->
<g id="node23" class="node">
<title>BsDatePicker </title>
<polygon fill="#fb8072" stroke="black" points="589.47,-214.8 492.53,-214.8 492.53,-178.8 589.47,-178.8 589.47,-214.8"/>
<text text-anchor="middle" x="541" y="-192.6" font-family="Times,serif" font-size="14.00">BsDatePicker </text>
</g>
<!-- BsAdvancedModule&#45;&gt;BsDatePicker  -->
<g id="edge22" class="edge">
<title>BsAdvancedModule&#45;&gt;BsDatePicker </title>
<path fill="none" stroke="black" stroke-dasharray="5,2" d="M991.39,-140.8C852.41,-140.8 541,-140.8 541,-140.8 541,-140.8 541,-168.77 541,-168.77"/>
<polygon fill="black" stroke="black" points="537.5,-168.77 541,-178.77 544.5,-168.77 537.5,-168.77"/>
</g>
<!-- BsDateRangePicker  -->
<g id="node24" class="node">
<title>BsDateRangePicker </title>
<polygon fill="#fb8072" stroke="black" points="475.24,-214.8 342.76,-214.8 342.76,-178.8 475.24,-178.8 475.24,-214.8"/>
<text text-anchor="middle" x="409" y="-192.6" font-family="Times,serif" font-size="14.00">BsDateRangePicker </text>
</g>
<!-- BsAdvancedModule&#45;&gt;BsDateRangePicker  -->
<g id="edge23" class="edge">
<title>BsAdvancedModule&#45;&gt;BsDateRangePicker </title>
<path fill="none" stroke="black" stroke-dasharray="5,2" d="M991.19,-137.8C834.6,-137.8 452.82,-137.8 452.82,-137.8 452.82,-137.8 452.82,-168.78 452.82,-168.78"/>
<polygon fill="black" stroke="black" points="449.32,-168.78 452.82,-178.78 456.32,-168.78 449.32,-168.78"/>
</g>
<!-- BsSelectComponent  -->
<g id="node25" class="node">
<title>BsSelectComponent </title>
<polygon fill="#fb8072" stroke="black" points="324.82,-214.8 191.18,-214.8 191.18,-178.8 324.82,-178.8 324.82,-214.8"/>
<text text-anchor="middle" x="258" y="-192.6" font-family="Times,serif" font-size="14.00">BsSelectComponent </text>
</g>
<!-- BsAdvancedModule&#45;&gt;BsSelectComponent  -->
<g id="edge24" class="edge">
<title>BsAdvancedModule&#45;&gt;BsSelectComponent </title>
<path fill="none" stroke="black" stroke-dasharray="5,2" d="M991.4,-134.8C809.23,-134.8 310.44,-134.8 310.44,-134.8 310.44,-134.8 310.44,-168.53 310.44,-168.53"/>
<polygon fill="black" stroke="black" points="306.94,-168.53 310.44,-178.53 313.94,-168.53 306.94,-168.53"/>
</g>
<!-- BsAutocompleteModule -->
<g id="node13" class="node">
<title>BsAutocompleteModule</title>
<polygon fill="#8dd3c7" stroke="black" points="2277.64,-84.8 2274.64,-88.8 2253.64,-88.8 2250.64,-84.8 2124.36,-84.8 2124.36,-48.8 2277.64,-48.8 2277.64,-84.8"/>
<text text-anchor="middle" x="2201" y="-62.6" font-family="Times,serif" font-size="14.00">BsAutocompleteModule</text>
</g>
<!-- BsAutocompleteModule&#45;&gt;BsAdvancedModule -->
<g id="edge12" class="edge">
<title>BsAutocompleteModule&#45;&gt;BsAdvancedModule</title>
<path fill="none" stroke="black" d="M2161.76,-84.91C2161.76,-104.14 2161.76,-131.8 2161.76,-131.8 2161.76,-131.8 1132.8,-131.8 1132.8,-131.8"/>
<polygon fill="black" stroke="black" points="1132.8,-128.3 1122.8,-131.8 1132.8,-135.3 1132.8,-128.3"/>
</g>
<!-- UtilsModule -->
<g id="node14" class="node">
<title>UtilsModule</title>
<polygon fill="#8dd3c7" stroke="black" points="2106.27,-84.8 2103.27,-88.8 2082.27,-88.8 2079.27,-84.8 2019.73,-84.8 2019.73,-48.8 2106.27,-48.8 2106.27,-84.8"/>
<text text-anchor="middle" x="2063" y="-62.6" font-family="Times,serif" font-size="14.00">UtilsModule</text>
</g>
<!-- UtilsModule&#45;&gt;BsAdvancedModule -->
<g id="edge13" class="edge">
<title>UtilsModule&#45;&gt;BsAdvancedModule</title>
<path fill="none" stroke="black" d="M2063,-85.07C2063,-103.36 2063,-128.8 2063,-128.8 2063,-128.8 1132.62,-128.8 1132.62,-128.8"/>
<polygon fill="black" stroke="black" points="1132.62,-125.3 1122.62,-128.8 1132.62,-132.3 1132.62,-125.3"/>
</g>
</g>
</svg>
