<?xml version="1.0" encoding="UTF-8" standalone="no"?>
<!DOCTYPE svg PUBLIC "-//W3C//DTD SVG 1.1//EN"
 "http://www.w3.org/Graphics/SVG/1.1/DTD/svg11.dtd">
<!-- Generated by graphviz version 2.47.3 (20210619.1520)
 -->
<!-- Title: dependencies Pages: 1 -->
<svg width="2310pt" height="247pt"
 viewBox="0.00 0.00 2310.00 246.80" xmlns="http://www.w3.org/2000/svg" xmlns:xlink="http://www.w3.org/1999/xlink">
<g id="graph0" class="graph" transform="scale(1 1) rotate(0) translate(4 242.8)">
<title>dependencies</title>
<polygon fill="white" stroke="transparent" points="-4,4 -4,-242.8 2306,-242.8 2306,4 -4,4"/>
<text text-anchor="middle" x="1151" y="-8.2" font-family="sans-serif" font-size="14.00">dependencies</text>
<g id="clust1" class="cluster">
<title>cluster_BsAdvancedModule</title>
<polygon fill="none" stroke="black" stroke-dasharray="1,5" points="8,-32.8 8,-230.8 2294,-230.8 2294,-32.8 8,-32.8"/>
</g>
<g id="clust2" class="cluster">
<title>cluster_BsAdvancedModule_declarations</title>
<polygon fill="none" stroke="black" points="298,-40.8 298,-92.8 2286,-92.8 2286,-40.8 298,-40.8"/>
</g>
<g id="clust14" class="cluster">
<title>cluster_BsAdvancedModule_imports</title>
<polygon fill="none" stroke="black" points="16,-40.8 16,-92.8 290,-92.8 290,-40.8 16,-40.8"/>
</g>
<g id="clust15" class="cluster">
<title>cluster_BsAdvancedModule_exports</title>
<polygon fill="none" stroke="black" points="110,-170.8 110,-222.8 2134,-222.8 2134,-170.8 110,-170.8"/>
</g>
<!-- BsAdvancedFormAutocomplete -->
<g id="node1" class="node">
<title>BsAdvancedFormAutocomplete</title>
<polygon fill="#ffffb3" stroke="black" points="2277.68,-84.8 2080.32,-84.8 2080.32,-48.8 2277.68,-48.8 2277.68,-84.8"/>
<text text-anchor="middle" x="2179" y="-62.6" font-family="Times,serif" font-size="14.00">BsAdvancedFormAutocomplete</text>
</g>
<!-- BsAdvancedModule -->
<g id="node12" class="node">
<title>BsAdvancedModule</title>
<polygon fill="#8dd3c7" stroke="black" points="1049.58,-149.8 1046.58,-153.8 1025.58,-153.8 1022.58,-149.8 918.42,-149.8 918.42,-113.8 1049.58,-113.8 1049.58,-149.8"/>
<text text-anchor="middle" x="984" y="-127.6" font-family="Times,serif" font-size="14.00">BsAdvancedModule</text>
</g>
<!-- BsAdvancedFormAutocomplete&#45;&gt;BsAdvancedModule -->
<g id="edge1" class="edge">
<title>BsAdvancedFormAutocomplete&#45;&gt;BsAdvancedModule</title>
<path fill="none" stroke="black" d="M2103.38,-84.91C2103.38,-104.14 2103.38,-131.8 2103.38,-131.8 2103.38,-131.8 1059.84,-131.8 1059.84,-131.8"/>
<polygon fill="black" stroke="black" points="1059.84,-128.3 1049.84,-131.8 1059.84,-135.3 1059.84,-128.3"/>
</g>
<!-- BsAdvancedFormAutocompleteMultiInput -->
<g id="node2" class="node">
<title>BsAdvancedFormAutocompleteMultiInput</title>
<polygon fill="#ffffb3" stroke="black" points="2061.85,-84.8 1804.15,-84.8 1804.15,-48.8 2061.85,-48.8 2061.85,-84.8"/>
<text text-anchor="middle" x="1933" y="-62.6" font-family="Times,serif" font-size="14.00">BsAdvancedFormAutocompleteMultiInput</text>
</g>
<!-- BsAdvancedFormAutocompleteMultiInput&#45;&gt;BsAdvancedModule -->
<g id="edge2" class="edge">
<title>BsAdvancedFormAutocompleteMultiInput&#45;&gt;BsAdvancedModule</title>
<path fill="none" stroke="black" d="M1855.88,-85.07C1855.88,-103.36 1855.88,-128.8 1855.88,-128.8 1855.88,-128.8 1059.89,-128.8 1059.89,-128.8"/>
<polygon fill="black" stroke="black" points="1059.89,-125.3 1049.89,-128.8 1059.89,-132.3 1059.89,-125.3"/>
</g>
<!-- BsAdvancedFormCheckbox -->
<g id="node3" class="node">
<title>BsAdvancedFormCheckbox</title>
<polygon fill="#ffffb3" stroke="black" points="1786.13,-84.8 1611.87,-84.8 1611.87,-48.8 1786.13,-48.8 1786.13,-84.8"/>
<text text-anchor="middle" x="1699" y="-62.6" font-family="Times,serif" font-size="14.00">BsAdvancedFormCheckbox</text>
</g>
<!-- BsAdvancedFormCheckbox&#45;&gt;BsAdvancedModule -->
<g id="edge3" class="edge">
<title>BsAdvancedFormCheckbox&#45;&gt;BsAdvancedModule</title>
<path fill="none" stroke="black" d="M1619.88,-84.82C1619.88,-102.17 1619.88,-125.8 1619.88,-125.8 1619.88,-125.8 1059.65,-125.8 1059.65,-125.8"/>
<polygon fill="black" stroke="black" points="1059.65,-122.3 1049.65,-125.8 1059.65,-129.3 1059.65,-122.3"/>
</g>
<!-- BsAdvancedFormInput -->
<g id="node4" class="node">
<title>BsAdvancedFormInput</title>
<polygon fill="#ffffb3" stroke="black" points="1593.92,-84.8 1446.08,-84.8 1446.08,-48.8 1593.92,-48.8 1593.92,-84.8"/>
<text text-anchor="middle" x="1520" y="-62.6" font-family="Times,serif" font-size="14.00">BsAdvancedFormInput</text>
</g>
<!-- BsAdvancedFormInput&#45;&gt;BsAdvancedModule -->
<g id="edge4" class="edge">
<title>BsAdvancedFormInput&#45;&gt;BsAdvancedModule</title>
<path fill="none" stroke="black" d="M1545.78,-84.83C1545.78,-101.2 1545.78,-122.8 1545.78,-122.8 1545.78,-122.8 1059.54,-122.8 1059.54,-122.8"/>
<polygon fill="black" stroke="black" points="1059.54,-119.3 1049.54,-122.8 1059.54,-126.3 1059.54,-119.3"/>
</g>
<!-- BsAdvancedFormMultiInput -->
<g id="node5" class="node">
<title>BsAdvancedFormMultiInput</title>
<polygon fill="#ffffb3" stroke="black" points="1428.03,-84.8 1249.97,-84.8 1249.97,-48.8 1428.03,-48.8 1428.03,-84.8"/>
<text text-anchor="middle" x="1339" y="-62.6" font-family="Times,serif" font-size="14.00">BsAdvancedFormMultiInput</text>
</g>
<!-- BsAdvancedFormMultiInput&#45;&gt;BsAdvancedModule -->
<g id="edge5" class="edge">
<title>BsAdvancedFormMultiInput&#45;&gt;BsAdvancedModule</title>
<path fill="none" stroke="black" d="M1256.38,-85.04C1256.38,-100.37 1256.38,-119.8 1256.38,-119.8 1256.38,-119.8 1059.59,-119.8 1059.59,-119.8"/>
<polygon fill="black" stroke="black" points="1059.59,-116.3 1049.59,-119.8 1059.59,-123.3 1059.59,-116.3"/>
</g>
<!-- BsAdvancedFormRange -->
<g id="node6" class="node">
<title>BsAdvancedFormRange</title>
<polygon fill="#ffffb3" stroke="black" points="1231.63,-84.8 1078.37,-84.8 1078.37,-48.8 1231.63,-48.8 1231.63,-84.8"/>
<text text-anchor="middle" x="1155" y="-62.6" font-family="Times,serif" font-size="14.00">BsAdvancedFormRange</text>
</g>
<!-- BsAdvancedFormRange&#45;&gt;BsAdvancedModule -->
<g id="edge6" class="edge">
<title>BsAdvancedFormRange&#45;&gt;BsAdvancedModule</title>
<path fill="none" stroke="black" d="M1181.54,-84.85C1181.54,-99.17 1181.54,-116.8 1181.54,-116.8 1181.54,-116.8 1059.78,-116.8 1059.78,-116.8"/>
<polygon fill="black" stroke="black" points="1059.78,-113.3 1049.78,-116.8 1059.78,-120.3 1059.78,-113.3"/>
</g>
<!-- BsAdvancedFormSelect -->
<g id="node7" class="node">
<title>BsAdvancedFormSelect</title>
<polygon fill="#ffffb3" stroke="black" points="1060.07,-84.8 907.93,-84.8 907.93,-48.8 1060.07,-48.8 1060.07,-84.8"/>
<text text-anchor="middle" x="984" y="-62.6" font-family="Times,serif" font-size="14.00">BsAdvancedFormSelect</text>
</g>
<!-- BsAdvancedFormSelect&#45;&gt;BsAdvancedModule -->
<g id="edge7" class="edge">
<title>BsAdvancedFormSelect&#45;&gt;BsAdvancedModule</title>
<path fill="none" stroke="black" d="M984,-84.91C984,-84.91 984,-103.79 984,-103.79"/>
<polygon fill="black" stroke="black" points="980.5,-103.79 984,-113.79 987.5,-103.79 980.5,-103.79"/>
</g>
<!-- BsAdvancedFormValidation -->
<g id="node8" class="node">
<title>BsAdvancedFormValidation</title>
<polygon fill="#ffffb3" stroke="black" points="889.46,-84.8 712.54,-84.8 712.54,-48.8 889.46,-48.8 889.46,-84.8"/>
<text text-anchor="middle" x="801" y="-62.6" font-family="Times,serif" font-size="14.00">BsAdvancedFormValidation</text>
</g>
<!-- BsAdvancedFormValidation&#45;&gt;BsAdvancedModule -->
<g id="edge8" class="edge">
<title>BsAdvancedFormValidation&#45;&gt;BsAdvancedModule</title>
<path fill="none" stroke="black" d="M784.07,-84.85C784.07,-99.17 784.07,-116.8 784.07,-116.8 784.07,-116.8 908.26,-116.8 908.26,-116.8"/>
<polygon fill="black" stroke="black" points="908.26,-120.3 918.26,-116.8 908.26,-113.3 908.26,-120.3"/>
</g>
<!-- BsDatePicker -->
<g id="node9" class="node">
<title>BsDatePicker</title>
<polygon fill="#ffffb3" stroke="black" points="694.47,-84.8 601.53,-84.8 601.53,-48.8 694.47,-48.8 694.47,-84.8"/>
<text text-anchor="middle" x="648" y="-62.6" font-family="Times,serif" font-size="14.00">BsDatePicker</text>
</g>
<!-- BsDatePicker&#45;&gt;BsAdvancedModule -->
<g id="edge9" class="edge">
<title>BsDatePicker&#45;&gt;BsAdvancedModule</title>
<path fill="none" stroke="black" d="M648,-85.04C648,-100.37 648,-119.8 648,-119.8 648,-119.8 908.42,-119.8 908.42,-119.8"/>
<polygon fill="black" stroke="black" points="908.42,-123.3 918.42,-119.8 908.42,-116.3 908.42,-123.3"/>
</g>
<!-- BsDateRangePicker -->
<g id="node10" class="node">
<title>BsDateRangePicker</title>
<polygon fill="#ffffb3" stroke="black" points="583.24,-84.8 454.76,-84.8 454.76,-48.8 583.24,-48.8 583.24,-84.8"/>
<text text-anchor="middle" x="519" y="-62.6" font-family="Times,serif" font-size="14.00">BsDateRangePicker</text>
</g>
<!-- BsDateRangePicker&#45;&gt;BsAdvancedModule -->
<g id="edge10" class="edge">
<title>BsDateRangePicker&#45;&gt;BsAdvancedModule</title>
<path fill="none" stroke="black" d="M558.57,-84.83C558.57,-101.2 558.57,-122.8 558.57,-122.8 558.57,-122.8 908.46,-122.8 908.46,-122.8"/>
<polygon fill="black" stroke="black" points="908.46,-126.3 918.46,-122.8 908.46,-119.3 908.46,-126.3"/>
</g>
<!-- BsSelectComponent -->
<g id="node11" class="node">
<title>BsSelectComponent</title>
<polygon fill="#ffffb3" stroke="black" points="436.32,-84.8 305.68,-84.8 305.68,-48.8 436.32,-48.8 436.32,-84.8"/>
<text text-anchor="middle" x="371" y="-62.6" font-family="Times,serif" font-size="14.00">BsSelectComponent</text>
</g>
<!-- BsSelectComponent&#45;&gt;BsAdvancedModule -->
<g id="edge11" class="edge">
<title>BsSelectComponent&#45;&gt;BsAdvancedModule</title>
<path fill="none" stroke="black" d="M427.96,-84.82C427.96,-102.17 427.96,-125.8 427.96,-125.8 427.96,-125.8 908.31,-125.8 908.31,-125.8"/>
<polygon fill="black" stroke="black" points="908.31,-129.3 918.31,-125.8 908.31,-122.3 908.31,-129.3"/>
</g>
<!-- BsAdvancedFormAutocomplete  -->
<g id="node15" class="node">
<title>BsAdvancedFormAutocomplete </title>
<polygon fill="#fb8072" stroke="black" points="2126.18,-214.8 1925.82,-214.8 1925.82,-178.8 2126.18,-178.8 2126.18,-214.8"/>
<text text-anchor="middle" x="2026" y="-192.6" font-family="Times,serif" font-size="14.00">BsAdvancedFormAutocomplete </text>
</g>
<!-- BsAdvancedModule&#45;&gt;BsAdvancedFormAutocomplete  -->
<g id="edge14" class="edge">
<title>BsAdvancedModule&#45;&gt;BsAdvancedFormAutocomplete </title>
<path fill="none" stroke="black" stroke-dasharray="5,2" d="M1049.87,-134.8C1274.07,-134.8 1993.79,-134.8 1993.79,-134.8 1993.79,-134.8 1993.79,-168.53 1993.79,-168.53"/>
<polygon fill="black" stroke="black" points="1990.29,-168.53 1993.79,-178.53 1997.29,-168.53 1990.29,-168.53"/>
</g>
<!-- BsAdvancedFormAutocompleteMultiInput  -->
<g id="node16" class="node">
<title>BsAdvancedFormAutocompleteMultiInput </title>
<polygon fill="#fb8072" stroke="black" points="1907.85,-214.8 1646.15,-214.8 1646.15,-178.8 1907.85,-178.8 1907.85,-214.8"/>
<text text-anchor="middle" x="1777" y="-192.6" font-family="Times,serif" font-size="14.00">BsAdvancedFormAutocompleteMultiInput </text>
</g>
<!-- BsAdvancedModule&#45;&gt;BsAdvancedFormAutocompleteMultiInput  -->
<g id="edge15" class="edge">
<title>BsAdvancedModule&#45;&gt;BsAdvancedFormAutocompleteMultiInput </title>
<path fill="none" stroke="black" stroke-dasharray="5,2" d="M1049.63,-137.8C1229.38,-137.8 1716.32,-137.8 1716.32,-137.8 1716.32,-137.8 1716.32,-168.78 1716.32,-168.78"/>
<polygon fill="black" stroke="black" points="1712.82,-168.78 1716.32,-178.78 1719.82,-168.78 1712.82,-168.78"/>
</g>
<!-- BsAdvancedFormCheckbox  -->
<g id="node17" class="node">
<title>BsAdvancedFormCheckbox </title>
<polygon fill="#fb8072" stroke="black" points="1628.13,-214.8 1449.87,-214.8 1449.87,-178.8 1628.13,-178.8 1628.13,-214.8"/>
<text text-anchor="middle" x="1539" y="-192.6" font-family="Times,serif" font-size="14.00">BsAdvancedFormCheckbox </text>
</g>
<!-- BsAdvancedModule&#45;&gt;BsAdvancedFormCheckbox  -->
<g id="edge16" class="edge">
<title>BsAdvancedModule&#45;&gt;BsAdvancedFormCheckbox </title>
<path fill="none" stroke="black" stroke-dasharray="5,2" d="M1049.6,-140.8C1188.13,-140.8 1497.86,-140.8 1497.86,-140.8 1497.86,-140.8 1497.86,-168.77 1497.86,-168.77"/>
<polygon fill="black" stroke="black" points="1494.36,-168.77 1497.86,-178.77 1501.36,-168.77 1494.36,-168.77"/>
</g>
<!-- BsAdvancedFormInput  -->
<g id="node18" class="node">
<title>BsAdvancedFormInput </title>
<polygon fill="#fb8072" stroke="black" points="1431.42,-214.8 1280.58,-214.8 1280.58,-178.8 1431.42,-178.8 1431.42,-214.8"/>
<text text-anchor="middle" x="1356" y="-192.6" font-family="Times,serif" font-size="14.00">BsAdvancedFormInput </text>
</g>
<!-- BsAdvancedModule&#45;&gt;BsAdvancedFormInput  -->
<g id="edge17" class="edge">
<title>BsAdvancedModule&#45;&gt;BsAdvancedFormInput </title>
<path fill="none" stroke="black" stroke-dasharray="5,2" d="M1049.79,-143.8C1156.23,-143.8 1354.4,-143.8 1354.4,-143.8 1354.4,-143.8 1354.4,-168.56 1354.4,-168.56"/>
<polygon fill="black" stroke="black" points="1350.9,-168.56 1354.4,-178.56 1357.9,-168.56 1350.9,-168.56"/>
</g>
<!-- BsAdvancedFormMultiInput  -->
<g id="node19" class="node">
<title>BsAdvancedFormMultiInput </title>
<polygon fill="#fb8072" stroke="black" points="1263.03,-214.8 1080.97,-214.8 1080.97,-178.8 1263.03,-178.8 1263.03,-214.8"/>
<text text-anchor="middle" x="1172" y="-192.6" font-family="Times,serif" font-size="14.00">BsAdvancedFormMultiInput </text>
</g>
<!-- BsAdvancedModule&#45;&gt;BsAdvancedFormMultiInput  -->
<g id="edge18" class="edge">
<title>BsAdvancedModule&#45;&gt;BsAdvancedFormMultiInput </title>
<path fill="none" stroke="black" stroke-dasharray="5,2" d="M1049.88,-146.8C1089.09,-146.8 1131.26,-146.8 1131.26,-146.8 1131.26,-146.8 1131.26,-168.75 1131.26,-168.75"/>
<polygon fill="black" stroke="black" points="1127.76,-168.75 1131.26,-178.75 1134.76,-168.75 1127.76,-168.75"/>
</g>
<!-- BsAdvancedFormRange  -->
<g id="node20" class="node">
<title>BsAdvancedFormRange </title>
<polygon fill="#fb8072" stroke="black" points="1062.63,-214.8 905.37,-214.8 905.37,-178.8 1062.63,-178.8 1062.63,-214.8"/>
<text text-anchor="middle" x="984" y="-192.6" font-family="Times,serif" font-size="14.00">BsAdvancedFormRange </text>
</g>
<!-- BsAdvancedModule&#45;&gt;BsAdvancedFormRange  -->
<g id="edge19" class="edge">
<title>BsAdvancedModule&#45;&gt;BsAdvancedFormRange </title>
<path fill="none" stroke="black" stroke-dasharray="5,2" d="M984,-149.91C984,-149.91 984,-168.79 984,-168.79"/>
<polygon fill="black" stroke="black" points="980.5,-168.79 984,-178.79 987.5,-168.79 980.5,-168.79"/>
</g>
<!-- BsAdvancedFormSelect  -->
<g id="node21" class="node">
<title>BsAdvancedFormSelect </title>
<polygon fill="#fb8072" stroke="black" points="887.57,-214.8 732.43,-214.8 732.43,-178.8 887.57,-178.8 887.57,-214.8"/>
<text text-anchor="middle" x="810" y="-192.6" font-family="Times,serif" font-size="14.00">BsAdvancedFormSelect </text>
</g>
<!-- BsAdvancedModule&#45;&gt;BsAdvancedFormSelect  -->
<g id="edge20" class="edge">
<title>BsAdvancedModule&#45;&gt;BsAdvancedFormSelect </title>
<path fill="none" stroke="black" stroke-dasharray="5,2" d="M918.19,-146.8C878.65,-146.8 835.93,-146.8 835.93,-146.8 835.93,-146.8 835.93,-168.75 835.93,-168.75"/>
<polygon fill="black" stroke="black" points="832.43,-168.75 835.93,-178.75 839.43,-168.75 832.43,-168.75"/>
</g>
<!-- BsAdvancedFormValidation  -->
<g id="node22" class="node">
<title>BsAdvancedFormValidation </title>
<polygon fill="#fb8072" stroke="black" points="714.46,-214.8 533.54,-214.8 533.54,-178.8 714.46,-178.8 714.46,-214.8"/>
<text text-anchor="middle" x="624" y="-192.6" font-family="Times,serif" font-size="14.00">BsAdvancedFormValidation </text>
</g>
<!-- BsAdvancedModule&#45;&gt;BsAdvancedFormValidation  -->
<g id="edge21" class="edge">
<title>BsAdvancedModule&#45;&gt;BsAdvancedFormValidation </title>
<path fill="none" stroke="black" stroke-dasharray="5,2" d="M918.24,-143.8C835.33,-143.8 703.5,-143.8 703.5,-143.8 703.5,-143.8 703.5,-168.56 703.5,-168.56"/>
<polygon fill="black" stroke="black" points="700,-168.56 703.5,-178.56 707,-168.56 700,-168.56"/>
</g>
<!-- BsDatePicker  -->
<g id="node23" class="node">
<title>BsDatePicker </title>
<polygon fill="#fb8072" stroke="black" points="516.47,-214.8 419.53,-214.8 419.53,-178.8 516.47,-178.8 516.47,-214.8"/>
<text text-anchor="middle" x="468" y="-192.6" font-family="Times,serif" font-size="14.00">BsDatePicker </text>
</g>
<!-- BsAdvancedModule&#45;&gt;BsDatePicker  -->
<g id="edge22" class="edge">
<title>BsAdvancedModule&#45;&gt;BsDatePicker </title>
<path fill="none" stroke="black" stroke-dasharray="5,2" d="M918.31,-140.8C782.93,-140.8 485.43,-140.8 485.43,-140.8 485.43,-140.8 485.43,-168.77 485.43,-168.77"/>
<polygon fill="black" stroke="black" points="481.93,-168.77 485.43,-178.77 488.93,-168.77 481.93,-168.77"/>
</g>
<!-- BsDateRangePicker  -->
<g id="node24" class="node">
<title>BsDateRangePicker </title>
<polygon fill="#fb8072" stroke="black" points="402.24,-214.8 269.76,-214.8 269.76,-178.8 402.24,-178.8 402.24,-214.8"/>
<text text-anchor="middle" x="336" y="-192.6" font-family="Times,serif" font-size="14.00">BsDateRangePicker </text>
</g>
<!-- BsAdvancedModule&#45;&gt;BsDateRangePicker  -->
<g id="edge23" class="edge">
<title>BsAdvancedModule&#45;&gt;BsDateRangePicker </title>
<path fill="none" stroke="black" stroke-dasharray="5,2" d="M918.36,-137.8C757,-137.8 353.98,-137.8 353.98,-137.8 353.98,-137.8 353.98,-168.78 353.98,-168.78"/>
<polygon fill="black" stroke="black" points="350.48,-168.78 353.98,-178.78 357.48,-168.78 350.48,-168.78"/>
</g>
<!-- BsSelectComponent  -->
<g id="node25" class="node">
<title>BsSelectComponent </title>
<polygon fill="#fb8072" stroke="black" points="251.82,-214.8 118.18,-214.8 118.18,-178.8 251.82,-178.8 251.82,-214.8"/>
<text text-anchor="middle" x="185" y="-192.6" font-family="Times,serif" font-size="14.00">BsSelectComponent </text>
</g>
<!-- BsAdvancedModule&#45;&gt;BsSelectComponent  -->
<g id="edge24" class="edge">
<title>BsAdvancedModule&#45;&gt;BsSelectComponent </title>
<path fill="none" stroke="black" stroke-dasharray="5,2" d="M918.35,-134.8C728.13,-134.8 190.04,-134.8 190.04,-134.8 190.04,-134.8 190.04,-168.53 190.04,-168.53"/>
<polygon fill="black" stroke="black" points="186.54,-168.53 190.04,-178.53 193.54,-168.53 186.54,-168.53"/>
</g>
<!-- BsAutocompleteModule -->
<g id="node13" class="node">
<title>BsAutocompleteModule</title>
<polygon fill="#8dd3c7" stroke="black" points="281.64,-84.8 278.64,-88.8 257.64,-88.8 254.64,-84.8 128.36,-84.8 128.36,-48.8 281.64,-48.8 281.64,-84.8"/>
<text text-anchor="middle" x="205" y="-62.6" font-family="Times,serif" font-size="14.00">BsAutocompleteModule</text>
</g>
<!-- BsAutocompleteModule&#45;&gt;BsAdvancedModule -->
<g id="edge12" class="edge">
<title>BsAutocompleteModule&#45;&gt;BsAdvancedModule</title>
<path fill="none" stroke="black" d="M275.85,-85.07C275.85,-103.36 275.85,-128.8 275.85,-128.8 275.85,-128.8 908.33,-128.8 908.33,-128.8"/>
<polygon fill="black" stroke="black" points="908.33,-132.3 918.33,-128.8 908.33,-125.3 908.33,-132.3"/>
</g>
<!-- UtilsModule -->
<g id="node14" class="node">
<title>UtilsModule</title>
<polygon fill="#8dd3c7" stroke="black" points="110.27,-84.8 107.27,-88.8 86.27,-88.8 83.27,-84.8 23.73,-84.8 23.73,-48.8 110.27,-48.8 110.27,-84.8"/>
<text text-anchor="middle" x="67" y="-62.6" font-family="Times,serif" font-size="14.00">UtilsModule</text>
</g>
<!-- UtilsModule&#45;&gt;BsAdvancedModule -->
<g id="edge13" class="edge">
<title>UtilsModule&#45;&gt;BsAdvancedModule</title>
<path fill="none" stroke="black" d="M67,-84.91C67,-104.14 67,-131.8 67,-131.8 67,-131.8 908.42,-131.8 908.42,-131.8"/>
<polygon fill="black" stroke="black" points="908.42,-135.3 918.42,-131.8 908.42,-128.3 908.42,-135.3"/>
</g>
</g>
</svg>
