<?xml version="1.0" encoding="UTF-8" standalone="no"?>
<!DOCTYPE svg PUBLIC "-//W3C//DTD SVG 1.1//EN"
 "http://www.w3.org/Graphics/SVG/1.1/DTD/svg11.dtd">
<!-- Generated by graphviz version 2.47.3 (20210619.1520)
 -->
<!-- Title: dependencies Pages: 1 -->
<svg width="880pt" height="247pt"
 viewBox="0.00 0.00 880.00 246.80" xmlns="http://www.w3.org/2000/svg" xmlns:xlink="http://www.w3.org/1999/xlink">
<g id="graph0" class="graph" transform="scale(1 1) rotate(0) translate(4 242.8)">
<title>dependencies</title>
<polygon fill="white" stroke="transparent" points="-4,4 -4,-242.8 876,-242.8 876,4 -4,4"/>
<text text-anchor="middle" x="436" y="-8.2" font-family="sans-serif" font-size="14.00">dependencies</text>
<g id="clust1" class="cluster">
<title>cluster_BsUserSettingsModule</title>
<polygon fill="none" stroke="black" stroke-dasharray="1,5" points="8,-32.8 8,-230.8 864,-230.8 864,-32.8 8,-32.8"/>
</g>
<g id="clust6" class="cluster">
<title>cluster_BsUserSettingsModule_imports</title>
<polygon fill="none" stroke="black" points="494,-40.8 494,-92.8 856,-92.8 856,-40.8 494,-40.8"/>
</g>
<g id="clust2" class="cluster">
<title>cluster_BsUserSettingsModule_declarations</title>
<polygon fill="none" stroke="black" points="16,-40.8 16,-92.8 486,-92.8 486,-40.8 16,-40.8"/>
</g>
<g id="clust7" class="cluster">
<title>cluster_BsUserSettingsModule_exports</title>
<polygon fill="none" stroke="black" points="234,-170.8 234,-222.8 715,-222.8 715,-170.8 234,-170.8"/>
</g>
<!-- BsEditUserSettings -->
<g id="node1" class="node">
<title>BsEditUserSettings</title>
<polygon fill="#ffffb3" stroke="black" points="477.66,-84.8 352.34,-84.8 352.34,-48.8 477.66,-48.8 477.66,-84.8"/>
<text text-anchor="middle" x="415" y="-62.6" font-family="Times,serif" font-size="14.00">BsEditUserSettings</text>
</g>
<!-- BsUserSettingsModule -->
<g id="node4" class="node">
<title>BsUserSettingsModule</title>
<polygon fill="#8dd3c7" stroke="black" points="552.87,-149.8 549.87,-153.8 528.87,-153.8 525.87,-149.8 407.13,-149.8 407.13,-113.8 552.87,-113.8 552.87,-149.8"/>
<text text-anchor="middle" x="480" y="-127.6" font-family="Times,serif" font-size="14.00">BsUserSettingsModule</text>
</g>
<!-- BsEditUserSettings&#45;&gt;BsUserSettingsModule -->
<g id="edge1" class="edge">
<title>BsEditUserSettings&#45;&gt;BsUserSettingsModule</title>
<path fill="none" stroke="black" d="M442.45,-84.91C442.45,-84.91 442.45,-103.79 442.45,-103.79"/>
<polygon fill="black" stroke="black" points="438.95,-103.79 442.45,-113.79 445.95,-103.79 438.95,-103.79"/>
</g>
<!-- BsUserMenuComponent -->
<g id="node2" class="node">
<title>BsUserMenuComponent</title>
<polygon fill="#ffffb3" stroke="black" points="334.7,-84.8 179.3,-84.8 179.3,-48.8 334.7,-48.8 334.7,-84.8"/>
<text text-anchor="middle" x="257" y="-62.6" font-family="Times,serif" font-size="14.00">BsUserMenuComponent</text>
</g>
<!-- BsUserMenuComponent&#45;&gt;BsUserSettingsModule -->
<g id="edge2" class="edge">
<title>BsUserMenuComponent&#45;&gt;BsUserSettingsModule</title>
<path fill="none" stroke="black" d="M288.1,-84.83C288.1,-101.2 288.1,-122.8 288.1,-122.8 288.1,-122.8 396.9,-122.8 396.9,-122.8"/>
<polygon fill="black" stroke="black" points="396.9,-126.3 406.9,-122.8 396.9,-119.3 396.9,-126.3"/>
</g>
<!-- BsUserSettingsEditor -->
<g id="node3" class="node">
<title>BsUserSettingsEditor</title>
<polygon fill="#ffffb3" stroke="black" points="161.82,-84.8 24.18,-84.8 24.18,-48.8 161.82,-48.8 161.82,-84.8"/>
<text text-anchor="middle" x="93" y="-62.6" font-family="Times,serif" font-size="14.00">BsUserSettingsEditor</text>
</g>
<!-- BsUserSettingsEditor&#45;&gt;BsUserSettingsModule -->
<g id="edge3" class="edge">
<title>BsUserSettingsEditor&#45;&gt;BsUserSettingsModule</title>
<path fill="none" stroke="black" d="M93,-84.91C93,-104.14 93,-131.8 93,-131.8 93,-131.8 396.75,-131.8 396.75,-131.8"/>
<polygon fill="black" stroke="black" points="396.75,-135.3 406.75,-131.8 396.75,-128.3 396.75,-135.3"/>
</g>
<!-- BsEditUserSettings  -->
<g id="node8" class="node">
<title>BsEditUserSettings </title>
<polygon fill="#fb8072" stroke="black" points="706.66,-214.8 577.34,-214.8 577.34,-178.8 706.66,-178.8 706.66,-214.8"/>
<text text-anchor="middle" x="642" y="-192.6" font-family="Times,serif" font-size="14.00">BsEditUserSettings </text>
</g>
<!-- BsUserSettingsModule&#45;&gt;BsEditUserSettings  -->
<g id="edge7" class="edge">
<title>BsUserSettingsModule&#45;&gt;BsEditUserSettings </title>
<path fill="none" stroke="black" stroke-dasharray="5,2" d="M553.14,-140.8C569.9,-140.8 582.9,-140.8 582.9,-140.8 582.9,-140.8 582.9,-168.77 582.9,-168.77"/>
<polygon fill="black" stroke="black" points="579.4,-168.77 582.9,-178.77 586.4,-168.77 579.4,-168.77"/>
</g>
<!-- BsUserMenuComponent  -->
<g id="node9" class="node">
<title>BsUserMenuComponent </title>
<polygon fill="#fb8072" stroke="black" points="559.2,-214.8 400.8,-214.8 400.8,-178.8 559.2,-178.8 559.2,-214.8"/>
<text text-anchor="middle" x="480" y="-192.6" font-family="Times,serif" font-size="14.00">BsUserMenuComponent </text>
</g>
<!-- BsUserSettingsModule&#45;&gt;BsUserMenuComponent  -->
<g id="edge8" class="edge">
<title>BsUserSettingsModule&#45;&gt;BsUserMenuComponent </title>
<path fill="none" stroke="black" stroke-dasharray="5,2" d="M480,-149.91C480,-149.91 480,-168.79 480,-168.79"/>
<polygon fill="black" stroke="black" points="476.5,-168.79 480,-178.79 483.5,-168.79 476.5,-168.79"/>
</g>
<!-- BsUserSettingsEditor  -->
<g id="node10" class="node">
<title>BsUserSettingsEditor </title>
<polygon fill="#fb8072" stroke="black" points="382.32,-214.8 241.68,-214.8 241.68,-178.8 382.32,-178.8 382.32,-214.8"/>
<text text-anchor="middle" x="312" y="-192.6" font-family="Times,serif" font-size="14.00">BsUserSettingsEditor </text>
</g>
<!-- BsUserSettingsModule&#45;&gt;BsUserSettingsEditor  -->
<g id="edge9" class="edge">
<title>BsUserSettingsModule&#45;&gt;BsUserSettingsEditor </title>
<path fill="none" stroke="black" stroke-dasharray="5,2" d="M407.03,-140.8C385.36,-140.8 367.29,-140.8 367.29,-140.8 367.29,-140.8 367.29,-168.77 367.29,-168.77"/>
<polygon fill="black" stroke="black" points="363.79,-168.77 367.29,-178.77 370.79,-168.77 363.79,-168.77"/>
</g>
<!-- BsActionModule -->
<g id="node5" class="node">
<title>BsActionModule</title>
<polygon fill="#8dd3c7" stroke="black" points="848.43,-84.8 845.43,-88.8 824.43,-88.8 821.43,-84.8 735.57,-84.8 735.57,-48.8 848.43,-48.8 848.43,-84.8"/>
<text text-anchor="middle" x="792" y="-62.6" font-family="Times,serif" font-size="14.00">BsActionModule</text>
</g>
<!-- BsActionModule&#45;&gt;BsUserSettingsModule -->
<g id="edge4" class="edge">
<title>BsActionModule&#45;&gt;BsUserSettingsModule</title>
<path fill="none" stroke="black" d="M792,-84.91C792,-104.14 792,-131.8 792,-131.8 792,-131.8 563.15,-131.8 563.15,-131.8"/>
<polygon fill="black" stroke="black" points="563.15,-128.3 553.15,-131.8 563.15,-135.3 563.15,-128.3"/>
</g>
<!-- BsModalModule -->
<g id="node6" class="node">
<title>BsModalModule</title>
<polygon fill="#8dd3c7" stroke="black" points="717.38,-84.8 714.38,-88.8 693.38,-88.8 690.38,-84.8 606.62,-84.8 606.62,-48.8 717.38,-48.8 717.38,-84.8"/>
<text text-anchor="middle" x="662" y="-62.6" font-family="Times,serif" font-size="14.00">BsModalModule</text>
</g>
<!-- BsModalModule&#45;&gt;BsUserSettingsModule -->
<g id="edge5" class="edge">
<title>BsModalModule&#45;&gt;BsUserSettingsModule</title>
<path fill="none" stroke="black" d="M656.57,-84.83C656.57,-101.2 656.57,-122.8 656.57,-122.8 656.57,-122.8 563.09,-122.8 563.09,-122.8"/>
<polygon fill="black" stroke="black" points="563.09,-119.3 553.09,-122.8 563.09,-126.3 563.09,-119.3"/>
</g>
<!-- UtilsModule -->
<g id="node7" class="node">
<title>UtilsModule</title>
<polygon fill="#8dd3c7" stroke="black" points="588.27,-84.8 585.27,-88.8 564.27,-88.8 561.27,-84.8 501.73,-84.8 501.73,-48.8 588.27,-48.8 588.27,-84.8"/>
<text text-anchor="middle" x="545" y="-62.6" font-family="Times,serif" font-size="14.00">UtilsModule</text>
</g>
<!-- UtilsModule&#45;&gt;BsUserSettingsModule -->
<g id="edge6" class="edge">
<title>UtilsModule&#45;&gt;BsUserSettingsModule</title>
<path fill="none" stroke="black" d="M527.27,-84.91C527.27,-84.91 527.27,-103.79 527.27,-103.79"/>
<polygon fill="black" stroke="black" points="523.77,-103.79 527.27,-113.79 530.77,-103.79 523.77,-103.79"/>
</g>
</g>
</svg>
