<?xml version="1.0" encoding="UTF-8" standalone="no"?>
<!DOCTYPE svg PUBLIC "-//W3C//DTD SVG 1.1//EN"
 "http://www.w3.org/Graphics/SVG/1.1/DTD/svg11.dtd">
<!-- Generated by graphviz version 2.40.1 (20161225.0304)
 -->
<!-- Title: dependencies Pages: 1 -->
<svg width="504pt" height="211pt"
 viewBox="0.00 0.00 504.00 211.00" xmlns="http://www.w3.org/2000/svg" xmlns:xlink="http://www.w3.org/1999/xlink">
<g id="graph0" class="graph" transform="scale(1 1) rotate(0) translate(4 207)">
<title>dependencies</title>
<polygon fill="#ffffff" stroke="transparent" points="-4,4 -4,-207 500,-207 500,4 -4,4"/>
<text text-anchor="start" x="227.0091" y="-42.4" font-family="sans-serif" font-weight="bold" font-size="14.00" fill="#000000">Legend</text>
<polygon fill="#ffffb3" stroke="transparent" points="14,-10 14,-30 34,-30 34,-10 14,-10"/>
<text text-anchor="start" x="37.629" y="-15.4" font-family="sans-serif" font-size="14.00" fill="#000000"> &#160;Declarations</text>
<polygon fill="#8dd3c7" stroke="transparent" points="127,-10 127,-30 147,-30 147,-10 127,-10"/>
<text text-anchor="start" x="150.7251" y="-15.4" font-family="sans-serif" font-size="14.00" fill="#000000"> &#160;Module</text>
<polygon fill="#80b1d3" stroke="transparent" points="213,-10 213,-30 233,-30 233,-10 213,-10"/>
<text text-anchor="start" x="236.7812" y="-15.4" font-family="sans-serif" font-size="14.00" fill="#000000"> &#160;Bootstrap</text>
<polygon fill="#fdb462" stroke="transparent" points="310,-10 310,-30 330,-30 330,-10 310,-10"/>
<text text-anchor="start" x="333.6732" y="-15.4" font-family="sans-serif" font-size="14.00" fill="#000000"> &#160;Providers</text>
<polygon fill="#fb8072" stroke="transparent" points="406,-10 406,-30 426,-30 426,-10 406,-10"/>
<text text-anchor="start" x="429.7258" y="-15.4" font-family="sans-serif" font-size="14.00" fill="#000000"> &#160;Exports</text>
<g id="clust1" class="cluster">
<title>cluster_MLModule</title>
<polygon fill="none" stroke="#000000" stroke-dasharray="1,5" points="124,-70 124,-195 372,-195 372,-70 124,-70"/>
</g>
<g id="clust2" class="cluster">
<title>cluster_MLModule_declarations</title>
<polygon fill="none" stroke="#000000" points="268,-78 268,-130 364,-130 364,-78 268,-78"/>
</g>
<g id="clust4" class="cluster">
<title>cluster_MLModule_imports</title>
<polygon fill="none" stroke="#000000" points="132,-78 132,-130 260,-130 260,-78 132,-78"/>
</g>
<!-- DwellTime -->
<g id="node1" class="node">
<title>DwellTime</title>
<polygon fill="#ffffb3" stroke="#000000" points="355.7578,-122 276.2422,-122 276.2422,-86 355.7578,-86 355.7578,-122"/>
<text text-anchor="middle" x="316" y="-99.8" font-family="Times,serif" font-size="14.00" fill="#000000">DwellTime</text>
</g>
<!-- MLModule -->
<g id="node2" class="node">
<title>MLModule</title>
<polygon fill="#8dd3c7" stroke="#000000" points="296.0483,-187 293.0483,-191 272.0483,-191 269.0483,-187 215.9517,-187 215.9517,-151 296.0483,-151 296.0483,-187"/>
<text text-anchor="middle" x="256" y="-164.8" font-family="Times,serif" font-size="14.00" fill="#000000">MLModule</text>
</g>
<!-- DwellTime&#45;&gt;MLModule -->
<g id="edge1" class="edge">
<title>DwellTime&#45;&gt;MLModule</title>
<path fill="none" stroke="#000000" d="M286.1974,-122.1061C286.1974,-122.1061 286.1974,-140.991 286.1974,-140.991"/>
<polygon fill="#000000" stroke="#000000" points="282.6975,-140.9909 286.1974,-150.991 289.6975,-140.991 282.6975,-140.9909"/>
</g>
<!-- BsSearchModule -->
<g id="node3" class="node">
<title>BsSearchModule</title>
<polygon fill="#8dd3c7" stroke="#000000" points="252.4188,-122 249.4188,-126 228.4188,-126 225.4188,-122 139.5812,-122 139.5812,-86 252.4188,-86 252.4188,-122"/>
<text text-anchor="middle" x="196" y="-99.8" font-family="Times,serif" font-size="14.00" fill="#000000">BsSearchModule</text>
</g>
<!-- BsSearchModule&#45;&gt;MLModule -->
<g id="edge2" class="edge">
<title>BsSearchModule&#45;&gt;MLModule</title>
<path fill="none" stroke="#000000" d="M233.9678,-122.1061C233.9678,-122.1061 233.9678,-140.991 233.9678,-140.991"/>
<polygon fill="#000000" stroke="#000000" points="230.4678,-140.9909 233.9678,-150.991 237.4678,-140.991 230.4678,-140.9909"/>
</g>
</g>
</svg>
