<?xml version="1.0" encoding="UTF-8" standalone="no"?>
<!DOCTYPE svg PUBLIC "-//W3C//DTD SVG 1.1//EN"
 "http://www.w3.org/Graphics/SVG/1.1/DTD/svg11.dtd">
<!-- Generated by graphviz version 2.47.3 (20210619.1520)
 -->
<!-- Title: dependencies Pages: 1 -->
<svg width="272pt" height="174pt"
 viewBox="0.00 0.00 272.00 173.80" xmlns="http://www.w3.org/2000/svg" xmlns:xlink="http://www.w3.org/1999/xlink">
<g id="graph0" class="graph" transform="scale(1 1) rotate(0) translate(4 169.8)">
<title>dependencies</title>
<polygon fill="white" stroke="transparent" points="-4,4 -4,-169.8 268,-169.8 268,4 -4,4"/>
<text text-anchor="middle" x="132" y="-8.2" font-family="sans-serif" font-size="14.00">dependencies</text>
<g id="clust1" class="cluster">
<title>cluster_MLModule</title>
<polygon fill="none" stroke="black" stroke-dasharray="1,5" points="8,-32.8 8,-157.8 256,-157.8 256,-32.8 8,-32.8"/>
</g>
<g id="clust2" class="cluster">
<title>cluster_MLModule_declarations</title>
<polygon fill="none" stroke="black" points="152,-40.8 152,-92.8 248,-92.8 248,-40.8 152,-40.8"/>
</g>
<g id="clust4" class="cluster">
<title>cluster_MLModule_imports</title>
<polygon fill="none" stroke="black" points="16,-40.8 16,-92.8 144,-92.8 144,-40.8 16,-40.8"/>
</g>
<!-- DwellTime -->
<g id="node1" class="node">
<title>DwellTime</title>
<polygon fill="#ffffb3" stroke="black" points="239.76,-84.8 160.24,-84.8 160.24,-48.8 239.76,-48.8 239.76,-84.8"/>
<text text-anchor="middle" x="200" y="-62.6" font-family="Times,serif" font-size="14.00">DwellTime</text>
</g>
<!-- MLModule -->
<g id="node2" class="node">
<title>MLModule</title>
<polygon fill="#8dd3c7" stroke="black" points="180.05,-149.8 177.05,-153.8 156.05,-153.8 153.05,-149.8 99.95,-149.8 99.95,-113.8 180.05,-113.8 180.05,-149.8"/>
<text text-anchor="middle" x="140" y="-127.6" font-family="Times,serif" font-size="14.00">MLModule</text>
</g>
<!-- DwellTime&#45;&gt;MLModule -->
<g id="edge1" class="edge">
<title>DwellTime&#45;&gt;MLModule</title>
<path fill="none" stroke="black" d="M170.2,-84.91C170.2,-84.91 170.2,-103.79 170.2,-103.79"/>
<polygon fill="black" stroke="black" points="166.7,-103.79 170.2,-113.79 173.7,-103.79 166.7,-103.79"/>
</g>
<!-- BsSearchModule -->
<g id="node3" class="node">
<title>BsSearchModule</title>
<polygon fill="#8dd3c7" stroke="black" points="136.42,-84.8 133.42,-88.8 112.42,-88.8 109.42,-84.8 23.58,-84.8 23.58,-48.8 136.42,-48.8 136.42,-84.8"/>
<text text-anchor="middle" x="80" y="-62.6" font-family="Times,serif" font-size="14.00">BsSearchModule</text>
</g>
<!-- BsSearchModule&#45;&gt;MLModule -->
<g id="edge2" class="edge">
<title>BsSearchModule&#45;&gt;MLModule</title>
<path fill="none" stroke="black" d="M117.97,-84.91C117.97,-84.91 117.97,-103.79 117.97,-103.79"/>
<polygon fill="black" stroke="black" points="114.47,-103.79 117.97,-113.79 121.47,-103.79 114.47,-103.79"/>
</g>
</g>
</svg>
