<?xml version="1.0" encoding="UTF-8" standalone="no"?>
<!DOCTYPE svg PUBLIC "-//W3C//DTD SVG 1.1//EN"
 "http://www.w3.org/Graphics/SVG/1.1/DTD/svg11.dtd">
<!-- Generated by graphviz version 2.47.3 (20210619.1520)
 -->
<!-- Title: dependencies Pages: 1 -->
<svg width="770pt" height="247pt"
 viewBox="0.00 0.00 770.00 246.80" xmlns="http://www.w3.org/2000/svg" xmlns:xlink="http://www.w3.org/1999/xlink">
<g id="graph0" class="graph" transform="scale(1 1) rotate(0) translate(4 242.8)">
<title>dependencies</title>
<polygon fill="white" stroke="transparent" points="-4,4 -4,-242.8 766,-242.8 766,4 -4,4"/>
<text text-anchor="middle" x="381" y="-8.2" font-family="sans-serif" font-size="14.00">dependencies</text>
<g id="clust1" class="cluster">
<title>cluster_MLModule</title>
<polygon fill="none" stroke="black" stroke-dasharray="1,5" points="8,-32.8 8,-230.8 754,-230.8 754,-32.8 8,-32.8"/>
</g>
<g id="clust7" class="cluster">
<title>cluster_MLModule_exports</title>
<polygon fill="none" stroke="black" points="66,-170.8 66,-222.8 582,-222.8 582,-170.8 66,-170.8"/>
</g>
<g id="clust2" class="cluster">
<title>cluster_MLModule_declarations</title>
<polygon fill="none" stroke="black" points="240,-40.8 240,-92.8 746,-92.8 746,-40.8 240,-40.8"/>
</g>
<g id="clust6" class="cluster">
<title>cluster_MLModule_imports</title>
<polygon fill="none" stroke="black" points="16,-40.8 16,-92.8 232,-92.8 232,-40.8 16,-40.8"/>
</g>
<!-- AnswerCardComponent -->
<g id="node1" class="node">
<title>AnswerCardComponent</title>
<polygon fill="#ffffb3" stroke="black" points="738.08,-84.8 585.92,-84.8 585.92,-48.8 738.08,-48.8 738.08,-84.8"/>
<text text-anchor="middle" x="662" y="-62.6" font-family="Times,serif" font-size="14.00">AnswerCardComponent</text>
</g>
<!-- MLModule -->
<g id="node4" class="node">
<title>MLModule</title>
<polygon fill="#8dd3c7" stroke="black" points="365.05,-149.8 362.05,-153.8 341.05,-153.8 338.05,-149.8 284.95,-149.8 284.95,-113.8 365.05,-113.8 365.05,-149.8"/>
<text text-anchor="middle" x="325" y="-127.6" font-family="Times,serif" font-size="14.00">MLModule</text>
</g>
<!-- AnswerCardComponent&#45;&gt;MLModule -->
<g id="edge1" class="edge">
<title>AnswerCardComponent&#45;&gt;MLModule</title>
<path fill="none" stroke="black" d="M662,-84.91C662,-104.14 662,-131.8 662,-131.8 662,-131.8 375.32,-131.8 375.32,-131.8"/>
<polygon fill="black" stroke="black" points="375.32,-128.3 365.32,-131.8 375.32,-135.3 375.32,-128.3"/>
</g>
<!-- PassageListComponent -->
<g id="node2" class="node">
<title>PassageListComponent</title>
<polygon fill="#ffffb3" stroke="black" points="567.93,-84.8 420.07,-84.8 420.07,-48.8 567.93,-48.8 567.93,-84.8"/>
<text text-anchor="middle" x="494" y="-62.6" font-family="Times,serif" font-size="14.00">PassageListComponent</text>
</g>
<!-- PassageListComponent&#45;&gt;MLModule -->
<g id="edge2" class="edge">
<title>PassageListComponent&#45;&gt;MLModule</title>
<path fill="none" stroke="black" d="M518.57,-84.83C518.57,-101.2 518.57,-122.8 518.57,-122.8 518.57,-122.8 375.11,-122.8 375.11,-122.8"/>
<polygon fill="black" stroke="black" points="375.11,-119.3 365.11,-122.8 375.11,-126.3 375.11,-119.3"/>
</g>
<!-- TopPassagesComponent -->
<g id="node3" class="node">
<title>TopPassagesComponent</title>
<polygon fill="#ffffb3" stroke="black" points="401.65,-84.8 248.35,-84.8 248.35,-48.8 401.65,-48.8 401.65,-84.8"/>
<text text-anchor="middle" x="325" y="-62.6" font-family="Times,serif" font-size="14.00">TopPassagesComponent</text>
</g>
<!-- TopPassagesComponent&#45;&gt;MLModule -->
<g id="edge3" class="edge">
<title>TopPassagesComponent&#45;&gt;MLModule</title>
<path fill="none" stroke="black" d="M325,-84.91C325,-84.91 325,-103.79 325,-103.79"/>
<polygon fill="black" stroke="black" points="321.5,-103.79 325,-113.79 328.5,-103.79 321.5,-103.79"/>
</g>
<!-- AnswerCardComponent  -->
<g id="node7" class="node">
<title>AnswerCardComponent </title>
<polygon fill="#fb8072" stroke="black" points="573.58,-214.8 418.42,-214.8 418.42,-178.8 573.58,-178.8 573.58,-214.8"/>
<text text-anchor="middle" x="496" y="-192.6" font-family="Times,serif" font-size="14.00">AnswerCardComponent </text>
</g>
<!-- MLModule&#45;&gt;AnswerCardComponent  -->
<g id="edge6" class="edge">
<title>MLModule&#45;&gt;AnswerCardComponent </title>
<path fill="none" stroke="black" stroke-dasharray="5,2" d="M365.23,-140.8C407.97,-140.8 469.43,-140.8 469.43,-140.8 469.43,-140.8 469.43,-168.77 469.43,-168.77"/>
<polygon fill="black" stroke="black" points="465.93,-168.77 469.43,-178.77 472.93,-168.77 465.93,-168.77"/>
</g>
<!-- PassageListComponent  -->
<g id="node8" class="node">
<title>PassageListComponent </title>
<polygon fill="#fb8072" stroke="black" points="400.43,-214.8 249.57,-214.8 249.57,-178.8 400.43,-178.8 400.43,-214.8"/>
<text text-anchor="middle" x="325" y="-192.6" font-family="Times,serif" font-size="14.00">PassageListComponent </text>
</g>
<!-- MLModule&#45;&gt;PassageListComponent  -->
<g id="edge7" class="edge">
<title>MLModule&#45;&gt;PassageListComponent </title>
<path fill="none" stroke="black" stroke-dasharray="5,2" d="M325,-149.91C325,-149.91 325,-168.79 325,-168.79"/>
<polygon fill="black" stroke="black" points="321.5,-168.79 325,-178.79 328.5,-168.79 321.5,-168.79"/>
</g>
<!-- TopPassagesComponent  -->
<g id="node9" class="node">
<title>TopPassagesComponent </title>
<polygon fill="#fb8072" stroke="black" points="231.65,-214.8 74.35,-214.8 74.35,-178.8 231.65,-178.8 231.65,-214.8"/>
<text text-anchor="middle" x="153" y="-192.6" font-family="Times,serif" font-size="14.00">TopPassagesComponent </text>
</g>
<!-- MLModule&#45;&gt;TopPassagesComponent  -->
<g id="edge8" class="edge">
<title>MLModule&#45;&gt;TopPassagesComponent </title>
<path fill="none" stroke="black" stroke-dasharray="5,2" d="M284.83,-140.8C258,-140.8 227.62,-140.8 227.62,-140.8 227.62,-140.8 227.62,-168.77 227.62,-168.77"/>
<polygon fill="black" stroke="black" points="224.12,-168.77 227.62,-178.77 231.12,-168.77 224.12,-168.77"/>
</g>
<!-- ResultModule -->
<g id="node5" class="node">
<title>ResultModule</title>
<polygon fill="#8dd3c7" stroke="black" points="223.83,-84.8 220.83,-88.8 199.83,-88.8 196.83,-84.8 128.17,-84.8 128.17,-48.8 223.83,-48.8 223.83,-84.8"/>
<text text-anchor="middle" x="176" y="-62.6" font-family="Times,serif" font-size="14.00">ResultModule</text>
</g>
<!-- ResultModule&#45;&gt;MLModule -->
<g id="edge4" class="edge">
<title>ResultModule&#45;&gt;MLModule</title>
<path fill="none" stroke="black" d="M176,-84.83C176,-101.2 176,-122.8 176,-122.8 176,-122.8 274.68,-122.8 274.68,-122.8"/>
<polygon fill="black" stroke="black" points="274.68,-126.3 284.68,-122.8 274.68,-119.3 274.68,-126.3"/>
</g>
<!-- UtilsModule -->
<g id="node6" class="node">
<title>UtilsModule</title>
<polygon fill="#8dd3c7" stroke="black" points="110.27,-84.8 107.27,-88.8 86.27,-88.8 83.27,-84.8 23.73,-84.8 23.73,-48.8 110.27,-48.8 110.27,-84.8"/>
<text text-anchor="middle" x="67" y="-62.6" font-family="Times,serif" font-size="14.00">UtilsModule</text>
</g>
<!-- UtilsModule&#45;&gt;MLModule -->
<g id="edge5" class="edge">
<title>UtilsModule&#45;&gt;MLModule</title>
<path fill="none" stroke="black" d="M92.41,-84.91C92.41,-104.14 92.41,-131.8 92.41,-131.8 92.41,-131.8 274.75,-131.8 274.75,-131.8"/>
<polygon fill="black" stroke="black" points="274.75,-135.3 284.75,-131.8 274.75,-128.3 274.75,-135.3"/>
</g>
</g>
</svg>
