<?xml version="1.0" encoding="UTF-8" standalone="no"?>
<!DOCTYPE svg PUBLIC "-//W3C//DTD SVG 1.1//EN"
 "http://www.w3.org/Graphics/SVG/1.1/DTD/svg11.dtd">
<!-- Generated by graphviz version 2.47.3 (20210619.1520)
 -->
<!-- Title: dependencies Pages: 1 -->
<svg width="892pt" height="247pt"
 viewBox="0.00 0.00 892.00 246.80" xmlns="http://www.w3.org/2000/svg" xmlns:xlink="http://www.w3.org/1999/xlink">
<g id="graph0" class="graph" transform="scale(1 1) rotate(0) translate(4 242.8)">
<title>dependencies</title>
<polygon fill="white" stroke="transparent" points="-4,4 -4,-242.8 888,-242.8 888,4 -4,4"/>
<text text-anchor="middle" x="442" y="-8.2" font-family="sans-serif" font-size="14.00">dependencies</text>
<g id="clust1" class="cluster">
<title>cluster_MLModule</title>
<polygon fill="none" stroke="black" stroke-dasharray="1,5" points="8,-32.8 8,-230.8 876,-230.8 876,-32.8 8,-32.8"/>
</g>
<g id="clust7" class="cluster">
<title>cluster_MLModule_exports</title>
<polygon fill="none" stroke="black" points="111,-170.8 111,-222.8 627,-222.8 627,-170.8 111,-170.8"/>
</g>
<g id="clust2" class="cluster">
<title>cluster_MLModule_declarations</title>
<polygon fill="none" stroke="black" points="362,-40.8 362,-92.8 868,-92.8 868,-40.8 362,-40.8"/>
</g>
<g id="clust6" class="cluster">
<title>cluster_MLModule_imports</title>
<polygon fill="none" stroke="black" points="16,-40.8 16,-92.8 354,-92.8 354,-40.8 16,-40.8"/>
</g>
<!-- AnswerCardComponent -->
<g id="node1" class="node">
<title>AnswerCardComponent</title>
<polygon fill="#ffffb3" stroke="black" points="860.08,-84.8 707.92,-84.8 707.92,-48.8 860.08,-48.8 860.08,-84.8"/>
<text text-anchor="middle" x="784" y="-62.6" font-family="Times,serif" font-size="14.00">AnswerCardComponent</text>
</g>
<!-- MLModule -->
<g id="node4" class="node">
<title>MLModule</title>
<polygon fill="#8dd3c7" stroke="black" points="410.05,-149.8 407.05,-153.8 386.05,-153.8 383.05,-149.8 329.95,-149.8 329.95,-113.8 410.05,-113.8 410.05,-149.8"/>
<text text-anchor="middle" x="370" y="-127.6" font-family="Times,serif" font-size="14.00">MLModule</text>
</g>
<!-- AnswerCardComponent&#45;&gt;MLModule -->
<g id="edge1" class="edge">
<title>AnswerCardComponent&#45;&gt;MLModule</title>
<path fill="none" stroke="black" d="M784,-84.91C784,-104.14 784,-131.8 784,-131.8 784,-131.8 420.07,-131.8 420.07,-131.8"/>
<polygon fill="black" stroke="black" points="420.07,-128.3 410.07,-131.8 420.07,-135.3 420.07,-128.3"/>
</g>
<!-- PassageListComponent -->
<g id="node2" class="node">
<title>PassageListComponent</title>
<polygon fill="#ffffb3" stroke="black" points="689.93,-84.8 542.07,-84.8 542.07,-48.8 689.93,-48.8 689.93,-84.8"/>
<text text-anchor="middle" x="616" y="-62.6" font-family="Times,serif" font-size="14.00">PassageListComponent</text>
</g>
<!-- PassageListComponent&#45;&gt;MLModule -->
<g id="edge2" class="edge">
<title>PassageListComponent&#45;&gt;MLModule</title>
<path fill="none" stroke="black" d="M580.54,-84.83C580.54,-101.2 580.54,-122.8 580.54,-122.8 580.54,-122.8 420.1,-122.8 420.1,-122.8"/>
<polygon fill="black" stroke="black" points="420.1,-119.3 410.1,-122.8 420.1,-126.3 420.1,-119.3"/>
</g>
<!-- TopPassagesComponent -->
<g id="node3" class="node">
<title>TopPassagesComponent</title>
<polygon fill="#ffffb3" stroke="black" points="523.65,-84.8 370.35,-84.8 370.35,-48.8 523.65,-48.8 523.65,-84.8"/>
<text text-anchor="middle" x="447" y="-62.6" font-family="Times,serif" font-size="14.00">TopPassagesComponent</text>
</g>
<!-- TopPassagesComponent&#45;&gt;MLModule -->
<g id="edge3" class="edge">
<title>TopPassagesComponent&#45;&gt;MLModule</title>
<path fill="none" stroke="black" d="M390.23,-84.91C390.23,-84.91 390.23,-103.79 390.23,-103.79"/>
<polygon fill="black" stroke="black" points="386.73,-103.79 390.23,-113.79 393.73,-103.79 386.73,-103.79"/>
</g>
<!-- AnswerCardComponent  -->
<g id="node8" class="node">
<title>AnswerCardComponent </title>
<polygon fill="#fb8072" stroke="black" points="618.58,-214.8 463.42,-214.8 463.42,-178.8 618.58,-178.8 618.58,-214.8"/>
<text text-anchor="middle" x="541" y="-192.6" font-family="Times,serif" font-size="14.00">AnswerCardComponent </text>
</g>
<!-- MLModule&#45;&gt;AnswerCardComponent  -->
<g id="edge7" class="edge">
<title>MLModule&#45;&gt;AnswerCardComponent </title>
<path fill="none" stroke="black" stroke-dasharray="5,2" d="M410.1,-140.8C446.17,-140.8 493.52,-140.8 493.52,-140.8 493.52,-140.8 493.52,-168.77 493.52,-168.77"/>
<polygon fill="black" stroke="black" points="490.02,-168.77 493.52,-178.77 497.02,-168.77 490.02,-168.77"/>
</g>
<!-- PassageListComponent  -->
<g id="node9" class="node">
<title>PassageListComponent </title>
<polygon fill="#fb8072" stroke="black" points="445.43,-214.8 294.57,-214.8 294.57,-178.8 445.43,-178.8 445.43,-214.8"/>
<text text-anchor="middle" x="370" y="-192.6" font-family="Times,serif" font-size="14.00">PassageListComponent </text>
</g>
<!-- MLModule&#45;&gt;PassageListComponent  -->
<g id="edge8" class="edge">
<title>MLModule&#45;&gt;PassageListComponent </title>
<path fill="none" stroke="black" stroke-dasharray="5,2" d="M370,-149.91C370,-149.91 370,-168.79 370,-168.79"/>
<polygon fill="black" stroke="black" points="366.5,-168.79 370,-178.79 373.5,-168.79 366.5,-168.79"/>
</g>
<!-- TopPassagesComponent  -->
<g id="node10" class="node">
<title>TopPassagesComponent </title>
<polygon fill="#fb8072" stroke="black" points="276.65,-214.8 119.35,-214.8 119.35,-178.8 276.65,-178.8 276.65,-214.8"/>
<text text-anchor="middle" x="198" y="-192.6" font-family="Times,serif" font-size="14.00">TopPassagesComponent </text>
</g>
<!-- MLModule&#45;&gt;TopPassagesComponent  -->
<g id="edge9" class="edge">
<title>MLModule&#45;&gt;TopPassagesComponent </title>
<path fill="none" stroke="black" stroke-dasharray="5,2" d="M329.66,-140.8C297.96,-140.8 259.12,-140.8 259.12,-140.8 259.12,-140.8 259.12,-168.77 259.12,-168.77"/>
<polygon fill="black" stroke="black" points="255.62,-168.77 259.12,-178.77 262.62,-168.77 255.62,-168.77"/>
</g>
<!-- BsFacetModule -->
<g id="node5" class="node">
<title>BsFacetModule</title>
<polygon fill="#8dd3c7" stroke="black" points="346.15,-84.8 343.15,-88.8 322.15,-88.8 319.15,-84.8 241.85,-84.8 241.85,-48.8 346.15,-48.8 346.15,-84.8"/>
<text text-anchor="middle" x="294" y="-62.6" font-family="Times,serif" font-size="14.00">BsFacetModule</text>
</g>
<!-- BsFacetModule&#45;&gt;MLModule -->
<g id="edge4" class="edge">
<title>BsFacetModule&#45;&gt;MLModule</title>
<path fill="none" stroke="black" d="M338.03,-84.91C338.03,-84.91 338.03,-103.79 338.03,-103.79"/>
<polygon fill="black" stroke="black" points="334.53,-103.79 338.03,-113.79 341.53,-103.79 334.53,-103.79"/>
</g>
<!-- ResultModule -->
<g id="node6" class="node">
<title>ResultModule</title>
<polygon fill="#8dd3c7" stroke="black" points="223.83,-84.8 220.83,-88.8 199.83,-88.8 196.83,-84.8 128.17,-84.8 128.17,-48.8 223.83,-48.8 223.83,-84.8"/>
<text text-anchor="middle" x="176" y="-62.6" font-family="Times,serif" font-size="14.00">ResultModule</text>
</g>
<!-- ResultModule&#45;&gt;MLModule -->
<g id="edge5" class="edge">
<title>ResultModule&#45;&gt;MLModule</title>
<path fill="none" stroke="black" d="M176,-84.83C176,-101.2 176,-122.8 176,-122.8 176,-122.8 319.8,-122.8 319.8,-122.8"/>
<polygon fill="black" stroke="black" points="319.8,-126.3 329.8,-122.8 319.8,-119.3 319.8,-126.3"/>
</g>
<!-- UtilsModule -->
<g id="node7" class="node">
<title>UtilsModule</title>
<polygon fill="#8dd3c7" stroke="black" points="110.27,-84.8 107.27,-88.8 86.27,-88.8 83.27,-84.8 23.73,-84.8 23.73,-48.8 110.27,-48.8 110.27,-84.8"/>
<text text-anchor="middle" x="67" y="-62.6" font-family="Times,serif" font-size="14.00">UtilsModule</text>
</g>
<!-- UtilsModule&#45;&gt;MLModule -->
<g id="edge6" class="edge">
<title>UtilsModule&#45;&gt;MLModule</title>
<path fill="none" stroke="black" d="M67,-84.91C67,-104.14 67,-131.8 67,-131.8 67,-131.8 319.76,-131.8 319.76,-131.8"/>
<polygon fill="black" stroke="black" points="319.76,-135.3 329.76,-131.8 319.76,-128.3 319.76,-135.3"/>
</g>
</g>
</svg>
