<?xml version="1.0" encoding="UTF-8" standalone="no"?>
<!DOCTYPE svg PUBLIC "-//W3C//DTD SVG 1.1//EN"
 "http://www.w3.org/Graphics/SVG/1.1/DTD/svg11.dtd">
<!-- Generated by graphviz version 2.47.3 (20210619.1520)
 -->
<!-- Title: dependencies Pages: 1 -->
<svg width="927pt" height="247pt"
 viewBox="0.00 0.00 927.00 246.80" xmlns="http://www.w3.org/2000/svg" xmlns:xlink="http://www.w3.org/1999/xlink">
<g id="graph0" class="graph" transform="scale(1 1) rotate(0) translate(4 242.8)">
<title>dependencies</title>
<polygon fill="white" stroke="transparent" points="-4,4 -4,-242.8 923,-242.8 923,4 -4,4"/>
<text text-anchor="middle" x="459.5" y="-8.2" font-family="sans-serif" font-size="14.00">dependencies</text>
<g id="clust1" class="cluster">
<title>cluster_MetadataModule</title>
<polygon fill="none" stroke="black" stroke-dasharray="1,5" points="8,-32.8 8,-230.8 911,-230.8 911,-32.8 8,-32.8"/>
</g>
<g id="clust7" class="cluster">
<title>cluster_MetadataModule_imports</title>
<polygon fill="none" stroke="black" points="674,-40.8 674,-92.8 903,-92.8 903,-40.8 674,-40.8"/>
</g>
<g id="clust8" class="cluster">
<title>cluster_MetadataModule_exports</title>
<polygon fill="none" stroke="black" points="450,-170.8 450,-222.8 653,-222.8 653,-170.8 450,-170.8"/>
</g>
<g id="clust2" class="cluster">
<title>cluster_MetadataModule_declarations</title>
<polygon fill="none" stroke="black" points="16,-40.8 16,-92.8 666,-92.8 666,-40.8 16,-40.8"/>
</g>
<!-- Metadata -->
<g id="node1" class="node">
<title>Metadata</title>
<polygon fill="#ffffb3" stroke="black" points="658.08,-84.8 589.92,-84.8 589.92,-48.8 658.08,-48.8 658.08,-84.8"/>
<text text-anchor="middle" x="624" y="-62.6" font-family="Times,serif" font-size="14.00">Metadata</text>
</g>
<!-- MetadataModule -->
<g id="node5" class="node">
<title>MetadataModule</title>
<polygon fill="#8dd3c7" stroke="black" points="613.63,-149.8 610.63,-153.8 589.63,-153.8 586.63,-149.8 502.37,-149.8 502.37,-113.8 613.63,-113.8 613.63,-149.8"/>
<text text-anchor="middle" x="558" y="-127.6" font-family="Times,serif" font-size="14.00">MetadataModule</text>
</g>
<!-- Metadata&#45;&gt;MetadataModule -->
<g id="edge1" class="edge">
<title>Metadata&#45;&gt;MetadataModule</title>
<path fill="none" stroke="black" d="M601.89,-84.91C601.89,-84.91 601.89,-103.79 601.89,-103.79"/>
<polygon fill="black" stroke="black" points="598.39,-103.79 601.89,-113.79 605.39,-103.79 598.39,-103.79"/>
</g>
<!-- MetadataAccessListsItem -->
<g id="node2" class="node">
<title>MetadataAccessListsItem</title>
<polygon fill="#ffffb3" stroke="black" points="572.1,-84.8 411.9,-84.8 411.9,-48.8 572.1,-48.8 572.1,-84.8"/>
<text text-anchor="middle" x="492" y="-62.6" font-family="Times,serif" font-size="14.00">MetadataAccessListsItem</text>
</g>
<!-- MetadataAccessListsItem&#45;&gt;MetadataModule -->
<g id="edge2" class="edge">
<title>MetadataAccessListsItem&#45;&gt;MetadataModule</title>
<path fill="none" stroke="black" d="M537.24,-84.91C537.24,-84.91 537.24,-103.79 537.24,-103.79"/>
<polygon fill="black" stroke="black" points="533.74,-103.79 537.24,-113.79 540.74,-103.79 533.74,-103.79"/>
</g>
<!-- MetadataAccessListsItemSingleAccessList -->
<g id="node3" class="node">
<title>MetadataAccessListsItemSingleAccessList</title>
<polygon fill="#ffffb3" stroke="black" points="393.8,-84.8 136.2,-84.8 136.2,-48.8 393.8,-48.8 393.8,-84.8"/>
<text text-anchor="middle" x="265" y="-62.6" font-family="Times,serif" font-size="14.00">MetadataAccessListsItemSingleAccessList</text>
</g>
<!-- MetadataAccessListsItemSingleAccessList&#45;&gt;MetadataModule -->
<g id="edge3" class="edge">
<title>MetadataAccessListsItemSingleAccessList&#45;&gt;MetadataModule</title>
<path fill="none" stroke="black" d="M265,-84.82C265,-102.17 265,-125.8 265,-125.8 265,-125.8 492.2,-125.8 492.2,-125.8"/>
<polygon fill="black" stroke="black" points="492.2,-129.3 502.2,-125.8 492.2,-122.3 492.2,-129.3"/>
</g>
<!-- MetadataItem -->
<g id="node4" class="node">
<title>MetadataItem</title>
<polygon fill="#ffffb3" stroke="black" points="117.74,-84.8 24.26,-84.8 24.26,-48.8 117.74,-48.8 117.74,-84.8"/>
<text text-anchor="middle" x="71" y="-62.6" font-family="Times,serif" font-size="14.00">MetadataItem</text>
</g>
<!-- MetadataItem&#45;&gt;MetadataModule -->
<g id="edge4" class="edge">
<title>MetadataItem&#45;&gt;MetadataModule</title>
<path fill="none" stroke="black" d="M71,-85.08C71,-106.12 71,-137.8 71,-137.8 71,-137.8 492.13,-137.8 492.13,-137.8"/>
<polygon fill="black" stroke="black" points="492.13,-141.3 502.13,-137.8 492.13,-134.3 492.13,-141.3"/>
</g>
<!-- Metadata  -->
<g id="node8" class="node">
<title>Metadata </title>
<polygon fill="#fb8072" stroke="black" points="644.59,-214.8 573.41,-214.8 573.41,-178.8 644.59,-178.8 644.59,-214.8"/>
<text text-anchor="middle" x="609" y="-192.6" font-family="Times,serif" font-size="14.00">Metadata </text>
</g>
<!-- MetadataModule&#45;&gt;Metadata  -->
<g id="edge7" class="edge">
<title>MetadataModule&#45;&gt;Metadata </title>
<path fill="none" stroke="black" stroke-dasharray="5,2" d="M593.51,-149.91C593.51,-149.91 593.51,-168.79 593.51,-168.79"/>
<polygon fill="black" stroke="black" points="590.01,-168.79 593.51,-178.79 597.01,-168.79 590.01,-168.79"/>
</g>
<!-- MetadataItem  -->
<g id="node9" class="node">
<title>MetadataItem </title>
<polygon fill="#fb8072" stroke="black" points="555.74,-214.8 458.26,-214.8 458.26,-178.8 555.74,-178.8 555.74,-214.8"/>
<text text-anchor="middle" x="507" y="-192.6" font-family="Times,serif" font-size="14.00">MetadataItem </text>
</g>
<!-- MetadataModule&#45;&gt;MetadataItem  -->
<g id="edge8" class="edge">
<title>MetadataModule&#45;&gt;MetadataItem </title>
<path fill="none" stroke="black" stroke-dasharray="5,2" d="M528.9,-149.91C528.9,-149.91 528.9,-168.79 528.9,-168.79"/>
<polygon fill="black" stroke="black" points="525.4,-168.79 528.9,-178.79 532.4,-168.79 525.4,-168.79"/>
</g>
<!-- CollapseModule -->
<g id="node6" class="node">
<title>CollapseModule</title>
<polygon fill="#8dd3c7" stroke="black" points="895.04,-84.8 892.04,-88.8 871.04,-88.8 868.04,-84.8 786.96,-84.8 786.96,-48.8 895.04,-48.8 895.04,-84.8"/>
<text text-anchor="middle" x="841" y="-62.6" font-family="Times,serif" font-size="14.00">CollapseModule</text>
</g>
<!-- CollapseModule&#45;&gt;MetadataModule -->
<g id="edge5" class="edge">
<title>CollapseModule&#45;&gt;MetadataModule</title>
<path fill="none" stroke="black" d="M841,-85.08C841,-106.12 841,-137.8 841,-137.8 841,-137.8 623.91,-137.8 623.91,-137.8"/>
<polygon fill="black" stroke="black" points="623.91,-134.3 613.91,-137.8 623.91,-141.3 623.91,-134.3"/>
</g>
<!-- UtilsModule -->
<g id="node7" class="node">
<title>UtilsModule</title>
<polygon fill="#8dd3c7" stroke="black" points="768.27,-84.8 765.27,-88.8 744.27,-88.8 741.27,-84.8 681.73,-84.8 681.73,-48.8 768.27,-48.8 768.27,-84.8"/>
<text text-anchor="middle" x="725" y="-62.6" font-family="Times,serif" font-size="14.00">UtilsModule</text>
</g>
<!-- UtilsModule&#45;&gt;MetadataModule -->
<g id="edge6" class="edge">
<title>UtilsModule&#45;&gt;MetadataModule</title>
<path fill="none" stroke="black" d="M725,-84.82C725,-102.17 725,-125.8 725,-125.8 725,-125.8 624.07,-125.8 624.07,-125.8"/>
<polygon fill="black" stroke="black" points="624.07,-122.3 614.07,-125.8 624.07,-129.3 624.07,-122.3"/>
</g>
</g>
</svg>
