<?xml version="1.0" encoding="UTF-8" standalone="no"?>
<!DOCTYPE svg PUBLIC "-//W3C//DTD SVG 1.1//EN"
 "http://www.w3.org/Graphics/SVG/1.1/DTD/svg11.dtd">
<!-- Generated by graphviz version 2.40.1 (20161225.0304)
 -->
<!-- Title: dependencies Pages: 1 -->
<svg width="927pt" height="284pt"
 viewBox="0.00 0.00 927.00 284.00" xmlns="http://www.w3.org/2000/svg" xmlns:xlink="http://www.w3.org/1999/xlink">
<g id="graph0" class="graph" transform="scale(1 1) rotate(0) translate(4 280)">
<title>dependencies</title>
<polygon fill="#ffffff" stroke="transparent" points="-4,4 -4,-280 923,-280 923,4 -4,4"/>
<text text-anchor="start" x="438.5091" y="-42.4" font-family="sans-serif" font-weight="bold" font-size="14.00" fill="#000000">Legend</text>
<polygon fill="#ffffb3" stroke="transparent" points="225.5,-10 225.5,-30 245.5,-30 245.5,-10 225.5,-10"/>
<text text-anchor="start" x="249.129" y="-15.4" font-family="sans-serif" font-size="14.00" fill="#000000"> &#160;Declarations</text>
<polygon fill="#8dd3c7" stroke="transparent" points="338.5,-10 338.5,-30 358.5,-30 358.5,-10 338.5,-10"/>
<text text-anchor="start" x="362.2251" y="-15.4" font-family="sans-serif" font-size="14.00" fill="#000000"> &#160;Module</text>
<polygon fill="#80b1d3" stroke="transparent" points="424.5,-10 424.5,-30 444.5,-30 444.5,-10 424.5,-10"/>
<text text-anchor="start" x="448.2812" y="-15.4" font-family="sans-serif" font-size="14.00" fill="#000000"> &#160;Bootstrap</text>
<polygon fill="#fdb462" stroke="transparent" points="521.5,-10 521.5,-30 541.5,-30 541.5,-10 521.5,-10"/>
<text text-anchor="start" x="545.1732" y="-15.4" font-family="sans-serif" font-size="14.00" fill="#000000"> &#160;Providers</text>
<polygon fill="#fb8072" stroke="transparent" points="617.5,-10 617.5,-30 637.5,-30 637.5,-10 617.5,-10"/>
<text text-anchor="start" x="641.2258" y="-15.4" font-family="sans-serif" font-size="14.00" fill="#000000"> &#160;Exports</text>
<g id="clust1" class="cluster">
<title>cluster_MetadataModule</title>
<polygon fill="none" stroke="#000000" stroke-dasharray="1,5" points="8,-70 8,-268 911,-268 911,-70 8,-70"/>
</g>
<g id="clust2" class="cluster">
<title>cluster_MetadataModule_declarations</title>
<polygon fill="none" stroke="#000000" points="253,-78 253,-130 903,-130 903,-78 253,-78"/>
</g>
<g id="clust7" class="cluster">
<title>cluster_MetadataModule_imports</title>
<polygon fill="none" stroke="#000000" points="16,-78 16,-130 245,-130 245,-78 16,-78"/>
</g>
<g id="clust8" class="cluster">
<title>cluster_MetadataModule_exports</title>
<polygon fill="none" stroke="#000000" points="297,-208 297,-260 500,-260 500,-208 297,-208"/>
</g>
<!-- Metadata -->
<g id="node1" class="node">
<title>Metadata</title>
<polygon fill="#ffffb3" stroke="#000000" points="895.0843,-122 826.9157,-122 826.9157,-86 895.0843,-86 895.0843,-122"/>
<text text-anchor="middle" x="861" y="-99.8" font-family="Times,serif" font-size="14.00" fill="#000000">Metadata</text>
</g>
<!-- MetadataModule -->
<g id="node5" class="node">
<title>MetadataModule</title>
<polygon fill="#8dd3c7" stroke="#000000" points="460.6346,-187 457.6346,-191 436.6346,-191 433.6346,-187 349.3654,-187 349.3654,-151 460.6346,-151 460.6346,-187"/>
<text text-anchor="middle" x="405" y="-164.8" font-family="Times,serif" font-size="14.00" fill="#000000">MetadataModule</text>
</g>
<!-- Metadata&#45;&gt;MetadataModule -->
<g id="edge1" class="edge">
<title>Metadata&#45;&gt;MetadataModule</title>
<path fill="none" stroke="#000000" d="M861,-122.2843C861,-143.3211 861,-175 861,-175 861,-175 470.9146,-175 470.9146,-175"/>
<polygon fill="#000000" stroke="#000000" points="470.9146,-171.5001 460.9146,-175 470.9145,-178.5001 470.9146,-171.5001"/>
</g>
<!-- MetadataAccessListsItem -->
<g id="node2" class="node">
<title>MetadataAccessListsItem</title>
<polygon fill="#ffffb3" stroke="#000000" points="809.1037,-122 648.8963,-122 648.8963,-86 809.1037,-86 809.1037,-122"/>
<text text-anchor="middle" x="729" y="-99.8" font-family="Times,serif" font-size="14.00" fill="#000000">MetadataAccessListsItem</text>
</g>
<!-- MetadataAccessListsItem&#45;&gt;MetadataModule -->
<g id="edge2" class="edge">
<title>MetadataAccessListsItem&#45;&gt;MetadataModule</title>
<path fill="none" stroke="#000000" d="M729,-122.0225C729,-139.3734 729,-163 729,-163 729,-163 470.6976,-163 470.6976,-163"/>
<polygon fill="#000000" stroke="#000000" points="470.6976,-159.5001 460.6976,-163 470.6976,-166.5001 470.6976,-159.5001"/>
</g>
<!-- MetadataAccessListsItemSingleAccessList -->
<g id="node3" class="node">
<title>MetadataAccessListsItemSingleAccessList</title>
<polygon fill="#ffffb3" stroke="#000000" points="630.7997,-122 373.2003,-122 373.2003,-86 630.7997,-86 630.7997,-122"/>
<text text-anchor="middle" x="502" y="-99.8" font-family="Times,serif" font-size="14.00" fill="#000000">MetadataAccessListsItemSingleAccessList</text>
</g>
<!-- MetadataAccessListsItemSingleAccessList&#45;&gt;MetadataModule -->
<g id="edge3" class="edge">
<title>MetadataAccessListsItemSingleAccessList&#45;&gt;MetadataModule</title>
<path fill="none" stroke="#000000" d="M416.9586,-122.1061C416.9586,-122.1061 416.9586,-140.991 416.9586,-140.991"/>
<polygon fill="#000000" stroke="#000000" points="413.4587,-140.9909 416.9586,-150.991 420.4587,-140.991 413.4587,-140.9909"/>
</g>
<!-- MetadataItem -->
<g id="node4" class="node">
<title>MetadataItem</title>
<polygon fill="#ffffb3" stroke="#000000" points="354.741,-122 261.259,-122 261.259,-86 354.741,-86 354.741,-122"/>
<text text-anchor="middle" x="308" y="-99.8" font-family="Times,serif" font-size="14.00" fill="#000000">MetadataItem</text>
</g>
<!-- MetadataItem&#45;&gt;MetadataModule -->
<g id="edge4" class="edge">
<title>MetadataItem&#45;&gt;MetadataModule</title>
<path fill="none" stroke="#000000" d="M354.9903,-104C360.376,-104 363.9853,-104 363.9853,-104 363.9853,-104 363.9853,-140.8939 363.9853,-140.8939"/>
<polygon fill="#000000" stroke="#000000" points="360.4853,-140.8938 363.9853,-150.8939 367.4853,-140.8939 360.4853,-140.8938"/>
</g>
<!-- Metadata  -->
<g id="node8" class="node">
<title>Metadata </title>
<polygon fill="#fb8072" stroke="#000000" points="491.5854,-252 420.4146,-252 420.4146,-216 491.5854,-216 491.5854,-252"/>
<text text-anchor="middle" x="456" y="-229.8" font-family="Times,serif" font-size="14.00" fill="#000000">Metadata </text>
</g>
<!-- MetadataModule&#45;&gt;Metadata  -->
<g id="edge7" class="edge">
<title>MetadataModule&#45;&gt;Metadata </title>
<path fill="none" stroke="#000000" stroke-dasharray="5,2" d="M440.5125,-187.1061C440.5125,-187.1061 440.5125,-205.991 440.5125,-205.991"/>
<polygon fill="#000000" stroke="#000000" points="437.0125,-205.9909 440.5125,-215.991 444.0125,-205.991 437.0125,-205.9909"/>
</g>
<!-- MetadataItem  -->
<g id="node9" class="node">
<title>MetadataItem </title>
<polygon fill="#fb8072" stroke="#000000" points="402.7409,-252 305.2591,-252 305.2591,-216 402.7409,-216 402.7409,-252"/>
<text text-anchor="middle" x="354" y="-229.8" font-family="Times,serif" font-size="14.00" fill="#000000">MetadataItem </text>
</g>
<!-- MetadataModule&#45;&gt;MetadataItem  -->
<g id="edge8" class="edge">
<title>MetadataModule&#45;&gt;MetadataItem </title>
<path fill="none" stroke="#000000" stroke-dasharray="5,2" d="M375.9017,-187.1061C375.9017,-187.1061 375.9017,-205.991 375.9017,-205.991"/>
<polygon fill="#000000" stroke="#000000" points="372.4017,-205.9909 375.9017,-215.991 379.4017,-205.991 372.4017,-205.9909"/>
</g>
<!-- CollapseModule -->
<g id="node6" class="node">
<title>CollapseModule</title>
<polygon fill="#8dd3c7" stroke="#000000" points="237.0424,-122 234.0424,-126 213.0424,-126 210.0424,-122 128.9576,-122 128.9576,-86 237.0424,-86 237.0424,-122"/>
<text text-anchor="middle" x="183" y="-99.8" font-family="Times,serif" font-size="14.00" fill="#000000">CollapseModule</text>
</g>
<!-- CollapseModule&#45;&gt;MetadataModule -->
<g id="edge5" class="edge">
<title>CollapseModule&#45;&gt;MetadataModule</title>
<path fill="none" stroke="#000000" d="M183,-122.0225C183,-139.3734 183,-163 183,-163 183,-163 339.2666,-163 339.2666,-163"/>
<polygon fill="#000000" stroke="#000000" points="339.2666,-166.5001 349.2666,-163 339.2665,-159.5001 339.2666,-166.5001"/>
</g>
<!-- UtilsModule -->
<g id="node7" class="node">
<title>UtilsModule</title>
<polygon fill="#8dd3c7" stroke="#000000" points="110.2731,-122 107.2731,-126 86.2731,-126 83.2731,-122 23.7269,-122 23.7269,-86 110.2731,-86 110.2731,-122"/>
<text text-anchor="middle" x="67" y="-99.8" font-family="Times,serif" font-size="14.00" fill="#000000">UtilsModule</text>
</g>
<!-- UtilsModule&#45;&gt;MetadataModule -->
<g id="edge6" class="edge">
<title>UtilsModule&#45;&gt;MetadataModule</title>
<path fill="none" stroke="#000000" d="M67,-122.2843C67,-143.3211 67,-175 67,-175 67,-175 339.1862,-175 339.1862,-175"/>
<polygon fill="#000000" stroke="#000000" points="339.1862,-178.5001 349.1862,-175 339.1861,-171.5001 339.1862,-178.5001"/>
</g>
</g>
</svg>
