<?xml version="1.0" encoding="UTF-8" standalone="no"?>
<!DOCTYPE svg PUBLIC "-//W3C//DTD SVG 1.1//EN"
 "http://www.w3.org/Graphics/SVG/1.1/DTD/svg11.dtd">
<!-- Generated by graphviz version 2.47.3 (20210619.1520)
 -->
<!-- Title: dependencies Pages: 1 -->
<svg width="735pt" height="247pt"
 viewBox="0.00 0.00 735.00 246.80" xmlns="http://www.w3.org/2000/svg" xmlns:xlink="http://www.w3.org/1999/xlink">
<g id="graph0" class="graph" transform="scale(1 1) rotate(0) translate(4 242.8)">
<title>dependencies</title>
<polygon fill="white" stroke="transparent" points="-4,4 -4,-242.8 731,-242.8 731,4 -4,4"/>
<text text-anchor="middle" x="363.5" y="-8.2" font-family="sans-serif" font-size="14.00">dependencies</text>
<g id="clust1" class="cluster">
<title>cluster_BsResultsViewModule</title>
<polygon fill="none" stroke="black" stroke-dasharray="1,5" points="8,-32.8 8,-230.8 719,-230.8 719,-32.8 8,-32.8"/>
</g>
<g id="clust6" class="cluster">
<title>cluster_BsResultsViewModule_exports</title>
<polygon fill="none" stroke="black" points="221,-170.8 221,-222.8 539,-222.8 539,-170.8 221,-170.8"/>
</g>
<g id="clust5" class="cluster">
<title>cluster_BsResultsViewModule_imports</title>
<polygon fill="none" stroke="black" points="334,-40.8 334,-92.8 711,-92.8 711,-40.8 334,-40.8"/>
</g>
<g id="clust2" class="cluster">
<title>cluster_BsResultsViewModule_declarations</title>
<polygon fill="none" stroke="black" points="16,-40.8 16,-92.8 326,-92.8 326,-40.8 16,-40.8"/>
</g>
<!-- BsResultsGridView -->
<g id="node1" class="node">
<title>BsResultsGridView</title>
<polygon fill="#ffffb3" stroke="black" points="317.98,-84.8 190.02,-84.8 190.02,-48.8 317.98,-48.8 317.98,-84.8"/>
<text text-anchor="middle" x="254" y="-62.6" font-family="Times,serif" font-size="14.00">BsResultsGridView</text>
</g>
<!-- BsResultsViewModule -->
<g id="node3" class="node">
<title>BsResultsViewModule</title>
<polygon fill="#8dd3c7" stroke="black" points="457.87,-149.8 454.87,-153.8 433.87,-153.8 430.87,-149.8 312.13,-149.8 312.13,-113.8 457.87,-113.8 457.87,-149.8"/>
<text text-anchor="middle" x="385" y="-127.6" font-family="Times,serif" font-size="14.00">BsResultsViewModule</text>
</g>
<!-- BsResultsGridView&#45;&gt;BsResultsViewModule -->
<g id="edge1" class="edge">
<title>BsResultsGridView&#45;&gt;BsResultsViewModule</title>
<path fill="none" stroke="black" d="M318.29,-66.8C325.21,-66.8 329.8,-66.8 329.8,-66.8 329.8,-66.8 329.8,-103.69 329.8,-103.69"/>
<polygon fill="black" stroke="black" points="326.3,-103.69 329.8,-113.69 333.3,-103.69 326.3,-103.69"/>
</g>
<!-- BsResultsViewSelector -->
<g id="node2" class="node">
<title>BsResultsViewSelector</title>
<polygon fill="#ffffb3" stroke="black" points="172.19,-84.8 23.81,-84.8 23.81,-48.8 172.19,-48.8 172.19,-84.8"/>
<text text-anchor="middle" x="98" y="-62.6" font-family="Times,serif" font-size="14.00">BsResultsViewSelector</text>
</g>
<!-- BsResultsViewSelector&#45;&gt;BsResultsViewModule -->
<g id="edge2" class="edge">
<title>BsResultsViewSelector&#45;&gt;BsResultsViewModule</title>
<path fill="none" stroke="black" d="M98,-84.91C98,-104.14 98,-131.8 98,-131.8 98,-131.8 301.84,-131.8 301.84,-131.8"/>
<polygon fill="black" stroke="black" points="301.84,-135.3 311.84,-131.8 301.84,-128.3 301.84,-135.3"/>
</g>
<!-- BsResultsGridView  -->
<g id="node7" class="node">
<title>BsResultsGridView </title>
<polygon fill="#fb8072" stroke="black" points="530.98,-214.8 399.02,-214.8 399.02,-178.8 530.98,-178.8 530.98,-214.8"/>
<text text-anchor="middle" x="465" y="-192.6" font-family="Times,serif" font-size="14.00">BsResultsGridView </text>
</g>
<!-- BsResultsViewModule&#45;&gt;BsResultsGridView  -->
<g id="edge6" class="edge">
<title>BsResultsViewModule&#45;&gt;BsResultsGridView </title>
<path fill="none" stroke="black" stroke-dasharray="5,2" d="M428.6,-149.91C428.6,-149.91 428.6,-168.79 428.6,-168.79"/>
<polygon fill="black" stroke="black" points="425.1,-168.79 428.6,-178.79 432.1,-168.79 425.1,-168.79"/>
</g>
<!-- BsResultsViewSelector  -->
<g id="node8" class="node">
<title>BsResultsViewSelector </title>
<polygon fill="#fb8072" stroke="black" points="380.69,-214.8 229.31,-214.8 229.31,-178.8 380.69,-178.8 380.69,-214.8"/>
<text text-anchor="middle" x="305" y="-192.6" font-family="Times,serif" font-size="14.00">BsResultsViewSelector </text>
</g>
<!-- BsResultsViewModule&#45;&gt;BsResultsViewSelector  -->
<g id="edge7" class="edge">
<title>BsResultsViewModule&#45;&gt;BsResultsViewSelector </title>
<path fill="none" stroke="black" stroke-dasharray="5,2" d="M346.45,-149.91C346.45,-149.91 346.45,-168.79 346.45,-168.79"/>
<polygon fill="black" stroke="black" points="342.95,-168.79 346.45,-178.79 349.95,-168.79 342.95,-168.79"/>
</g>
<!-- BsActionModule -->
<g id="node4" class="node">
<title>BsActionModule</title>
<polygon fill="#8dd3c7" stroke="black" points="703.43,-84.8 700.43,-88.8 679.43,-88.8 676.43,-84.8 590.57,-84.8 590.57,-48.8 703.43,-48.8 703.43,-84.8"/>
<text text-anchor="middle" x="647" y="-62.6" font-family="Times,serif" font-size="14.00">BsActionModule</text>
</g>
<!-- BsActionModule&#45;&gt;BsResultsViewModule -->
<g id="edge3" class="edge">
<title>BsActionModule&#45;&gt;BsResultsViewModule</title>
<path fill="none" stroke="black" d="M647,-84.91C647,-104.14 647,-131.8 647,-131.8 647,-131.8 467.98,-131.8 467.98,-131.8"/>
<polygon fill="black" stroke="black" points="467.98,-128.3 457.98,-131.8 467.98,-135.3 467.98,-128.3"/>
</g>
<!-- BsSelectionModule -->
<g id="node5" class="node">
<title>BsSelectionModule</title>
<polygon fill="#8dd3c7" stroke="black" points="573.43,-84.8 570.43,-88.8 549.43,-88.8 546.43,-84.8 446.57,-84.8 446.57,-48.8 573.43,-48.8 573.43,-84.8"/>
<text text-anchor="middle" x="510" y="-62.6" font-family="Times,serif" font-size="14.00">BsSelectionModule</text>
</g>
<!-- BsSelectionModule&#45;&gt;BsResultsViewModule -->
<g id="edge4" class="edge">
<title>BsSelectionModule&#45;&gt;BsResultsViewModule</title>
<path fill="none" stroke="black" d="M452.36,-84.91C452.36,-84.91 452.36,-103.79 452.36,-103.79"/>
<polygon fill="black" stroke="black" points="448.86,-103.79 452.36,-113.79 455.86,-103.79 448.86,-103.79"/>
</g>
<!-- UtilsModule -->
<g id="node6" class="node">
<title>UtilsModule</title>
<polygon fill="#8dd3c7" stroke="black" points="428.27,-84.8 425.27,-88.8 404.27,-88.8 401.27,-84.8 341.73,-84.8 341.73,-48.8 428.27,-48.8 428.27,-84.8"/>
<text text-anchor="middle" x="385" y="-62.6" font-family="Times,serif" font-size="14.00">UtilsModule</text>
</g>
<!-- UtilsModule&#45;&gt;BsResultsViewModule -->
<g id="edge5" class="edge">
<title>UtilsModule&#45;&gt;BsResultsViewModule</title>
<path fill="none" stroke="black" d="M385,-84.91C385,-84.91 385,-103.79 385,-103.79"/>
<polygon fill="black" stroke="black" points="381.5,-103.79 385,-113.79 388.5,-103.79 381.5,-103.79"/>
</g>
</g>
</svg>
