<?xml version="1.0" encoding="UTF-8" standalone="no"?>
<!DOCTYPE svg PUBLIC "-//W3C//DTD SVG 1.1//EN"
 "http://www.w3.org/Graphics/SVG/1.1/DTD/svg11.dtd">
<!-- Generated by graphviz version 2.40.1 (20161225.0304)
 -->
<!-- Title: dependencies Pages: 1 -->
<svg width="735pt" height="284pt"
 viewBox="0.00 0.00 735.00 284.00" xmlns="http://www.w3.org/2000/svg" xmlns:xlink="http://www.w3.org/1999/xlink">
<g id="graph0" class="graph" transform="scale(1 1) rotate(0) translate(4 280)">
<title>dependencies</title>
<polygon fill="#ffffff" stroke="transparent" points="-4,4 -4,-280 731,-280 731,4 -4,4"/>
<text text-anchor="start" x="342.5091" y="-42.4" font-family="sans-serif" font-weight="bold" font-size="14.00" fill="#000000">Legend</text>
<polygon fill="#ffffb3" stroke="transparent" points="129.5,-10 129.5,-30 149.5,-30 149.5,-10 129.5,-10"/>
<text text-anchor="start" x="153.129" y="-15.4" font-family="sans-serif" font-size="14.00" fill="#000000"> &#160;Declarations</text>
<polygon fill="#8dd3c7" stroke="transparent" points="242.5,-10 242.5,-30 262.5,-30 262.5,-10 242.5,-10"/>
<text text-anchor="start" x="266.2251" y="-15.4" font-family="sans-serif" font-size="14.00" fill="#000000"> &#160;Module</text>
<polygon fill="#80b1d3" stroke="transparent" points="328.5,-10 328.5,-30 348.5,-30 348.5,-10 328.5,-10"/>
<text text-anchor="start" x="352.2812" y="-15.4" font-family="sans-serif" font-size="14.00" fill="#000000"> &#160;Bootstrap</text>
<polygon fill="#fdb462" stroke="transparent" points="425.5,-10 425.5,-30 445.5,-30 445.5,-10 425.5,-10"/>
<text text-anchor="start" x="449.1732" y="-15.4" font-family="sans-serif" font-size="14.00" fill="#000000"> &#160;Providers</text>
<polygon fill="#fb8072" stroke="transparent" points="521.5,-10 521.5,-30 541.5,-30 541.5,-10 521.5,-10"/>
<text text-anchor="start" x="545.2258" y="-15.4" font-family="sans-serif" font-size="14.00" fill="#000000"> &#160;Exports</text>
<g id="clust1" class="cluster">
<title>cluster_BsResultsViewModule</title>
<polygon fill="none" stroke="#000000" stroke-dasharray="1,5" points="8,-70 8,-268 719,-268 719,-70 8,-70"/>
</g>
<g id="clust2" class="cluster">
<title>cluster_BsResultsViewModule_declarations</title>
<polygon fill="none" stroke="#000000" points="401,-78 401,-130 711,-130 711,-78 401,-78"/>
</g>
<g id="clust5" class="cluster">
<title>cluster_BsResultsViewModule_imports</title>
<polygon fill="none" stroke="#000000" points="16,-78 16,-130 393,-130 393,-78 16,-78"/>
</g>
<g id="clust6" class="cluster">
<title>cluster_BsResultsViewModule_exports</title>
<polygon fill="none" stroke="#000000" points="165,-208 165,-260 483,-260 483,-208 165,-208"/>
</g>
<!-- BsResultsGridView -->
<g id="node1" class="node">
<title>BsResultsGridView</title>
<polygon fill="#ffffb3" stroke="#000000" points="702.979,-122 575.021,-122 575.021,-86 702.979,-86 702.979,-122"/>
<text text-anchor="middle" x="639" y="-99.8" font-family="Times,serif" font-size="14.00" fill="#000000">BsResultsGridView</text>
</g>
<!-- BsResultsViewModule -->
<g id="node3" class="node">
<title>BsResultsViewModule</title>
<polygon fill="#8dd3c7" stroke="#000000" points="401.8711,-187 398.8711,-191 377.8711,-191 374.8711,-187 256.1289,-187 256.1289,-151 401.8711,-151 401.8711,-187"/>
<text text-anchor="middle" x="329" y="-164.8" font-family="Times,serif" font-size="14.00" fill="#000000">BsResultsViewModule</text>
</g>
<!-- BsResultsGridView&#45;&gt;BsResultsViewModule -->
<g id="edge1" class="edge">
<title>BsResultsGridView&#45;&gt;BsResultsViewModule</title>
<path fill="none" stroke="#000000" d="M639,-122.1061C639,-141.3391 639,-169 639,-169 639,-169 412.0731,-169 412.0731,-169"/>
<polygon fill="#000000" stroke="#000000" points="412.0732,-165.5001 402.0731,-169 412.0731,-172.5001 412.0732,-165.5001"/>
</g>
<!-- BsResultsViewSelector -->
<g id="node2" class="node">
<title>BsResultsViewSelector</title>
<polygon fill="#ffffb3" stroke="#000000" points="557.1895,-122 408.8105,-122 408.8105,-86 557.1895,-86 557.1895,-122"/>
<text text-anchor="middle" x="483" y="-99.8" font-family="Times,serif" font-size="14.00" fill="#000000">BsResultsViewSelector</text>
</g>
<!-- BsResultsViewSelector&#45;&gt;BsResultsViewModule -->
<g id="edge2" class="edge">
<title>BsResultsViewSelector&#45;&gt;BsResultsViewModule</title>
<path fill="none" stroke="#000000" d="M408.7456,-104C399.7013,-104 393.5761,-104 393.5761,-104 393.5761,-104 393.5761,-140.8939 393.5761,-140.8939"/>
<polygon fill="#000000" stroke="#000000" points="390.0762,-140.8938 393.5761,-150.8939 397.0762,-140.8939 390.0762,-140.8938"/>
</g>
<!-- BsResultsGridView  -->
<g id="node7" class="node">
<title>BsResultsGridView </title>
<polygon fill="#fb8072" stroke="#000000" points="474.9799,-252 343.0201,-252 343.0201,-216 474.9799,-216 474.9799,-252"/>
<text text-anchor="middle" x="409" y="-229.8" font-family="Times,serif" font-size="14.00" fill="#000000">BsResultsGridView </text>
</g>
<!-- BsResultsViewModule&#45;&gt;BsResultsGridView  -->
<g id="edge6" class="edge">
<title>BsResultsViewModule&#45;&gt;BsResultsGridView </title>
<path fill="none" stroke="#000000" stroke-dasharray="5,2" d="M372.598,-187.1061C372.598,-187.1061 372.598,-205.991 372.598,-205.991"/>
<polygon fill="#000000" stroke="#000000" points="369.0981,-205.9909 372.598,-215.991 376.0981,-205.991 369.0981,-205.9909"/>
</g>
<!-- BsResultsViewSelector  -->
<g id="node8" class="node">
<title>BsResultsViewSelector </title>
<polygon fill="#fb8072" stroke="#000000" points="324.6897,-252 173.3103,-252 173.3103,-216 324.6897,-216 324.6897,-252"/>
<text text-anchor="middle" x="249" y="-229.8" font-family="Times,serif" font-size="14.00" fill="#000000">BsResultsViewSelector </text>
</g>
<!-- BsResultsViewModule&#45;&gt;BsResultsViewSelector  -->
<g id="edge7" class="edge">
<title>BsResultsViewModule&#45;&gt;BsResultsViewSelector </title>
<path fill="none" stroke="#000000" stroke-dasharray="5,2" d="M290.4546,-187.1061C290.4546,-187.1061 290.4546,-205.991 290.4546,-205.991"/>
<polygon fill="#000000" stroke="#000000" points="286.9547,-205.9909 290.4546,-215.991 293.9547,-205.991 286.9547,-205.9909"/>
</g>
<!-- BsActionModule -->
<g id="node4" class="node">
<title>BsActionModule</title>
<polygon fill="#8dd3c7" stroke="#000000" points="385.4342,-122 382.4342,-126 361.4342,-126 358.4342,-122 272.5658,-122 272.5658,-86 385.4342,-86 385.4342,-122"/>
<text text-anchor="middle" x="329" y="-99.8" font-family="Times,serif" font-size="14.00" fill="#000000">BsActionModule</text>
</g>
<!-- BsActionModule&#45;&gt;BsResultsViewModule -->
<g id="edge3" class="edge">
<title>BsActionModule&#45;&gt;BsResultsViewModule</title>
<path fill="none" stroke="#000000" d="M329,-122.1061C329,-122.1061 329,-140.991 329,-140.991"/>
<polygon fill="#000000" stroke="#000000" points="325.5001,-140.9909 329,-150.991 332.5001,-140.991 325.5001,-140.9909"/>
</g>
<!-- BsSelectionModule -->
<g id="node5" class="node">
<title>BsSelectionModule</title>
<polygon fill="#8dd3c7" stroke="#000000" points="255.4299,-122 252.4299,-126 231.4299,-126 228.4299,-122 128.5701,-122 128.5701,-86 255.4299,-86 255.4299,-122"/>
<text text-anchor="middle" x="192" y="-99.8" font-family="Times,serif" font-size="14.00" fill="#000000">BsSelectionModule</text>
</g>
<!-- BsSelectionModule&#45;&gt;BsResultsViewModule -->
<g id="edge4" class="edge">
<title>BsSelectionModule&#45;&gt;BsResultsViewModule</title>
<path fill="none" stroke="#000000" d="M255.2514,-104C260.8334,-104 264.4239,-104 264.4239,-104 264.4239,-104 264.4239,-140.8939 264.4239,-140.8939"/>
<polygon fill="#000000" stroke="#000000" points="260.924,-140.8938 264.4239,-150.8939 267.924,-140.8939 260.924,-140.8938"/>
</g>
<!-- UtilsModule -->
<g id="node6" class="node">
<title>UtilsModule</title>
<polygon fill="#8dd3c7" stroke="#000000" points="110.2731,-122 107.2731,-126 86.2731,-126 83.2731,-122 23.7269,-122 23.7269,-86 110.2731,-86 110.2731,-122"/>
<text text-anchor="middle" x="67" y="-99.8" font-family="Times,serif" font-size="14.00" fill="#000000">UtilsModule</text>
</g>
<!-- UtilsModule&#45;&gt;BsResultsViewModule -->
<g id="edge5" class="edge">
<title>UtilsModule&#45;&gt;BsResultsViewModule</title>
<path fill="none" stroke="#000000" d="M67,-122.1061C67,-141.3391 67,-169 67,-169 67,-169 246.0184,-169 246.0184,-169"/>
<polygon fill="#000000" stroke="#000000" points="246.0184,-172.5001 256.0184,-169 246.0184,-165.5001 246.0184,-172.5001"/>
</g>
</g>
</svg>
