<?xml version="1.0" encoding="UTF-8" standalone="no"?>
<!DOCTYPE svg PUBLIC "-//W3C//DTD SVG 1.1//EN"
 "http://www.w3.org/Graphics/SVG/1.1/DTD/svg11.dtd">
<!-- Generated by graphviz version 2.40.1 (20161225.0304)
 -->
<!-- Title: dependencies Pages: 1 -->
<svg width="1076pt" height="284pt"
 viewBox="0.00 0.00 1076.00 284.00" xmlns="http://www.w3.org/2000/svg" xmlns:xlink="http://www.w3.org/1999/xlink">
<g id="graph0" class="graph" transform="scale(1 1) rotate(0) translate(4 280)">
<title>dependencies</title>
<polygon fill="#ffffff" stroke="transparent" points="-4,4 -4,-280 1072,-280 1072,4 -4,4"/>
<text text-anchor="start" x="513.0091" y="-42.4" font-family="sans-serif" font-weight="bold" font-size="14.00" fill="#000000">Legend</text>
<polygon fill="#ffffb3" stroke="transparent" points="300,-10 300,-30 320,-30 320,-10 300,-10"/>
<text text-anchor="start" x="323.629" y="-15.4" font-family="sans-serif" font-size="14.00" fill="#000000"> &#160;Declarations</text>
<polygon fill="#8dd3c7" stroke="transparent" points="413,-10 413,-30 433,-30 433,-10 413,-10"/>
<text text-anchor="start" x="436.7251" y="-15.4" font-family="sans-serif" font-size="14.00" fill="#000000"> &#160;Module</text>
<polygon fill="#80b1d3" stroke="transparent" points="499,-10 499,-30 519,-30 519,-10 499,-10"/>
<text text-anchor="start" x="522.7812" y="-15.4" font-family="sans-serif" font-size="14.00" fill="#000000"> &#160;Bootstrap</text>
<polygon fill="#fdb462" stroke="transparent" points="596,-10 596,-30 616,-30 616,-10 596,-10"/>
<text text-anchor="start" x="619.6732" y="-15.4" font-family="sans-serif" font-size="14.00" fill="#000000"> &#160;Providers</text>
<polygon fill="#fb8072" stroke="transparent" points="692,-10 692,-30 712,-30 712,-10 692,-10"/>
<text text-anchor="start" x="715.7258" y="-15.4" font-family="sans-serif" font-size="14.00" fill="#000000"> &#160;Exports</text>
<g id="clust1" class="cluster">
<title>cluster_BsResultsViewModule</title>
<polygon fill="none" stroke="#000000" stroke-dasharray="1,5" points="8,-70 8,-268 1060,-268 1060,-70 8,-70"/>
</g>
<g id="clust2" class="cluster">
<title>cluster_BsResultsViewModule_declarations</title>
<polygon fill="none" stroke="#000000" points="550,-78 550,-130 1052,-130 1052,-78 550,-78"/>
</g>
<g id="clust6" class="cluster">
<title>cluster_BsResultsViewModule_imports</title>
<polygon fill="none" stroke="#000000" points="16,-78 16,-130 542,-130 542,-78 16,-78"/>
</g>
<g id="clust7" class="cluster">
<title>cluster_BsResultsViewModule_exports</title>
<polygon fill="none" stroke="#000000" points="151,-208 151,-260 817,-260 817,-208 151,-208"/>
</g>
<!-- BsResultsGridView -->
<g id="node1" class="node">
<title>BsResultsGridView</title>
<polygon fill="#ffffb3" stroke="#000000" points="1043.979,-122 916.021,-122 916.021,-86 1043.979,-86 1043.979,-122"/>
<text text-anchor="middle" x="980" y="-99.8" font-family="Times,serif" font-size="14.00" fill="#000000">BsResultsGridView</text>
</g>
<!-- BsResultsViewModule -->
<g id="node4" class="node">
<title>BsResultsViewModule</title>
<polygon fill="#8dd3c7" stroke="#000000" points="550.8711,-187 547.8711,-191 526.8711,-191 523.8711,-187 405.1289,-187 405.1289,-151 550.8711,-151 550.8711,-187"/>
<text text-anchor="middle" x="478" y="-164.8" font-family="Times,serif" font-size="14.00" fill="#000000">BsResultsViewModule</text>
</g>
<!-- BsResultsGridView&#45;&gt;BsResultsViewModule -->
<g id="edge1" class="edge">
<title>BsResultsGridView&#45;&gt;BsResultsViewModule</title>
<path fill="none" stroke="#000000" d="M980,-122.1061C980,-141.3391 980,-169 980,-169 980,-169 560.9951,-169 560.9951,-169"/>
<polygon fill="#000000" stroke="#000000" points="560.9951,-165.5001 550.9951,-169 560.9951,-172.5001 560.9951,-165.5001"/>
</g>
<!-- BsResultsViewConfigurator -->
<g id="node2" class="node">
<title>BsResultsViewConfigurator</title>
<polygon fill="#ffffb3" stroke="#000000" points="898.1358,-122 723.8642,-122 723.8642,-86 898.1358,-86 898.1358,-122"/>
<text text-anchor="middle" x="811" y="-99.8" font-family="Times,serif" font-size="14.00" fill="#000000">BsResultsViewConfigurator</text>
</g>
<!-- BsResultsViewConfigurator&#45;&gt;BsResultsViewModule -->
<g id="edge2" class="edge">
<title>BsResultsViewConfigurator&#45;&gt;BsResultsViewModule</title>
<path fill="none" stroke="#000000" d="M766.2109,-122.027C766.2109,-138.3976 766.2109,-160 766.2109,-160 766.2109,-160 561.1004,-160 561.1004,-160"/>
<polygon fill="#000000" stroke="#000000" points="561.1004,-156.5001 551.1004,-160 561.1003,-163.5001 561.1004,-156.5001"/>
</g>
<!-- BsResultsViewSelector -->
<g id="node3" class="node">
<title>BsResultsViewSelector</title>
<polygon fill="#ffffb3" stroke="#000000" points="706.1895,-122 557.8105,-122 557.8105,-86 706.1895,-86 706.1895,-122"/>
<text text-anchor="middle" x="632" y="-99.8" font-family="Times,serif" font-size="14.00" fill="#000000">BsResultsViewSelector</text>
</g>
<!-- BsResultsViewSelector&#45;&gt;BsResultsViewModule -->
<g id="edge3" class="edge">
<title>BsResultsViewSelector&#45;&gt;BsResultsViewModule</title>
<path fill="none" stroke="#000000" d="M557.7456,-104C548.7013,-104 542.5761,-104 542.5761,-104 542.5761,-104 542.5761,-140.8939 542.5761,-140.8939"/>
<polygon fill="#000000" stroke="#000000" points="539.0762,-140.8938 542.5761,-150.8939 546.0762,-140.8939 539.0762,-140.8938"/>
</g>
<!-- BsResultsGridView  -->
<g id="node9" class="node">
<title>BsResultsGridView </title>
<polygon fill="#fb8072" stroke="#000000" points="808.9799,-252 677.0201,-252 677.0201,-216 808.9799,-216 808.9799,-252"/>
<text text-anchor="middle" x="743" y="-229.8" font-family="Times,serif" font-size="14.00" fill="#000000">BsResultsGridView </text>
</g>
<!-- BsResultsViewModule&#45;&gt;BsResultsGridView  -->
<g id="edge8" class="edge">
<title>BsResultsViewModule&#45;&gt;BsResultsGridView </title>
<path fill="none" stroke="#000000" stroke-dasharray="5,2" d="M550.9381,-178C612.8388,-178 691.6776,-178 691.6776,-178 691.6776,-178 691.6776,-205.973 691.6776,-205.973"/>
<polygon fill="#000000" stroke="#000000" points="688.1777,-205.973 691.6776,-215.973 695.1777,-205.973 688.1777,-205.973"/>
</g>
<!-- BsResultsViewConfigurator  -->
<g id="node10" class="node">
<title>BsResultsViewConfigurator </title>
<polygon fill="#fb8072" stroke="#000000" points="659.1355,-252 480.8645,-252 480.8645,-216 659.1355,-216 659.1355,-252"/>
<text text-anchor="middle" x="570" y="-229.8" font-family="Times,serif" font-size="14.00" fill="#000000">BsResultsViewConfigurator </text>
</g>
<!-- BsResultsViewModule&#45;&gt;BsResultsViewConfigurator  -->
<g id="edge9" class="edge">
<title>BsResultsViewModule&#45;&gt;BsResultsViewConfigurator </title>
<path fill="none" stroke="#000000" stroke-dasharray="5,2" d="M515.9339,-187.1061C515.9339,-187.1061 515.9339,-205.991 515.9339,-205.991"/>
<polygon fill="#000000" stroke="#000000" points="512.434,-205.9909 515.9339,-215.991 519.434,-205.991 512.434,-205.9909"/>
</g>
<!-- BsResultsViewSelector  -->
<g id="node11" class="node">
<title>BsResultsViewSelector </title>
<polygon fill="#fb8072" stroke="#000000" points="462.6897,-252 311.3103,-252 311.3103,-216 462.6897,-216 462.6897,-252"/>
<text text-anchor="middle" x="387" y="-229.8" font-family="Times,serif" font-size="14.00" fill="#000000">BsResultsViewSelector </text>
</g>
<!-- BsResultsViewModule&#45;&gt;BsResultsViewSelector  -->
<g id="edge10" class="edge">
<title>BsResultsViewModule&#45;&gt;BsResultsViewSelector </title>
<path fill="none" stroke="#000000" stroke-dasharray="5,2" d="M433.9546,-187.1061C433.9546,-187.1061 433.9546,-205.991 433.9546,-205.991"/>
<polygon fill="#000000" stroke="#000000" points="430.4547,-205.9909 433.9546,-215.991 437.4547,-205.991 430.4547,-205.9909"/>
</g>
<!-- ResultsViewModule  -->
<g id="node12" class="node">
<title>ResultsViewModule </title>
<polygon fill="#fb8072" stroke="#000000" points="293.0904,-252 158.9096,-252 158.9096,-216 293.0904,-216 293.0904,-252"/>
<text text-anchor="middle" x="226" y="-229.8" font-family="Times,serif" font-size="14.00" fill="#000000">ResultsViewModule </text>
</g>
<!-- BsResultsViewModule&#45;&gt;ResultsViewModule  -->
<g id="edge11" class="edge">
<title>BsResultsViewModule&#45;&gt;ResultsViewModule </title>
<path fill="none" stroke="#000000" stroke-dasharray="5,2" d="M404.9648,-178C350.5193,-178 285.5402,-178 285.5402,-178 285.5402,-178 285.5402,-205.973 285.5402,-205.973"/>
<polygon fill="#000000" stroke="#000000" points="282.0402,-205.973 285.5402,-215.973 289.0402,-205.973 282.0402,-205.973"/>
</g>
<!-- BsActionModule -->
<g id="node5" class="node">
<title>BsActionModule</title>
<polygon fill="#8dd3c7" stroke="#000000" points="534.4342,-122 531.4342,-126 510.4342,-126 507.4342,-122 421.5658,-122 421.5658,-86 534.4342,-86 534.4342,-122"/>
<text text-anchor="middle" x="478" y="-99.8" font-family="Times,serif" font-size="14.00" fill="#000000">BsActionModule</text>
</g>
<!-- BsActionModule&#45;&gt;BsResultsViewModule -->
<g id="edge4" class="edge">
<title>BsActionModule&#45;&gt;BsResultsViewModule</title>
<path fill="none" stroke="#000000" d="M478,-122.1061C478,-122.1061 478,-140.991 478,-140.991"/>
<polygon fill="#000000" stroke="#000000" points="474.5001,-140.9909 478,-150.991 481.5001,-140.991 474.5001,-140.9909"/>
</g>
<!-- BsSelectionModule -->
<g id="node6" class="node">
<title>BsSelectionModule</title>
<polygon fill="#8dd3c7" stroke="#000000" points="404.4299,-122 401.4299,-126 380.4299,-126 377.4299,-122 277.5701,-122 277.5701,-86 404.4299,-86 404.4299,-122"/>
<text text-anchor="middle" x="341" y="-99.8" font-family="Times,serif" font-size="14.00" fill="#000000">BsSelectionModule</text>
</g>
<!-- BsSelectionModule&#45;&gt;BsResultsViewModule -->
<g id="edge5" class="edge">
<title>BsSelectionModule&#45;&gt;BsResultsViewModule</title>
<path fill="none" stroke="#000000" d="M404.2514,-104C409.8334,-104 413.4239,-104 413.4239,-104 413.4239,-104 413.4239,-140.8939 413.4239,-140.8939"/>
<polygon fill="#000000" stroke="#000000" points="409.924,-140.8938 413.4239,-150.8939 416.924,-140.8939 409.924,-140.8938"/>
</g>
<!-- ResultsViewModule -->
<g id="node7" class="node">
<title>ResultsViewModule</title>
<polygon fill="#8dd3c7" stroke="#000000" points="259.5898,-122 256.5898,-126 235.5898,-126 232.5898,-122 128.4102,-122 128.4102,-86 259.5898,-86 259.5898,-122"/>
<text text-anchor="middle" x="194" y="-99.8" font-family="Times,serif" font-size="14.00" fill="#000000">ResultsViewModule</text>
</g>
<!-- ResultsViewModule&#45;&gt;BsResultsViewModule -->
<g id="edge6" class="edge">
<title>ResultsViewModule&#45;&gt;BsResultsViewModule</title>
<path fill="none" stroke="#000000" d="M209.125,-122.027C209.125,-138.3976 209.125,-160 209.125,-160 209.125,-160 394.8839,-160 394.8839,-160"/>
<polygon fill="#000000" stroke="#000000" points="394.8839,-163.5001 404.8839,-160 394.8838,-156.5001 394.8839,-163.5001"/>
</g>
<!-- UtilsModule -->
<g id="node8" class="node">
<title>UtilsModule</title>
<polygon fill="#8dd3c7" stroke="#000000" points="110.2731,-122 107.2731,-126 86.2731,-126 83.2731,-122 23.7269,-122 23.7269,-86 110.2731,-86 110.2731,-122"/>
<text text-anchor="middle" x="67" y="-99.8" font-family="Times,serif" font-size="14.00" fill="#000000">UtilsModule</text>
</g>
<!-- UtilsModule&#45;&gt;BsResultsViewModule -->
<g id="edge7" class="edge">
<title>UtilsModule&#45;&gt;BsResultsViewModule</title>
<path fill="none" stroke="#000000" d="M67,-122.1061C67,-141.3391 67,-169 67,-169 67,-169 394.995,-169 394.995,-169"/>
<polygon fill="#000000" stroke="#000000" points="394.9951,-172.5001 404.995,-169 394.995,-165.5001 394.9951,-172.5001"/>
</g>
</g>
</svg>
