<?xml version="1.0" encoding="UTF-8" standalone="no"?>
<!DOCTYPE svg PUBLIC "-//W3C//DTD SVG 1.1//EN"
 "http://www.w3.org/Graphics/SVG/1.1/DTD/svg11.dtd">
<!-- Generated by graphviz version 2.47.3 (20210619.1520)
 -->
<!-- Title: dependencies Pages: 1 -->
<svg width="584pt" height="247pt"
 viewBox="0.00 0.00 584.00 246.80" xmlns="http://www.w3.org/2000/svg" xmlns:xlink="http://www.w3.org/1999/xlink">
<g id="graph0" class="graph" transform="scale(1 1) rotate(0) translate(4 242.8)">
<title>dependencies</title>
<polygon fill="white" stroke="transparent" points="-4,4 -4,-242.8 580,-242.8 580,4 -4,4"/>
<text text-anchor="middle" x="288" y="-8.2" font-family="sans-serif" font-size="14.00">dependencies</text>
<g id="clust1" class="cluster">
<title>cluster_BsNotificationModule</title>
<polygon fill="none" stroke="black" stroke-dasharray="1,5" points="8,-32.8 8,-230.8 568,-230.8 568,-32.8 8,-32.8"/>
</g>
<g id="clust7" class="cluster">
<title>cluster_BsNotificationModule_exports</title>
<polygon fill="none" stroke="black" points="130,-170.8 130,-222.8 429,-222.8 429,-170.8 130,-170.8"/>
</g>
<g id="clust2" class="cluster">
<title>cluster_BsNotificationModule_declarations</title>
<polygon fill="none" stroke="black" points="152,-40.8 152,-92.8 560,-92.8 560,-40.8 152,-40.8"/>
</g>
<g id="clust6" class="cluster">
<title>cluster_BsNotificationModule_imports</title>
<polygon fill="none" stroke="black" points="16,-40.8 16,-92.8 144,-92.8 144,-40.8 16,-40.8"/>
</g>
<!-- BsNotification -->
<g id="node1" class="node">
<title>BsNotification</title>
<polygon fill="#ffffb3" stroke="black" points="552.43,-84.8 453.57,-84.8 453.57,-48.8 552.43,-48.8 552.43,-84.8"/>
<text text-anchor="middle" x="503" y="-62.6" font-family="Times,serif" font-size="14.00">BsNotification</text>
</g>
<!-- BsNotificationModule -->
<g id="node4" class="node">
<title>BsNotificationModule</title>
<polygon fill="#8dd3c7" stroke="black" points="362.98,-149.8 359.98,-153.8 338.98,-153.8 335.98,-149.8 221.02,-149.8 221.02,-113.8 362.98,-113.8 362.98,-149.8"/>
<text text-anchor="middle" x="292" y="-127.6" font-family="Times,serif" font-size="14.00">BsNotificationModule</text>
</g>
<!-- BsNotification&#45;&gt;BsNotificationModule -->
<g id="edge1" class="edge">
<title>BsNotification&#45;&gt;BsNotificationModule</title>
<path fill="none" stroke="black" d="M503,-84.91C503,-104.14 503,-131.8 503,-131.8 503,-131.8 373.14,-131.8 373.14,-131.8"/>
<polygon fill="black" stroke="black" points="373.14,-128.3 363.14,-131.8 373.14,-135.3 373.14,-128.3"/>
</g>
<!-- BsNotifications -->
<g id="node2" class="node">
<title>BsNotifications</title>
<polygon fill="#ffffb3" stroke="black" points="435.88,-84.8 332.12,-84.8 332.12,-48.8 435.88,-48.8 435.88,-84.8"/>
<text text-anchor="middle" x="384" y="-62.6" font-family="Times,serif" font-size="14.00">BsNotifications</text>
</g>
<!-- BsNotifications&#45;&gt;BsNotificationModule -->
<g id="edge2" class="edge">
<title>BsNotifications&#45;&gt;BsNotificationModule</title>
<path fill="none" stroke="black" d="M347.53,-84.91C347.53,-84.91 347.53,-103.79 347.53,-103.79"/>
<polygon fill="black" stroke="black" points="344.03,-103.79 347.53,-113.79 351.03,-103.79 344.03,-103.79"/>
</g>
<!-- BsNotificationsManager -->
<g id="node3" class="node">
<title>BsNotificationsManager</title>
<polygon fill="#ffffb3" stroke="black" points="313.62,-84.8 160.38,-84.8 160.38,-48.8 313.62,-48.8 313.62,-84.8"/>
<text text-anchor="middle" x="237" y="-62.6" font-family="Times,serif" font-size="14.00">BsNotificationsManager</text>
</g>
<!-- BsNotificationsManager&#45;&gt;BsNotificationModule -->
<g id="edge3" class="edge">
<title>BsNotificationsManager&#45;&gt;BsNotificationModule</title>
<path fill="none" stroke="black" d="M267.41,-84.91C267.41,-84.91 267.41,-103.79 267.41,-103.79"/>
<polygon fill="black" stroke="black" points="263.91,-103.79 267.41,-113.79 270.91,-103.79 263.91,-103.79"/>
</g>
<!-- BsNotifications  -->
<g id="node6" class="node">
<title>BsNotifications </title>
<polygon fill="#fb8072" stroke="black" points="420.88,-214.8 313.12,-214.8 313.12,-178.8 420.88,-178.8 420.88,-214.8"/>
<text text-anchor="middle" x="367" y="-192.6" font-family="Times,serif" font-size="14.00">BsNotifications </text>
</g>
<!-- BsNotificationModule&#45;&gt;BsNotifications  -->
<g id="edge5" class="edge">
<title>BsNotificationModule&#45;&gt;BsNotifications </title>
<path fill="none" stroke="black" stroke-dasharray="5,2" d="M338.15,-149.91C338.15,-149.91 338.15,-168.79 338.15,-168.79"/>
<polygon fill="black" stroke="black" points="334.65,-168.79 338.15,-178.79 341.65,-168.79 334.65,-168.79"/>
</g>
<!-- BsNotificationsManager  -->
<g id="node7" class="node">
<title>BsNotificationsManager </title>
<polygon fill="#fb8072" stroke="black" points="295.62,-214.8 138.38,-214.8 138.38,-178.8 295.62,-178.8 295.62,-214.8"/>
<text text-anchor="middle" x="217" y="-192.6" font-family="Times,serif" font-size="14.00">BsNotificationsManager </text>
</g>
<!-- BsNotificationModule&#45;&gt;BsNotificationsManager  -->
<g id="edge6" class="edge">
<title>BsNotificationModule&#45;&gt;BsNotificationsManager </title>
<path fill="none" stroke="black" stroke-dasharray="5,2" d="M258.29,-149.91C258.29,-149.91 258.29,-168.79 258.29,-168.79"/>
<polygon fill="black" stroke="black" points="254.79,-168.79 258.29,-178.79 261.79,-168.79 254.79,-168.79"/>
</g>
<!-- BsActionModule -->
<g id="node5" class="node">
<title>BsActionModule</title>
<polygon fill="#8dd3c7" stroke="black" points="136.43,-84.8 133.43,-88.8 112.43,-88.8 109.43,-84.8 23.57,-84.8 23.57,-48.8 136.43,-48.8 136.43,-84.8"/>
<text text-anchor="middle" x="80" y="-62.6" font-family="Times,serif" font-size="14.00">BsActionModule</text>
</g>
<!-- BsActionModule&#45;&gt;BsNotificationModule -->
<g id="edge4" class="edge">
<title>BsActionModule&#45;&gt;BsNotificationModule</title>
<path fill="none" stroke="black" d="M80,-84.91C80,-104.14 80,-131.8 80,-131.8 80,-131.8 210.82,-131.8 210.82,-131.8"/>
<polygon fill="black" stroke="black" points="210.82,-135.3 220.82,-131.8 210.82,-128.3 210.82,-135.3"/>
</g>
</g>
</svg>
