<?xml version="1.0" encoding="UTF-8" standalone="no"?>
<!DOCTYPE svg PUBLIC "-//W3C//DTD SVG 1.1//EN"
 "http://www.w3.org/Graphics/SVG/1.1/DTD/svg11.dtd">
<!-- Generated by graphviz version 2.47.3 (20210619.1520)
 -->
<!-- Title: dependencies Pages: 1 -->
<svg width="584pt" height="247pt"
 viewBox="0.00 0.00 584.00 246.80" xmlns="http://www.w3.org/2000/svg" xmlns:xlink="http://www.w3.org/1999/xlink">
<g id="graph0" class="graph" transform="scale(1 1) rotate(0) translate(4 242.8)">
<title>dependencies</title>
<polygon fill="white" stroke="transparent" points="-4,4 -4,-242.8 580,-242.8 580,4 -4,4"/>
<text text-anchor="middle" x="288" y="-8.2" font-family="sans-serif" font-size="14.00">dependencies</text>
<g id="clust1" class="cluster">
<title>cluster_BsNotificationModule</title>
<polygon fill="none" stroke="black" stroke-dasharray="1,5" points="8,-32.8 8,-230.8 568,-230.8 568,-32.8 8,-32.8"/>
</g>
<g id="clust6" class="cluster">
<title>cluster_BsNotificationModule_imports</title>
<polygon fill="none" stroke="black" points="432,-40.8 432,-92.8 560,-92.8 560,-40.8 432,-40.8"/>
</g>
<g id="clust2" class="cluster">
<title>cluster_BsNotificationModule_declarations</title>
<polygon fill="none" stroke="black" points="16,-40.8 16,-92.8 424,-92.8 424,-40.8 16,-40.8"/>
</g>
<g id="clust7" class="cluster">
<title>cluster_BsNotificationModule_exports</title>
<polygon fill="none" stroke="black" points="136,-170.8 136,-222.8 435,-222.8 435,-170.8 136,-170.8"/>
</g>
<!-- BsNotification -->
<g id="node1" class="node">
<title>BsNotification</title>
<polygon fill="#ffffb3" stroke="black" points="416.43,-84.8 317.57,-84.8 317.57,-48.8 416.43,-48.8 416.43,-84.8"/>
<text text-anchor="middle" x="367" y="-62.6" font-family="Times,serif" font-size="14.00">BsNotification</text>
</g>
<!-- BsNotificationModule -->
<g id="node4" class="node">
<title>BsNotificationModule</title>
<polygon fill="#8dd3c7" stroke="black" points="368.98,-149.8 365.98,-153.8 344.98,-153.8 341.98,-149.8 227.02,-149.8 227.02,-113.8 368.98,-113.8 368.98,-149.8"/>
<text text-anchor="middle" x="298" y="-127.6" font-family="Times,serif" font-size="14.00">BsNotificationModule</text>
</g>
<!-- BsNotification&#45;&gt;BsNotificationModule -->
<g id="edge1" class="edge">
<title>BsNotification&#45;&gt;BsNotificationModule</title>
<path fill="none" stroke="black" d="M343.39,-84.91C343.39,-84.91 343.39,-103.79 343.39,-103.79"/>
<polygon fill="black" stroke="black" points="339.89,-103.79 343.39,-113.79 346.89,-103.79 339.89,-103.79"/>
</g>
<!-- BsNotifications -->
<g id="node2" class="node">
<title>BsNotifications</title>
<polygon fill="#ffffb3" stroke="black" points="299.88,-84.8 196.12,-84.8 196.12,-48.8 299.88,-48.8 299.88,-84.8"/>
<text text-anchor="middle" x="248" y="-62.6" font-family="Times,serif" font-size="14.00">BsNotifications</text>
</g>
<!-- BsNotifications&#45;&gt;BsNotificationModule -->
<g id="edge2" class="edge">
<title>BsNotifications&#45;&gt;BsNotificationModule</title>
<path fill="none" stroke="black" d="M263.47,-84.91C263.47,-84.91 263.47,-103.79 263.47,-103.79"/>
<polygon fill="black" stroke="black" points="259.97,-103.79 263.47,-113.79 266.97,-103.79 259.97,-103.79"/>
</g>
<!-- BsNotificationsManager -->
<g id="node3" class="node">
<title>BsNotificationsManager</title>
<polygon fill="#ffffb3" stroke="black" points="177.62,-84.8 24.38,-84.8 24.38,-48.8 177.62,-48.8 177.62,-84.8"/>
<text text-anchor="middle" x="101" y="-62.6" font-family="Times,serif" font-size="14.00">BsNotificationsManager</text>
</g>
<!-- BsNotificationsManager&#45;&gt;BsNotificationModule -->
<g id="edge3" class="edge">
<title>BsNotificationsManager&#45;&gt;BsNotificationModule</title>
<path fill="none" stroke="black" d="M161.12,-84.91C161.12,-104.14 161.12,-131.8 161.12,-131.8 161.12,-131.8 216.76,-131.8 216.76,-131.8"/>
<polygon fill="black" stroke="black" points="216.76,-135.3 226.76,-131.8 216.76,-128.3 216.76,-135.3"/>
</g>
<!-- BsNotifications  -->
<g id="node6" class="node">
<title>BsNotifications </title>
<polygon fill="#fb8072" stroke="black" points="426.88,-214.8 319.12,-214.8 319.12,-178.8 426.88,-178.8 426.88,-214.8"/>
<text text-anchor="middle" x="373" y="-192.6" font-family="Times,serif" font-size="14.00">BsNotifications </text>
</g>
<!-- BsNotificationModule&#45;&gt;BsNotifications  -->
<g id="edge5" class="edge">
<title>BsNotificationModule&#45;&gt;BsNotifications </title>
<path fill="none" stroke="black" stroke-dasharray="5,2" d="M344.15,-149.91C344.15,-149.91 344.15,-168.79 344.15,-168.79"/>
<polygon fill="black" stroke="black" points="340.65,-168.79 344.15,-178.79 347.65,-168.79 340.65,-168.79"/>
</g>
<!-- BsNotificationsManager  -->
<g id="node7" class="node">
<title>BsNotificationsManager </title>
<polygon fill="#fb8072" stroke="black" points="301.62,-214.8 144.38,-214.8 144.38,-178.8 301.62,-178.8 301.62,-214.8"/>
<text text-anchor="middle" x="223" y="-192.6" font-family="Times,serif" font-size="14.00">BsNotificationsManager </text>
</g>
<!-- BsNotificationModule&#45;&gt;BsNotificationsManager  -->
<g id="edge6" class="edge">
<title>BsNotificationModule&#45;&gt;BsNotificationsManager </title>
<path fill="none" stroke="black" stroke-dasharray="5,2" d="M264.29,-149.91C264.29,-149.91 264.29,-168.79 264.29,-168.79"/>
<polygon fill="black" stroke="black" points="260.79,-168.79 264.29,-178.79 267.79,-168.79 260.79,-168.79"/>
</g>
<!-- BsActionModule -->
<g id="node5" class="node">
<title>BsActionModule</title>
<polygon fill="#8dd3c7" stroke="black" points="552.43,-84.8 549.43,-88.8 528.43,-88.8 525.43,-84.8 439.57,-84.8 439.57,-48.8 552.43,-48.8 552.43,-84.8"/>
<text text-anchor="middle" x="496" y="-62.6" font-family="Times,serif" font-size="14.00">BsActionModule</text>
</g>
<!-- BsActionModule&#45;&gt;BsNotificationModule -->
<g id="edge4" class="edge">
<title>BsActionModule&#45;&gt;BsNotificationModule</title>
<path fill="none" stroke="black" d="M496,-84.91C496,-104.14 496,-131.8 496,-131.8 496,-131.8 379.2,-131.8 379.2,-131.8"/>
<polygon fill="black" stroke="black" points="379.2,-128.3 369.2,-131.8 379.2,-135.3 379.2,-128.3"/>
</g>
</g>
</svg>
