<?xml version="1.0" encoding="UTF-8" standalone="no"?>
<!DOCTYPE svg PUBLIC "-//W3C//DTD SVG 1.1//EN"
 "http://www.w3.org/Graphics/SVG/1.1/DTD/svg11.dtd">
<!-- Generated by graphviz version 2.40.1 (20161225.0304)
 -->
<!-- Title: dependencies Pages: 1 -->
<svg width="584pt" height="284pt"
 viewBox="0.00 0.00 584.00 284.00" xmlns="http://www.w3.org/2000/svg" xmlns:xlink="http://www.w3.org/1999/xlink">
<g id="graph0" class="graph" transform="scale(1 1) rotate(0) translate(4 280)">
<title>dependencies</title>
<polygon fill="#ffffff" stroke="transparent" points="-4,4 -4,-280 580,-280 580,4 -4,4"/>
<text text-anchor="start" x="267.0091" y="-42.4" font-family="sans-serif" font-weight="bold" font-size="14.00" fill="#000000">Legend</text>
<polygon fill="#ffffb3" stroke="transparent" points="54,-10 54,-30 74,-30 74,-10 54,-10"/>
<text text-anchor="start" x="77.629" y="-15.4" font-family="sans-serif" font-size="14.00" fill="#000000"> &#160;Declarations</text>
<polygon fill="#8dd3c7" stroke="transparent" points="167,-10 167,-30 187,-30 187,-10 167,-10"/>
<text text-anchor="start" x="190.7251" y="-15.4" font-family="sans-serif" font-size="14.00" fill="#000000"> &#160;Module</text>
<polygon fill="#80b1d3" stroke="transparent" points="253,-10 253,-30 273,-30 273,-10 253,-10"/>
<text text-anchor="start" x="276.7812" y="-15.4" font-family="sans-serif" font-size="14.00" fill="#000000"> &#160;Bootstrap</text>
<polygon fill="#fdb462" stroke="transparent" points="350,-10 350,-30 370,-30 370,-10 350,-10"/>
<text text-anchor="start" x="373.6732" y="-15.4" font-family="sans-serif" font-size="14.00" fill="#000000"> &#160;Providers</text>
<polygon fill="#fb8072" stroke="transparent" points="446,-10 446,-30 466,-30 466,-10 446,-10"/>
<text text-anchor="start" x="469.7258" y="-15.4" font-family="sans-serif" font-size="14.00" fill="#000000"> &#160;Exports</text>
<g id="clust1" class="cluster">
<title>cluster_BsNotificationModule</title>
<polygon fill="none" stroke="#000000" stroke-dasharray="1,5" points="8,-70 8,-268 568,-268 568,-70 8,-70"/>
</g>
<g id="clust2" class="cluster">
<title>cluster_BsNotificationModule_declarations</title>
<polygon fill="none" stroke="#000000" points="152,-78 152,-130 560,-130 560,-78 152,-78"/>
</g>
<g id="clust6" class="cluster">
<title>cluster_BsNotificationModule_imports</title>
<polygon fill="none" stroke="#000000" points="16,-78 16,-130 144,-130 144,-78 16,-78"/>
</g>
<g id="clust7" class="cluster">
<title>cluster_BsNotificationModule_exports</title>
<polygon fill="none" stroke="#000000" points="130,-208 130,-260 429,-260 429,-208 130,-208"/>
</g>
<!-- BsNotification -->
<g id="node1" class="node">
<title>BsNotification</title>
<polygon fill="#ffffb3" stroke="#000000" points="552.4315,-122 453.5685,-122 453.5685,-86 552.4315,-86 552.4315,-122"/>
<text text-anchor="middle" x="503" y="-99.8" font-family="Times,serif" font-size="14.00" fill="#000000">BsNotification</text>
</g>
<!-- BsNotificationModule -->
<g id="node4" class="node">
<title>BsNotificationModule</title>
<polygon fill="#8dd3c7" stroke="#000000" points="362.9804,-187 359.9804,-191 338.9804,-191 335.9804,-187 221.0196,-187 221.0196,-151 362.9804,-151 362.9804,-187"/>
<text text-anchor="middle" x="292" y="-164.8" font-family="Times,serif" font-size="14.00" fill="#000000">BsNotificationModule</text>
</g>
<!-- BsNotification&#45;&gt;BsNotificationModule -->
<g id="edge1" class="edge">
<title>BsNotification&#45;&gt;BsNotificationModule</title>
<path fill="none" stroke="#000000" d="M503,-122.1061C503,-141.3391 503,-169 503,-169 503,-169 373.1408,-169 373.1408,-169"/>
<polygon fill="#000000" stroke="#000000" points="373.1409,-165.5001 363.1408,-169 373.1408,-172.5001 373.1409,-165.5001"/>
</g>
<!-- BsNotifications -->
<g id="node2" class="node">
<title>BsNotifications</title>
<polygon fill="#ffffb3" stroke="#000000" points="435.8753,-122 332.1247,-122 332.1247,-86 435.8753,-86 435.8753,-122"/>
<text text-anchor="middle" x="384" y="-99.8" font-family="Times,serif" font-size="14.00" fill="#000000">BsNotifications</text>
</g>
<!-- BsNotifications&#45;&gt;BsNotificationModule -->
<g id="edge2" class="edge">
<title>BsNotifications&#45;&gt;BsNotificationModule</title>
<path fill="none" stroke="#000000" d="M347.5263,-122.1061C347.5263,-122.1061 347.5263,-140.991 347.5263,-140.991"/>
<polygon fill="#000000" stroke="#000000" points="344.0264,-140.9909 347.5263,-150.991 351.0264,-140.991 344.0264,-140.9909"/>
</g>
<!-- BsNotificationsManager -->
<g id="node3" class="node">
<title>BsNotificationsManager</title>
<polygon fill="#ffffb3" stroke="#000000" points="313.6247,-122 160.3753,-122 160.3753,-86 313.6247,-86 313.6247,-122"/>
<text text-anchor="middle" x="237" y="-99.8" font-family="Times,serif" font-size="14.00" fill="#000000">BsNotificationsManager</text>
</g>
<!-- BsNotificationsManager&#45;&gt;BsNotificationModule -->
<g id="edge3" class="edge">
<title>BsNotificationsManager&#45;&gt;BsNotificationModule</title>
<path fill="none" stroke="#000000" d="M267.4109,-122.1061C267.4109,-122.1061 267.4109,-140.991 267.4109,-140.991"/>
<polygon fill="#000000" stroke="#000000" points="263.911,-140.9909 267.4109,-150.991 270.911,-140.991 263.911,-140.9909"/>
</g>
<!-- BsNotifications  -->
<g id="node6" class="node">
<title>BsNotifications </title>
<polygon fill="#fb8072" stroke="#000000" points="420.8759,-252 313.1241,-252 313.1241,-216 420.8759,-216 420.8759,-252"/>
<text text-anchor="middle" x="367" y="-229.8" font-family="Times,serif" font-size="14.00" fill="#000000">BsNotifications </text>
</g>
<!-- BsNotificationModule&#45;&gt;BsNotifications  -->
<g id="edge5" class="edge">
<title>BsNotificationModule&#45;&gt;BsNotifications </title>
<path fill="none" stroke="#000000" stroke-dasharray="5,2" d="M338.1513,-187.1061C338.1513,-187.1061 338.1513,-205.991 338.1513,-205.991"/>
<polygon fill="#000000" stroke="#000000" points="334.6514,-205.9909 338.1513,-215.991 341.6514,-205.991 334.6514,-205.9909"/>
</g>
<!-- BsNotificationsManager  -->
<g id="node7" class="node">
<title>BsNotificationsManager </title>
<polygon fill="#fb8072" stroke="#000000" points="295.6242,-252 138.3758,-252 138.3758,-216 295.6242,-216 295.6242,-252"/>
<text text-anchor="middle" x="217" y="-229.8" font-family="Times,serif" font-size="14.00" fill="#000000">BsNotificationsManager </text>
</g>
<!-- BsNotificationModule&#45;&gt;BsNotificationsManager  -->
<g id="edge6" class="edge">
<title>BsNotificationModule&#45;&gt;BsNotificationsManager </title>
<path fill="none" stroke="#000000" stroke-dasharray="5,2" d="M258.2859,-187.1061C258.2859,-187.1061 258.2859,-205.991 258.2859,-205.991"/>
<polygon fill="#000000" stroke="#000000" points="254.786,-205.9909 258.2859,-215.991 261.786,-205.991 254.786,-205.9909"/>
</g>
<!-- BsActionModule -->
<g id="node5" class="node">
<title>BsActionModule</title>
<polygon fill="#8dd3c7" stroke="#000000" points="136.4342,-122 133.4342,-126 112.4342,-126 109.4342,-122 23.5658,-122 23.5658,-86 136.4342,-86 136.4342,-122"/>
<text text-anchor="middle" x="80" y="-99.8" font-family="Times,serif" font-size="14.00" fill="#000000">BsActionModule</text>
</g>
<!-- BsActionModule&#45;&gt;BsNotificationModule -->
<g id="edge4" class="edge">
<title>BsActionModule&#45;&gt;BsNotificationModule</title>
<path fill="none" stroke="#000000" d="M80,-122.1061C80,-141.3391 80,-169 80,-169 80,-169 210.8173,-169 210.8173,-169"/>
<polygon fill="#000000" stroke="#000000" points="210.8173,-172.5001 220.8173,-169 210.8173,-165.5001 210.8173,-172.5001"/>
</g>
</g>
</svg>
