<?xml version="1.0" encoding="UTF-8" standalone="no"?>
<!DOCTYPE svg PUBLIC "-//W3C//DTD SVG 1.1//EN"
 "http://www.w3.org/Graphics/SVG/1.1/DTD/svg11.dtd">
<!-- Generated by graphviz version 2.47.3 (20210619.1520)
 -->
<!-- Title: dependencies Pages: 1 -->
<svg width="804pt" height="247pt"
 viewBox="0.00 0.00 804.00 246.80" xmlns="http://www.w3.org/2000/svg" xmlns:xlink="http://www.w3.org/1999/xlink">
<g id="graph0" class="graph" transform="scale(1 1) rotate(0) translate(4 242.8)">
<title>dependencies</title>
<polygon fill="white" stroke="transparent" points="-4,4 -4,-242.8 800,-242.8 800,4 -4,4"/>
<text text-anchor="middle" x="398" y="-8.2" font-family="sans-serif" font-size="14.00">dependencies</text>
<g id="clust1" class="cluster">
<title>cluster_BsAutocompleteModule</title>
<polygon fill="none" stroke="black" stroke-dasharray="1,5" points="8,-32.8 8,-230.8 788,-230.8 788,-32.8 8,-32.8"/>
</g>
<g id="clust8" class="cluster">
<title>cluster_BsAutocompleteModule_exports</title>
<polygon fill="none" stroke="black" points="65,-170.8 65,-222.8 732,-222.8 732,-170.8 65,-170.8"/>
</g>
<g id="clust2" class="cluster">
<title>cluster_BsAutocompleteModule_declarations</title>
<polygon fill="none" stroke="black" points="126,-40.8 126,-92.8 780,-92.8 780,-40.8 126,-40.8"/>
</g>
<g id="clust7" class="cluster">
<title>cluster_BsAutocompleteModule_imports</title>
<polygon fill="none" stroke="black" points="16,-40.8 16,-92.8 118,-92.8 118,-40.8 16,-40.8"/>
</g>
<!-- Autocomplete -->
<g id="node1" class="node">
<title>Autocomplete</title>
<polygon fill="#ffffb3" stroke="black" points="771.81,-84.8 676.19,-84.8 676.19,-48.8 771.81,-48.8 771.81,-84.8"/>
<text text-anchor="middle" x="724" y="-62.6" font-family="Times,serif" font-size="14.00">Autocomplete</text>
</g>
<!-- BsAutocompleteModule -->
<g id="node5" class="node">
<title>BsAutocompleteModule</title>
<polygon fill="#8dd3c7" stroke="black" points="488.64,-149.8 485.64,-153.8 464.64,-153.8 461.64,-149.8 335.36,-149.8 335.36,-113.8 488.64,-113.8 488.64,-149.8"/>
<text text-anchor="middle" x="412" y="-127.6" font-family="Times,serif" font-size="14.00">BsAutocompleteModule</text>
</g>
<!-- Autocomplete&#45;&gt;BsAutocompleteModule -->
<g id="edge1" class="edge">
<title>Autocomplete&#45;&gt;BsAutocompleteModule</title>
<path fill="none" stroke="black" d="M700.38,-84.82C700.38,-102.17 700.38,-125.8 700.38,-125.8 700.38,-125.8 498.9,-125.8 498.9,-125.8"/>
<polygon fill="black" stroke="black" points="498.9,-122.3 488.9,-125.8 498.9,-129.3 498.9,-122.3"/>
</g>
<!-- AutocompleteFieldSearch -->
<g id="node2" class="node">
<title>AutocompleteFieldSearch</title>
<polygon fill="#ffffb3" stroke="black" points="658.18,-84.8 495.82,-84.8 495.82,-48.8 658.18,-48.8 658.18,-84.8"/>
<text text-anchor="middle" x="577" y="-62.6" font-family="Times,serif" font-size="14.00">AutocompleteFieldSearch</text>
</g>
<!-- AutocompleteFieldSearch&#45;&gt;BsAutocompleteModule -->
<g id="edge2" class="edge">
<title>AutocompleteFieldSearch&#45;&gt;BsAutocompleteModule</title>
<path fill="none" stroke="black" d="M495.62,-66.8C488.18,-66.8 483.38,-66.8 483.38,-66.8 483.38,-66.8 483.38,-103.69 483.38,-103.69"/>
<polygon fill="black" stroke="black" points="479.88,-103.69 483.38,-113.69 486.88,-103.69 479.88,-103.69"/>
</g>
<!-- BsAutocompleteList -->
<g id="node3" class="node">
<title>BsAutocompleteList</title>
<polygon fill="#ffffb3" stroke="black" points="477.87,-84.8 346.13,-84.8 346.13,-48.8 477.87,-48.8 477.87,-84.8"/>
<text text-anchor="middle" x="412" y="-62.6" font-family="Times,serif" font-size="14.00">BsAutocompleteList</text>
</g>
<!-- BsAutocompleteList&#45;&gt;BsAutocompleteModule -->
<g id="edge3" class="edge">
<title>BsAutocompleteList&#45;&gt;BsAutocompleteModule</title>
<path fill="none" stroke="black" d="M412,-84.91C412,-84.91 412,-103.79 412,-103.79"/>
<polygon fill="black" stroke="black" points="408.5,-103.79 412,-113.79 415.5,-103.79 408.5,-103.79"/>
</g>
<!-- BsFieldSearchItemsComponent -->
<g id="node4" class="node">
<title>BsFieldSearchItemsComponent</title>
<polygon fill="#ffffb3" stroke="black" points="328.08,-84.8 133.92,-84.8 133.92,-48.8 328.08,-48.8 328.08,-84.8"/>
<text text-anchor="middle" x="231" y="-62.6" font-family="Times,serif" font-size="14.00">BsFieldSearchItemsComponent</text>
</g>
<!-- BsFieldSearchItemsComponent&#45;&gt;BsAutocompleteModule -->
<g id="edge4" class="edge">
<title>BsFieldSearchItemsComponent&#45;&gt;BsAutocompleteModule</title>
<path fill="none" stroke="black" d="M328.05,-66.8C335.74,-66.8 340.62,-66.8 340.62,-66.8 340.62,-66.8 340.62,-103.69 340.62,-103.69"/>
<polygon fill="black" stroke="black" points="337.12,-103.69 340.62,-113.69 344.12,-103.69 337.12,-103.69"/>
</g>
<!-- Autocomplete  -->
<g id="node7" class="node">
<title>Autocomplete </title>
<polygon fill="#fb8072" stroke="black" points="724.31,-214.8 625.69,-214.8 625.69,-178.8 724.31,-178.8 724.31,-214.8"/>
<text text-anchor="middle" x="675" y="-192.6" font-family="Times,serif" font-size="14.00">Autocomplete </text>
</g>
<!-- BsAutocompleteModule&#45;&gt;Autocomplete  -->
<g id="edge6" class="edge">
<title>BsAutocompleteModule&#45;&gt;Autocomplete </title>
<path fill="none" stroke="black" stroke-dasharray="5,2" d="M488.85,-137.8C555.67,-137.8 641.84,-137.8 641.84,-137.8 641.84,-137.8 641.84,-168.78 641.84,-168.78"/>
<polygon fill="black" stroke="black" points="638.34,-168.78 641.84,-178.78 645.34,-168.78 638.34,-168.78"/>
</g>
<!-- AutocompleteFieldSearch  -->
<g id="node8" class="node">
<title>AutocompleteFieldSearch </title>
<polygon fill="#fb8072" stroke="black" points="607.68,-214.8 442.32,-214.8 442.32,-178.8 607.68,-178.8 607.68,-214.8"/>
<text text-anchor="middle" x="525" y="-192.6" font-family="Times,serif" font-size="14.00">AutocompleteFieldSearch </text>
</g>
<!-- BsAutocompleteModule&#45;&gt;AutocompleteFieldSearch  -->
<g id="edge7" class="edge">
<title>BsAutocompleteModule&#45;&gt;AutocompleteFieldSearch </title>
<path fill="none" stroke="black" stroke-dasharray="5,2" d="M465.49,-149.91C465.49,-149.91 465.49,-168.79 465.49,-168.79"/>
<polygon fill="black" stroke="black" points="461.99,-168.79 465.49,-178.79 468.99,-168.79 461.99,-168.79"/>
</g>
<!-- BsAutocompleteList  -->
<g id="node9" class="node">
<title>BsAutocompleteList </title>
<polygon fill="#fb8072" stroke="black" points="423.87,-214.8 288.13,-214.8 288.13,-178.8 423.87,-178.8 423.87,-214.8"/>
<text text-anchor="middle" x="356" y="-192.6" font-family="Times,serif" font-size="14.00">BsAutocompleteList </text>
</g>
<!-- BsAutocompleteModule&#45;&gt;BsAutocompleteList  -->
<g id="edge8" class="edge">
<title>BsAutocompleteModule&#45;&gt;BsAutocompleteList </title>
<path fill="none" stroke="black" stroke-dasharray="5,2" d="M379.43,-149.91C379.43,-149.91 379.43,-168.79 379.43,-168.79"/>
<polygon fill="black" stroke="black" points="375.93,-168.79 379.43,-178.79 382.93,-168.79 375.93,-168.79"/>
</g>
<!-- BsFieldSearchItemsComponent  -->
<g id="node10" class="node">
<title>BsFieldSearchItemsComponent </title>
<polygon fill="#fb8072" stroke="black" points="270.58,-214.8 73.42,-214.8 73.42,-178.8 270.58,-178.8 270.58,-214.8"/>
<text text-anchor="middle" x="172" y="-192.6" font-family="Times,serif" font-size="14.00">BsFieldSearchItemsComponent </text>
</g>
<!-- BsAutocompleteModule&#45;&gt;BsFieldSearchItemsComponent  -->
<g id="edge9" class="edge">
<title>BsAutocompleteModule&#45;&gt;BsFieldSearchItemsComponent </title>
<path fill="none" stroke="black" stroke-dasharray="5,2" d="M335.13,-137.8C275.31,-137.8 202.38,-137.8 202.38,-137.8 202.38,-137.8 202.38,-168.78 202.38,-168.78"/>
<polygon fill="black" stroke="black" points="198.88,-168.78 202.38,-178.78 205.88,-168.78 198.88,-168.78"/>
</g>
<!-- UtilsModule -->
<g id="node6" class="node">
<title>UtilsModule</title>
<polygon fill="#8dd3c7" stroke="black" points="110.27,-84.8 107.27,-88.8 86.27,-88.8 83.27,-84.8 23.73,-84.8 23.73,-48.8 110.27,-48.8 110.27,-84.8"/>
<text text-anchor="middle" x="67" y="-62.6" font-family="Times,serif" font-size="14.00">UtilsModule</text>
</g>
<!-- UtilsModule&#45;&gt;BsAutocompleteModule -->
<g id="edge5" class="edge">
<title>UtilsModule&#45;&gt;BsAutocompleteModule</title>
<path fill="none" stroke="black" d="M91.8,-84.82C91.8,-102.17 91.8,-125.8 91.8,-125.8 91.8,-125.8 325.3,-125.8 325.3,-125.8"/>
<polygon fill="black" stroke="black" points="325.3,-129.3 335.3,-125.8 325.3,-122.3 325.3,-129.3"/>
</g>
</g>
</svg>
