<?xml version="1.0" encoding="UTF-8" standalone="no"?>
<!DOCTYPE svg PUBLIC "-//W3C//DTD SVG 1.1//EN"
 "http://www.w3.org/Graphics/SVG/1.1/DTD/svg11.dtd">
<!-- Generated by graphviz version 2.47.3 (20210619.1520)
 -->
<!-- Title: dependencies Pages: 1 -->
<svg width="322pt" height="247pt"
 viewBox="0.00 0.00 322.00 246.80" xmlns="http://www.w3.org/2000/svg" xmlns:xlink="http://www.w3.org/1999/xlink">
<g id="graph0" class="graph" transform="scale(1 1) rotate(0) translate(4 242.8)">
<title>dependencies</title>
<polygon fill="white" stroke="transparent" points="-4,4 -4,-242.8 318,-242.8 318,4 -4,4"/>
<text text-anchor="middle" x="157" y="-8.2" font-family="sans-serif" font-size="14.00">dependencies</text>
<g id="clust1" class="cluster">
<title>cluster_VisTimelineModule</title>
<polygon fill="none" stroke="black" stroke-dasharray="1,5" points="8,-32.8 8,-230.8 306,-230.8 306,-32.8 8,-32.8"/>
</g>
<g id="clust2" class="cluster">
<title>cluster_VisTimelineModule_declarations</title>
<polygon fill="none" stroke="black" points="20,-40.8 20,-92.8 294,-92.8 294,-40.8 20,-40.8"/>
</g>
<g id="clust6" class="cluster">
<title>cluster_VisTimelineModule_exports</title>
<polygon fill="none" stroke="black" points="16,-170.8 16,-222.8 298,-222.8 298,-170.8 16,-170.8"/>
</g>
<!-- ResultTimeline -->
<g id="node1" class="node">
<title>ResultTimeline</title>
<polygon fill="#ffffb3" stroke="black" points="286.32,-84.8 183.68,-84.8 183.68,-48.8 286.32,-48.8 286.32,-84.8"/>
<text text-anchor="middle" x="235" y="-62.6" font-family="Times,serif" font-size="14.00">ResultTimeline</text>
</g>
<!-- VisTimelineModule -->
<g id="node3" class="node">
<title>VisTimelineModule</title>
<polygon fill="#8dd3c7" stroke="black" points="162.54,-149.8 159.54,-153.8 138.54,-153.8 135.54,-149.8 33.46,-149.8 33.46,-113.8 162.54,-113.8 162.54,-149.8"/>
<text text-anchor="middle" x="98" y="-127.6" font-family="Times,serif" font-size="14.00">VisTimelineModule</text>
</g>
<!-- ResultTimeline&#45;&gt;VisTimelineModule -->
<g id="edge1" class="edge">
<title>ResultTimeline&#45;&gt;VisTimelineModule</title>
<path fill="none" stroke="black" d="M252.14,-84.82C252.14,-102.17 252.14,-125.8 252.14,-125.8 252.14,-125.8 172.92,-125.8 172.92,-125.8"/>
<polygon fill="black" stroke="black" points="172.92,-122.3 162.92,-125.8 172.92,-129.3 172.92,-122.3"/>
</g>
<!-- VisTimelineDirective -->
<g id="node2" class="node">
<title>VisTimelineDirective</title>
<polygon fill="#ffffb3" stroke="black" points="166.07,-84.8 27.93,-84.8 27.93,-48.8 166.07,-48.8 166.07,-84.8"/>
<text text-anchor="middle" x="97" y="-62.6" font-family="Times,serif" font-size="14.00">VisTimelineDirective</text>
</g>
<!-- VisTimelineDirective&#45;&gt;VisTimelineModule -->
<g id="edge2" class="edge">
<title>VisTimelineDirective&#45;&gt;VisTimelineModule</title>
<path fill="none" stroke="black" d="M98,-84.91C98,-84.91 98,-103.79 98,-103.79"/>
<polygon fill="black" stroke="black" points="94.5,-103.79 98,-113.79 101.5,-103.79 94.5,-103.79"/>
</g>
<!-- ResultTimeline  -->
<g id="node4" class="node">
<title>ResultTimeline </title>
<polygon fill="#fb8072" stroke="black" points="289.82,-214.8 184.18,-214.8 184.18,-178.8 289.82,-178.8 289.82,-214.8"/>
<text text-anchor="middle" x="237" y="-192.6" font-family="Times,serif" font-size="14.00">ResultTimeline </text>
</g>
<!-- VisTimelineModule&#45;&gt;ResultTimeline  -->
<g id="edge3" class="edge">
<title>VisTimelineModule&#45;&gt;ResultTimeline </title>
<path fill="none" stroke="black" stroke-dasharray="5,2" d="M162.63,-137.8C191.06,-137.8 218.11,-137.8 218.11,-137.8 218.11,-137.8 218.11,-168.78 218.11,-168.78"/>
<polygon fill="black" stroke="black" points="214.61,-168.78 218.11,-178.78 221.61,-168.78 214.61,-168.78"/>
</g>
<!-- VisTimelineDirective  -->
<g id="node5" class="node">
<title>VisTimelineDirective </title>
<polygon fill="#fb8072" stroke="black" points="165.57,-214.8 24.43,-214.8 24.43,-178.8 165.57,-178.8 165.57,-214.8"/>
<text text-anchor="middle" x="95" y="-192.6" font-family="Times,serif" font-size="14.00">VisTimelineDirective </text>
</g>
<!-- VisTimelineModule&#45;&gt;VisTimelineDirective  -->
<g id="edge4" class="edge">
<title>VisTimelineModule&#45;&gt;VisTimelineDirective </title>
<path fill="none" stroke="black" stroke-dasharray="5,2" d="M98,-149.91C98,-149.91 98,-168.79 98,-168.79"/>
<polygon fill="black" stroke="black" points="94.5,-168.79 98,-178.79 101.5,-168.79 94.5,-168.79"/>
</g>
</g>
</svg>
