<?xml version="1.0" encoding="UTF-8" standalone="no"?>
<!DOCTYPE svg PUBLIC "-//W3C//DTD SVG 1.1//EN"
 "http://www.w3.org/Graphics/SVG/1.1/DTD/svg11.dtd">
<!-- Generated by graphviz version 2.47.3 (20210619.1520)
 -->
<!-- Title: dependencies Pages: 1 -->
<svg width="170pt" height="247pt"
 viewBox="0.00 0.00 170.00 246.80" xmlns="http://www.w3.org/2000/svg" xmlns:xlink="http://www.w3.org/1999/xlink">
<g id="graph0" class="graph" transform="scale(1 1) rotate(0) translate(4 242.8)">
<title>dependencies</title>
<polygon fill="white" stroke="transparent" points="-4,4 -4,-242.8 166,-242.8 166,4 -4,4"/>
<text text-anchor="middle" x="81" y="-8.2" font-family="sans-serif" font-size="14.00">dependencies</text>
<g id="clust1" class="cluster">
<title>cluster_VisTimelineModule</title>
<polygon fill="none" stroke="black" stroke-dasharray="1,5" points="8,-32.8 8,-230.8 154,-230.8 154,-32.8 8,-32.8"/>
</g>
<g id="clust2" class="cluster">
<title>cluster_VisTimelineModule_declarations</title>
<polygon fill="none" stroke="black" points="22,-40.8 22,-92.8 140,-92.8 140,-40.8 22,-40.8"/>
</g>
<g id="clust5" class="cluster">
<title>cluster_VisTimelineModule_exports</title>
<polygon fill="none" stroke="black" points="20,-170.8 20,-222.8 142,-222.8 142,-170.8 20,-170.8"/>
</g>
<!-- ResultTimeline -->
<g id="node1" class="node">
<title>ResultTimeline</title>
<polygon fill="#ffffb3" stroke="black" points="132.32,-84.8 29.68,-84.8 29.68,-48.8 132.32,-48.8 132.32,-84.8"/>
<text text-anchor="middle" x="81" y="-62.6" font-family="Times,serif" font-size="14.00">ResultTimeline</text>
</g>
<!-- VisTimelineModule -->
<g id="node2" class="node">
<title>VisTimelineModule</title>
<polygon fill="#8dd3c7" stroke="black" points="145.54,-149.8 142.54,-153.8 121.54,-153.8 118.54,-149.8 16.46,-149.8 16.46,-113.8 145.54,-113.8 145.54,-149.8"/>
<text text-anchor="middle" x="81" y="-127.6" font-family="Times,serif" font-size="14.00">VisTimelineModule</text>
</g>
<!-- ResultTimeline&#45;&gt;VisTimelineModule -->
<g id="edge1" class="edge">
<title>ResultTimeline&#45;&gt;VisTimelineModule</title>
<path fill="none" stroke="black" d="M81,-84.91C81,-84.91 81,-103.79 81,-103.79"/>
<polygon fill="black" stroke="black" points="77.5,-103.79 81,-113.79 84.5,-103.79 77.5,-103.79"/>
</g>
<!-- ResultTimeline  -->
<g id="node3" class="node">
<title>ResultTimeline </title>
<polygon fill="#fb8072" stroke="black" points="133.82,-214.8 28.18,-214.8 28.18,-178.8 133.82,-178.8 133.82,-214.8"/>
<text text-anchor="middle" x="81" y="-192.6" font-family="Times,serif" font-size="14.00">ResultTimeline </text>
</g>
<!-- VisTimelineModule&#45;&gt;ResultTimeline  -->
<g id="edge2" class="edge">
<title>VisTimelineModule&#45;&gt;ResultTimeline </title>
<path fill="none" stroke="black" stroke-dasharray="5,2" d="M81,-149.91C81,-149.91 81,-168.79 81,-168.79"/>
<polygon fill="black" stroke="black" points="77.5,-168.79 81,-178.79 84.5,-168.79 77.5,-168.79"/>
</g>
</g>
</svg>
