<?xml version="1.0" encoding="UTF-8" standalone="no"?>
<!DOCTYPE svg PUBLIC "-//W3C//DTD SVG 1.1//EN"
 "http://www.w3.org/Graphics/SVG/1.1/DTD/svg11.dtd">
<!-- Generated by graphviz version 2.47.3 (20210619.1520)
 -->
<!-- Title: dependencies Pages: 1 -->
<svg width="445pt" height="247pt"
 viewBox="0.00 0.00 445.00 246.80" xmlns="http://www.w3.org/2000/svg" xmlns:xlink="http://www.w3.org/1999/xlink">
<g id="graph0" class="graph" transform="scale(1 1) rotate(0) translate(4 242.8)">
<title>dependencies</title>
<polygon fill="white" stroke="transparent" points="-4,4 -4,-242.8 441,-242.8 441,4 -4,4"/>
<text text-anchor="middle" x="218.5" y="-8.2" font-family="sans-serif" font-size="14.00">dependencies</text>
<g id="clust1" class="cluster">
<title>cluster_PreviewModule</title>
<polygon fill="none" stroke="black" stroke-dasharray="1,5" points="8,-32.8 8,-230.8 429,-230.8 429,-32.8 8,-32.8"/>
</g>
<g id="clust6" class="cluster">
<title>cluster_PreviewModule_exports</title>
<polygon fill="none" stroke="black" points="68,-170.8 68,-222.8 369,-222.8 369,-170.8 68,-170.8"/>
</g>
<g id="clust5" class="cluster">
<title>cluster_PreviewModule_imports</title>
<polygon fill="none" stroke="black" points="319,-40.8 319,-92.8 421,-92.8 421,-40.8 319,-40.8"/>
</g>
<g id="clust2" class="cluster">
<title>cluster_PreviewModule_declarations</title>
<polygon fill="none" stroke="black" points="16,-40.8 16,-92.8 311,-92.8 311,-40.8 16,-40.8"/>
</g>
<!-- PreviewDocumentIframe -->
<g id="node1" class="node">
<title>PreviewDocumentIframe</title>
<polygon fill="#ffffb3" stroke="black" points="302.99,-84.8 145.01,-84.8 145.01,-48.8 302.99,-48.8 302.99,-84.8"/>
<text text-anchor="middle" x="224" y="-62.6" font-family="Times,serif" font-size="14.00">PreviewDocumentIframe</text>
</g>
<!-- PreviewModule -->
<g id="node3" class="node">
<title>PreviewModule</title>
<polygon fill="#8dd3c7" stroke="black" points="276.92,-149.8 273.92,-153.8 252.92,-153.8 249.92,-149.8 171.08,-149.8 171.08,-113.8 276.92,-113.8 276.92,-149.8"/>
<text text-anchor="middle" x="224" y="-127.6" font-family="Times,serif" font-size="14.00">PreviewModule</text>
</g>
<!-- PreviewDocumentIframe&#45;&gt;PreviewModule -->
<g id="edge1" class="edge">
<title>PreviewDocumentIframe&#45;&gt;PreviewModule</title>
<path fill="none" stroke="black" d="M224,-84.91C224,-84.91 224,-103.79 224,-103.79"/>
<polygon fill="black" stroke="black" points="220.5,-103.79 224,-113.79 227.5,-103.79 220.5,-103.79"/>
</g>
<!-- PreviewTooltip -->
<g id="node2" class="node">
<title>PreviewTooltip</title>
<polygon fill="#ffffb3" stroke="black" points="127.59,-84.8 24.41,-84.8 24.41,-48.8 127.59,-48.8 127.59,-84.8"/>
<text text-anchor="middle" x="76" y="-62.6" font-family="Times,serif" font-size="14.00">PreviewTooltip</text>
</g>
<!-- PreviewTooltip&#45;&gt;PreviewModule -->
<g id="edge2" class="edge">
<title>PreviewTooltip&#45;&gt;PreviewModule</title>
<path fill="none" stroke="black" d="M101.62,-84.91C101.62,-104.14 101.62,-131.8 101.62,-131.8 101.62,-131.8 161.04,-131.8 161.04,-131.8"/>
<polygon fill="black" stroke="black" points="161.04,-135.3 171.04,-131.8 161.04,-128.3 161.04,-135.3"/>
</g>
<!-- PreviewDocumentIframe  -->
<g id="node5" class="node">
<title>PreviewDocumentIframe </title>
<polygon fill="#fb8072" stroke="black" points="361.49,-214.8 200.51,-214.8 200.51,-178.8 361.49,-178.8 361.49,-214.8"/>
<text text-anchor="middle" x="281" y="-192.6" font-family="Times,serif" font-size="14.00">PreviewDocumentIframe </text>
</g>
<!-- PreviewModule&#45;&gt;PreviewDocumentIframe  -->
<g id="edge4" class="edge">
<title>PreviewModule&#45;&gt;PreviewDocumentIframe </title>
<path fill="none" stroke="black" stroke-dasharray="5,2" d="M238.61,-149.91C238.61,-149.91 238.61,-168.79 238.61,-168.79"/>
<polygon fill="black" stroke="black" points="235.11,-168.79 238.61,-178.79 242.11,-168.79 235.11,-168.79"/>
</g>
<!-- PreviewTooltip  -->
<g id="node6" class="node">
<title>PreviewTooltip </title>
<polygon fill="#fb8072" stroke="black" points="182.09,-214.8 75.91,-214.8 75.91,-178.8 182.09,-178.8 182.09,-214.8"/>
<text text-anchor="middle" x="129" y="-192.6" font-family="Times,serif" font-size="14.00">PreviewTooltip </text>
</g>
<!-- PreviewModule&#45;&gt;PreviewTooltip  -->
<g id="edge5" class="edge">
<title>PreviewModule&#45;&gt;PreviewTooltip </title>
<path fill="none" stroke="black" stroke-dasharray="5,2" d="M176.79,-149.91C176.79,-149.91 176.79,-168.79 176.79,-168.79"/>
<polygon fill="black" stroke="black" points="173.29,-168.79 176.79,-178.79 180.29,-168.79 173.29,-168.79"/>
</g>
<!-- UtilsModule -->
<g id="node4" class="node">
<title>UtilsModule</title>
<polygon fill="#8dd3c7" stroke="black" points="413.27,-84.8 410.27,-88.8 389.27,-88.8 386.27,-84.8 326.73,-84.8 326.73,-48.8 413.27,-48.8 413.27,-84.8"/>
<text text-anchor="middle" x="370" y="-62.6" font-family="Times,serif" font-size="14.00">UtilsModule</text>
</g>
<!-- UtilsModule&#45;&gt;PreviewModule -->
<g id="edge3" class="edge">
<title>UtilsModule&#45;&gt;PreviewModule</title>
<path fill="none" stroke="black" d="M344.05,-84.91C344.05,-104.14 344.05,-131.8 344.05,-131.8 344.05,-131.8 287.01,-131.8 287.01,-131.8"/>
<polygon fill="black" stroke="black" points="287.01,-128.3 277.01,-131.8 287.01,-135.3 287.01,-128.3"/>
</g>
</g>
</svg>
