<?xml version="1.0" encoding="UTF-8" standalone="no"?>
<!DOCTYPE svg PUBLIC "-//W3C//DTD SVG 1.1//EN"
 "http://www.w3.org/Graphics/SVG/1.1/DTD/svg11.dtd">
<!-- Generated by graphviz version 2.47.3 (20210619.1520)
 -->
<!-- Title: dependencies Pages: 1 -->
<svg width="445pt" height="247pt"
 viewBox="0.00 0.00 445.00 246.80" xmlns="http://www.w3.org/2000/svg" xmlns:xlink="http://www.w3.org/1999/xlink">
<g id="graph0" class="graph" transform="scale(1 1) rotate(0) translate(4 242.8)">
<title>dependencies</title>
<polygon fill="white" stroke="transparent" points="-4,4 -4,-242.8 441,-242.8 441,4 -4,4"/>
<text text-anchor="middle" x="218.5" y="-8.2" font-family="sans-serif" font-size="14.00">dependencies</text>
<g id="clust1" class="cluster">
<title>cluster_PreviewModule</title>
<polygon fill="none" stroke="black" stroke-dasharray="1,5" points="8,-32.8 8,-230.8 429,-230.8 429,-32.8 8,-32.8"/>
</g>
<g id="clust6" class="cluster">
<title>cluster_PreviewModule_exports</title>
<polygon fill="none" stroke="black" points="68,-170.8 68,-222.8 369,-222.8 369,-170.8 68,-170.8"/>
</g>
<g id="clust2" class="cluster">
<title>cluster_PreviewModule_declarations</title>
<polygon fill="none" stroke="black" points="126,-40.8 126,-92.8 421,-92.8 421,-40.8 126,-40.8"/>
</g>
<g id="clust5" class="cluster">
<title>cluster_PreviewModule_imports</title>
<polygon fill="none" stroke="black" points="16,-40.8 16,-92.8 118,-92.8 118,-40.8 16,-40.8"/>
</g>
<!-- PreviewDocumentIframe -->
<g id="node1" class="node">
<title>PreviewDocumentIframe</title>
<polygon fill="#ffffb3" stroke="black" points="412.99,-84.8 255.01,-84.8 255.01,-48.8 412.99,-48.8 412.99,-84.8"/>
<text text-anchor="middle" x="334" y="-62.6" font-family="Times,serif" font-size="14.00">PreviewDocumentIframe</text>
</g>
<!-- PreviewModule -->
<g id="node3" class="node">
<title>PreviewModule</title>
<polygon fill="#8dd3c7" stroke="black" points="238.92,-149.8 235.92,-153.8 214.92,-153.8 211.92,-149.8 133.08,-149.8 133.08,-113.8 238.92,-113.8 238.92,-149.8"/>
<text text-anchor="middle" x="186" y="-127.6" font-family="Times,serif" font-size="14.00">PreviewModule</text>
</g>
<!-- PreviewDocumentIframe&#45;&gt;PreviewModule -->
<g id="edge1" class="edge">
<title>PreviewDocumentIframe&#45;&gt;PreviewModule</title>
<path fill="none" stroke="black" d="M308.38,-84.91C308.38,-104.14 308.38,-131.8 308.38,-131.8 308.38,-131.8 248.96,-131.8 248.96,-131.8"/>
<polygon fill="black" stroke="black" points="248.96,-128.3 238.96,-131.8 248.96,-135.3 248.96,-128.3"/>
</g>
<!-- PreviewTooltip -->
<g id="node2" class="node">
<title>PreviewTooltip</title>
<polygon fill="#ffffb3" stroke="black" points="237.59,-84.8 134.41,-84.8 134.41,-48.8 237.59,-48.8 237.59,-84.8"/>
<text text-anchor="middle" x="186" y="-62.6" font-family="Times,serif" font-size="14.00">PreviewTooltip</text>
</g>
<!-- PreviewTooltip&#45;&gt;PreviewModule -->
<g id="edge2" class="edge">
<title>PreviewTooltip&#45;&gt;PreviewModule</title>
<path fill="none" stroke="black" d="M186,-84.91C186,-84.91 186,-103.79 186,-103.79"/>
<polygon fill="black" stroke="black" points="182.5,-103.79 186,-113.79 189.5,-103.79 182.5,-103.79"/>
</g>
<!-- PreviewDocumentIframe  -->
<g id="node5" class="node">
<title>PreviewDocumentIframe </title>
<polygon fill="#fb8072" stroke="black" points="361.49,-214.8 200.51,-214.8 200.51,-178.8 361.49,-178.8 361.49,-214.8"/>
<text text-anchor="middle" x="281" y="-192.6" font-family="Times,serif" font-size="14.00">PreviewDocumentIframe </text>
</g>
<!-- PreviewModule&#45;&gt;PreviewDocumentIframe  -->
<g id="edge4" class="edge">
<title>PreviewModule&#45;&gt;PreviewDocumentIframe </title>
<path fill="none" stroke="black" stroke-dasharray="5,2" d="M219.61,-149.91C219.61,-149.91 219.61,-168.79 219.61,-168.79"/>
<polygon fill="black" stroke="black" points="216.11,-168.79 219.61,-178.79 223.11,-168.79 216.11,-168.79"/>
</g>
<!-- PreviewTooltip  -->
<g id="node6" class="node">
<title>PreviewTooltip </title>
<polygon fill="#fb8072" stroke="black" points="182.09,-214.8 75.91,-214.8 75.91,-178.8 182.09,-178.8 182.09,-214.8"/>
<text text-anchor="middle" x="129" y="-192.6" font-family="Times,serif" font-size="14.00">PreviewTooltip </text>
</g>
<!-- PreviewModule&#45;&gt;PreviewTooltip  -->
<g id="edge5" class="edge">
<title>PreviewModule&#45;&gt;PreviewTooltip </title>
<path fill="none" stroke="black" stroke-dasharray="5,2" d="M157.79,-149.91C157.79,-149.91 157.79,-168.79 157.79,-168.79"/>
<polygon fill="black" stroke="black" points="154.29,-168.79 157.79,-178.79 161.29,-168.79 154.29,-168.79"/>
</g>
<!-- UtilsModule -->
<g id="node4" class="node">
<title>UtilsModule</title>
<polygon fill="#8dd3c7" stroke="black" points="110.27,-84.8 107.27,-88.8 86.27,-88.8 83.27,-84.8 23.73,-84.8 23.73,-48.8 110.27,-48.8 110.27,-84.8"/>
<text text-anchor="middle" x="67" y="-62.6" font-family="Times,serif" font-size="14.00">UtilsModule</text>
</g>
<!-- UtilsModule&#45;&gt;PreviewModule -->
<g id="edge3" class="edge">
<title>UtilsModule&#45;&gt;PreviewModule</title>
<path fill="none" stroke="black" d="M93.04,-84.91C93.04,-104.14 93.04,-131.8 93.04,-131.8 93.04,-131.8 123.28,-131.8 123.28,-131.8"/>
<polygon fill="black" stroke="black" points="123.28,-135.3 133.28,-131.8 123.28,-128.3 123.28,-135.3"/>
</g>
</g>
</svg>
