<?xml version="1.0" encoding="UTF-8" standalone="no"?>
<!DOCTYPE svg PUBLIC "-//W3C//DTD SVG 1.1//EN"
 "http://www.w3.org/Graphics/SVG/1.1/DTD/svg11.dtd">
<!-- Generated by graphviz version 2.47.3 (20210619.1520)
 -->
<!-- Title: dependencies Pages: 1 -->
<svg width="286pt" height="247pt"
 viewBox="0.00 0.00 286.00 246.80" xmlns="http://www.w3.org/2000/svg" xmlns:xlink="http://www.w3.org/1999/xlink">
<g id="graph0" class="graph" transform="scale(1 1) rotate(0) translate(4 242.8)">
<title>dependencies</title>
<polygon fill="white" stroke="transparent" points="-4,4 -4,-242.8 282,-242.8 282,4 -4,4"/>
<text text-anchor="middle" x="139" y="-8.2" font-family="sans-serif" font-size="14.00">dependencies</text>
<g id="clust1" class="cluster">
<title>cluster_BsRfmModule</title>
<polygon fill="none" stroke="black" stroke-dasharray="1,5" points="8,-32.8 8,-230.8 270,-230.8 270,-32.8 8,-32.8"/>
</g>
<g id="clust5" class="cluster">
<title>cluster_BsRfmModule_exports</title>
<polygon fill="none" stroke="black" points="78,-170.8 78,-222.8 192,-222.8 192,-170.8 78,-170.8"/>
</g>
<g id="clust4" class="cluster">
<title>cluster_BsRfmModule_imports</title>
<polygon fill="none" stroke="black" points="134,-40.8 134,-92.8 262,-92.8 262,-40.8 134,-40.8"/>
</g>
<g id="clust2" class="cluster">
<title>cluster_BsRfmModule_declarations</title>
<polygon fill="none" stroke="black" points="16,-40.8 16,-92.8 126,-92.8 126,-40.8 16,-40.8"/>
</g>
<!-- BsRfmAction -->
<g id="node1" class="node">
<title>BsRfmAction</title>
<polygon fill="#ffffb3" stroke="black" points="117.77,-84.8 24.23,-84.8 24.23,-48.8 117.77,-48.8 117.77,-84.8"/>
<text text-anchor="middle" x="71" y="-62.6" font-family="Times,serif" font-size="14.00">BsRfmAction</text>
</g>
<!-- BsRfmModule -->
<g id="node2" class="node">
<title>BsRfmModule</title>
<polygon fill="#8dd3c7" stroke="black" points="184.72,-149.8 181.72,-153.8 160.72,-153.8 157.72,-149.8 85.28,-149.8 85.28,-113.8 184.72,-113.8 184.72,-149.8"/>
<text text-anchor="middle" x="135" y="-127.6" font-family="Times,serif" font-size="14.00">BsRfmModule</text>
</g>
<!-- BsRfmAction&#45;&gt;BsRfmModule -->
<g id="edge1" class="edge">
<title>BsRfmAction&#45;&gt;BsRfmModule</title>
<path fill="none" stroke="black" d="M101.64,-84.91C101.64,-84.91 101.64,-103.79 101.64,-103.79"/>
<polygon fill="black" stroke="black" points="98.14,-103.79 101.64,-113.79 105.14,-103.79 98.14,-103.79"/>
</g>
<!-- BsRfmAction  -->
<g id="node4" class="node">
<title>BsRfmAction </title>
<polygon fill="#fb8072" stroke="black" points="183.77,-214.8 86.23,-214.8 86.23,-178.8 183.77,-178.8 183.77,-214.8"/>
<text text-anchor="middle" x="135" y="-192.6" font-family="Times,serif" font-size="14.00">BsRfmAction </text>
</g>
<!-- BsRfmModule&#45;&gt;BsRfmAction  -->
<g id="edge3" class="edge">
<title>BsRfmModule&#45;&gt;BsRfmAction </title>
<path fill="none" stroke="black" stroke-dasharray="5,2" d="M135,-149.91C135,-149.91 135,-168.79 135,-168.79"/>
<polygon fill="black" stroke="black" points="131.5,-168.79 135,-178.79 138.5,-168.79 131.5,-168.79"/>
</g>
<!-- BsActionModule -->
<g id="node3" class="node">
<title>BsActionModule</title>
<polygon fill="#8dd3c7" stroke="black" points="254.43,-84.8 251.43,-88.8 230.43,-88.8 227.43,-84.8 141.57,-84.8 141.57,-48.8 254.43,-48.8 254.43,-84.8"/>
<text text-anchor="middle" x="198" y="-62.6" font-family="Times,serif" font-size="14.00">BsActionModule</text>
</g>
<!-- BsActionModule&#45;&gt;BsRfmModule -->
<g id="edge2" class="edge">
<title>BsActionModule&#45;&gt;BsRfmModule</title>
<path fill="none" stroke="black" d="M163.2,-84.91C163.2,-84.91 163.2,-103.79 163.2,-103.79"/>
<polygon fill="black" stroke="black" points="159.7,-103.79 163.2,-113.79 166.7,-103.79 159.7,-103.79"/>
</g>
</g>
</svg>
