<?xml version="1.0" encoding="UTF-8" standalone="no"?>
<!DOCTYPE svg PUBLIC "-//W3C//DTD SVG 1.1//EN"
 "http://www.w3.org/Graphics/SVG/1.1/DTD/svg11.dtd">
<!-- Generated by graphviz version 2.40.1 (20161225.0304)
 -->
<!-- Title: dependencies Pages: 1 -->
<svg width="1154pt" height="284pt"
 viewBox="0.00 0.00 1154.00 284.00" xmlns="http://www.w3.org/2000/svg" xmlns:xlink="http://www.w3.org/1999/xlink">
<g id="graph0" class="graph" transform="scale(1 1) rotate(0) translate(4 280)">
<title>dependencies</title>
<polygon fill="#ffffff" stroke="transparent" points="-4,4 -4,-280 1150,-280 1150,4 -4,4"/>
<text text-anchor="start" x="552.0091" y="-42.4" font-family="sans-serif" font-weight="bold" font-size="14.00" fill="#000000">Legend</text>
<polygon fill="#ffffb3" stroke="transparent" points="339,-10 339,-30 359,-30 359,-10 339,-10"/>
<text text-anchor="start" x="362.629" y="-15.4" font-family="sans-serif" font-size="14.00" fill="#000000"> &#160;Declarations</text>
<polygon fill="#8dd3c7" stroke="transparent" points="452,-10 452,-30 472,-30 472,-10 452,-10"/>
<text text-anchor="start" x="475.7251" y="-15.4" font-family="sans-serif" font-size="14.00" fill="#000000"> &#160;Module</text>
<polygon fill="#80b1d3" stroke="transparent" points="538,-10 538,-30 558,-30 558,-10 538,-10"/>
<text text-anchor="start" x="561.7812" y="-15.4" font-family="sans-serif" font-size="14.00" fill="#000000"> &#160;Bootstrap</text>
<polygon fill="#fdb462" stroke="transparent" points="635,-10 635,-30 655,-30 655,-10 635,-10"/>
<text text-anchor="start" x="658.6732" y="-15.4" font-family="sans-serif" font-size="14.00" fill="#000000"> &#160;Providers</text>
<polygon fill="#fb8072" stroke="transparent" points="731,-10 731,-30 751,-30 751,-10 731,-10"/>
<text text-anchor="start" x="754.7258" y="-15.4" font-family="sans-serif" font-size="14.00" fill="#000000"> &#160;Exports</text>
<g id="clust1" class="cluster">
<title>cluster_BsLabelsModule</title>
<polygon fill="none" stroke="#000000" stroke-dasharray="1,5" points="8,-70 8,-268 1138,-268 1138,-70 8,-70"/>
</g>
<g id="clust2" class="cluster">
<title>cluster_BsLabelsModule_declarations</title>
<polygon fill="none" stroke="#000000" points="672,-78 672,-130 1130,-130 1130,-78 672,-78"/>
</g>
<g id="clust6" class="cluster">
<title>cluster_BsLabelsModule_imports</title>
<polygon fill="none" stroke="#000000" points="16,-78 16,-130 664,-130 664,-78 16,-78"/>
</g>
<g id="clust7" class="cluster">
<title>cluster_BsLabelsModule_exports</title>
<polygon fill="none" stroke="#000000" points="301,-208 301,-260 770,-260 770,-208 301,-208"/>
</g>
<!-- BsLabelsActionItem -->
<g id="node1" class="node">
<title>BsLabelsActionItem</title>
<polygon fill="#ffffb3" stroke="#000000" points="1121.8571,-122 990.1429,-122 990.1429,-86 1121.8571,-86 1121.8571,-122"/>
<text text-anchor="middle" x="1056" y="-99.8" font-family="Times,serif" font-size="14.00" fill="#000000">BsLabelsActionItem</text>
</g>
<!-- BsLabelsModule -->
<g id="node4" class="node">
<title>BsLabelsModule</title>
<polygon fill="#8dd3c7" stroke="#000000" points="579.6486,-187 576.6486,-191 555.6486,-191 552.6486,-187 468.3514,-187 468.3514,-151 579.6486,-151 579.6486,-187"/>
<text text-anchor="middle" x="524" y="-164.8" font-family="Times,serif" font-size="14.00" fill="#000000">BsLabelsModule</text>
</g>
<!-- BsLabelsActionItem&#45;&gt;BsLabelsModule -->
<g id="edge1" class="edge">
<title>BsLabelsActionItem&#45;&gt;BsLabelsModule</title>
<path fill="none" stroke="#000000" d="M1056,-122.1289C1056,-142.5724 1056,-173 1056,-173 1056,-173 589.6776,-173 589.6776,-173"/>
<polygon fill="#000000" stroke="#000000" points="589.6776,-169.5001 579.6776,-173 589.6775,-176.5001 589.6776,-169.5001"/>
</g>
<!-- BsLabelsMenuComponent -->
<g id="node2" class="node">
<title>BsLabelsMenuComponent</title>
<polygon fill="#ffffb3" stroke="#000000" points="972.0898,-122 805.9102,-122 805.9102,-86 972.0898,-86 972.0898,-122"/>
<text text-anchor="middle" x="889" y="-99.8" font-family="Times,serif" font-size="14.00" fill="#000000">BsLabelsMenuComponent</text>
</g>
<!-- BsLabelsMenuComponent&#45;&gt;BsLabelsModule -->
<g id="edge2" class="edge">
<title>BsLabelsMenuComponent&#45;&gt;BsLabelsModule</title>
<path fill="none" stroke="#000000" d="M889,-122.2667C889,-140.5552 889,-166 889,-166 889,-166 589.833,-166 589.833,-166"/>
<polygon fill="#000000" stroke="#000000" points="589.833,-162.5001 579.833,-166 589.8329,-169.5001 589.833,-162.5001"/>
</g>
<!-- BsRenameLabel -->
<g id="node3" class="node">
<title>BsRenameLabel</title>
<polygon fill="#ffffb3" stroke="#000000" points="788.0256,-122 679.9744,-122 679.9744,-86 788.0256,-86 788.0256,-122"/>
<text text-anchor="middle" x="734" y="-99.8" font-family="Times,serif" font-size="14.00" fill="#000000">BsRenameLabel</text>
</g>
<!-- BsRenameLabel&#45;&gt;BsLabelsModule -->
<g id="edge3" class="edge">
<title>BsRenameLabel&#45;&gt;BsLabelsModule</title>
<path fill="none" stroke="#000000" d="M720.7081,-122.0091C720.7081,-138.0494 720.7081,-159 720.7081,-159 720.7081,-159 589.8425,-159 589.8425,-159"/>
<polygon fill="#000000" stroke="#000000" points="589.8425,-155.5001 579.8425,-159 589.8424,-162.5001 589.8425,-155.5001"/>
</g>
<!-- BsLabelsActionItem  -->
<g id="node10" class="node">
<title>BsLabelsActionItem </title>
<polygon fill="#fb8072" stroke="#000000" points="761.8575,-252 626.1425,-252 626.1425,-216 761.8575,-216 761.8575,-252"/>
<text text-anchor="middle" x="694" y="-229.8" font-family="Times,serif" font-size="14.00" fill="#000000">BsLabelsActionItem </text>
</g>
<!-- BsLabelsModule&#45;&gt;BsLabelsActionItem  -->
<g id="edge9" class="edge">
<title>BsLabelsModule&#45;&gt;BsLabelsActionItem </title>
<path fill="none" stroke="#000000" stroke-dasharray="5,2" d="M579.887,-180C610.0909,-180 641.2691,-180 641.2691,-180 641.2691,-180 641.2691,-205.7181 641.2691,-205.7181"/>
<polygon fill="#000000" stroke="#000000" points="637.7692,-205.718 641.2691,-215.7181 644.7692,-205.7181 637.7692,-205.718"/>
</g>
<!-- BsLabelsMenuComponent  -->
<g id="node11" class="node">
<title>BsLabelsMenuComponent </title>
<polygon fill="#fb8072" stroke="#000000" points="608.5903,-252 439.4097,-252 439.4097,-216 608.5903,-216 608.5903,-252"/>
<text text-anchor="middle" x="524" y="-229.8" font-family="Times,serif" font-size="14.00" fill="#000000">BsLabelsMenuComponent </text>
</g>
<!-- BsLabelsModule&#45;&gt;BsLabelsMenuComponent  -->
<g id="edge10" class="edge">
<title>BsLabelsModule&#45;&gt;BsLabelsMenuComponent </title>
<path fill="none" stroke="#000000" stroke-dasharray="5,2" d="M524,-187.1061C524,-187.1061 524,-205.991 524,-205.991"/>
<polygon fill="#000000" stroke="#000000" points="520.5001,-205.9909 524,-215.991 527.5001,-205.991 520.5001,-205.9909"/>
</g>
<!-- BsRenameLabel  -->
<g id="node12" class="node">
<title>BsRenameLabel </title>
<polygon fill="#fb8072" stroke="#000000" points="421.0246,-252 308.9754,-252 308.9754,-216 421.0246,-216 421.0246,-252"/>
<text text-anchor="middle" x="365" y="-229.8" font-family="Times,serif" font-size="14.00" fill="#000000">BsRenameLabel </text>
</g>
<!-- BsLabelsModule&#45;&gt;BsRenameLabel  -->
<g id="edge11" class="edge">
<title>BsLabelsModule&#45;&gt;BsRenameLabel </title>
<path fill="none" stroke="#000000" stroke-dasharray="5,2" d="M468.1184,-180C433.8863,-180 396.5952,-180 396.5952,-180 396.5952,-180 396.5952,-205.7181 396.5952,-205.7181"/>
<polygon fill="#000000" stroke="#000000" points="393.0953,-205.718 396.5952,-215.7181 400.0953,-205.7181 393.0953,-205.718"/>
</g>
<!-- BsActionModule -->
<g id="node5" class="node">
<title>BsActionModule</title>
<polygon fill="#8dd3c7" stroke="#000000" points="656.4342,-122 653.4342,-126 632.4342,-126 629.4342,-122 543.5658,-122 543.5658,-86 656.4342,-86 656.4342,-122"/>
<text text-anchor="middle" x="600" y="-99.8" font-family="Times,serif" font-size="14.00" fill="#000000">BsActionModule</text>
</g>
<!-- BsActionModule&#45;&gt;BsLabelsModule -->
<g id="edge4" class="edge">
<title>BsActionModule&#45;&gt;BsLabelsModule</title>
<path fill="none" stroke="#000000" d="M561.8037,-122.1061C561.8037,-122.1061 561.8037,-140.991 561.8037,-140.991"/>
<polygon fill="#000000" stroke="#000000" points="558.3037,-140.9909 561.8037,-150.991 565.3037,-140.991 558.3037,-140.9909"/>
</g>
<!-- BsAutocompleteModule -->
<g id="node6" class="node">
<title>BsAutocompleteModule</title>
<polygon fill="#8dd3c7" stroke="#000000" points="525.6442,-122 522.6442,-126 501.6442,-126 498.6442,-122 372.3558,-122 372.3558,-86 525.6442,-86 525.6442,-122"/>
<text text-anchor="middle" x="449" y="-99.8" font-family="Times,serif" font-size="14.00" fill="#000000">BsAutocompleteModule</text>
</g>
<!-- BsAutocompleteModule&#45;&gt;BsLabelsModule -->
<g id="edge5" class="edge">
<title>BsAutocompleteModule&#45;&gt;BsLabelsModule</title>
<path fill="none" stroke="#000000" d="M496.999,-122.1061C496.999,-122.1061 496.999,-140.991 496.999,-140.991"/>
<polygon fill="#000000" stroke="#000000" points="493.499,-140.9909 496.999,-150.991 500.499,-140.991 493.499,-140.9909"/>
</g>
<!-- BsModalModule -->
<g id="node7" class="node">
<title>BsModalModule</title>
<polygon fill="#8dd3c7" stroke="#000000" points="354.3809,-122 351.3809,-126 330.3809,-126 327.3809,-122 243.6191,-122 243.6191,-86 354.3809,-86 354.3809,-122"/>
<text text-anchor="middle" x="299" y="-99.8" font-family="Times,serif" font-size="14.00" fill="#000000">BsModalModule</text>
</g>
<!-- BsModalModule&#45;&gt;BsLabelsModule -->
<g id="edge6" class="edge">
<title>BsModalModule&#45;&gt;BsLabelsModule</title>
<path fill="none" stroke="#000000" d="M331.7141,-122.0091C331.7141,-138.0494 331.7141,-159 331.7141,-159 331.7141,-159 458.1246,-159 458.1246,-159"/>
<polygon fill="#000000" stroke="#000000" points="458.1247,-162.5001 468.1246,-159 458.1246,-155.5001 458.1247,-162.5001"/>
</g>
<!-- LabelsModule -->
<g id="node8" class="node">
<title>LabelsModule</title>
<polygon fill="#8dd3c7" stroke="#000000" points="225.3669,-122 222.3669,-126 201.3669,-126 198.3669,-122 128.6331,-122 128.6331,-86 225.3669,-86 225.3669,-122"/>
<text text-anchor="middle" x="177" y="-99.8" font-family="Times,serif" font-size="14.00" fill="#000000">LabelsModule</text>
</g>
<!-- LabelsModule&#45;&gt;BsLabelsModule -->
<g id="edge7" class="edge">
<title>LabelsModule&#45;&gt;BsLabelsModule</title>
<path fill="none" stroke="#000000" d="M177,-122.2667C177,-140.5552 177,-166 177,-166 177,-166 458.2484,-166 458.2484,-166"/>
<polygon fill="#000000" stroke="#000000" points="458.2485,-169.5001 468.2484,-166 458.2484,-162.5001 458.2485,-169.5001"/>
</g>
<!-- UtilsModule -->
<g id="node9" class="node">
<title>UtilsModule</title>
<polygon fill="#8dd3c7" stroke="#000000" points="110.2731,-122 107.2731,-126 86.2731,-126 83.2731,-122 23.7269,-122 23.7269,-86 110.2731,-86 110.2731,-122"/>
<text text-anchor="middle" x="67" y="-99.8" font-family="Times,serif" font-size="14.00" fill="#000000">UtilsModule</text>
</g>
<!-- UtilsModule&#45;&gt;BsLabelsModule -->
<g id="edge8" class="edge">
<title>UtilsModule&#45;&gt;BsLabelsModule</title>
<path fill="none" stroke="#000000" d="M67,-122.1289C67,-142.5724 67,-173 67,-173 67,-173 457.9628,-173 457.9628,-173"/>
<polygon fill="#000000" stroke="#000000" points="457.9629,-176.5001 467.9628,-173 457.9628,-169.5001 457.9629,-176.5001"/>
</g>
</g>
</svg>
