<?xml version="1.0" encoding="UTF-8" standalone="no"?>
<!DOCTYPE svg PUBLIC "-//W3C//DTD SVG 1.1//EN"
 "http://www.w3.org/Graphics/SVG/1.1/DTD/svg11.dtd">
<!-- Generated by graphviz version 2.40.1 (20161225.0304)
 -->
<!-- Title: dependencies Pages: 1 -->
<svg width="1705pt" height="284pt"
 viewBox="0.00 0.00 1705.00 284.00" xmlns="http://www.w3.org/2000/svg" xmlns:xlink="http://www.w3.org/1999/xlink">
<g id="graph0" class="graph" transform="scale(1 1) rotate(0) translate(4 280)">
<title>dependencies</title>
<polygon fill="#ffffff" stroke="transparent" points="-4,4 -4,-280 1701,-280 1701,4 -4,4"/>
<text text-anchor="start" x="827.5091" y="-42.4" font-family="sans-serif" font-weight="bold" font-size="14.00" fill="#000000">Legend</text>
<polygon fill="#ffffb3" stroke="transparent" points="614.5,-10 614.5,-30 634.5,-30 634.5,-10 614.5,-10"/>
<text text-anchor="start" x="638.129" y="-15.4" font-family="sans-serif" font-size="14.00" fill="#000000"> &#160;Declarations</text>
<polygon fill="#8dd3c7" stroke="transparent" points="727.5,-10 727.5,-30 747.5,-30 747.5,-10 727.5,-10"/>
<text text-anchor="start" x="751.2251" y="-15.4" font-family="sans-serif" font-size="14.00" fill="#000000"> &#160;Module</text>
<polygon fill="#80b1d3" stroke="transparent" points="813.5,-10 813.5,-30 833.5,-30 833.5,-10 813.5,-10"/>
<text text-anchor="start" x="837.2812" y="-15.4" font-family="sans-serif" font-size="14.00" fill="#000000"> &#160;Bootstrap</text>
<polygon fill="#fdb462" stroke="transparent" points="910.5,-10 910.5,-30 930.5,-30 930.5,-10 910.5,-10"/>
<text text-anchor="start" x="934.1732" y="-15.4" font-family="sans-serif" font-size="14.00" fill="#000000"> &#160;Providers</text>
<polygon fill="#fb8072" stroke="transparent" points="1006.5,-10 1006.5,-30 1026.5,-30 1026.5,-10 1006.5,-10"/>
<text text-anchor="start" x="1030.2258" y="-15.4" font-family="sans-serif" font-size="14.00" fill="#000000"> &#160;Exports</text>
<g id="clust1" class="cluster">
<title>cluster_BsLabelsModule</title>
<polygon fill="none" stroke="#000000" stroke-dasharray="1,5" points="8,-70 8,-268 1689,-268 1689,-70 8,-70"/>
</g>
<g id="clust2" class="cluster">
<title>cluster_BsLabelsModule_declarations</title>
<polygon fill="none" stroke="#000000" points="817,-78 817,-130 1681,-130 1681,-78 817,-78"/>
</g>
<g id="clust9" class="cluster">
<title>cluster_BsLabelsModule_imports</title>
<polygon fill="none" stroke="#000000" points="16,-78 16,-130 809,-130 809,-78 16,-78"/>
</g>
<g id="clust10" class="cluster">
<title>cluster_BsLabelsModule_exports</title>
<polygon fill="none" stroke="#000000" points="260,-208 260,-260 1264,-260 1264,-208 260,-208"/>
</g>
<!-- BsAddLabel -->
<g id="node1" class="node">
<title>BsAddLabel</title>
<polygon fill="#ffffb3" stroke="#000000" points="1673.2605,-122 1586.7395,-122 1586.7395,-86 1673.2605,-86 1673.2605,-122"/>
<text text-anchor="middle" x="1630" y="-99.8" font-family="Times,serif" font-size="14.00" fill="#000000">BsAddLabel</text>
</g>
<!-- BsLabelsModule -->
<g id="node7" class="node">
<title>BsLabelsModule</title>
<polygon fill="#8dd3c7" stroke="#000000" points="867.6486,-187 864.6486,-191 843.6486,-191 840.6486,-187 756.3514,-187 756.3514,-151 867.6486,-151 867.6486,-187"/>
<text text-anchor="middle" x="812" y="-164.8" font-family="Times,serif" font-size="14.00" fill="#000000">BsLabelsModule</text>
</g>
<!-- BsAddLabel&#45;&gt;BsLabelsModule -->
<g id="edge1" class="edge">
<title>BsAddLabel&#45;&gt;BsLabelsModule</title>
<path fill="none" stroke="#000000" d="M1630,-122.308C1630,-142.1455 1630,-171 1630,-171 1630,-171 877.9025,-171 877.9025,-171"/>
<polygon fill="#000000" stroke="#000000" points="877.9025,-167.5001 867.9025,-171 877.9025,-174.5001 877.9025,-167.5001"/>
</g>
<!-- BsDeleteLabel -->
<g id="node2" class="node">
<title>BsDeleteLabel</title>
<polygon fill="#ffffb3" stroke="#000000" points="1568.6854,-122 1469.3146,-122 1469.3146,-86 1568.6854,-86 1568.6854,-122"/>
<text text-anchor="middle" x="1519" y="-99.8" font-family="Times,serif" font-size="14.00" fill="#000000">BsDeleteLabel</text>
</g>
<!-- BsDeleteLabel&#45;&gt;BsLabelsModule -->
<g id="edge2" class="edge">
<title>BsDeleteLabel&#45;&gt;BsLabelsModule</title>
<path fill="none" stroke="#000000" d="M1519,-122.2222C1519,-140.8285 1519,-167 1519,-167 1519,-167 877.7723,-167 877.7723,-167"/>
<polygon fill="#000000" stroke="#000000" points="877.7723,-163.5001 867.7723,-167 877.7722,-170.5001 877.7723,-163.5001"/>
</g>
<!-- BsEditLabel -->
<g id="node3" class="node">
<title>BsEditLabel</title>
<polygon fill="#ffffb3" stroke="#000000" points="1450.9874,-122 1365.0126,-122 1365.0126,-86 1450.9874,-86 1450.9874,-122"/>
<text text-anchor="middle" x="1408" y="-99.8" font-family="Times,serif" font-size="14.00" fill="#000000">BsEditLabel</text>
</g>
<!-- BsEditLabel&#45;&gt;BsLabelsModule -->
<g id="edge3" class="edge">
<title>BsEditLabel&#45;&gt;BsLabelsModule</title>
<path fill="none" stroke="#000000" d="M1408,-122.0225C1408,-139.3734 1408,-163 1408,-163 1408,-163 877.8024,-163 877.8024,-163"/>
<polygon fill="#000000" stroke="#000000" points="877.8024,-159.5001 867.8024,-163 877.8023,-166.5001 877.8024,-159.5001"/>
</g>
<!-- BsLabelsAutocompleteComponent -->
<g id="node4" class="node">
<title>BsLabelsAutocompleteComponent</title>
<polygon fill="#ffffb3" stroke="#000000" points="1347.2436,-122 1134.7564,-122 1134.7564,-86 1347.2436,-86 1347.2436,-122"/>
<text text-anchor="middle" x="1241" y="-99.8" font-family="Times,serif" font-size="14.00" fill="#000000">BsLabelsAutocompleteComponent</text>
</g>
<!-- BsLabelsAutocompleteComponent&#45;&gt;BsLabelsModule -->
<g id="edge4" class="edge">
<title>BsLabelsAutocompleteComponent&#45;&gt;BsLabelsModule</title>
<path fill="none" stroke="#000000" d="M1141.4855,-122.0091C1141.4855,-138.0494 1141.4855,-159 1141.4855,-159 1141.4855,-159 877.8927,-159 877.8927,-159"/>
<polygon fill="#000000" stroke="#000000" points="877.8928,-155.5001 867.8927,-159 877.8927,-162.5001 877.8928,-155.5001"/>
</g>
<!-- BsLabelsMenuComponent -->
<g id="node5" class="node">
<title>BsLabelsMenuComponent</title>
<polygon fill="#ffffb3" stroke="#000000" points="1117.0898,-122 950.9102,-122 950.9102,-86 1117.0898,-86 1117.0898,-122"/>
<text text-anchor="middle" x="1034" y="-99.8" font-family="Times,serif" font-size="14.00" fill="#000000">BsLabelsMenuComponent</text>
</g>
<!-- BsLabelsMenuComponent&#45;&gt;BsLabelsModule -->
<g id="edge5" class="edge">
<title>BsLabelsMenuComponent&#45;&gt;BsLabelsModule</title>
<path fill="none" stroke="#000000" d="M989.3494,-122.1243C989.3494,-136.7832 989.3494,-155 989.3494,-155 989.3494,-155 878.1145,-155 878.1145,-155"/>
<polygon fill="#000000" stroke="#000000" points="878.1145,-151.5001 868.1145,-155 878.1144,-158.5001 878.1145,-151.5001"/>
</g>
<!-- BsRenameLabel -->
<g id="node6" class="node">
<title>BsRenameLabel</title>
<polygon fill="#ffffb3" stroke="#000000" points="933.0256,-122 824.9744,-122 824.9744,-86 933.0256,-86 933.0256,-122"/>
<text text-anchor="middle" x="879" y="-99.8" font-family="Times,serif" font-size="14.00" fill="#000000">BsRenameLabel</text>
</g>
<!-- BsRenameLabel&#45;&gt;BsLabelsModule -->
<g id="edge6" class="edge">
<title>BsRenameLabel&#45;&gt;BsLabelsModule</title>
<path fill="none" stroke="#000000" d="M846.2809,-122.1061C846.2809,-122.1061 846.2809,-140.991 846.2809,-140.991"/>
<polygon fill="#000000" stroke="#000000" points="842.7809,-140.9909 846.2809,-150.991 849.7809,-140.991 842.7809,-140.9909"/>
</g>
<!-- BsAddLabel  -->
<g id="node14" class="node">
<title>BsAddLabel </title>
<polygon fill="#fb8072" stroke="#000000" points="1256.2606,-252 1165.7394,-252 1165.7394,-216 1256.2606,-216 1256.2606,-252"/>
<text text-anchor="middle" x="1211" y="-229.8" font-family="Times,serif" font-size="14.00" fill="#000000">BsAddLabel </text>
</g>
<!-- BsLabelsModule&#45;&gt;BsAddLabel  -->
<g id="edge13" class="edge">
<title>BsLabelsModule&#45;&gt;BsAddLabel </title>
<path fill="none" stroke="#000000" stroke-dasharray="5,2" d="M867.8994,-175C977.7098,-175 1211,-175 1211,-175 1211,-175 1211,-205.9775 1211,-205.9775"/>
<polygon fill="#000000" stroke="#000000" points="1207.5001,-205.9774 1211,-215.9775 1214.5001,-205.9775 1207.5001,-205.9774"/>
</g>
<!-- BsDeleteLabel  -->
<g id="node15" class="node">
<title>BsDeleteLabel </title>
<polygon fill="#fb8072" stroke="#000000" points="1148.1857,-252 1045.8143,-252 1045.8143,-216 1148.1857,-216 1148.1857,-252"/>
<text text-anchor="middle" x="1097" y="-229.8" font-family="Times,serif" font-size="14.00" fill="#000000">BsDeleteLabel </text>
</g>
<!-- BsLabelsModule&#45;&gt;BsDeleteLabel  -->
<g id="edge14" class="edge">
<title>BsLabelsModule&#45;&gt;BsDeleteLabel </title>
<path fill="none" stroke="#000000" stroke-dasharray="5,2" d="M867.8097,-179C946.7043,-179 1081.3512,-179 1081.3512,-179 1081.3512,-179 1081.3512,-205.9909 1081.3512,-205.9909"/>
<polygon fill="#000000" stroke="#000000" points="1077.8512,-205.9909 1081.3512,-215.9909 1084.8512,-205.991 1077.8512,-205.9909"/>
</g>
<!-- BsEditLabel  -->
<g id="node16" class="node">
<title>BsEditLabel </title>
<polygon fill="#fb8072" stroke="#000000" points="1027.9887,-252 938.0113,-252 938.0113,-216 1027.9887,-216 1027.9887,-252"/>
<text text-anchor="middle" x="983" y="-229.8" font-family="Times,serif" font-size="14.00" fill="#000000">BsEditLabel </text>
</g>
<!-- BsLabelsModule&#45;&gt;BsEditLabel  -->
<g id="edge15" class="edge">
<title>BsLabelsModule&#45;&gt;BsEditLabel </title>
<path fill="none" stroke="#000000" stroke-dasharray="5,2" d="M867.8524,-183C904.0926,-183 944.6057,-183 944.6057,-183 944.6057,-183 944.6057,-205.8757 944.6057,-205.8757"/>
<polygon fill="#000000" stroke="#000000" points="941.1058,-205.8757 944.6057,-215.8757 948.1058,-205.8757 941.1058,-205.8757"/>
</g>
<!-- BsLabelsAutocompleteComponent  -->
<g id="node17" class="node">
<title>BsLabelsAutocompleteComponent </title>
<polygon fill="#fb8072" stroke="#000000" points="920.2435,-252 703.7565,-252 703.7565,-216 920.2435,-216 920.2435,-252"/>
<text text-anchor="middle" x="812" y="-229.8" font-family="Times,serif" font-size="14.00" fill="#000000">BsLabelsAutocompleteComponent </text>
</g>
<!-- BsLabelsModule&#45;&gt;BsLabelsAutocompleteComponent  -->
<g id="edge16" class="edge">
<title>BsLabelsModule&#45;&gt;BsLabelsAutocompleteComponent </title>
<path fill="none" stroke="#000000" stroke-dasharray="5,2" d="M812,-187.1061C812,-187.1061 812,-205.991 812,-205.991"/>
<polygon fill="#000000" stroke="#000000" points="808.5001,-205.9909 812,-215.991 815.5001,-205.991 808.5001,-205.9909"/>
</g>
<!-- BsLabelsMenuComponent  -->
<g id="node18" class="node">
<title>BsLabelsMenuComponent </title>
<polygon fill="#fb8072" stroke="#000000" points="685.5903,-252 516.4097,-252 516.4097,-216 685.5903,-216 685.5903,-252"/>
<text text-anchor="middle" x="601" y="-229.8" font-family="Times,serif" font-size="14.00" fill="#000000">BsLabelsMenuComponent </text>
</g>
<!-- BsLabelsModule&#45;&gt;BsLabelsMenuComponent  -->
<g id="edge17" class="edge">
<title>BsLabelsModule&#45;&gt;BsLabelsMenuComponent </title>
<path fill="none" stroke="#000000" stroke-dasharray="5,2" d="M756.0774,-183C719.4424,-183 678.3084,-183 678.3084,-183 678.3084,-183 678.3084,-205.8757 678.3084,-205.8757"/>
<polygon fill="#000000" stroke="#000000" points="674.8085,-205.8757 678.3084,-215.8757 681.8085,-205.8757 674.8085,-205.8757"/>
</g>
<!-- BsRenameLabel  -->
<g id="node19" class="node">
<title>BsRenameLabel </title>
<polygon fill="#fb8072" stroke="#000000" points="498.0246,-252 385.9754,-252 385.9754,-216 498.0246,-216 498.0246,-252"/>
<text text-anchor="middle" x="442" y="-229.8" font-family="Times,serif" font-size="14.00" fill="#000000">BsRenameLabel </text>
</g>
<!-- BsLabelsModule&#45;&gt;BsRenameLabel  -->
<g id="edge18" class="edge">
<title>BsLabelsModule&#45;&gt;BsRenameLabel </title>
<path fill="none" stroke="#000000" stroke-dasharray="5,2" d="M756.1465,-179C648.9865,-179 425.0438,-179 425.0438,-179 425.0438,-179 425.0438,-205.9909 425.0438,-205.9909"/>
<polygon fill="#000000" stroke="#000000" points="421.5439,-205.9909 425.0438,-215.9909 428.5439,-205.991 421.5439,-205.9909"/>
</g>
<!-- LabelsModule  -->
<g id="node20" class="node">
<title>LabelsModule </title>
<polygon fill="#fb8072" stroke="#000000" points="368.3675,-252 267.6325,-252 267.6325,-216 368.3675,-216 368.3675,-252"/>
<text text-anchor="middle" x="318" y="-229.8" font-family="Times,serif" font-size="14.00" fill="#000000">LabelsModule </text>
</g>
<!-- BsLabelsModule&#45;&gt;LabelsModule  -->
<g id="edge19" class="edge">
<title>BsLabelsModule&#45;&gt;LabelsModule </title>
<path fill="none" stroke="#000000" stroke-dasharray="5,2" d="M756.3167,-175C630.4176,-175 334.7278,-175 334.7278,-175 334.7278,-175 334.7278,-205.9775 334.7278,-205.9775"/>
<polygon fill="#000000" stroke="#000000" points="331.2279,-205.9774 334.7278,-215.9775 338.2279,-205.9775 331.2279,-205.9774"/>
</g>
<!-- BsActionModule -->
<g id="node8" class="node">
<title>BsActionModule</title>
<polygon fill="#8dd3c7" stroke="#000000" points="801.4342,-122 798.4342,-126 777.4342,-126 774.4342,-122 688.5658,-122 688.5658,-86 801.4342,-86 801.4342,-122"/>
<text text-anchor="middle" x="745" y="-99.8" font-family="Times,serif" font-size="14.00" fill="#000000">BsActionModule</text>
</g>
<!-- BsActionModule&#45;&gt;BsLabelsModule -->
<g id="edge7" class="edge">
<title>BsActionModule&#45;&gt;BsLabelsModule</title>
<path fill="none" stroke="#000000" d="M778.6963,-122.1061C778.6963,-122.1061 778.6963,-140.991 778.6963,-140.991"/>
<polygon fill="#000000" stroke="#000000" points="775.1964,-140.9909 778.6963,-150.991 782.1964,-140.991 775.1964,-140.9909"/>
</g>
<!-- BsAutocompleteModule -->
<g id="node9" class="node">
<title>BsAutocompleteModule</title>
<polygon fill="#8dd3c7" stroke="#000000" points="670.6442,-122 667.6442,-126 646.6442,-126 643.6442,-122 517.3558,-122 517.3558,-86 670.6442,-86 670.6442,-122"/>
<text text-anchor="middle" x="594" y="-99.8" font-family="Times,serif" font-size="14.00" fill="#000000">BsAutocompleteModule</text>
</g>
<!-- BsAutocompleteModule&#45;&gt;BsLabelsModule -->
<g id="edge8" class="edge">
<title>BsAutocompleteModule&#45;&gt;BsLabelsModule</title>
<path fill="none" stroke="#000000" d="M594,-122.1243C594,-136.7832 594,-155 594,-155 594,-155 746.1427,-155 746.1427,-155"/>
<polygon fill="#000000" stroke="#000000" points="746.1427,-158.5001 756.1427,-155 746.1426,-151.5001 746.1427,-158.5001"/>
</g>
<!-- BsModalModule -->
<g id="node10" class="node">
<title>BsModalModule</title>
<polygon fill="#8dd3c7" stroke="#000000" points="499.3809,-122 496.3809,-126 475.3809,-126 472.3809,-122 388.6191,-122 388.6191,-86 499.3809,-86 499.3809,-122"/>
<text text-anchor="middle" x="444" y="-99.8" font-family="Times,serif" font-size="14.00" fill="#000000">BsModalModule</text>
</g>
<!-- BsModalModule&#45;&gt;BsLabelsModule -->
<g id="edge9" class="edge">
<title>BsModalModule&#45;&gt;BsLabelsModule</title>
<path fill="none" stroke="#000000" d="M461.5281,-122.0091C461.5281,-138.0494 461.5281,-159 461.5281,-159 461.5281,-159 746.0791,-159 746.0791,-159"/>
<polygon fill="#000000" stroke="#000000" points="746.0792,-162.5001 756.0791,-159 746.0791,-155.5001 746.0792,-162.5001"/>
</g>
<!-- BsSelectionModule -->
<g id="node11" class="node">
<title>BsSelectionModule</title>
<polygon fill="#8dd3c7" stroke="#000000" points="370.4299,-122 367.4299,-126 346.4299,-126 343.4299,-122 243.5701,-122 243.5701,-86 370.4299,-86 370.4299,-122"/>
<text text-anchor="middle" x="307" y="-99.8" font-family="Times,serif" font-size="14.00" fill="#000000">BsSelectionModule</text>
</g>
<!-- BsSelectionModule&#45;&gt;BsLabelsModule -->
<g id="edge10" class="edge">
<title>BsSelectionModule&#45;&gt;BsLabelsModule</title>
<path fill="none" stroke="#000000" d="M301.2722,-122.0225C301.2722,-139.3734 301.2722,-163 301.2722,-163 301.2722,-163 745.8822,-163 745.8822,-163"/>
<polygon fill="#000000" stroke="#000000" points="745.8823,-166.5001 755.8822,-163 745.8822,-159.5001 745.8823,-166.5001"/>
</g>
<!-- LabelsModule -->
<g id="node12" class="node">
<title>LabelsModule</title>
<polygon fill="#8dd3c7" stroke="#000000" points="225.3669,-122 222.3669,-126 201.3669,-126 198.3669,-122 128.6331,-122 128.6331,-86 225.3669,-86 225.3669,-122"/>
<text text-anchor="middle" x="177" y="-99.8" font-family="Times,serif" font-size="14.00" fill="#000000">LabelsModule</text>
</g>
<!-- LabelsModule&#45;&gt;BsLabelsModule -->
<g id="edge11" class="edge">
<title>LabelsModule&#45;&gt;BsLabelsModule</title>
<path fill="none" stroke="#000000" d="M177,-122.2222C177,-140.8285 177,-167 177,-167 177,-167 746.2045,-167 746.2045,-167"/>
<polygon fill="#000000" stroke="#000000" points="746.2046,-170.5001 756.2045,-167 746.2045,-163.5001 746.2046,-170.5001"/>
</g>
<!-- UtilsModule -->
<g id="node13" class="node">
<title>UtilsModule</title>
<polygon fill="#8dd3c7" stroke="#000000" points="110.2731,-122 107.2731,-126 86.2731,-126 83.2731,-122 23.7269,-122 23.7269,-86 110.2731,-86 110.2731,-122"/>
<text text-anchor="middle" x="67" y="-99.8" font-family="Times,serif" font-size="14.00" fill="#000000">UtilsModule</text>
</g>
<!-- UtilsModule&#45;&gt;BsLabelsModule -->
<g id="edge12" class="edge">
<title>UtilsModule&#45;&gt;BsLabelsModule</title>
<path fill="none" stroke="#000000" d="M67,-122.308C67,-142.1455 67,-171 67,-171 67,-171 746.3086,-171 746.3086,-171"/>
<polygon fill="#000000" stroke="#000000" points="746.3086,-174.5001 756.3086,-171 746.3086,-167.5001 746.3086,-174.5001"/>
</g>
</g>
</svg>
