<?xml version="1.0" encoding="UTF-8" standalone="no"?>
<!DOCTYPE svg PUBLIC "-//W3C//DTD SVG 1.1//EN"
 "http://www.w3.org/Graphics/SVG/1.1/DTD/svg11.dtd">
<!-- Generated by graphviz version 2.40.1 (20161225.0304)
 -->
<!-- Title: dependencies Pages: 1 -->
<svg width="504pt" height="284pt"
 viewBox="0.00 0.00 504.00 284.00" xmlns="http://www.w3.org/2000/svg" xmlns:xlink="http://www.w3.org/1999/xlink">
<g id="graph0" class="graph" transform="scale(1 1) rotate(0) translate(4 280)">
<title>dependencies</title>
<polygon fill="#ffffff" stroke="transparent" points="-4,4 -4,-280 500,-280 500,4 -4,4"/>
<text text-anchor="start" x="227.0091" y="-42.4" font-family="sans-serif" font-weight="bold" font-size="14.00" fill="#000000">Legend</text>
<polygon fill="#ffffb3" stroke="transparent" points="14,-10 14,-30 34,-30 34,-10 14,-10"/>
<text text-anchor="start" x="37.629" y="-15.4" font-family="sans-serif" font-size="14.00" fill="#000000"> &#160;Declarations</text>
<polygon fill="#8dd3c7" stroke="transparent" points="127,-10 127,-30 147,-30 147,-10 127,-10"/>
<text text-anchor="start" x="150.7251" y="-15.4" font-family="sans-serif" font-size="14.00" fill="#000000"> &#160;Module</text>
<polygon fill="#80b1d3" stroke="transparent" points="213,-10 213,-30 233,-30 233,-10 213,-10"/>
<text text-anchor="start" x="236.7812" y="-15.4" font-family="sans-serif" font-size="14.00" fill="#000000"> &#160;Bootstrap</text>
<polygon fill="#fdb462" stroke="transparent" points="310,-10 310,-30 330,-30 330,-10 310,-10"/>
<text text-anchor="start" x="333.6732" y="-15.4" font-family="sans-serif" font-size="14.00" fill="#000000"> &#160;Providers</text>
<polygon fill="#fb8072" stroke="transparent" points="406,-10 406,-30 426,-30 426,-10 406,-10"/>
<text text-anchor="start" x="429.7258" y="-15.4" font-family="sans-serif" font-size="14.00" fill="#000000"> &#160;Exports</text>
<g id="clust1" class="cluster">
<title>cluster_NgxChartsModule</title>
<polygon fill="none" stroke="#000000" stroke-dasharray="1,5" points="133,-70 133,-268 363,-268 363,-70 133,-70"/>
</g>
<g id="clust2" class="cluster">
<title>cluster_NgxChartsModule_declarations</title>
<polygon fill="none" stroke="#000000" points="144,-78 144,-130 351,-130 351,-78 144,-78"/>
</g>
<g id="clust6" class="cluster">
<title>cluster_NgxChartsModule_exports</title>
<polygon fill="none" stroke="#000000" points="141,-208 141,-260 355,-260 355,-208 141,-208"/>
</g>
<!-- FacetNgxChart -->
<g id="node1" class="node">
<title>FacetNgxChart</title>
<polygon fill="#ffffb3" stroke="#000000" points="342.5271,-122 241.4729,-122 241.4729,-86 342.5271,-86 342.5271,-122"/>
<text text-anchor="middle" x="292" y="-99.8" font-family="Times,serif" font-size="14.00" fill="#000000">FacetNgxChart</text>
</g>
<!-- NgxChartsModule -->
<g id="node3" class="node">
<title>NgxChartsModule</title>
<polygon fill="#8dd3c7" stroke="#000000" points="305.2036,-187 302.2036,-191 281.2036,-191 278.2036,-187 184.7964,-187 184.7964,-151 305.2036,-151 305.2036,-187"/>
<text text-anchor="middle" x="245" y="-164.8" font-family="Times,serif" font-size="14.00" fill="#000000">NgxChartsModule</text>
</g>
<!-- FacetNgxChart&#45;&gt;NgxChartsModule -->
<g id="edge1" class="edge">
<title>FacetNgxChart&#45;&gt;NgxChartsModule</title>
<path fill="none" stroke="#000000" d="M273.1694,-122.1061C273.1694,-122.1061 273.1694,-140.991 273.1694,-140.991"/>
<polygon fill="#000000" stroke="#000000" points="269.6694,-140.9909 273.1694,-150.991 276.6694,-140.991 269.6694,-140.9909"/>
</g>
<!-- NgxChart -->
<g id="node2" class="node">
<title>NgxChart</title>
<polygon fill="#ffffb3" stroke="#000000" points="223.7093,-122 152.2907,-122 152.2907,-86 223.7093,-86 223.7093,-122"/>
<text text-anchor="middle" x="188" y="-99.8" font-family="Times,serif" font-size="14.00" fill="#000000">NgxChart</text>
</g>
<!-- NgxChart&#45;&gt;NgxChartsModule -->
<g id="edge2" class="edge">
<title>NgxChart&#45;&gt;NgxChartsModule</title>
<path fill="none" stroke="#000000" d="M204.2514,-122.1061C204.2514,-122.1061 204.2514,-140.991 204.2514,-140.991"/>
<polygon fill="#000000" stroke="#000000" points="200.7515,-140.9909 204.2514,-150.991 207.7515,-140.991 200.7515,-140.9909"/>
</g>
<!-- FacetNgxChart  -->
<g id="node4" class="node">
<title>FacetNgxChart </title>
<polygon fill="#fb8072" stroke="#000000" points="346.526,-252 241.474,-252 241.474,-216 346.526,-216 346.526,-252"/>
<text text-anchor="middle" x="294" y="-229.8" font-family="Times,serif" font-size="14.00" fill="#000000">FacetNgxChart </text>
</g>
<!-- NgxChartsModule&#45;&gt;FacetNgxChart  -->
<g id="edge3" class="edge">
<title>NgxChartsModule&#45;&gt;FacetNgxChart </title>
<path fill="none" stroke="#000000" stroke-dasharray="5,2" d="M273.2944,-187.1061C273.2944,-187.1061 273.2944,-205.991 273.2944,-205.991"/>
<polygon fill="#000000" stroke="#000000" points="269.7944,-205.9909 273.2944,-215.991 276.7944,-205.991 269.7944,-205.9909"/>
</g>
<!-- NgxChart  -->
<g id="node5" class="node">
<title>NgxChart </title>
<polygon fill="#fb8072" stroke="#000000" points="223.2096,-252 148.7904,-252 148.7904,-216 223.2096,-216 223.2096,-252"/>
<text text-anchor="middle" x="186" y="-229.8" font-family="Times,serif" font-size="14.00" fill="#000000">NgxChart </text>
</g>
<!-- NgxChartsModule&#45;&gt;NgxChart  -->
<g id="edge4" class="edge">
<title>NgxChartsModule&#45;&gt;NgxChart </title>
<path fill="none" stroke="#000000" stroke-dasharray="5,2" d="M204.1264,-187.1061C204.1264,-187.1061 204.1264,-205.991 204.1264,-205.991"/>
<polygon fill="#000000" stroke="#000000" points="200.6265,-205.9909 204.1264,-215.991 207.6265,-205.991 200.6265,-205.9909"/>
</g>
</g>
</svg>
