<?xml version="1.0" encoding="UTF-8" standalone="no"?>
<!DOCTYPE svg PUBLIC "-//W3C//DTD SVG 1.1//EN"
 "http://www.w3.org/Graphics/SVG/1.1/DTD/svg11.dtd">
<!-- Generated by graphviz version 2.47.3 (20210619.1520)
 -->
<!-- Title: dependencies Pages: 1 -->
<svg width="254pt" height="247pt"
 viewBox="0.00 0.00 254.00 246.80" xmlns="http://www.w3.org/2000/svg" xmlns:xlink="http://www.w3.org/1999/xlink">
<g id="graph0" class="graph" transform="scale(1 1) rotate(0) translate(4 242.8)">
<title>dependencies</title>
<polygon fill="white" stroke="transparent" points="-4,4 -4,-242.8 250,-242.8 250,4 -4,4"/>
<text text-anchor="middle" x="123" y="-8.2" font-family="sans-serif" font-size="14.00">dependencies</text>
<g id="clust1" class="cluster">
<title>cluster_NgxChartsModule</title>
<polygon fill="none" stroke="black" stroke-dasharray="1,5" points="8,-32.8 8,-230.8 238,-230.8 238,-32.8 8,-32.8"/>
</g>
<g id="clust2" class="cluster">
<title>cluster_NgxChartsModule_declarations</title>
<polygon fill="none" stroke="black" points="19,-40.8 19,-92.8 226,-92.8 226,-40.8 19,-40.8"/>
</g>
<g id="clust6" class="cluster">
<title>cluster_NgxChartsModule_exports</title>
<polygon fill="none" stroke="black" points="16,-170.8 16,-222.8 230,-222.8 230,-170.8 16,-170.8"/>
</g>
<!-- FacetNgxChart -->
<g id="node1" class="node">
<title>FacetNgxChart</title>
<polygon fill="#ffffb3" stroke="black" points="217.53,-84.8 116.47,-84.8 116.47,-48.8 217.53,-48.8 217.53,-84.8"/>
<text text-anchor="middle" x="167" y="-62.6" font-family="Times,serif" font-size="14.00">FacetNgxChart</text>
</g>
<!-- NgxChartsModule -->
<g id="node3" class="node">
<title>NgxChartsModule</title>
<polygon fill="#8dd3c7" stroke="black" points="180.2,-149.8 177.2,-153.8 156.2,-153.8 153.2,-149.8 59.8,-149.8 59.8,-113.8 180.2,-113.8 180.2,-149.8"/>
<text text-anchor="middle" x="120" y="-127.6" font-family="Times,serif" font-size="14.00">NgxChartsModule</text>
</g>
<!-- FacetNgxChart&#45;&gt;NgxChartsModule -->
<g id="edge1" class="edge">
<title>FacetNgxChart&#45;&gt;NgxChartsModule</title>
<path fill="none" stroke="black" d="M148.17,-84.91C148.17,-84.91 148.17,-103.79 148.17,-103.79"/>
<polygon fill="black" stroke="black" points="144.67,-103.79 148.17,-113.79 151.67,-103.79 144.67,-103.79"/>
</g>
<!-- NgxChart -->
<g id="node2" class="node">
<title>NgxChart</title>
<polygon fill="#ffffb3" stroke="black" points="98.71,-84.8 27.29,-84.8 27.29,-48.8 98.71,-48.8 98.71,-84.8"/>
<text text-anchor="middle" x="63" y="-62.6" font-family="Times,serif" font-size="14.00">NgxChart</text>
</g>
<!-- NgxChart&#45;&gt;NgxChartsModule -->
<g id="edge2" class="edge">
<title>NgxChart&#45;&gt;NgxChartsModule</title>
<path fill="none" stroke="black" d="M79.25,-84.91C79.25,-84.91 79.25,-103.79 79.25,-103.79"/>
<polygon fill="black" stroke="black" points="75.75,-103.79 79.25,-113.79 82.75,-103.79 75.75,-103.79"/>
</g>
<!-- FacetNgxChart  -->
<g id="node4" class="node">
<title>FacetNgxChart </title>
<polygon fill="#fb8072" stroke="black" points="221.53,-214.8 116.47,-214.8 116.47,-178.8 221.53,-178.8 221.53,-214.8"/>
<text text-anchor="middle" x="169" y="-192.6" font-family="Times,serif" font-size="14.00">FacetNgxChart </text>
</g>
<!-- NgxChartsModule&#45;&gt;FacetNgxChart  -->
<g id="edge3" class="edge">
<title>NgxChartsModule&#45;&gt;FacetNgxChart </title>
<path fill="none" stroke="black" stroke-dasharray="5,2" d="M148.29,-149.91C148.29,-149.91 148.29,-168.79 148.29,-168.79"/>
<polygon fill="black" stroke="black" points="144.79,-168.79 148.29,-178.79 151.79,-168.79 144.79,-168.79"/>
</g>
<!-- NgxChart  -->
<g id="node5" class="node">
<title>NgxChart </title>
<polygon fill="#fb8072" stroke="black" points="98.21,-214.8 23.79,-214.8 23.79,-178.8 98.21,-178.8 98.21,-214.8"/>
<text text-anchor="middle" x="61" y="-192.6" font-family="Times,serif" font-size="14.00">NgxChart </text>
</g>
<!-- NgxChartsModule&#45;&gt;NgxChart  -->
<g id="edge4" class="edge">
<title>NgxChartsModule&#45;&gt;NgxChart </title>
<path fill="none" stroke="black" stroke-dasharray="5,2" d="M79.13,-149.91C79.13,-149.91 79.13,-168.79 79.13,-168.79"/>
<polygon fill="black" stroke="black" points="75.63,-168.79 79.13,-178.79 82.63,-168.79 75.63,-168.79"/>
</g>
</g>
</svg>
