<?xml version="1.0" encoding="UTF-8" standalone="no"?>
<!DOCTYPE svg PUBLIC "-//W3C//DTD SVG 1.1//EN"
 "http://www.w3.org/Graphics/SVG/1.1/DTD/svg11.dtd">
<!-- Generated by graphviz version 2.47.3 (20210619.1520)
 -->
<!-- Title: dependencies Pages: 1 -->
<svg width="1006pt" height="247pt"
 viewBox="0.00 0.00 1006.00 246.80" xmlns="http://www.w3.org/2000/svg" xmlns:xlink="http://www.w3.org/1999/xlink">
<g id="graph0" class="graph" transform="scale(1 1) rotate(0) translate(4 242.8)">
<title>dependencies</title>
<polygon fill="white" stroke="transparent" points="-4,4 -4,-242.8 1002,-242.8 1002,4 -4,4"/>
<text text-anchor="middle" x="499" y="-8.2" font-family="sans-serif" font-size="14.00">dependencies</text>
<g id="clust1" class="cluster">
<title>cluster_SlideBuilderModule</title>
<polygon fill="none" stroke="black" stroke-dasharray="1,5" points="8,-32.8 8,-230.8 990,-230.8 990,-32.8 8,-32.8"/>
</g>
<g id="clust2" class="cluster">
<title>cluster_SlideBuilderModule_declarations</title>
<polygon fill="none" stroke="black" points="514,-40.8 514,-92.8 982,-92.8 982,-40.8 514,-40.8"/>
</g>
<g id="clust7" class="cluster">
<title>cluster_SlideBuilderModule_exports</title>
<polygon fill="none" stroke="black" points="285,-170.8 285,-222.8 610,-222.8 610,-170.8 285,-170.8"/>
</g>
<g id="clust6" class="cluster">
<title>cluster_SlideBuilderModule_imports</title>
<polygon fill="none" stroke="black" points="16,-40.8 16,-92.8 506,-92.8 506,-40.8 16,-40.8"/>
</g>
<!-- SlideBuilderComponent -->
<g id="node1" class="node">
<title>SlideBuilderComponent</title>
<polygon fill="#ffffb3" stroke="black" points="974.1,-84.8 821.9,-84.8 821.9,-48.8 974.1,-48.8 974.1,-84.8"/>
<text text-anchor="middle" x="898" y="-62.6" font-family="Times,serif" font-size="14.00">SlideBuilderComponent</text>
</g>
<!-- SlideBuilderModule -->
<g id="node4" class="node">
<title>SlideBuilderModule</title>
<polygon fill="#8dd3c7" stroke="black" points="507.32,-149.8 504.32,-153.8 483.32,-153.8 480.32,-149.8 376.68,-149.8 376.68,-113.8 507.32,-113.8 507.32,-149.8"/>
<text text-anchor="middle" x="442" y="-127.6" font-family="Times,serif" font-size="14.00">SlideBuilderModule</text>
</g>
<!-- SlideBuilderComponent&#45;&gt;SlideBuilderModule -->
<g id="edge1" class="edge">
<title>SlideBuilderComponent&#45;&gt;SlideBuilderModule</title>
<path fill="none" stroke="black" d="M898,-85.08C898,-106.12 898,-137.8 898,-137.8 898,-137.8 517.33,-137.8 517.33,-137.8"/>
<polygon fill="black" stroke="black" points="517.33,-134.3 507.33,-137.8 517.33,-141.3 517.33,-134.3"/>
</g>
<!-- SlideListComponent -->
<g id="node2" class="node">
<title>SlideListComponent</title>
<polygon fill="#ffffb3" stroke="black" points="803.89,-84.8 672.11,-84.8 672.11,-48.8 803.89,-48.8 803.89,-84.8"/>
<text text-anchor="middle" x="738" y="-62.6" font-family="Times,serif" font-size="14.00">SlideListComponent</text>
</g>
<!-- SlideListComponent&#45;&gt;SlideBuilderModule -->
<g id="edge2" class="edge">
<title>SlideListComponent&#45;&gt;SlideBuilderModule</title>
<path fill="none" stroke="black" d="M738,-84.82C738,-102.17 738,-125.8 738,-125.8 738,-125.8 517.32,-125.8 517.32,-125.8"/>
<polygon fill="black" stroke="black" points="517.32,-122.3 507.32,-125.8 517.32,-129.3 517.32,-122.3"/>
</g>
<!-- SlideTileComponent -->
<g id="node3" class="node">
<title>SlideTileComponent</title>
<polygon fill="#ffffb3" stroke="black" points="654.16,-84.8 521.84,-84.8 521.84,-48.8 654.16,-48.8 654.16,-84.8"/>
<text text-anchor="middle" x="588" y="-62.6" font-family="Times,serif" font-size="14.00">SlideTileComponent</text>
</g>
<!-- SlideTileComponent&#45;&gt;SlideBuilderModule -->
<g id="edge3" class="edge">
<title>SlideTileComponent&#45;&gt;SlideBuilderModule</title>
<path fill="none" stroke="black" d="M521.62,-66.8C510.6,-66.8 502.68,-66.8 502.68,-66.8 502.68,-66.8 502.68,-103.69 502.68,-103.69"/>
<polygon fill="black" stroke="black" points="499.18,-103.69 502.68,-113.69 506.18,-103.69 499.18,-103.69"/>
</g>
<!-- SlideBuilderComponent  -->
<g id="node9" class="node">
<title>SlideBuilderComponent </title>
<polygon fill="#fb8072" stroke="black" points="601.6,-214.8 446.4,-214.8 446.4,-178.8 601.6,-178.8 601.6,-214.8"/>
<text text-anchor="middle" x="524" y="-192.6" font-family="Times,serif" font-size="14.00">SlideBuilderComponent </text>
</g>
<!-- SlideBuilderModule&#45;&gt;SlideBuilderComponent  -->
<g id="edge8" class="edge">
<title>SlideBuilderModule&#45;&gt;SlideBuilderComponent </title>
<path fill="none" stroke="black" stroke-dasharray="5,2" d="M476.68,-149.91C476.68,-149.91 476.68,-168.79 476.68,-168.79"/>
<polygon fill="black" stroke="black" points="473.18,-168.79 476.68,-178.79 480.18,-168.79 473.18,-168.79"/>
</g>
<!-- SlideListComponent  -->
<g id="node10" class="node">
<title>SlideListComponent </title>
<polygon fill="#fb8072" stroke="black" points="428.89,-214.8 293.11,-214.8 293.11,-178.8 428.89,-178.8 428.89,-214.8"/>
<text text-anchor="middle" x="361" y="-192.6" font-family="Times,serif" font-size="14.00">SlideListComponent </text>
</g>
<!-- SlideBuilderModule&#45;&gt;SlideListComponent  -->
<g id="edge9" class="edge">
<title>SlideBuilderModule&#45;&gt;SlideListComponent </title>
<path fill="none" stroke="black" stroke-dasharray="5,2" d="M402.77,-149.91C402.77,-149.91 402.77,-168.79 402.77,-168.79"/>
<polygon fill="black" stroke="black" points="399.27,-168.79 402.77,-178.79 406.27,-168.79 399.27,-168.79"/>
</g>
<!-- BsSearchModule -->
<g id="node5" class="node">
<title>BsSearchModule</title>
<polygon fill="#8dd3c7" stroke="black" points="498.42,-84.8 495.42,-88.8 474.42,-88.8 471.42,-84.8 385.58,-84.8 385.58,-48.8 498.42,-48.8 498.42,-84.8"/>
<text text-anchor="middle" x="442" y="-62.6" font-family="Times,serif" font-size="14.00">BsSearchModule</text>
</g>
<!-- BsSearchModule&#45;&gt;SlideBuilderModule -->
<g id="edge4" class="edge">
<title>BsSearchModule&#45;&gt;SlideBuilderModule</title>
<path fill="none" stroke="black" d="M442,-84.91C442,-84.91 442,-103.79 442,-103.79"/>
<polygon fill="black" stroke="black" points="438.5,-103.79 442,-113.79 445.5,-103.79 438.5,-103.79"/>
</g>
<!-- BsSelectionModule -->
<g id="node6" class="node">
<title>BsSelectionModule</title>
<polygon fill="#8dd3c7" stroke="black" points="368.43,-84.8 365.43,-88.8 344.43,-88.8 341.43,-84.8 241.57,-84.8 241.57,-48.8 368.43,-48.8 368.43,-84.8"/>
<text text-anchor="middle" x="305" y="-62.6" font-family="Times,serif" font-size="14.00">BsSelectionModule</text>
</g>
<!-- BsSelectionModule&#45;&gt;SlideBuilderModule -->
<g id="edge5" class="edge">
<title>BsSelectionModule&#45;&gt;SlideBuilderModule</title>
<path fill="none" stroke="black" d="M368.37,-66.8C376.09,-66.8 381.32,-66.8 381.32,-66.8 381.32,-66.8 381.32,-103.69 381.32,-103.69"/>
<polygon fill="black" stroke="black" points="377.82,-103.69 381.32,-113.69 384.82,-103.69 377.82,-103.69"/>
</g>
<!-- ResultModule -->
<g id="node7" class="node">
<title>ResultModule</title>
<polygon fill="#8dd3c7" stroke="black" points="223.83,-84.8 220.83,-88.8 199.83,-88.8 196.83,-84.8 128.17,-84.8 128.17,-48.8 223.83,-48.8 223.83,-84.8"/>
<text text-anchor="middle" x="176" y="-62.6" font-family="Times,serif" font-size="14.00">ResultModule</text>
</g>
<!-- ResultModule&#45;&gt;SlideBuilderModule -->
<g id="edge6" class="edge">
<title>ResultModule&#45;&gt;SlideBuilderModule</title>
<path fill="none" stroke="black" d="M176,-84.82C176,-102.17 176,-125.8 176,-125.8 176,-125.8 366.59,-125.8 366.59,-125.8"/>
<polygon fill="black" stroke="black" points="366.59,-129.3 376.59,-125.8 366.59,-122.3 366.59,-129.3"/>
</g>
<!-- UtilsModule -->
<g id="node8" class="node">
<title>UtilsModule</title>
<polygon fill="#8dd3c7" stroke="black" points="110.27,-84.8 107.27,-88.8 86.27,-88.8 83.27,-84.8 23.73,-84.8 23.73,-48.8 110.27,-48.8 110.27,-84.8"/>
<text text-anchor="middle" x="67" y="-62.6" font-family="Times,serif" font-size="14.00">UtilsModule</text>
</g>
<!-- UtilsModule&#45;&gt;SlideBuilderModule -->
<g id="edge7" class="edge">
<title>UtilsModule&#45;&gt;SlideBuilderModule</title>
<path fill="none" stroke="black" d="M67,-85.08C67,-106.12 67,-137.8 67,-137.8 67,-137.8 366.68,-137.8 366.68,-137.8"/>
<polygon fill="black" stroke="black" points="366.68,-141.3 376.68,-137.8 366.68,-134.3 366.68,-141.3"/>
</g>
</g>
</svg>
