<?xml version="1.0" encoding="UTF-8" standalone="no"?>
<!DOCTYPE svg PUBLIC "-//W3C//DTD SVG 1.1//EN"
 "http://www.w3.org/Graphics/SVG/1.1/DTD/svg11.dtd">
<!-- Generated by graphviz version 2.47.3 (20210619.1520)
 -->
<!-- Title: dependencies Pages: 1 -->
<svg width="2893pt" height="524pt"
 viewBox="0.00 0.00 2893.00 523.80" xmlns="http://www.w3.org/2000/svg" xmlns:xlink="http://www.w3.org/1999/xlink">
<g id="graph0" class="graph" transform="scale(1 1) rotate(0) translate(4 519.8)">
<title>dependencies</title>
<polygon fill="white" stroke="transparent" points="-4,4 -4,-519.8 2889,-519.8 2889,4 -4,4"/>
<text text-anchor="middle" x="1442.5" y="-8.2" font-family="sans-serif" font-size="14.00">dependencies</text>
<g id="clust1" class="cluster">
<title>cluster_AppUtilsModule</title>
<polygon fill="none" stroke="black" stroke-dasharray="1,5" points="386,-32.8 386,-298.8 584,-298.8 584,-32.8 386,-32.8"/>
</g>
<g id="clust3" class="cluster">
<title>cluster_AppUtilsModule_imports</title>
<polygon fill="none" stroke="black" points="394,-40.8 394,-222.8 544,-222.8 544,-40.8 394,-40.8"/>
</g>
<g id="clust13" class="cluster">
<title>cluster_IntlModule</title>
<polygon fill="none" stroke="black" stroke-dasharray="1,5" points="8,-32.8 8,-100.8 378,-100.8 378,-32.8 8,-32.8"/>
</g>
<g id="clust14" class="cluster">
<title>cluster_IntlModule_declarations</title>
<polygon fill="none" stroke="black" points="264,-40.8 264,-92.8 370,-92.8 370,-40.8 264,-40.8"/>
</g>
<g id="clust17" class="cluster">
<title>cluster_IntlModule_exports</title>
<polygon fill="none" stroke="black" points="146,-40.8 146,-92.8 256,-92.8 256,-40.8 146,-40.8"/>
</g>
<g id="clust19" class="cluster">
<title>cluster_IntlModule_providers</title>
<polygon fill="none" stroke="black" points="16,-40.8 16,-92.8 138,-92.8 138,-40.8 16,-40.8"/>
</g>
<g id="clust20" class="cluster">
<title>cluster_LoadComponentModule</title>
<polygon fill="none" stroke="black" stroke-dasharray="1,5" points="2449,-32.8 2449,-230.8 2877,-230.8 2877,-32.8 2449,-32.8"/>
</g>
<g id="clust21" class="cluster">
<title>cluster_LoadComponentModule_declarations</title>
<polygon fill="none" stroke="black" points="2691,-40.8 2691,-92.8 2869,-92.8 2869,-40.8 2691,-40.8"/>
</g>
<g id="clust24" class="cluster">
<title>cluster_LoadComponentModule_exports</title>
<polygon fill="none" stroke="black" points="2479,-170.8 2479,-222.8 2661,-222.8 2661,-170.8 2479,-170.8"/>
</g>
<g id="clust26" class="cluster">
<title>cluster_LoadComponentModule_providers</title>
<polygon fill="none" stroke="black" points="2457,-40.8 2457,-92.8 2683,-92.8 2683,-40.8 2457,-40.8"/>
</g>
<g id="clust27" class="cluster">
<title>cluster_LoginModule</title>
<polygon fill="none" stroke="black" stroke-dasharray="1,5" points="367,-314.8 367,-507.8 2080,-507.8 2080,-314.8 367,-314.8"/>
</g>
<g id="clust28" class="cluster">
<title>cluster_LoginModule_declarations</title>
<polygon fill="none" stroke="black" points="2002,-390.8 2002,-442.8 2072,-442.8 2072,-390.8 2002,-390.8"/>
</g>
<g id="clust30" class="cluster">
<title>cluster_LoginModule_imports</title>
<polygon fill="none" stroke="black" points="1714,-322.8 1714,-442.8 1994,-442.8 1994,-322.8 1714,-322.8"/>
</g>
<g id="clust33" class="cluster">
<title>cluster_LoginModule_providers</title>
<polygon fill="none" stroke="black" points="375,-390.8 375,-442.8 1706,-442.8 1706,-390.8 375,-390.8"/>
</g>
<g id="clust34" class="cluster">
<title>cluster_ModalModule</title>
<polygon fill="none" stroke="black" stroke-dasharray="1,5" points="2088,-314.8 2088,-382.8 2413,-382.8 2413,-314.8 2088,-314.8"/>
</g>
<g id="clust35" class="cluster">
<title>cluster_ModalModule_declarations</title>
<polygon fill="none" stroke="black" points="2250,-322.8 2250,-374.8 2405,-374.8 2405,-322.8 2250,-322.8"/>
</g>
<g id="clust41" class="cluster">
<title>cluster_ModalModule_providers</title>
<polygon fill="none" stroke="black" points="2096,-322.8 2096,-374.8 2242,-374.8 2242,-322.8 2096,-322.8"/>
</g>
<g id="clust42" class="cluster">
<title>cluster_NotificationModule</title>
<polygon fill="none" stroke="black" stroke-dasharray="1,5" points="1884,-238.8 1884,-306.8 2322,-306.8 2322,-238.8 1884,-238.8"/>
</g>
<g id="clust47" class="cluster">
<title>cluster_NotificationModule_providers</title>
<polygon fill="none" stroke="black" points="1892,-246.8 1892,-298.8 2314,-298.8 2314,-246.8 1892,-246.8"/>
</g>
<g id="clust48" class="cluster">
<title>cluster_ValidationModule</title>
<polygon fill="none" stroke="black" stroke-dasharray="1,5" points="660,-238.8 660,-306.8 1876,-306.8 1876,-238.8 660,-238.8"/>
</g>
<g id="clust49" class="cluster">
<title>cluster_ValidationModule_declarations</title>
<polygon fill="none" stroke="black" points="1370,-246.8 1370,-298.8 1868,-298.8 1868,-246.8 1370,-246.8"/>
</g>
<g id="clust54" class="cluster">
<title>cluster_ValidationModule_exports</title>
<polygon fill="none" stroke="black" points="854,-246.8 854,-298.8 1362,-298.8 1362,-246.8 854,-246.8"/>
</g>
<g id="clust56" class="cluster">
<title>cluster_ValidationModule_providers</title>
<polygon fill="none" stroke="black" points="668,-246.8 668,-298.8 846,-298.8 846,-246.8 668,-246.8"/>
</g>
<!-- BaseModule -->
<g id="node1" class="node">
<title>BaseModule</title>
<polygon fill="#8dd3c7" stroke="black" points="536.26,-84.8 533.26,-88.8 512.26,-88.8 509.26,-84.8 449.74,-84.8 449.74,-48.8 536.26,-48.8 536.26,-84.8"/>
<text text-anchor="middle" x="493" y="-62.6" font-family="Times,serif" font-size="14.00">BaseModule</text>
</g>
<!-- IntlModule -->
<g id="node2" class="node">
<title>IntlModule</title>
<polygon fill="#8dd3c7" stroke="black" points="480.49,-149.8 477.49,-153.8 456.49,-153.8 453.49,-149.8 401.51,-149.8 401.51,-113.8 480.49,-113.8 480.49,-149.8"/>
<text text-anchor="middle" x="441" y="-127.6" font-family="Times,serif" font-size="14.00">IntlModule</text>
</g>
<!-- BaseModule&#45;&gt;IntlModule -->
<g id="edge5" class="edge">
<title>BaseModule&#45;&gt;IntlModule</title>
<path fill="none" stroke="black" d="M465.06,-84.91C465.06,-84.91 465.06,-103.79 465.06,-103.79"/>
<polygon fill="black" stroke="black" points="461.56,-103.79 465.06,-113.79 468.56,-103.79 461.56,-103.79"/>
</g>
<!-- WebServicesModule -->
<g id="node3" class="node">
<title>WebServicesModule</title>
<polygon fill="#8dd3c7" stroke="black" points="535.9,-214.8 532.9,-218.8 511.9,-218.8 508.9,-214.8 402.1,-214.8 402.1,-178.8 535.9,-178.8 535.9,-214.8"/>
<text text-anchor="middle" x="469" y="-192.6" font-family="Times,serif" font-size="14.00">WebServicesModule</text>
</g>
<!-- BaseModule&#45;&gt;WebServicesModule -->
<g id="edge45" class="edge">
<title>BaseModule&#45;&gt;WebServicesModule</title>
<path fill="none" stroke="black" d="M498.9,-84.88C498.9,-84.88 498.9,-168.46 498.9,-168.46"/>
<polygon fill="black" stroke="black" points="495.4,-168.46 498.9,-178.46 502.4,-168.46 495.4,-168.46"/>
</g>
<!-- AppUtilsModule -->
<g id="node4" class="node">
<title>AppUtilsModule</title>
<polygon fill="#8dd3c7" stroke="black" points="576.38,-290.8 573.38,-294.8 552.38,-294.8 549.38,-290.8 465.62,-290.8 465.62,-254.8 576.38,-254.8 576.38,-290.8"/>
<text text-anchor="middle" x="521" y="-268.6" font-family="Times,serif" font-size="14.00">AppUtilsModule</text>
</g>
<!-- BaseModule&#45;&gt;AppUtilsModule -->
<g id="edge1" class="edge">
<title>BaseModule&#45;&gt;AppUtilsModule</title>
<path fill="none" stroke="black" d="M536.59,-75.8C550.84,-75.8 563.09,-75.8 563.09,-75.8 563.09,-75.8 563.09,-244.62 563.09,-244.62"/>
<polygon fill="black" stroke="black" points="559.59,-244.62 563.09,-254.62 566.59,-244.62 559.59,-244.62"/>
</g>
<!-- LoadComponentModule -->
<g id="node9" class="node">
<title>LoadComponentModule</title>
<polygon fill="#8dd3c7" stroke="black" points="2646.65,-149.8 2643.65,-153.8 2622.65,-153.8 2619.65,-149.8 2493.35,-149.8 2493.35,-113.8 2646.65,-113.8 2646.65,-149.8"/>
<text text-anchor="middle" x="2570" y="-127.6" font-family="Times,serif" font-size="14.00">LoadComponentModule</text>
</g>
<!-- BaseModule&#45;&gt;LoadComponentModule -->
<g id="edge9" class="edge">
<title>BaseModule&#45;&gt;LoadComponentModule</title>
<path fill="none" stroke="black" d="M517.3,-84.81C517.3,-100.85 517.3,-121.8 517.3,-121.8 517.3,-121.8 2483.28,-121.8 2483.28,-121.8"/>
<polygon fill="black" stroke="black" points="2483.28,-125.3 2493.28,-121.8 2483.28,-118.3 2483.28,-125.3"/>
</g>
<!-- LoginModule -->
<g id="node13" class="node">
<title>LoginModule</title>
<polygon fill="#8dd3c7" stroke="black" points="1364.49,-499.8 1361.49,-503.8 1340.49,-503.8 1337.49,-499.8 1271.51,-499.8 1271.51,-463.8 1364.49,-463.8 1364.49,-499.8"/>
<text text-anchor="middle" x="1318" y="-477.6" font-family="Times,serif" font-size="14.00">LoginModule</text>
</g>
<!-- BaseModule&#45;&gt;LoginModule -->
<g id="edge14" class="edge">
<title>BaseModule&#45;&gt;LoginModule</title>
<path fill="none" stroke="black" d="M449.73,-60.8C413.35,-60.8 367.26,-60.8 367.26,-60.8 367.26,-60.8 367.26,-495.8 367.26,-495.8 367.26,-495.8 1261.5,-495.8 1261.5,-495.8"/>
<polygon fill="black" stroke="black" points="1261.5,-499.3 1271.5,-495.8 1261.5,-492.3 1261.5,-499.3"/>
</g>
<!-- ModalModule -->
<g id="node14" class="node">
<title>ModalModule</title>
<polygon fill="#8dd3c7" stroke="black" points="1986.1,-434.8 1983.1,-438.8 1962.1,-438.8 1959.1,-434.8 1889.9,-434.8 1889.9,-398.8 1986.1,-398.8 1986.1,-434.8"/>
<text text-anchor="middle" x="1938" y="-412.6" font-family="Times,serif" font-size="14.00">ModalModule</text>
</g>
<!-- BaseModule&#45;&gt;ModalModule -->
<g id="edge29" class="edge">
<title>BaseModule&#45;&gt;ModalModule</title>
<path fill="none" stroke="black" d="M536.38,-66.8C580.67,-66.8 642.98,-66.8 642.98,-66.8 642.98,-66.8 642.98,-373.8 642.98,-373.8 642.98,-373.8 1928.21,-373.8 1928.21,-373.8 1928.21,-373.8 1928.21,-388.31 1928.21,-388.31"/>
<polygon fill="black" stroke="black" points="1924.71,-388.31 1928.21,-398.31 1931.71,-388.31 1924.71,-388.31"/>
</g>
<!-- ValidationModule -->
<g id="node16" class="node">
<title>ValidationModule</title>
<polygon fill="#8dd3c7" stroke="black" points="1840.15,-366.8 1837.15,-370.8 1816.15,-370.8 1813.15,-366.8 1721.85,-366.8 1721.85,-330.8 1840.15,-330.8 1840.15,-366.8"/>
<text text-anchor="middle" x="1781" y="-344.6" font-family="Times,serif" font-size="14.00">ValidationModule</text>
</g>
<!-- BaseModule&#45;&gt;ValidationModule -->
<g id="edge39" class="edge">
<title>BaseModule&#45;&gt;ValidationModule</title>
<path fill="none" stroke="black" d="M536.29,-57.8C755.18,-57.8 1729.73,-57.8 1729.73,-57.8 1729.73,-57.8 1729.73,-320.6 1729.73,-320.6"/>
<polygon fill="black" stroke="black" points="1726.23,-320.6 1729.73,-330.6 1733.23,-320.6 1726.23,-320.6"/>
</g>
<!-- IntlModule&#45;&gt;WebServicesModule -->
<g id="edge46" class="edge">
<title>IntlModule&#45;&gt;WebServicesModule</title>
<path fill="none" stroke="black" d="M441.4,-149.91C441.4,-149.91 441.4,-168.79 441.4,-168.79"/>
<polygon fill="black" stroke="black" points="437.9,-168.79 441.4,-178.79 444.9,-168.79 437.9,-168.79"/>
</g>
<!-- IntlModule&#45;&gt;AppUtilsModule -->
<g id="edge2" class="edge">
<title>IntlModule&#45;&gt;AppUtilsModule</title>
<path fill="none" stroke="black" d="M480.56,-142.8C511.65,-142.8 549.73,-142.8 549.73,-142.8 549.73,-142.8 549.73,-244.72 549.73,-244.72"/>
<polygon fill="black" stroke="black" points="546.23,-244.72 549.73,-254.72 553.23,-244.72 546.23,-244.72"/>
</g>
<!-- MessagePipe  -->
<g id="node6" class="node">
<title>MessagePipe </title>
<polygon fill="#fb8072" stroke="black" points="247.87,-84.8 154.13,-84.8 154.13,-48.8 247.87,-48.8 247.87,-84.8"/>
<text text-anchor="middle" x="201" y="-62.6" font-family="Times,serif" font-size="14.00">MessagePipe </text>
</g>
<!-- IntlModule&#45;&gt;MessagePipe  -->
<g id="edge6" class="edge">
<title>IntlModule&#45;&gt;MessagePipe </title>
<path fill="none" stroke="black" stroke-dasharray="5,2" d="M401.37,-122.8C333.2,-122.8 201,-122.8 201,-122.8 201,-122.8 201,-94.83 201,-94.83"/>
<polygon fill="black" stroke="black" points="204.5,-94.83 201,-84.83 197.5,-94.83 204.5,-94.83"/>
</g>
<!-- IntlModule&#45;&gt;LoginModule -->
<g id="edge15" class="edge">
<title>IntlModule&#45;&gt;LoginModule</title>
<path fill="none" stroke="black" d="M401.2,-140.8C386.15,-140.8 372.59,-140.8 372.59,-140.8 372.59,-140.8 372.59,-491.8 372.59,-491.8 372.59,-491.8 1261.44,-491.8 1261.44,-491.8"/>
<polygon fill="black" stroke="black" points="1261.44,-495.3 1271.44,-491.8 1261.44,-488.3 1261.44,-495.3"/>
</g>
<!-- IntlModule&#45;&gt;ModalModule -->
<g id="edge30" class="edge">
<title>IntlModule&#45;&gt;ModalModule</title>
<path fill="none" stroke="black" d="M480.55,-135.8C530.42,-135.8 609.71,-135.8 609.71,-135.8 609.71,-135.8 609.71,-379.8 609.71,-379.8 609.71,-379.8 1909.08,-379.8 1909.08,-379.8 1909.08,-379.8 1909.08,-388.73 1909.08,-388.73"/>
<polygon fill="black" stroke="black" points="1905.58,-388.73 1909.08,-398.73 1912.58,-388.73 1905.58,-388.73"/>
</g>
<!-- IntlModule&#45;&gt;ValidationModule -->
<g id="edge40" class="edge">
<title>IntlModule&#45;&gt;ValidationModule</title>
<path fill="none" stroke="black" d="M480.54,-128.8C696.85,-128.8 1727.04,-128.8 1727.04,-128.8 1727.04,-128.8 1727.04,-320.8 1727.04,-320.8"/>
<polygon fill="black" stroke="black" points="1723.54,-320.8 1727.04,-330.8 1730.54,-320.8 1723.54,-320.8"/>
</g>
<!-- WebServicesModule&#45;&gt;AppUtilsModule -->
<g id="edge3" class="edge">
<title>WebServicesModule&#45;&gt;AppUtilsModule</title>
<path fill="none" stroke="black" d="M500.63,-214.81C500.63,-214.81 500.63,-244.65 500.63,-244.65"/>
<polygon fill="black" stroke="black" points="497.13,-244.65 500.63,-254.65 504.13,-244.65 497.13,-244.65"/>
</g>
<!-- WebServicesModule&#45;&gt;LoginModule -->
<g id="edge19" class="edge">
<title>WebServicesModule&#45;&gt;LoginModule</title>
<path fill="none" stroke="black" d="M401.84,-196.8C388.19,-196.8 377.91,-196.8 377.91,-196.8 377.91,-196.8 377.91,-487.8 377.91,-487.8 377.91,-487.8 1261.38,-487.8 1261.38,-487.8"/>
<polygon fill="black" stroke="black" points="1261.38,-491.3 1271.38,-487.8 1261.38,-484.3 1261.38,-491.3"/>
</g>
<!-- AppUtilsModule&#45;&gt;LoginModule -->
<g id="edge13" class="edge">
<title>AppUtilsModule&#45;&gt;LoginModule</title>
<path fill="none" stroke="black" d="M509.69,-290.81C509.69,-341.17 509.69,-479.8 509.69,-479.8 509.69,-479.8 1261.34,-479.8 1261.34,-479.8"/>
<polygon fill="black" stroke="black" points="1261.34,-483.3 1271.34,-479.8 1261.34,-476.3 1261.34,-483.3"/>
</g>
<!-- AppUtilsModule&#45;&gt;ValidationModule -->
<g id="edge38" class="edge">
<title>AppUtilsModule&#45;&gt;ValidationModule</title>
<path fill="none" stroke="black" d="M547.53,-290.81C547.53,-316.82 547.53,-361.8 547.53,-361.8 547.53,-361.8 1711.51,-361.8 1711.51,-361.8"/>
<polygon fill="black" stroke="black" points="1711.51,-365.3 1721.51,-361.8 1711.51,-358.3 1711.51,-365.3"/>
</g>
<!-- MessagePipe -->
<g id="node5" class="node">
<title>MessagePipe</title>
<polygon fill="#ffffb3" stroke="black" points="361.87,-84.8 272.13,-84.8 272.13,-48.8 361.87,-48.8 361.87,-84.8"/>
<text text-anchor="middle" x="317" y="-62.6" font-family="Times,serif" font-size="14.00">MessagePipe</text>
</g>
<!-- MessagePipe&#45;&gt;IntlModule -->
<g id="edge4" class="edge">
<title>MessagePipe&#45;&gt;IntlModule</title>
<path fill="none" stroke="black" d="M362.1,-72.8C391.92,-72.8 425.56,-72.8 425.56,-72.8 425.56,-72.8 425.56,-103.78 425.56,-103.78"/>
<polygon fill="black" stroke="black" points="422.06,-103.78 425.56,-113.78 429.06,-103.78 422.06,-103.78"/>
</g>
<!-- IntlService -->
<g id="node7" class="node">
<title>IntlService</title>
<ellipse fill="#fdb462" stroke="black" cx="77" cy="-66.8" rx="53.31" ry="18"/>
<text text-anchor="middle" x="77" y="-62.6" font-family="Times,serif" font-size="14.00">IntlService</text>
</g>
<!-- IntlService&#45;&gt;IntlModule -->
<g id="edge7" class="edge">
<title>IntlService&#45;&gt;IntlModule</title>
<path fill="none" stroke="black" d="M77,-84.91C77,-104.14 77,-131.8 77,-131.8 77,-131.8 391.35,-131.8 391.35,-131.8"/>
<polygon fill="black" stroke="black" points="391.35,-135.3 401.35,-131.8 391.35,-128.3 391.35,-135.3"/>
</g>
<!-- LoadComponentDirective -->
<g id="node8" class="node">
<title>LoadComponentDirective</title>
<polygon fill="#ffffb3" stroke="black" points="2861.18,-84.8 2698.82,-84.8 2698.82,-48.8 2861.18,-48.8 2861.18,-84.8"/>
<text text-anchor="middle" x="2780" y="-62.6" font-family="Times,serif" font-size="14.00">LoadComponentDirective</text>
</g>
<!-- LoadComponentDirective&#45;&gt;LoadComponentModule -->
<g id="edge8" class="edge">
<title>LoadComponentDirective&#45;&gt;LoadComponentModule</title>
<path fill="none" stroke="black" d="M2780,-84.91C2780,-104.14 2780,-131.8 2780,-131.8 2780,-131.8 2656.71,-131.8 2656.71,-131.8"/>
<polygon fill="black" stroke="black" points="2656.71,-128.3 2646.71,-131.8 2656.71,-135.3 2656.71,-128.3"/>
</g>
<!-- LoadComponentDirective  -->
<g id="node10" class="node">
<title>LoadComponentDirective </title>
<polygon fill="#fb8072" stroke="black" points="2652.68,-214.8 2487.32,-214.8 2487.32,-178.8 2652.68,-178.8 2652.68,-214.8"/>
<text text-anchor="middle" x="2570" y="-192.6" font-family="Times,serif" font-size="14.00">LoadComponentDirective </text>
</g>
<!-- LoadComponentModule&#45;&gt;LoadComponentDirective  -->
<g id="edge10" class="edge">
<title>LoadComponentModule&#45;&gt;LoadComponentDirective </title>
<path fill="none" stroke="black" stroke-dasharray="5,2" d="M2570,-149.91C2570,-149.91 2570,-168.79 2570,-168.79"/>
<polygon fill="black" stroke="black" points="2566.5,-168.79 2570,-178.79 2573.5,-168.79 2566.5,-168.79"/>
</g>
<!-- LoadComponentService -->
<g id="node11" class="node">
<title>LoadComponentService</title>
<ellipse fill="#fdb462" stroke="black" cx="2570" cy="-66.8" rx="104.8" ry="18"/>
<text text-anchor="middle" x="2570" y="-62.6" font-family="Times,serif" font-size="14.00">LoadComponentService</text>
</g>
<!-- LoadComponentService&#45;&gt;LoadComponentModule -->
<g id="edge11" class="edge">
<title>LoadComponentService&#45;&gt;LoadComponentModule</title>
<path fill="none" stroke="black" d="M2570,-84.91C2570,-84.91 2570,-103.79 2570,-103.79"/>
<polygon fill="black" stroke="black" points="2566.5,-103.79 2570,-113.79 2573.5,-103.79 2566.5,-103.79"/>
</g>
<!-- Login -->
<g id="node12" class="node">
<title>Login</title>
<polygon fill="#ffffb3" stroke="black" points="2064,-434.8 2010,-434.8 2010,-398.8 2064,-398.8 2064,-434.8"/>
<text text-anchor="middle" x="2037" y="-412.6" font-family="Times,serif" font-size="14.00">Login</text>
</g>
<!-- Login&#45;&gt;LoginModule -->
<g id="edge12" class="edge">
<title>Login&#45;&gt;LoginModule</title>
<path fill="none" stroke="black" d="M2037,-434.89C2037,-457.93 2037,-494.8 2037,-494.8 2037,-494.8 1374.62,-494.8 1374.62,-494.8"/>
<polygon fill="black" stroke="black" points="1374.62,-491.3 1364.62,-494.8 1374.62,-498.3 1374.62,-491.3"/>
</g>
<!-- ModalModule&#45;&gt;LoginModule -->
<g id="edge16" class="edge">
<title>ModalModule&#45;&gt;LoginModule</title>
<path fill="none" stroke="black" d="M1938,-434.84C1938,-456.46 1938,-489.8 1938,-489.8 1938,-489.8 1374.6,-489.8 1374.6,-489.8"/>
<polygon fill="black" stroke="black" points="1374.6,-486.3 1364.6,-489.8 1374.6,-493.3 1374.6,-486.3"/>
</g>
<!-- NotificationModule -->
<g id="node15" class="node">
<title>NotificationModule</title>
<polygon fill="#8dd3c7" stroke="black" points="1985.7,-366.8 1982.7,-370.8 1961.7,-370.8 1958.7,-366.8 1858.3,-366.8 1858.3,-330.8 1985.7,-330.8 1985.7,-366.8"/>
<text text-anchor="middle" x="1922" y="-344.6" font-family="Times,serif" font-size="14.00">NotificationModule</text>
</g>
<!-- NotificationModule&#45;&gt;LoginModule -->
<g id="edge17" class="edge">
<title>NotificationModule&#45;&gt;LoginModule</title>
<path fill="none" stroke="black" d="M1874.18,-366.86C1874.18,-403.85 1874.18,-484.8 1874.18,-484.8 1874.18,-484.8 1374.94,-484.8 1374.94,-484.8"/>
<polygon fill="black" stroke="black" points="1374.94,-481.3 1364.94,-484.8 1374.94,-488.3 1374.94,-481.3"/>
</g>
<!-- ValidationModule&#45;&gt;LoginModule -->
<g id="edge18" class="edge">
<title>ValidationModule&#45;&gt;LoginModule</title>
<path fill="none" stroke="black" d="M1761.23,-367.01C1761.23,-403.01 1761.23,-479.8 1761.23,-479.8 1761.23,-479.8 1374.6,-479.8 1374.6,-479.8"/>
<polygon fill="black" stroke="black" points="1374.6,-476.3 1364.6,-479.8 1374.6,-483.3 1374.6,-476.3"/>
</g>
<!-- ValidationModule&#45;&gt;ModalModule -->
<g id="edge31" class="edge">
<title>ValidationModule&#45;&gt;ModalModule</title>
<path fill="none" stroke="black" d="M1800.77,-367.02C1800.77,-387.17 1800.77,-416.8 1800.77,-416.8 1800.77,-416.8 1879.62,-416.8 1879.62,-416.8"/>
<polygon fill="black" stroke="black" points="1879.62,-420.3 1889.62,-416.8 1879.62,-413.3 1879.62,-420.3"/>
</g>
<!-- ValidationDirective  -->
<g id="node32" class="node">
<title>ValidationDirective </title>
<polygon fill="#fb8072" stroke="black" points="1354.18,-290.8 1223.82,-290.8 1223.82,-254.8 1354.18,-254.8 1354.18,-290.8"/>
<text text-anchor="middle" x="1289" y="-268.6" font-family="Times,serif" font-size="14.00">ValidationDirective </text>
</g>
<!-- ValidationModule&#45;&gt;ValidationDirective  -->
<g id="edge41" class="edge">
<title>ValidationModule&#45;&gt;ValidationDirective </title>
<path fill="none" stroke="black" stroke-dasharray="5,2" d="M1721.53,-341.8C1593.62,-341.8 1303.84,-341.8 1303.84,-341.8 1303.84,-341.8 1303.84,-300.93 1303.84,-300.93"/>
<polygon fill="black" stroke="black" points="1307.34,-300.93 1303.84,-290.93 1300.34,-300.93 1307.34,-300.93"/>
</g>
<!-- ValidationErrorPipe  -->
<g id="node33" class="node">
<title>ValidationErrorPipe </title>
<polygon fill="#fb8072" stroke="black" points="1205.52,-290.8 1072.48,-290.8 1072.48,-254.8 1205.52,-254.8 1205.52,-290.8"/>
<text text-anchor="middle" x="1139" y="-268.6" font-family="Times,serif" font-size="14.00">ValidationErrorPipe </text>
</g>
<!-- ValidationModule&#45;&gt;ValidationErrorPipe  -->
<g id="edge42" class="edge">
<title>ValidationModule&#45;&gt;ValidationErrorPipe </title>
<path fill="none" stroke="black" stroke-dasharray="5,2" d="M1721.75,-346.8C1562.82,-346.8 1139,-346.8 1139,-346.8 1139,-346.8 1139,-301.09 1139,-301.09"/>
<polygon fill="black" stroke="black" points="1142.5,-301.09 1139,-291.09 1135.5,-301.09 1142.5,-301.09"/>
</g>
<!-- ValidationMessageComponent  -->
<g id="node34" class="node">
<title>ValidationMessageComponent </title>
<polygon fill="#fb8072" stroke="black" points="1054.41,-290.8 861.59,-290.8 861.59,-254.8 1054.41,-254.8 1054.41,-290.8"/>
<text text-anchor="middle" x="958" y="-268.6" font-family="Times,serif" font-size="14.00">ValidationMessageComponent </text>
</g>
<!-- ValidationModule&#45;&gt;ValidationMessageComponent  -->
<g id="edge43" class="edge">
<title>ValidationModule&#45;&gt;ValidationMessageComponent </title>
<path fill="none" stroke="black" stroke-dasharray="5,2" d="M1721.58,-351.8C1543.06,-351.8 1023.74,-351.8 1023.74,-351.8 1023.74,-351.8 1023.74,-301.12 1023.74,-301.12"/>
<polygon fill="black" stroke="black" points="1027.24,-301.12 1023.74,-291.12 1020.24,-301.12 1027.24,-301.12"/>
</g>
<!-- AuthenticationOauthService -->
<g id="node17" class="node">
<title>AuthenticationOauthService</title>
<ellipse fill="#fdb462" stroke="black" cx="1114" cy="-416.8" rx="120.97" ry="18"/>
<text text-anchor="middle" x="1114" y="-412.6" font-family="Times,serif" font-size="14.00">AuthenticationOauthService</text>
</g>
<!-- AuthenticationOauthService&#45;&gt;LoginModule -->
<g id="edge20" class="edge">
<title>AuthenticationOauthService&#45;&gt;LoginModule</title>
<path fill="none" stroke="black" d="M1114,-434.92C1114,-449.58 1114,-467.8 1114,-467.8 1114,-467.8 1261.45,-467.8 1261.45,-467.8"/>
<polygon fill="black" stroke="black" points="1261.45,-471.3 1271.45,-467.8 1261.45,-464.3 1261.45,-471.3"/>
</g>
<!-- AuthenticationPopupService -->
<g id="node18" class="node">
<title>AuthenticationPopupService</title>
<ellipse fill="#fdb462" stroke="black" cx="853" cy="-416.8" rx="122.13" ry="18"/>
<text text-anchor="middle" x="853" y="-412.6" font-family="Times,serif" font-size="14.00">AuthenticationPopupService</text>
</g>
<!-- AuthenticationPopupService&#45;&gt;LoginModule -->
<g id="edge21" class="edge">
<title>AuthenticationPopupService&#45;&gt;LoginModule</title>
<path fill="none" stroke="black" d="M853,-434.81C853,-450.85 853,-471.8 853,-471.8 853,-471.8 1261.28,-471.8 1261.28,-471.8"/>
<polygon fill="black" stroke="black" points="1261.29,-475.3 1271.28,-471.8 1261.28,-468.3 1261.29,-475.3"/>
</g>
<!-- AuthenticationService -->
<g id="node19" class="node">
<title>AuthenticationService</title>
<ellipse fill="#fdb462" stroke="black" cx="616" cy="-416.8" rx="97.27" ry="18"/>
<text text-anchor="middle" x="616" y="-412.6" font-family="Times,serif" font-size="14.00">AuthenticationService</text>
</g>
<!-- AuthenticationService&#45;&gt;LoginModule -->
<g id="edge22" class="edge">
<title>AuthenticationService&#45;&gt;LoginModule</title>
<path fill="none" stroke="black" d="M616,-434.82C616,-452.17 616,-475.8 616,-475.8 616,-475.8 1261.4,-475.8 1261.4,-475.8"/>
<polygon fill="black" stroke="black" points="1261.4,-479.3 1271.4,-475.8 1261.4,-472.3 1261.4,-479.3"/>
</g>
<!-- JWTService -->
<g id="node20" class="node">
<title>JWTService</title>
<ellipse fill="#fdb462" stroke="black" cx="442" cy="-416.8" rx="58.53" ry="18"/>
<text text-anchor="middle" x="442" y="-412.6" font-family="Times,serif" font-size="14.00">JWTService</text>
</g>
<!-- JWTService&#45;&gt;LoginModule -->
<g id="edge23" class="edge">
<title>JWTService&#45;&gt;LoginModule</title>
<path fill="none" stroke="black" d="M442,-435.11C442,-454.95 442,-483.8 442,-483.8 442,-483.8 1261.21,-483.8 1261.21,-483.8"/>
<polygon fill="black" stroke="black" points="1261.21,-487.3 1271.21,-483.8 1261.21,-480.3 1261.21,-487.3"/>
</g>
<!-- LoginInterceptor -->
<g id="node21" class="node">
<title>LoginInterceptor</title>
<ellipse fill="#fdb462" stroke="black" cx="1622" cy="-416.8" rx="76.42" ry="18"/>
<text text-anchor="middle" x="1622" y="-412.6" font-family="Times,serif" font-size="14.00">LoginInterceptor</text>
</g>
<!-- LoginInterceptor&#45;&gt;LoginModule -->
<g id="edge24" class="edge">
<title>LoginInterceptor&#45;&gt;LoginModule</title>
<path fill="none" stroke="black" d="M1622,-434.83C1622,-451.86 1622,-474.8 1622,-474.8 1622,-474.8 1374.5,-474.8 1374.5,-474.8"/>
<polygon fill="black" stroke="black" points="1374.5,-471.3 1364.5,-474.8 1374.5,-478.3 1374.5,-471.3"/>
</g>
<!-- LoginService -->
<g id="node22" class="node">
<title>LoginService</title>
<ellipse fill="#fdb462" stroke="black" cx="1464" cy="-416.8" rx="63.12" ry="18"/>
<text text-anchor="middle" x="1464" y="-412.6" font-family="Times,serif" font-size="14.00">LoginService</text>
</g>
<!-- LoginService&#45;&gt;LoginModule -->
<g id="edge25" class="edge">
<title>LoginService&#45;&gt;LoginModule</title>
<path fill="none" stroke="black" d="M1464,-435.04C1464,-450.37 1464,-469.8 1464,-469.8 1464,-469.8 1374.6,-469.8 1374.6,-469.8"/>
<polygon fill="black" stroke="black" points="1374.6,-466.3 1364.6,-469.8 1374.6,-473.3 1374.6,-466.3"/>
</g>
<!-- TokenService -->
<g id="node23" class="node">
<title>TokenService</title>
<ellipse fill="#fdb462" stroke="black" cx="1318" cy="-416.8" rx="64.83" ry="18"/>
<text text-anchor="middle" x="1318" y="-412.6" font-family="Times,serif" font-size="14.00">TokenService</text>
</g>
<!-- TokenService&#45;&gt;LoginModule -->
<g id="edge26" class="edge">
<title>TokenService&#45;&gt;LoginModule</title>
<path fill="none" stroke="black" d="M1318,-434.91C1318,-434.91 1318,-453.79 1318,-453.79"/>
<polygon fill="black" stroke="black" points="1314.5,-453.79 1318,-463.79 1321.5,-453.79 1314.5,-453.79"/>
</g>
<!-- Confirm -->
<g id="node24" class="node">
<title>Confirm</title>
<polygon fill="#ffffb3" stroke="black" points="2321.94,-366.8 2258.06,-366.8 2258.06,-330.8 2321.94,-330.8 2321.94,-366.8"/>
<text text-anchor="middle" x="2290" y="-344.6" font-family="Times,serif" font-size="14.00">Confirm</text>
</g>
<!-- Confirm&#45;&gt;ModalModule -->
<g id="edge27" class="edge">
<title>Confirm&#45;&gt;ModalModule</title>
<path fill="none" stroke="black" d="M2290,-366.91C2290,-376.7 2290,-386.8 2290,-386.8 2290,-386.8 1947.34,-386.8 1947.34,-386.8 1947.34,-386.8 1947.34,-388.66 1947.34,-388.66"/>
<polygon fill="black" stroke="black" points="1943.84,-388.66 1947.34,-398.66 1950.84,-388.66 1943.84,-388.66"/>
</g>
<!-- Prompt -->
<g id="node25" class="node">
<title>Prompt</title>
<polygon fill="#ffffb3" stroke="black" points="2396.72,-366.8 2339.28,-366.8 2339.28,-330.8 2396.72,-330.8 2396.72,-366.8"/>
<text text-anchor="middle" x="2368" y="-344.6" font-family="Times,serif" font-size="14.00">Prompt</text>
</g>
<!-- Prompt&#45;&gt;ModalModule -->
<g id="edge28" class="edge">
<title>Prompt&#45;&gt;ModalModule</title>
<path fill="none" stroke="black" d="M2368,-366.95C2368,-379.07 2368,-392.8 2368,-392.8 2368,-392.8 1966.47,-392.8 1966.47,-392.8 1966.47,-392.8 1966.47,-393.38 1966.47,-393.38"/>
<polygon fill="black" stroke="black" points="1962.97,-388.61 1966.47,-398.61 1969.97,-388.61 1962.97,-388.61"/>
</g>
<!-- ModalService -->
<g id="node26" class="node">
<title>ModalService</title>
<ellipse fill="#fdb462" stroke="black" cx="2169" cy="-348.8" rx="65.41" ry="18"/>
<text text-anchor="middle" x="2169" y="-344.6" font-family="Times,serif" font-size="14.00">ModalService</text>
</g>
<!-- ModalService&#45;&gt;ModalModule -->
<g id="edge32" class="edge">
<title>ModalService&#45;&gt;ModalModule</title>
<path fill="none" stroke="black" d="M2103.39,-348.8C2055.17,-348.8 1998.02,-348.8 1998.02,-348.8 1998.02,-348.8 1998.02,-416.8 1998.02,-416.8 1998.02,-416.8 1996.17,-416.8 1996.17,-416.8"/>
<polygon fill="black" stroke="black" points="1996.17,-413.3 1986.17,-416.8 1996.17,-420.3 1996.17,-413.3"/>
</g>
<!-- NotificationsInterceptor -->
<g id="node27" class="node">
<title>NotificationsInterceptor</title>
<ellipse fill="#fdb462" stroke="black" cx="2004" cy="-272.8" rx="103.63" ry="18"/>
<text text-anchor="middle" x="2004" y="-268.6" font-family="Times,serif" font-size="14.00">NotificationsInterceptor</text>
</g>
<!-- NotificationsInterceptor&#45;&gt;NotificationModule -->
<g id="edge33" class="edge">
<title>NotificationsInterceptor&#45;&gt;NotificationModule</title>
<path fill="none" stroke="black" d="M1928.66,-285.35C1928.66,-285.35 1928.66,-320.54 1928.66,-320.54"/>
<polygon fill="black" stroke="black" points="1925.16,-320.54 1928.66,-330.54 1932.16,-320.54 1925.16,-320.54"/>
</g>
<!-- NotificationsService -->
<g id="node28" class="node">
<title>NotificationsService</title>
<ellipse fill="#fdb462" stroke="black" cx="2216" cy="-272.8" rx="90.32" ry="18"/>
<text text-anchor="middle" x="2216" y="-268.6" font-family="Times,serif" font-size="14.00">NotificationsService</text>
</g>
<!-- NotificationsService&#45;&gt;NotificationModule -->
<g id="edge34" class="edge">
<title>NotificationsService&#45;&gt;NotificationModule</title>
<path fill="none" stroke="black" d="M2179.9,-289.58C2179.9,-299.76 2179.9,-310.8 2179.9,-310.8 2179.9,-310.8 1957.13,-310.8 1957.13,-310.8 1957.13,-310.8 1957.13,-320.69 1957.13,-320.69"/>
<polygon fill="black" stroke="black" points="1953.63,-320.69 1957.13,-330.69 1960.63,-320.69 1953.63,-320.69"/>
</g>
<!-- ValidationDirective -->
<g id="node29" class="node">
<title>ValidationDirective</title>
<polygon fill="#ffffb3" stroke="black" points="1859.68,-290.8 1732.32,-290.8 1732.32,-254.8 1859.68,-254.8 1859.68,-290.8"/>
<text text-anchor="middle" x="1796" y="-268.6" font-family="Times,serif" font-size="14.00">ValidationDirective</text>
</g>
<!-- ValidationDirective&#45;&gt;ValidationModule -->
<g id="edge35" class="edge">
<title>ValidationDirective&#45;&gt;ValidationModule</title>
<path fill="none" stroke="black" d="M1786.37,-290.81C1786.37,-290.81 1786.37,-320.65 1786.37,-320.65"/>
<polygon fill="black" stroke="black" points="1782.87,-320.65 1786.37,-330.65 1789.87,-320.65 1782.87,-320.65"/>
</g>
<!-- ValidationErrorPipe -->
<g id="node30" class="node">
<title>ValidationErrorPipe</title>
<polygon fill="#ffffb3" stroke="black" points="1714.52,-290.8 1585.48,-290.8 1585.48,-254.8 1714.52,-254.8 1714.52,-290.8"/>
<text text-anchor="middle" x="1650" y="-268.6" font-family="Times,serif" font-size="14.00">ValidationErrorPipe</text>
</g>
<!-- ValidationErrorPipe&#45;&gt;ValidationModule -->
<g id="edge36" class="edge">
<title>ValidationErrorPipe&#45;&gt;ValidationModule</title>
<path fill="none" stroke="black" d="M1714.64,-272.8C1720.54,-272.8 1724.36,-272.8 1724.36,-272.8 1724.36,-272.8 1724.36,-320.79 1724.36,-320.79"/>
<polygon fill="black" stroke="black" points="1720.86,-320.79 1724.36,-330.79 1727.86,-320.79 1720.86,-320.79"/>
</g>
<!-- ValidationMessageComponent -->
<g id="node31" class="node">
<title>ValidationMessageComponent</title>
<polygon fill="#ffffb3" stroke="black" points="1567.91,-290.8 1378.09,-290.8 1378.09,-254.8 1567.91,-254.8 1567.91,-290.8"/>
<text text-anchor="middle" x="1473" y="-268.6" font-family="Times,serif" font-size="14.00">ValidationMessageComponent</text>
</g>
<!-- ValidationMessageComponent&#45;&gt;ValidationModule -->
<g id="edge37" class="edge">
<title>ValidationMessageComponent&#45;&gt;ValidationModule</title>
<path fill="none" stroke="black" d="M1556.62,-290.97C1556.62,-309.89 1556.62,-336.8 1556.62,-336.8 1556.62,-336.8 1711.75,-336.8 1711.75,-336.8"/>
<polygon fill="black" stroke="black" points="1711.75,-340.3 1721.75,-336.8 1711.75,-333.3 1711.75,-340.3"/>
</g>
<!-- ValidationService -->
<g id="node35" class="node">
<title>ValidationService</title>
<ellipse fill="#fdb462" stroke="black" cx="757" cy="-272.8" rx="80.51" ry="18"/>
<text text-anchor="middle" x="757" y="-268.6" font-family="Times,serif" font-size="14.00">ValidationService</text>
</g>
<!-- ValidationService&#45;&gt;ValidationModule -->
<g id="edge44" class="edge">
<title>ValidationService&#45;&gt;ValidationModule</title>
<path fill="none" stroke="black" d="M784.35,-289.8C784.35,-314.34 784.35,-356.8 784.35,-356.8 784.35,-356.8 1711.64,-356.8 1711.64,-356.8"/>
<polygon fill="black" stroke="black" points="1711.64,-360.3 1721.64,-356.8 1711.64,-353.3 1711.64,-360.3"/>
</g>
</g>
</svg>
