<?xml version="1.0" encoding="UTF-8" standalone="no"?>
<!DOCTYPE svg PUBLIC "-//W3C//DTD SVG 1.1//EN"
 "http://www.w3.org/Graphics/SVG/1.1/DTD/svg11.dtd">
<!-- Generated by graphviz version 2.47.3 (20210619.1520)
 -->
<!-- Title: dependencies Pages: 1 -->
<svg width="6610pt" height="538pt"
 viewBox="0.00 0.00 6610.00 537.80" xmlns="http://www.w3.org/2000/svg" xmlns:xlink="http://www.w3.org/1999/xlink">
<g id="graph0" class="graph" transform="scale(1 1) rotate(0) translate(4 533.8)">
<title>dependencies</title>
<polygon fill="white" stroke="transparent" points="-4,4 -4,-533.8 6606,-533.8 6606,4 -4,4"/>
<text text-anchor="middle" x="3301" y="-8.2" font-family="sans-serif" font-size="14.00">dependencies</text>
<g id="clust1" class="cluster">
<title>cluster_AppUtilsModule</title>
<polygon fill="none" stroke="black" stroke-dasharray="1,5" points="4105,-32.8 4105,-312.8 4303,-312.8 4303,-32.8 4105,-32.8"/>
</g>
<g id="clust3" class="cluster">
<title>cluster_AppUtilsModule_imports</title>
<polygon fill="none" stroke="black" points="4113,-40.8 4113,-236.8 4263,-236.8 4263,-40.8 4113,-40.8"/>
</g>
<g id="clust13" class="cluster">
<title>cluster_IntlModule</title>
<polygon fill="none" stroke="black" stroke-dasharray="1,5" points="3727,-32.8 3727,-100.8 4097,-100.8 4097,-32.8 3727,-32.8"/>
</g>
<g id="clust14" class="cluster">
<title>cluster_IntlModule_declarations</title>
<polygon fill="none" stroke="black" points="3983,-40.8 3983,-92.8 4089,-92.8 4089,-40.8 3983,-40.8"/>
</g>
<g id="clust17" class="cluster">
<title>cluster_IntlModule_exports</title>
<polygon fill="none" stroke="black" points="3865,-40.8 3865,-92.8 3975,-92.8 3975,-40.8 3865,-40.8"/>
</g>
<g id="clust19" class="cluster">
<title>cluster_IntlModule_providers</title>
<polygon fill="none" stroke="black" points="3735,-40.8 3735,-92.8 3857,-92.8 3857,-40.8 3735,-40.8"/>
</g>
<g id="clust20" class="cluster">
<title>cluster_LoadComponentModule</title>
<polygon fill="none" stroke="black" stroke-dasharray="1,5" points="6166,-32.8 6166,-244.8 6594,-244.8 6594,-32.8 6166,-32.8"/>
</g>
<g id="clust21" class="cluster">
<title>cluster_LoadComponentModule_declarations</title>
<polygon fill="none" stroke="black" points="6408,-40.8 6408,-92.8 6586,-92.8 6586,-40.8 6408,-40.8"/>
</g>
<g id="clust24" class="cluster">
<title>cluster_LoadComponentModule_exports</title>
<polygon fill="none" stroke="black" points="6196,-184.8 6196,-236.8 6378,-236.8 6378,-184.8 6196,-184.8"/>
</g>
<g id="clust26" class="cluster">
<title>cluster_LoadComponentModule_providers</title>
<polygon fill="none" stroke="black" points="6174,-40.8 6174,-92.8 6400,-92.8 6400,-40.8 6174,-40.8"/>
</g>
<g id="clust27" class="cluster">
<title>cluster_LoginModule</title>
<polygon fill="none" stroke="black" stroke-dasharray="1,5" points="4355,-328.8 4355,-521.8 6068,-521.8 6068,-328.8 4355,-328.8"/>
</g>
<g id="clust28" class="cluster">
<title>cluster_LoginModule_declarations</title>
<polygon fill="none" stroke="black" points="5990,-404.8 5990,-456.8 6060,-456.8 6060,-404.8 5990,-404.8"/>
</g>
<g id="clust30" class="cluster">
<title>cluster_LoginModule_imports</title>
<polygon fill="none" stroke="black" points="5702,-336.8 5702,-456.8 5982,-456.8 5982,-336.8 5702,-336.8"/>
</g>
<g id="clust33" class="cluster">
<title>cluster_LoginModule_providers</title>
<polygon fill="none" stroke="black" points="4363,-404.8 4363,-456.8 5694,-456.8 5694,-404.8 4363,-404.8"/>
</g>
<g id="clust34" class="cluster">
<title>cluster_ModalModule</title>
<polygon fill="none" stroke="black" stroke-dasharray="1,5" points="4022,-328.8 4022,-396.8 4347,-396.8 4347,-328.8 4022,-328.8"/>
</g>
<g id="clust35" class="cluster">
<title>cluster_ModalModule_declarations</title>
<polygon fill="none" stroke="black" points="4184,-336.8 4184,-388.8 4339,-388.8 4339,-336.8 4184,-336.8"/>
</g>
<g id="clust41" class="cluster">
<title>cluster_ModalModule_providers</title>
<polygon fill="none" stroke="black" points="4030,-336.8 4030,-388.8 4176,-388.8 4176,-336.8 4030,-336.8"/>
</g>
<g id="clust42" class="cluster">
<title>cluster_NotificationModule</title>
<polygon fill="none" stroke="black" stroke-dasharray="1,5" points="5578,-252.8 5578,-320.8 6016,-320.8 6016,-252.8 5578,-252.8"/>
</g>
<g id="clust47" class="cluster">
<title>cluster_NotificationModule_providers</title>
<polygon fill="none" stroke="black" points="5586,-260.8 5586,-312.8 6008,-312.8 6008,-260.8 5586,-260.8"/>
</g>
<g id="clust48" class="cluster">
<title>cluster_ValidationModule</title>
<polygon fill="none" stroke="black" stroke-dasharray="1,5" points="4326,-252.8 4326,-320.8 5542,-320.8 5542,-252.8 4326,-252.8"/>
</g>
<g id="clust49" class="cluster">
<title>cluster_ValidationModule_declarations</title>
<polygon fill="none" stroke="black" points="5036,-260.8 5036,-312.8 5534,-312.8 5534,-260.8 5036,-260.8"/>
</g>
<g id="clust54" class="cluster">
<title>cluster_ValidationModule_exports</title>
<polygon fill="none" stroke="black" points="4520,-260.8 4520,-312.8 5028,-312.8 5028,-260.8 4520,-260.8"/>
</g>
<g id="clust56" class="cluster">
<title>cluster_ValidationModule_providers</title>
<polygon fill="none" stroke="black" points="4334,-260.8 4334,-312.8 4512,-312.8 4512,-260.8 4334,-260.8"/>
</g>
<g id="clust57" class="cluster">
<title>cluster_WebServicesModule</title>
<polygon fill="none" stroke="black" stroke-dasharray="1,5" points="8,-108.8 8,-176.8 4097,-176.8 4097,-108.8 8,-108.8"/>
</g>
<g id="clust62" class="cluster">
<title>cluster_WebServicesModule_providers</title>
<polygon fill="none" stroke="black" points="16,-116.8 16,-168.8 4089,-168.8 4089,-116.8 16,-116.8"/>
</g>
<!-- BaseModule -->
<g id="node1" class="node">
<title>BaseModule</title>
<polygon fill="#8dd3c7" stroke="black" points="4255.26,-84.8 4252.26,-88.8 4231.26,-88.8 4228.26,-84.8 4168.74,-84.8 4168.74,-48.8 4255.26,-48.8 4255.26,-84.8"/>
<text text-anchor="middle" x="4212" y="-62.6" font-family="Times,serif" font-size="14.00">BaseModule</text>
</g>
<!-- IntlModule -->
<g id="node2" class="node">
<title>IntlModule</title>
<polygon fill="#8dd3c7" stroke="black" points="4255.49,-160.8 4252.49,-164.8 4231.49,-164.8 4228.49,-160.8 4176.51,-160.8 4176.51,-124.8 4255.49,-124.8 4255.49,-160.8"/>
<text text-anchor="middle" x="4216" y="-138.6" font-family="Times,serif" font-size="14.00">IntlModule</text>
</g>
<!-- BaseModule&#45;&gt;IntlModule -->
<g id="edge5" class="edge">
<title>BaseModule&#45;&gt;IntlModule</title>
<path fill="none" stroke="black" d="M4235.66,-84.81C4235.66,-84.81 4235.66,-114.65 4235.66,-114.65"/>
<polygon fill="black" stroke="black" points="4232.16,-114.65 4235.66,-124.65 4239.16,-114.65 4232.16,-114.65"/>
</g>
<!-- WebServicesModule -->
<g id="node3" class="node">
<title>WebServicesModule</title>
<polygon fill="#8dd3c7" stroke="black" points="4254.9,-228.8 4251.9,-232.8 4230.9,-232.8 4227.9,-228.8 4121.1,-228.8 4121.1,-192.8 4254.9,-192.8 4254.9,-228.8"/>
<text text-anchor="middle" x="4188" y="-206.6" font-family="Times,serif" font-size="14.00">WebServicesModule</text>
</g>
<!-- BaseModule&#45;&gt;WebServicesModule -->
<g id="edge45" class="edge">
<title>BaseModule&#45;&gt;WebServicesModule</title>
<path fill="none" stroke="black" d="M4172.56,-85.04C4172.56,-85.04 4172.56,-182.71 4172.56,-182.71"/>
<polygon fill="black" stroke="black" points="4169.06,-182.71 4172.56,-192.71 4176.06,-182.71 4169.06,-182.71"/>
</g>
<!-- AppUtilsModule -->
<g id="node4" class="node">
<title>AppUtilsModule</title>
<polygon fill="#8dd3c7" stroke="black" points="4280.38,-304.8 4277.38,-308.8 4256.38,-308.8 4253.38,-304.8 4169.62,-304.8 4169.62,-268.8 4280.38,-268.8 4280.38,-304.8"/>
<text text-anchor="middle" x="4225" y="-282.6" font-family="Times,serif" font-size="14.00">AppUtilsModule</text>
</g>
<!-- BaseModule&#45;&gt;AppUtilsModule -->
<g id="edge1" class="edge">
<title>BaseModule&#45;&gt;AppUtilsModule</title>
<path fill="none" stroke="black" d="M4255.38,-78.8C4264.86,-78.8 4272.13,-78.8 4272.13,-78.8 4272.13,-78.8 4272.13,-258.71 4272.13,-258.71"/>
<polygon fill="black" stroke="black" points="4268.63,-258.71 4272.13,-268.71 4275.63,-258.71 4268.63,-258.71"/>
</g>
<!-- LoadComponentModule -->
<g id="node9" class="node">
<title>LoadComponentModule</title>
<polygon fill="#8dd3c7" stroke="black" points="6363.65,-160.8 6360.65,-164.8 6339.65,-164.8 6336.65,-160.8 6210.35,-160.8 6210.35,-124.8 6363.65,-124.8 6363.65,-160.8"/>
<text text-anchor="middle" x="6287" y="-138.6" font-family="Times,serif" font-size="14.00">LoadComponentModule</text>
</g>
<!-- BaseModule&#45;&gt;LoadComponentModule -->
<g id="edge9" class="edge">
<title>BaseModule&#45;&gt;LoadComponentModule</title>
<path fill="none" stroke="black" d="M4255.53,-66.8C4292.83,-66.8 4340.58,-66.8 4340.58,-66.8 4340.58,-66.8 4340.58,-130.8 4340.58,-130.8 4340.58,-130.8 6200.1,-130.8 6200.1,-130.8"/>
<polygon fill="black" stroke="black" points="6200.1,-134.3 6210.1,-130.8 6200.1,-127.3 6200.1,-134.3"/>
</g>
<!-- LoginModule -->
<g id="node13" class="node">
<title>LoginModule</title>
<polygon fill="#8dd3c7" stroke="black" points="5352.49,-513.8 5349.49,-517.8 5328.49,-517.8 5325.49,-513.8 5259.51,-513.8 5259.51,-477.8 5352.49,-477.8 5352.49,-513.8"/>
<text text-anchor="middle" x="5306" y="-491.6" font-family="Times,serif" font-size="14.00">LoginModule</text>
</g>
<!-- BaseModule&#45;&gt;LoginModule -->
<g id="edge14" class="edge">
<title>BaseModule&#45;&gt;LoginModule</title>
<path fill="none" stroke="black" d="M4255.32,-72.8C4292.09,-72.8 4338.92,-72.8 4338.92,-72.8 4338.92,-72.8 4338.92,-497.8 4338.92,-497.8 4338.92,-497.8 5249.36,-497.8 5249.36,-497.8"/>
<polygon fill="black" stroke="black" points="5249.36,-501.3 5259.36,-497.8 5249.36,-494.3 5249.36,-501.3"/>
</g>
<!-- ModalModule -->
<g id="node14" class="node">
<title>ModalModule</title>
<polygon fill="#8dd3c7" stroke="black" points="5806.1,-448.8 5803.1,-452.8 5782.1,-452.8 5779.1,-448.8 5709.9,-448.8 5709.9,-412.8 5806.1,-412.8 5806.1,-448.8"/>
<text text-anchor="middle" x="5758" y="-426.6" font-family="Times,serif" font-size="14.00">ModalModule</text>
</g>
<!-- BaseModule&#45;&gt;ModalModule -->
<g id="edge29" class="edge">
<title>BaseModule&#45;&gt;ModalModule</title>
<path fill="none" stroke="black" d="M4255.39,-60.8C4339.61,-60.8 4517.08,-60.8 4517.08,-60.8 4517.08,-60.8 4517.08,-387.8 4517.08,-387.8 4517.08,-387.8 5774.02,-387.8 5774.02,-387.8 5774.02,-387.8 5774.02,-402.31 5774.02,-402.31"/>
<polygon fill="black" stroke="black" points="5770.52,-402.31 5774.02,-412.31 5777.52,-402.31 5770.52,-402.31"/>
</g>
<!-- ValidationModule -->
<g id="node16" class="node">
<title>ValidationModule</title>
<polygon fill="#8dd3c7" stroke="black" points="5828.15,-380.8 5825.15,-384.8 5804.15,-384.8 5801.15,-380.8 5709.85,-380.8 5709.85,-344.8 5828.15,-344.8 5828.15,-380.8"/>
<text text-anchor="middle" x="5769" y="-358.6" font-family="Times,serif" font-size="14.00">ValidationModule</text>
</g>
<!-- BaseModule&#45;&gt;ValidationModule -->
<g id="edge39" class="edge">
<title>BaseModule&#45;&gt;ValidationModule</title>
<path fill="none" stroke="black" d="M4255.67,-54.8C4512.37,-54.8 5813.66,-54.8 5813.66,-54.8 5813.66,-54.8 5813.66,-334.46 5813.66,-334.46"/>
<polygon fill="black" stroke="black" points="5810.16,-334.46 5813.66,-344.46 5817.16,-334.46 5810.16,-334.46"/>
</g>
<!-- IntlModule&#45;&gt;WebServicesModule -->
<g id="edge46" class="edge">
<title>IntlModule&#45;&gt;WebServicesModule</title>
<path fill="none" stroke="black" d="M4215.6,-161.02C4215.6,-161.02 4215.6,-182.53 4215.6,-182.53"/>
<polygon fill="black" stroke="black" points="4212.1,-182.53 4215.6,-192.53 4219.1,-182.53 4212.1,-182.53"/>
</g>
<!-- IntlModule&#45;&gt;AppUtilsModule -->
<g id="edge2" class="edge">
<title>IntlModule&#45;&gt;AppUtilsModule</title>
<path fill="none" stroke="black" d="M4255.92,-154.8C4260.63,-154.8 4263.81,-154.8 4263.81,-154.8 4263.81,-154.8 4263.81,-258.72 4263.81,-258.72"/>
<polygon fill="black" stroke="black" points="4260.31,-258.72 4263.81,-268.72 4267.31,-258.72 4260.31,-258.72"/>
</g>
<!-- MessagePipe  -->
<g id="node6" class="node">
<title>MessagePipe </title>
<polygon fill="#fb8072" stroke="black" points="3966.87,-84.8 3873.13,-84.8 3873.13,-48.8 3966.87,-48.8 3966.87,-84.8"/>
<text text-anchor="middle" x="3920" y="-62.6" font-family="Times,serif" font-size="14.00">MessagePipe </text>
</g>
<!-- IntlModule&#45;&gt;MessagePipe  -->
<g id="edge6" class="edge">
<title>IntlModule&#45;&gt;MessagePipe </title>
<path fill="none" stroke="black" stroke-dasharray="5,2" d="M4215.94,-124.65C4215.94,-112.53 4215.94,-98.8 4215.94,-98.8 4215.94,-98.8 3920,-98.8 3920,-98.8 3920,-98.8 3920,-95.04 3920,-95.04"/>
<polygon fill="black" stroke="black" points="3923.5,-95.04 3920,-85.04 3916.5,-95.04 3923.5,-95.04"/>
</g>
<!-- IntlModule&#45;&gt;LoginModule -->
<g id="edge15" class="edge">
<title>IntlModule&#45;&gt;LoginModule</title>
<path fill="none" stroke="black" d="M4255.49,-148.8C4290.33,-148.8 4335.6,-148.8 4335.6,-148.8 4335.6,-148.8 4335.6,-501.8 4335.6,-501.8 4335.6,-501.8 5249.2,-501.8 5249.2,-501.8"/>
<polygon fill="black" stroke="black" points="5249.2,-505.3 5259.2,-501.8 5249.2,-498.3 5249.2,-505.3"/>
</g>
<!-- IntlModule&#45;&gt;ModalModule -->
<g id="edge30" class="edge">
<title>IntlModule&#45;&gt;ModalModule</title>
<path fill="none" stroke="black" d="M4255.7,-142.8C4291.07,-142.8 4337.26,-142.8 4337.26,-142.8 4337.26,-142.8 4337.26,-393.8 4337.26,-393.8 4337.26,-393.8 5758,-393.8 5758,-393.8 5758,-393.8 5758,-402.73 5758,-402.73"/>
<polygon fill="black" stroke="black" points="5754.5,-402.73 5758,-412.73 5761.5,-402.73 5754.5,-402.73"/>
</g>
<!-- IntlModule&#45;&gt;ValidationModule -->
<g id="edge40" class="edge">
<title>IntlModule&#45;&gt;ValidationModule</title>
<path fill="none" stroke="black" d="M4255.74,-136.8C4501.87,-136.8 5807.74,-136.8 5807.74,-136.8 5807.74,-136.8 5807.74,-334.69 5807.74,-334.69"/>
<polygon fill="black" stroke="black" points="5804.24,-334.69 5807.74,-344.69 5811.24,-334.69 5804.24,-334.69"/>
</g>
<!-- WebServicesModule&#45;&gt;AppUtilsModule -->
<g id="edge3" class="edge">
<title>WebServicesModule&#45;&gt;AppUtilsModule</title>
<path fill="none" stroke="black" d="M4212.13,-228.81C4212.13,-228.81 4212.13,-258.65 4212.13,-258.65"/>
<polygon fill="black" stroke="black" points="4208.63,-258.65 4212.13,-268.65 4215.63,-258.65 4208.63,-258.65"/>
</g>
<!-- WebServicesModule&#45;&gt;LoginModule -->
<g id="edge19" class="edge">
<title>WebServicesModule&#45;&gt;LoginModule</title>
<path fill="none" stroke="black" d="M4254.99,-210.8C4293.35,-210.8 4333.94,-210.8 4333.94,-210.8 4333.94,-210.8 4333.94,-505.8 4333.94,-505.8 4333.94,-505.8 5249.44,-505.8 5249.44,-505.8"/>
<polygon fill="black" stroke="black" points="5249.44,-509.3 5259.44,-505.8 5249.44,-502.3 5249.44,-509.3"/>
</g>
<!-- AppUtilsModule&#45;&gt;LoginModule -->
<g id="edge13" class="edge">
<title>AppUtilsModule&#45;&gt;LoginModule</title>
<path fill="none" stroke="black" d="M4264.55,-305.05C4264.55,-358.31 4264.55,-509.8 4264.55,-509.8 4264.55,-509.8 5249.23,-509.8 5249.23,-509.8"/>
<polygon fill="black" stroke="black" points="5249.23,-513.3 5259.23,-509.8 5249.23,-506.3 5249.23,-513.3"/>
</g>
<!-- AppUtilsModule&#45;&gt;ValidationModule -->
<g id="edge38" class="edge">
<title>AppUtilsModule&#45;&gt;ValidationModule</title>
<path fill="none" stroke="black" d="M4280.52,-286.8C4306.7,-286.8 4332.27,-286.8 4332.27,-286.8 4332.27,-286.8 4332.27,-373.8 4332.27,-373.8 4332.27,-373.8 5699.55,-373.8 5699.55,-373.8"/>
<polygon fill="black" stroke="black" points="5699.55,-377.3 5709.55,-373.8 5699.55,-370.3 5699.55,-377.3"/>
</g>
<!-- MessagePipe -->
<g id="node5" class="node">
<title>MessagePipe</title>
<polygon fill="#ffffb3" stroke="black" points="4080.87,-84.8 3991.13,-84.8 3991.13,-48.8 4080.87,-48.8 4080.87,-84.8"/>
<text text-anchor="middle" x="4036" y="-62.6" font-family="Times,serif" font-size="14.00">MessagePipe</text>
</g>
<!-- MessagePipe&#45;&gt;IntlModule -->
<g id="edge4" class="edge">
<title>MessagePipe&#45;&gt;IntlModule</title>
<path fill="none" stroke="black" d="M4080.95,-66.8C4110.96,-66.8 4144.96,-66.8 4144.96,-66.8 4144.96,-66.8 4144.96,-142.8 4144.96,-142.8 4144.96,-142.8 4166.33,-142.8 4166.33,-142.8"/>
<polygon fill="black" stroke="black" points="4166.33,-146.3 4176.33,-142.8 4166.33,-139.3 4166.33,-146.3"/>
</g>
<!-- IntlService -->
<g id="node7" class="node">
<title>IntlService</title>
<ellipse fill="#fdb462" stroke="black" cx="3796" cy="-66.8" rx="53.31" ry="18"/>
<text text-anchor="middle" x="3796" y="-62.6" font-family="Times,serif" font-size="14.00">IntlService</text>
</g>
<!-- IntlService&#45;&gt;IntlModule -->
<g id="edge7" class="edge">
<title>IntlService&#45;&gt;IntlModule</title>
<path fill="none" stroke="black" d="M3796,-84.84C3796,-97.36 3796,-111.8 3796,-111.8 3796,-111.8 4196.22,-111.8 4196.22,-111.8 4196.22,-111.8 4196.22,-114.77 4196.22,-114.77"/>
<polygon fill="black" stroke="black" points="4192.72,-114.77 4196.22,-124.77 4199.72,-114.77 4192.72,-114.77"/>
</g>
<!-- LoadComponentDirective -->
<g id="node8" class="node">
<title>LoadComponentDirective</title>
<polygon fill="#ffffb3" stroke="black" points="6578.18,-84.8 6415.82,-84.8 6415.82,-48.8 6578.18,-48.8 6578.18,-84.8"/>
<text text-anchor="middle" x="6497" y="-62.6" font-family="Times,serif" font-size="14.00">LoadComponentDirective</text>
</g>
<!-- LoadComponentDirective&#45;&gt;LoadComponentModule -->
<g id="edge8" class="edge">
<title>LoadComponentDirective&#45;&gt;LoadComponentModule</title>
<path fill="none" stroke="black" d="M6497,-84.81C6497,-107.29 6497,-142.8 6497,-142.8 6497,-142.8 6373.71,-142.8 6373.71,-142.8"/>
<polygon fill="black" stroke="black" points="6373.71,-139.3 6363.71,-142.8 6373.71,-146.3 6373.71,-139.3"/>
</g>
<!-- LoadComponentDirective  -->
<g id="node10" class="node">
<title>LoadComponentDirective </title>
<polygon fill="#fb8072" stroke="black" points="6369.68,-228.8 6204.32,-228.8 6204.32,-192.8 6369.68,-192.8 6369.68,-228.8"/>
<text text-anchor="middle" x="6287" y="-206.6" font-family="Times,serif" font-size="14.00">LoadComponentDirective </text>
</g>
<!-- LoadComponentModule&#45;&gt;LoadComponentDirective  -->
<g id="edge10" class="edge">
<title>LoadComponentModule&#45;&gt;LoadComponentDirective </title>
<path fill="none" stroke="black" stroke-dasharray="5,2" d="M6287,-161.02C6287,-161.02 6287,-182.53 6287,-182.53"/>
<polygon fill="black" stroke="black" points="6283.5,-182.53 6287,-192.53 6290.5,-182.53 6283.5,-182.53"/>
</g>
<!-- LoadComponentService -->
<g id="node11" class="node">
<title>LoadComponentService</title>
<ellipse fill="#fdb462" stroke="black" cx="6287" cy="-66.8" rx="104.8" ry="18"/>
<text text-anchor="middle" x="6287" y="-62.6" font-family="Times,serif" font-size="14.00">LoadComponentService</text>
</g>
<!-- LoadComponentService&#45;&gt;LoadComponentModule -->
<g id="edge11" class="edge">
<title>LoadComponentService&#45;&gt;LoadComponentModule</title>
<path fill="none" stroke="black" d="M6287,-84.81C6287,-84.81 6287,-114.65 6287,-114.65"/>
<polygon fill="black" stroke="black" points="6283.5,-114.65 6287,-124.65 6290.5,-114.65 6283.5,-114.65"/>
</g>
<!-- Login -->
<g id="node12" class="node">
<title>Login</title>
<polygon fill="#ffffb3" stroke="black" points="6052,-448.8 5998,-448.8 5998,-412.8 6052,-412.8 6052,-448.8"/>
<text text-anchor="middle" x="6025" y="-426.6" font-family="Times,serif" font-size="14.00">Login</text>
</g>
<!-- Login&#45;&gt;LoginModule -->
<g id="edge12" class="edge">
<title>Login&#45;&gt;LoginModule</title>
<path fill="none" stroke="black" d="M6025,-448.89C6025,-471.93 6025,-508.8 6025,-508.8 6025,-508.8 5362.62,-508.8 5362.62,-508.8"/>
<polygon fill="black" stroke="black" points="5362.62,-505.3 5352.62,-508.8 5362.62,-512.3 5362.62,-505.3"/>
</g>
<!-- ModalModule&#45;&gt;LoginModule -->
<g id="edge16" class="edge">
<title>ModalModule&#45;&gt;LoginModule</title>
<path fill="none" stroke="black" d="M5758,-449.02C5758,-467.63 5758,-493.8 5758,-493.8 5758,-493.8 5362.67,-493.8 5362.67,-493.8"/>
<polygon fill="black" stroke="black" points="5362.67,-490.3 5352.67,-493.8 5362.67,-497.3 5362.67,-490.3"/>
</g>
<!-- NotificationModule -->
<g id="node15" class="node">
<title>NotificationModule</title>
<polygon fill="#8dd3c7" stroke="black" points="5973.7,-380.8 5970.7,-384.8 5949.7,-384.8 5946.7,-380.8 5846.3,-380.8 5846.3,-344.8 5973.7,-344.8 5973.7,-380.8"/>
<text text-anchor="middle" x="5910" y="-358.6" font-family="Times,serif" font-size="14.00">NotificationModule</text>
</g>
<!-- NotificationModule&#45;&gt;LoginModule -->
<g id="edge17" class="edge">
<title>NotificationModule&#45;&gt;LoginModule</title>
<path fill="none" stroke="black" d="M5910,-380.94C5910,-419.03 5910,-503.8 5910,-503.8 5910,-503.8 5362.64,-503.8 5362.64,-503.8"/>
<polygon fill="black" stroke="black" points="5362.64,-500.3 5352.64,-503.8 5362.64,-507.3 5362.64,-500.3"/>
</g>
<!-- ValidationModule&#45;&gt;LoginModule -->
<g id="edge18" class="edge">
<title>ValidationModule&#45;&gt;LoginModule</title>
<path fill="none" stroke="black" d="M5817.19,-380.86C5817.19,-417.85 5817.19,-498.8 5817.19,-498.8 5817.19,-498.8 5362.72,-498.8 5362.72,-498.8"/>
<polygon fill="black" stroke="black" points="5362.72,-495.3 5352.72,-498.8 5362.72,-502.3 5362.72,-495.3"/>
</g>
<!-- ValidationModule&#45;&gt;ModalModule -->
<g id="edge31" class="edge">
<title>ValidationModule&#45;&gt;ModalModule</title>
<path fill="none" stroke="black" d="M5790.03,-381.02C5790.03,-381.02 5790.03,-402.53 5790.03,-402.53"/>
<polygon fill="black" stroke="black" points="5786.53,-402.53 5790.03,-412.53 5793.53,-402.53 5786.53,-402.53"/>
</g>
<!-- ValidationDirective  -->
<g id="node32" class="node">
<title>ValidationDirective </title>
<polygon fill="#fb8072" stroke="black" points="5020.18,-304.8 4889.82,-304.8 4889.82,-268.8 5020.18,-268.8 5020.18,-304.8"/>
<text text-anchor="middle" x="4955" y="-282.6" font-family="Times,serif" font-size="14.00">ValidationDirective </text>
</g>
<!-- ValidationModule&#45;&gt;ValidationDirective  -->
<g id="edge41" class="edge">
<title>ValidationModule&#45;&gt;ValidationDirective </title>
<path fill="none" stroke="black" stroke-dasharray="5,2" d="M5709.67,-359.8C5529.45,-359.8 5000.68,-359.8 5000.68,-359.8 5000.68,-359.8 5000.68,-314.84 5000.68,-314.84"/>
<polygon fill="black" stroke="black" points="5004.18,-314.84 5000.68,-304.84 4997.18,-314.84 5004.18,-314.84"/>
</g>
<!-- ValidationErrorPipe  -->
<g id="node33" class="node">
<title>ValidationErrorPipe </title>
<polygon fill="#fb8072" stroke="black" points="4871.52,-304.8 4738.48,-304.8 4738.48,-268.8 4871.52,-268.8 4871.52,-304.8"/>
<text text-anchor="middle" x="4805" y="-282.6" font-family="Times,serif" font-size="14.00">ValidationErrorPipe </text>
</g>
<!-- ValidationModule&#45;&gt;ValidationErrorPipe  -->
<g id="edge42" class="edge">
<title>ValidationModule&#45;&gt;ValidationErrorPipe </title>
<path fill="none" stroke="black" stroke-dasharray="5,2" d="M5709.79,-362.8C5500.05,-362.8 4805,-362.8 4805,-362.8 4805,-362.8 4805,-314.81 4805,-314.81"/>
<polygon fill="black" stroke="black" points="4808.5,-314.81 4805,-304.81 4801.5,-314.81 4808.5,-314.81"/>
</g>
<!-- ValidationMessageComponent  -->
<g id="node34" class="node">
<title>ValidationMessageComponent </title>
<polygon fill="#fb8072" stroke="black" points="4720.41,-304.8 4527.59,-304.8 4527.59,-268.8 4720.41,-268.8 4720.41,-304.8"/>
<text text-anchor="middle" x="4624" y="-282.6" font-family="Times,serif" font-size="14.00">ValidationMessageComponent </text>
</g>
<!-- ValidationModule&#45;&gt;ValidationMessageComponent  -->
<g id="edge43" class="edge">
<title>ValidationModule&#45;&gt;ValidationMessageComponent </title>
<path fill="none" stroke="black" stroke-dasharray="5,2" d="M5709.8,-366.8C5486.82,-366.8 4710.16,-366.8 4710.16,-366.8 4710.16,-366.8 4710.16,-314.95 4710.16,-314.95"/>
<polygon fill="black" stroke="black" points="4713.66,-314.95 4710.16,-304.95 4706.66,-314.95 4713.66,-314.95"/>
</g>
<!-- AuthenticationOauthService -->
<g id="node17" class="node">
<title>AuthenticationOauthService</title>
<ellipse fill="#fdb462" stroke="black" cx="5102" cy="-430.8" rx="120.97" ry="18"/>
<text text-anchor="middle" x="5102" y="-426.6" font-family="Times,serif" font-size="14.00">AuthenticationOauthService</text>
</g>
<!-- AuthenticationOauthService&#45;&gt;LoginModule -->
<g id="edge20" class="edge">
<title>AuthenticationOauthService&#45;&gt;LoginModule</title>
<path fill="none" stroke="black" d="M5102,-448.92C5102,-463.58 5102,-481.8 5102,-481.8 5102,-481.8 5249.45,-481.8 5249.45,-481.8"/>
<polygon fill="black" stroke="black" points="5249.45,-485.3 5259.45,-481.8 5249.45,-478.3 5249.45,-485.3"/>
</g>
<!-- AuthenticationPopupService -->
<g id="node18" class="node">
<title>AuthenticationPopupService</title>
<ellipse fill="#fdb462" stroke="black" cx="4841" cy="-430.8" rx="122.13" ry="18"/>
<text text-anchor="middle" x="4841" y="-426.6" font-family="Times,serif" font-size="14.00">AuthenticationPopupService</text>
</g>
<!-- AuthenticationPopupService&#45;&gt;LoginModule -->
<g id="edge21" class="edge">
<title>AuthenticationPopupService&#45;&gt;LoginModule</title>
<path fill="none" stroke="black" d="M4841,-448.81C4841,-464.85 4841,-485.8 4841,-485.8 4841,-485.8 5249.28,-485.8 5249.28,-485.8"/>
<polygon fill="black" stroke="black" points="5249.29,-489.3 5259.28,-485.8 5249.28,-482.3 5249.29,-489.3"/>
</g>
<!-- AuthenticationService -->
<g id="node19" class="node">
<title>AuthenticationService</title>
<ellipse fill="#fdb462" stroke="black" cx="4604" cy="-430.8" rx="97.27" ry="18"/>
<text text-anchor="middle" x="4604" y="-426.6" font-family="Times,serif" font-size="14.00">AuthenticationService</text>
</g>
<!-- AuthenticationService&#45;&gt;LoginModule -->
<g id="edge22" class="edge">
<title>AuthenticationService&#45;&gt;LoginModule</title>
<path fill="none" stroke="black" d="M4604,-448.82C4604,-466.17 4604,-489.8 4604,-489.8 4604,-489.8 5249.4,-489.8 5249.4,-489.8"/>
<polygon fill="black" stroke="black" points="5249.4,-493.3 5259.4,-489.8 5249.4,-486.3 5249.4,-493.3"/>
</g>
<!-- JWTService -->
<g id="node20" class="node">
<title>JWTService</title>
<ellipse fill="#fdb462" stroke="black" cx="4430" cy="-430.8" rx="58.53" ry="18"/>
<text text-anchor="middle" x="4430" y="-426.6" font-family="Times,serif" font-size="14.00">JWTService</text>
</g>
<!-- JWTService&#45;&gt;LoginModule -->
<g id="edge23" class="edge">
<title>JWTService&#45;&gt;LoginModule</title>
<path fill="none" stroke="black" d="M4430,-449.02C4430,-467.63 4430,-493.8 4430,-493.8 4430,-493.8 5249.21,-493.8 5249.21,-493.8"/>
<polygon fill="black" stroke="black" points="5249.21,-497.3 5259.21,-493.8 5249.21,-490.3 5249.21,-497.3"/>
</g>
<!-- LoginInterceptor -->
<g id="node21" class="node">
<title>LoginInterceptor</title>
<ellipse fill="#fdb462" stroke="black" cx="5610" cy="-430.8" rx="76.42" ry="18"/>
<text text-anchor="middle" x="5610" y="-426.6" font-family="Times,serif" font-size="14.00">LoginInterceptor</text>
</g>
<!-- LoginInterceptor&#45;&gt;LoginModule -->
<g id="edge24" class="edge">
<title>LoginInterceptor&#45;&gt;LoginModule</title>
<path fill="none" stroke="black" d="M5610,-448.83C5610,-465.86 5610,-488.8 5610,-488.8 5610,-488.8 5362.5,-488.8 5362.5,-488.8"/>
<polygon fill="black" stroke="black" points="5362.5,-485.3 5352.5,-488.8 5362.5,-492.3 5362.5,-485.3"/>
</g>
<!-- LoginService -->
<g id="node22" class="node">
<title>LoginService</title>
<ellipse fill="#fdb462" stroke="black" cx="5452" cy="-430.8" rx="63.12" ry="18"/>
<text text-anchor="middle" x="5452" y="-426.6" font-family="Times,serif" font-size="14.00">LoginService</text>
</g>
<!-- LoginService&#45;&gt;LoginModule -->
<g id="edge25" class="edge">
<title>LoginService&#45;&gt;LoginModule</title>
<path fill="none" stroke="black" d="M5452,-449.04C5452,-464.37 5452,-483.8 5452,-483.8 5452,-483.8 5362.6,-483.8 5362.6,-483.8"/>
<polygon fill="black" stroke="black" points="5362.6,-480.3 5352.6,-483.8 5362.6,-487.3 5362.6,-480.3"/>
</g>
<!-- TokenService -->
<g id="node23" class="node">
<title>TokenService</title>
<ellipse fill="#fdb462" stroke="black" cx="5306" cy="-430.8" rx="64.83" ry="18"/>
<text text-anchor="middle" x="5306" y="-426.6" font-family="Times,serif" font-size="14.00">TokenService</text>
</g>
<!-- TokenService&#45;&gt;LoginModule -->
<g id="edge26" class="edge">
<title>TokenService&#45;&gt;LoginModule</title>
<path fill="none" stroke="black" d="M5306,-448.91C5306,-448.91 5306,-467.79 5306,-467.79"/>
<polygon fill="black" stroke="black" points="5302.5,-467.79 5306,-477.79 5309.5,-467.79 5302.5,-467.79"/>
</g>
<!-- Confirm -->
<g id="node24" class="node">
<title>Confirm</title>
<polygon fill="#ffffb3" stroke="black" points="4255.94,-380.8 4192.06,-380.8 4192.06,-344.8 4255.94,-344.8 4255.94,-380.8"/>
<text text-anchor="middle" x="4224" y="-358.6" font-family="Times,serif" font-size="14.00">Confirm</text>
</g>
<!-- Confirm&#45;&gt;ModalModule -->
<g id="edge27" class="edge">
<title>Confirm&#45;&gt;ModalModule</title>
<path fill="none" stroke="black" d="M4224,-380.91C4224,-390.7 4224,-400.8 4224,-400.8 4224,-400.8 5741.98,-400.8 5741.98,-400.8 5741.98,-400.8 5741.98,-402.66 5741.98,-402.66"/>
<polygon fill="black" stroke="black" points="5738.48,-402.66 5741.98,-412.66 5745.48,-402.66 5738.48,-402.66"/>
</g>
<!-- Prompt -->
<g id="node25" class="node">
<title>Prompt</title>
<polygon fill="#ffffb3" stroke="black" points="4330.72,-380.8 4273.28,-380.8 4273.28,-344.8 4330.72,-344.8 4330.72,-380.8"/>
<text text-anchor="middle" x="4302" y="-358.6" font-family="Times,serif" font-size="14.00">Prompt</text>
</g>
<!-- Prompt&#45;&gt;ModalModule -->
<g id="edge28" class="edge">
<title>Prompt&#45;&gt;ModalModule</title>
<path fill="none" stroke="black" d="M4330.84,-377.8C4530.39,-377.8 5698.07,-377.8 5698.07,-377.8 5698.07,-377.8 5698.07,-430.8 5698.07,-430.8 5698.07,-430.8 5699.91,-430.8 5699.91,-430.8"/>
<polygon fill="black" stroke="black" points="5699.91,-434.3 5709.91,-430.8 5699.91,-427.3 5699.91,-434.3"/>
</g>
<!-- ModalService -->
<g id="node26" class="node">
<title>ModalService</title>
<ellipse fill="#fdb462" stroke="black" cx="4103" cy="-362.8" rx="65.41" ry="18"/>
<text text-anchor="middle" x="4103" y="-358.6" font-family="Times,serif" font-size="14.00">ModalService</text>
</g>
<!-- ModalService&#45;&gt;ModalModule -->
<g id="edge32" class="edge">
<title>ModalService&#45;&gt;ModalModule</title>
<path fill="none" stroke="black" d="M4103,-380.95C4103,-393.07 4103,-406.8 4103,-406.8 4103,-406.8 5725.97,-406.8 5725.97,-406.8 5725.97,-406.8 5725.97,-407.38 5725.97,-407.38"/>
<polygon fill="black" stroke="black" points="5722.47,-402.61 5725.97,-412.61 5729.47,-402.61 5722.47,-402.61"/>
</g>
<!-- NotificationsInterceptor -->
<g id="node27" class="node">
<title>NotificationsInterceptor</title>
<ellipse fill="#fdb462" stroke="black" cx="5698" cy="-286.8" rx="103.63" ry="18"/>
<text text-anchor="middle" x="5698" y="-282.6" font-family="Times,serif" font-size="14.00">NotificationsInterceptor</text>
</g>
<!-- NotificationsInterceptor&#45;&gt;NotificationModule -->
<g id="edge33" class="edge">
<title>NotificationsInterceptor&#45;&gt;NotificationModule</title>
<path fill="none" stroke="black" d="M5755.74,-301.82C5755.74,-312.44 5755.74,-324.8 5755.74,-324.8 5755.74,-324.8 5888.8,-324.8 5888.8,-324.8 5888.8,-324.8 5888.8,-334.69 5888.8,-334.69"/>
<polygon fill="black" stroke="black" points="5885.3,-334.69 5888.8,-344.69 5892.3,-334.69 5885.3,-334.69"/>
</g>
<!-- NotificationsService -->
<g id="node28" class="node">
<title>NotificationsService</title>
<ellipse fill="#fdb462" stroke="black" cx="5910" cy="-286.8" rx="90.32" ry="18"/>
<text text-anchor="middle" x="5910" y="-282.6" font-family="Times,serif" font-size="14.00">NotificationsService</text>
</g>
<!-- NotificationsService&#45;&gt;NotificationModule -->
<g id="edge34" class="edge">
<title>NotificationsService&#45;&gt;NotificationModule</title>
<path fill="none" stroke="black" d="M5931.2,-304.43C5931.2,-304.43 5931.2,-334.74 5931.2,-334.74"/>
<polygon fill="black" stroke="black" points="5927.7,-334.74 5931.2,-344.74 5934.7,-334.74 5927.7,-334.74"/>
</g>
<!-- ValidationDirective -->
<g id="node29" class="node">
<title>ValidationDirective</title>
<polygon fill="#ffffb3" stroke="black" points="5525.68,-304.8 5398.32,-304.8 5398.32,-268.8 5525.68,-268.8 5525.68,-304.8"/>
<text text-anchor="middle" x="5462" y="-282.6" font-family="Times,serif" font-size="14.00">ValidationDirective</text>
</g>
<!-- ValidationDirective&#45;&gt;ValidationModule -->
<g id="edge35" class="edge">
<title>ValidationDirective&#45;&gt;ValidationModule</title>
<path fill="none" stroke="black" d="M5520.33,-305.07C5520.33,-323.36 5520.33,-348.8 5520.33,-348.8 5520.33,-348.8 5699.75,-348.8 5699.75,-348.8"/>
<polygon fill="black" stroke="black" points="5699.75,-352.3 5709.75,-348.8 5699.75,-345.3 5699.75,-352.3"/>
</g>
<!-- ValidationErrorPipe -->
<g id="node30" class="node">
<title>ValidationErrorPipe</title>
<polygon fill="#ffffb3" stroke="black" points="5380.52,-304.8 5251.48,-304.8 5251.48,-268.8 5380.52,-268.8 5380.52,-304.8"/>
<text text-anchor="middle" x="5316" y="-282.6" font-family="Times,serif" font-size="14.00">ValidationErrorPipe</text>
</g>
<!-- ValidationErrorPipe&#45;&gt;ValidationModule -->
<g id="edge36" class="edge">
<title>ValidationErrorPipe&#45;&gt;ValidationModule</title>
<path fill="none" stroke="black" d="M5375.71,-304.83C5375.71,-324.38 5375.71,-352.8 5375.71,-352.8 5375.71,-352.8 5699.69,-352.8 5699.69,-352.8"/>
<polygon fill="black" stroke="black" points="5699.69,-356.3 5709.69,-352.8 5699.69,-349.3 5699.69,-356.3"/>
</g>
<!-- ValidationMessageComponent -->
<g id="node31" class="node">
<title>ValidationMessageComponent</title>
<polygon fill="#ffffb3" stroke="black" points="5233.91,-304.8 5044.09,-304.8 5044.09,-268.8 5233.91,-268.8 5233.91,-304.8"/>
<text text-anchor="middle" x="5139" y="-282.6" font-family="Times,serif" font-size="14.00">ValidationMessageComponent</text>
</g>
<!-- ValidationMessageComponent&#45;&gt;ValidationModule -->
<g id="edge37" class="edge">
<title>ValidationMessageComponent&#45;&gt;ValidationModule</title>
<path fill="none" stroke="black" d="M5228.34,-304.93C5228.34,-325.37 5228.34,-355.8 5228.34,-355.8 5228.34,-355.8 5699.59,-355.8 5699.59,-355.8"/>
<polygon fill="black" stroke="black" points="5699.59,-359.3 5709.59,-355.8 5699.59,-352.3 5699.59,-359.3"/>
</g>
<!-- ValidationService -->
<g id="node35" class="node">
<title>ValidationService</title>
<ellipse fill="#fdb462" stroke="black" cx="4423" cy="-286.8" rx="80.51" ry="18"/>
<text text-anchor="middle" x="4423" y="-282.6" font-family="Times,serif" font-size="14.00">ValidationService</text>
</g>
<!-- ValidationService&#45;&gt;ValidationModule -->
<g id="edge44" class="edge">
<title>ValidationService&#45;&gt;ValidationModule</title>
<path fill="none" stroke="black" d="M4496.26,-294.55C4496.26,-315.35 4496.26,-370.8 4496.26,-370.8 4496.26,-370.8 5699.74,-370.8 5699.74,-370.8"/>
<polygon fill="black" stroke="black" points="5699.74,-374.3 5709.74,-370.8 5699.74,-367.3 5699.74,-374.3"/>
</g>
<!-- AppWebService -->
<g id="node36" class="node">
<title>AppWebService</title>
<ellipse fill="#fdb462" stroke="black" cx="3543" cy="-142.8" rx="74.7" ry="18"/>
<text text-anchor="middle" x="3543" y="-138.6" font-family="Times,serif" font-size="14.00">AppWebService</text>
</g>
<!-- AppWebService&#45;&gt;WebServicesModule -->
<g id="edge47" class="edge">
<title>AppWebService&#45;&gt;WebServicesModule</title>
<path fill="none" stroke="black" d="M3543,-160.83C3543,-177.2 3543,-198.8 3543,-198.8 3543,-198.8 4111.1,-198.8 4111.1,-198.8"/>
<polygon fill="black" stroke="black" points="4111.1,-202.3 4121.1,-198.8 4111.1,-195.3 4111.1,-202.3"/>
</g>
<!-- AuditWebService -->
<g id="node37" class="node">
<title>AuditWebService</title>
<ellipse fill="#fdb462" stroke="black" cx="3370" cy="-142.8" rx="80.44" ry="18"/>
<text text-anchor="middle" x="3370" y="-138.6" font-family="Times,serif" font-size="14.00">AuditWebService</text>
</g>
<!-- AuditWebService&#45;&gt;WebServicesModule -->
<g id="edge48" class="edge">
<title>AuditWebService&#45;&gt;WebServicesModule</title>
<path fill="none" stroke="black" d="M3370,-160.83C3370,-177.86 3370,-200.8 3370,-200.8 3370,-200.8 4111.06,-200.8 4111.06,-200.8"/>
<polygon fill="black" stroke="black" points="4111.06,-204.3 4121.06,-200.8 4111.06,-197.3 4111.06,-204.3"/>
</g>
<!-- DownloadWebService -->
<g id="node38" class="node">
<title>DownloadWebService</title>
<ellipse fill="#fdb462" stroke="black" cx="3173" cy="-142.8" rx="98.4" ry="18"/>
<text text-anchor="middle" x="3173" y="-138.6" font-family="Times,serif" font-size="14.00">DownloadWebService</text>
</g>
<!-- DownloadWebService&#45;&gt;WebServicesModule -->
<g id="edge49" class="edge">
<title>DownloadWebService&#45;&gt;WebServicesModule</title>
<path fill="none" stroke="black" d="M3173,-160.82C3173,-178.17 3173,-201.8 3173,-201.8 3173,-201.8 4111.01,-201.8 4111.01,-201.8"/>
<polygon fill="black" stroke="black" points="4111.01,-205.3 4121.01,-201.8 4111.01,-198.3 4111.01,-205.3"/>
</g>
<!-- JsonMethodPluginService -->
<g id="node39" class="node">
<title>JsonMethodPluginService</title>
<ellipse fill="#fdb462" stroke="black" cx="2944" cy="-142.8" rx="112.34" ry="18"/>
<text text-anchor="middle" x="2944" y="-138.6" font-family="Times,serif" font-size="14.00">JsonMethodPluginService</text>
</g>
<!-- JsonMethodPluginService&#45;&gt;WebServicesModule -->
<g id="edge50" class="edge">
<title>JsonMethodPluginService&#45;&gt;WebServicesModule</title>
<path fill="none" stroke="black" d="M2944,-161.1C2944,-179.07 2944,-203.8 2944,-203.8 2944,-203.8 4111.12,-203.8 4111.12,-203.8"/>
<polygon fill="black" stroke="black" points="4111.12,-207.3 4121.12,-203.8 4111.12,-200.3 4111.12,-207.3"/>
</g>
<!-- LabelsWebService -->
<g id="node40" class="node">
<title>LabelsWebService</title>
<ellipse fill="#fdb462" stroke="black" cx="2730" cy="-142.8" rx="83.93" ry="18"/>
<text text-anchor="middle" x="2730" y="-138.6" font-family="Times,serif" font-size="14.00">LabelsWebService</text>
</g>
<!-- LabelsWebService&#45;&gt;WebServicesModule -->
<g id="edge51" class="edge">
<title>LabelsWebService&#45;&gt;WebServicesModule</title>
<path fill="none" stroke="black" d="M2730,-161.02C2730,-179.63 2730,-205.8 2730,-205.8 2730,-205.8 4111.08,-205.8 4111.08,-205.8"/>
<polygon fill="black" stroke="black" points="4111.08,-209.3 4121.08,-205.8 4111.08,-202.3 4111.08,-209.3"/>
</g>
<!-- PreviewWebService -->
<g id="node41" class="node">
<title>PreviewWebService</title>
<ellipse fill="#fdb462" stroke="black" cx="2538" cy="-142.8" rx="89.72" ry="18"/>
<text text-anchor="middle" x="2538" y="-138.6" font-family="Times,serif" font-size="14.00">PreviewWebService</text>
</g>
<!-- PreviewWebService&#45;&gt;WebServicesModule -->
<g id="edge52" class="edge">
<title>PreviewWebService&#45;&gt;WebServicesModule</title>
<path fill="none" stroke="black" d="M2538,-160.91C2538,-180.14 2538,-207.8 2538,-207.8 2538,-207.8 4111.27,-207.8 4111.27,-207.8"/>
<polygon fill="black" stroke="black" points="4111.27,-211.3 4121.27,-207.8 4111.27,-204.3 4111.27,-211.3"/>
</g>
<!-- PrincipalWebService -->
<g id="node42" class="node">
<title>PrincipalWebService</title>
<ellipse fill="#fdb462" stroke="black" cx="2337" cy="-142.8" rx="93.17" ry="18"/>
<text text-anchor="middle" x="2337" y="-138.6" font-family="Times,serif" font-size="14.00">PrincipalWebService</text>
</g>
<!-- PrincipalWebService&#45;&gt;WebServicesModule -->
<g id="edge53" class="edge">
<title>PrincipalWebService&#45;&gt;WebServicesModule</title>
<path fill="none" stroke="black" d="M2337,-161.11C2337,-180.95 2337,-209.8 2337,-209.8 2337,-209.8 4111.03,-209.8 4111.03,-209.8"/>
<polygon fill="black" stroke="black" points="4111.03,-213.3 4121.03,-209.8 4111.03,-206.3 4111.03,-213.3"/>
</g>
<!-- QueryExportWebService -->
<g id="node43" class="node">
<title>QueryExportWebService</title>
<ellipse fill="#fdb462" stroke="black" cx="2117" cy="-142.8" rx="108.77" ry="18"/>
<text text-anchor="middle" x="2117" y="-138.6" font-family="Times,serif" font-size="14.00">QueryExportWebService</text>
</g>
<!-- QueryExportWebService&#45;&gt;WebServicesModule -->
<g id="edge54" class="edge">
<title>QueryExportWebService&#45;&gt;WebServicesModule</title>
<path fill="none" stroke="black" d="M2117,-161.02C2117,-181.17 2117,-210.8 2117,-210.8 2117,-210.8 4111.15,-210.8 4111.15,-210.8"/>
<polygon fill="black" stroke="black" points="4111.15,-214.3 4121.15,-210.8 4111.15,-207.3 4111.15,-214.3"/>
</g>
<!-- QueryWebService -->
<g id="node44" class="node">
<title>QueryWebService</title>
<ellipse fill="#fdb462" stroke="black" cx="1908" cy="-142.8" rx="82.2" ry="18"/>
<text text-anchor="middle" x="1908" y="-138.6" font-family="Times,serif" font-size="14.00">QueryWebService</text>
</g>
<!-- QueryWebService&#45;&gt;WebServicesModule -->
<g id="edge55" class="edge">
<title>QueryWebService&#45;&gt;WebServicesModule</title>
<path fill="none" stroke="black" d="M1908,-160.83C1908,-181.57 1908,-212.8 1908,-212.8 1908,-212.8 4111,-212.8 4111,-212.8"/>
<polygon fill="black" stroke="black" points="4111,-216.3 4121,-212.8 4111,-209.3 4111,-216.3"/>
</g>
<!-- RecentQueriesWebService -->
<g id="node45" class="node">
<title>RecentQueriesWebService</title>
<ellipse fill="#fdb462" stroke="black" cx="1693" cy="-142.8" rx="115.12" ry="18"/>
<text text-anchor="middle" x="1693" y="-138.6" font-family="Times,serif" font-size="14.00">RecentQueriesWebService</text>
</g>
<!-- RecentQueriesWebService&#45;&gt;WebServicesModule -->
<g id="edge56" class="edge">
<title>RecentQueriesWebService&#45;&gt;WebServicesModule</title>
<path fill="none" stroke="black" d="M1693,-160.97C1693,-182.3 1693,-214.8 1693,-214.8 1693,-214.8 4111.26,-214.8 4111.26,-214.8"/>
<polygon fill="black" stroke="black" points="4111.26,-218.3 4121.26,-214.8 4111.26,-211.3 4111.26,-218.3"/>
</g>
<!-- RfmWebService -->
<g id="node46" class="node">
<title>RfmWebService</title>
<ellipse fill="#fdb462" stroke="black" cx="1485" cy="-142.8" rx="75.28" ry="18"/>
<text text-anchor="middle" x="1485" y="-138.6" font-family="Times,serif" font-size="14.00">RfmWebService</text>
</g>
<!-- RfmWebService&#45;&gt;WebServicesModule -->
<g id="edge57" class="edge">
<title>RfmWebService&#45;&gt;WebServicesModule</title>
<path fill="none" stroke="black" d="M1485,-161.09C1485,-183.01 1485,-216.8 1485,-216.8 1485,-216.8 4111.18,-216.8 4111.18,-216.8"/>
<polygon fill="black" stroke="black" points="4111.18,-220.3 4121.18,-216.8 4111.18,-213.3 4111.18,-220.3"/>
</g>
<!-- SimilarDocumentsWebService -->
<g id="node47" class="node">
<title>SimilarDocumentsWebService</title>
<ellipse fill="#fdb462" stroke="black" cx="1261" cy="-142.8" rx="130.77" ry="18"/>
<text text-anchor="middle" x="1261" y="-138.6" font-family="Times,serif" font-size="14.00">SimilarDocumentsWebService</text>
</g>
<!-- SimilarDocumentsWebService&#45;&gt;WebServicesModule -->
<g id="edge58" class="edge">
<title>SimilarDocumentsWebService&#45;&gt;WebServicesModule</title>
<path fill="none" stroke="black" d="M1261,-160.81C1261,-183.29 1261,-218.8 1261,-218.8 1261,-218.8 4111.01,-218.8 4111.01,-218.8"/>
<polygon fill="black" stroke="black" points="4111.02,-222.3 4121.01,-218.8 4111.01,-215.3 4111.02,-222.3"/>
</g>
<!-- SponsoredLinksWebService -->
<g id="node48" class="node">
<title>SponsoredLinksWebService</title>
<ellipse fill="#fdb462" stroke="black" cx="991" cy="-142.8" rx="120.97" ry="18"/>
<text text-anchor="middle" x="991" y="-138.6" font-family="Times,serif" font-size="14.00">SponsoredLinksWebService</text>
</g>
<!-- SponsoredLinksWebService&#45;&gt;WebServicesModule -->
<g id="edge59" class="edge">
<title>SponsoredLinksWebService&#45;&gt;WebServicesModule</title>
<path fill="none" stroke="black" d="M991,-161.05C991,-183.82 991,-219.8 991,-219.8 991,-219.8 4111.23,-219.8 4111.23,-219.8"/>
<polygon fill="black" stroke="black" points="4111.23,-223.3 4121.23,-219.8 4111.23,-216.3 4111.23,-223.3"/>
</g>
<!-- SqHttpClient -->
<g id="node49" class="node">
<title>SqHttpClient</title>
<ellipse fill="#fdb462" stroke="black" cx="790" cy="-142.8" rx="62.01" ry="18"/>
<text text-anchor="middle" x="790" y="-138.6" font-family="Times,serif" font-size="14.00">SqHttpClient</text>
</g>
<!-- SqHttpClient&#45;&gt;WebServicesModule -->
<g id="edge60" class="edge">
<title>SqHttpClient&#45;&gt;WebServicesModule</title>
<path fill="none" stroke="black" d="M790,-161.12C790,-184.46 790,-221.8 790,-221.8 790,-221.8 4111.27,-221.8 4111.27,-221.8"/>
<polygon fill="black" stroke="black" points="4111.27,-225.3 4121.27,-221.8 4111.27,-218.3 4111.27,-225.3"/>
</g>
<!-- StartConfigWebService -->
<g id="node50" class="node">
<title>StartConfigWebService</title>
<ellipse fill="#fdb462" stroke="black" cx="607" cy="-142.8" rx="103.07" ry="18"/>
<text text-anchor="middle" x="607" y="-138.6" font-family="Times,serif" font-size="14.00">StartConfigWebService</text>
</g>
<!-- StartConfigWebService&#45;&gt;WebServicesModule -->
<g id="edge61" class="edge">
<title>StartConfigWebService&#45;&gt;WebServicesModule</title>
<path fill="none" stroke="black" d="M607,-161.18C607,-185.08 607,-223.8 607,-223.8 607,-223.8 4111.23,-223.8 4111.23,-223.8"/>
<polygon fill="black" stroke="black" points="4111.23,-227.3 4121.23,-223.8 4111.23,-220.3 4111.23,-227.3"/>
</g>
<!-- SuggestFieldWebService -->
<g id="node51" class="node">
<title>SuggestFieldWebService</title>
<ellipse fill="#fdb462" stroke="black" cx="377" cy="-142.8" rx="108.81" ry="18"/>
<text text-anchor="middle" x="377" y="-138.6" font-family="Times,serif" font-size="14.00">SuggestFieldWebService</text>
</g>
<!-- SuggestFieldWebService&#45;&gt;WebServicesModule -->
<g id="edge62" class="edge">
<title>SuggestFieldWebService&#45;&gt;WebServicesModule</title>
<path fill="none" stroke="black" d="M377,-160.81C377,-185.22 377,-225.8 377,-225.8 377,-225.8 4111.05,-225.8 4111.05,-225.8"/>
<polygon fill="black" stroke="black" points="4111.05,-229.3 4121.05,-225.8 4111.05,-222.3 4111.05,-229.3"/>
</g>
<!-- SuggestQueryWebService -->
<g id="node52" class="node">
<title>SuggestQueryWebService</title>
<ellipse fill="#fdb462" stroke="black" cx="137" cy="-142.8" rx="112.86" ry="18"/>
<text text-anchor="middle" x="137" y="-138.6" font-family="Times,serif" font-size="14.00">SuggestQueryWebService</text>
</g>
<!-- SuggestQueryWebService&#45;&gt;WebServicesModule -->
<g id="edge63" class="edge">
<title>SuggestQueryWebService&#45;&gt;WebServicesModule</title>
<path fill="none" stroke="black" d="M137,-160.83C137,-185.78 137,-227.8 137,-227.8 137,-227.8 4111.07,-227.8 4111.07,-227.8"/>
<polygon fill="black" stroke="black" points="4111.07,-231.3 4121.07,-227.8 4111.07,-224.3 4111.07,-231.3"/>
</g>
<!-- UserRatingsWebService -->
<g id="node53" class="node">
<title>UserRatingsWebService</title>
<ellipse fill="#fdb462" stroke="black" cx="3975" cy="-142.8" rx="105.92" ry="18"/>
<text text-anchor="middle" x="3975" y="-138.6" font-family="Times,serif" font-size="14.00">UserRatingsWebService</text>
</g>
<!-- UserRatingsWebService&#45;&gt;WebServicesModule -->
<g id="edge64" class="edge">
<title>UserRatingsWebService&#45;&gt;WebServicesModule</title>
<path fill="none" stroke="black" d="M4059.38,-153.83C4059.38,-169.09 4059.38,-194.8 4059.38,-194.8 4059.38,-194.8 4111.05,-194.8 4111.05,-194.8"/>
<polygon fill="black" stroke="black" points="4111.05,-198.3 4121.05,-194.8 4111.05,-191.3 4111.05,-198.3"/>
</g>
<!-- UserSettingsWebService -->
<g id="node54" class="node">
<title>UserSettingsWebService</title>
<ellipse fill="#fdb462" stroke="black" cx="3743" cy="-142.8" rx="107.64" ry="18"/>
<text text-anchor="middle" x="3743" y="-138.6" font-family="Times,serif" font-size="14.00">UserSettingsWebService</text>
</g>
<!-- UserSettingsWebService&#45;&gt;WebServicesModule -->
<g id="edge65" class="edge">
<title>UserSettingsWebService&#45;&gt;WebServicesModule</title>
<path fill="none" stroke="black" d="M3743,-161.08C3743,-176.75 3743,-196.8 3743,-196.8 3743,-196.8 4110.9,-196.8 4110.9,-196.8"/>
<polygon fill="black" stroke="black" points="4110.9,-200.3 4120.9,-196.8 4110.9,-193.3 4110.9,-200.3"/>
</g>
</g>
</svg>
