<?xml version="1.0" encoding="UTF-8" standalone="no"?>
<!DOCTYPE svg PUBLIC "-//W3C//DTD SVG 1.1//EN"
 "http://www.w3.org/Graphics/SVG/1.1/DTD/svg11.dtd">
<!-- Generated by graphviz version 2.47.3 (20210619.1520)
 -->
<!-- Title: dependencies Pages: 1 -->
<svg width="1267pt" height="247pt"
 viewBox="0.00 0.00 1267.00 246.80" xmlns="http://www.w3.org/2000/svg" xmlns:xlink="http://www.w3.org/1999/xlink">
<g id="graph0" class="graph" transform="scale(1 1) rotate(0) translate(4 242.8)">
<title>dependencies</title>
<polygon fill="white" stroke="transparent" points="-4,4 -4,-242.8 1263,-242.8 1263,4 -4,4"/>
<text text-anchor="middle" x="629.5" y="-8.2" font-family="sans-serif" font-size="14.00">dependencies</text>
<g id="clust1" class="cluster">
<title>cluster_BsSearchModule</title>
<polygon fill="none" stroke="black" stroke-dasharray="1,5" points="8,-32.8 8,-230.8 1251,-230.8 1251,-32.8 8,-32.8"/>
</g>
<g id="clust2" class="cluster">
<title>cluster_BsSearchModule_declarations</title>
<polygon fill="none" stroke="black" points="257,-40.8 257,-92.8 1243,-92.8 1243,-40.8 257,-40.8"/>
</g>
<g id="clust13" class="cluster">
<title>cluster_BsSearchModule_exports</title>
<polygon fill="none" stroke="black" points="129,-170.8 129,-222.8 1143,-222.8 1143,-170.8 129,-170.8"/>
</g>
<g id="clust12" class="cluster">
<title>cluster_BsSearchModule_imports</title>
<polygon fill="none" stroke="black" points="16,-40.8 16,-92.8 249,-92.8 249,-40.8 16,-40.8"/>
</g>
<!-- BsBreadcrumbs -->
<g id="node1" class="node">
<title>BsBreadcrumbs</title>
<polygon fill="#ffffb3" stroke="black" points="1234.92,-84.8 1129.08,-84.8 1129.08,-48.8 1234.92,-48.8 1234.92,-84.8"/>
<text text-anchor="middle" x="1182" y="-62.6" font-family="Times,serif" font-size="14.00">BsBreadcrumbs</text>
</g>
<!-- BsSearchModule -->
<g id="node10" class="node">
<title>BsSearchModule</title>
<polygon fill="#8dd3c7" stroke="black" points="640.42,-149.8 637.42,-153.8 616.42,-153.8 613.42,-149.8 527.58,-149.8 527.58,-113.8 640.42,-113.8 640.42,-149.8"/>
<text text-anchor="middle" x="584" y="-127.6" font-family="Times,serif" font-size="14.00">BsSearchModule</text>
</g>
<!-- BsBreadcrumbs&#45;&gt;BsSearchModule -->
<g id="edge1" class="edge">
<title>BsBreadcrumbs&#45;&gt;BsSearchModule</title>
<path fill="none" stroke="black" d="M1185.08,-85.02C1185.08,-103.63 1185.08,-129.8 1185.08,-129.8 1185.08,-129.8 650.28,-129.8 650.28,-129.8"/>
<polygon fill="black" stroke="black" points="650.28,-126.3 640.28,-129.8 650.28,-133.3 650.28,-126.3"/>
</g>
<!-- BsDidYouMean -->
<g id="node2" class="node">
<title>BsDidYouMean</title>
<polygon fill="#ffffb3" stroke="black" points="1110.76,-84.8 1003.24,-84.8 1003.24,-48.8 1110.76,-48.8 1110.76,-84.8"/>
<text text-anchor="middle" x="1057" y="-62.6" font-family="Times,serif" font-size="14.00">BsDidYouMean</text>
</g>
<!-- BsDidYouMean&#45;&gt;BsSearchModule -->
<g id="edge2" class="edge">
<title>BsDidYouMean&#45;&gt;BsSearchModule</title>
<path fill="none" stroke="black" d="M1017.59,-84.82C1017.59,-102.17 1017.59,-125.8 1017.59,-125.8 1017.59,-125.8 650.24,-125.8 650.24,-125.8"/>
<polygon fill="black" stroke="black" points="650.24,-122.3 640.24,-125.8 650.24,-129.3 650.24,-122.3"/>
</g>
<!-- BsLoadMore -->
<g id="node3" class="node">
<title>BsLoadMore</title>
<polygon fill="#ffffb3" stroke="black" points="984.87,-84.8 895.13,-84.8 895.13,-48.8 984.87,-48.8 984.87,-84.8"/>
<text text-anchor="middle" x="940" y="-62.6" font-family="Times,serif" font-size="14.00">BsLoadMore</text>
</g>
<!-- BsLoadMore&#45;&gt;BsSearchModule -->
<g id="edge3" class="edge">
<title>BsLoadMore&#45;&gt;BsSearchModule</title>
<path fill="none" stroke="black" d="M955.75,-84.81C955.75,-100.85 955.75,-121.8 955.75,-121.8 955.75,-121.8 650.46,-121.8 650.46,-121.8"/>
<polygon fill="black" stroke="black" points="650.46,-118.3 640.46,-121.8 650.46,-125.3 650.46,-118.3"/>
</g>
<!-- BsLoadingBar -->
<g id="node4" class="node">
<title>BsLoadingBar</title>
<polygon fill="#ffffb3" stroke="black" points="876.65,-84.8 779.35,-84.8 779.35,-48.8 876.65,-48.8 876.65,-84.8"/>
<text text-anchor="middle" x="828" y="-62.6" font-family="Times,serif" font-size="14.00">BsLoadingBar</text>
</g>
<!-- BsLoadingBar&#45;&gt;BsSearchModule -->
<g id="edge4" class="edge">
<title>BsLoadingBar&#45;&gt;BsSearchModule</title>
<path fill="none" stroke="black" d="M782.75,-84.92C782.75,-99.58 782.75,-117.8 782.75,-117.8 782.75,-117.8 650.42,-117.8 650.42,-117.8"/>
<polygon fill="black" stroke="black" points="650.42,-114.3 640.42,-117.8 650.42,-121.3 650.42,-114.3"/>
</g>
<!-- BsPageSizeSelector -->
<g id="node5" class="node">
<title>BsPageSizeSelector</title>
<polygon fill="#ffffb3" stroke="black" points="760.96,-84.8 633.04,-84.8 633.04,-48.8 760.96,-48.8 760.96,-84.8"/>
<text text-anchor="middle" x="697" y="-62.6" font-family="Times,serif" font-size="14.00">BsPageSizeSelector</text>
</g>
<!-- BsPageSizeSelector&#45;&gt;BsSearchModule -->
<g id="edge5" class="edge">
<title>BsPageSizeSelector&#45;&gt;BsSearchModule</title>
<path fill="none" stroke="black" d="M636.61,-84.91C636.61,-84.91 636.61,-103.79 636.61,-103.79"/>
<polygon fill="black" stroke="black" points="633.11,-103.79 636.61,-113.79 640.11,-103.79 633.11,-103.79"/>
</g>
<!-- BsPager -->
<g id="node6" class="node">
<title>BsPager</title>
<polygon fill="#ffffb3" stroke="black" points="615.15,-84.8 552.85,-84.8 552.85,-48.8 615.15,-48.8 615.15,-84.8"/>
<text text-anchor="middle" x="584" y="-62.6" font-family="Times,serif" font-size="14.00">BsPager</text>
</g>
<!-- BsPager&#45;&gt;BsSearchModule -->
<g id="edge6" class="edge">
<title>BsPager&#45;&gt;BsSearchModule</title>
<path fill="none" stroke="black" d="M584,-84.91C584,-84.91 584,-103.79 584,-103.79"/>
<polygon fill="black" stroke="black" points="580.5,-103.79 584,-113.79 587.5,-103.79 580.5,-103.79"/>
</g>
<!-- BsScroller -->
<g id="node7" class="node">
<title>BsScroller</title>
<polygon fill="#ffffb3" stroke="black" points="534.6,-84.8 459.4,-84.8 459.4,-48.8 534.6,-48.8 534.6,-84.8"/>
<text text-anchor="middle" x="497" y="-62.6" font-family="Times,serif" font-size="14.00">BsScroller</text>
</g>
<!-- BsScroller&#45;&gt;BsSearchModule -->
<g id="edge7" class="edge">
<title>BsScroller&#45;&gt;BsSearchModule</title>
<path fill="none" stroke="black" d="M523.03,-84.95C523.03,-108.56 523.03,-146.8 523.03,-146.8 523.03,-146.8 523.47,-146.8 523.47,-146.8"/>
<polygon fill="black" stroke="black" points="517.41,-150.3 527.41,-146.8 517.41,-143.3 517.41,-150.3"/>
</g>
<!-- BsSortSelector -->
<g id="node8" class="node">
<title>BsSortSelector</title>
<polygon fill="#ffffb3" stroke="black" points="440.98,-84.8 341.02,-84.8 341.02,-48.8 440.98,-48.8 440.98,-84.8"/>
<text text-anchor="middle" x="391" y="-62.6" font-family="Times,serif" font-size="14.00">BsSortSelector</text>
</g>
<!-- BsSortSelector&#45;&gt;BsSearchModule -->
<g id="edge8" class="edge">
<title>BsSortSelector&#45;&gt;BsSearchModule</title>
<path fill="none" stroke="black" d="M437.46,-84.92C437.46,-99.58 437.46,-117.8 437.46,-117.8 437.46,-117.8 517.76,-117.8 517.76,-117.8"/>
<polygon fill="black" stroke="black" points="517.76,-121.3 527.76,-117.8 517.76,-114.3 517.76,-121.3"/>
</g>
<!-- BsTabs -->
<g id="node9" class="node">
<title>BsTabs</title>
<polygon fill="#ffffb3" stroke="black" points="322.99,-84.8 265.01,-84.8 265.01,-48.8 322.99,-48.8 322.99,-84.8"/>
<text text-anchor="middle" x="294" y="-62.6" font-family="Times,serif" font-size="14.00">BsTabs</text>
</g>
<!-- BsTabs&#45;&gt;BsSearchModule -->
<g id="edge9" class="edge">
<title>BsTabs&#45;&gt;BsSearchModule</title>
<path fill="none" stroke="black" d="M301.5,-84.81C301.5,-100.85 301.5,-121.8 301.5,-121.8 301.5,-121.8 517.51,-121.8 517.51,-121.8"/>
<polygon fill="black" stroke="black" points="517.51,-125.3 527.51,-121.8 517.51,-118.3 517.51,-125.3"/>
</g>
<!-- BsBreadcrumbs  -->
<g id="node13" class="node">
<title>BsBreadcrumbs </title>
<polygon fill="#fb8072" stroke="black" points="1135.42,-214.8 1026.58,-214.8 1026.58,-178.8 1135.42,-178.8 1135.42,-214.8"/>
<text text-anchor="middle" x="1081" y="-192.6" font-family="Times,serif" font-size="14.00">BsBreadcrumbs </text>
</g>
<!-- BsSearchModule&#45;&gt;BsBreadcrumbs  -->
<g id="edge12" class="edge">
<title>BsSearchModule&#45;&gt;BsBreadcrumbs </title>
<path fill="none" stroke="black" stroke-dasharray="5,2" d="M640.55,-133.8C768.41,-133.8 1068.71,-133.8 1068.71,-133.8 1068.71,-133.8 1068.71,-168.58 1068.71,-168.58"/>
<polygon fill="black" stroke="black" points="1065.21,-168.58 1068.71,-178.58 1072.21,-168.58 1065.21,-168.58"/>
</g>
<!-- BsDidYouMean  -->
<g id="node14" class="node">
<title>BsDidYouMean </title>
<polygon fill="#fb8072" stroke="black" points="1008.76,-214.8 897.24,-214.8 897.24,-178.8 1008.76,-178.8 1008.76,-214.8"/>
<text text-anchor="middle" x="953" y="-192.6" font-family="Times,serif" font-size="14.00">BsDidYouMean </text>
</g>
<!-- BsSearchModule&#45;&gt;BsDidYouMean  -->
<g id="edge13" class="edge">
<title>BsSearchModule&#45;&gt;BsDidYouMean </title>
<path fill="none" stroke="black" stroke-dasharray="5,2" d="M640.57,-137.8C737.86,-137.8 926.56,-137.8 926.56,-137.8 926.56,-137.8 926.56,-168.78 926.56,-168.78"/>
<polygon fill="black" stroke="black" points="923.06,-168.78 926.56,-178.78 930.06,-168.78 923.06,-168.78"/>
</g>
<!-- BsLoadMore  -->
<g id="node15" class="node">
<title>BsLoadMore </title>
<polygon fill="#fb8072" stroke="black" points="879.87,-214.8 786.13,-214.8 786.13,-178.8 879.87,-178.8 879.87,-214.8"/>
<text text-anchor="middle" x="833" y="-192.6" font-family="Times,serif" font-size="14.00">BsLoadMore </text>
</g>
<!-- BsSearchModule&#45;&gt;BsLoadMore  -->
<g id="edge14" class="edge">
<title>BsSearchModule&#45;&gt;BsLoadMore </title>
<path fill="none" stroke="black" stroke-dasharray="5,2" d="M640.49,-141.8C713.56,-141.8 831.57,-141.8 831.57,-141.8 831.57,-141.8 831.57,-168.79 831.57,-168.79"/>
<polygon fill="black" stroke="black" points="828.07,-168.79 831.57,-178.79 835.07,-168.79 828.07,-168.79"/>
</g>
<!-- BsLoadingBar  -->
<g id="node16" class="node">
<title>BsLoadingBar </title>
<polygon fill="#fb8072" stroke="black" points="768.65,-214.8 667.35,-214.8 667.35,-178.8 768.65,-178.8 768.65,-214.8"/>
<text text-anchor="middle" x="718" y="-192.6" font-family="Times,serif" font-size="14.00">BsLoadingBar </text>
</g>
<!-- BsSearchModule&#45;&gt;BsLoadingBar  -->
<g id="edge15" class="edge">
<title>BsSearchModule&#45;&gt;BsLoadingBar </title>
<path fill="none" stroke="black" stroke-dasharray="5,2" d="M640.35,-145.8C675.54,-145.8 714.2,-145.8 714.2,-145.8 714.2,-145.8 714.2,-168.68 714.2,-168.68"/>
<polygon fill="black" stroke="black" points="710.7,-168.68 714.2,-178.68 717.7,-168.68 710.7,-168.68"/>
</g>
<!-- BsPageSizeSelector  -->
<g id="node17" class="node">
<title>BsPageSizeSelector </title>
<polygon fill="#fb8072" stroke="black" points="649.96,-214.8 518.04,-214.8 518.04,-178.8 649.96,-178.8 649.96,-214.8"/>
<text text-anchor="middle" x="584" y="-192.6" font-family="Times,serif" font-size="14.00">BsPageSizeSelector </text>
</g>
<!-- BsSearchModule&#45;&gt;BsPageSizeSelector  -->
<g id="edge16" class="edge">
<title>BsSearchModule&#45;&gt;BsPageSizeSelector </title>
<path fill="none" stroke="black" stroke-dasharray="5,2" d="M584,-149.91C584,-149.91 584,-168.79 584,-168.79"/>
<polygon fill="black" stroke="black" points="580.5,-168.79 584,-178.79 587.5,-168.79 580.5,-168.79"/>
</g>
<!-- BsPager  -->
<g id="node18" class="node">
<title>BsPager </title>
<polygon fill="#fb8072" stroke="black" points="500.15,-214.8 433.85,-214.8 433.85,-178.8 500.15,-178.8 500.15,-214.8"/>
<text text-anchor="middle" x="467" y="-192.6" font-family="Times,serif" font-size="14.00">BsPager </text>
</g>
<!-- BsSearchModule&#45;&gt;BsPager  -->
<g id="edge17" class="edge">
<title>BsSearchModule&#45;&gt;BsPager </title>
<path fill="none" stroke="black" stroke-dasharray="5,2" d="M527.61,-142.8C503.05,-142.8 479.76,-142.8 479.76,-142.8 479.76,-142.8 479.76,-168.52 479.76,-168.52"/>
<polygon fill="black" stroke="black" points="476.26,-168.52 479.76,-178.52 483.26,-168.52 476.26,-168.52"/>
</g>
<!-- BsScroller  -->
<g id="node19" class="node">
<title>BsScroller </title>
<polygon fill="#fb8072" stroke="black" points="416.1,-214.8 337.9,-214.8 337.9,-178.8 416.1,-178.8 416.1,-214.8"/>
<text text-anchor="middle" x="377" y="-192.6" font-family="Times,serif" font-size="14.00">BsScroller </text>
</g>
<!-- BsSearchModule&#45;&gt;BsScroller  -->
<g id="edge18" class="edge">
<title>BsSearchModule&#45;&gt;BsScroller </title>
<path fill="none" stroke="black" stroke-dasharray="5,2" d="M527.62,-139.8C466.83,-139.8 378.65,-139.8 378.65,-139.8 378.65,-139.8 378.65,-168.76 378.65,-168.76"/>
<polygon fill="black" stroke="black" points="375.15,-168.76 378.65,-178.76 382.15,-168.76 375.15,-168.76"/>
</g>
<!-- BsSortSelector  -->
<g id="node20" class="node">
<title>BsSortSelector </title>
<polygon fill="#fb8072" stroke="black" points="319.98,-214.8 216.02,-214.8 216.02,-178.8 319.98,-178.8 319.98,-214.8"/>
<text text-anchor="middle" x="268" y="-192.6" font-family="Times,serif" font-size="14.00">BsSortSelector </text>
</g>
<!-- BsSearchModule&#45;&gt;BsSortSelector  -->
<g id="edge19" class="edge">
<title>BsSearchModule&#45;&gt;BsSortSelector </title>
<path fill="none" stroke="black" stroke-dasharray="5,2" d="M527.78,-135.8C440.74,-135.8 283.25,-135.8 283.25,-135.8 283.25,-135.8 283.25,-168.5 283.25,-168.5"/>
<polygon fill="black" stroke="black" points="279.75,-168.5 283.25,-178.5 286.75,-168.5 279.75,-168.5"/>
</g>
<!-- BsTabs  -->
<g id="node21" class="node">
<title>BsTabs </title>
<polygon fill="#fb8072" stroke="black" points="198.99,-214.8 137.01,-214.8 137.01,-178.8 198.99,-178.8 198.99,-214.8"/>
<text text-anchor="middle" x="168" y="-192.6" font-family="Times,serif" font-size="14.00">BsTabs </text>
</g>
<!-- BsSearchModule&#45;&gt;BsTabs  -->
<g id="edge20" class="edge">
<title>BsSearchModule&#45;&gt;BsTabs </title>
<path fill="none" stroke="black" stroke-dasharray="5,2" d="M527.46,-131.8C413.72,-131.8 168,-131.8 168,-131.8 168,-131.8 168,-168.69 168,-168.69"/>
<polygon fill="black" stroke="black" points="164.5,-168.69 168,-178.69 171.5,-168.69 164.5,-168.69"/>
</g>
<!-- BsActionModule -->
<g id="node11" class="node">
<title>BsActionModule</title>
<polygon fill="#8dd3c7" stroke="black" points="241.43,-84.8 238.43,-88.8 217.43,-88.8 214.43,-84.8 128.57,-84.8 128.57,-48.8 241.43,-48.8 241.43,-84.8"/>
<text text-anchor="middle" x="185" y="-62.6" font-family="Times,serif" font-size="14.00">BsActionModule</text>
</g>
<!-- BsActionModule&#45;&gt;BsSearchModule -->
<g id="edge10" class="edge">
<title>BsActionModule&#45;&gt;BsSearchModule</title>
<path fill="none" stroke="black" d="M228.74,-84.83C228.74,-101.86 228.74,-124.8 228.74,-124.8 228.74,-124.8 517.71,-124.8 517.71,-124.8"/>
<polygon fill="black" stroke="black" points="517.71,-128.3 527.71,-124.8 517.71,-121.3 517.71,-128.3"/>
</g>
<!-- UtilsModule -->
<g id="node12" class="node">
<title>UtilsModule</title>
<polygon fill="#8dd3c7" stroke="black" points="110.27,-84.8 107.27,-88.8 86.27,-88.8 83.27,-84.8 23.73,-84.8 23.73,-48.8 110.27,-48.8 110.27,-84.8"/>
<text text-anchor="middle" x="67" y="-62.6" font-family="Times,serif" font-size="14.00">UtilsModule</text>
</g>
<!-- UtilsModule&#45;&gt;BsSearchModule -->
<g id="edge11" class="edge">
<title>UtilsModule&#45;&gt;BsSearchModule</title>
<path fill="none" stroke="black" d="M67,-85.07C67,-103.36 67,-128.8 67,-128.8 67,-128.8 517.69,-128.8 517.69,-128.8"/>
<polygon fill="black" stroke="black" points="517.69,-132.3 527.69,-128.8 517.69,-125.3 517.69,-132.3"/>
</g>
</g>
</svg>
