<?xml version="1.0" encoding="UTF-8" standalone="no"?>
<!DOCTYPE svg PUBLIC "-//W3C//DTD SVG 1.1//EN"
 "http://www.w3.org/Graphics/SVG/1.1/DTD/svg11.dtd">
<!-- Generated by graphviz version 2.47.3 (20210619.1520)
 -->
<!-- Title: dependencies Pages: 1 -->
<svg width="1267pt" height="247pt"
 viewBox="0.00 0.00 1267.00 246.80" xmlns="http://www.w3.org/2000/svg" xmlns:xlink="http://www.w3.org/1999/xlink">
<g id="graph0" class="graph" transform="scale(1 1) rotate(0) translate(4 242.8)">
<title>dependencies</title>
<polygon fill="white" stroke="transparent" points="-4,4 -4,-242.8 1263,-242.8 1263,4 -4,4"/>
<text text-anchor="middle" x="629.5" y="-8.2" font-family="sans-serif" font-size="14.00">dependencies</text>
<g id="clust1" class="cluster">
<title>cluster_BsSearchModule</title>
<polygon fill="none" stroke="black" stroke-dasharray="1,5" points="8,-32.8 8,-230.8 1251,-230.8 1251,-32.8 8,-32.8"/>
</g>
<g id="clust12" class="cluster">
<title>cluster_BsSearchModule_imports</title>
<polygon fill="none" stroke="black" points="1010,-40.8 1010,-92.8 1243,-92.8 1243,-40.8 1010,-40.8"/>
</g>
<g id="clust13" class="cluster">
<title>cluster_BsSearchModule_exports</title>
<polygon fill="none" stroke="black" points="132,-170.8 132,-222.8 1146,-222.8 1146,-170.8 132,-170.8"/>
</g>
<g id="clust2" class="cluster">
<title>cluster_BsSearchModule_declarations</title>
<polygon fill="none" stroke="black" points="16,-40.8 16,-92.8 1002,-92.8 1002,-40.8 16,-40.8"/>
</g>
<!-- BsBreadcrumbs -->
<g id="node1" class="node">
<title>BsBreadcrumbs</title>
<polygon fill="#ffffb3" stroke="black" points="993.92,-84.8 888.08,-84.8 888.08,-48.8 993.92,-48.8 993.92,-84.8"/>
<text text-anchor="middle" x="941" y="-62.6" font-family="Times,serif" font-size="14.00">BsBreadcrumbs</text>
</g>
<!-- BsSearchModule -->
<g id="node10" class="node">
<title>BsSearchModule</title>
<polygon fill="#8dd3c7" stroke="black" points="643.42,-149.8 640.42,-153.8 619.42,-153.8 616.42,-149.8 530.58,-149.8 530.58,-113.8 643.42,-113.8 643.42,-149.8"/>
<text text-anchor="middle" x="587" y="-127.6" font-family="Times,serif" font-size="14.00">BsSearchModule</text>
</g>
<!-- BsBreadcrumbs&#45;&gt;BsSearchModule -->
<g id="edge1" class="edge">
<title>BsBreadcrumbs&#45;&gt;BsSearchModule</title>
<path fill="none" stroke="black" d="M894.33,-84.81C894.33,-100.85 894.33,-121.8 894.33,-121.8 894.33,-121.8 653.37,-121.8 653.37,-121.8"/>
<polygon fill="black" stroke="black" points="653.37,-118.3 643.37,-121.8 653.37,-125.3 653.37,-118.3"/>
</g>
<!-- BsDidYouMean -->
<g id="node2" class="node">
<title>BsDidYouMean</title>
<polygon fill="#ffffb3" stroke="black" points="869.76,-84.8 762.24,-84.8 762.24,-48.8 869.76,-48.8 869.76,-84.8"/>
<text text-anchor="middle" x="816" y="-62.6" font-family="Times,serif" font-size="14.00">BsDidYouMean</text>
</g>
<!-- BsDidYouMean&#45;&gt;BsSearchModule -->
<g id="edge2" class="edge">
<title>BsDidYouMean&#45;&gt;BsSearchModule</title>
<path fill="none" stroke="black" d="M766.85,-84.92C766.85,-99.58 766.85,-117.8 766.85,-117.8 766.85,-117.8 653.41,-117.8 653.41,-117.8"/>
<polygon fill="black" stroke="black" points="653.41,-114.3 643.41,-117.8 653.41,-121.3 653.41,-114.3"/>
</g>
<!-- BsLoadMore -->
<g id="node3" class="node">
<title>BsLoadMore</title>
<polygon fill="#ffffb3" stroke="black" points="743.87,-84.8 654.13,-84.8 654.13,-48.8 743.87,-48.8 743.87,-84.8"/>
<text text-anchor="middle" x="699" y="-62.6" font-family="Times,serif" font-size="14.00">BsLoadMore</text>
</g>
<!-- BsLoadMore&#45;&gt;BsSearchModule -->
<g id="edge3" class="edge">
<title>BsLoadMore&#45;&gt;BsSearchModule</title>
<path fill="none" stroke="black" d="M653.92,-66.8C645.62,-66.8 639.52,-66.8 639.52,-66.8 639.52,-66.8 639.52,-103.69 639.52,-103.69"/>
<polygon fill="black" stroke="black" points="636.02,-103.69 639.52,-113.69 643.02,-103.69 636.02,-103.69"/>
</g>
<!-- BsLoadingBar -->
<g id="node4" class="node">
<title>BsLoadingBar</title>
<polygon fill="#ffffb3" stroke="black" points="635.65,-84.8 538.35,-84.8 538.35,-48.8 635.65,-48.8 635.65,-84.8"/>
<text text-anchor="middle" x="587" y="-62.6" font-family="Times,serif" font-size="14.00">BsLoadingBar</text>
</g>
<!-- BsLoadingBar&#45;&gt;BsSearchModule -->
<g id="edge4" class="edge">
<title>BsLoadingBar&#45;&gt;BsSearchModule</title>
<path fill="none" stroke="black" d="M587,-84.91C587,-84.91 587,-103.79 587,-103.79"/>
<polygon fill="black" stroke="black" points="583.5,-103.79 587,-113.79 590.5,-103.79 583.5,-103.79"/>
</g>
<!-- BsPageSizeSelector -->
<g id="node5" class="node">
<title>BsPageSizeSelector</title>
<polygon fill="#ffffb3" stroke="black" points="519.96,-84.8 392.04,-84.8 392.04,-48.8 519.96,-48.8 519.96,-84.8"/>
<text text-anchor="middle" x="456" y="-62.6" font-family="Times,serif" font-size="14.00">BsPageSizeSelector</text>
</g>
<!-- BsPageSizeSelector&#45;&gt;BsSearchModule -->
<g id="edge5" class="edge">
<title>BsPageSizeSelector&#45;&gt;BsSearchModule</title>
<path fill="none" stroke="black" d="M520.09,-66.8C528.61,-66.8 534.48,-66.8 534.48,-66.8 534.48,-66.8 534.48,-103.69 534.48,-103.69"/>
<polygon fill="black" stroke="black" points="530.98,-103.69 534.48,-113.69 537.98,-103.69 530.98,-103.69"/>
</g>
<!-- BsPager -->
<g id="node6" class="node">
<title>BsPager</title>
<polygon fill="#ffffb3" stroke="black" points="374.15,-84.8 311.85,-84.8 311.85,-48.8 374.15,-48.8 374.15,-84.8"/>
<text text-anchor="middle" x="343" y="-62.6" font-family="Times,serif" font-size="14.00">BsPager</text>
</g>
<!-- BsPager&#45;&gt;BsSearchModule -->
<g id="edge6" class="edge">
<title>BsPager&#45;&gt;BsSearchModule</title>
<path fill="none" stroke="black" d="M357.51,-84.92C357.51,-99.58 357.51,-117.8 357.51,-117.8 357.51,-117.8 520.57,-117.8 520.57,-117.8"/>
<polygon fill="black" stroke="black" points="520.57,-121.3 530.57,-117.8 520.57,-114.3 520.57,-121.3"/>
</g>
<!-- BsScroller -->
<g id="node7" class="node">
<title>BsScroller</title>
<polygon fill="#ffffb3" stroke="black" points="293.6,-84.8 218.4,-84.8 218.4,-48.8 293.6,-48.8 293.6,-84.8"/>
<text text-anchor="middle" x="256" y="-62.6" font-family="Times,serif" font-size="14.00">BsScroller</text>
</g>
<!-- BsScroller&#45;&gt;BsSearchModule -->
<g id="edge7" class="edge">
<title>BsScroller&#45;&gt;BsSearchModule</title>
<path fill="none" stroke="black" d="M256.4,-84.81C256.4,-100.85 256.4,-121.8 256.4,-121.8 256.4,-121.8 520.54,-121.8 520.54,-121.8"/>
<polygon fill="black" stroke="black" points="520.54,-125.3 530.54,-121.8 520.54,-118.3 520.54,-125.3"/>
</g>
<!-- BsSortSelector -->
<g id="node8" class="node">
<title>BsSortSelector</title>
<polygon fill="#ffffb3" stroke="black" points="199.98,-84.8 100.02,-84.8 100.02,-48.8 199.98,-48.8 199.98,-84.8"/>
<text text-anchor="middle" x="150" y="-62.6" font-family="Times,serif" font-size="14.00">BsSortSelector</text>
</g>
<!-- BsSortSelector&#45;&gt;BsSearchModule -->
<g id="edge8" class="edge">
<title>BsSortSelector&#45;&gt;BsSearchModule</title>
<path fill="none" stroke="black" d="M160.17,-84.82C160.17,-102.17 160.17,-125.8 160.17,-125.8 160.17,-125.8 520.76,-125.8 520.76,-125.8"/>
<polygon fill="black" stroke="black" points="520.76,-129.3 530.76,-125.8 520.76,-122.3 520.76,-129.3"/>
</g>
<!-- BsTabs -->
<g id="node9" class="node">
<title>BsTabs</title>
<polygon fill="#ffffb3" stroke="black" points="81.99,-84.8 24.01,-84.8 24.01,-48.8 81.99,-48.8 81.99,-84.8"/>
<text text-anchor="middle" x="53" y="-62.6" font-family="Times,serif" font-size="14.00">BsTabs</text>
</g>
<!-- BsTabs&#45;&gt;BsSearchModule -->
<g id="edge9" class="edge">
<title>BsTabs&#45;&gt;BsSearchModule</title>
<path fill="none" stroke="black" d="M53,-85.02C53,-103.63 53,-129.8 53,-129.8 53,-129.8 520.61,-129.8 520.61,-129.8"/>
<polygon fill="black" stroke="black" points="520.61,-133.3 530.61,-129.8 520.61,-126.3 520.61,-133.3"/>
</g>
<!-- BsBreadcrumbs  -->
<g id="node13" class="node">
<title>BsBreadcrumbs </title>
<polygon fill="#fb8072" stroke="black" points="1138.42,-214.8 1029.58,-214.8 1029.58,-178.8 1138.42,-178.8 1138.42,-214.8"/>
<text text-anchor="middle" x="1084" y="-192.6" font-family="Times,serif" font-size="14.00">BsBreadcrumbs </text>
</g>
<!-- BsSearchModule&#45;&gt;BsBreadcrumbs  -->
<g id="edge12" class="edge">
<title>BsSearchModule&#45;&gt;BsBreadcrumbs </title>
<path fill="none" stroke="black" stroke-dasharray="5,2" d="M643.47,-133.8C770.34,-133.8 1066.96,-133.8 1066.96,-133.8 1066.96,-133.8 1066.96,-168.58 1066.96,-168.58"/>
<polygon fill="black" stroke="black" points="1063.46,-168.58 1066.96,-178.58 1070.46,-168.58 1063.46,-168.58"/>
</g>
<!-- BsDidYouMean  -->
<g id="node14" class="node">
<title>BsDidYouMean </title>
<polygon fill="#fb8072" stroke="black" points="1011.76,-214.8 900.24,-214.8 900.24,-178.8 1011.76,-178.8 1011.76,-214.8"/>
<text text-anchor="middle" x="956" y="-192.6" font-family="Times,serif" font-size="14.00">BsDidYouMean </text>
</g>
<!-- BsSearchModule&#45;&gt;BsDidYouMean  -->
<g id="edge13" class="edge">
<title>BsSearchModule&#45;&gt;BsDidYouMean </title>
<path fill="none" stroke="black" stroke-dasharray="5,2" d="M643.26,-137.8C744.52,-137.8 947.04,-137.8 947.04,-137.8 947.04,-137.8 947.04,-168.78 947.04,-168.78"/>
<polygon fill="black" stroke="black" points="943.54,-168.78 947.04,-178.78 950.54,-168.78 943.54,-168.78"/>
</g>
<!-- BsLoadMore  -->
<g id="node15" class="node">
<title>BsLoadMore </title>
<polygon fill="#fb8072" stroke="black" points="882.87,-214.8 789.13,-214.8 789.13,-178.8 882.87,-178.8 882.87,-214.8"/>
<text text-anchor="middle" x="836" y="-192.6" font-family="Times,serif" font-size="14.00">BsLoadMore </text>
</g>
<!-- BsSearchModule&#45;&gt;BsLoadMore  -->
<g id="edge14" class="edge">
<title>BsSearchModule&#45;&gt;BsLoadMore </title>
<path fill="none" stroke="black" stroke-dasharray="5,2" d="M643.27,-141.8C714.93,-141.8 829.6,-141.8 829.6,-141.8 829.6,-141.8 829.6,-168.79 829.6,-168.79"/>
<polygon fill="black" stroke="black" points="826.1,-168.79 829.6,-178.79 833.1,-168.79 826.1,-168.79"/>
</g>
<!-- BsLoadingBar  -->
<g id="node16" class="node">
<title>BsLoadingBar </title>
<polygon fill="#fb8072" stroke="black" points="771.65,-214.8 670.35,-214.8 670.35,-178.8 771.65,-178.8 771.65,-214.8"/>
<text text-anchor="middle" x="721" y="-192.6" font-family="Times,serif" font-size="14.00">BsLoadingBar </text>
</g>
<!-- BsSearchModule&#45;&gt;BsLoadingBar  -->
<g id="edge15" class="edge">
<title>BsSearchModule&#45;&gt;BsLoadingBar </title>
<path fill="none" stroke="black" stroke-dasharray="5,2" d="M643.22,-145.8C674.5,-145.8 707.18,-145.8 707.18,-145.8 707.18,-145.8 707.18,-168.68 707.18,-168.68"/>
<polygon fill="black" stroke="black" points="703.68,-168.68 707.18,-178.68 710.68,-168.68 703.68,-168.68"/>
</g>
<!-- BsPageSizeSelector  -->
<g id="node17" class="node">
<title>BsPageSizeSelector </title>
<polygon fill="#fb8072" stroke="black" points="652.96,-214.8 521.04,-214.8 521.04,-178.8 652.96,-178.8 652.96,-214.8"/>
<text text-anchor="middle" x="587" y="-192.6" font-family="Times,serif" font-size="14.00">BsPageSizeSelector </text>
</g>
<!-- BsSearchModule&#45;&gt;BsPageSizeSelector  -->
<g id="edge16" class="edge">
<title>BsSearchModule&#45;&gt;BsPageSizeSelector </title>
<path fill="none" stroke="black" stroke-dasharray="5,2" d="M587,-149.91C587,-149.91 587,-168.79 587,-168.79"/>
<polygon fill="black" stroke="black" points="583.5,-168.79 587,-178.79 590.5,-168.79 583.5,-168.79"/>
</g>
<!-- BsPager  -->
<g id="node18" class="node">
<title>BsPager </title>
<polygon fill="#fb8072" stroke="black" points="503.15,-214.8 436.85,-214.8 436.85,-178.8 503.15,-178.8 503.15,-214.8"/>
<text text-anchor="middle" x="470" y="-192.6" font-family="Times,serif" font-size="14.00">BsPager </text>
</g>
<!-- BsSearchModule&#45;&gt;BsPager  -->
<g id="edge17" class="edge">
<title>BsSearchModule&#45;&gt;BsPager </title>
<path fill="none" stroke="black" stroke-dasharray="5,2" d="M530.56,-145.8C500.64,-145.8 470,-145.8 470,-145.8 470,-145.8 470,-168.68 470,-168.68"/>
<polygon fill="black" stroke="black" points="466.5,-168.68 470,-178.68 473.5,-168.68 466.5,-168.68"/>
</g>
<!-- BsScroller  -->
<g id="node19" class="node">
<title>BsScroller </title>
<polygon fill="#fb8072" stroke="black" points="419.1,-214.8 340.9,-214.8 340.9,-178.8 419.1,-178.8 419.1,-214.8"/>
<text text-anchor="middle" x="380" y="-192.6" font-family="Times,serif" font-size="14.00">BsScroller </text>
</g>
<!-- BsSearchModule&#45;&gt;BsScroller  -->
<g id="edge18" class="edge">
<title>BsSearchModule&#45;&gt;BsScroller </title>
<path fill="none" stroke="black" stroke-dasharray="5,2" d="M530.62,-141.8C477.38,-141.8 405.66,-141.8 405.66,-141.8 405.66,-141.8 405.66,-168.79 405.66,-168.79"/>
<polygon fill="black" stroke="black" points="402.16,-168.79 405.66,-178.79 409.16,-168.79 402.16,-168.79"/>
</g>
<!-- BsSortSelector  -->
<g id="node20" class="node">
<title>BsSortSelector </title>
<polygon fill="#fb8072" stroke="black" points="322.98,-214.8 219.02,-214.8 219.02,-178.8 322.98,-178.8 322.98,-214.8"/>
<text text-anchor="middle" x="271" y="-192.6" font-family="Times,serif" font-size="14.00">BsSortSelector </text>
</g>
<!-- BsSearchModule&#45;&gt;BsSortSelector  -->
<g id="edge19" class="edge">
<title>BsSearchModule&#45;&gt;BsSortSelector </title>
<path fill="none" stroke="black" stroke-dasharray="5,2" d="M530.77,-137.8C451.7,-137.8 317.21,-137.8 317.21,-137.8 317.21,-137.8 317.21,-168.78 317.21,-168.78"/>
<polygon fill="black" stroke="black" points="313.71,-168.78 317.21,-178.78 320.71,-168.78 313.71,-168.78"/>
</g>
<!-- BsTabs  -->
<g id="node21" class="node">
<title>BsTabs </title>
<polygon fill="#fb8072" stroke="black" points="201.99,-214.8 140.01,-214.8 140.01,-178.8 201.99,-178.8 201.99,-214.8"/>
<text text-anchor="middle" x="171" y="-192.6" font-family="Times,serif" font-size="14.00">BsTabs </text>
</g>
<!-- BsSearchModule&#45;&gt;BsTabs  -->
<g id="edge20" class="edge">
<title>BsSearchModule&#45;&gt;BsTabs </title>
<path fill="none" stroke="black" stroke-dasharray="5,2" d="M530.42,-133.8C418.61,-133.8 180.08,-133.8 180.08,-133.8 180.08,-133.8 180.08,-168.58 180.08,-168.58"/>
<polygon fill="black" stroke="black" points="176.58,-168.58 180.08,-178.58 183.58,-168.58 176.58,-168.58"/>
</g>
<!-- BsActionModule -->
<g id="node11" class="node">
<title>BsActionModule</title>
<polygon fill="#8dd3c7" stroke="black" points="1235.43,-84.8 1232.43,-88.8 1211.43,-88.8 1208.43,-84.8 1122.57,-84.8 1122.57,-48.8 1235.43,-48.8 1235.43,-84.8"/>
<text text-anchor="middle" x="1179" y="-62.6" font-family="Times,serif" font-size="14.00">BsActionModule</text>
</g>
<!-- BsActionModule&#45;&gt;BsSearchModule -->
<g id="edge10" class="edge">
<title>BsActionModule&#45;&gt;BsSearchModule</title>
<path fill="none" stroke="black" d="M1130.62,-85.02C1130.62,-103.63 1130.62,-129.8 1130.62,-129.8 1130.62,-129.8 653.38,-129.8 653.38,-129.8"/>
<polygon fill="black" stroke="black" points="653.38,-126.3 643.38,-129.8 653.38,-133.3 653.38,-126.3"/>
</g>
<!-- UtilsModule -->
<g id="node12" class="node">
<title>UtilsModule</title>
<polygon fill="#8dd3c7" stroke="black" points="1104.27,-84.8 1101.27,-88.8 1080.27,-88.8 1077.27,-84.8 1017.73,-84.8 1017.73,-48.8 1104.27,-48.8 1104.27,-84.8"/>
<text text-anchor="middle" x="1061" y="-62.6" font-family="Times,serif" font-size="14.00">UtilsModule</text>
</g>
<!-- UtilsModule&#45;&gt;BsSearchModule -->
<g id="edge11" class="edge">
<title>UtilsModule&#45;&gt;BsSearchModule</title>
<path fill="none" stroke="black" d="M1023.58,-84.82C1023.58,-102.17 1023.58,-125.8 1023.58,-125.8 1023.58,-125.8 653.63,-125.8 653.63,-125.8"/>
<polygon fill="black" stroke="black" points="653.63,-122.3 643.63,-125.8 653.63,-129.3 653.63,-122.3"/>
</g>
</g>
</svg>
