<?xml version="1.0" encoding="UTF-8" standalone="no"?>
<!DOCTYPE svg PUBLIC "-//W3C//DTD SVG 1.1//EN"
 "http://www.w3.org/Graphics/SVG/1.1/DTD/svg11.dtd">
<!-- Generated by graphviz version 2.47.3 (20210619.1520)
 -->
<!-- Title: dependencies Pages: 1 -->
<svg width="1415pt" height="247pt"
 viewBox="0.00 0.00 1415.00 246.80" xmlns="http://www.w3.org/2000/svg" xmlns:xlink="http://www.w3.org/1999/xlink">
<g id="graph0" class="graph" transform="scale(1 1) rotate(0) translate(4 242.8)">
<title>dependencies</title>
<polygon fill="white" stroke="transparent" points="-4,4 -4,-242.8 1411,-242.8 1411,4 -4,4"/>
<text text-anchor="middle" x="703.5" y="-8.2" font-family="sans-serif" font-size="14.00">dependencies</text>
<g id="clust1" class="cluster">
<title>cluster_BsSearchModule</title>
<polygon fill="none" stroke="black" stroke-dasharray="1,5" points="8,-32.8 8,-230.8 1399,-230.8 1399,-32.8 8,-32.8"/>
</g>
<g id="clust2" class="cluster">
<title>cluster_BsSearchModule_declarations</title>
<polygon fill="none" stroke="black" points="257,-40.8 257,-92.8 1391,-92.8 1391,-40.8 257,-40.8"/>
</g>
<g id="clust13" class="cluster">
<title>cluster_BsSearchModule_imports</title>
<polygon fill="none" stroke="black" points="16,-40.8 16,-92.8 249,-92.8 249,-40.8 16,-40.8"/>
</g>
<g id="clust14" class="cluster">
<title>cluster_BsSearchModule_exports</title>
<polygon fill="none" stroke="black" points="118,-170.8 118,-222.8 1284,-222.8 1284,-170.8 118,-170.8"/>
</g>
<!-- BsBreadcrumbs -->
<g id="node1" class="node">
<title>BsBreadcrumbs</title>
<polygon fill="#ffffb3" stroke="black" points="1382.92,-84.8 1277.08,-84.8 1277.08,-48.8 1382.92,-48.8 1382.92,-84.8"/>
<text text-anchor="middle" x="1330" y="-62.6" font-family="Times,serif" font-size="14.00">BsBreadcrumbs</text>
</g>
<!-- BsSearchModule -->
<g id="node11" class="node">
<title>BsSearchModule</title>
<polygon fill="#8dd3c7" stroke="black" points="722.42,-149.8 719.42,-153.8 698.42,-153.8 695.42,-149.8 609.58,-149.8 609.58,-113.8 722.42,-113.8 722.42,-149.8"/>
<text text-anchor="middle" x="666" y="-127.6" font-family="Times,serif" font-size="14.00">BsSearchModule</text>
</g>
<!-- BsBreadcrumbs&#45;&gt;BsSearchModule -->
<g id="edge1" class="edge">
<title>BsBreadcrumbs&#45;&gt;BsSearchModule</title>
<path fill="none" stroke="black" d="M1330,-84.91C1330,-104.14 1330,-131.8 1330,-131.8 1330,-131.8 732.33,-131.8 732.33,-131.8"/>
<polygon fill="black" stroke="black" points="732.33,-128.3 722.33,-131.8 732.33,-135.3 732.33,-128.3"/>
</g>
<!-- BsDidYouMean -->
<g id="node2" class="node">
<title>BsDidYouMean</title>
<polygon fill="#ffffb3" stroke="black" points="1258.76,-84.8 1151.24,-84.8 1151.24,-48.8 1258.76,-48.8 1258.76,-84.8"/>
<text text-anchor="middle" x="1205" y="-62.6" font-family="Times,serif" font-size="14.00">BsDidYouMean</text>
</g>
<!-- BsDidYouMean&#45;&gt;BsSearchModule -->
<g id="edge2" class="edge">
<title>BsDidYouMean&#45;&gt;BsSearchModule</title>
<path fill="none" stroke="black" d="M1159.33,-85.07C1159.33,-103.36 1159.33,-128.8 1159.33,-128.8 1159.33,-128.8 732.59,-128.8 732.59,-128.8"/>
<polygon fill="black" stroke="black" points="732.59,-125.3 722.59,-128.8 732.59,-132.3 732.59,-125.3"/>
</g>
<!-- BsLoadMore -->
<g id="node3" class="node">
<title>BsLoadMore</title>
<polygon fill="#ffffb3" stroke="black" points="1132.87,-84.8 1043.13,-84.8 1043.13,-48.8 1132.87,-48.8 1132.87,-84.8"/>
<text text-anchor="middle" x="1088" y="-62.6" font-family="Times,serif" font-size="14.00">BsLoadMore</text>
</g>
<!-- BsLoadMore&#45;&gt;BsSearchModule -->
<g id="edge3" class="edge">
<title>BsLoadMore&#45;&gt;BsSearchModule</title>
<path fill="none" stroke="black" d="M1102.98,-84.83C1102.98,-101.86 1102.98,-124.8 1102.98,-124.8 1102.98,-124.8 732.23,-124.8 732.23,-124.8"/>
<polygon fill="black" stroke="black" points="732.23,-121.3 722.23,-124.8 732.23,-128.3 732.23,-121.3"/>
</g>
<!-- BsLoadingBar -->
<g id="node4" class="node">
<title>BsLoadingBar</title>
<polygon fill="#ffffb3" stroke="black" points="1024.65,-84.8 927.35,-84.8 927.35,-48.8 1024.65,-48.8 1024.65,-84.8"/>
<text text-anchor="middle" x="976" y="-62.6" font-family="Times,serif" font-size="14.00">BsLoadingBar</text>
</g>
<!-- BsLoadingBar&#45;&gt;BsSearchModule -->
<g id="edge4" class="edge">
<title>BsLoadingBar&#45;&gt;BsSearchModule</title>
<path fill="none" stroke="black" d="M958.44,-84.81C958.44,-100.85 958.44,-121.8 958.44,-121.8 958.44,-121.8 732.39,-121.8 732.39,-121.8"/>
<polygon fill="black" stroke="black" points="732.39,-118.3 722.39,-121.8 732.39,-125.3 732.39,-118.3"/>
</g>
<!-- BsPageSizeSelector -->
<g id="node5" class="node">
<title>BsPageSizeSelector</title>
<polygon fill="#ffffb3" stroke="black" points="908.96,-84.8 781.04,-84.8 781.04,-48.8 908.96,-48.8 908.96,-84.8"/>
<text text-anchor="middle" x="845" y="-62.6" font-family="Times,serif" font-size="14.00">BsPageSizeSelector</text>
</g>
<!-- BsPageSizeSelector&#45;&gt;BsSearchModule -->
<g id="edge5" class="edge">
<title>BsPageSizeSelector&#45;&gt;BsSearchModule</title>
<path fill="none" stroke="black" d="M785.88,-84.92C785.88,-99.58 785.88,-117.8 785.88,-117.8 785.88,-117.8 732.43,-117.8 732.43,-117.8"/>
<polygon fill="black" stroke="black" points="732.43,-114.3 722.43,-117.8 732.43,-121.3 732.43,-114.3"/>
</g>
<!-- BsPager -->
<g id="node6" class="node">
<title>BsPager</title>
<polygon fill="#ffffb3" stroke="black" points="763.15,-84.8 700.85,-84.8 700.85,-48.8 763.15,-48.8 763.15,-84.8"/>
<text text-anchor="middle" x="732" y="-62.6" font-family="Times,serif" font-size="14.00">BsPager</text>
</g>
<!-- BsPager&#45;&gt;BsSearchModule -->
<g id="edge6" class="edge">
<title>BsPager&#45;&gt;BsSearchModule</title>
<path fill="none" stroke="black" d="M711.44,-84.91C711.44,-84.91 711.44,-103.79 711.44,-103.79"/>
<polygon fill="black" stroke="black" points="707.94,-103.79 711.44,-113.79 714.94,-103.79 707.94,-103.79"/>
</g>
<!-- BsScopeComponent -->
<g id="node7" class="node">
<title>BsScopeComponent</title>
<polygon fill="#ffffb3" stroke="black" points="683.33,-84.8 552.67,-84.8 552.67,-48.8 683.33,-48.8 683.33,-84.8"/>
<text text-anchor="middle" x="618" y="-62.6" font-family="Times,serif" font-size="14.00">BsScopeComponent</text>
</g>
<!-- BsScopeComponent&#45;&gt;BsSearchModule -->
<g id="edge7" class="edge">
<title>BsScopeComponent&#45;&gt;BsSearchModule</title>
<path fill="none" stroke="black" d="M646.48,-84.91C646.48,-84.91 646.48,-103.79 646.48,-103.79"/>
<polygon fill="black" stroke="black" points="642.98,-103.79 646.48,-113.79 649.98,-103.79 642.98,-103.79"/>
</g>
<!-- BsScroller -->
<g id="node8" class="node">
<title>BsScroller</title>
<polygon fill="#ffffb3" stroke="black" points="534.6,-84.8 459.4,-84.8 459.4,-48.8 534.6,-48.8 534.6,-84.8"/>
<text text-anchor="middle" x="497" y="-62.6" font-family="Times,serif" font-size="14.00">BsScroller</text>
</g>
<!-- BsScroller&#45;&gt;BsSearchModule -->
<g id="edge8" class="edge">
<title>BsScroller&#45;&gt;BsSearchModule</title>
<path fill="none" stroke="black" d="M497,-84.92C497,-99.58 497,-117.8 497,-117.8 497,-117.8 599.73,-117.8 599.73,-117.8"/>
<polygon fill="black" stroke="black" points="599.73,-121.3 609.73,-117.8 599.73,-114.3 599.73,-121.3"/>
</g>
<!-- BsSortSelector -->
<g id="node9" class="node">
<title>BsSortSelector</title>
<polygon fill="#ffffb3" stroke="black" points="440.98,-84.8 341.02,-84.8 341.02,-48.8 440.98,-48.8 440.98,-84.8"/>
<text text-anchor="middle" x="391" y="-62.6" font-family="Times,serif" font-size="14.00">BsSortSelector</text>
</g>
<!-- BsSortSelector&#45;&gt;BsSearchModule -->
<g id="edge9" class="edge">
<title>BsSortSelector&#45;&gt;BsSearchModule</title>
<path fill="none" stroke="black" d="M432.04,-84.81C432.04,-100.85 432.04,-121.8 432.04,-121.8 432.04,-121.8 599.66,-121.8 599.66,-121.8"/>
<polygon fill="black" stroke="black" points="599.66,-125.3 609.66,-121.8 599.66,-118.3 599.66,-125.3"/>
</g>
<!-- BsTabs -->
<g id="node10" class="node">
<title>BsTabs</title>
<polygon fill="#ffffb3" stroke="black" points="322.99,-84.8 265.01,-84.8 265.01,-48.8 322.99,-48.8 322.99,-84.8"/>
<text text-anchor="middle" x="294" y="-62.6" font-family="Times,serif" font-size="14.00">BsTabs</text>
</g>
<!-- BsTabs&#45;&gt;BsSearchModule -->
<g id="edge10" class="edge">
<title>BsTabs&#45;&gt;BsSearchModule</title>
<path fill="none" stroke="black" d="M315.87,-84.83C315.87,-101.86 315.87,-124.8 315.87,-124.8 315.87,-124.8 599.75,-124.8 599.75,-124.8"/>
<polygon fill="black" stroke="black" points="599.75,-128.3 609.75,-124.8 599.75,-121.3 599.75,-128.3"/>
</g>
<!-- BsBreadcrumbs  -->
<g id="node14" class="node">
<title>BsBreadcrumbs </title>
<polygon fill="#fb8072" stroke="black" points="1276.42,-214.8 1167.58,-214.8 1167.58,-178.8 1276.42,-178.8 1276.42,-214.8"/>
<text text-anchor="middle" x="1222" y="-192.6" font-family="Times,serif" font-size="14.00">BsBreadcrumbs </text>
</g>
<!-- BsSearchModule&#45;&gt;BsBreadcrumbs  -->
<g id="edge13" class="edge">
<title>BsSearchModule&#45;&gt;BsBreadcrumbs </title>
<path fill="none" stroke="black" stroke-dasharray="5,2" d="M722.24,-135.8C861.88,-135.8 1213.21,-135.8 1213.21,-135.8 1213.21,-135.8 1213.21,-168.5 1213.21,-168.5"/>
<polygon fill="black" stroke="black" points="1209.71,-168.5 1213.21,-178.5 1216.71,-168.5 1209.71,-168.5"/>
</g>
<!-- BsDidYouMean  -->
<g id="node15" class="node">
<title>BsDidYouMean </title>
<polygon fill="#fb8072" stroke="black" points="1149.76,-214.8 1038.24,-214.8 1038.24,-178.8 1149.76,-178.8 1149.76,-214.8"/>
<text text-anchor="middle" x="1094" y="-192.6" font-family="Times,serif" font-size="14.00">BsDidYouMean </text>
</g>
<!-- BsSearchModule&#45;&gt;BsDidYouMean  -->
<g id="edge14" class="edge">
<title>BsSearchModule&#45;&gt;BsDidYouMean </title>
<path fill="none" stroke="black" stroke-dasharray="5,2" d="M722.59,-139.8C834.43,-139.8 1073.02,-139.8 1073.02,-139.8 1073.02,-139.8 1073.02,-168.76 1073.02,-168.76"/>
<polygon fill="black" stroke="black" points="1069.52,-168.76 1073.02,-178.76 1076.52,-168.76 1069.52,-168.76"/>
</g>
<!-- BsLoadMore  -->
<g id="node16" class="node">
<title>BsLoadMore </title>
<polygon fill="#fb8072" stroke="black" points="1020.87,-214.8 927.13,-214.8 927.13,-178.8 1020.87,-178.8 1020.87,-214.8"/>
<text text-anchor="middle" x="974" y="-192.6" font-family="Times,serif" font-size="14.00">BsLoadMore </text>
</g>
<!-- BsSearchModule&#45;&gt;BsLoadMore  -->
<g id="edge15" class="edge">
<title>BsSearchModule&#45;&gt;BsLoadMore </title>
<path fill="none" stroke="black" stroke-dasharray="5,2" d="M722.36,-142.8C815.06,-142.8 989.56,-142.8 989.56,-142.8 989.56,-142.8 989.56,-168.52 989.56,-168.52"/>
<polygon fill="black" stroke="black" points="986.06,-168.52 989.56,-178.52 993.06,-168.52 986.06,-168.52"/>
</g>
<!-- BsLoadingBar  -->
<g id="node17" class="node">
<title>BsLoadingBar </title>
<polygon fill="#fb8072" stroke="black" points="909.65,-214.8 808.35,-214.8 808.35,-178.8 909.65,-178.8 909.65,-214.8"/>
<text text-anchor="middle" x="859" y="-192.6" font-family="Times,serif" font-size="14.00">BsLoadingBar </text>
</g>
<!-- BsSearchModule&#45;&gt;BsLoadingBar  -->
<g id="edge16" class="edge">
<title>BsSearchModule&#45;&gt;BsLoadingBar </title>
<path fill="none" stroke="black" stroke-dasharray="5,2" d="M722.26,-146.8C779.13,-146.8 858.7,-146.8 858.7,-146.8 858.7,-146.8 858.7,-168.75 858.7,-168.75"/>
<polygon fill="black" stroke="black" points="855.2,-168.75 858.7,-178.75 862.2,-168.75 855.2,-168.75"/>
</g>
<!-- BsPageSizeSelector  -->
<g id="node18" class="node">
<title>BsPageSizeSelector </title>
<polygon fill="#fb8072" stroke="black" points="790.96,-214.8 659.04,-214.8 659.04,-178.8 790.96,-178.8 790.96,-214.8"/>
<text text-anchor="middle" x="725" y="-192.6" font-family="Times,serif" font-size="14.00">BsPageSizeSelector </text>
</g>
<!-- BsSearchModule&#45;&gt;BsPageSizeSelector  -->
<g id="edge17" class="edge">
<title>BsSearchModule&#45;&gt;BsPageSizeSelector </title>
<path fill="none" stroke="black" stroke-dasharray="5,2" d="M690.74,-149.91C690.74,-149.91 690.74,-168.79 690.74,-168.79"/>
<polygon fill="black" stroke="black" points="687.24,-168.79 690.74,-178.79 694.24,-168.79 687.24,-168.79"/>
</g>
<!-- BsPager  -->
<g id="node19" class="node">
<title>BsPager </title>
<polygon fill="#fb8072" stroke="black" points="641.15,-214.8 574.85,-214.8 574.85,-178.8 641.15,-178.8 641.15,-214.8"/>
<text text-anchor="middle" x="608" y="-192.6" font-family="Times,serif" font-size="14.00">BsPager </text>
</g>
<!-- BsSearchModule&#45;&gt;BsPager  -->
<g id="edge18" class="edge">
<title>BsSearchModule&#45;&gt;BsPager </title>
<path fill="none" stroke="black" stroke-dasharray="5,2" d="M625.43,-149.91C625.43,-149.91 625.43,-168.79 625.43,-168.79"/>
<polygon fill="black" stroke="black" points="621.93,-168.79 625.43,-178.79 628.93,-168.79 621.93,-168.79"/>
</g>
<!-- BsScopeComponent  -->
<g id="node20" class="node">
<title>BsScopeComponent </title>
<polygon fill="#fb8072" stroke="black" points="556.83,-214.8 423.17,-214.8 423.17,-178.8 556.83,-178.8 556.83,-214.8"/>
<text text-anchor="middle" x="490" y="-192.6" font-family="Times,serif" font-size="14.00">BsScopeComponent </text>
</g>
<!-- BsSearchModule&#45;&gt;BsScopeComponent  -->
<g id="edge19" class="edge">
<title>BsSearchModule&#45;&gt;BsScopeComponent </title>
<path fill="none" stroke="black" stroke-dasharray="5,2" d="M609.5,-146.8C577.45,-146.8 543.69,-146.8 543.69,-146.8 543.69,-146.8 543.69,-168.75 543.69,-168.75"/>
<polygon fill="black" stroke="black" points="540.19,-168.75 543.69,-178.75 547.19,-168.75 540.19,-168.75"/>
</g>
<!-- BsScroller  -->
<g id="node21" class="node">
<title>BsScroller </title>
<polygon fill="#fb8072" stroke="black" points="405.1,-214.8 326.9,-214.8 326.9,-178.8 405.1,-178.8 405.1,-214.8"/>
<text text-anchor="middle" x="366" y="-192.6" font-family="Times,serif" font-size="14.00">BsScroller </text>
</g>
<!-- BsSearchModule&#45;&gt;BsScroller  -->
<g id="edge20" class="edge">
<title>BsSearchModule&#45;&gt;BsScroller </title>
<path fill="none" stroke="black" stroke-dasharray="5,2" d="M609.54,-142.8C524.44,-142.8 373.15,-142.8 373.15,-142.8 373.15,-142.8 373.15,-168.52 373.15,-168.52"/>
<polygon fill="black" stroke="black" points="369.65,-168.52 373.15,-178.52 376.65,-168.52 369.65,-168.52"/>
</g>
<!-- BsSortSelector  -->
<g id="node22" class="node">
<title>BsSortSelector </title>
<polygon fill="#fb8072" stroke="black" points="308.98,-214.8 205.02,-214.8 205.02,-178.8 308.98,-178.8 308.98,-214.8"/>
<text text-anchor="middle" x="257" y="-192.6" font-family="Times,serif" font-size="14.00">BsSortSelector </text>
</g>
<!-- BsSearchModule&#45;&gt;BsSortSelector  -->
<g id="edge21" class="edge">
<title>BsSearchModule&#45;&gt;BsSortSelector </title>
<path fill="none" stroke="black" stroke-dasharray="5,2" d="M609.65,-139.8C504.04,-139.8 286.87,-139.8 286.87,-139.8 286.87,-139.8 286.87,-168.76 286.87,-168.76"/>
<polygon fill="black" stroke="black" points="283.37,-168.76 286.87,-178.76 290.37,-168.76 283.37,-168.76"/>
</g>
<!-- BsTabs  -->
<g id="node23" class="node">
<title>BsTabs </title>
<polygon fill="#fb8072" stroke="black" points="187.99,-214.8 126.01,-214.8 126.01,-178.8 187.99,-178.8 187.99,-214.8"/>
<text text-anchor="middle" x="157" y="-192.6" font-family="Times,serif" font-size="14.00">BsTabs </text>
</g>
<!-- BsSearchModule&#45;&gt;BsTabs  -->
<g id="edge22" class="edge">
<title>BsSearchModule&#45;&gt;BsTabs </title>
<path fill="none" stroke="black" stroke-dasharray="5,2" d="M609.72,-135.8C477.53,-135.8 158.26,-135.8 158.26,-135.8 158.26,-135.8 158.26,-168.5 158.26,-168.5"/>
<polygon fill="black" stroke="black" points="154.76,-168.5 158.26,-178.5 161.76,-168.5 154.76,-168.5"/>
</g>
<!-- BsActionModule -->
<g id="node12" class="node">
<title>BsActionModule</title>
<polygon fill="#8dd3c7" stroke="black" points="241.43,-84.8 238.43,-88.8 217.43,-88.8 214.43,-84.8 128.57,-84.8 128.57,-48.8 241.43,-48.8 241.43,-84.8"/>
<text text-anchor="middle" x="185" y="-62.6" font-family="Times,serif" font-size="14.00">BsActionModule</text>
</g>
<!-- BsActionModule&#45;&gt;BsSearchModule -->
<g id="edge11" class="edge">
<title>BsActionModule&#45;&gt;BsSearchModule</title>
<path fill="none" stroke="black" d="M223.24,-85.07C223.24,-103.36 223.24,-128.8 223.24,-128.8 223.24,-128.8 599.47,-128.8 599.47,-128.8"/>
<polygon fill="black" stroke="black" points="599.47,-132.3 609.47,-128.8 599.47,-125.3 599.47,-132.3"/>
</g>
<!-- UtilsModule -->
<g id="node13" class="node">
<title>UtilsModule</title>
<polygon fill="#8dd3c7" stroke="black" points="110.27,-84.8 107.27,-88.8 86.27,-88.8 83.27,-84.8 23.73,-84.8 23.73,-48.8 110.27,-48.8 110.27,-84.8"/>
<text text-anchor="middle" x="67" y="-62.6" font-family="Times,serif" font-size="14.00">UtilsModule</text>
</g>
<!-- UtilsModule&#45;&gt;BsSearchModule -->
<g id="edge12" class="edge">
<title>UtilsModule&#45;&gt;BsSearchModule</title>
<path fill="none" stroke="black" d="M67,-84.91C67,-104.14 67,-131.8 67,-131.8 67,-131.8 599.65,-131.8 599.65,-131.8"/>
<polygon fill="black" stroke="black" points="599.65,-135.3 609.65,-131.8 599.65,-128.3 599.65,-135.3"/>
</g>
</g>
</svg>
