<?xml version="1.0" encoding="UTF-8" standalone="no"?>
<!DOCTYPE svg PUBLIC "-//W3C//DTD SVG 1.1//EN"
 "http://www.w3.org/Graphics/SVG/1.1/DTD/svg11.dtd">
<!-- Generated by graphviz version 2.40.1 (20161225.0304)
 -->
<!-- Title: dependencies Pages: 1 -->
<svg width="1267pt" height="284pt"
 viewBox="0.00 0.00 1267.00 284.00" xmlns="http://www.w3.org/2000/svg" xmlns:xlink="http://www.w3.org/1999/xlink">
<g id="graph0" class="graph" transform="scale(1 1) rotate(0) translate(4 280)">
<title>dependencies</title>
<polygon fill="#ffffff" stroke="transparent" points="-4,4 -4,-280 1263,-280 1263,4 -4,4"/>
<text text-anchor="start" x="608.5091" y="-42.4" font-family="sans-serif" font-weight="bold" font-size="14.00" fill="#000000">Legend</text>
<polygon fill="#ffffb3" stroke="transparent" points="395.5,-10 395.5,-30 415.5,-30 415.5,-10 395.5,-10"/>
<text text-anchor="start" x="419.129" y="-15.4" font-family="sans-serif" font-size="14.00" fill="#000000"> &#160;Declarations</text>
<polygon fill="#8dd3c7" stroke="transparent" points="508.5,-10 508.5,-30 528.5,-30 528.5,-10 508.5,-10"/>
<text text-anchor="start" x="532.2251" y="-15.4" font-family="sans-serif" font-size="14.00" fill="#000000"> &#160;Module</text>
<polygon fill="#80b1d3" stroke="transparent" points="594.5,-10 594.5,-30 614.5,-30 614.5,-10 594.5,-10"/>
<text text-anchor="start" x="618.2812" y="-15.4" font-family="sans-serif" font-size="14.00" fill="#000000"> &#160;Bootstrap</text>
<polygon fill="#fdb462" stroke="transparent" points="691.5,-10 691.5,-30 711.5,-30 711.5,-10 691.5,-10"/>
<text text-anchor="start" x="715.1732" y="-15.4" font-family="sans-serif" font-size="14.00" fill="#000000"> &#160;Providers</text>
<polygon fill="#fb8072" stroke="transparent" points="787.5,-10 787.5,-30 807.5,-30 807.5,-10 787.5,-10"/>
<text text-anchor="start" x="811.2258" y="-15.4" font-family="sans-serif" font-size="14.00" fill="#000000"> &#160;Exports</text>
<g id="clust1" class="cluster">
<title>cluster_BsSearchModule</title>
<polygon fill="none" stroke="#000000" stroke-dasharray="1,5" points="8,-70 8,-268 1251,-268 1251,-70 8,-70"/>
</g>
<g id="clust2" class="cluster">
<title>cluster_BsSearchModule_declarations</title>
<polygon fill="none" stroke="#000000" points="257,-78 257,-130 1243,-130 1243,-78 257,-78"/>
</g>
<g id="clust12" class="cluster">
<title>cluster_BsSearchModule_imports</title>
<polygon fill="none" stroke="#000000" points="16,-78 16,-130 249,-130 249,-78 16,-78"/>
</g>
<g id="clust13" class="cluster">
<title>cluster_BsSearchModule_exports</title>
<polygon fill="none" stroke="#000000" points="129,-208 129,-260 1143,-260 1143,-208 129,-208"/>
</g>
<!-- BsBreadcrumbs -->
<g id="node1" class="node">
<title>BsBreadcrumbs</title>
<polygon fill="#ffffb3" stroke="#000000" points="1234.9188,-122 1129.0812,-122 1129.0812,-86 1234.9188,-86 1234.9188,-122"/>
<text text-anchor="middle" x="1182" y="-99.8" font-family="Times,serif" font-size="14.00" fill="#000000">BsBreadcrumbs</text>
</g>
<!-- BsSearchModule -->
<g id="node10" class="node">
<title>BsSearchModule</title>
<polygon fill="#8dd3c7" stroke="#000000" points="640.4188,-187 637.4188,-191 616.4188,-191 613.4188,-187 527.5812,-187 527.5812,-151 640.4188,-151 640.4188,-187"/>
<text text-anchor="middle" x="584" y="-164.8" font-family="Times,serif" font-size="14.00" fill="#000000">BsSearchModule</text>
</g>
<!-- BsBreadcrumbs&#45;&gt;BsSearchModule -->
<g id="edge1" class="edge">
<title>BsBreadcrumbs&#45;&gt;BsSearchModule</title>
<path fill="none" stroke="#000000" d="M1185.084,-122.2222C1185.084,-140.8285 1185.084,-167 1185.084,-167 1185.084,-167 650.2784,-167 650.2784,-167"/>
<polygon fill="#000000" stroke="#000000" points="650.2784,-163.5001 640.2784,-167 650.2783,-170.5001 650.2784,-163.5001"/>
</g>
<!-- BsDidYouMean -->
<g id="node2" class="node">
<title>BsDidYouMean</title>
<polygon fill="#ffffb3" stroke="#000000" points="1110.7591,-122 1003.2409,-122 1003.2409,-86 1110.7591,-86 1110.7591,-122"/>
<text text-anchor="middle" x="1057" y="-99.8" font-family="Times,serif" font-size="14.00" fill="#000000">BsDidYouMean</text>
</g>
<!-- BsDidYouMean&#45;&gt;BsSearchModule -->
<g id="edge2" class="edge">
<title>BsDidYouMean&#45;&gt;BsSearchModule</title>
<path fill="none" stroke="#000000" d="M1017.5852,-122.0225C1017.5852,-139.3734 1017.5852,-163 1017.5852,-163 1017.5852,-163 650.2392,-163 650.2392,-163"/>
<polygon fill="#000000" stroke="#000000" points="650.2392,-159.5001 640.2392,-163 650.2392,-166.5001 650.2392,-159.5001"/>
</g>
<!-- BsLoadMore -->
<g id="node3" class="node">
<title>BsLoadMore</title>
<polygon fill="#ffffb3" stroke="#000000" points="984.8683,-122 895.1317,-122 895.1317,-86 984.8683,-86 984.8683,-122"/>
<text text-anchor="middle" x="940" y="-99.8" font-family="Times,serif" font-size="14.00" fill="#000000">BsLoadMore</text>
</g>
<!-- BsLoadMore&#45;&gt;BsSearchModule -->
<g id="edge3" class="edge">
<title>BsLoadMore&#45;&gt;BsSearchModule</title>
<path fill="none" stroke="#000000" d="M955.7463,-122.0091C955.7463,-138.0494 955.7463,-159 955.7463,-159 955.7463,-159 650.4603,-159 650.4603,-159"/>
<polygon fill="#000000" stroke="#000000" points="650.4603,-155.5001 640.4603,-159 650.4602,-162.5001 650.4603,-155.5001"/>
</g>
<!-- BsLoadingBar -->
<g id="node4" class="node">
<title>BsLoadingBar</title>
<polygon fill="#ffffb3" stroke="#000000" points="876.6514,-122 779.3486,-122 779.3486,-86 876.6514,-86 876.6514,-122"/>
<text text-anchor="middle" x="828" y="-99.8" font-family="Times,serif" font-size="14.00" fill="#000000">BsLoadingBar</text>
</g>
<!-- BsLoadingBar&#45;&gt;BsSearchModule -->
<g id="edge4" class="edge">
<title>BsLoadingBar&#45;&gt;BsSearchModule</title>
<path fill="none" stroke="#000000" d="M782.7453,-122.1243C782.7453,-136.7832 782.7453,-155 782.7453,-155 782.7453,-155 650.4208,-155 650.4208,-155"/>
<polygon fill="#000000" stroke="#000000" points="650.4208,-151.5001 640.4208,-155 650.4208,-158.5001 650.4208,-151.5001"/>
</g>
<!-- BsPageSizeSelector -->
<g id="node5" class="node">
<title>BsPageSizeSelector</title>
<polygon fill="#ffffb3" stroke="#000000" points="760.9636,-122 633.0364,-122 633.0364,-86 760.9636,-86 760.9636,-122"/>
<text text-anchor="middle" x="697" y="-99.8" font-family="Times,serif" font-size="14.00" fill="#000000">BsPageSizeSelector</text>
</g>
<!-- BsPageSizeSelector&#45;&gt;BsSearchModule -->
<g id="edge5" class="edge">
<title>BsPageSizeSelector&#45;&gt;BsSearchModule</title>
<path fill="none" stroke="#000000" d="M636.6136,-122.1061C636.6136,-122.1061 636.6136,-140.991 636.6136,-140.991"/>
<polygon fill="#000000" stroke="#000000" points="633.1137,-140.9909 636.6136,-150.991 640.1137,-140.991 633.1137,-140.9909"/>
</g>
<!-- BsPager -->
<g id="node6" class="node">
<title>BsPager</title>
<polygon fill="#ffffb3" stroke="#000000" points="615.1546,-122 552.8454,-122 552.8454,-86 615.1546,-86 615.1546,-122"/>
<text text-anchor="middle" x="584" y="-99.8" font-family="Times,serif" font-size="14.00" fill="#000000">BsPager</text>
</g>
<!-- BsPager&#45;&gt;BsSearchModule -->
<g id="edge6" class="edge">
<title>BsPager&#45;&gt;BsSearchModule</title>
<path fill="none" stroke="#000000" d="M584,-122.1061C584,-122.1061 584,-140.991 584,-140.991"/>
<polygon fill="#000000" stroke="#000000" points="580.5001,-140.9909 584,-150.991 587.5001,-140.991 580.5001,-140.9909"/>
</g>
<!-- BsScroller -->
<g id="node7" class="node">
<title>BsScroller</title>
<polygon fill="#ffffb3" stroke="#000000" points="534.5955,-122 459.4045,-122 459.4045,-86 534.5955,-86 534.5955,-122"/>
<text text-anchor="middle" x="497" y="-99.8" font-family="Times,serif" font-size="14.00" fill="#000000">BsScroller</text>
</g>
<!-- BsScroller&#45;&gt;BsSearchModule -->
<g id="edge7" class="edge">
<title>BsScroller&#45;&gt;BsSearchModule</title>
<path fill="none" stroke="#000000" d="M523.0296,-122.1532C523.0296,-145.7566 523.0296,-184 523.0296,-184 523.0296,-184 523.4681,-184 523.4681,-184"/>
<polygon fill="#000000" stroke="#000000" points="517.4145,-187.5003 527.4144,-184 517.4144,-180.5003 517.4145,-187.5003"/>
</g>
<!-- BsSortSelector -->
<g id="node8" class="node">
<title>BsSortSelector</title>
<polygon fill="#ffffb3" stroke="#000000" points="440.9832,-122 341.0168,-122 341.0168,-86 440.9832,-86 440.9832,-122"/>
<text text-anchor="middle" x="391" y="-99.8" font-family="Times,serif" font-size="14.00" fill="#000000">BsSortSelector</text>
</g>
<!-- BsSortSelector&#45;&gt;BsSearchModule -->
<g id="edge8" class="edge">
<title>BsSortSelector&#45;&gt;BsSearchModule</title>
<path fill="none" stroke="#000000" d="M437.4574,-122.1243C437.4574,-136.7832 437.4574,-155 437.4574,-155 437.4574,-155 517.7619,-155 517.7619,-155"/>
<polygon fill="#000000" stroke="#000000" points="517.7619,-158.5001 527.7619,-155 517.7619,-151.5001 517.7619,-158.5001"/>
</g>
<!-- BsTabs -->
<g id="node9" class="node">
<title>BsTabs</title>
<polygon fill="#ffffb3" stroke="#000000" points="322.993,-122 265.007,-122 265.007,-86 322.993,-86 322.993,-122"/>
<text text-anchor="middle" x="294" y="-99.8" font-family="Times,serif" font-size="14.00" fill="#000000">BsTabs</text>
</g>
<!-- BsTabs&#45;&gt;BsSearchModule -->
<g id="edge9" class="edge">
<title>BsTabs&#45;&gt;BsSearchModule</title>
<path fill="none" stroke="#000000" d="M301.4956,-122.0091C301.4956,-138.0494 301.4956,-159 301.4956,-159 301.4956,-159 517.51,-159 517.51,-159"/>
<polygon fill="#000000" stroke="#000000" points="517.51,-162.5001 527.51,-159 517.51,-155.5001 517.51,-162.5001"/>
</g>
<!-- BsBreadcrumbs  -->
<g id="node13" class="node">
<title>BsBreadcrumbs </title>
<polygon fill="#fb8072" stroke="#000000" points="1135.418,-252 1026.582,-252 1026.582,-216 1135.418,-216 1135.418,-252"/>
<text text-anchor="middle" x="1081" y="-229.8" font-family="Times,serif" font-size="14.00" fill="#000000">BsBreadcrumbs </text>
</g>
<!-- BsSearchModule&#45;&gt;BsBreadcrumbs  -->
<g id="edge12" class="edge">
<title>BsSearchModule&#45;&gt;BsBreadcrumbs </title>
<path fill="none" stroke="#000000" stroke-dasharray="5,2" d="M640.5511,-171C768.4123,-171 1068.7102,-171 1068.7102,-171 1068.7102,-171 1068.7102,-205.7778 1068.7102,-205.7778"/>
<polygon fill="#000000" stroke="#000000" points="1065.2103,-205.7778 1068.7102,-215.7778 1072.2103,-205.7778 1065.2103,-205.7778"/>
</g>
<!-- BsDidYouMean  -->
<g id="node14" class="node">
<title>BsDidYouMean </title>
<polygon fill="#fb8072" stroke="#000000" points="1008.7591,-252 897.2409,-252 897.2409,-216 1008.7591,-216 1008.7591,-252"/>
<text text-anchor="middle" x="953" y="-229.8" font-family="Times,serif" font-size="14.00" fill="#000000">BsDidYouMean </text>
</g>
<!-- BsSearchModule&#45;&gt;BsDidYouMean  -->
<g id="edge13" class="edge">
<title>BsSearchModule&#45;&gt;BsDidYouMean </title>
<path fill="none" stroke="#000000" stroke-dasharray="5,2" d="M640.5666,-175C737.8628,-175 926.5584,-175 926.5584,-175 926.5584,-175 926.5584,-205.9775 926.5584,-205.9775"/>
<polygon fill="#000000" stroke="#000000" points="923.0585,-205.9774 926.5584,-215.9775 930.0585,-205.9775 923.0585,-205.9774"/>
</g>
<!-- BsLoadMore  -->
<g id="node15" class="node">
<title>BsLoadMore </title>
<polygon fill="#fb8072" stroke="#000000" points="879.8689,-252 786.1311,-252 786.1311,-216 879.8689,-216 879.8689,-252"/>
<text text-anchor="middle" x="833" y="-229.8" font-family="Times,serif" font-size="14.00" fill="#000000">BsLoadMore </text>
</g>
<!-- BsSearchModule&#45;&gt;BsLoadMore  -->
<g id="edge14" class="edge">
<title>BsSearchModule&#45;&gt;BsLoadMore </title>
<path fill="none" stroke="#000000" stroke-dasharray="5,2" d="M640.4874,-179C713.5554,-179 831.5707,-179 831.5707,-179 831.5707,-179 831.5707,-205.9909 831.5707,-205.9909"/>
<polygon fill="#000000" stroke="#000000" points="828.0707,-205.9909 831.5707,-215.9909 835.0707,-205.991 828.0707,-205.9909"/>
</g>
<!-- BsLoadingBar  -->
<g id="node16" class="node">
<title>BsLoadingBar </title>
<polygon fill="#fb8072" stroke="#000000" points="768.6509,-252 667.3491,-252 667.3491,-216 768.6509,-216 768.6509,-252"/>
<text text-anchor="middle" x="718" y="-229.8" font-family="Times,serif" font-size="14.00" fill="#000000">BsLoadingBar </text>
</g>
<!-- BsSearchModule&#45;&gt;BsLoadingBar  -->
<g id="edge15" class="edge">
<title>BsSearchModule&#45;&gt;BsLoadingBar </title>
<path fill="none" stroke="#000000" stroke-dasharray="5,2" d="M640.3517,-183C675.5407,-183 714.2032,-183 714.2032,-183 714.2032,-183 714.2032,-205.8757 714.2032,-205.8757"/>
<polygon fill="#000000" stroke="#000000" points="710.7033,-205.8757 714.2032,-215.8757 717.7033,-205.8757 710.7033,-205.8757"/>
</g>
<!-- BsPageSizeSelector  -->
<g id="node17" class="node">
<title>BsPageSizeSelector </title>
<polygon fill="#fb8072" stroke="#000000" points="649.9644,-252 518.0356,-252 518.0356,-216 649.9644,-216 649.9644,-252"/>
<text text-anchor="middle" x="584" y="-229.8" font-family="Times,serif" font-size="14.00" fill="#000000">BsPageSizeSelector </text>
</g>
<!-- BsSearchModule&#45;&gt;BsPageSizeSelector  -->
<g id="edge16" class="edge">
<title>BsSearchModule&#45;&gt;BsPageSizeSelector </title>
<path fill="none" stroke="#000000" stroke-dasharray="5,2" d="M584,-187.1061C584,-187.1061 584,-205.991 584,-205.991"/>
<polygon fill="#000000" stroke="#000000" points="580.5001,-205.9909 584,-215.991 587.5001,-205.991 580.5001,-205.9909"/>
</g>
<!-- BsPager  -->
<g id="node18" class="node">
<title>BsPager </title>
<polygon fill="#fb8072" stroke="#000000" points="500.1538,-252 433.8462,-252 433.8462,-216 500.1538,-216 500.1538,-252"/>
<text text-anchor="middle" x="467" y="-229.8" font-family="Times,serif" font-size="14.00" fill="#000000">BsPager </text>
</g>
<!-- BsSearchModule&#45;&gt;BsPager  -->
<g id="edge17" class="edge">
<title>BsSearchModule&#45;&gt;BsPager </title>
<path fill="none" stroke="#000000" stroke-dasharray="5,2" d="M527.6113,-180C503.0512,-180 479.7646,-180 479.7646,-180 479.7646,-180 479.7646,-205.7181 479.7646,-205.7181"/>
<polygon fill="#000000" stroke="#000000" points="476.2646,-205.718 479.7646,-215.7181 483.2646,-205.7181 476.2646,-205.718"/>
</g>
<!-- BsScroller  -->
<g id="node19" class="node">
<title>BsScroller </title>
<polygon fill="#fb8072" stroke="#000000" points="416.0964,-252 337.9036,-252 337.9036,-216 416.0964,-216 416.0964,-252"/>
<text text-anchor="middle" x="377" y="-229.8" font-family="Times,serif" font-size="14.00" fill="#000000">BsScroller </text>
</g>
<!-- BsSearchModule&#45;&gt;BsScroller  -->
<g id="edge18" class="edge">
<title>BsSearchModule&#45;&gt;BsScroller </title>
<path fill="none" stroke="#000000" stroke-dasharray="5,2" d="M527.6164,-177C466.8256,-177 378.6531,-177 378.6531,-177 378.6531,-177 378.6531,-205.9648 378.6531,-205.9648"/>
<polygon fill="#000000" stroke="#000000" points="375.1531,-205.9648 378.6531,-215.9648 382.1531,-205.9649 375.1531,-205.9648"/>
</g>
<!-- BsSortSelector  -->
<g id="node20" class="node">
<title>BsSortSelector </title>
<polygon fill="#fb8072" stroke="#000000" points="319.9843,-252 216.0157,-252 216.0157,-216 319.9843,-216 319.9843,-252"/>
<text text-anchor="middle" x="268" y="-229.8" font-family="Times,serif" font-size="14.00" fill="#000000">BsSortSelector </text>
</g>
<!-- BsSearchModule&#45;&gt;BsSortSelector  -->
<g id="edge19" class="edge">
<title>BsSearchModule&#45;&gt;BsSortSelector </title>
<path fill="none" stroke="#000000" stroke-dasharray="5,2" d="M527.7839,-173C440.7358,-173 283.2495,-173 283.2495,-173 283.2495,-173 283.2495,-205.698 283.2495,-205.698"/>
<polygon fill="#000000" stroke="#000000" points="279.7496,-205.698 283.2495,-215.698 286.7496,-205.698 279.7496,-205.698"/>
</g>
<!-- BsTabs  -->
<g id="node21" class="node">
<title>BsTabs </title>
<polygon fill="#fb8072" stroke="#000000" points="198.995,-252 137.005,-252 137.005,-216 198.995,-216 198.995,-252"/>
<text text-anchor="middle" x="168" y="-229.8" font-family="Times,serif" font-size="14.00" fill="#000000">BsTabs </text>
</g>
<!-- BsSearchModule&#45;&gt;BsTabs  -->
<g id="edge20" class="edge">
<title>BsSearchModule&#45;&gt;BsTabs </title>
<path fill="none" stroke="#000000" stroke-dasharray="5,2" d="M527.4635,-169C413.7213,-169 168,-169 168,-169 168,-169 168,-205.8939 168,-205.8939"/>
<polygon fill="#000000" stroke="#000000" points="164.5001,-205.8938 168,-215.8939 171.5001,-205.8939 164.5001,-205.8938"/>
</g>
<!-- BsActionModule -->
<g id="node11" class="node">
<title>BsActionModule</title>
<polygon fill="#8dd3c7" stroke="#000000" points="241.4342,-122 238.4342,-126 217.4342,-126 214.4342,-122 128.5658,-122 128.5658,-86 241.4342,-86 241.4342,-122"/>
<text text-anchor="middle" x="185" y="-99.8" font-family="Times,serif" font-size="14.00" fill="#000000">BsActionModule</text>
</g>
<!-- BsActionModule&#45;&gt;BsSearchModule -->
<g id="edge10" class="edge">
<title>BsActionModule&#45;&gt;BsSearchModule</title>
<path fill="none" stroke="#000000" d="M228.7376,-122.0336C228.7376,-139.0597 228.7376,-162 228.7376,-162 228.7376,-162 517.7076,-162 517.7076,-162"/>
<polygon fill="#000000" stroke="#000000" points="517.7076,-165.5001 527.7076,-162 517.7076,-158.5001 517.7076,-165.5001"/>
</g>
<!-- UtilsModule -->
<g id="node12" class="node">
<title>UtilsModule</title>
<polygon fill="#8dd3c7" stroke="#000000" points="110.2731,-122 107.2731,-126 86.2731,-126 83.2731,-122 23.7269,-122 23.7269,-86 110.2731,-86 110.2731,-122"/>
<text text-anchor="middle" x="67" y="-99.8" font-family="Times,serif" font-size="14.00" fill="#000000">UtilsModule</text>
</g>
<!-- UtilsModule&#45;&gt;BsSearchModule -->
<g id="edge11" class="edge">
<title>UtilsModule&#45;&gt;BsSearchModule</title>
<path fill="none" stroke="#000000" d="M67,-122.2667C67,-140.5552 67,-166 67,-166 67,-166 517.6878,-166 517.6878,-166"/>
<polygon fill="#000000" stroke="#000000" points="517.6878,-169.5001 527.6878,-166 517.6877,-162.5001 517.6878,-169.5001"/>
</g>
</g>
</svg>
